<svg transform="scale(1)" version="1.1" id="Layer_1" xmlns="http://www.w3.org/2000/svg" xmlns:xlink="http://www.w3.org/1999/xlink" x="0px" y="0px" viewBox="0 0 500 500" xml:space="preserve" class="show_show__wrapper__graphic__5Waiy "><title>React</title><style type="text/css">
	.st0{fill:#8dc572;}
	.st1{fill:#222222;}
	.st2{fill:#FFFFFF;}
	.st3{opacity:0.5;}
</style><g id="chair"><g id="chair-2"><path class="st0" d="M415,213.9l-0.6-1.6l4.8-1.9l0.6,1.6L415,213.9z M424.5,210.2l-0.6-1.6l4.8-1.9l0.6,1.6L424.5,210.2z
			 M434,206.5l-0.6-1.6l4.8-1.9l0.6,1.6L434,206.5z M443.5,202.8l-0.6-1.6l4.8-1.9l0.6,1.6L443.5,202.8z M453,199.1l-0.6-1.6
			l4.8-1.9l0.6,1.6L453,199.1z M462.5,195.4l-0.6-1.6l4.8-1.9l0.6,1.6L462.5,195.4z M472,191.7l-0.6-1.6l4.8-1.9l0.6,1.6L472,191.7z
			"></path><path class="st0" d="M414.8,214.5l-0.9-2.4l5.5-2.2l0.9,2.4L414.8,214.5z M415,212.6l0.3,0.8l4-1.6L419,211L415,212.6z
			 M424.3,210.8l-0.9-2.4l5.5-2.2l0.9,2.4L424.3,210.8z M424.5,208.9l0.3,0.8l4-1.6l-0.3-0.8L424.5,208.9z M433.8,207.1l-0.9-2.4
			l5.5-2.2l0.9,2.4L433.8,207.1z M434,205.2l0.3,0.8l4-1.5l-0.3-0.8L434,205.2z M443.3,203.3l-0.9-2.4l5.5-2.2l0.9,2.4L443.3,203.3z
			 M443.5,201.5l0.3,0.8l4-1.5l-0.3-0.8L443.5,201.5z M452.8,199.6l-0.9-2.4l5.5-2.2l0.9,2.4L452.8,199.6z M453,197.7l0.3,0.8l4-1.5
			l-0.3-0.8L453,197.7z M462.3,195.9l-0.9-2.4l5.5-2.2l0.9,2.4L462.3,195.9z M462.5,194l0.3,0.8l4-1.5l-0.3-0.8L462.5,194z
			 M471.8,192.2l-0.9-2.4l5.5-2.2l0.9,2.4L471.8,192.2z M472,190.3l0.3,0.8l4-1.5l-0.3-0.8L472,190.3z"></path><path class="st0" d="M247.3,406.5l-0.3-0.8l4.8-1.9l0.3,0.8L247.3,406.5z M256.8,402.8l-0.3-0.8l4.8-1.9l0.3,0.8L256.8,402.8z
			 M266.4,399.1l-0.3-0.8l4.8-1.9l0.3,0.8L266.4,399.1z M275.9,395.4l-0.3-0.8l4.8-1.9l0.3,0.8L275.9,395.4z M285.4,391.7l-0.3-0.8
			l4.8-1.9l0.3,0.8L285.4,391.7z M294.9,387.9l-0.3-0.8l4.8-1.9l0.3,0.8L294.9,387.9z M304.4,384.2l-0.3-0.8l4.8-1.9l0.3,0.8
			L304.4,384.2z"></path><path class="st0" d="M247.1,407l-0.6-1.6l5.5-2.2l0.6,1.6L247.1,407z M256.6,403.3l-0.6-1.6l5.5-2.2l0.6,1.6L256.6,403.3z
			 M266.1,399.6l-0.6-1.6l5.5-2.2l0.6,1.6L266.1,399.6z M275.6,395.9l-0.6-1.6l5.5-2.2l0.6,1.6L275.6,395.9z M285.1,392.2l-0.6-1.6
			l5.5-2.2l0.6,1.6L285.1,392.2z M294.6,388.5l-0.6-1.6l5.5-2.2l0.6,1.6L294.6,388.5z M304.1,384.7l-0.6-1.6l5.5-2.2l0.6,1.6
			L304.1,384.7z"></path><polygon class="st0" points="316.2,196.4 316.3,191.3 316.3,191.3 321.4,191.2 321.4,191.2 316.3,191.3 316.3,191.3 316.2,196.4 
					"></polygon><polygon class="st0" points="316.6,196.8 315.8,196.8 315.7,196.4 315.9,190.9 316.3,190.9 321.8,190.8 321.8,191.6 321.4,191.7 
			316.7,191.7 		"></polygon><polygon class="st0" points="326.5,191.1 331.6,191 331.6,191.2 326.5,191.2 		"></polygon><polygon class="st0" points="326.1,191.6 326,190.7 332,190.6 332,191.6 		"></polygon><polygon class="st0" points="336.7,190.9 341.8,190.8 341.8,191.1 336.7,191.1 		"></polygon><polygon class="st0" points="336.3,191.5 336.2,190.5 342.2,190.4 342.2,191.5 		"></polygon><polygon class="st0" points="346.9,190.7 352,190.6 352,191 346.9,191 		"></polygon><polygon class="st0" points="346.5,191.4 346.5,190.3 352.4,190.2 352.4,191.4 		"></polygon><polygon class="st0" points="357.1,190.5 362.2,190.4 362.2,190.9 357.1,190.9 		"></polygon><polygon class="st0" points="356.7,191.3 356.6,190.1 362.6,190 362.6,191.3 		"></polygon><polygon class="st0" points="367.3,190.3 372.4,190.2 372.4,190.8 367.3,190.8 		"></polygon><polygon class="st0" points="366.9,191.2 366.9,189.9 372.8,189.8 372.8,191.2 		"></polygon><polygon class="st0" points="377.5,190.1 382.6,190.1 382.6,190.7 377.5,190.7 		"></polygon><polygon class="st0" points="377.1,191.1 377,189.7 383,189.6 383,191.1 		"></polygon><polygon class="st0" points="387.7,190 392.8,189.9 392.8,190.6 387.7,190.6 		"></polygon><polygon class="st0" points="387.3,191.1 387.2,189.5 393.2,189.4 393.2,191 		"></polygon><polygon class="st0" points="397.9,189.8 403,189.7 403,190.5 397.9,190.5 		"></polygon><polygon class="st0" points="397.5,190.9 397.5,189.4 403.4,189.2 403.4,190.9 		"></polygon><polygon class="st0" points="408.1,189.6 413.2,189.5 413.2,190.4 408.1,190.4 		"></polygon><path class="st0" d="M407.7,190.9v-1.7l6-0.1v1.7L407.7,190.9z M412.8,189.9l-3.7,0.1L412.8,189.9L412.8,189.9z"></path><polygon class="st0" points="418.3,189.4 423.4,189.3 423.4,190.2 418.3,190.3 		"></polygon><path class="st0" d="M417.9,190.7V189l6-0.1v1.8L417.9,190.7z M418.7,189.8L418.7,189.8h4.3v-0.1L418.7,189.8z"></path><polygon class="st0" points="428.5,189.2 433.6,189.1 433.6,190.1 428.5,190.2 		"></polygon><path class="st0" d="M428.1,190.6v-1.8l6-0.1v1.8L428.1,190.6z M428.9,189.6v0.1h4.2v-0.1L428.9,189.6z"></path><polygon class="st0" points="438.7,189.1 443.8,189 443.8,190 438.7,190.1 		"></polygon><path class="st0" d="M438.3,190.5v-1.9l6-0.1v1.9L438.3,190.5z M439.1,189.5v0.2h4.2v-0.2L439.1,189.5z"></path><polygon class="st0" points="448.9,188.9 454,188.8 454,189.9 448.9,189.9 		"></polygon><path class="st0" d="M448.5,190.4v-1.9l6-0.1v1.9L448.5,190.4z M449.3,189.3v0.2l4.2-0.1v-0.2L449.3,189.3z"></path><polygon class="st0" points="459.1,188.7 464.2,188.6 464.2,189.8 459.1,189.8 		"></polygon><path class="st0" d="M458.7,190.3v-2l6-0.1v2L458.7,190.3z M459.5,189.1v0.3l4.2-0.1v-0.3L459.5,189.1z"></path><polygon class="st0" points="469.3,188.6 474.4,188.5 474.4,189.6 469.3,189.7 		"></polygon><path class="st0" d="M468.9,190.1v-2l6-0.1v2L468.9,190.1z M469.7,189v0.3l4.2-0.1v-0.3L469.7,189z"></path><polygon class="st0" points="477.2,192 477.4,197.1 476.1,197.1 476,192 		"></polygon><path class="st0" d="M475.7,197.6l-0.2-5.9l2.1-0.1l0.2,5.9L475.7,197.6z M476.4,192.4l0.1,4.2h0.4l-0.1-4.2H476.4z"></path><polygon class="st0" points="477.6,202.2 477.8,207.3 476.5,207.3 476.3,202.2 		"></polygon><path class="st0" d="M476,207.8l-0.2-6l2.1-0.1l0.2,5.9L476,207.8z M476.7,202.6l0.1,4.2h0.4l-0.1-4.2L476.7,202.6z"></path><polygon class="st0" points="477.9,212.4 478.1,217.5 476.8,217.5 476.6,212.4 		"></polygon><path class="st0" d="M476.4,218l-0.2-5.9l2.2-0.1l0.2,5.9L476.4,218z M477.1,212.9l0.1,4.2h0.5l-0.1-4.2H477.1z"></path><polygon class="st0" points="478.3,222.6 478.5,227.7 477.1,227.7 476.9,222.6 		"></polygon><path class="st0" d="M476.7,228.2l-0.2-5.9l2.2-0.1l0.2,6L476.7,228.2z M477.4,223l0.1,4.2h0.5l-0.1-4.2H477.4z"></path><polygon class="st0" points="478.6,232.8 478.8,237.9 477.4,237.9 477.2,232.8 		"></polygon><path class="st0" d="M477,238.4l-0.2-6l2.3-0.1l0.2,5.9L477,238.4z M477.7,233.2l0.1,4.2h0.6l-0.1-4.2H477.7z"></path><polygon class="st0" points="479,243 479.2,248.1 477.7,248.1 477.5,243 		"></polygon><path class="st0" d="M477.3,248.6l-0.2-5.9l2.3-0.1l0.2,5.9L477.3,248.6z M478,243.4l0.1,4.2h0.6l-0.1-4.2H478z"></path><polygon class="st0" points="479.3,253.2 479.5,258.3 478,258.3 477.9,253.2 		"></polygon><path class="st0" d="M477.6,258.8l-0.2-5.9l2.3-0.1l0.2,6L477.6,258.8z M478.3,253.6l0.1,4.2h0.6l-0.1-4.2L478.3,253.6z"></path><polygon class="st0" points="479.7,263.4 479.9,268.5 478.4,268.5 478.2,263.4 		"></polygon><path class="st0" d="M477.9,269l-0.2-6l2.3-0.1l0.2,6L477.9,269z M478.6,263.9l0.1,4.2h0.6l-0.1-4.2H478.6z"></path><polygon class="st0" points="480,273.6 480.2,278.7 478.7,278.7 478.5,273.6 		"></polygon><path class="st0" d="M478.3,279.1l-0.2-5.9l2.4-0.1l0.2,6L478.3,279.1z M479,274l0.1,4.2h0.7l-0.1-4.2H479z"></path><polygon class="st0" points="480.4,283.8 480.5,288.9 479,288.9 478.8,283.8 		"></polygon><path class="st0" d="M478.6,289.3l-0.2-6l2.4-0.1l0.2,5.9L478.6,289.3z M479.3,284.2l0.1,4.2h0.7l-0.1-4.2L479.3,284.2z"></path><polygon class="st0" points="480.7,294 480.9,299 479.3,299.1 479.2,294 		"></polygon><path class="st0" d="M478.9,299.5l-0.2-6l2.4-0.1l0.2,6L478.9,299.5z M479.6,294.4l0.1,4.2h0.7l-0.1-4.2H479.6z"></path><polygon class="st0" points="481,304.1 481.2,309.2 479.6,309.3 479.5,304.2 		"></polygon><path class="st0" d="M479.2,309.7l-0.2-6l2.4-0.1l0.2,6L479.2,309.7z M479.9,304.6l0.1,4.2h0.7l-0.1-4.2L479.9,304.6z"></path><polygon class="st0" points="481.4,314.3 481.5,319.4 480,319.5 479.8,314.4 		"></polygon><path class="st0" d="M479.6,319.9l-0.2-6l2.4-0.1l0.2,6L479.6,319.9z M480.2,314.8l0.1,4.2h0.7l-0.1-4.2L480.2,314.8z"></path><polygon class="st0" points="481.7,324.5 481.9,329.6 480.3,329.7 480.1,324.6 		"></polygon><path class="st0" d="M479.9,330.1l-0.2-6l2.4-0.1l0.2,6L479.9,330.1z M480.6,325l0.1,4.2h0.8l-0.1-4.2H480.6z"></path><polygon class="st0" points="482.1,334.7 482.2,339.8 480.6,339.9 480.5,334.8 		"></polygon><path class="st0" d="M480.2,340.3l-0.2-5.9l2.5-0.1l0.2,5.9L480.2,340.3z M480.9,335.2l0.1,4.2h0.8l-0.1-4.2H480.9z"></path><polygon class="st0" points="482.4,344.9 482.6,350 481,350.1 480.8,345 		"></polygon><path class="st0" d="M480.5,350.5l-0.2-6l2.5-0.1l0.2,6L480.5,350.5z M481.2,345.4l0.1,4.2h0.8l-0.1-4.2L481.2,345.4z"></path><polygon class="st0" points="482.8,355.1 482.9,360.2 481.3,360.3 481.1,355.2 		"></polygon><path class="st0" d="M480.9,360.7l-0.2-6l2.5-0.1l0.2,6L480.9,360.7z M481.5,355.6l0.1,4.2h0.8l-0.1-4.2L481.5,355.6z"></path><polygon class="st0" points="483.1,365.3 483.3,370.4 481.6,370.5 481.4,365.4 		"></polygon><path class="st0" d="M481.2,370.9L481,365l2.5-0.1l0.2,5.9L481.2,370.9z M481.9,365.8l0.1,4.2h0.8l-0.1-4.2L481.9,365.8z"></path><polygon class="st0" points="483.4,375.5 483.6,380.6 481.9,380.7 481.8,375.6 		"></polygon><path class="st0" d="M481.5,381.1l-0.2-6l2.5-0.1l0.2,5.9L481.5,381.1z M482.2,376l0.1,4.2h0.8L483,376L482.2,376z"></path><polygon class="st0" points="483.8,385.7 483.9,388.5 483.9,389.4 483,389.3 480.6,389.2 480.7,387.5 483.1,387.6 482.2,388.5 
			482.1,385.8 		"></polygon><path class="st0" d="M484.3,389.8l-4.2-0.2l0.1-2.5l1.4,0.1l-0.1-1.8l2.5-0.1L484.3,389.8z M482.4,388.9l1.1,0v-1L482.4,388.9z
			 M481.1,388.8h0.7V388h-0.6L481.1,388.8z M482.6,387.2h0.9v-1.1h-0.8L482.6,387.2z"></path><polygon class="st0" points="475.5,389 470.4,388.7 470.5,387 475.6,387.3 		"></polygon><path class="st0" d="M475.9,389.4l-5.9-0.3l0.1-2.5l5.9,0.3L475.9,389.4z M470.9,388.3l4.2,0.2v-0.8l-4.2-0.2V388.3z"></path><polygon class="st0" points="465.3,388.5 460.2,388.2 460.3,386.6 465.4,386.8 		"></polygon><path class="st0" d="M465.7,388.9l-5.9-0.3l0.1-2.5l5.9,0.3L465.7,388.9z M460.7,387.8l4.2,0.2v-0.8l-4.2-0.2V387.8z"></path><polygon class="st0" points="455.1,388 450,387.8 450.1,386.1 455.2,386.3 		"></polygon><path class="st0" d="M455.5,388.4l-5.9-0.3l0.1-2.5l5.9,0.3L455.5,388.4z M450.5,387.3l4.2,0.2v-0.8l-4.2-0.2L450.5,387.3z"></path><polygon class="st0" points="445,387.5 439.9,387.2 439.9,385.6 445,385.9 		"></polygon><path class="st0" d="M445.4,388l-5.9-0.3l0.1-2.5l5.9,0.3L445.4,388z M440.3,386.9l4.2,0.2v-0.8l-4.2-0.2L440.3,386.9z"></path><polygon class="st0" points="434.8,387 429.7,386.8 429.8,385.1 434.9,385.4 		"></polygon><path class="st0" d="M435.2,387.5l-5.9-0.3l0.1-2.5l5.9,0.3L435.2,387.5z M430.1,386.4l4.2,0.2v-0.8l-4.2-0.2L430.1,386.4z"></path><polygon class="st0" points="424.6,386.5 419.5,386.3 419.6,384.7 424.6,384.9 		"></polygon><path class="st0" d="M425,387l-5.9-0.3l0.1-2.4l6,0.3L425,387z M420,385.9l4.2,0.2v-0.8l-4.2-0.2L420,385.9z"></path><polygon class="st0" points="414.4,386 409.3,385.8 409.4,384.2 414.5,384.4 		"></polygon><path class="st0" d="M414.8,386.5l-5.9-0.3l0.1-2.4l6,0.3L414.8,386.5z M409.7,385.4l4.2,0.2v-0.7l-4.2-0.2L409.7,385.4z"></path><polygon class="st0" points="404.2,385.5 399.1,385.3 399.2,383.7 404.3,384 		"></polygon><path class="st0" d="M404.6,386l-5.9-0.3l0.1-2.4l6,0.3L404.6,386z M399.6,384.9l4.2,0.2v-0.7l-4.2-0.2L399.6,384.9z"></path><polygon class="st0" points="394,385 388.9,384.8 389,383.3 394.1,383.5 		"></polygon><path class="st0" d="M394.4,385.5l-5.9-0.3l0.1-2.4l6,0.3L394.4,385.5z M389.4,384.4l4.2,0.2v-0.7l-4.2-0.2L389.4,384.4z"></path><polygon class="st0" points="383.8,384.5 378.7,384.3 378.8,382.8 383.9,383 		"></polygon><path class="st0" d="M384.2,385l-5.9-0.3l0.1-2.4l6,0.3L384.2,385z M379.2,383.9l4.2,0.2v-0.7l-4.2-0.2L379.2,383.9z"></path><polygon class="st0" points="373.6,384.1 368.5,383.8 368.6,382.3 373.7,382.5 		"></polygon><path class="st0" d="M374,384.5l-5.9-0.3l0.1-2.4l5.9,0.3L374,384.5z M369,383.4l4.2,0.2v-0.7l-4.2-0.2V383.4z"></path><polygon class="st0" points="363.4,383.6 358.3,383.3 358.4,381.8 363.5,382.1 		"></polygon><path class="st0" d="M363.8,384l-5.9-0.3l0.1-2.3l5.9,0.3L363.8,384z M358.8,382.9l4.2,0.2v-0.6l-4.2-0.2V382.9z"></path><polygon class="st0" points="353.2,383.1 348.1,382.8 348.2,381.4 353.3,381.6 		"></polygon><path class="st0" d="M353.6,383.5l-5.9-0.3l0.1-2.3l5.9,0.3L353.6,383.5z M348.6,382.4l4.2,0.2V382l-4.2-0.2V382.4z"></path><polygon class="st0" points="343.1,382.6 338,382.3 338,380.9 343.1,381.1 		"></polygon><path class="st0" d="M343.5,383l-5.9-0.3l0.1-2.3l5.9,0.3L343.5,383z M338.5,381.9l4.2,0.2v-0.6l-4.2-0.2V381.9z"></path><polygon class="st0" points="332.9,382.1 327.8,381.8 327.8,380.4 332.9,380.6 		"></polygon><path class="st0" d="M333.3,382.5l-5.9-0.3l0.1-2.3l5.9,0.3L333.3,382.5z M328.3,381.4l4.2,0.2v-0.6l-4.2-0.2V381.4z"></path><polygon class="st0" points="322.7,381.6 317.6,381.3 317.6,380 322.8,380.2 		"></polygon><path class="st0" d="M323.1,382l-5.9-0.3l0.1-2.2l5.9,0.3L323.1,382z M318,380.9l4.2,0.2v-0.6l-4.2-0.2L318,380.9z"></path><polygon class="st0" points="312.3,380 312.4,374.9 313.7,374.9 313.6,380 		"></polygon><path class="st0" d="M314.1,380.4h-2.2l0.1-6h2.2L314.1,380.4z M312.7,379.5h0.5l0.1-4.2h-0.5L312.7,379.5z"></path><polygon class="st0" points="312.5,369.8 312.6,364.7 313.9,364.7 313.8,369.8 		"></polygon><path class="st0" d="M314.2,370.2h-2.1l0.1-6h2.1L314.2,370.2z M312.9,369.4h0.5l0.1-4.2H313L312.9,369.4z"></path><polygon class="st0" points="312.7,359.6 312.8,354.5 314,354.5 314,359.6 		"></polygon><path class="st0" d="M314.4,360h-2.1l0.1-6h2.1L314.4,360z M313.1,359.1h0.4l0.1-4.2h-0.4L313.1,359.1z"></path><polygon class="st0" points="312.9,349.4 313,344.3 314.2,344.3 314.1,349.4 		"></polygon><path class="st0" d="M314.5,349.8h-2l0.1-6h2L314.5,349.8z M313.3,349h0.3l0.1-4.2h-0.3L313.3,349z"></path><polygon class="st0" points="313.1,339.2 313.2,334.1 314.3,334.1 314.2,339.2 		"></polygon><path class="st0" d="M314.7,339.6h-2l0.1-6h2L314.7,339.6z M313.5,338.8h0.3l0.1-4.2h-0.3L313.5,338.8z"></path><polygon class="st0" points="313.3,329 313.4,323.9 314.5,323.9 314.4,329 		"></polygon><path class="st0" d="M314.8,329.4h-1.9l0.1-6h1.9L314.8,329.4z M313.8,328.6h0.2l0.1-4.2h-0.2L313.8,328.6z"></path><polygon class="st0" points="313.5,318.8 313.6,313.7 314.6,313.7 314.6,318.8 		"></polygon><path class="st0" d="M315,319.2h-1.9l0.1-6h1.9L315,319.2z M314,318.4h0.2l0.1-4.2H314V318.4z"></path><polygon class="st0" points="313.7,308.6 313.8,303.5 314.8,303.5 314.7,308.6 		"></polygon><path class="st0" d="M315.1,309h-1.8l0.1-6h1.8L315.1,309z M314.1,308.1h0.1l0.1-4.2h-0.1L314.1,308.1z"></path><polygon class="st0" points="313.9,298.4 314,293.3 314.9,293.3 314.9,298.4 		"></polygon><path class="st0" d="M315.3,298.8h-1.8l0.1-6h1.8L315.3,298.8z M314.4,298L314.4,298l0.1-4.2h-0.1L314.4,298z"></path><polygon class="st0" points="314.1,288.2 314.2,283.1 315.1,283.1 315,288.2 		"></polygon><path class="st0" d="M315.4,288.6h-1.7l0.1-6h1.7L315.4,288.6z M314.6,287.8L314.6,287.8l0.1-4.2l0,0L314.6,287.8z"></path><polygon class="st0" points="314.4,278 314.5,272.9 315.2,272.9 315.2,278 		"></polygon><polygon class="st0" points="315.6,278.4 313.9,278.4 314,272.4 315.6,272.5 		"></polygon><polygon class="st0" points="314.6,267.8 314.7,262.7 315.4,262.7 315.3,267.8 		"></polygon><polygon class="st0" points="315.7,268.2 314.1,268.2 314.3,262.2 315.8,262.3 		"></polygon><polygon class="st0" points="314.8,257.6 314.9,252.5 315.5,252.5 315.4,257.6 		"></polygon><polygon class="st0" points="315.8,258 314.4,258 314.5,252 315.9,252.1 		"></polygon><polygon class="st0" points="315,247.4 315.1,242.3 315.6,242.3 315.6,247.4 		"></polygon><polygon class="st0" points="316,247.8 314.6,247.8 314.7,241.8 316,241.9 		"></polygon><polygon class="st0" points="315.3,237.2 315.4,232.1 315.8,232.1 315.7,237.2 		"></polygon><polygon class="st0" points="316.1,237.6 314.8,237.6 315,231.6 316.2,231.7 		"></polygon><polygon class="st0" points="315.5,227 315.6,221.9 315.9,221.9 315.8,227 		"></polygon><polygon class="st0" points="316.2,227.4 315.1,227.4 315.2,221.4 316.3,221.5 		"></polygon><polygon class="st0" points="315.7,216.8 315.8,211.7 316,211.7 316,216.8 		"></polygon><polygon class="st0" points="316.4,217.2 315.3,217.2 315.4,211.2 316.5,211.3 		"></polygon><polygon class="st0" points="315.9,206.6 316.1,201.5 316.1,201.5 316.1,206.6 		"></polygon><polygon class="st0" points="316.5,207 315.5,207 315.6,201.1 316.6,201.1 		"></polygon><path class="st1" d="M310,335.5l-5.9,21.4l-9.4,34.1l-2.1,7.9c-0.3,1.2,0.9,1.7,1.9,1.6c1.3-0.1,2.3-1,2.7-2.1l5.8-21.4l9.3-34.1
			l2.1-7.9c0.3-1.2-0.9-1.7-1.9-1.6C311.5,333.5,310.4,334.3,310,335.5L310,335.5z"></path><path class="st1" d="M349.8,338.7c-1.4,6.9-3.3,13.7-5,20.5c-2.5,10.3-5.1,20.6-7.6,30.9c-0.6,2.4-1.2,4.7-1.8,7.1
			c-0.3,1.3,4.4,0.4,4.8-1l4.8-19.4c2.6-10.4,5.1-20.8,7.7-31.2c0.6-2.6,1.4-5.3,1.9-7.9C354.8,336.4,350.1,337.3,349.8,338.7
			L349.8,338.7z"></path><path class="st1" d="M362.5,339.4l1.8,23.3l2.8,37.1l0.6,8.5c0.2,2,5,1,4.9-1.2l-1.8-23.3l-2.7-37.1l-0.6-8.5
			C367.2,336.3,362.4,337.3,362.5,339.4L362.5,339.4z"></path><path class="st1" d="M403.3,339.3l8.4,20.8l13.4,33l3.1,7.6c0.5,1.2,1.7,1.9,3,1.6c1-0.2,2.3-1.3,1.9-2.5l-8.4-20.8l-13.4-33
			l-3.1-7.6c-0.5-1.2-1.7-1.9-3-1.6C404.2,337,402.8,338.1,403.3,339.3L403.3,339.3z"></path><path class="st2" d="M355.9,236.1L428,234l-19.8,108.3c0,0-95.8,0.4-97.1-6.1s7.2-33.8,11.4-33.8s14.6-1.8,14.6-1.8l10.8-57.6
			C348.6,239.1,351.9,236.2,355.9,236.1z"></path><path class="st1" d="M357.2,238.1l24.4-0.7l38.9-1.1l8.9-0.2l-3.1-3.7l-2,10.8l-4.7,25.9l-5.7,31.3l-5,27l-1.6,8.9l-0.5,2.8
			c-0.2,0.5-0.2,1-0.3,1.5c0,0.1,0,0.1,0,0.2l0.5-0.4c-5.8,0-11.5,0-17.3-0.1c-12.3-0.1-24.6-0.3-36.8-0.8
			c-11.1-0.4-22.3-0.8-33.3-2.3c-1.7-0.2-3.5-0.5-5.2-0.9c-0.6-0.1-1.3-0.3-1.9-0.5c-0.4-0.1,0.4,0.2,0,0l-0.3-0.1
			c-0.3-0.1-0.9-0.5-0.2-0.1c-0.5-0.4,0.2,0.2,0,0.1c0.4,0.5,0.8,1,1,1.6c0-0.1,0,0.5,0,0c0-0.2,0-0.4,0-0.6c0-0.6,0-1.1,0-1.7
			c0.3-3,0.8-6,1.6-8.9c1.6-6.4,3.5-13.1,6.9-18.8c0.4-0.8,1-1.5,1.6-2.2c0.1-0.1,0.3-0.2,0.4-0.3c0.2-0.1,0.3-0.1,0.2-0.1
			c0.6-0.1,1.1-0.1,1.7-0.1c3.7-0.3,7.4-0.8,11-1.4l2.3-0.4c0.2,0,0.4-0.2,0.4-0.4l4.2-22.5L349,248c0.2-1.1,0.4-2.2,0.6-3.2
			C350.2,241,353.4,238.2,357.2,238.1c1.1-0.1,0.2-1.9-0.1-2.2c-0.5-0.8-1.5-1.9-2.6-1.9c-4.2,0.2-7.7,3.2-8.5,7.3
			c-0.1,0.7-0.2,1.4-0.4,2.1l-2.3,12.5l-6.5,34.6l-1.6,8.5l0.5-0.4c-2.7,0.5-5.5,0.9-8.3,1.3c-1.9,0.2-3.7,0.5-5.6,0.5
			c-0.8-0.1-1.7,0.2-2.3,0.8c-1.8,1.7-2.9,4.3-3.8,6.4c-2.8,6.6-4.8,13.4-6.1,20.5c-0.4,2.3-1,5-0.3,7.3c1,3.3,4.7,4.4,7.7,5
			c4.3,0.8,8.6,1.4,13,1.7c6.1,0.5,12.2,0.9,18.4,1.1c12.9,0.6,25.9,0.8,38.8,1c4.9,0.1,9.8,0.1,14.7,0.1c2.4,0,4.9,0.2,7.3,0h0.3
			c0.2,0,0.4-0.1,0.5-0.3l2-10.8l4.7-25.8l5.7-31.3l5-27c0.8-4.4,1.7-8.8,2.4-13.2v-0.2c0.3-1.5-1.6-3.7-3.1-3.7l-24.4,0.7
			l-38.9,1.1l-8.9,0.3c-1,0-0.1,1.8,0.1,2.2C355.2,237.1,356.2,238.1,357.2,238.1z"></path><polygon class="st2" points="338.5,311.6 312.8,316.2 303.5,290.1 340.7,285.2 		"></polygon><path class="st1" d="M338.5,309.9l-22.4,4l-3.2,0.6l2.3,0.7l-8.1-22.8l-1.2-3.3l-2.3,2.6l32.5-4.3l4.7-0.6l-2.4-1.1l-2,23.1
			l-0.3,3.3c-0.2,2.3,4.6,1,4.8-1.1l2-23.1l0.3-3.3c0.1-1.2-1.6-1.2-2.4-1.1l-32.5,4.4l-4.7,0.6c-1.1,0.1-2.8,1.4-2.3,2.7l8.1,22.8
			l1.2,3.3c0.3,0.9,1.6,0.9,2.3,0.7l22.4-4l3.3-0.6c1-0.2,2.4-1.1,2.4-2.2S339.3,309.8,338.5,309.9z"></path><path class="st2" d="M416.9,338.8c0,0,19.7-100,15.1-103.4s-10.4,0.6-10.4,2.9s-8.8,57.1-8.8,57.1s-41-6.9-41.6-5.2
			s-9,50.5-4.8,51.7S415.3,346.1,416.9,338.8z"></path><path class="st1" d="M419.4,338.5c1.6-8.1,3.1-16.2,4.6-24.3c2.9-15.6,5.7-31.2,8-46.9c1-6.7,2-13.4,2.6-20.1
			c0.2-2.4,0.4-4.8,0.5-7.2c0.1-1.4,0-2.9-0.2-4.3c-0.1-0.4-0.3-0.9-0.6-1.2c-1.8-2-5.5-2-7.9-1.5s-5.4,1.9-6.7,4.1
			c-0.2,0.4-0.4,0.8-0.5,1.2c0,0.2-0.1,0.9,0,0.3l-0.1,0.6c-0.6,5.3-1.5,10.6-2.4,15.9c-2,13.2-4.1,26.4-6.3,39.6
			c0,0.3-0.1,0.5-0.1,0.8l3.9-1.5c-10-1.7-20-3.3-30-4.5c-2.7-0.4-5.5-0.7-8.2-0.9c-1.9-0.3-3.8-0.1-5.6,0.4c-1.6,0.6-1.8,1.6-2,3.1
			c-0.4,2-0.7,4-1,6c-1.1,6.3-2,12.7-2.9,19c-0.9,6.2-1.5,12.4-1.7,18.6c-0.1,1.8,0,3.6,0.4,5.4c0.4,1.4,1.3,1.7,2.6,1.9
			c5,0.7,10.1,1.1,15.2,1.3c7.1,0.4,14.2,0.3,21.3-0.1c3-0.2,6.1-0.6,9-1.2c2.4-0.4,4.6-1.3,6.5-2.7
			C418.6,339.9,419.1,339.2,419.4,338.5c0.4-1.7-4.5-1-4.8,0.5c0,0.1-0.1,0.3-0.1,0.4c0,0.1,0.1-0.2-0.1,0.1
			c-0.1,0.1-0.2,0.2-0.2,0.3c0.4-0.4-0.1,0-0.2,0.1s0.4-0.2-0.1,0l-0.5,0.3c0.7-0.4,0,0-0.2,0.1l-0.7,0.2c-0.5,0.2,0.6-0.1,0,0
			l-0.3,0.1l-0.8,0.2l-0.7,0.1l-0.5,0.1c-0.5,0.1,0.5-0.1-0.1,0c-1.3,0.2-2.6,0.4-4,0.5c-6.4,0.5-12.9,0.7-19.4,0.4
			c-3.1-0.1-6.3-0.3-9.4-0.5c-2.6-0.2-4-0.3-6.5-0.6c-0.7-0.1-1.4-0.2-2-0.3c-0.2-0.1-0.4-0.1-0.6-0.1c0.3,0,0.4,0.1,0.5,0.2
			c-0.1-0.1-0.1-0.1-0.2-0.2c0.1,0.4-0.1-0.2-0.1-0.4c-0.1-0.3-0.2-0.6-0.2-0.9c-0.1-0.8-0.2-1.6-0.2-2.5c0-5.4,0.4-10.9,1.2-16.3
			c0.8-6.4,1.7-12.7,2.7-19c0.6-3.8,1.5-7.6,2-11.4c0-0.1,0.1-0.3,0.1-0.3c0.2,0.6-2,1.2-2.3,1.2h0.3c0.3,0-0.7,0-0.1,0
			c0.4,0,0.8,0,1.1,0l1.2,0.1l0.8,0.1h0.5c1.3,0.1,2.6,0.3,3.9,0.4c10.6,1.2,21.1,3,31.7,4.7l0.7,0.1c1,0.2,3.7-0.2,3.9-1.5
			c1.8-11.2,3.6-22.5,5.4-33.7c1-6.5,2-13,3-19.5c0.2-1.4,0.3-2.8,0.5-4.2c0,0.2,0.2-0.5,0.2-0.6c0.2-0.3,0.4-0.6,0.7-0.9
			c0.5-0.5,1.2-0.9,2-0.9c1,0.1,2,0.4,2.8,1c0,0,0.1,0.1,0.1,0.1c-0.1-0.1-0.1-0.2,0,0c0.9,3.1,0.4,6.5,0.1,9.6
			c-0.5,6.2-1.4,12.5-2.3,18.6c-2.3,15.4-5,30.8-7.8,46.1c-1.7,9.3-3.7,18.5-5.3,27.9c0,0.1-0.1,0.3-0.1,0.4
			C414.2,340.8,419,340,419.4,338.5z"></path><path class="st2" d="M371.2,290.2c0,0,5.8-0.9,5.8,6.6s-6.8,42.8-10.6,45.1s-60-2.4-62.9-4.3s-6.3-47.3,0-47.4
			c12.2-0.1,11.4,26.2,11.4,26.2l41.7,2C356.6,318.3,359,289.5,371.2,290.2z"></path><path class="st1" d="M371.5,292.4c0.2,0,0.9,0,0.4,0s0.3,0,0.5,0.1s0.6,0.1,0.2,0s0.2,0.1,0.3,0.1s0.4,0.2,0,0l0.5,0.3
			c0.3,0.2-0.1-0.2,0.2,0.2l0.2,0.2c-0.1-0.2,0-0.1,0,0.1c0.5,1,0.7,2.1,0.7,3.1c-0.1,3-0.4,6-1,8.9c-1.3,9-3.2,18-5.6,26.8
			c-0.5,1.8-0.8,2.8-1.5,4.7c-0.2,0.6-0.5,1.3-0.8,1.9c-0.1,0.3-0.2,0.5-0.4,0.8c-0.2,0.3-0.6,0.7-0.1,0.2c-0.1,0.1-0.2,0.3-0.3,0.4
			c-0.2,0.3,0.1-0.1,0.2-0.2c-0.1,0.1-0.3,0.3,0.1,0s0.2,0,0,0c-0.6,0.1,0.2,0,0.1,0c-0.9,0.1-1.7,0.2-2.6,0.3c-3,0.1-6,0.1-9,0
			h-0.2h-0.7l-1.5,0l-3.1-0.1c-2.1-0.1-4.2-0.2-6.3-0.4c-8.4-0.5-16.9-1.2-25.3-2.1c-3-0.3-6.1-0.7-9.1-1.2
			c-0.9-0.1-1.8-0.3-2.7-0.5c-0.6-0.1,0.6,0.2,0.1,0c-0.1-0.1-0.2-0.1-0.3-0.1c-0.4-0.1,0.3,0.2,0.3,0.2c-0.2-0.1,0.5,0.5,0.3,0.3
			s-0.2-0.2,0,0.1s0,0.1,0-0.1l-0.2-0.5c-0.1-0.3-0.2-0.8,0-0.1l-0.2-0.8c-0.3-1.3-0.6-2.6-0.8-4c-0.6-3.6-0.9-7.3-1.2-11
			c-0.6-7.9-1-15.3,0.2-23.1c0.1-0.7,0.2-1.4,0.4-2l0.2-0.9c0.2-0.6-0.1,0.3,0.1-0.4c0.2-0.4,0.4-0.8,0.6-1.2c-0.3,0.6-0.2,0,0,0
			c0,0,0.5-0.4,0,0c-0.4,0.3-0.1,0.1,0,0c0.3-0.2-0.6,0.2-0.3,0.1s-0.7,0.2-0.3,0.1c-0.8,0-1.5,0.8-1.4,1.6s0.8,1.5,1.6,1.4
			s1.5-0.8,1.4-1.6c0-0.8-0.7-1.4-1.4-1.4c-0.3,0,0.4,0,0.5,0.1l0.6,0.1c0.5,0.1-0.4-0.1,0.1,0l0.5,0.2c0.1,0,0.7,0.3,0.4,0.2
			s0.2,0.1,0.3,0.2l0.5,0.3c0.2,0.1,0.3,0.2,0.4,0.4c0.2,0.2-0.1-0.1-0.1-0.1l0.3,0.3c0.3,0.3,0.5,0.6,0.8,0.9l0.4,0.5l0.2,0.2
			c0.2,0.3-0.2-0.3,0,0c2,3.3,2.6,6.5,3.2,10.4c0.4,3,0.7,6,0.7,9.1c0,0.4,0,0.5,0,0.1c0,0.1,0,0.3,0,0.4v0.4
			c-0.1,1.3,0.8,2.4,2.1,2.6l36.6,1.8l5.1,0.2c1.1,0.1,2.7-0.4,2.8-1.8c0.3-3.1,0.8-6.2,1.4-9.2c0.5-2.6,1.2-5.1,2.1-7.6
			c0.5-1.3,1-2.6,1.7-3.8c0.3-0.5,0.6-1.1,0.9-1.6c0.1-0.1,0.1-0.2,0.2-0.4l0,0c0.2-0.3,0.4-0.6,0.6-0.8c0.4-0.5,0.9-1,1.3-1.4
			c0.1-0.1,0.4-0.4,0,0l0.4-0.3l0.8-0.5c0.1-0.1,0.3-0.1,0.4-0.2c-0.3,0.1-0.2,0.1,0,0l0.9-0.3c0.1,0,0.6-0.1,0,0l0.5-0.1
			c0.2,0,1.2,0,0.5,0c1.2,0.1,2.6-0.4,2.8-1.8c0.1-1.3-0.8-2.4-2.1-2.6c-6.3-0.3-10.3,4.5-12.6,9.9c-2.2,5.2-3.6,10.7-4.3,16.3
			c-0.2,1.3-0.4,2.5-0.5,3.8l2.8-1.8l-36.6-1.8l-5.1-0.2l2.1,2.6c0.3-6.1-0.5-12.3-2.3-18.2c-1.2-3.8-3.3-7.6-6.9-9.5
			c-3-1.6-6.8-1.8-8.6,1.4c-1.4,2.5-1.6,5.8-1.9,8.6c-0.3,4.3-0.4,8.6-0.2,12.9c0.1,4.4,0.4,8.8,0.9,13.1c0.3,3.3,0.8,6.5,1.5,9.8
			c0.5,2,1,4.2,3.2,4.9c2.3,0.6,4.6,1.1,6.9,1.3c8.3,1.1,16.6,1.8,25,2.4s16.8,1.2,25.2,1.2c2.2,0,4.7,0.1,6.8-0.6
			c2.4-0.8,3.4-3.7,4.2-5.8c3.2-8.8,4.9-18.2,6.5-27.4c0.7-3.9,1.3-7.8,1.6-11.7c0.3-4.2-0.3-9.2-4.9-10.8c-1.1-0.4-2.3-0.5-3.5-0.4
			c-1.3,0.1-2.2,1.1-2.1,2.4c0,0,0,0,0,0C369,291.8,370.2,292.6,371.5,292.4z"></path><polygon class="st0" points="250.4,222.1 250.5,217 250.5,217 255.6,216.9 255.6,216.9 250.5,217 250.5,217 250.4,222.1 		"></polygon><polygon class="st0" points="250.9,222.5 250,222.5 250,222 250.1,216.6 250.5,216.6 256,216.4 256,217.3 255.6,217.4 
			250.9,217.4 		"></polygon><polygon class="st0" points="260.7,216.8 265.8,216.7 265.8,216.8 260.7,216.9 		"></polygon><polygon class="st0" points="260.3,217.3 260.3,216.4 266.2,216.2 266.2,217.2 		"></polygon><polygon class="st0" points="270.9,216.6 276,216.5 276,216.7 270.9,216.8 		"></polygon><polygon class="st0" points="270.5,217.2 270.5,216.2 276.4,216.1 276.4,217.1 		"></polygon><polygon class="st0" points="281.1,216.4 286.2,216.3 286.2,216.6 281.1,216.7 		"></polygon><polygon class="st0" points="280.7,217.1 280.7,216 286.6,215.9 286.6,217.1 		"></polygon><polygon class="st0" points="291.3,216.2 296.4,216.1 296.4,216.5 291.3,216.6 		"></polygon><polygon class="st0" points="290.9,217 290.9,215.8 296.8,215.7 296.9,217 		"></polygon><polygon class="st0" points="301.5,216 306.6,215.9 306.6,216.4 301.5,216.5 		"></polygon><polygon class="st0" points="301.1,216.9 301.1,215.6 307,215.5 307,216.9 		"></polygon><polygon class="st0" points="311.7,215.8 316.8,215.7 316.8,216.3 311.7,216.4 		"></polygon><polygon class="st0" points="311.3,216.8 311.3,215.4 317.2,215.3 317.2,216.8 		"></polygon><polygon class="st0" points="321.9,215.6 327,215.5 327,216.2 321.9,216.3 		"></polygon><polygon class="st0" points="321.5,216.7 321.5,215.2 327.4,215.1 327.5,216.7 		"></polygon><polygon class="st0" points="332.1,215.4 337.2,215.3 337.2,216.1 332.1,216.2 		"></polygon><polygon class="st0" points="331.7,216.6 331.7,215 337.6,214.9 337.6,216.6 		"></polygon><polygon class="st0" points="342.3,215.2 347.4,215.2 347.4,216 342.3,216.1 		"></polygon><path class="st0" d="M341.9,216.5v-1.7l6-0.1v1.7L341.9,216.5z M347,215.6l-3.6,0.1L347,215.6L347,215.6z"></path><polygon class="st0" points="352.5,215.1 357.6,215 357.6,215.9 352.5,216 		"></polygon><path class="st0" d="M352.1,216.4v-1.8l6-0.1v1.8L352.1,216.4z M352.9,215.5L352.9,215.5l4.2,0v-0.1L352.9,215.5z"></path><polygon class="st0" points="362.7,214.9 367.8,214.8 367.8,215.8 362.7,215.9 		"></polygon><path class="st0" d="M362.3,216.3v-1.8l6-0.1v1.8L362.3,216.3z M363.1,215.3v0.1l4.3-0.1v-0.1L363.1,215.3z"></path><polygon class="st0" points="372.9,214.7 378,214.6 378,215.7 372.9,215.7 		"></polygon><path class="st0" d="M372.5,216.2v-1.9l6-0.1v1.9L372.5,216.2z M373.3,215.2v0.2l4.2-0.1v-0.2L373.3,215.2z"></path><polygon class="st0" points="383.1,214.6 388.2,214.5 388.2,215.6 383.1,215.6 		"></polygon><path class="st0" d="M382.7,216.1v-1.9l6-0.1v1.9L382.7,216.1z M383.5,215v0.2l4.2-0.1v-0.2L383.5,215z"></path><polygon class="st0" points="393.3,214.4 398.4,214.3 398.4,215.4 393.3,215.5 		"></polygon><path class="st0" d="M392.9,215.9v-2l6-0.1v2L392.9,215.9z M393.7,214.8v0.3h4.2v-0.3L393.7,214.8z"></path><polygon class="st0" points="403.5,214.2 408.6,214.1 408.6,215.3 403.5,215.4 		"></polygon><path class="st0" d="M403.1,215.8v-2l6-0.1v2L403.1,215.8z M403.9,214.6v0.4h4.2v-0.3L403.9,214.6z"></path><polygon class="st0" points="411.4,217.7 411.6,222.8 410.4,222.8 410.2,217.7 		"></polygon><path class="st0" d="M410,223.2l-0.2-6l2.1-0.1l0.2,5.9L410,223.2z M410.7,218.1l0.1,4.2h0.4l-0.2-4.3L410.7,218.1z"></path><polygon class="st0" points="411.8,227.9 412,233 410.7,233 410.5,227.9 		"></polygon><path class="st0" d="M410.3,233.4l-0.2-5.9l2.1-0.1l0.2,6L410.3,233.4z M411,228.3l0.1,4.2h0.4l-0.1-4.2H411z"></path><polygon class="st0" points="412.2,238.1 412.3,243.1 411,243.2 410.8,238.1 		"></polygon><path class="st0" d="M410.6,243.6l-0.2-5.9l2.2-0.1l0.2,5.9L410.6,243.6z M411.3,238.5l0.1,4.2h0.5l-0.1-4.2H411.3z"></path><polygon class="st0" points="412.5,248.2 412.7,253.4 411.3,253.4 411.1,248.3 		"></polygon><path class="st0" d="M410.9,253.8l-0.2-5.9l2.2-0.1l0.2,5.9L410.9,253.8z M411.6,248.7l0.1,4.2h0.5l-0.1-4.2H411.6z"></path><polygon class="st0" points="412.9,258.5 413,263.5 411.6,263.6 411.5,258.5 		"></polygon><path class="st0" d="M411.2,264l-0.2-6l2.3-0.1l0.2,6L411.2,264z M411.9,258.9l0.1,4.2h0.6l-0.1-4.2H411.9z"></path><polygon class="st0" points="413.2,268.6 413.4,273.7 411.9,273.8 411.8,268.7 		"></polygon><path class="st0" d="M411.5,274.2l-0.2-6l2.3-0.1l0.2,6L411.5,274.2z M412.2,269.1l0.1,4.2h0.6l-0.1-4.2H412.2z"></path><polygon class="st0" points="413.6,278.8 413.7,283.9 412.3,284 412.1,278.9 		"></polygon><path class="st0" d="M411.9,284.4l-0.2-5.9l2.3-0.1l0.2,6L411.9,284.4z M412.5,279.3l0.1,4.2h0.6l-0.1-4.2H412.5z"></path><polygon class="st0" points="413.9,289 414.1,294.1 412.6,294.2 412.4,289.1 		"></polygon><path class="st0" d="M412.2,294.6l-0.2-6l2.3-0.1l0.2,5.9L412.2,294.6z M412.9,289.5l0.1,4.2h0.6l-0.1-4.2H412.9z"></path><polygon class="st0" points="414.2,299.2 414.4,304.3 412.9,304.4 412.7,299.3 		"></polygon><path class="st0" d="M412.5,304.8l-0.2-6l2.4-0.1l0.2,6L412.5,304.8z M413.2,299.7l0.1,4.2h0.7l-0.1-4.2H413.2z"></path><polygon class="st0" points="414.6,309.4 414.8,314.5 413.2,314.6 413.1,309.5 		"></polygon><path class="st0" d="M412.8,315l-0.2-5.9l2.4-0.1l0.2,6L412.8,315z M413.5,309.9l0.1,4.2h0.7l-0.1-4.2L413.5,309.9z"></path><polygon class="st0" points="414.9,319.6 415.1,324.7 413.5,324.8 413.4,319.7 		"></polygon><path class="st0" d="M413.1,325.2l-0.2-6l2.4-0.1l0.2,5.9L413.1,325.2z M413.8,320.1l0.1,4.2h0.7l-0.1-4.2H413.8z"></path><polygon class="st0" points="415.3,329.8 415.4,334.9 413.9,335 413.7,329.9 		"></polygon><path class="st0" d="M413.5,335.4l-0.2-6l2.4-0.1l0.2,6L413.5,335.4z M414.1,330.3l0.1,4.2h0.7l-0.1-4.2H414.1z"></path><polygon class="st0" points="415.6,340 415.8,345.1 414.2,345.2 414,340.1 		"></polygon><path class="st0" d="M413.8,345.6l-0.2-5.9l2.4-0.1l0.2,5.9L413.8,345.6z M414.5,340.5l0.1,4.2h0.7l-0.1-4.2H414.5z"></path><polygon class="st0" points="416,350.2 416.1,355.3 414.5,355.4 414.4,350.3 		"></polygon><path class="st0" d="M414.1,355.8l-0.2-6l2.4-0.1l0.2,6L414.1,355.8z M414.8,350.7l0.1,4.2h0.7l-0.1-4.2H414.8z"></path><polygon class="st0" points="416.3,360.4 416.5,365.5 414.9,365.6 414.7,360.5 		"></polygon><path class="st0" d="M414.4,366l-0.2-6l2.5-0.1l0.2,6L414.4,366z M415.1,360.9l0.1,4.2h0.8l-0.1-4.2H415.1z"></path><polygon class="st0" points="416.6,370.6 416.8,375.7 415.2,375.8 415,370.7 		"></polygon><path class="st0" d="M414.8,376.2l-0.2-5.9l2.5-0.1l0.2,5.9L414.8,376.2z M415.5,371.1l0.1,4.2h0.8l-0.1-4.2H415.5z"></path><polygon class="st0" points="417,380.8 417.1,385.9 415.5,386 415.3,380.9 		"></polygon><path class="st0" d="M415.1,386.4l-0.2-6l2.5-0.1l0.2,6L415.1,386.4z M415.8,381.3l0.1,4.2h0.8l-0.1-4.2H415.8z"></path><polygon class="st0" points="417.3,391 417.5,396.1 415.8,396.1 415.7,391 		"></polygon><path class="st0" d="M415.4,396.6l-0.2-6l2.5-0.1l0.2,6L415.4,396.6z M416.1,391.5l0.1,4.2h0.8l-0.1-4.2H416.1z"></path><polygon class="st0" points="417.7,401.2 417.8,406.3 416.1,406.4 416,401.2 		"></polygon><path class="st0" d="M415.7,406.8l-0.2-5.9l2.5-0.1l0.2,6L415.7,406.8z M416.4,401.7l0.1,4.2h0.8l-0.1-4.2H416.4z"></path><polygon class="st0" points="418,411.4 418.1,414.1 418.1,415 417.2,415 414.9,414.9 414.9,413.2 417.3,413.3 416.4,414.2 
			416.3,411.4 		"></polygon><path class="st0" d="M418.6,415.5l-4.1-0.2l0.1-2.5l1.4,0.1l-0.1-1.8l2.5-0.1L418.6,415.5z M416.6,414.5l1,0.1v-1.1L416.6,414.5z
			 M415.3,414.5h0.7v-0.9h-0.6L415.3,414.5z M416.8,412.9h0.9v-1.1h-0.8L416.8,412.9z"></path><polygon class="st0" points="409.8,414.6 404.7,414.4 404.7,412.7 409.8,413 		"></polygon><path class="st0" d="M410.2,415.1l-5.9-0.3l0.1-2.5l5.9,0.3L410.2,415.1z M405.1,414l4.2,0.2v-0.8l-4.2-0.2L405.1,414z"></path><polygon class="st0" points="399.6,414.2 394.5,413.9 394.5,412.2 399.6,412.5 		"></polygon><path class="st0" d="M400,414.6l-5.9-0.3l0.1-2.5l5.9,0.3L400,414.6z M395,413.5l4.2,0.2v-0.8l-4.2-0.2L395,413.5z"></path><polygon class="st0" points="389.4,413.7 384.3,413.4 384.4,411.8 389.5,412 		"></polygon><path class="st0" d="M389.8,414.1l-5.9-0.3l0.1-2.5l6,0.3L389.8,414.1z M384.8,413l4.2,0.2v-0.8l-4.2-0.2L384.8,413z"></path><polygon class="st0" points="379.2,413.2 374.1,412.9 374.2,411.3 379.3,411.5 		"></polygon><path class="st0" d="M379.6,413.6l-5.9-0.3l0.1-2.5l6,0.3L379.6,413.6z M374.6,412.5l4.2,0.2v-0.8l-4.2-0.2L374.6,412.5z"></path><polygon class="st0" points="369,412.7 363.9,412.4 364,410.8 369.1,411.1 		"></polygon><path class="st0" d="M369.4,413.1l-5.9-0.3l0.1-2.5l6,0.3L369.4,413.1z M364.4,412l4.2,0.2v-0.8l-4.2-0.2L364.4,412z"></path><polygon class="st0" points="358.8,412.2 353.7,411.9 353.8,410.4 358.9,410.6 		"></polygon><path class="st0" d="M359.2,412.6l-5.9-0.3l0.1-2.4l6,0.3L359.2,412.6z M354.2,411.5l4.2,0.2V411l-4.2-0.2L354.2,411.5z"></path><polygon class="st0" points="348.6,411.7 343.5,411.5 343.6,409.9 348.7,410.1 		"></polygon><path class="st0" d="M349,412.1l-5.9-0.3l0.1-2.4l6,0.3L349,412.1z M344,411.1l4.2,0.2v-0.7l-4.2-0.2L344,411.1z"></path><polygon class="st0" points="338.4,411.2 333.3,411 333.4,409.4 338.5,409.6 		"></polygon><path class="st0" d="M338.8,411.6l-5.9-0.3l0.1-2.4l5.9,0.3L338.8,411.6z M333.8,410.5l4.2,0.2V410l-4.2-0.2V410.5z"></path><polygon class="st0" points="328.2,410.7 323.1,410.5 323.2,408.9 328.3,409.2 		"></polygon><path class="st0" d="M328.6,411.2l-5.9-0.3l0.1-2.4l5.9,0.3L328.6,411.2z M323.6,410.1l4.2,0.2v-0.7l-4.2-0.2V410.1z"></path><polygon class="st0" points="318,410.2 313,410 313,408.5 318.1,408.7 		"></polygon><path class="st0" d="M318.5,410.7l-5.9-0.3l0.1-2.4l5.9,0.3L318.5,410.7z M313.4,409.6l4.2,0.2v-0.7l-4.2-0.2V409.6z"></path><polygon class="st0" points="307.9,409.7 302.8,409.5 302.8,408 307.9,408.2 		"></polygon><path class="st0" d="M308.3,410.2l-5.9-0.3l0.1-2.4l5.9,0.3L308.3,410.2z M303.2,409.1l4.2,0.2v-0.7l-4.2-0.2V409.1z"></path><polygon class="st0" points="297.7,409.2 292.6,409 292.6,407.5 297.7,407.7 		"></polygon><path class="st0" d="M298.1,409.7l-5.9-0.3l0.1-2.3l5.9,0.3L298.1,409.7z M293,408.6l4.2,0.2v-0.6l-4.2-0.2V408.6z"></path><polygon class="st0" points="287.5,408.7 282.4,408.5 282.5,407 287.5,407.3 		"></polygon><path class="st0" d="M287.9,409.2l-5.9-0.3l0.1-2.3l5.9,0.3L287.9,409.2z M282.8,408.1l4.2,0.2v-0.6l-4.2-0.2V408.1z"></path><polygon class="st0" points="277.3,408.2 272.2,408 272.3,406.5 277.4,406.8 		"></polygon><path class="st0" d="M277.7,408.7l-5.9-0.3l0.1-2.3l5.9,0.3L277.7,408.7z M272.6,407.6l4.2,0.2v-0.6l-4.2-0.2L272.6,407.6z"></path><polygon class="st0" points="267.1,407.8 262,407.5 262.1,406.1 267.2,406.3 		"></polygon><path class="st0" d="M267.5,408.2l-5.9-0.3l0.1-2.3l6,0.3L267.5,408.2z M262.5,407.1l4.2,0.2v-0.6l-4.2-0.2L262.5,407.1z"></path><polygon class="st0" points="256.9,407.3 251.8,407 251.9,405.6 257,405.9 		"></polygon><path class="st0" d="M257.3,407.7l-5.9-0.3l0.1-2.2l6,0.3L257.3,407.7z M252.3,406.6l4.2,0.2v-0.5l-4.2-0.2L252.3,406.6z"></path><polygon class="st0" points="246.5,405.6 246.6,400.5 247.9,400.6 247.9,405.7 		"></polygon><path class="st0" d="M248.3,406.1h-2.2l0.1-6h2.2L248.3,406.1z M246.9,405.2h0.5l0.1-4.2H247L246.9,405.2z"></path><polygon class="st0" points="246.7,395.4 246.8,390.4 248.1,390.4 248,395.5 		"></polygon><path class="st0" d="M248.4,395.9h-2.1l0.1-6h2.1L248.4,395.9z M247.2,395h0.4l0.1-4.2h-0.4L247.2,395z"></path><polygon class="st0" points="246.9,385.2 247,380.1 248.2,380.2 248.2,385.3 		"></polygon><path class="st0" d="M248.6,385.7h-2.1l0.1-6h2.1L248.6,385.7z M247.4,384.8h0.4l0.1-4.2h-0.4L247.4,384.8z"></path><polygon class="st0" points="247.1,375 247.2,369.9 248.4,370 248.3,375.1 		"></polygon><path class="st0" d="M248.8,375.5h-2.1l0.1-6h2L248.8,375.5z M247.6,374.6h0.3l0.1-4.2h-0.3L247.6,374.6z"></path><polygon class="st0" points="247.3,364.9 247.4,359.8 248.6,359.8 248.5,364.9 		"></polygon><path class="st0" d="M248.9,365.3h-2l0.1-6h2L248.9,365.3z M247.8,364.4h0.3l0.1-4.2h-0.3L247.8,364.4z"></path><polygon class="st0" points="247.5,354.6 247.6,349.5 248.7,349.6 248.6,354.7 		"></polygon><path class="st0" d="M249.1,355.1h-1.9l0.1-6h1.9L249.1,355.1z M248,354.2h0.2l0.1-4.2h-0.2L248,354.2z"></path><polygon class="st0" points="247.8,344.5 247.9,339.4 248.9,339.4 248.8,344.5 		"></polygon><path class="st0" d="M249.2,344.9h-1.9l0.1-6h1.9L249.2,344.9z M248.2,344h0.2l0.1-4.2h-0.2L248.2,344z"></path><polygon class="st0" points="248,334.2 248.1,329.1 249,329.2 248.9,334.3 		"></polygon><path class="st0" d="M249.4,334.7h-1.8l0.1-6h1.8L249.4,334.7z M248.4,333.8h0.1l0.1-4.2h-0.1L248.4,333.8z"></path><polygon class="st0" points="248.2,324 248.3,319 249.2,319 249.1,324.1 		"></polygon><path class="st0" d="M249.5,324.5h-1.8l0.1-6h1.8L249.5,324.5z M248.6,323.6L248.6,323.6l0.1-4.2h-0.1L248.6,323.6z"></path><polygon class="st0" points="248.4,313.9 248.5,308.8 249.3,308.8 249.2,313.9 		"></polygon><path class="st0" d="M249.7,314.3h-1.7l0.1-6h1.7L249.7,314.3z M248.8,313.4L248.8,313.4l0.1-4.2l0,0L248.8,313.4z"></path><polygon class="st0" points="248.6,303.6 248.7,298.5 249.4,298.6 249.4,303.7 		"></polygon><polygon class="st0" points="249.8,304.1 248.1,304.1 248.3,298.1 249.9,298.1 		"></polygon><polygon class="st0" points="248.8,293.5 248.9,288.4 249.6,288.4 249.5,293.5 		"></polygon><polygon class="st0" points="249.9,293.9 248.4,293.9 248.5,287.9 250,287.9 		"></polygon><polygon class="st0" points="249,283.2 249.1,278.1 249.7,278.2 249.6,283.3 		"></polygon><polygon class="st0" points="250.1,283.7 248.6,283.7 248.7,277.7 250.1,277.7 		"></polygon><polygon class="st0" points="249.3,273 249.4,268 249.9,268 249.8,273.1 		"></polygon><polygon class="st0" points="250.2,273.5 248.8,273.5 249,267.5 250.3,267.5 		"></polygon><polygon class="st0" points="249.5,262.9 249.6,257.8 250,257.8 249.9,262.9 		"></polygon><polygon class="st0" points="250.3,263.3 249.1,263.3 249.2,257.3 250.4,257.3 		"></polygon><polygon class="st0" points="249.7,252.6 249.8,247.6 250.1,247.6 250.1,252.7 		"></polygon><polygon class="st0" points="250.5,253.1 249.3,253.1 249.4,247.1 250.5,247.1 		"></polygon><polygon class="st0" points="249.9,242.4 250.1,237.4 250.2,237.4 250.2,242.4 		"></polygon><polygon class="st0" points="250.6,242.9 249.5,242.9 249.6,236.9 250.7,236.9 		"></polygon><polygon class="st0" points="250.2,232.2 250.3,227.1 250.4,227.1 250.3,232.2 		"></polygon><polygon class="st0" points="250.7,232.7 249.7,232.7 249.9,226.7 250.8,226.7 		"></polygon><path class="st0" d="M250.7,217.4l-0.3-0.8l4.8-1.9l0.3,0.8L250.7,217.4z M260.2,213.7l-0.3-0.8l4.8-1.9l0.3,0.8L260.2,213.7z
			 M269.7,209.9l-0.3-0.8l4.8-1.9l0.3,0.8L269.7,209.9z M279.2,206.2l-0.3-0.8l4.8-1.9l0.3,0.8L279.2,206.2z M288.7,202.5l-0.3-0.8
			l4.8-1.9l0.3,0.8L288.7,202.5z M298.2,198.8l-0.3-0.8l4.8-1.9l0.3,0.8L298.2,198.8z M307.7,195.1l-0.3-0.8l4.8-1.9l0.3,0.8
			L307.7,195.1z"></path><path class="st0" d="M250.4,217.9l-0.6-1.6l5.5-2.2l0.6,1.6L250.4,217.9z M259.9,214.2l-0.6-1.6l5.5-2.2l0.6,1.6L259.9,214.2z
			 M269.4,210.5l-0.6-1.6l5.5-2.2l0.6,1.6L269.4,210.5z M278.9,206.8l-0.6-1.6l5.5-2.2l0.6,1.6L278.9,206.8z M288.4,203.1l-0.6-1.6
			l5.5-2.2l0.6,1.6L288.4,203.1z M297.9,199.4l-0.6-1.6l5.5-2.2l0.6,1.6L297.9,199.4z M307.4,195.7l-0.6-1.6l5.5-2.2l0.6,1.6
			L307.4,195.7z"></path><path class="st0" d="M414,414.4l-0.3-0.8l4.7-1.9l0.3,0.8L414,414.4z M423.5,410.6l-0.3-0.8l4.8-1.8l0.3,0.8L423.5,410.6z
			 M433,406.9l-0.3-0.8l4.7-1.9l0.3,0.8L433,406.9z M442.4,403.1l-0.3-0.8l4.7-1.9l0.3,0.8L442.4,403.1z M451.9,399.3l-0.3-0.8
			l4.7-1.9l0.3,0.8L451.9,399.3z M461.4,395.6l-0.3-0.8l4.8-1.9l0.3,0.8L461.4,395.6z M470.9,391.8l-0.3-0.8l4.7-1.9l0.3,0.8
			L470.9,391.8z"></path><path class="st0" d="M413.8,415l-0.6-1.6l5.5-2.2l0.6,1.6L413.8,415z M414.3,413.9l4-1.6L414.3,413.9z M423.3,411.2l-0.6-1.6
			l5.5-2.2l0.6,1.6L423.3,411.2z M423.8,410.1l4-1.6L423.8,410.1z M432.8,407.5l-0.6-1.6l5.5-2.2l0.6,1.6L432.8,407.5z M433.2,406.4
			l4-1.6L433.2,406.4z M442.2,403.7l-0.6-1.6l5.5-2.2l0.6,1.6L442.2,403.7z M442.7,402.6l4-1.6L442.7,402.6z M451.7,399.9l-0.6-1.6
			l5.5-2.2l0.6,1.6L451.7,399.9z M452.2,398.8l4-1.6L452.2,398.8z M461.2,396.2l-0.6-1.6l5.5-2.2l0.6,1.6L461.2,396.2z M461.7,395.1
			l4-1.6L461.7,395.1z M470.7,392.4l-0.6-1.6l5.5-2.2l0.6,1.6L470.7,392.4z M471.1,391.3l4-1.6L471.1,391.3z"></path></g><g id="character-1"><g class="st3"><polygon class="st0" points="248.7,118.9 476.5,189 483,388.5 417.2,414.2 247.2,406.1 163.6,174.9 			"></polygon><path class="st0" d="M417.3,414.7h-0.1l-170.4-8.1l-0.1-0.3L163,174.7l85.7-56.3l0.2,0.1L477,188.6l6.5,200.2L417.3,414.7z
				 M247.5,405.6l169.6,8l65.3-25.5L476,189.4l-227.2-69.9l-84.7,55.6L247.5,405.6z"></path></g></g></g><g id="character"><path class="st1" d="M249.9,116.3c0,0-55.7-10.3-57.9-9.9s-28.4,68.5-28.4,68.5s53.2,16.3,56.3,16.3S249.9,116.3,249.9,116.3z"></path><path class="st1" d="M219.9,191.7c-3.1,0-54.2-15.6-56.4-16.3c-0.1,0-0.2-0.1-0.3-0.3c-0.1-0.1-0.1-0.3,0-0.4
		c0.1-0.2,6.6-17.2,13.4-34.1c13.8-34.4,14.9-34.6,15.4-34.7c2.2-0.4,52.3,8.8,58.1,9.9c0.1,0,0.3,0.1,0.3,0.2
		c0.1,0.1,0.1,0.3,0,0.4c-0.1,0.2-6.8,19-13.9,37.5C222.1,191.7,220.6,191.7,219.9,191.7z M164.2,174.6c15,4.6,52.6,15.9,55.6,16.1
		c2.6-1.8,18.9-44.9,29.4-74c-22-4.1-54.6-9.9-57-9.8C190,108.9,174.4,148.2,164.2,174.6z"></path><path class="st2" d="M243.4,119.3c0,0-24,63.5-27.4,63.5s-47-11.7-47-11.7l25.8-59.4L243.4,119.3z"></path><path class="st1" d="M241.3,118.1c-2,5.2-4,10.4-6,15.6c-3.9,10-7.9,20-12.1,29.8c-1.7,4-3.5,8.1-5.4,12c-1,2-1.9,4.3-3.5,5.9
		c0,0,0.1-0.1-0.1,0c0.2-0.1,0.2,0-0.1,0s-0.9-0.1-1.4-0.2h-0.2L212,181l-1.2-0.3l-2.8-0.6c-5-1.2-9.9-2.4-14.9-3.7
		c-8.3-2.1-16.6-4.4-24.9-6.6l-0.5-0.1l3.4,2.6l8.7-20.1l13.9-31.9l3.2-7.3l-0.5,0.1l16.4,2.6l26.2,4.1l6,0.9
		c1.1,0.2-0.1-1.1-0.3-1.3c-0.9-0.8-1.9-1.3-3.1-1.5l-16.4-2.6l-26.2-4.1l-6-0.9c-0.2,0-0.3,0-0.5,0.1l-8.7,20.1L170,162.5l-3.2,7.4
		c-0.4,1,2.8,2.4,3.4,2.6c7.2,1.9,14.4,3.8,21.6,5.7c5.3,1.4,10.5,2.7,15.8,4c3.1,0.8,6.5,1.9,9.7,2.1c1.7,0.1,2.7-2.4,3.4-3.6
		c1.9-3.5,3.5-7.1,5.1-10.7c4.3-9.9,8.3-19.9,12.2-29.9c1.7-4.2,3.3-8.4,4.9-12.6c0.8-2.2,1.8-4.3,2.5-6.5l0.1-0.3
		C246,119.5,241.6,117.3,241.3,118.1z"></path><path class="st1" d="M193.6,147.6c0.1-1.8,0.3-3.5,0.6-5.3c0.4-1.6,2.1-1.4,3.4-1.4s4.1,0.5,5.3-0.7c0.4-0.6,0.7-1.2,0.8-1.9
		c0.3-0.9,0.6-1.7,1-2.5c0.6-1.3,1.4-3.3,2.8-3.9s3.5,0.1,5,0.3l5.7,0.8l2.9,0.4l1.5,0.2l0.7,0.1c0.8,0.1,0.7,0.1-0.3-0.2l-1.2-1
		c0.5,0.7-0.4,2.7-0.6,3.4c-0.3,1.1-0.6,2.1-1,3.2c-0.7,2.3-1.5,4.6-2.3,6.8c-0.4,1.2-0.9,2.4-1.4,3.6c-0.3,0.7-0.5,2-1.5,2.1
		c-1,0-2-0.2-3-0.5l-3.5-0.7c-2.3-0.5-4.6-0.9-6.9-1.5s-4.5-1.4-6.8-1.9c-1.1-0.4-2.4,0-3.2,0.8c-0.8,0.8-1.5,1.7-2.2,2.6
		c-1.4,1.8-2.7,3.7-3.9,5.6c-0.8,1.3,3.8,3.1,4.8,1.5c0.9-1.5,1.9-2.9,3-4.3c1-1.4,2.1-2.7,3.3-3.8l-0.8,0.3h0.4l-1.8-0.2
		c3.4,0.9,6.8,1.9,10.2,2.7c3.3,0.7,6.6,1.4,9.9,2c1.4,0.3,2.8,0.3,4.2,0c1.6-0.5,2.1-1.7,2.6-3.1c1.3-3.2,2.5-6.4,3.5-9.7
		c0.5-1.6,1-3.2,1.4-4.8c0.4-1.4,0.9-3.2-0.2-4.4s-3.1-1.2-4.7-1.5l-5.4-0.8l-4.9-0.7c-1.8-0.4-3.6-0.5-5.4-0.4
		c-3.2,0.3-4.6,3.1-5.8,5.8c-0.4,0.8-0.7,1.7-0.9,2.5c-0.1,0.2-0.2,0.5-0.2,0.7c-0.2,0.2-0.1,0.3,0.2,0.1h-1c-1.8-0.1-3.5,0-5.3,0.2
		c-1.4,0.1-2.6,1-3.1,2.3c-0.3,1.8-0.6,3.6-0.6,5.4C188.6,148,193.4,149.2,193.6,147.6L193.6,147.6z"></path><path class="st1" d="M206,161.1c0.6-3.2,1.3-6.5,2-9.7c0.4-1.9-4.5-1.2-4.8,0.5c-0.7,3.2-1.3,6.5-2,9.7
		C200.8,163.6,205.7,162.8,206,161.1z"></path><path class="st1" d="M212.1,154c0.7,2.6,1.2,5.2,1.5,7.8c0.1,0.5,0.5,1,1,1.2c0.6,0.3,1.2,0.3,1.9,0.2c1.2-0.2,2.1-1.3,2-2.5
		c-0.3-2.6-0.8-5.3-1.5-7.8c-0.5-1.1-1.7-1.7-2.9-1.4C213.1,151.8,211.8,152.8,212.1,154L212.1,154z"></path><path class="st1" d="M194,145.8l6.6,1.4c1,0.3,2.1,0.4,3.1,0.3c1.4-0.2,2.6-0.8,3.5-1.9c0.6-0.8,0.9-1.7,1.5-2.5
		c0.1-0.1,0.2-0.3,0.3-0.4c-1.4,0.3-1.7,0.4-0.9,0.6c0.5,0.2,1,0.4,1.5,0.5l6.4,2.1c1.2,0.2,2.4-0.1,3.3-0.9
		c0.6-0.4,1.4-1.3,0.3-1.7l-4.9-1.6c-1.5-0.6-3.1-1-4.7-1.2c-1.9,0-3.6,0.7-5,2c-0.5,0.4-0.9,1-1.2,1.5c-0.2,0.3-0.4,0.7-0.5,1
		l-0.3,0.5c-0.4,0.5-0.2,0.4,0.4-0.2l1.8-0.6c-0.5-0.1-1.1-0.2-1.6-0.4l-2.1-0.4l-4.1-0.9c-1.2-0.2-2.4,0.2-3.3,0.9
		C193.8,144.5,192.8,145.6,194,145.8L194,145.8z"></path><path class="st2" d="M154.6,158.8c2.2-7.9,13-33.3,18.4-33.3c10.1,0,0,19,0,19s6.7,13-0.3,20.6s-9.2,7.9-9.2,7.9
		S153.9,161.4,154.6,158.8z"></path><path class="st1" d="M156.8,158.5c2.1-6.9,4.8-13.5,8.2-19.9c1.5-3.3,3.4-6.4,5.5-9.4c0.2-0.3,0.4-0.6,0.6-0.8
		c0.1-0.1,0.7-0.8,0.4-0.5c0.2-0.2,0.4-0.4,0.6-0.6l0.2-0.2c0.4-0.4-0.1,0.2,0.1-0.1c0.1-0.1,0.1-0.1,0.2-0.2
		c0.4-0.2-0.6,0.3-0.1,0.1c0.2-0.1,0.3-0.1-0.3,0.1c0.2,0,0.6-0.1-0.2,0c0.2,0,0,0.1-0.2,0c0.2,0,0.4,0,0.7,0c0.3,0,0.6,0.1,0.9,0.2
		c2,0.8,2,3.9,1.7,6c-0.6,2.9-1.5,5.8-2.8,8.4c-0.5,1.1-1.8,2.8-1.4,4c1.2,2.7,2,5.5,2.5,8.4c0.4,2.3,0.2,4.7-0.5,6.9
		c-0.9,2.8-3.1,4.8-5.1,6.8c-0.8,0.8-1.6,1.5-2.5,2.2l-0.5,0.4c-0.6,0.4,0.4-0.3-0.1,0.1c-0.3,0.2-0.5,0.4-0.8,0.6s-1,0.4-0.1,0.1
		c-0.1,0-0.3,0.1-0.4,0.2c-0.4,0.2,0.8-0.2,0.3-0.1s0.7-0.1,0.5-0.1l1.4,0.2c-0.1-0.1-0.1-0.2,0.1,0.1c-0.1-0.1-0.2-0.2-0.3-0.4
		l-1.1-1.3c-1.1-1.4-2.2-2.8-3.2-4.2c-1.1-1.5-2.1-3-3-4.6c-0.5-1-1.3-2.2-1.1-3.1c0.2-1.1-1.8-0.9-2.3-0.8c-1.1,0.2-2,1.1-2.4,2.1
		c-0.3,1.3,0.7,2.9,1.3,3.9c1.1,1.8,2.2,3.6,3.5,5.3c1.1,1.5,2.2,2.9,3.3,4.3c0.9,1.1,1.4,1.9,3.1,1.5c2.7-0.8,5.1-3.1,7.1-5
		c2.3-2.2,4.8-4.5,6.3-7.4c1.1-2.4,1.6-5.1,1.4-7.7c-0.2-3.8-1.2-7.5-2.9-10.9v0.8c1.4-2.7,2.6-5.5,3.5-8.4c1-3.2,2.5-9-1.2-11.1
		c-4.3-2.5-8.5,1-11,4.4c-3.2,4.5-5.8,9.4-8,14.5c-2.4,5-4.5,10.2-6.1,15.6C151.7,161.4,156.4,160.1,156.8,158.5z"></path><path class="st2" d="M112.1,181.9c1-1.3,26.3-30.1,43.1-24.7s22.5,34.2,0.3,52.6s-39.3,3.5-39.3,3.5L112.1,181.9z"></path><path class="st1" d="M114.2,183c1.5-1.9,3.2-3.7,5-5.3c3.4-3.5,7.1-6.8,11-9.8c4.2-3.4,8.9-6.1,13.9-8.2c2.1-0.8,4.3-1.3,6.6-1.4
		c-0.2,0,0.5,0,0.6,0c0.3,0,0.5,0,0.8,0.1s0.5,0.1,0.8,0.1c0.1,0,0.5,0.1,0,0l0.4,0.1c1,0.2,2,0.6,3,1.1c2,1,3.8,2.3,5.2,4
		c1.5,1.7,2.8,3.7,3.7,5.8c2.1,4.9,2.8,10.3,2,15.6c-0.9,6.2-3.3,12-7.2,16.9c-4.8,6.2-11.2,11-18.6,13.8c-1.5,0.5-2.9,0.9-4.5,1.2
		c-1.4,0.2-2.8,0.3-4.1,0.4c-2.4,0-4.8-0.3-7.1-1.1c-0.5-0.2-1-0.3-1.5-0.5c-0.1,0-0.8-0.3-0.3-0.1l-0.7-0.3
		c-0.8-0.4-1.6-0.8-2.4-1.2c-0.3-0.2-0.6-0.3-0.9-0.5l-0.6-0.4c0.3,0.2-0.3-0.2-0.4-0.3s-0.3-0.2-0.5-0.4l-0.3-0.3l0.6,0.9
		l-3.6-27.5l-0.5-3.9c-0.3-2.2-5.2-2-4.9,0.6l3.9,29.6c0.2,1.1,0.1,2,1,2.8c1.4,1.1,2.9,2,4.5,2.8c6.8,3.4,14.5,4.2,21.8,2.4
		c10.2-2.5,19.5-9.9,25.4-18.5c4.8-7,6.9-15.5,6.1-24c-0.8-7-4.1-14-9.8-18.3c-2.8-2.2-6.2-3.6-9.8-4.1c-3.6-0.3-7.1,0.1-10.5,1.4
		c-7.4,2.5-13.9,7.3-19.8,12.3c-4.2,3.5-8.1,7.3-11.7,11.4c-0.3,0.3-0.5,0.6-0.8,0.9C108.3,183.1,112.8,184.8,114.2,183z"></path><path class="st1" d="M140.3,182.5c-0.3-2.7-0.2-5.4,0.3-8.1c0.3-1.3,0.8-2.5,1.6-3.6c0.4-0.5,0.8-1,1.4-1.3
		c0.1-0.1,1.2-0.4,1.2-0.4s-0.2-0.2-0.3-0.2c-0.1-0.2-0.2-0.2-0.1,0c0.1,0.1,0.1,0.3,0.1,0.5c0,0.7-0.1,1.3-0.4,1.9
		c-0.4,1.1-1,2.2-1.7,3.1c-1.5,2.1-3.5,3.7-5.9,4.7l3.7,3c1.2-1.6,2.8-2.8,4.7-3.5c0.8-0.3,1.6-0.5,2.5-0.5c0.5-0.1,1-0.1,1.5,0.1
		c0.2,0.1,0.1-0.1,0.1,0.2c0.2,1.7-2.3,3-3.6,3.4c-1.7,0.6-3.5,0.6-5.1-0.1c-0.8-0.3-3-0.2-2.4,1.3c0.5,1.4,0.9,2.8,1.1,4.2
		c0.2,1,0.6,2.7-0.2,3.5s-2.1,0.9-3.1,0.9c-1.3,0.1-2.6-0.1-3.8-0.6l-0.6-0.2c-0.1-0.2,0.1-0.1,0.5,0.4V191c0.1-0.5,0.2-1.1,0.2-1.6
		c0.3-1.1,0.7-2.1,1.3-3c1.2-1.9,2.9-3.3,5-4.1c2.4-0.9-1.2-4.2-3-3.5c-3.1,1.2-5.6,3.5-7,6.4c-0.7,1.4-1.1,3-1.1,4.5
		c0,2.2,1.7,3.6,3.6,4.3c3.2,1.3,8.1,2.1,11.2,0.2c1.6-1,1.9-2.6,1.8-4.3c-0.1-2.1-0.6-4.2-1.4-6.2l-2.4,1.3c2.9,1.2,6.2,1.2,9.1,0
		c2.8-1.2,5.8-3.8,4-7.1s-6.3-4-9.7-3.2c-3,0.7-5.7,2.5-7.5,5c-0.5,0.7,0.4,1.8,0.9,2.2c0.8,0.7,1.8,1,2.8,0.8
		c3.3-1.4,6.1-3.8,7.9-6.9c0.9-1.5,1.4-3.1,1.6-4.8c0-2-1.2-3.9-3.1-4.7c-3.7-1.9-7.3,0.1-9,3.6s-1.6,7.4-1.3,11.1
		c0.2,1.2,1,2.1,2.1,2.4C138.5,183.6,140.4,183.8,140.3,182.5L140.3,182.5z"></path><path class="st2" d="M116,406.6l10.6,0.6c0,0,28.6,8.2,25.7,14.1s-18.6,8.3-39.3,7.3s-28-7.8-20.3-22.5L116,406.6z"></path><path class="st1" d="M116.7,408.9l9.3,0.5c0.4,0.1,0.8,0.1,1.2,0.1c-0.2,0-0.5-0.1-0.1,0c0.9,0.3,1.8,0.5,2.7,0.8
		c6.7,2.1,13.8,4.3,19.6,8.4c0.5,0.4-0.3-0.3,0.1,0.1l0.4,0.3c0.2,0.2,0.5,0.4,0.7,0.6s-0.3-0.4,0,0c0.1,0.1,0.2,0.2,0.2,0.3
		c0.4,0.3-0.3-0.5-0.1-0.1c0.3,0.6-0.1-0.5,0-0.1c0-0.1,0-0.3,0-0.4c-0.1,0.4,0.3-0.3-0.1,0.2c-0.2,0.3,0.2-0.3-0.1,0.1l-0.3,0.4
		c-0.2,0.3-0.5,0.6-0.8,0.9c-2.6,2.5-7.3,3.5-10.8,4.1c-6.3,1-12.6,1.5-19,1.3c-6.3,0-12.7-0.2-18.8-1.7c-2.3-0.5-4.4-1.4-6.4-2.6
		c-0.3-0.2-0.6-0.4-0.9-0.7c-0.2-0.1-0.3-0.3-0.4-0.4c-0.1-0.1-0.7-0.7-0.3-0.3c-0.1-0.1-0.2-0.3-0.4-0.5c-0.1-0.1-0.5-0.8-0.2-0.2
		c-0.2-0.3-0.4-0.7-0.5-1c0.3,0.6,0,0,0-0.1s-0.2-0.5-0.2-0.7c0.1,0.6,0-0.1,0-0.2c0-0.3-0.1-0.5-0.1-0.8c0-0.4,0-0.7,0-1.1
		c0-0.5,0.1-1.1,0.2-1.6c0.6-2.4,1.5-4.8,2.7-7l-0.9,0.8l20.5,0.4l2.9,0.1c2.2,0,0.5-4.6-1.5-4.7l-20.5-0.4l-2.9-0.1
		c-0.5,0-0.8,0.4-0.9,0.8c-2.1,4.1-3.8,8.8-2.8,13.5c1,4.2,4,7.6,7.9,9.4c5.2,2.5,11.1,3.1,16.8,3.5c7.5,0.5,15,0.4,22.5-0.4
		c4.9-0.5,10.5-1.3,14.8-3.9c1.5-0.8,2.8-2.1,3.6-3.6c0.6-1.5,0.4-3.2-0.5-4.6c-1.8-3.2-5.7-5.2-8.9-6.7c-3.9-1.8-7.9-3.4-11.9-4.7
		c-2.1-0.8-4.2-1.5-6.3-2c-1.3-0.2-2.5-0.3-3.8-0.2l-6-0.4l-1.2-0.1c-1.2-0.1-1.1,1.7-0.9,2.4C114.8,407.8,115.7,408.6,116.7,408.9z
		"></path><path class="st2" d="M125.9,371.8c0,0-8.3,27.4-7.1,30.4s21.9,9.4,18.8,9.7c-2.3,0.3-7.7,5-25.8,3.3c-18.4-1.7-17.6-4-18.7-7.8
		s-1.2-40.5-1.2-40.5L125.9,371.8z"></path><path class="st1" d="M123.7,370.6c-1.1,3.5-2.1,7.1-3.1,10.6c-1.7,5.6-3,11.3-4,17c-0.3,1.8-0.5,3.8,0.6,5.3
		c1.4,1.8,3.8,2.9,5.8,3.8c2.6,1.2,5.3,2.3,8,3.4c0.4,0.1,5.7,2.5,5.7,2.5s-0.6-0.5-0.3-0.2c0.1,0.1,0.2,0.2-0.1-0.1
		c-0.7-0.8-1.4-2,0.1-3c0.1-0.1,0.5-0.1,0.4-0.2s-0.5,0.1-0.6,0.1c-0.7,0.2-1.3,0.5-2,0.8l-0.5,0.2c-0.3,0.1,0.5-0.2,0.1,0l-0.3,0.1
		l-1.3,0.5c-1.1,0.4-2.3,0.7-3.4,1c-8.2,1.9-17.2,1-25.4-0.4c-1.5-0.2-3-0.6-4.5-1c-0.3-0.1-0.6-0.2-0.8-0.3
		c-0.6-0.2,0.3,0.2-0.3-0.1c-0.4-0.2-0.8-0.4-1.2-0.6s0.5,0.4,0,0c-0.1-0.1-0.2-0.2-0.4-0.3c-0.3-0.2,0.5,0.5,0.1,0.1
		c-0.1-0.1-0.2-0.3-0.3-0.4c0.5,0.5,0.2,0.4,0.1,0.1c0-0.1-0.1-0.2-0.2-0.4s-0.1-0.2-0.1-0.3s0.2,0.6,0,0c-0.3-1.1-0.5-2.2-0.7-3.4
		c0-0.4-0.1-0.9-0.1-1.3c0-0.2,0-0.4,0-0.6c0-0.4,0,0,0,0V403c-0.1-1.2-0.1-2.5-0.2-3.7c-0.4-10.4-0.4-20.7-0.5-31.1
		c0-0.2,0-0.5,0-0.7l-1.9,1.6l29.6,4.2l4.3,0.6c1,0.1,1.8-0.7,1.9-1.7c0-0.2,0-0.3,0-0.5c-0.3-1.3-1.4-2.2-2.7-2.3l-29.7-4.2
		l-4.3-0.6c-1-0.1-1.8,0.6-1.9,1.6c0,9.5,0.1,19.1,0.4,28.6c0.1,2.7,0.2,5.5,0.4,8.2c0,1.5,0.2,2.9,0.5,4.4c0.3,1.5,0.8,2.9,1.7,4.2
		c1.4,1.7,3.2,2.9,5.3,3.4c3.7,1.1,7.4,1.7,11.2,2c5,0.7,10.1,0.8,15.1,0.5c3.2-0.2,6.3-0.8,9.3-1.7c1-0.3,2.1-0.7,3.1-1.1l1-0.4
		c-0.6,0.2,0.1-0.1,0.4-0.2c0.7-0.2,1.4-0.2,1.9-0.8c1-1.2,0.1-2.8-0.9-3.6c-1.7-1.3-4.1-2-6.1-2.8c-2.8-1.1-5.6-2.2-8.2-3.5
		c-1.1-0.5-2.2-1.1-3.3-1.8c-0.6-0.3,0.2,0.2-0.1,0c-0.2-0.1-0.3-0.3-0.5-0.4c-0.3-0.2,0.4,0.5,0.1,0.1c-0.2-0.2,0.4,0.9,0.3,0.6
		c0-0.1,0-0.2,0-0.4c0.1,0,0,0.6,0,0.1s0-0.9,0.1-1.3c0.1-1.1,0.3-2.2,0.6-3.3c0.6-2.8,1.2-5.5,2-8.5c1.3-5,2.7-10,4.2-14.9
		c0.1-0.3,0.2-0.6,0.2-0.8c0.3-1.2-0.3-2.5-1.4-3.1C125.7,369.4,124.1,369.4,123.7,370.6z"></path><path class="st2" d="M95.5,409.2l10.6,0.6c0,0,28.6,8.2,25.7,14.1s-18.6,8.3-39.3,7.3s-28-7.8-20.3-22.5L95.5,409.2z"></path><path class="st1" d="M94.9,410l9.2,0.5c0.4,0,0.8,0.1,1.3,0.1c-1.2,0-1.4-0.2-0.7,0c0.9,0.3,1.8,0.6,2.8,0.9
		c3.3,1.1,6.6,2.2,9.8,3.5c3.5,1.2,6.8,2.9,9.8,5c0.9,0.6,1.7,1.5,2.2,2.5c0.4,1.1-0.2,1.9-0.9,2.7c-2.4,2.7-6.8,3.6-10.2,4.2
		c-6.2,1-12.4,1.4-18.6,1.2c-6.1-0.1-12.4-0.2-18.3-1.9c-3.7-1-7.7-3-9.1-6.9c-1.6-4.4,0.4-9.2,2.4-13l-3,0.7L92,410H94.9
		c0.7,0.1,2.6,0.1,3-0.7s-1.5-0.9-1.8-0.9L75.7,408l-2.9-0.1c-0.7,0-2.6,0-3,0.7c-1.9,3.7-3.8,8.3-2.8,12.5c0.9,3.8,4,6.2,7.5,7.6
		c5.4,2.3,11.6,2.9,17.5,3.2c7.7,0.4,15.4,0.3,23-0.5c5.2-0.6,10.8-1.5,15.4-4c2.1-1.2,5.2-3.5,3.6-6.2c-0.9-1.2-1.9-2.1-3.2-2.9
		c-1.6-1.1-3.4-2-5.1-2.8c-3.9-1.8-7.8-3.3-11.8-4.6c-2-0.7-3.9-1.4-6-1.9c-1.5-0.2-3-0.4-4.6-0.4l-6-0.4l-1.1-0.1
		c-0.7,0-2.6,0-3,0.7S94.6,410,94.9,410z"></path><path class="st2" d="M105.4,374.4c0,0-8.3,27.4-7.1,30.4s21.9,9.4,18.8,9.7c-2.3,0.3-7.7,5-25.8,3.3c-18.4-1.7-17.6-4-18.7-7.8
		s-1.2-40.5-1.2-40.5L105.4,374.4z"></path><path class="st1" d="M103.3,375.5c-1.1,3.6-2.1,7.1-3.1,10.7c-1.7,5.5-3,11.1-3.9,16.7c-0.2,1.2-0.6,2.8,0.4,3.7
		c1.5,1.5,4,2.4,5.9,3.3c4.2,1.9,8.8,3.1,12.7,5.6c0.1,0,0.1,0,0.1,0c-1.6-0.9,5.3-2.7,3.5-2.2c-0.3,0.1-0.7,0.2-1,0.3
		c-0.6,0.2-1.2,0.5-1.8,0.7c-2,0.8-4,1.4-6.1,1.9c-4,0.7-8,1-12,0.8c-4.9-0.2-9.7-0.7-14.5-1.6c-3.4-0.6-7.4-1.4-8.5-5.1
		c-0.9-3.2-0.9-6.6-1.1-9.9c-0.4-10.4-0.5-20.9-0.5-31.3v-0.7l-4.2,2.6l29.7,4.2l4.3,0.6c0.8,0.1,2.1-0.9,2.8-1.3
		c0.2-0.1,1.7-1.3,1.2-1.3l-29.7-4.2l-4.3-0.6c-0.7-0.1-2,0.8-2.5,1.1c-0.4,0.3-1.7,0.9-1.7,1.5c0,9.5,0.1,19.1,0.4,28.6
		c0.1,2.6,0.2,5.2,0.3,7.8c0,1.4,0.2,2.9,0.5,4.3c0.2,1.1,0.6,2.2,1.3,3.2c1.1,1.4,3,2,4.7,2.5c4.1,1,8.2,1.6,12.4,1.9
		c4.7,0.5,9.5,0.6,14.2,0.1c2.9-0.3,5.7-1,8.4-1.9c0.8-0.3,1.6-0.6,2.4-0.9l0.9-0.4l0.4-0.1c-0.5,0.2-0.1,0,0.1,0
		c0.3,0-0.2,0.1,0.2,0c0.2,0,0.5-0.1,0.7-0.2c1.3-0.4,2.5-1.1,3.4-2.1c0.4-0.5,0-0.7-0.4-1c-2-1-4.1-2-6.3-2.7
		c-2.7-1.1-5.5-2.2-8.2-3.5c-1.2-0.6-3.7-1.5-4.1-3c-0.4-1.7,0.3-3.9,0.6-5.5c0.6-3,1.3-5.9,2.1-8.8c1.3-5,2.7-9.9,4.2-14.9
		c0.1-0.3,0.2-0.6,0.2-0.8c0.2-0.5-1.6,0.4-1.8,0.4C105.2,374.1,103.6,374.8,103.3,375.5z"></path><path class="st2" d="M100.8,122.1L100.8,122.1c9.9-4.8,17.2-13.6,20-24.2l1.1-4c4.4,8.2,7.2,14.6,9.7,19.2c1.9,3.6,5.9,4.5,8.5,4.8
		c11.1,1.5,13.3,4.7,9.8,6.7c-4,2.3-14.5,3.8-14.5,3.8s5.4,16.6-11.8,26c-8.7,4.8-9.2,6.6-8,9.5s2.7,27.6,2.7,27.6
		s0.8-13.3-13.5-13.8c-15.9-0.6-16.3-13.4-16.3-13.4s3.7-1.1,4.3-4.1c0.3-3.1,0.4-6.2,0.2-9.3c0,0,15,0.9,6.8-28.9"></path><path class="st1" d="M101.6,123.6c6.7-3.2,12.4-8.2,16.4-14.4c3.2-4.8,4.8-10.1,6.2-15.6l-4.5,1.5c2.7,5.1,5.2,10.3,7.7,15.4
		c1,2,1.9,4.2,3.5,5.8c1.6,1.5,3.7,2.6,5.9,3c3.8,0.9,8.8,0.8,11.9,3.4c0.4,0.3,0-0.1,0.3,0.3c0.1,0.1,0.1,0.2,0.1,0.3
		c-0.2-0.4-0.1-0.2-0.1-0.1s0,0,0,0c0.2-0.4-0.4,0.4,0.2-0.3c-0.3,0.4,0.2-0.1,0.1,0c-0.7,0.4,0.3-0.1-0.2,0.2l-0.5,0.2
		c0,0-0.6,0.3-0.3,0.2c-0.6,0.2-1.8,0.7-2.7,0.9c-3.2,0.9-6.6,1.6-9.9,2.1c-0.9,0.1-3.1,1.3-2.7,2.7c0.8,2.8,1,5.7,0.6,8.6
		c-0.9,6.3-4.7,11.9-10.4,14.9c-3.2,1.8-7.1,3.6-9.3,6.7c-1.4,2-1.3,3.7-0.6,5.9c-0.2-0.7,0,0.2,0.1,0.4c0.1,0.4,0.2,0.8,0.2,1.2
		c0.2,1.1,0.3,2.1,0.4,3.2c0.3,2.9,0.6,5.8,0.8,8.6c0.4,4.5,0.7,9.1,1,13.6c0.2,2.3,4.5,0.7,4.6-1.1c0.3-5.1-2-10.5-6.5-13.1
		c-2-1.2-4.3-1.9-6.6-2.1c-2.7-0.3-5.2-0.3-7.8-1.2c-3.2-1.1-5.9-3.4-7.5-6.4c-0.6-1-1-2.1-1.2-3.3c-0.1-0.5-0.2-1.1-0.2-1.6
		l-2.1,2.5c3.2-1,6.1-3.5,6.5-6.9c0.3-3,0.4-6,0.2-9l-3.3,2.7c2.5,0,4.9-0.8,6.9-2.2c4.2-3,5.5-8.4,5.7-13.3c0-5.4-0.9-10.8-2.4-16
		c-0.7-2.4-5.2-0.5-4.6,1.6c1.3,4.5,2.1,9.2,2.4,13.8c0.2,2.7-0.2,5.4-1,8c0.2-0.4-0.2,0.4-0.2,0.5l-0.3,0.6l-0.4,0.7
		c-0.1,0.1-0.1,0.2-0.2,0.2c-0.3,0.4,0.3-0.4,0,0s-0.5,0.6-0.7,0.9c-0.4,0.5,0.4-0.3-0.1,0.1l-0.4,0.4c-0.1,0.1-0.3,0.2-0.4,0.3
		c0.1-0.1,0.5-0.3,0.1,0c-0.3,0.1-0.6,0.3-0.9,0.5c0.7-0.4,0.2-0.1-0.2,0.1c-0.2,0.1-1,0.3-0.4,0.1s-0.2,0-0.4,0.1l-0.5,0.1
		c-0.5,0.1,0.7,0,0.1,0c-1.5-0.1-3.4,1.1-3.3,2.7c0.1,2.3,0.1,4.7,0,7c-0.1,1.2-0.2,2.4-0.9,3.1c-0.1,0.1-0.3,0.2-0.4,0.3
		c0.2-0.1,0.2-0.1-0.1,0c-0.2,0.1-0.5,0.3-0.8,0.4c0.7-0.3-0.1,0-0.3,0.1c-1.2,0.3-2,1.3-2.1,2.5c0.4,4.9,3.2,9.4,7.4,11.8
		c2.1,1.2,4.3,1.9,6.7,2.3c2.6,0.4,5.2,0.2,7.7,1c3.3,0.9,5.9,3.3,7.1,6.5c0.5,1.2,0.8,2.4,0.9,3.7c0,0.4,0.1,0.9,0.1,1.3
		c0,0.2,0,1.1,0,0.1l4.6-1.1c-0.2-3.8-0.5-7.6-0.8-11.4c-0.4-5.1-0.6-10.3-1.6-15.3c-0.1-0.3-0.1-0.5-0.2-0.8s-0.2-0.5-0.2-0.8
		c0-0.1-0.1-0.3,0,0c0-0.1-0.1-0.2-0.1-0.4l-0.1-0.6c0-0.1,0-0.7,0-0.2c0-0.2,0.1-0.4,0.1-0.5s0.1-0.3,0,0.1
		c0.1-0.1,0.1-0.3,0.2-0.4s0.2-0.3,0,0.1c0.1-0.1,0.1-0.2,0.2-0.3c0.1-0.1,0.6-0.6,0.2-0.3c0.6-0.5,1.2-1,1.8-1.5
		c1.7-1.2,3.8-2.2,5.6-3.3c6.2-3.7,11.1-9.4,12.6-16.7c0.8-3.6,0.7-7.4-0.4-11l-2.7,2.7c3.4-0.5,6.7-1.2,9.9-2.1
		c2.8-0.8,8.9-2.3,8.8-6.2c-0.1-3.5-5.8-4.7-8.3-5.2c-2.4-0.5-5-0.6-7.3-1.4s-3.8-2.5-4.9-4.7c-3.1-6-5.9-12-9-18
		c-1-1.9-4.1,0.1-4.5,1.5c-1.3,4.9-2.7,9.7-5.4,14c-3.5,5.4-8.4,9.7-14.2,12.5c-0.9,0.4-1.9,1.7-1.4,2.7s2.2,0.6,3,0.2L101.6,123.6z
		"></path><path class="st1" d="M124.2,113.1c-1,0.3-1.5,1.4-1.2,2.4c0,0.1,0.1,0.2,0.1,0.3c0.9,1.9,3.2,0.8,2.9-1.1c0-0.9-0.7-1.6-1.6-1.6
		C124.4,113.1,124.3,113.1,124.2,113.1z"></path><path class="st1" d="M121.6,131.8c1.8,3.5,5.1,5.9,9,6.7c1.7,0.2,3.5,0,5.1-0.6c0.9-0.3,1.4-1.2,1.1-2.1c0,0,0,0,0,0
		c-0.3-0.8-1.2-1.8-2.1-1.4c-0.7,0.3-1.4,0.5-2.1,0.6h-0.2h-0.2c0.1,0-0.2,0-0.3,0c-0.3,0-0.7,0-1,0l-0.4-0.1h-0.2h0.1
		c-0.3-0.1-0.6-0.2-0.9-0.2c-0.2-0.1-0.5-0.2-0.7-0.3c-0.4-0.2,0.2,0.1-0.1,0l-0.4-0.2c-0.4-0.3-0.9-0.5-1.3-0.9
		c-0.4-0.3,0.2,0.2,0,0l-0.2-0.2l-0.5-0.5c-0.3-0.3-0.6-0.6-0.8-0.9c-0.1-0.1-0.2-0.3-0.3-0.4c0.5,0.5,0.1,0.1,0-0.1
		s-0.4-0.6-0.6-0.9c-0.3-0.8-1.3-1.3-2.1-0.9s-1.3,1.3-0.9,2.1C121.5,131.6,121.6,131.8,121.6,131.8L121.6,131.8z"></path><path class="st2" d="M121.9,177.1c0,0,64.3,181.4,59.6,193.2s-127,32.9-165.9-40c0,0,61.2-175.2,76.5-175.2
		S121.9,177.1,121.9,177.1z"></path><path class="st1" d="M119.5,177.3c1.7,4.7,3.3,9.3,4.9,14c4.1,11.6,8.1,23.2,12,34.8c5.2,15.1,10.3,30.3,15.3,45.5
		c5.1,15.3,10,30.6,14.7,46.1c3.7,12.1,7.4,24.2,10.3,36.5c1,3.8,1.7,7.6,2.3,11.5c0,0.3,0.1,0.6,0.1,0.9c0.1,0.6,0-0.1,0,0
		s0,0.4,0,0.5c0,0.5,0,1,0,1.5c0,0.2,0,0.4,0,0.6c0,0.7,0.2-0.4,0,0c-0.1,0.1-0.1,0.3-0.2,0.4c0,0.2,0.4-0.5,0.1-0.2
		c-0.1,0.1-0.1,0.2-0.2,0.3c-0.2,0.2-0.3,0.3-0.5,0.5c0,0,0.5-0.4,0.1-0.1l-0.4,0.3c-0.5,0.4-1.1,0.7-1.6,1.1l-0.5,0.3l-0.2,0.1
		c-0.4,0.2,0.5-0.3,0.2-0.1l-1.1,0.5c-0.9,0.4-1.8,0.8-2.7,1.1c-2.2,0.8-4.4,1.5-6.6,2.1c-1.3,0.3-2.5,0.6-3.8,0.9l-0.6,0.1l-1,0.2
		l-2.1,0.4c-6.6,1.3-13.3,2.1-20,2.6c-3.8,0.3-7.6,0.4-11.4,0.5c-4.1,0.1-7.5,0-11.4-0.2c-17.1-0.8-33.8-3.7-49.5-9.8
		c-7.9-3-15.3-7-22.2-11.8c-7.1-5-13.4-11.1-18.6-18c-2.6-3.4-4.9-7.1-6.9-10.9l0.1,1.7c0.7-2,1.4-4,2.1-6
		c1.9-5.4,3.8-10.7,5.8-16.1c2.8-7.8,5.6-15.5,8.5-23.3c3.4-9.2,6.9-18.5,10.4-27.7c3.7-9.7,7.5-19.4,11.4-29
		c3.7-9.2,7.5-18.5,11.5-27.6c3.4-7.9,7-15.7,10.8-23.4c1.5-3.1,3.1-6.1,4.8-9.1l0.6-1c0.2-0.3-0.2,0.4,0.1-0.1l0.3-0.5
		c0.4-0.6,0.7-1.2,1.1-1.8c0.7-1.1,1.4-2.1,2.1-3.2c0.6-0.9,1.2-1.7,1.9-2.6c0.3-0.4,0.6-0.7,0.9-1l0.4-0.4c0.2-0.2,0.7-0.6,0.1-0.1
		c0.3-0.2,0.5-0.4,0.8-0.7s0.6-0.3,0.7-0.5c-0.3,0.5-0.6,0.2-0.1,0.1c0.1,0,0.2-0.1,0.4-0.1c0,0-0.7,0-0.2,0.1c0.3,0,0.3,0,0.7,0
		c5.7,0.4,10.9,3.9,15.2,7.7c3.8,3.4,7.2,7.2,10.2,11.4c0.2,0.3,0.4,0.5,0.6,0.8c0.3,0.5-0.2-0.3,0,0l0.2,0.3l0.4,0.6
		c0.7,1.1,2,1.7,3.3,1.3c1-0.4,1.6-1.5,1.2-2.6c0-0.1-0.1-0.2-0.1-0.3c-2.7-4.1-5.9-7.9-9.3-11.4c-5.7-5.7-13-11.5-21.4-12.1
		c-1.5-0.2-3,0.1-4.4,0.8c-0.9,0.6-1.8,1.3-2.5,2.1c-1.9,2.1-3.6,4.4-5.1,6.9c-4.9,8.2-9.3,16.6-13.1,25.4
		c-5.2,11.4-10.1,23-14.9,34.6c-5.1,12.6-10,25.2-14.9,37.8c-4.4,11.6-8.7,23.1-12.9,34.7c-3.1,8.3-6.1,16.7-9.1,25.1
		c-0.8,2.3-1.6,4.7-2.5,7c-0.2,0.6-0.4,1.1-0.6,1.7c0,0.1-0.1,0.2-0.1,0.4c-0.3,1.1,0.2,2,0.7,2.9c7.3,13,17.7,24.1,30.3,32.1
		c12.3,7.9,26.1,13,40.3,16.2c13.5,2.9,27.3,4.3,41.2,4.2c11.6,0,23.2-1.1,34.5-3.4c4.3-0.8,8.5-1.9,12.7-3.3
		c2.8-0.9,5.6-2.1,8.1-3.8c1.7-1,2.8-2.8,3-4.7c0.1-2.3-0.1-4.6-0.6-6.9c-1.5-8.1-3.5-16.1-5.9-23.9c-3.2-11.5-6.8-23-10.4-34.4
		c-4.1-12.9-8.3-25.8-12.6-38.7c-4.2-12.6-8.4-25.2-12.7-37.7c-3.5-10.2-7-20.4-10.6-30.6c-2.1-6-4.2-12-6.3-17.9l-0.8-2.4
		c-0.4-1.3-1.6-2.1-2.9-2C120.3,175,119.1,176.1,119.5,177.3z"></path><path class="st1" d="M121.9,93.8c0,0-6.5-23.1-38.6-15.3s-46,59.3-36.3,72.6c4,5.5-19,18.4-5.4,39.8s68.6,3.2,46.8-26.6
		c0,0,16.2,1.1,7.9-15c0,0,17.2-2.4,8.3-17.2c0,0,11.3-5.4,4.8-14.3C109.4,117.8,122.4,111.6,121.9,93.8z"></path><path class="st1" d="M62,200.8c-9.4,0-16.9-3.4-20.8-9.6c-9.2-14.3-2.1-25,2.5-32c2.3-3.4,4-6.2,2.9-7.8
		c-4.7-6.4-4.1-21.2,1.4-36.2C55.1,95.5,68.3,81.6,83.1,78c32.2-7.8,39.2,15.4,39.2,15.7c0,0,0,0.1,0,0.1c0.3,9.3-3.2,15.4-6.1,18.9
		c-1.7,2.1-3.8,3.8-6.1,5.2c1.5,2,2.1,4.6,1.6,7.1c-1,4-5,6.4-6.4,7.2c2.5,4.3,3,8,1.6,11.1c-2.1,4.4-7.9,5.9-9.8,6.4
		c2.4,4.9,2.8,8.7,1,11.4c-2.1,3.2-6.7,3.7-8.7,3.8c4.8,7,5.9,14,3,20.2c-3.9,8.4-15.3,14.9-27.7,15.7
		C63.7,200.7,62.8,200.8,62,200.8z M95.7,77.4c-4.2,0-8.3,0.6-12.3,1.6c-14.5,3.5-27.4,17.1-34.5,36.5c-5.4,14.7-6,29.2-1.5,35.3
		c1.6,2.2-0.4,5.1-2.8,8.9c-4.5,6.8-11.3,17.2-2.5,31c4,6.3,12.5,9.7,22.6,9c12-0.8,23.1-7,26.9-15.1c2.8-6.1,1.7-13-3.4-20
		c-0.1-0.2-0.1-0.4,0-0.5c0.1-0.2,0.3-0.3,0.5-0.3c0.1,0,6.5,0.4,8.8-3.3c1.6-2.4,1.1-6.1-1.4-11c-0.1-0.2,0-0.5,0.2-0.7
		c0.1,0,0.1,0,0.2-0.1c0.1,0,7.4-1.1,9.8-5.9c1.3-2.8,0.7-6.4-1.8-10.6c-0.1-0.1-0.1-0.3,0-0.4c0-0.1,0.1-0.2,0.3-0.3
		c0,0,5.2-2.5,6.3-6.8c0.5-2.2,0-4.4-1.7-6.7c-0.1-0.1-0.1-0.3-0.1-0.4c0-0.1,0.1-0.3,0.3-0.3c2.4-1.3,4.6-3.1,6.3-5.2
		c2.8-3.4,6.1-9.2,5.9-18.2C121,92.6,116,77.4,95.7,77.4z"></path><path class="st2" d="M156.5,201.2c0,0,10.5-28.6,22.1-41.2s26.8-14.2,31.3-10.6s1.8,9-4.5,9.8s-13.2,6.1-13.2,6.1s4.2,0.6,7.3,7.1
		s3.2,18.2-4.7,17.6c-0.8,3.5-3.2,6.4-6.4,7.9c-5.5,2.4-7.1,0.6-7.1,0.6l-2.7,14.4L156.5,201.2z"></path><path class="st1" d="M158.3,203c1.5-4,3.1-7.9,4.9-11.8c3.3-7.7,7.2-15.1,11.7-22.2c5-7.6,11.5-14.1,20.1-17.4
		c3.5-1.5,7.2-2.2,11-2.1c1.3,0,2.6,0.3,3.9,0.7c0.4,0.1,1,0.5,1.2,0.6c-1-0.4-1.4-1.9-0.9-0.8c0.2,0.4,0.3,0.9,0.4,1.3
		c0,1.9-1,3.7-2.7,4.7c-2.2,1.4-4.9,1.4-7.3,2.2c-3.6,1.2-7,3-10,5.4c-0.4,0.3,2.8,3.5,3.4,3.6c0.4,0.1,0.8,0.2,1.1,0.4
		c0.4,0.2,0.7,0.4,1.1,0.6c0.1,0.1,0.8,0.6,0.1,0c-0.6-0.5,0,0,0.1,0.1c1.8,2.6,2.9,5.5,3.2,8.7c0.6,4.5-0.2,11.7-6.3,11.3H193
		c-0.5,2.4-1.9,4.6-3.8,6.2c-1.8,1.5-4,2.4-6.3,2.8c-0.7,0.1-1.5,0.1-2.2,0c-0.2,0-0.4-0.2-0.6-0.2s-0.1,0,0,0c-0.1-0.1-0.1-0.1,0,0
		c0.7,0.5,1.3,1,1.8,1.6c-0.8-0.7-1.6-1.4-2.5-2l-2.7,14.4l0.4,0.1L157.8,201l-2.7-1.4c-0.9-0.5,0.2,0.8,0.3,1
		c0.7,0.9,1.5,1.7,2.5,2.4l19.2,10.3l2.7,1.4c0.1,0.1,0.2,0.1,0.4,0.1l2.8-14.4l-2.5-2c1,1.1,2.1,2.3,3.6,2.6c2.3,0.4,5-0.6,6.9-1.7
		c2-1.1,3.6-2.8,4.6-4.9c0.3-0.6,0.5-1.2,0.7-1.9c0.2-0.6,0-0.6,0.6-0.6c9.3-0.5,6.2-14.6,3.2-19.7c-1.7-2.7-3.9-5.1-6.5-7
		c-0.9-0.7-2-1.3-3.1-1.6l3.4,3.6c2.7-2.1,5.7-3.8,8.9-5c3.7-1.4,9.6-1.1,10.9-5.8c0.5-1.9-0.4-3.7-1.6-5.1c-1.3-1.8-3-3.2-5-4.2
		c-2.7-1.2-6-1.1-8.9-0.7c-19.3,2.8-29.5,21.5-36.9,37.4c-2.4,5.2-4.7,10.4-6.6,15.8c-0.2,0.5,1.2,1.7,1.5,2
		C156.4,201.6,158.2,203.2,158.3,203z"></path><path class="st2" d="M191.6,176.4c3.1,3.8,4.2,8.8,3.1,13.6"></path><path class="st1" d="M189.7,176.6C189.9,176.8,189.3,176.1,189.7,176.6c0.1,0.1,0.3,0.4,0.4,0.6s0.5,0.7,0.7,1.1s0.3,0.5,0.4,0.8
		s0.1,0.2,0.2,0.4s0.1,0.2,0,0l0.1,0.2c1.2,3,1.6,6.4,0.9,9.6c-0.2,1,1.3,1.6,2,1.9c0.5,0.1,2.6,0.7,2.7-0.2c1-5,0-10.7-3.6-14.6
		c-0.9-0.8-2.1-1.3-3.3-1.2C189.2,175.1,189,175.8,189.7,176.6L189.7,176.6z"></path><path class="st2" d="M181.2,198.6c0,0-9.7-1.6-6-9.2c2.6-5.3,9.5,0.4,9.5,0.4"></path><path class="st1" d="M182.8,197.5c-0.2,0-0.4-0.1-0.7-0.1l-0.3-0.1c-0.1,0-0.6-0.2-0.2-0.1s-0.1,0-0.2-0.1l-0.5-0.2
		c-0.3-0.1-0.7-0.3-1-0.4l-0.5-0.2l-0.2-0.1c-0.1,0-0.4-0.2-0.2-0.1l-0.1-0.1l-0.2-0.2c-0.2-0.1-0.3-0.3-0.5-0.4
		c-0.3-0.3-0.5-0.6-0.8-0.9c-0.1-0.1-0.1-0.2-0.2-0.2l-0.1-0.1c0,0,0.1,0.2,0.1,0.1c-0.1-0.2-0.2-0.4-0.3-0.6
		c-0.1-0.4-0.2-0.8-0.2-1.2c0-0.2,0-0.4,0-0.7c0,0,0-0.4,0-0.2c0-0.1,0-0.3,0.1-0.4c0.1-0.6,0.3-1.2,0.6-1.7
		c0.1-0.3,0.3-0.5,0.4-0.8c0.1-0.2-0.1,0.2,0,0l0.1-0.2c0.1-0.1,0.2-0.2,0.3-0.3l0.1-0.1c0.1-0.2-0.3,0.2-0.1,0.1s0.5-0.3,0.1-0.1
		s0,0,0.1,0c-0.5,0.3-0.5,0.2-0.3,0.1s0.4-0.1-0.1,0s-0.1,0,0,0c-0.8,0.2-0.5,0.1-0.2,0c-0.7,0.1-0.4,0-0.2,0h0.3c0.3,0-0.2,0-0.3,0
		c0.2,0.1,0.5,0.1,0.7,0.1l0.3,0.1c0.2,0.1-0.4-0.1-0.1-0.1l0.2,0.1c0.9,0.4,1.8,0.8,2.7,1.4c0.2,0.1-0.1-0.1-0.1-0.1l0.1,0.1
		l0.2,0.2l0.4,0.3l0.3,0.2c0.8,0.7,2.2,0.4,3.2,0.1c0.4-0.1,2.3-0.9,1.5-1.6c-1.1-0.9-2.4-1.7-3.8-2.3c-1.4-0.6-2.9-0.8-4.4-0.8
		c-1.9,0.1-3.6,0.8-5,2c-0.9,1-1.6,2.3-1.8,3.6c-0.3,1-0.2,2.1,0.2,3.1c0.8,1.7,2.2,3,3.9,3.7c1.1,0.5,2.3,0.9,3.5,1.1
		c1.2,0.2,2.4,0,3.5-0.6c0.3-0.2,0.7-0.5,0.6-0.9S183.2,197.5,182.8,197.5L182.8,197.5z"></path><path class="st2" d="M83.9,237c0,0,35,50.7,66.6,40s33.3-59.1,33.3-68.3s-21.6-28.3-34.1-21.6S133,207.9,133,207.9l-16.7-20.8"></path><path class="st1" d="M81.5,237.2c2.2,3.1,4.5,6.1,7,9c5.4,6.5,11.3,12.4,17.7,17.8c7.2,6,15.3,11.2,24.5,13.8
		c9.3,2.7,19.3,1.7,27.8-2.9c7.9-4.4,13.8-11.5,17.9-19.5c3.9-7.8,6.6-16.2,8-24.9c1.1-6.3,1.8-12.7,2-19.2c0.2-2.4-0.2-4.8-1.2-7
		c-2-3.9-4.8-7.3-8.2-10.1c-7.1-6.2-17.6-11.8-27.3-8.6c-5.1,1.7-9.5,5.8-12.7,10c-2.4,3.2-4.4,6.7-5.9,10.4
		c-0.2,0.6-0.4,1.1-0.6,1.7l4.9-0.1l-14.6-18.2l-2.1-2.6c-0.6-0.8-2.2-0.7-3.1-0.6c-0.3,0-2.3,0.3-1.8,1l14.6,18.2l2,2.5
		c0.7,0.9,4.5,1.2,4.9-0.1c2.1-6.7,6.1-12.6,11.5-17.1c1.9-1.7,4-3,6.4-3.9c0.7-0.2,1.5-0.4,2.2-0.4c-0.6,0,1,0.1,0.4,0
		c0.6,0,1.1,0.1,1.5,0.2c4.4,0.8,8.4,3.2,11.9,5.8c3.6,2.6,6.7,5.8,9.3,9.5c1.6,2.2,2.5,4.9,2.6,7.7c-0.1,5.5-0.5,11.1-1.3,16.5
		c-2.3,16-7.6,33.6-20.6,44.2c-3.4,2.8-7.2,4.8-11.4,6.2c-1.8,0.6-3.7,0.9-5.6,1h-0.8c0.5,0-0.4,0-0.4,0c-0.5,0-1,0-1.6,0
		c-0.8,0,0.2,0-0.2,0c-0.2,0-0.4,0-0.6-0.1c-0.6-0.1-1.2-0.1-1.8-0.2c-8.1-1.3-16.1-6.1-22.8-11.1c-10.5-8.2-19.8-17.8-27.5-28.8
		c-0.1-0.2-0.3-0.4-0.4-0.6c-0.5-0.8-2.3-0.7-3.1-0.6C82.9,236.1,81,236.4,81.5,237.2L81.5,237.2z"></path><path class="st1" d="M47.8,318.1c-1.5-3.6-3-7.3-3.4-11.2c-0.2-1.8,0-3.6,0.4-5.4c0.3-0.9,0.6-1.8,1.2-2.6l0.6-0.8
		c0-0.3-0.2,0-0.2,0s0.6,0.5,0.7,0.6c0.2,0.3,0.4,0.6,0.5,0.9c0.3,0.8,0.5,1.7,0.6,2.5c0.3,1.6,0.4,3.3,0.5,4.9
		c0.2,3.1-0.2,6.5-2.4,8.8l4.3,1.3c1.2-2.9,3-5.5,5.4-7.6c0.9-1,2.1-1.7,3.3-2.1c0.2,0,0-0.1,0.4,0c0.3,0.1,0.5,0.3,0.7,0.6
		c0.5,0.6,0.9,1.3,1.1,2c1.1,3,0.4,5.9-2.3,7.7c-1.3,0.8-2.8,1.3-4.4,1.5c-0.8,0.2-1.6,0.3-2.5,0.4c-0.3,0-0.6,0-0.9,0.1
		c-0.2,0-0.1,0,0.1,0.1c-0.1-0.2-0.2-0.1-0.2,0.2l-4.4-0.4c1.2,3.1,2.1,6.4,2.6,9.7c0.1,0.7,0.2,1.4,0.1,2.1
		c-0.1,0.6-0.3,1.3-0.7,1.9c0,0-0.2,0.2-0.2,0.2c0.5,0,0.7,0,0.4-0.1c-0.1,0-0.2-0.1-0.3-0.1c-0.4-0.4-1-0.7-1.4-1.2
		c-3-3.3-3.4-9-0.5-12.5l-4.5-0.8c-0.3,2.7-2.7,3.8-5,4.3c-1,0.2-3.9,1.2-4.5-0.1c-0.4-0.9,0.8-2.3,1.4-3c0.8-0.9,1.8-1.7,2.8-2.4
		c1.9-1.2,4.2-1.7,6.4-1.5c1.1,0.1,2.7-0.1,3.2-1.3c0.3-0.8,0-1.6-0.7-2c-0.2-0.1-0.4-0.1-0.6-0.1c-4.1-0.5-8.2,0.5-11.7,2.7
		c-2.6,1.6-7.5,6-5.3,9.5c2,3.1,6.9,2.1,9.8,1.4c3.9-1,8.5-3.2,9-7.7c0.2-2.2-3.4-2-4.4-0.8c-4.3,5.1-4,13.8,1.7,17.8
		c2.8,2,6.7,1.3,8.6-1.5c0.6-0.8,0.9-1.7,1.1-2.7c0.1-2.2-0.1-4.3-0.7-6.4c-0.5-2.2-1.2-4.4-2-6.6c-0.7-1.7-3.3-1.5-4.4-0.4
		c-1,1-1,2.7,0,3.8c0.2,0.2,0.5,0.4,0.8,0.6c1.9,1,4.3,0.3,6.4,0c4-0.7,8.1-2.1,10.7-5.5c2.3-3.2,2.3-7.6,0-10.8
		c-2.8-3.9-7.8-2.7-11.2-0.3c-3.5,2.6-6.3,6.1-8,10.1c-1.1,2.5,3.1,2.5,4.2,1.3c2.2-2.5,3.4-5.7,3.4-9.1c0-1.7-0.1-3.4-0.3-5
		c-0.1-1.7-0.4-3.4-0.9-5c-1.1-3-4.4-4.6-7.5-3.5c-0.7,0.3-1.4,0.7-2,1.2c-2.7,2.4-3.5,6.6-3.5,10c0.1,4.5,1.8,8.8,3.5,12.9
		c0.5,1,1.7,1.5,2.8,1.2C46.5,320.1,48.3,319.2,47.8,318.1L47.8,318.1z"></path><path class="st1" d="M125.3,313.5l-3.1-14.5c-0.3-1.5-2-8.4,1.5-7.1c3.4,1.2,3.6,6.4,2.8,9.2c-1.1,4.1-3.9,7.5-6.5,10.7l4.5,0.7
		c0.3-2.6,2.1-4.7,4.6-5.2c2.7-0.6,5.5,1.1,7.1,3.2c1.4,1.8,2.9,5.4,1.1,7.4c-0.9,1-2.6,1.2-3.8,1.4c-1.3,0.1-2.7,0-4-0.3
		c-3.2-0.8-5.9-2.7-7.7-5.3l0.3,1v-0.2l-0.4,1l-0.2,0.2l-1.2,0.6c-2.2,0.6-1-0.4-0.8,0.2c0.2,0.5,0.5,1,0.8,1.4c0.5,1,1,2.1,1.4,3.2
		c0.8,2.1,1.5,4.2,2,6.4c0.3,1.1,0.5,2.3,0.7,3.5c0.3,1,0.3,2.1,0,3.1c-0.6,1.3-2.3,1.3-3.5,1c-3.7-1-5.2-5.1-4.9-8.6
		c0.3-4.3,2.9-7.9,5.6-11c1.7-2-1.6-3.4-3.2-2.4c-2.3,1.6-5.2,2.3-8,2c-1,0-2-0.4-2.7-1.2c-0.7-1,0-2.3,0.6-3.1
		c3.2-4.4,9.2-3.6,12,0.8c1.3,2,5.8,0,4.4-2.3c-4.7-7.4-16.4-7-20.9,0.5c-1.1,1.8-1.8,3.9-0.8,5.9c0.9,1.8,2.9,2.7,4.8,3.1
		c4.5,0.9,9.1,0,12.9-2.5l-3.2-2.4c-3.1,3.7-5.9,7.9-6.4,12.8c-0.4,4.7,1.5,9.3,5.8,11.5c3.9,2,10.4,1.4,12.2-3.2
		c0.9-2.3,0.3-5-0.2-7.3c-0.5-2.6-1.3-5.1-2.2-7.5c-0.4-1.1-0.9-2.2-1.4-3.3c-0.4-1.2-1.1-2.2-1.9-3.1c-1.7-1.5-5-1.6-6,0.8
		c-0.7,1.9,2,4.1,3.3,5.1c1.6,1.3,3.4,2.3,5.3,2.9c4.2,1.5,8.8,1.3,12.9-0.6c4.6-2.3,5.1-7.5,3-11.6c-2.3-4.5-7.1-7.2-12.2-6.7
		c-5,0.6-9.5,4.4-10,9.5c-0.1,1,0.8,1.6,1.7,1.8c1.1,0.1,2.1-0.3,2.8-1.1c4.8-5.8,10.7-14.3,6.1-21.8c-2.2-3.6-6.8-4.8-10.4-2.7
		c-3.7,2.2-3.5,6.4-2.8,10.1c1.1,5.3,2.3,10.7,3.4,16c0.5,2.5,5.3,1.1,4.8-1.4L125.3,313.5z"></path><path class="st1" d="M144.9,239.6c0.5,4.1-0.4,8.4,0.4,12.5c0.7,3.6,2.7,6.9,6.3,8.2c3.6,1.4,7.7,0,9.7-3.2c1.7-3.1,1.5-7-0.6-9.9
		c-2.5-3.8-6.6-6.5-10.1-9.4l-2.2,3.7l7.3,0.4c2.4,0.3,4.8,0.4,7.2,0.3c2.3-0.1,4.4-1.4,5.5-3.4c0.8-1.8,1.1-3.8,0.8-5.8
		c-0.4-3.9-2.6-7.8-6.3-9.5c-3.8-1.9-8.5-1.1-11.5,1.9c-3,3.1-3.5,7.5-3.7,11.6l4.8-0.8c-0.4-3.4,0.1-7.1-2.1-10.1
		c-1.9-2.7-5.5-3.6-8.4-2c-1.5,0.8-2.5,2.2-2.9,3.8c-0.3,2,0.5,4,1.2,5.7c1.3,3.3,3.3,6.4,5.7,9c1.3,1.4,4.1,0,4.3-1.7
		c0.2-2.5-2-3.3-4-3.9c-2.4-0.7-4.9-1-7.5-0.9c-4.1,0.4-8.4,2.7-9.9,6.8c-1.4,3.5,0.3,7.4,3.8,8.8c0,0,0.1,0,0.1,0
		c1.9,0.7,4,0.6,5.7-0.5c1-0.6,1.8-1.4,2.4-2.3c0.4-0.7,0.8-1.2,1.4-1.8c0.9-0.6,1.9-1.7,1.3-2.9c-0.7-1-2.1-1.3-3.1-0.6
		c-1.2,0.8-2.3,1.9-3.1,3.1c-0.3,0.4-0.6,0.8-0.9,1.1c-0.2,0.1-0.1,0.1-0.4,0.1c-1.8-0.3-3-2-2.7-3.7c0.5-2,2.2-3.4,4.2-3.7
		c1.6-0.3,3.2-0.2,4.7,0.1c0.8,0.1,1.5,0.3,2.3,0.5c0.3,0.1,0.6,0.2,0.9,0.3c0.6,0.1,0.1,0.5,0.1-0.4l4.3-1.7
		c-1.7-1.9-3.1-3.9-4.2-6.2c-0.5-1.1-1-2.2-1.4-3.4c-0.2-0.6-0.3-1.3-0.4-2c0-0.2,0.2-0.5,0-0.2c0.2-0.2,0.8-0.1,1.2,0.1
		c0.8,0.5,1.4,1.2,1.7,2.1c1,2.4,0.6,5.2,0.9,7.7s4.7,1.4,4.8-0.8c0.1-2.9,0.2-6.8,2.4-9c2.4-2.4,6.4-0.4,8,2c1,1.6,1.6,3.4,1.6,5.3
		c0.1,1.1,0.1,2.8-1.2,2.9c-2.3,0.1-4.7,0-7-0.3l-7.3-0.4c-1.6-0.1-3.8,2.4-2.2,3.7s3.6,2.9,5.3,4.4c1.5,1.1,2.8,2.5,4,3.9
		c1,1.2,1.5,2.8,1.4,4.3c0,1.1-0.4,2.5-1.5,2.9c-1.3,0.2-2.6-0.1-3.5-1c-1.3-1.1-2.2-2.7-2.5-4.4c-1-4.2,0-8.6-0.5-12.9
		C149.3,235.6,144.6,237.1,144.9,239.6L144.9,239.6z"></path><path class="st1" d="M97.1,195.5c-3.8-0.2-5.7,3.9-6.9,6.9c-1.4,3.3-2.7,7.3-2.5,10.9c0,1.5,0.6,2.8,1.6,3.9
		c1.3,1.4,3.5,2.3,5.3,1.6c1.5-0.6,2.6-2.4,3.5-3.7c3-5,3.7-11,2.1-16.5l-4.3-0.6c2.9,4,5.8,8.1,9.9,11c3.7,2.7,9.3,5.3,13.7,2.4
		c3.3-2.3,4.7-6.4,3.5-10.2c-1.5-4.3-5.9-7.4-10.3-8.2c-5.9-1.1-10.5,2.4-15.5,5l4,2.8c2.4-3.5,4.2-7.3,5.5-11.3
		c0.6-1.8,1.3-3.9,0.3-5.7c-1-1.6-2.6-2.7-4.5-3.1c-3.7-0.8-6.1,1.7-6.9,5.1c-0.7,4.1,0,8.3,2,11.9l4,0.1c-1.6-2.4-3.6-4.6-6.5-5.5
		c-2.2-0.6-5.2-0.2-5.9,2.4s1.8,4.9,4.2,5.5c3,0.6,6,0.6,9-0.1c1.1-0.2,0.7-1.4,0.2-2.1c-0.8-0.9-2-1.4-3.2-1.3
		c-1.5,0.3-3.1,0.5-4.7,0.4c-0.5,0-1.4-0.3-1.9-0.2c-0.6-0.1-0.3,0.1,0.9,0.8l-0.1-0.3c0.1-0.2,0-0.4,0.1-0.6
		c0.2-0.9,1.1-1.5,2.1-1.3c0.8,0.3,1.4,1.4,1.9,2.1c0.7,1,1.8,1.7,3,1.8c1.1,0,1.5-0.7,1-1.7c-1.4-2.7-2-5.7-1.7-8.8
		c0.1-1.2,0.5-2.5,1.1-3.5c0.3-0.5,0.7-0.9,1.2-1.2c0.4-0.1,0.8-0.2,1.2-0.3c0,0-0.5-0.3-0.5-0.4s-0.2,1.8-0.2,1.9
		c-0.4,1.5-0.9,3-1.5,4.4c-1.2,2.9-2.6,5.7-4.4,8.2c-0.5,0.8,0.6,1.9,1.2,2.3c0.8,0.7,1.9,0.9,2.8,0.6c3.4-1.7,6.8-4.4,10.7-4.8
		c2.7-0.4,5.3,0.9,6.7,3.3c1.1,2.7,0.5,5.8-1.5,7.9c-2.5,2.6-5.8,1.8-8.5-0.1c-3.4-2.4-5.9-5.9-8.3-9.3c-0.6-0.9-1.6-1.6-2.7-1.8
		c-0.8-0.1-1.8,0.2-1.4,1.2c1,3.3,1,6.7,0.2,10c-0.4,1.6-1.1,3.2-1.9,4.7c-0.4,0.7-0.9,1.4-1.4,2.1c-0.3,0.4-0.6,0.7-0.9,1l-0.3,0.2
		c-0.8,0.3-0.4,0.7,1.4,1.1c0-0.4-0.4-1-0.4-1.4c0-0.9,0-1.8,0.2-2.6c0.2-1.9,0.7-3.8,1.3-5.6c0.6-1.8,1.4-3.5,2.4-5.2
		c0.6-1.1,1.7-2.9,3.2-2.9c1,0.1,1.5-0.8,1-1.7C99.5,196.3,98.4,195.6,97.1,195.5L97.1,195.5z"></path><path class="st1" d="M137.8,381c-2.8-7.9-3.2-17.1,2-24.2c1-1.4,2.6-3.4,4.3-4c0.6-0.2,0.6,0.2,0.2-0.9c0.1,0.2,0.2,0.3,0.2,0.5
		c0.1,0.3,0.2,0.6,0.4,1c0.3,0.8,0.5,1.6,0.7,2.5c0.7,3.5,0.6,7.2-0.3,10.7c-1,4-2.9,7.6-5.7,10.6l2.7,4.1c0.9-3.9,2.7-7.6,5.3-10.6
		c2.1-2.5,5.1-5.8,8.8-4.9c0.5,0.1,1.1,0.7,1.5,0.7c-0.5-1.2-0.7-1.5-0.6-0.8c0,0.3,0,0.5-0.1,0.8c-0.1,0.4-0.2,0.7-0.4,1
		c-1.1,1.6-2.5,3-4.2,4c-3.3,2.2-7,3.7-10.9,4.4c-0.8,0.1,1.1,4.6,2.6,4.3c3.7-0.7,7.2-2,10.3-4c2.8-1.8,6.2-4.4,5.5-8.1
		c-0.6-3.2-3.3-6.4-6.7-6.8s-6.3,2.4-8.3,4.9c-2.8,3.2-4.8,7-5.8,11.2c0,1,0.3,1.9,0.9,2.7c0.2,0.3,1.4,1.9,1.8,1.4
		c5.9-6.5,8.2-15.5,6.1-24.1c-0.5-2.5-1.5-4.9-2.9-7c-0.5-1-1.4-1.7-2.4-2.1c-1.2-0.3-2.3,0.6-3.2,1.4c-3.4,3.1-5.7,7.3-6.5,11.9
		c-1.1,6,0,12.2,2.1,17.9c0.3,0.9,1.1,2.4,2,2.8S138,381.5,137.8,381L137.8,381z"></path><path class="st1" d="M67.5,369.8c-0.4-2.8-0.4-5.7,0-8.5c0.2-1.4,0.5-2.9,0.9-4.3c0.1-0.5,0.3-1,0.6-1.5c0.1-0.2,0.2-0.4,0.4-0.5
		c0.2-0.1,0.3-0.2,0.5-0.3c0,0.2-1-0.4-1-0.4s-0.1-0.2,0,0.1c0.2,0.5,0.4,1,0.5,1.6c0.2,1,0.3,2,0.3,3c0,2-0.5,3.9-1.3,5.7
		c-1,2.1-2.6,3.9-4.5,5.2c-1.1,0.7-0.5,2.2,0.2,2.9c0.8,0.9,2.2,1.2,3.3,0.5c4.7-3.2,7.3-8.7,7-14.3c-0.1-3-1-7.1-4.2-8.3
		c-1.7-0.6-3.7-0.2-4.9,1.2c-1.2,1.3-1.6,3.1-1.9,4.8c-0.9,4.1-1.1,8.2-0.6,12.3c0.2,1.3,1.2,2.2,2.5,2.4
		C66.3,371.7,67.6,371.1,67.5,369.8L67.5,369.8z"></path><path class="st1" d="M47.6,251.6c0.7,4,2.4,7.7,5.1,10.8c2.8,3.4,6.4,6.2,10.5,8c1.8,0.8,3.7,1.3,5.7,1.5c0.7,0.1,1.8,0.2,2.3-0.4
		s0-1.8-0.4-2.4c-2.3-3.9-5.6-7.1-9.5-9.3c-4.1-2.2-8.4-3.8-12.9-4.8l3.5,3.5c4.2-1.6,8.7-0.2,12.9-1.1c3.5-0.8,6.6-3.1,8.2-6.4
		c0.9-1.5,1.3-3.3,1.2-5c-0.2-2.2-2.3-4-4-5.2c-3.2-2.2-7.6-1.4-10.8,0.4c-4.1,2.3-6.8,6.4-8.9,10.4c-0.4,0.9,3.3,3.9,3.6,3.4
		c1.6-2.2,2.2-5.2,0.5-7.6c-1-1.5-2.3-2.7-3.9-3.5c-1.3-0.5-2.5,0.2-3.3,1.1c-1.6,1.7-2.4,4-2.2,6.4c0.4,2.7,1.8,5.1,3.9,6.8
		c0.2,0.2,1.8,1.8,2.2,1.4s-1.3-2-1.5-2.1c0.4,0.3,0-0.1-0.1-0.3c-0.2-0.3-0.3-0.7-0.4-1c-0.2-0.7-0.3-1.5-0.3-2.3
		c0-1.5,0.4-3,1.2-4.3c0.4-0.6,0.9-1.1,1.4-1.6c0.5-0.4,1-0.6,1.6-0.8h0.3c-1.5-1.9-2-2.4-1.6-1.3c0.3,2-0.1,4-1.3,5.6L54,255
		c3.1-6,8.4-12.9,16-12c0.4,0,0.8,0.1,1.2,0.2c0.2,0.1,0.4,0.2,0.6,0.2l0.2,0.1l-1.6-1.4c-0.1,0.2,0.1,0.8,0.2,1.1
		c0,0.5-0.1,1-0.2,1.5c-0.3,1.5-1,3-1.9,4.2c-1.8,2.7-4.7,4.5-7.9,5.1c-4.2,0.7-8.4-0.5-12.5,1c-0.3,0.1,1.2,1.8,1.2,1.8
		c0.6,0.7,1.4,1.3,2.2,1.6c3,0.8,6,1.7,8.8,2.9c2.2,0.9,4.7,2,6.1,4c0.4,0.5,0.8,1.1,1,1.7c0.3,1-0.4,1.3-1.3,1.3
		c-1.5,0-3-0.3-4.5-0.8c-2.5-0.7-4.8-2-6.6-3.9c-2.2-2.5-3.6-5.7-4.1-9c-0.1-0.9-1.3-1.8-2-2.4C49,252.2,47.4,251.1,47.6,251.6
		L47.6,251.6z"></path><path class="st0" d="M231.6,101.2c-1.1-3,0.4-5.9,2.3-8.2c2.1-2.4,4.4-4.6,6.9-6.6c5-3.9,10.3-7.3,15.9-10.2
		c5.5-3,11.3-5.5,17.5-6.3c5.5-0.8,11.2,0,16.3,2.4c5,2.3,9,6.5,11,11.7c1.8,5,2.3,10.4,1.3,15.7c-0.5,2.7-1.2,5.3-2.3,7.8
		c-0.4,1.2-1,2.3-1.7,3.3c-0.2,0.3-0.5,0.6-0.8,0.9c-1,0.9,0.3-0.6,1-0.2c-0.2,0-0.3,0-0.5,0c-0.4-0.1-0.8-0.2-1.1-0.3
		c-0.9-0.4-1.5-1.3-1.5-2.3c0.1-1.4,1.4-2.5,2.5-3.2c2.2-1.3,4.7-2,7.2-2.1c13-1,24.2,9.6,24.8,22.4c0,0.5,4.7-0.5,4.7-1.8
		c-0.3-6.3-3.1-12.2-7.7-16.5c-4.8-4.4-11.1-6.6-17.6-6.3c-3.5,0.2-6.9,0.9-10.2,2.2c-1.7,0.7-3.4,1.5-4.9,2.5
		c-1.4,0.8-2.6,2-3.3,3.4c-1,2.8,2,4.3,4.4,4c3.5-0.3,6.6-2.4,8.3-5.5c5.5-10.4,5.6-25.8-3.6-34.1c-10.9-9.8-26.9-6.9-39-1.6
		c-6.9,3-13.5,6.7-19.7,11.1c-3,2.1-5.9,4.4-8.6,6.8c-2.5,2.3-5.3,4.9-6.3,8.2c-0.5,1.4-0.5,3,0,4.5
		C227.3,103.8,232,102.1,231.6,101.2L231.6,101.2z"></path><path class="st0" d="M336.6,136.2c-0.3,1.8,0,3.7,0.9,5.4c0.2,0.3,0.7,0.4,1,0.3c1.2-0.2,2.3-0.7,3.1-1.6c0.2-0.3,0.5-0.7,0.3-1
		c-0.4-0.7-0.6-1.5-0.8-2.3l0,0.3c-0.2-0.9-0.2-1.9,0-2.8c0.1-0.4-0.3-0.6-0.6-0.6c-0.5,0-1.1,0-1.5,0.3c-0.6,0.2-1.2,0.6-1.7,1
		C337,135.4,336.8,135.8,336.6,136.2L336.6,136.2z"></path></g></svg>