<?xml version="1.0" encoding="UTF-8"?>
<!DOCTYPE svg PUBLIC "-//W3C//DTD SVG 1.1//EN" "http://www.w3.org/Graphics/SVG/1.1/DTD/svg11.dtd">
<svg xmlns="http://www.w3.org/2000/svg" version="1.1" width="500px" height="500px" style="shape-rendering:geometricPrecision; text-rendering:geometricPrecision; image-rendering:optimizeQuality; fill-rule:evenodd; clip-rule:evenodd" xmlns:xlink="http://www.w3.org/1999/xlink">
<g><path style="opacity:0.852" fill="#58be4c" d="M 269.5,57.5 C 271.977,57.0508 273.977,57.7175 275.5,59.5C 272.961,64.7451 270.294,69.9117 267.5,75C 270.098,74.5783 272.764,74.5783 275.5,75C 276.022,75.5613 276.355,76.228 276.5,77C 274,83.1667 271.5,89.3333 269,95.5C 266.695,96.9388 264.862,96.4388 263.5,94C 265.064,89.8104 266.731,85.6437 268.5,81.5C 265.943,81.2178 263.277,81.0511 260.5,81C 259.978,80.4387 259.645,79.772 259.5,79C 262.982,71.8717 266.315,64.705 269.5,57.5 Z"/></g>
<g><path style="opacity:0.829" fill="#58be4c" d="M 303.5,61.5 C 306.342,61.5283 307.509,62.8617 307,65.5C 302.833,69.6667 298.667,73.8333 294.5,78C 297.414,78.1334 299.747,79.3001 301.5,81.5C 295.069,85.0966 289.736,89.93 285.5,96C 281.5,96.3554 280.333,94.8554 282,91.5C 285.201,87.9636 288.701,84.7969 292.5,82C 289.125,80.9705 287.958,78.8039 289,75.5C 293.729,70.6025 298.562,65.9359 303.5,61.5 Z"/></g>
<g><path style="opacity:0.925" fill="#010106" d="M 170.5,267.5 C 178.172,269.15 185.838,271.15 193.5,273.5C 203.527,275.591 211.694,280.591 218,288.5C 219.098,292.505 218.265,296.005 215.5,299C 210.324,302.588 204.657,305.088 198.5,306.5C 195.569,306.15 193.569,304.65 192.5,302C 192.645,301.228 192.978,300.561 193.5,300C 199.691,299.117 204.691,296.284 208.5,291.5C 204.649,285.569 199.316,281.569 192.5,279.5C 184.67,277.067 176.67,275.401 168.5,274.5C 162.87,273.708 157.203,273.375 151.5,273.5C 153.914,282.251 159.247,288.584 167.5,292.5C 168.833,293.833 168.833,295.167 167.5,296.5C 163.039,297.464 159.039,296.297 155.5,293C 148.874,288.051 144.208,281.717 141.5,274C 136.472,273.412 131.472,273.578 126.5,274.5C 112.464,275.841 99.7978,280.507 88.5,288.5C 77.8687,295.738 77.8687,303.071 88.5,310.5C 89.881,312.274 89.5477,313.774 87.5,315C 85.1152,315.556 82.7819,315.39 80.5,314.5C 68.4037,305.8 67.4037,295.967 77.5,285C 80.8647,282.318 84.5313,280.151 88.5,278.5C 100.627,272.968 113.294,269.301 126.5,267.5C 131.13,266.771 135.797,266.437 140.5,266.5C 141.921,253.399 146.754,241.733 155,231.5C 167.434,217.643 180.101,203.976 193,190.5C 197.684,185.135 201.35,179.135 204,172.5C 205.02,168.29 204.02,164.623 201,161.5C 194.45,155.949 187.617,150.783 180.5,146C 165.523,130.224 165.857,114.891 181.5,100C 194.089,92.5451 207.756,88.8784 222.5,89C 229.359,82.8747 237.359,80.8747 246.5,83C 248.602,84.7328 248.935,86.7328 247.5,89C 257.701,92.6359 257.701,93.8025 247.5,92.5C 247.714,94.1439 247.38,95.6439 246.5,97C 249.249,97.3638 251.249,98.6971 252.5,101C 252.167,101.5 251.833,102 251.5,102.5C 249.929,101.691 248.262,101.357 246.5,101.5C 246.932,104.982 245.599,107.315 242.5,108.5C 234.058,107.817 227.391,104.151 222.5,97.5C 207.367,95.8255 194.533,100.492 184,111.5C 177.829,124.273 179.995,135.439 190.5,145C 200.639,150.14 208.472,157.64 214,167.5C 214.68,172.804 213.68,177.804 211,182.5C 199.449,197.724 186.782,212.057 173,225.5C 165.437,233.624 159.103,242.624 154,252.5C 152.203,257.023 151.036,261.69 150.5,266.5C 157.167,266.833 163.833,267.167 170.5,267.5 Z M 168.5,274.5 C 168.299,280.509 167.966,286.509 167.5,292.5C 159.247,288.584 153.914,282.251 151.5,273.5C 157.203,273.375 162.87,273.708 168.5,274.5 Z"/></g>
<g><path style="opacity:1" fill="#f6f6f6" d="M 231.5,87.5 C 235.167,87.5 238.833,87.5 242.5,87.5C 242.111,92.504 241.611,97.504 241,102.5C 240.586,102.957 240.086,103.291 239.5,103.5C 235.265,102.153 231.432,100.153 228,97.5C 226.581,93.0823 227.748,89.7489 231.5,87.5 Z"/></g>
<g><path style="opacity:0.921" fill="#020207" d="M 292.5,116.5 C 289.732,113.614 286.399,112.114 282.5,112C 283.126,112.75 283.626,113.584 284,114.5C 285.441,125.845 282.608,136.011 275.5,145C 281.453,146.126 286.786,144.793 291.5,141C 293.859,140.792 296.026,140.626 298,140.5C 300.335,137.15 299.668,134.484 296,132.5C 295.711,127.387 294.878,122.387 293.5,117.5C 295.136,118.749 296.303,120.416 297,122.5C 297.589,126.601 298.755,130.434 300.5,134C 330.953,139.134 355.786,153.634 375,177.5C 380.585,188.99 378.085,198.49 367.5,206C 347.809,217.897 326.476,224.563 303.5,226C 299.534,223.618 299.534,221.285 303.5,219C 322.022,215.954 339.689,210.287 356.5,202C 362.812,199.361 366.479,194.694 367.5,188C 365.727,181.459 362.393,175.792 357.5,171C 341.846,156.921 323.68,147.421 303,142.5C 295.724,146.704 287.724,149.37 279,150.5C 273.107,151.116 269.107,148.782 267,143.5C 264.434,132.993 265.767,122.993 271,113.5C 273.127,110.868 275.46,108.534 278,106.5C 284.426,107.795 289.26,111.128 292.5,116.5 Z"/></g>
<g><path style="opacity:1" fill="#f3f3f3" d="M 292.5,116.5 C 293.167,116.5 293.5,116.833 293.5,117.5C 294.878,122.387 295.711,127.387 296,132.5C 299.668,134.484 300.335,137.15 298,140.5C 296.026,140.626 293.859,140.792 291.5,141C 286.786,144.793 281.453,146.126 275.5,145C 282.608,136.011 285.441,125.845 284,114.5C 283.626,113.584 283.126,112.75 282.5,112C 286.399,112.114 289.732,113.614 292.5,116.5 Z"/></g>
<g><path style="opacity:1" fill="#e8e8e8" d="M 277.5,113.5 C 278.496,113.414 279.329,113.748 280,114.5C 280.669,125.825 277.336,135.825 270,144.5C 267.441,132.804 269.941,122.471 277.5,113.5 Z"/></g>
<g><path style="opacity:0.852" fill="#59bd4c" d="M 236.5,116.5 C 238.167,116.5 239.833,116.5 241.5,116.5C 241.67,117.822 241.337,118.989 240.5,120C 237.328,121.752 234.328,123.752 231.5,126C 233.888,126.303 236.055,127.137 238,128.5C 238.315,129.908 237.982,131.241 237,132.5C 232.167,137.333 227.333,142.167 222.5,147C 221.207,147.49 219.873,147.657 218.5,147.5C 218.343,146.127 218.51,144.793 219,143.5C 223.221,139.279 227.387,135.113 231.5,131C 228.5,130.667 225.5,130.333 222.5,130C 221.549,129.282 221.383,128.449 222,127.5C 226.632,123.449 231.466,119.782 236.5,116.5 Z"/></g>
<g><path style="opacity:1" fill="#0a0a0f" d="M 275.5,119.5 C 277.807,120.405 277.807,121.738 275.5,123.5C 274.708,122.3 274.708,120.967 275.5,119.5 Z"/></g>
<g><path style="opacity:1" fill="#000005" d="M 272.5,127.5 C 273.497,127.47 274.164,127.97 274.5,129C 274.122,130.635 273.456,132.135 272.5,133.5C 271.769,131.599 271.769,129.599 272.5,127.5 Z"/></g>
<g><path style="opacity:0.854" fill="#58be4c" d="M 248.5,130.5 C 250.665,130.116 252.332,130.783 253.5,132.5C 251.629,137.074 249.629,141.574 247.5,146C 250.167,146.333 252.833,146.667 255.5,147C 256.059,147.725 256.392,148.558 256.5,149.5C 255.003,153.162 253.503,156.828 252,160.5C 250.301,161.406 248.467,161.739 246.5,161.5C 247.114,157.433 248.448,153.6 250.5,150C 247.833,149.667 245.167,149.333 242.5,149C 241.978,148.439 241.645,147.772 241.5,147C 243.71,141.416 246.044,135.916 248.5,130.5 Z"/></g>
<g><path style="opacity:0.959" fill="#58bd4b" d="M 321.5,284.5 C 314.804,284.609 308.137,284.276 301.5,283.5C 299.712,262.631 292.878,243.631 281,226.5C 270.63,213.626 257.464,209.793 241.5,215C 225.005,221.158 212.505,231.991 204,247.5C 199.655,255.853 196.155,264.52 193.5,273.5C 185.838,271.15 178.172,269.15 170.5,267.5C 174.163,246.339 183.496,228.172 198.5,213C 216.587,197.25 236.92,193.584 259.5,202C 295.528,217.873 316.195,245.373 321.5,284.5 Z"/></g>
<g><path style="opacity:0.977" fill="#58bd4b" d="M 126.5,267.5 C 113.294,269.301 100.627,272.968 88.5,278.5C 88.6658,273.821 88.4992,269.155 88,264.5C 75.1667,281.333 62.3333,298.167 49.5,315C 50.7659,315.309 51.9326,315.809 53,316.5C 62.1076,315.698 71.2743,315.032 80.5,314.5C 82.7819,315.39 85.1152,315.556 87.5,315C 89.5477,313.774 89.881,312.274 88.5,310.5C 88.5,303.167 88.5,295.833 88.5,288.5C 99.7978,280.507 112.464,275.841 126.5,274.5C 126.635,288.178 127.135,301.845 128,315.5C 136.749,314.206 145.583,313.706 154.5,314C 155,314.5 155.5,315 156,315.5C 156.5,323.159 156.666,330.826 156.5,338.5C 148.859,337.593 141.193,336.927 133.5,336.5C 132.167,336.167 130.833,335.833 129.5,335.5C 128.606,347.667 128.606,360 129.5,372.5C 125.685,374.295 121.685,375.795 117.5,377C 107.168,378.25 96.8349,379.417 86.5,380.5C 86.5717,365.493 86.905,350.493 87.5,335.5C 66.1641,335.667 44.8307,335.5 23.5,335C 22.3333,334.5 21.5,333.667 21,332.5C 20.3333,328.5 20.3333,324.5 21,320.5C 48.1088,279.726 75.6088,239.226 103.5,199C 109.604,199.086 115.604,200.086 121.5,202C 122.333,202.833 123.167,203.667 124,204.5C 124.73,225.516 125.563,246.516 126.5,267.5 Z M 88.5,278.5 C 84.5313,280.151 80.8647,282.318 77.5,285C 67.4037,295.967 68.4037,305.8 80.5,314.5C 71.2743,315.032 62.1076,315.698 53,316.5C 51.9326,315.809 50.7659,315.309 49.5,315C 62.3333,298.167 75.1667,281.333 88,264.5C 88.4992,269.155 88.6658,273.821 88.5,278.5 Z M 88.5,288.5 C 88.5,295.833 88.5,303.167 88.5,310.5C 77.8687,303.071 77.8687,295.738 88.5,288.5 Z"/></g>
<g><path style="opacity:0.981" fill="#58bd4b" d="M 443.5,280.5 C 442.305,280.866 441.639,281.699 441.5,283C 442.044,284.585 442.711,286.085 443.5,287.5C 443.575,297.178 443.908,306.844 444.5,316.5C 450.869,316.653 457.203,316.32 463.5,315.5C 462.118,318.394 460.118,320.894 457.5,323C 440.82,336.845 422.153,347.345 401.5,354.5C 401.557,348.149 401.89,341.815 402.5,335.5C 380.497,335.667 358.497,335.5 336.5,335C 335.371,330.921 335.204,326.755 336,322.5C 343.104,311.946 349.937,301.28 356.5,290.5C 367.882,288.424 379.215,286.09 390.5,283.5C 381.81,294.369 373.477,305.536 365.5,317C 377.858,317.679 390.191,317.346 402.5,316C 403.488,304.247 403.821,292.414 403.5,280.5C 404.275,278.612 404.275,276.612 403.5,274.5C 403.663,272.143 403.497,269.81 403,267.5C 402.051,269.093 400.885,270.426 399.5,271.5C 387.697,275.041 376.031,277.708 364.5,279.5C 382.12,253.101 400.12,226.935 418.5,201C 424.955,200.956 431.289,201.956 437.5,204C 439.333,204.5 440.5,205.667 441,207.5C 441.646,231.846 442.48,256.179 443.5,280.5 Z M 403.5,274.5 C 401.77,273.974 400.436,272.974 399.5,271.5C 400.885,270.426 402.051,269.093 403,267.5C 403.497,269.81 403.663,272.143 403.5,274.5 Z"/></g>
<g><path style="opacity:0.93" fill="#010306" d="M 301.5,283.5 C 308.137,284.276 314.804,284.609 321.5,284.5C 336.051,284.346 350.384,282.679 364.5,279.5C 376.031,277.708 387.697,275.041 399.5,271.5C 400.436,272.974 401.77,273.974 403.5,274.5C 404.275,276.612 404.275,278.612 403.5,280.5C 399.207,281.656 394.874,282.656 390.5,283.5C 379.215,286.09 367.882,288.424 356.5,290.5C 345.562,292.059 334.562,293.059 323.5,293.5C 316.266,292.705 308.933,291.705 301.5,290.5C 278.791,285.791 265.124,272.124 260.5,249.5C 261.394,238.774 267.061,232.941 277.5,232C 283.415,237.335 282.415,241.002 274.5,243C 268.463,249.133 266.963,256.3 270,264.5C 271.717,269.549 274.884,273.382 279.5,276C 286.497,279.61 293.83,282.11 301.5,283.5 Z"/></g>
<g><path style="opacity:0.963" fill="#58bd4b" d="M 168.5,274.5 C 176.67,275.401 184.67,277.067 192.5,279.5C 185.866,312.917 191.7,343.917 210,372.5C 219.655,385.036 232.155,389.203 247.5,385C 261.754,380.751 273.254,372.584 282,360.5C 295.968,339.3 302.468,315.967 301.5,290.5C 308.933,291.705 316.266,292.705 323.5,293.5C 326.171,323.819 319.004,351.486 302,376.5C 279.097,403.747 251.931,408.913 220.5,392C 196.854,378.015 181.02,357.848 173,331.5C 170.002,320.013 168.169,308.346 167.5,296.5C 168.833,295.167 168.833,293.833 167.5,292.5C 167.966,286.509 168.299,280.509 168.5,274.5 Z"/></g>
<g><path style="opacity:0.949" fill="#010205" d="M 443.5,280.5 C 459.855,279.258 471.688,285.925 479,300.5C 480.113,307.993 478.279,314.66 473.5,320.5C 467.439,326.566 461.106,332.233 454.5,337.5C 451.28,339.603 448.28,341.936 445.5,344.5C 431.08,352.044 416.413,359.044 401.5,365.5C 394.621,367.069 388.454,370.069 383,374.5C 382.517,375.448 382.351,376.448 382.5,377.5C 388.43,378.265 393.597,380.599 398,384.5C 400.052,386.52 399.885,388.187 397.5,389.5C 389.578,387.79 382.745,384.123 377,378.5C 373.23,372.954 374.063,368.121 379.5,364C 386.54,360.153 393.874,356.987 401.5,354.5C 422.153,347.345 440.82,336.845 457.5,323C 460.118,320.894 462.118,318.394 463.5,315.5C 477.999,300.527 474.833,291.527 454,288.5C 450.276,290.012 446.776,289.679 443.5,287.5C 442.711,286.085 442.044,284.585 441.5,283C 441.639,281.699 442.305,280.866 443.5,280.5 Z"/></g>
<g><path style="opacity:0.912" fill="#56b749" d="M 473.5,320.5 C 473.808,326.425 473.475,332.259 472.5,338C 466.496,338.3 460.496,338.134 454.5,337.5C 461.106,332.233 467.439,326.566 473.5,320.5 Z"/></g>
<g><path style="opacity:0.926" fill="#010206" d="M 129.5,335.5 C 130.833,335.833 132.167,336.167 133.5,336.5C 141.323,343.479 145.989,352.146 147.5,362.5C 146.522,373.811 140.522,380.811 129.5,383.5C 115.14,387.132 100.473,389.465 85.5,390.5C 74.3952,392.111 63.7285,395.277 53.5,400C 46.5518,403.779 41.5518,409.279 38.5,416.5C 38.6082,417.442 38.9415,418.275 39.5,419C 54.4695,427.379 70.4695,432.879 87.5,435.5C 89.6582,438.148 90.9916,441.148 91.5,444.5C 75.3643,442.177 60.0309,437.343 45.5,430C 27.6508,415.868 28.3174,402.868 47.5,391C 59.8616,385.159 72.8616,381.659 86.5,380.5C 96.8349,379.417 107.168,378.25 117.5,377C 121.685,375.795 125.685,374.295 129.5,372.5C 138.886,367.613 142.719,359.947 141,349.5C 134.755,346.76 130.922,342.094 129.5,335.5 Z"/></g>
<g><path style="opacity:0.971" fill="#58bd4b" d="M 445.5,344.5 C 445.412,358.18 445.745,371.847 446.5,385.5C 445.375,386.652 445.375,387.652 446.5,388.5C 446.807,394.093 446.473,399.593 445.5,405C 430.788,405.816 416.122,405.65 401.5,404.5C 400.313,391.497 400.313,378.497 401.5,365.5C 416.413,359.044 431.08,352.044 445.5,344.5 Z"/></g>
<g><path style="opacity:0.852" fill="#000005" d="M 446.5,388.5 C 445.375,387.652 445.375,386.652 446.5,385.5C 458.228,382.404 468.561,385.07 477.5,393.5C 482.972,401.478 482.305,408.978 475.5,416C 463.738,424.37 450.738,430.037 436.5,433C 418.034,437.052 399.367,439.052 380.5,439C 382.377,436.894 384.71,435.561 387.5,435C 412.426,434.44 436.759,430.44 460.5,423C 470.871,417.886 473.705,410.052 469,399.5C 462.99,392.88 455.49,389.214 446.5,388.5 Z"/></g>
<g><path style="opacity:0.965" fill="#58bd4b" d="M 129.5,383.5 C 130.089,390.485 130.422,397.485 130.5,404.5C 116.163,404.667 101.829,404.5 87.5,404C 87,403.5 86.5,403 86,402.5C 85.5012,398.514 85.3345,394.514 85.5,390.5C 100.473,389.465 115.14,387.132 129.5,383.5 Z"/></g>
</svg>
