<svg xmlns="http://www.w3.org/2000/svg" viewBox="0 0 500 500" xmlns:v="https://vecta.io/nano"><style><![CDATA[.D{fill:#fff}.E{fill:#222}.F{fill:#8dc572}]]></style><g class="F"><path d="M349.5 439.9s2.5-61 8.2-61 41.3 31.5 41.7 37.2-48.6 35.2-49.9 23.8z"/><path d="M353.5 443c-3.3 0-4.2-1.6-4.4-3.1v-.1c0-.1.6-15.4 2-30.5 2.7-30.9 5.6-30.9 6.7-30.9 6.3 0 41.8 31.7 42.2 37.7.4 5.1-32.4 25.7-45.5 26.8-.4.1-.7.1-1 .1zm-3.4-3.1c.1.6.3 2.5 4.4 2.1 12.9-1.1 44.8-21.8 44.5-25.8-.4-5.5-35.5-36.8-41.2-36.8-3.7 0-6.7 35.3-7.7 60.5z"/></g><path d="M371.7 415.7l-4.1-14.2c-.2-.6-1.5-1.1-2.1-1.4-.5-.3-1.1-.5-1.6-.7-.1 0-.8-.2-.8-.1l4.1 14.2c.2.6 1.5 1.1 2.1 1.4.5.3 1.1.5 1.6.7.1 0 .9.2.8.1zm-2.1 5.4l.5.7c.2.2.3.3.5.4.2.2.5.3.8.4l.9.3c.3.1.6.1.9.2h.5c.3 0 .5-.1.7-.2l.1-.2c0-.2 0-.4-.2-.5l-.5-.7c-.2-.2-.3-.3-.5-.4-.2-.2-.5-.3-.8-.4l-.9-.3c-.3-.1-.6-.1-.9-.2h-.5c-.3 0-.5.1-.7.2l-.1.2c0 .2.1.4.2.5z" class="D"/><path d="M85.3 196.1s14.6 10.5 15.3 8.3S96 149 90 147.1s-50.8 6.1-55.6 10.9 7 44.5 9.9 46.4 41-8.3 41-8.3z" class="F"/><path d="M74.3 170.4c-1.7-2.9-5.2-2.7-8-2.1-1.6.3-3.1 1.1-4.3 2.2-1.1 1.4-1.8 3.2-1.9 5-.1 1.6.6 3.2 2 4 1.6.9 4 .3 5.6-.2 3.6-1.2 5.4-5.1 6.8-8.3l-4.8.9c-.6 3.1-1.1 7.9 3 8.9 1.9.3 3.9.1 5.7-.7 1.6-.4 2.9-1.4 3.8-2.7 1.9-3.1.9-7.2-.5-10.2s-3.9-6.1-7.3-7c-3.7-1-8.2.3-11.7 1.7-3.3 1.2-6 3.4-8 6.2-1.8 2.8-2.5 6.3-1.7 9.5.9 3.4 3.6 6.2 6.3 8.2 2.9 2.1 6.4 3.1 10 2.9 3.5-.1 8-1 10.1-4.1.4-.6-1.7-.3-1.8-.2-.7.1-2.4.3-2.9 1-.5.8-1.2 1.4-2 1.9.3-.2.5-.1-.2-.1-.5 0-1.1 0-1.6-.1-2.4-.3-4.7-1.1-6.7-2.6-4.5-3.2-7.6-8.2-6.2-13.8.7-2.6 2.1-4.8 4.1-6.5 1.7-1.6 3.8-2.6 6.1-2.9 5.7-.3 9.5 7 10.1 11.8.3 1.5.1 3.1-.6 4.5-.3.6-.7 1.1-1.2 1.6-.2.2-.6.3-.8.5 1.7-.2 2.2-.3 1.5-.4-.2 0-.4-.1-.5-.1-3.4-1.2-2.7-5.8-2.1-8.5 0-.2-4.4.1-4.8.9-.9 2.1-2.1 4.1-3.5 6-.3.4-.9.7-1.1 1.1 2.3-.1 3-.3 1.8-.6l-.6-.3c-.8-.7-1.3-1.7-1.4-2.7-.1-1.3.2-2.6.7-3.8.2-.5.5-1 .8-1.5.3-.4.8-.7 1-1-.4.7-2.3.1-1 .3.4.1.8.2 1.2.4.8.4 1.4.9 1.8 1.7.5 1.4 5-.5 4.8-.8z" class="D"/><path d="M381.2 125.5s-13.6 12-14.7 10-2.4-53.2 3.4-55.8 53-1.5 58.6 2.4-1.3 43.2-4.1 45.4c-2.7 2.2-43.2-2-43.2-2z" class="F"/><path d="m414.6 107.5 1.1-1c.3-.3.6-.6.7-1 .3-.4.2-1-.2-1.3-.1-.1-.2-.1-.4-.2-.4-.2-.8-.3-1.2-.2l-1.1.1c-.8.1-1.7.3-2.5.7l-1 .4c-.7.3-1.3.8-1.9 1.3l-1.1 1c-.3.3-.6.6-.7 1-.3.5-.1 1.1.3 1.4.1 0 .2.1.2.1.4.2.8.3 1.2.2l1.1-.1c.8-.1 1.7-.3 2.5-.7l1.2-.6c.6-.2 1.3-.6 1.8-1.1zM386.5 106.9l.2-.2-.9.8c.2-.1.3-.2.5-.3l-1.1.5c.1-.1.2-.1.3-.1.6-.2 1.1-.5 1.6-.9.5-.3.9-.8 1.1-1.3.5-1.1.5-2.3.1-3.4l-.6-1c-.5-.6-1.2-1.2-2-1.5l-1.3-.4c-.9-.1-1.8-.1-2.6.2l-.3.1-1.2.5h-.1l-.1.1c-.1 0-.2.1-.3.2-.3.3-.6.5-1 .8h-.1l-.1.1c-.4.4-.7.9-.9 1.5-.2.5-.3 1.2-.2 1.8.1.6.3 1.2.6 1.6.3.5.7 1 1.2 1.4l1.1.6c.8.4 1.7.5 2.6.4l1.2-.2c1-.3 1.6-.8 2.3-1.3zM398.7 104.9l1.1-1c.4-.3.7-.6 1-1 .2-.2.4-.5.5-.8.1-.2 0-.4-.2-.4-.2-.1-.5-.1-.7 0l-.8.3c-.7.3-1.4.6-2 1l-1.1.7c-.7.5-1.4 1-2 1.6l-1.1 1c-.4.3-.7.6-1 1-.2.2-.4.5-.5.8-.1.2 0 .4.2.4.2.1.5.1.7 0l.8-.3c.7-.3 1.4-.6 2-1l1.1-.7c.7-.5 1.4-1 2-1.6z" class="E"/><path d="M146.9 371.9s-34.2 18.5-34.5 17.4-5.2-16.9-5.2-16.9l10.5-3.5-14.1-3.9-15.2-53s3.2-2.9 11.3 7.5 20.3 27.4 20.3 27.4l15.7-4.7 11.2 29.7z" class="D"/><path d="M145.6 370.1c-9.7 5.2-19.4 10.5-29.4 15.3-1.1.5-2.2 1.1-3.4 1.6-.3.1-.7.3-1 .4-.5.2.2 0 .2 0h-.1c.8-.1 1.6.1 2.2.7l.7.9c-.4-.9-.7-1.9-.9-2.9l-1.8-5.8-2.5-8.2-1.1 2.2 10.5-3.5c2.2-.7.9-3.3-.8-3.7l-14-3.9 1.8 1.5-5.1-17.9-8.2-28.6-1.9-6.6-.6 1.9c.2-.1 0-.1-.1 0s-.3.1 0 0c.5-.2-.4.1-.2 0h.3c.2 0-.7 0 0 0s-.5-.2 0 0c.2.1.5.1.8.2-.7-.2.2.1.3.2s.5.3.7.4c.2.2.5.3.7.5.4.3.8.6 1.1 1 1.8 1.7 3.4 3.6 4.9 5.6 5.3 6.9 10.4 13.9 15.5 20.9 1.3 1.7 2.5 3.5 3.8 5.2a3.15 3.15 0 0 0 3.4 1l15.5-4.7-3.6-1.5 9.8 26 1.4 3.7c.9 2.3 5.7 2.1 4.7-.7l-9.8-26-1.4-3.7c-.7-1.4-2.2-2-3.6-1.5l-15.7 4.7 3.4 1-11.2-15.4c-2.9-4-5.8-7.9-8.9-11.8-2.7-3.4-5.8-7.2-10-8.8-1.6-.6-4-.9-5.4.4a1.76 1.76 0 0 0-.6 1.9l7.6 26.6 5.2 18 1.8 6.1c.2.8.4 1.6.7 2.3.6 1.4 2 1.6 3.3 2l4.8 1.3 7.8 2.1-.7-3.7-10.5 3.5c-.9.3-1.3 1.3-1 2.2l3.7 12c.4 1.6.9 3.3 1.5 4.9.9 2.1 3.2 1.9 4.9 1.2 3.7-1.5 7.2-3.4 10.8-5.2l14.2-7.4 8.3-4.4c2.5-1.3-.6-4.7-2.8-3.5z" class="E"/><path d="M170 402.7s-21 17.9-21.7 17-10.2-14.4-10.2-14.4l8.9-6.5-14.6.7-31.1-45.6s2.2-3.8 13.1 3.5 27.8 19.6 27.8 19.6l13.4-9.4 14.4 35.1z" class="D"/><path d="M168.1 402.1c-4.6 3.9-9.2 7.8-14 11.5l-4.2 3.3-1.7 1.2c-.5.4.2-.1-.3.2-.2.1-.4.2-.5.3-.3.2.2-.1.3-.1-.3.1.5-.1.5-.1.2 0 2.4.7 2.4.4 0-.1-.1-.1-.1-.2-.3-.4-.6-.9-.9-1.3l-3.2-4.5-5.9-8.3-.5 1.5 8.9-6.6c1.5-1.1-.4-2.1-1.5-2l-14.6.7 1.9.6-10.5-15.4-16.8-24.6-3.8-5.6v1.1l.1-.1c.1-.2-.4.4-.2.2l-.1.1c.2-.1.6-.2-.2.1.6-.2-.4.1-.1 0 .6-.1-.5-.1 0 0 .7.1-.3-.1.4 0 .5 0 1 .1 1.4.3.9.3 1.7.6 2.5 1 2.2 1.1 4.3 2.4 6.3 3.8a811.85 811.85 0 0 1 21.3 15l5.2 3.8c1.1.8 3 .2 3.9-.5l13.4-9.4-4.4-.1 12.6 30.7 1.8 4.3c.7 1.8 5.6.6 4.9-.9l-12.6-30.7-1.8-4.3c-.7-1.6-3.3-.9-4.4-.1l-13.4 9.4 3.9-.5-15.8-11.3-11.8-8.2c-3.6-2.4-7.8-5-12.2-5-1.7 0-4.4.5-5.4 2.1-.2.3-.2.8 0 1.1l15.6 22.8 10.6 15.5 3.6 5.3a14.29 14.29 0 0 0 1.4 2c.8.9 2.4.6 3.5.5l5-.2 8-.4-1.5-2-8.9 6.6c-.5.3-.7.9-.4 1.4v.1l5.4 7.6c1.2 1.7 2.4 3.3 3.5 5 .7 1 1.3 2.3 2.7 2.5 1.7.2 3.1-.7 4.4-1.6s2.6-1.9 3.8-2.8c3.4-2.6 6.6-5.3 9.9-8l6.4-5.4c.5-.3.7-.9.4-1.3-.2-.3-.4-.5-.8-.5-1-.9-2.3-.7-3.4 0z" class="E"/><path d="M400 271.9s21.1 9.7 6.3 44.4c-24.4 57-242.7 95.8-242.7 95.8l-12.1-44-10.2 4.5-15.5-31.8s197.7-49 214.9-54.2 59.3-14.7 59.3-14.7z" class="D"/><path d="M398.1 273.4c5.9 2.7 9.5 9.4 10.7 15.5 1.5 8.3-.5 16.9-3.5 24.7-.4 1-1 2.5-1.3 3.1l-.2.5-.3.6c-.4.8-.9 1.6-1.3 2.5s-1 1.6-1.5 2.4c-.2.3-.7 1-.7 1 .1-.2-.2.3-.3.4l-.5.7c-1.3 1.6-2.7 3.2-4.2 4.7l-1.1 1.1-.6.6-.1.1-.2.2c-.9.8-1.7 1.6-2.6 2.3l-5.7 4.5c-1 .7-2 1.5-3.1 2.2l-.8.6-.4.3c-.3.2.3-.2 0 0l-1.7 1.1a227.2 227.2 0 0 1-30.9 16.2c-12.2 5.4-24.6 10.1-37.2 14.4-13 4.5-26.2 8.6-39.5 12.4-12.5 3.6-25.1 6.9-37.7 10-10.9 2.7-21.9 5.2-32.9 7.6-8 1.8-16 3.4-24.1 5-3.9.8-7.8 1.3-11.6 2.2l-.5.1 1.8.9-10.6-38.6-1.5-5.5c-.3-1-1.5-1.1-2.4-.7l-10.2 4.6 2.3.3-13.5-27.8-1.9-4-2.7 2.9 7.7-1.9 20.5-5.1 29.6-7.4 35-8.7 36.5-9.1 34.3-8.6 28.4-7.2 18.6-4.9 25.1-6.7 36.3-8.6 2.2-.5c1-.2 2.5-1 2.7-2.1s-.8-1.5-1.8-1.3l-27.7 6.5c-11.3 2.7-22.5 5.6-33.7 8.8l-.6.2c-.7.2.5-.1-.1 0l-1.5.4-3.6 1-9.4 2.5-26.4 6.7-33.2 8.4-36.3 9.1-35.7 8.9-31.1 7.8-23.1 5.8-11.2 2.8-.5.1c-1.1.3-3.4 1.5-2.7 2.9l13.5 27.8 1.9 4c.4.7 1.7.6 2.3.3l10.2-4.5-2.4-.7 10.6 38.6 1.5 5.5c.2.9 1 1 1.8.9l8.2-1.5 21.9-4.5 31.8-7.2c12.8-3.1 25.5-6.4 38.2-9.9 13.4-3.7 26.7-7.7 39.9-12.1 13-4.3 25.8-9 38.4-14.3 11.4-4.7 22.5-10.2 33.2-16.3 8.8-5.2 17.4-11.1 24.5-18.5 8.3-8.9 13.4-20.3 14.4-32.5.9-9.6-2-20.2-10.4-25.8-.4-.3-.9-.5-1.3-.8-1.1-.4-2.3-.2-3.2.6-.6 0-1.8 1.5-.8 2z" class="E"/><path d="M306.5 187.7s5-20.9 39.2-13.8c55.7 11.7 65.9 82.9 54.3 100.6s-67.1 24.9-83.4 14.4c-10.9-6.8-8.6-33-10.1-101.2z" class="F"/><path d="M262.5 331.2s-117.8 36.1-121.2 41.3" class="D"/><g class="E"><path d="M261.9 329.4l-11.8 3.7-28.5 8.9-34.7 11.2-30.4 10.5c-3.4 1.3-6.9 2.5-10.3 4-2.1.9-4.5 1.8-6.3 3.3-.3.3-.6.5-.8.9-.5.8-.3 1.9.5 2.4.1.1.3.2.5.2 1.2.4 2.6-.1 3.3-1.2.1-.1-.5.6-.2.2s-.4.2-.2.1.6-.4.9-.5.8-.4 1.2-.6c.1-.1.2-.1.4-.2l-.1.1.9-.4c3.1-1.4 6.3-2.6 9.4-3.8 9.7-3.6 19.4-6.9 29.2-10.1l34.4-11.2 29.5-9.3 14.2-4.4.2-.1c1.1-.3 2.1-1.5 1.7-2.7s-2-1.3-3-1z"/><path d="M277.2 342.9s42.1-23.2 41.7-25.8-55.2-14.1-55.2-14.1-29.8 8.7-29.8 10.9 43.3 29 43.3 29z"/><path d="M278.8 344.8l13.8-7.8c7.5-4.3 15.1-8.6 22.4-13.4 1.9-1.2 4.4-2.6 5.8-4.5 1.7-2.4-1.3-4.2-3.2-4.9-6.7-2.6-14-4.1-21.1-5.8l-25.1-5.7-6.9-1.5c-1.3-.2-2.7-.1-3.9.4-7.8 2.3-15.6 4.6-23.2 7.7-1.8.7-6.5 2-5.6 4.8.6 2.1 3.3 3.6 4.9 4.8 6.8 5 13.9 9.5 20.9 14l17.5 11.1 1 .6c.9.6 2.4 1 3.1 0s0-2.5-.9-3L249 322.9c-2.8-1.9-5.6-3.7-8.3-5.7-1-.7-2-1.4-3-2.2-.4-.3-.8-.6-1.1-.9l-.4-.3c-.6-.5.4.5 0 0-.2-.3-.6-.9-.1 0-.2-.4.2.4.1.3v.9c-.1.3-.3.5-.1.3 0 0-.4.3-.1.1.2-.1.3-.2.5-.3.4-.3.9-.5 1.4-.7s-.4.2.1 0l.5-.2 1-.4 2.3-.9c1.8-.7 3.5-1.3 5.3-1.9 5.9-2 11.9-3.9 17.8-5.6h-1.1l16 3.5c9.4 2.1 18.8 4.3 28.1 6.8l5.4 1.5c.7.2 1.4.4 2.1.7-.7-.2.1 0 .4.1l.8.3c.4.1.8.4 1.1.5 0 0-.6-.4-.2-.1a2.73 2.73 0 0 1-.9-1.2c-.1-.4-.1-1 .1-1.2-.1 0-.2.3-.3.3l-.2.2.1-.1-.6.5c-2.8 2.1-5.7 4.1-8.7 5.9-4.1 2.6-8.4 5-12.6 7.5l-12 6.9c-2.2 1.2-4.5 2.4-6.7 3.7l-.3.2c-2.2 1 1.3 4.5 3.4 3.4z"/></g><path d="M243.1 145.1s2.8 16.5-5.1 25.5-25.7 24.1-18.2 33.6 20.9-.2 25.8-9.2c0 0 22.5 21.9 40.7 13.1s19.7-18.7 30.4-11.6c0 0 31.4-3.7 14.3-20.8-2.6-2.6-33.4-53.4-62.8-40.9 0-.2-16 12-25.1 10.3z" class="D"/><g class="E"><path d="M240.6 145.3c.7 4.6.7 9.3-.1 13.9-.5 3.7-2 7.1-4.2 10.1-2.1 2.7-4.7 5.1-7.1 7.7-4.9 5.2-10.7 11-13 18-1 2.8-.9 5.9.4 8.5 1.9 3.4 5.4 5.6 9.2 6 4.6.5 9.1-1.4 12.7-3.9 3.8-2.6 7-6.1 9.3-10.1l-4.3.4c4.5 4.3 9.6 7.9 15.1 10.8 4.6 2.5 9.5 4.1 14.7 4.8 5.7.6 11.5-.5 16.5-3.3 5.1-2.9 10.1-6.2 14.7-9.8.7-.5 1.4-1 2.2-1.5s-.4.2.3-.2l.5-.3 1.2-.6c-.5.2.5-.1.7-.2.6-.2-.6 0 .1 0h.5c.6-.1-.6-.1.1 0h.6c.6.1-.5-.1.2 0 .3.1.5.1.8.2 1.4.4 3.4 2.3 5.2 2.1.5 0 1.1-.2 1.6-.2 2.7-.4 5.3-1.1 7.9-1.9 5.3-1.8 13.1-5.4 12.1-12.3-.5-3.6-3.1-6.7-5.6-9.2-.3-.3.1.2 0 0l-.3-.4c-.2-.3-.5-.7-.7-1-.7-.9-1.3-1.8-2-2.8-4.4-6.2-9.1-12.1-14.3-17.7-6.1-6.6-13.1-12.9-21.2-17.1s-17.3-5.9-25.9-2.8c-2.7 1-4.9 2.9-7.4 4.4-3.8 2.6-8 4.6-12.4 6-.9.3-1.8.5-2.8.5h-1.1c-.5 0-.9-.1-1.4-.2-1-.2-2.6.3-3 1.4s1 1.7 1.9 1.8c6.4 1.1 13.2-2.3 18.6-5.3 2.4-1.4 4.8-2.8 7-4.4.5-.4 1.1-.8 1.6-1.1.1-.1.4-.2.1-.1s.5-.1.4-.1c.4-.1.8-.3 1.1-.4 2.4-.7 4.9-1.1 7.4-.9 1.3.1 2.6.2 3.8.5 1.4.3 2.7.7 4 1.2 5.4 2.1 10.4 5.1 14.7 8.9 8.5 7 15.7 15.6 22.2 24.4 1.7 2.3 3.2 4.8 5.1 6.9 1.5 1.8 3.1 3.3 4.1 5.5.4.9.7 1.8.8 2.8.1.8 0 1.6-.4 2.4-.3.7-.7 1.3-1.2 1.8l-.2.2c-.2.2-.3.3-.5.4l-1.2.9-.6.4c.4-.2-.2.1-.3.2-.5.3-.9.5-1.4.7s-.9.4-1.4.6l-.7.3c-.5.2.2-.1-.4.1-1.8.6-3.6 1.1-5.5 1.5-.7.1-1.4.3-2.1.4.8-.1.1 0-.2 0l-.6.1-.5.1 1.8.3c-2.1-1.5-4.7-2.5-7.3-2.7-2.4-.1-4.8.6-6.9 1.8-2.3 1.5-4.5 3-6.6 4.7-2.9 2.3-6.1 4.3-9.3 6.1-5.2 3.5-11.7 4.4-17.7 2.5-5.5-1.6-10.7-4.2-15.4-7.6-2.6-1.8-5.1-3.8-7.5-6-1-.9-3.6-.9-4.3.4-1.8 3.2-4.2 6.1-7.1 8.4-2.5 1.9-5.8 3.8-8.6 3.8-3-.2-5.5-2.1-6.6-4.9-1-2.4-.3-5.2.7-7.6 1.4-3 3.3-5.8 5.4-8.3 2.3-2.9 4.8-5.5 7.4-8.2 2.3-2.3 4.5-4.7 6.6-7.2 2.1-2.9 3.5-6.3 4.1-9.8 1.1-5.1 1.2-10.4.4-15.5.2-2-4.8-1.5-4.5.7z"/><path d="M318.6 151.3s15.5-6.6 12.2-15.2-10.3-.5-10.3-.5-1.6-21.7-16.7-14c0 0 2.5-19.3-14-22.7s-28.5 16.5-28.5 16.5-11.7-15.8-23.5-3.5-1.3 19.1-1.3 19.1-6.1 6.9-3.7 13.3c5.3 14.5 25.6.1 25.6.1s17.7 22.6 27.2 6.2l9.6 8.7s2.5 6.6 12.5 10.4 19.2-9 10.9-18.4z"/><path d="M320.4 153c3.9-1.7 8-4.3 10.7-7.7 1.9-2.2 2.4-5.3 1.5-8-1.2-3.1-4.7-7.6-8.5-6.9-2.1.5-4 1.7-5.4 3.5l3.7 3.2c-.2-2.6-.8-5.2-1.7-7.7-1.6-4.6-5.2-9.5-10-10.9-3-.9-6 0-8.7 1.3l3.7 3.2c1-7.6-1.6-15.2-7.1-20.5-4.7-4.5-11.2-6.6-17.6-5.6-5.7 1-10.8 4.4-14.9 8.4-2.5 2.4-4.8 5.2-6.6 8.2l3.1 2.2c-1.6-2.1-3.5-4-5.6-5.6-3.2-2.6-7.1-4.8-11.3-4.8-5.6.1-10.2 4.4-13 8.9-2.2 3.5-3.2 7.7-1.4 11.6 1.3 2.6 3.3 4.8 5.7 6.5l-2.4-3c-2.2 2.5-3.6 5.5-4.2 8.7-.7 4.7 2 9.1 5.5 11.9 5.8 4.6 13.1 2.3 19.1-.7 1.8-.9 3.5-1.9 5.1-3L257 144c2.3 2.9 5 5.6 7.9 8 3.9 3.3 9.4 7.2 14.9 6.3 3.4-.6 5.9-3 7.6-5.9l-2.2-1.3 9.6 8.7-1.4-1.7c.7 1.5 1.6 2.9 2.7 4.2 2.7 3.2 6.1 5.9 9.8 7.8 3.5 1.8 7.2 2.9 11 1.2 3.1-1.4 5.4-4.2 6.3-7.5 1.3-4.7-.7-9.1-3.8-12.6-.4-.4-1.9-2.1-2.5-1.8s.5 1.5.7 1.8c3.1 3.7 2.8 9.3.1 13.1-2.8 3.9-7.9 5.3-12.2 3.4-2.2-.9-4.3-2.2-6.1-3.8-.5-.4-.9-.9-1.2-1.4-.3-.4-.6-.9-.9-1.3l-.1-.2c-.1-.1-.1-.2-.2-.3-.4-.7-.8-1.3-1.4-1.8-.8-.8-1.6-1.5-2.5-2.2l-7.1-6.4c-.2-.2-2-1.8-2.2-1.3-1.4 2.4-3.3 4.6-6 5.5-2.2.6-4.6.5-6.7-.4-1.1-.4-2.1-.9-3.1-1.5-.4-.2-.8-.5-1.2-.8-.7-.5-.8-.6-1.3-.9s-.9-.7-1.3-1.1-.1-.1 0 0l-.3-.3-.7-.6c-.4-.3-.7-.7-1.1-1l-.2-.2c-.2-.2-.4-.4-.5-.6l-.9-1-.4-.4c-.3-.4-.2-.2 0 0-.2-.2-.4-.5-.6-.7-.4-.5-2.3-2.8-3.1-2.2-3.4 2.4-7.1 4.3-11.1 5.5-2.7.8-5.7 1.3-8.4.4-.5-.2-.9-.4-1.4-.6.1 0 .1.1.1.1.2.3-.1-.1-.1-.1l-.3-.4c-1.1-1.7-1.5-3.8-1.3-5.8.5-3.3 1.9-6.5 4.2-9 .6-.7-1.9-2.7-2.4-3-.1 0-.2-.1-.3-.2.6.6.3.2.1.1-.4-.4.5.4 0 0s.4.4-.1-.1.2.3-.2-.2c-.2-.3-.5-.6-.6-1-1.6-3.2-.8-6.9.9-9.9 2.4-4.1 6.4-8.5 11.3-9.4 3.4-.5 6.8.4 9.5 2.5 0 0 .4.3.1.1l.5.4.5.4.1.1.8.8c.3.3-.4-.4 0 0 .1.1.2.2.3.4s.4.4.6.6c-.3-.4-.2-.2 0 0l.3.4c.2.3 2.7 2.9 3.1 2.2 3.9-6.4 10-12.5 17-15.3 5.1-2.1 11.6-2.2 16.4.9.4.2.8.5 1.2.9-.3-.3.1.2.2.2l.4.4c-.2-.2.3.4.4.5s.2.3.2.3c.3.5.6.9.8 1.4.9 1.8 1.5 3.8 1.9 5.8.5 2.6.6 5.2.3 7.8-.1.9 2.7 3.7 3.7 3.3 2.1-1.2 4.6-1.7 7-1.5.8.1 1.5.4 2.2.8-.4-.2.6.2 0 0 .4.1-.2-.2.1 0s-.2-.4.1.1c.2.3-.2-.3 0 0 .1.1.2.2.2.3.3.4 0 0 .2.3s.2.4.4.6c.2.3.4.7.6 1.1.4.8.7 1.6 1 2.5.5 1.4.8 2.9 1.1 4.3.1.8.2 1.6.3 2.3s3 4 3.7 3.3c1-1.2 2.2-2.1 3.5-2.8.5-.2 1-.4 1.5-.5.3-.1.5-.1.8-.1.3.1.6.1.8.1.2-.1-.3-.4-.6-.6s-.1-.2 0 .1.2.4.3.6c.3.7.5 1.4.6 2.1.6 5.1-4.8 9-8.6 11.3-1.3.8-2.6 1.5-4 2.1-.5.2 1.2 2 1.4 2.2.9.2 2 1.4 2.7 1.1z"/></g><path d="M287.8 162.8s4.1-12.1 13.2-15.8 16.1 16.4 2.2 26.1" class="D"/><path d="M289.4 164.6c2.1-6.1 6.4-12.5 12.4-15.3 1.2-.6 2.5-.7 3.8-.4.4.2.8.4 1.1.6.3.3.6.6.8.9.1.1.4.7.1.1l.3.6.3.6c.3.7.5 1.4.7 2.1.4 1.7.4 3.5.2 5.3-.7 4.9-3.4 9.2-7.5 12-1.4 1 1.5 5.1 2.9 4.1 4.1-2.9 6.9-7.2 7.9-12.1.8-4.2.1-8.6-1.9-12.4-1.8-3.1-4.8-6.4-8.7-6.2-2.1.3-4 1.1-5.7 2.4-2.1 1.5-3.9 3.4-5.4 5.5-2 2.7-3.6 5.6-4.7 8.7-.4 1 .4 2.3 1.1 3 .4.3 2 1.5 2.3.5zM245.8 169.2s-1.4 2.5 1.1 3.6 3.8-2 2-3.6c-.8-.9-2.1-1-2.9-.2-.1 0-.1.1-.2.2z" class="E"/><path d="M283.8 184.8s-4.5-3.8-10 .6" class="D"/><path d="M285.6 183.1c-1.2-.9-2.5-1.6-4-1.8-3.4-.7-6.7.7-9.3 2.8-.8.7-1.2 2.3-.3 3 1.1.7 2.5.6 3.4-.3l.3-.2c-.3.2-.3.2-.1.1l.5-.3c.3-.2.6-.4 1-.5s-.5.2 0 0c.1-.1.3-.1.4-.1s.6-.1.8-.2h-.3 1.6c.2 0 .5.1.7.1.1 0 .5.1.1 0h.1l.5.2c.3.1.6.3.9.4l.2.1c.3.2-.5-.3-.2-.2l.2.1.2.1c1 .7 2.5.6 3.4-.3.8-.8 1.3-2.2.3-3h-.4zm-22.5-15.2s-1.4 2.5 1.1 3.6 3.8-2 2-3.6c-.8-.9-2.1-.9-2.9-.2-.1.1-.2.1-.2.2z" class="E"/><g class="F"><path d="M224.3 269.3l11.8-25.7 1.7-3.7c1.2-2.6-3.4-4.6-4.6-2l-11.8 25.7-1.7 3.7c-1.1 2.6 3.4 4.6 4.6 2zm-20.2-11.1l.5-4.7 1.1-6.7 1.6-8.6c.2-1.1-1.7-1.5-2.4-1.6-.9-.1-2.4.1-2.6 1.2l-1.6 8.6-1.1 6.6c-.3 1.6-.4 3.2-.5 4.8 0 1.1 1.5 1.5 2.4 1.6s2.6-.1 2.6-1.2zm-21.7-31.9c-.3-4.3-.4-8.6-.1-12.8.1-4.8.3-9.7.6-14.5l.1-3.1c.1-1.6-4.2-3.9-4.4-2.2-.4 8.1-.8 16.2-.8 24.3 0 2.1 0 4.1.2 6.2.3 1.1 1 2 2.1 2.4.4.2 2.4.8 2.3-.3zm.1 31.5l.5-9.9.1-1.4c.1-1.2-1.2-1.9-2.2-2-.8-.1-2.7 0-2.7 1.2l-.5 9.9-.1 1.4c-.1 1.2 1.2 1.9 2.2 2 .7.1 2.6 0 2.7-1.2zm43.9 24.1l-91.8-17.1c-2.9 0 55.8 56.4 59.3 58.2s78.6 22.2 83.2 20-50.7-61.1-50.7-61.1z"/><path d="M228.1 280.8l-26.4-5.1-46.6-8.8-15.9-2.9-3.2-.5s-3.9.1-3.8 1.7c.1.4.3.7.5 1 .9 1.3 1.9 2.4 3 3.5l5.6 5.8 15.8 15.7c10.1 9.9 20.2 19.7 30.8 29.1 1.2 1 2.4 2.1 3.6 3.1.8.5 1.7.9 2.6 1.1 5 1.6 10 2.9 15 4.3 15.6 4.3 31.3 8.5 47.1 12 5.6 1.4 11.3 2.5 17 3.2 1.9.3 3.8.2 5.6-.5 1.5-.8 1.4-1.9.8-3.2-2.1-4.4-5.5-8.3-8.6-12-4.9-5.9-9.9-11.7-14.9-17.4-8.4-9.5-17-18.9-25.7-28.2l-1.5-1.6c-1.1-1.2-5.8.2-4.7 1.4l18.9 20.5c9.6 10.6 19.5 21.3 28 32.8 1.2 1.6 2.4 3.3 3.4 5.1l.3.6c.1.3.2.5.3.8v.2c.1.3-.1 0 0 0 0 0 0 .2-.1.2.2-.3.5-.5.8-.7 0 0 .7-.2.9-.3-.5.1.2-.1.3 0h-.8c1-.1-.2 0-.6 0s-.9-.1-1.3-.1c-1.1-.1-2.2-.3-3.3-.5l-.5-.1h-.1l-1-.2-2.1-.4c-15.2-3-30.3-7-45.3-11l-19.3-5.4c-1.9-.5-3.8-1.1-5.6-1.7l-.8-.2-.3-.1c-.4-.1.4.2.1 0s-.5-.3-.8-.5.3.3 0 0l-.3-.3c-.3-.2-.5-.4-.8-.7l-2.1-1.8-5.8-5.3-15.8-15c-10.1-9.7-20.3-19.4-29.9-29.7-1.1-1.2-2.2-2.4-3.2-3.7-.1-.2-.2-.3-.3-.5s-.1.1-.1-.1-.2.3 0 .2l-.2.3c-.9.7-2 1-3.2.9h.5l3.9.6.7.1c.1 0 1 .2.4.1l1.7.3 3.8.7 43.8 8.2 34.6 6.6 1.8.4c1.2.3 2.4.1 3.5-.6.8-.3.8-1.2-.2-1.4z"/></g><path d="M206.5 313.3c2.8.4 5.6-.5 7.6-2.5 1.6-1.7 2.4-4 2.4-6.4.2-3.5-2.2-6.6-5.6-7.3-1.1-.2-2.3.5-2.5 1.6v.2a2.58 2.58 0 0 0 2.4 2.4c.1 0-.9-.3-.5-.1l.3.1.2.1c.2.1-.7-.4-.3-.2.2.1.5.2.6.4s-.5-.5-.3-.2l.1.1.3.3c.3.3-.3-.5-.1-.1a.76.76 0 0 1 .2.4l.1.2c.2.3-.1-.5-.1-.2s.1.3.1.5.1.3.1.5c.1.4 0-.4 0-.1v.4c0 .5 0 .9-.1 1.4v.4c.1-.4 0 0 0 .1-.1.3-.1.6-.2.9-.1.2-.1.4-.2.6l-.1.2c0 .1-.1.5-.1.1s0 0-.1.1l-.1.2c-.1.2-.2.3-.4.5l-.2.2c-.2.3.1-.1.1-.1s-.4.3-.4.4l-.4.2-.2.1c-.3.2.5-.2.1-.1l-.8.3c-.1 0-.3.1-.4.1s.6-.1.3-.1h-.3c-.3 0-.6.1-.8.1h-.3.4-.6c-1.1-.1-2.5.6-2.5 1.8.1 1.3 1.1 2.3 2.3 2.5zm180.9-99.7s17.9 28.2 6.3 49.6c-12.8 23.6-57.4 37-57.4 37s-8.3 10.2-13.6 12.6-21-.5-22.4-.7-9.3 11-13.1 14.8-3.1-6-3.1-6c-4 3.6-3.8-8.6-3.8-8.6-3.3-.2-1-11.2 6-16.4s32.7-11.8 32.7-11.8 30.1-29.1 41.3-37.9c0 0-4.4-8.5-5.8-13.5" class="D"/><path d="M385 213.2c2.2 3.6 4 7.3 5.5 11.2 3.1 7.8 5.2 16.3 4.6 24.7-.7 8.3-4.3 16.2-10.2 22.1-5.6 5.6-11.9 10.4-18.8 14.2a165.12 165.12 0 0 1-31 13.7c-.3.1-.5.2-.8.2-.5.3-.9.6-1.1 1.1a63.81 63.81 0 0 1-7.2 7.5c-2.5 2.3-5 4.4-8.4 4.8-3.7.3-7.5.2-11.2-.4-2.4-.3-4.6-.8-7.2-1.1-1.3-.1-2 .5-2.9 1.4-1.1 1.2-2.2 2.5-3.2 3.7-2.4 3-4.7 6.1-7.3 8.9-.5.5-1 1-1.5 1.4l-.3.2c-1.3.3-.2.6 3.3.9-.1-.2-.2-.3-.3-.5-.4-1.1-.6-2.3-.5-3.5v-2.2c.1-1.1-4-2-4.7-1.4-.2.2-.4.3-.6.4s-.2.1-.3.1 3.2.7 3.2.8 0 0-.1-.2-.2-.4-.3-.5c-.4-1-.7-2.1-.7-3.2-.2-1.5-.3-3.1-.2-4.6 0-1-2.8-1.5-3.5-1.5 2.6.3 2.6 1.4 2.3.5-.1-.3-.2-.5-.3-.8-.1-.8-.1-1.7.1-2.5.4-2.2 1.2-4.2 2.2-6.1 2.1-3.7 5.3-6.6 9.2-8.2 7.6-3.6 15.8-5.9 23.8-8.2l3.4-.9c.4-.1.8-.2 1.2-.4a4.74 4.74 0 0 0 1-1l2.4-2.3 17.4-16.4c6.7-6.2 13.3-12.5 20.5-18.2.1-.1.2-.2.1-.3-2.4-4.3-4.3-8.8-5.8-13.5-.2-.8-2.2-1.1-2.9-1.2-.4-.1-2.1-.4-1.9.4 1.4 4.7 3.4 9.2 5.8 13.6l.1-.4c-6.6 5.2-12.7 11-18.8 16.6l-18.5 17.4-2.6 2.5c-.5.4-.9.8-1.3 1.2-.2.3.3-.1.1 0s-.5.1-.7.2l-3.7 1c-8.3 2.3-16.9 4.7-24.6 8.5-4.5 2.1-8 5.8-10 10.3-1 2-1.5 4.2-1.4 6.5.3 2.5 2.6 3.3 4.9 3.6l-3.5-1.5a24.98 24.98 0 0 0 .6 6.7c.2 1.3.9 2.4 2 3.1 1.7 1 4.3 1.6 5.9.2l-4.7-1.4c-.1 1.6-.1 3.1.2 4.7.1.9.5 1.7 1.1 2.4 1.5 1.1 3.3 1.6 5.1 1.3 1.1-.5 2-1.2 2.7-2.2 1-1.1 1.9-2.2 2.8-3.3 2-2.5 4-5.1 6.2-7.6.6-.8 1.4-1.5 2.1-2.2.9-.6.4 0-1-.4.3.1.5.1.8.1l7.5 1.1c3.3.4 6.6.6 10 .5 2.6.1 5.2-.6 7.5-1.9 4.7-3 8.6-7.6 12.2-11.9l-.4.2c4-1.2 8-2.7 11.9-4.2 8.4-3.3 16.5-7.3 24.1-12 8-5 15.8-11.1 20.8-19.1 6-9.6 5.9-21.1 3.1-31.8-1.8-7-4.6-13.7-8.4-19.9-.5-.8-2-1.1-2.9-1.2-.4-.2-2.5-.5-2 .2z" class="E"/><path d="M297.2 302.2s-14.3 13.6-12.6 21.9" class="D"/><path d="M296.2 301.3l-4.9 5.3c-2.9 3.3-5.3 7-7 11-.9 2-1.1 4.2-.8 6.3.2 1.1 2.5 1.8 2.2.3-.7-3.7 1.7-7.7 3.6-10.7 2.1-3.1 4.5-6 7.1-8.8.6-.6 1.1-1.2 1.7-1.8.9-.7-1-2.4-1.9-1.6z" class="E"/><path d="M292.6 297.4s-12.1 8.3-12.4 15" class="D"/><path d="M292.1 296.9l-4.4 3.5c-2.7 2.2-5 4.7-6.9 7.6-1 1.4-1.5 3.1-1.7 4.8 0 1 2.3.2 2.4-.6.1-3 2.2-5.5 4.1-7.6s4.1-4 6.3-5.7c.4-.3.7-.5 1.1-.8l.2-.1c-.2.1 0 0 0 0 .3-.2.9-.7.5-1.1s-1.3-.1-1.6 0z" class="E"/><path d="M162.8 253l-3.6-10.9-.5-1.5c-.1-.2-.6-.3-.7-.3l-1.8-.3c-.2 0-2.6-.1-2.5.2l3.6 10.8.5 1.5c.1.2.6.3.7.3l1.8.3c.2 0 2.6.1 2.5-.1zm81.4 22.8l10.1-7.5 1.4-1c.3-.2 0-.9-.1-1-.3-.5-.7-1-1.2-1.3-.6-.5-1.8-1.4-2.6-.8l-10.1 7.5-1.4 1c-.3.2 0 .9.1 1 .3.5.7 1 1.2 1.3.7.4 1.9 1.3 2.6.8z" class="F"/><path d="M265.8 261.1s-13.8-6.4-13.8-13.5 11.1-48.5 13.4-48.1 1.9 13.7 1.9 13.7 18.7-13.5 21.5-12.2-7.7 13-7.7 13 10.1-4.5 9.1.3-22.9 18.3-22.9 18.3 7.9 20.3 7.9 23.6" class="D"/><g class="E"><path d="M266.6 259.6c-1.9-.9-3.7-1.9-5.4-3.1-2.7-1.8-6-4.2-7.1-7.4-.2-.5-.2-1.1-.2-1.7V246.6c.1-1 .3-2 .4-2.9.5-2.9 1.1-5.7 1.8-8.5 1.6-6.9 3.4-13.8 5.4-20.7 1.4-4.6 2.6-9.3 4.9-13.6.2-.4-.3.2 0 0s-.1.1-.1 0c-.5.2-1.1.2-1.6 0-.1 0-.5-.3-.2-.2s-.1-.2 0 0c.5 1.4.8 2.8.8 4.3.1 1.8.2 3.6.2 5.4V212.7c-.1 1.1.8 2 1.8 2 .4 0 .8-.1 1.1-.3 4.4-3.2 8.9-6.2 13.5-8.9 1.3-.8 3-1.7 4.1-2.2.5-.2 1-.5 1.6-.6.2-.1.5-.1.7-.2.2-.1-.3.2-.1 0s.1.1.1 0c-.2 0-.4-.1-.5-.2-.3-.3-.4-.5-.4-.5v-.1c0 .1 0 .2-.1.3 0 .1-.2.5 0 .1-.1.2-.1.3-.2.5-.6 1.4-1.4 2.7-2.4 3.9-1.6 2.2-3.3 4.3-5.1 6.3-1.2 1.3.6 3.4 2.1 2.7 2-1 4.1-1.6 6.3-1.8h.1c.1 0 .3.1.4.1 0 0-.1 0-.1-.1-.1-.2-.3-.2-.1-.1-.2-.1 0-.1 0 0 0-.1-.2.9 0 .3-.1.2-.2.4-.2.5 0 .1-.4.6-.2.3-.4.5-.8 1-1.2 1.4-4.5 4.7-10.3 8.4-15.8 11.9-1.6 1.1-3.2 2.1-4.8 3.1-.7.4-1 1.3-.6 2 2.5 6.3 4.9 12.6 6.8 19.1.5 1.3.8 2.7.9 4.1 0 2.1 3.8 2 3.7-.2-.1-1.3-.4-2.6-.9-3.8-.6-2-1.2-3.9-1.9-5.9l-4.2-11.7c-.3-.9-.7-1.8-1-2.7l-.6 2c4.8-2.9 9.5-6.1 14-9.5 2.9-2 5.6-4.3 8-6.9.9-.9 1.5-2 1.7-3.2.3-1.8-.9-3.6-2.7-3.9-2.9-.7-6.3.7-9 1.8l2.1 2.7c1.8-1.9 3.4-4 5-6.1 1.4-1.9 5.1-6.2 3.1-8.8s-5.9-.2-7.9.9c-3.5 1.9-6.9 3.9-10.1 6.2-2.2 1.4-4.3 2.9-6.5 4.5l3 1.7c.1-2.6.1-5.1-.1-7.7-.1-2.4-.2-7.5-3.4-8-2-.3-2.9 1.9-3.6 3.4-1.1 2.6-2 5.2-2.8 7.9-2.3 7.3-4.3 14.6-6.1 22.1-.8 3.3-1.6 6.6-2.2 10-.5 2.2-.8 4.4-.9 6.6 0 4.4 3.9 7.9 7.1 10.3 2.4 1.8 5 3.3 7.7 4.6 2.4 1 4.1-2 1.9-3z"/><path d="m265.7 225.3 14.2-8.9 2-1.2c.7-.4 1.2-1.5.7-2.2s-1.7-.5-2.3-.1l-14.2 8.9-2 1.3c-.7.4-1.3 1.5-.7 2.2s1.7.4 2.3 0z"/></g><path d="m192.2 154.2 13.7-11.2c.3-.2.4-.6.2-.9-4-4.8-8-9.6-11.7-14.6-1.1-1.4-2.1-2.8-3.1-4.3-.4-.5-.7-1.1-1-1.6-.1-.2-.2-.4-.3-.5.1.3-.1-.2-.1-.2.1 0-.3-.2 0 0s-2.8 1.1-1.5.7c-2 .6-1.4.4-.6.4h19.5c.6 0 3.2-.2 3-1.4l-3.6-22.9-.5-3.2-3 1.4 19.8 1.6 2.8.2c.8.1 2.7-.2 3-1.1l5.4-16c.6-1.7-4.4-1.7-4.9-.2l-5.4 16 3-1.1-19.8-1.6-2.8-.2c-.6-.1-3.2.3-3 1.4l3.6 22.9.5 3.2 3-1.4h-16.9c-1.6 0-3.8-.3-5.3.3s-1.4 1.5-.8 2.7c.7 1.3 1.5 2.5 2.4 3.7 2.5 3.5 5.2 6.9 7.9 10.3 1.8 2.3 3.6 4.5 5.5 6.7l.2-.9-13.7 11.3c-.9.7.4 1.4 1 1.5 1.3.1 2.5-.2 3.5-1z" class="F"/></svg>