<svg xmlns="http://www.w3.org/2000/svg" width="720" height="1018" style="shape-rendering:geometricPrecision;text-rendering:geometricPrecision;image-rendering:optimizeQuality;fill-rule:evenodd;clip-rule:evenodd"><path style="opacity:1" fill="#fbfbfb" d="M-.5-.5h720v1018h-43c-8.054-16.42-19.221-30.418-33.5-42a276.838 276.838 0 0 0-21-52 301.794 301.794 0 0 0-11-32 283.633 283.633 0 0 1 0-57c2.744-2.484 4.744-5.484 6-9a177.152 177.152 0 0 1 8-24c4.04-16.105 2.874-31.771-3.5-47 12.086-5.528 14.419-13.695 7-24.5a110.481 110.481 0 0 0 16.5-15.5c15.325-22.002 25.159-46.335 29.5-73l2-6c1.954-9.97 3.288-20.303 4-31l-.5-10c-.232-1.237-.732-2.237-1.5-3-.436-4.579-1.436-8.913-3-13-4.095-22.195-11.595-43.195-22.5-63a43.073 43.073 0 0 0-2-9 285.17 285.17 0 0 1-22.5-32c-5.742-6.207-12.742-10.374-21-12.5a136.259 136.259 0 0 0-16-3.5c-1.452-.802-3.118-1.302-5-1.5a100.2 100.2 0 0 0-20 0c-3.552.878-6.886 2.044-10 3.5-18.947 4.432-35.447 13.432-49.5 27a31.317 31.317 0 0 1-5 8l-.5 4a169.696 169.696 0 0 1 5 17c-.086.996.248 1.829 1 2.5a2.428 2.428 0 0 1-2 .5c-4.167-1.303-8.334-1.303-12.5 0-.278-.916-.778-1.582-1.5-2-1.202-19.228 3.965-36.562 15.5-52 6.619-15.409 1.452-23.743-15.5-25-14 .497-23.833 7.164-29.5 20-6.684 12.724-11.351 26.057-14 40L429.5 486l-33-33a179.617 179.617 0 0 0-15-10c-3.623-2.479-7.623-3.812-12-4-2.769-3.372-4.602-7.205-5.5-11.5a359.967 359.967 0 0 1 .5-88c3.159-.019 5.826 1.148 8 3.5 14.301 1.215 19.634-4.952 16-18.5a52.344 52.344 0 0 0-14-9c5.453-10.132 12.119-19.465 20-28a3487.564 3487.564 0 0 0 52-47.5 92.904 92.904 0 0 1 12-6c3.508-5.435 2.008-8.602-4.5-9.5a28.205 28.205 0 0 0-10.5 3.5 1004.343 1004.343 0 0 1-49 43.5c-5.256-6.672-7.59-14.339-7-23-.474-8.443 1.693-16.109 6.5-23 6.044-7.766 13.211-14.266 21.5-19.5a10.413 10.413 0 0 1 5-1.5c2.332.672 4.666.839 7 .5l18-22a142.037 142.037 0 0 1 36-15c13.568-2.359 26.235-.026 38 7 4.491 7.442 11.157 10.776 20 10a182.018 182.018 0 0 0 36 12c3.259 1.211 6.092 3.044 8.5 5.5 4.575 9.11 6.908 18.777 7 29a7.293 7.293 0 0 0 2 3 90.455 90.455 0 0 1 0 19c-3.339 6.666-5.005 13.666-5 21 .833 1.5 2 2.667 3.5 3.5 19.941 1.062 26.441 10.896 19.5 29.5a43.435 43.435 0 0 1-9 13c-4.3 7.59-3.133 14.09 3.5 19.5 6.833 1.167 9.667-1.667 8.5-8.5-2.781-1.813-3.115-4.146-1-7l7-7a75.537 75.537 0 0 1 5-14c2.55-12.32-.95-22.486-10.5-30.5a38.353 38.353 0 0 0-14-4.5c4.582-11.899 6.082-24.232 4.5-37-2.342-5.34-3.675-11.007-4-17a1260.022 1260.022 0 0 1-6-16c-3.715-5.944-8.882-10.111-15.5-12.5a119.142 119.142 0 0 1-38-13 50.382 50.382 0 0 1-11-2 21.53 21.53 0 0 0-5-6c-14.988-8.166-30.988-10.833-48-8-5.834 1.056-11.334 2.889-16.5 5.5a490.05 490.05 0 0 0-21-47 193.643 193.643 0 0 0-18-46c-1.997-9.31-3.997-18.643-6-28-1.75-4.75-5.083-7.75-10-9-87.396 4.296-170.896 24.463-250.5 60.5a1114.41 1114.41 0 0 0-98 34 492.537 492.537 0 0 0-24 7c-3.062 1.061-5.562 2.894-7.5 5.5a484.226 484.226 0 0 0 0 44l8 44c4.407 43.968 8.74 87.968 13 132a1202.018 1202.018 0 0 0 11 52c1.52 6.32 1.853 12.653 1 19 1.555 2.555 3.721 4.388 6.5 5.5 14.87 1.412 29.537.412 44-3a746.088 746.088 0 0 0 38-3c4.824-.907 8.824-3.074 12-6.5l2 5a141.994 141.994 0 0 0-15.5 32c-11.59 5.592-20.59 13.926-27 25a49.849 49.849 0 0 0-2.5 13 163.12 163.12 0 0 0 4.5 25A1210.82 1210.82 0 0 0 72.5 554a146.79 146.79 0 0 1-23 8c-12.028 4.89-19.195 13.723-21.5 26.5-7.623 6.643-8.623 14.31-3 23a790.562 790.562 0 0 0 32 35c11.384 17.171 17.384 36.171 18 57 .91 7.639 1.41 15.306 1.5 23a763.697 763.697 0 0 1-7.5 75 184.807 184.807 0 0 0-5.5 15.5c.7 2.38 1.867 4.547 3.5 6.5 5.403.805 9.737-1.195 13-6a1188.205 1188.205 0 0 1 40-52 768.408 768.408 0 0 1 42.5-40.5 714.973 714.973 0 0 1 86-53 390.581 390.581 0 0 1 25-9 354.91 354.91 0 0 0 36-9 168.612 168.612 0 0 0 25-2.5 301.113 301.113 0 0 0 23 2l-9 2h-7c-7.514.296-14.847.962-22 2-6.379-.266-11.712 1.901-16 6.5a79.6 79.6 0 0 0-19 8c-6.776 6.376-7.776 13.542-3 21.5-11.855 15.363-25.022 29.696-39.5 43a1134.304 1134.304 0 0 0-44 65 418.388 418.388 0 0 0-25 72 1419.339 1419.339 0 0 1-12 60 598.069 598.069 0 0 0 2 54c.521 3.374 1.854 6.374 4 9a53.73 53.73 0 0 0 2.5 14c-.497 2.32-.83 4.65-1 7H-.5V-.5z"/><path style="opacity:1" fill="#262626" d="M374.5 315.5c-4.082-.579-7.748-1.912-11-4a146.535 146.535 0 0 1 22-31.5c-2.182-3.51-4.349-7.01-6.5-10.5a91.98 91.98 0 0 1-3.5-29c-3.646.783-7.312.95-11 .5-6.74-6.602-6.407-12.936 1-19 5.929-2.148 11.096-.981 15.5 3.5 7.884-13.551 18.717-24.051 32.5-31.5a250.94 250.94 0 0 1 11-2.5 339.116 339.116 0 0 1 13-17.5 519.375 519.375 0 0 0-23.5-58.5c-3.5-12.649-8.334-24.649-14.5-36a136.633 136.633 0 0 0-20 6.5c-18.695 3.335-37.362 6.669-56 10a168.822 168.822 0 0 0-30 9 215.045 215.045 0 0 0-54 14 942.99 942.99 0 0 1-39 9 115.377 115.377 0 0 0-13 6 390.138 390.138 0 0 1-28 6.5 429.971 429.971 0 0 0-44 18.5c-11.15 2.449-21.817 6.115-32 11-1.634.494-3.3.66-5 .5a132.978 132.978 0 0 0 2.5 16l1 67a1044.585 1044.585 0 0 1 5.5 144 432.182 432.182 0 0 0 50-7.5 141.069 141.069 0 0 1 25 .5 128.495 128.495 0 0 0 15 3 49.299 49.299 0 0 0-2 11 81.493 81.493 0 0 1-14-3 508.832 508.832 0 0 1-3 15.5 15.894 15.894 0 0 1 1 6.5c-3.176 3.426-7.176 5.593-12 6.5a746.088 746.088 0 0 1-38 3c-14.463 3.412-29.13 4.412-44 3-2.779-1.112-4.945-2.945-6.5-5.5.853-6.347.52-12.68-1-19a1202.018 1202.018 0 0 1-11-52c-4.26-44.032-8.593-88.032-13-132l-8-44a484.226 484.226 0 0 1 0-44c1.938-2.606 4.438-4.439 7.5-5.5a492.537 492.537 0 0 1 24-7 1114.41 1114.41 0 0 1 98-34C235.104 56.963 318.604 36.796 406 32.5c4.917 1.25 8.25 4.25 10 9 2.003 9.357 4.003 18.69 6 28a193.643 193.643 0 0 1 18 46 490.05 490.05 0 0 1 21 47c5.166-2.611 10.666-4.444 16.5-5.5 17.012-2.833 33.012-.166 48 8a21.53 21.53 0 0 1 5 6 50.382 50.382 0 0 0 11 2 119.142 119.142 0 0 0 38 13c6.618 2.389 11.785 6.556 15.5 12.5a1260.022 1260.022 0 0 0 6 16c.325 5.993 1.658 11.66 4 17 1.582 12.768.082 25.101-4.5 37a38.353 38.353 0 0 1 14 4.5c9.55 8.014 13.05 18.18 10.5 30.5a75.537 75.537 0 0 0-5 14l-7 7c-2.115 2.854-1.781 5.187 1 7 1.167 6.833-1.667 9.667-8.5 8.5-6.633-5.41-7.8-11.91-3.5-19.5a43.435 43.435 0 0 0 9-13c6.941-18.604.441-28.438-19.5-29.5-1.5-.833-2.667-2-3.5-3.5-.005-7.334 1.661-14.334 5-21a90.455 90.455 0 0 0 0-19 7.293 7.293 0 0 1-2-3c-.092-10.223-2.425-19.89-7-29-2.408-2.456-5.241-4.289-8.5-5.5a182.018 182.018 0 0 1-36-12c-8.843.776-15.509-2.558-20-10-11.765-7.026-24.432-9.359-38-7a142.037 142.037 0 0 0-36 15l-18 22c-2.334.339-4.668.172-7-.5a10.413 10.413 0 0 0-5 1.5c-8.289 5.234-15.456 11.734-21.5 19.5-4.807 6.891-6.974 14.557-6.5 23-.59 8.661 1.744 16.328 7 23a1004.343 1004.343 0 0 0 49-43.5 28.205 28.205 0 0 1 10.5-3.5c6.508.898 8.008 4.065 4.5 9.5a92.904 92.904 0 0 0-12 6 3487.564 3487.564 0 0 1-52 47.5c-7.881 8.535-14.547 17.868-20 28z"/><path style="opacity:1" fill="#f8f8f8" d="M363.5 311.5a307.54 307.54 0 0 0-23-7.5c-21.997-.5-43.997-.667-66-.5a479.48 479.48 0 0 1-9.5-52 95.012 95.012 0 0 1 13.5 9c2.197-.348 4.03-1.348 5.5-3 .849-3.061 2.349-5.728 4.5-8a229.363 229.363 0 0 0 12.5 46c2.488 5.298 6.155 6.298 11 3 .872-12.815-1.128-25.148-6-37a1127.756 1127.756 0 0 0-8-47c-2.653-2.694-5.82-3.527-9.5-2.5-2.456 2.408-4.289 5.241-5.5 8.5a144.828 144.828 0 0 1-6 16 44.742 44.742 0 0 0-9.5-5.5 310.367 310.367 0 0 1-20-7c-2.42-.687-4.587-.187-6.5 1.5a151.67 151.67 0 0 0 2 20 235.715 235.715 0 0 1 5 26 99.419 99.419 0 0 0 7 22 52.126 52.126 0 0 1 2.5 14c-1.714 1.238-3.714 1.905-6 2-1.336-4.604-4.503-6.938-9.5-7-5.494 2.99-11.327 5.324-17.5 7a87.413 87.413 0 0 0-5-16.5c4.758-4.059 10.091-7.392 16-10 7.634-6.987 6.301-11.154-4-12.5a194.67 194.67 0 0 0-17 7 263.365 263.365 0 0 1-5-22l1-2a755.28 755.28 0 0 1 25-10.5c2.448-3.142 2.281-6.308-.5-9.5-1.47-1.652-3.303-2.652-5.5-3a415.428 415.428 0 0 0-34 12.5 12.14 12.14 0 0 1-3.5 4.5c-.667 2-.667 4 0 6a128.076 128.076 0 0 1 9 34 687.365 687.365 0 0 0 13.5 43 2060.648 2060.648 0 0 0-38.5 38l-11 15a29.278 29.278 0 0 0-2.5 7 141.069 141.069 0 0 0-25-.5 432.182 432.182 0 0 1-50 7.5 1044.585 1044.585 0 0 0-5.5-144l-1-67a132.978 132.978 0 0 1-2.5-16c1.7.16 3.366-.006 5-.5 10.183-4.885 20.85-8.551 32-11a429.971 429.971 0 0 1 44-18.5 390.138 390.138 0 0 0 28-6.5 115.377 115.377 0 0 1 13-6 942.99 942.99 0 0 0 39-9 215.045 215.045 0 0 1 54-14 168.822 168.822 0 0 1 30-9c18.638-3.331 37.305-6.665 56-10a136.633 136.633 0 0 1 20-6.5c6.166 11.351 11 23.351 14.5 36a519.375 519.375 0 0 1 23.5 58.5 339.116 339.116 0 0 0-13 17.5 250.94 250.94 0 0 0-11 2.5c-13.783 7.449-24.616 17.949-32.5 31.5-4.404-4.481-9.571-5.648-15.5-3.5-7.407 6.064-7.74 12.398-1 19 3.688.45 7.354.283 11-.5a91.98 91.98 0 0 0 3.5 29c2.151 3.49 4.318 6.99 6.5 10.5a146.535 146.535 0 0 0-22 31.5z"/><path style="opacity:1" fill="#292929" d="M341.5 124.5c2.82-.252 5.486.248 8 1.5a301.963 301.963 0 0 1 24 17c12.587 14.255 26.087 27.422 40.5 39.5 2.06 6.938-.44 9.771-7.5 8.5-1.393-1.171-2.227-2.671-2.5-4.5a308.487 308.487 0 0 1-40.5-38.5l-15-9.5a214.87 214.87 0 0 0-6.5 37 2053.734 2053.734 0 0 0-16 72 33.225 33.225 0 0 0 .5 14c10.611-4.033 21.611-6.533 33-7.5a104.354 104.354 0 0 0 10-4.5c4.489.333 5.989 2.667 4.5 7-6.558 7.027-14.725 10.193-24.5 9.5a320.513 320.513 0 0 0-34 9.5c-4.933-2.016-5.933-5.182-3-9.5a4.934 4.934 0 0 1 3-.5c-.494-14.741.673-29.408 3.5-44a951.22 951.22 0 0 0 20-94 10.515 10.515 0 0 0 2.5-3z"/><path style="opacity:1" fill="#272727" d="M165.5 147.5c4.549-.575 8.382.758 11.5 4a804.854 804.854 0 0 0 15.5 74.5c-.369 3.39-2.035 6.057-5 8-8.013 6.011-16.68 11.011-26 15-6.487 2.067-11.32.234-14.5-5.5a13156.172 13156.172 0 0 0-15.5-77.5c0-3.333 1.333-6 4-8 10.565-2.021 20.565-5.521 30-10.5z"/><path style="opacity:1" fill="#282828" d="M359.5 156.5c4.016-.6 7.516.4 10.5 3 5.049 10.1 6.715 20.767 5 32l-2 16c-2.487 5.626-5.82 6.292-10 2a226.82 226.82 0 0 1-18-36c-.735-10.431 4.098-16.097 14.5-17z"/><path style="opacity:1" fill="#272727" d="M107.5 193.5a150.644 150.644 0 0 0 3.5 9c-.058-3.896-.892-7.562-2.5-11a315.43 315.43 0 0 1-4-17 12.906 12.906 0 0 1 1-4 50.51 50.51 0 0 0 12-6c2.197.348 4.03 1.348 5.5 3a289.4 289.4 0 0 0 4 26 795.746 795.746 0 0 1 10 38 64.218 64.218 0 0 1 0 16c-2.837 2.085-5.837 2.419-9 1a339.939 339.939 0 0 1-19-30c.9 11.94 3.733 23.44 8.5 34.5-.601 1.605-1.601 2.938-3 4-4.49.887-8.99 1.721-13.5 2.5-1.71.061-3.044-.606-4-2l-9-54a108.124 108.124 0 0 1-1-23c2.602-3.712 6.102-4.878 10.5-3.5a272.536 272.536 0 0 1 10 16.5z"/><path style="opacity:1" fill="#f3f3f3" d="M158.5 168.5c1.431.381 2.264 1.381 2.5 3a648.967 648.967 0 0 1 11.5 45.5 98.91 98.91 0 0 1-11 8 4.934 4.934 0 0 1-3 .5 505.707 505.707 0 0 0-8-49.5l1-3.5c2.849-.6 5.182-1.933 7-4z"/><path style="opacity:1" fill="#7d7d7d" d="M108.5 191.5c1.608 3.438 2.442 7.104 2.5 11a150.644 150.644 0 0 1-3.5-9c.838-.342 1.172-1.008 1-2z"/><path style="opacity:1" fill="#272727" d="M274.5 303.5a65.767 65.767 0 0 1-7 6.5 16.242 16.242 0 0 1-8 0c-.566-.995-1.233-1.828-2-2.5a52.126 52.126 0 0 0-2.5-14 99.419 99.419 0 0 1-7-22 235.715 235.715 0 0 0-5-26 151.67 151.67 0 0 1-2-20c1.913-1.687 4.08-2.187 6.5-1.5a310.367 310.367 0 0 0 20 7 44.742 44.742 0 0 1 9.5 5.5 144.828 144.828 0 0 0 6-16c1.211-3.259 3.044-6.092 5.5-8.5 3.68-1.027 6.847-.194 9.5 2.5a1127.756 1127.756 0 0 1 8 47c4.872 11.852 6.872 24.185 6 37-4.845 3.298-8.512 2.298-11-3a229.363 229.363 0 0 1-12.5-46c-2.151 2.272-3.651 4.939-4.5 8-1.47 1.652-3.303 2.652-5.5 3a95.012 95.012 0 0 0-13.5-9 479.48 479.48 0 0 0 9.5 52z"/><path style="opacity:1" fill="#282828" d="M251.5 309.5c-.539 2.542-1.872 4.708-4 6.5a105.728 105.728 0 0 1-22 12l-4 5c-3.159 1.084-5.492.25-7-2.5a687.365 687.365 0 0 1-13.5-43 128.076 128.076 0 0 0-9-34c-.667-2-.667-4 0-6a12.14 12.14 0 0 0 3.5-4.5 415.428 415.428 0 0 1 34-12.5c2.197.348 4.03 1.348 5.5 3 2.781 3.192 2.948 6.358.5 9.5a755.28 755.28 0 0 0-25 10.5l-1 2a263.365 263.365 0 0 0 5 22 194.67 194.67 0 0 1 17-7c10.301 1.346 11.634 5.513 4 12.5-5.909 2.608-11.242 5.941-16 10a87.413 87.413 0 0 1 5 16.5c6.173-1.676 12.006-4.01 17.5-7 4.997.062 8.164 2.396 9.5 7zM175.5 248.5c4.195.181 7.695 1.847 10.5 5 .667 1 .667 2 0 3a78.118 78.118 0 0 1-18.5 10 355.47 355.47 0 0 1 9.5 39 469.845 469.845 0 0 1 14 40c.755 2.803.422 5.47-1 8-5.517 3.552-11.351 4.719-17.5 3.5-4.452-3.377-5.118-7.377-2-12a1054.037 1054.037 0 0 1-19-72.5 26.147 26.147 0 0 1-12 1.5c-1.074-.739-1.741-1.739-2-3 .13-4.754 2.13-8.421 6-11 11.063-3.046 21.73-6.879 32-11.5zM117.5 268.5c3.35-.165 6.683.002 10 .5 5.694 4.944 5.027 8.944-2 12-6.47.625-7.637 3.458-3.5 8.5a311.874 311.874 0 0 0 10.5 60 11.25 11.25 0 0 0 3.5 1c6.191-3.49 10.358-1.823 12.5 5a4.933 4.933 0 0 1-1 2.5c-7.371 4.349-14.704 8.682-22 13a445.417 445.417 0 0 0-18.5 7.5c-2.151-.143-3.818-1.143-5-3a25.238 25.238 0 0 1 0-10 511.763 511.763 0 0 1 19.5-9 12.93 12.93 0 0 0-.5-5 152.41 152.41 0 0 1-8-22 1229.865 1229.865 0 0 1-6-40l-1-2c-4.324 1.874-8.824 2.707-13.5 2.5a30.72 30.72 0 0 1-4-8c.987-2.321 2.654-3.987 5-5 8.623-1.497 16.623-4.33 24-8.5z"/><path style="opacity:1" fill="#292929" d="M477.5 280.5c5.844.344 8.01 3.344 6.5 9a819.986 819.986 0 0 0-35.5 32.5c-15.185 12.875-26.019 28.708-32.5 47.5-.667 1.667-.667 3.333 0 5l8.5 8.5 17-1c2.885 1.933 3.552 4.433 2 7.5-6.72 5.945-14.387 7.445-23 4.5-8.157-5.31-13.824-12.477-17-21.5 4.327-17.991 12.827-33.657 25.5-47a3220.437 3220.437 0 0 0 48.5-45z"/><path style="opacity:1" fill="#2a2a2a" d="M421.5 286.5c6.361-.803 9.194 1.864 8.5 8-3.388 3.903-6.721 3.903-10 0-.718-2.907-.218-5.574 1.5-8z"/><path style="opacity:1" fill="#8ec472" d="M274.5 303.5c22.003-.167 44.003 0 66 .5a307.54 307.54 0 0 1 23 7.5c3.252 2.088 6.918 3.421 11 4a52.344 52.344 0 0 1 14 9c3.634 13.548-1.699 19.715-16 18.5-2.174-2.352-4.841-3.519-8-3.5-10.801-5.372-16.801-2.038-18 10-1.328 4.788-1.995 9.954-2 15.5.001 5.344.334 10.511 1 15.5v5c-.641 10.389.026 20.389 2 30a69.989 69.989 0 0 0 4.5 22 63.077 63.077 0 0 1 5.5 8c-1.145 3.811-1.312 7.811-.5 12 .608 1.566 1.442 2.9 2.5 4a8.43 8.43 0 0 0 .5 4c2.042 3.44 4.542 6.44 7.5 9a27.563 27.563 0 0 0 3.5 6c.499 3.986.666 7.986.5 12a20.69 20.69 0 0 1-1 5c-.958.453-1.792 1.119-2.5 2a4567.132 4567.132 0 0 1-4.5 21 155.328 155.328 0 0 0 10.5 36 81.316 81.316 0 0 0 2.5 3 18.478 18.478 0 0 1 4 6 79.801 79.801 0 0 0 6.5 9l1 4a101.553 101.553 0 0 1 11.5 12.5 110.18 110.18 0 0 1 13 12c8.183 2.688 15.183 7.188 21 13.5 1.131 1.574 1.298 3.241.5 5-6.438 9.753-9.105 20.42-8 32a56.087 56.087 0 0 1 3 10 91.767 91.767 0 0 0 13 22 39.212 39.212 0 0 1 11.5 6.5c2.626.995 5.293 1.328 8 1-15.41-9.896-25.077-23.729-29-41.5 2.572-19.16 9.905-36.16 22-51a72.006 72.006 0 0 1 12-12h6c4.855 1.52 8.522 4.52 11 9a212.703 212.703 0 0 0-2 8.5 645.696 645.696 0 0 1-15.5 19.5 31.774 31.774 0 0 0-2.5 7c5.888-.053 9.055-3.053 9.5-9 23.755-17.266 31.088-39.933 22-68a137.896 137.896 0 0 0-9-13c-1.904-3.423-2.737-7.09-2.5-11 1.452-3.975 3.952-7.308 7.5-10a8.43 8.43 0 0 0 .5-4c.722.418 1.222 1.084 1.5 2 4.166-1.303 8.333-1.303 12.5 0 2.336 2.118 2.003 4.118-1 6-2.029 11.427 2.638 18.594 14 21.5l3 3c11.346 3.839 21.68 9.506 31 17 5.779 7.112 12.279 13.612 19.5 19.5a51.798 51.798 0 0 0 6.5 10.5 362.695 362.695 0 0 1 25.5 19.5 15.39 15.39 0 0 1 3 6 55.337 55.337 0 0 1 8 6 151.963 151.963 0 0 1 15.5 24c1 1.333 2 1.333 3 0 2.54-2.539 3.374-5.539 2.5-9a242.904 242.904 0 0 0-21-36 287.47 287.47 0 0 0-31.5-25.5 388.157 388.157 0 0 0-24-23l-43-29c-3.997-4.141-7.33-8.641-10-13.5a169.696 169.696 0 0 0-5-17l.5-4a31.317 31.317 0 0 0 5-8c14.053-13.568 30.553-22.568 49.5-27a180.641 180.641 0 0 1 35-2 136.259 136.259 0 0 1 16 3.5c8.258 2.126 15.258 6.293 21 12.5a285.17 285.17 0 0 0 22.5 32 43.073 43.073 0 0 1 2 9c10.905 19.805 18.405 40.805 22.5 63a225.054 225.054 0 0 1-1 63c-4.341 26.665-14.175 50.998-29.5 73a110.481 110.481 0 0 1-16.5 15.5c7.419 10.805 5.086 18.972-7 24.5-18.076 3.444-36.409 4.944-55 4.5-16.507-1.922-32.841-5.255-49-10-9.406-4.983-19.406-8.15-30-9.5-2.405-1.268-5.072-1.935-8-2a196.738 196.738 0 0 1-35-8.5c-11.811-6.457-24.478-10.457-38-12-7.251-3.532-14.918-5.366-23-5.5a38.715 38.715 0 0 0-5-2.5 128.507 128.507 0 0 0-16-.5 377.974 377.974 0 0 0-17-1.5l-4-2c-7.751-.176-15.084-1.843-22-5a50.464 50.464 0 0 0-10-.5c-1.342-1.293-3.009-2.126-5-2.5-6.36-.857-12.693-1.691-19-2.5l-4-1c-4.776-7.958-3.776-15.124 3-21.5a79.6 79.6 0 0 1 19-8c4.288-4.599 9.621-6.766 16-6.5 7.008.166 14.008 0 21-.5.556-.383.889-.883 1-1.5h7c7.187.325 14.187-.009 21-1 1.011-3.612 1.178-7.279.5-11a128.11 128.11 0 0 1-17.5-20c-6.493-15.664-14.493-30.331-24-44-1.251-3.374-1.251-6.707 0-10a53.805 53.805 0 0 0 1-14 369.28 369.28 0 0 0 1-31c1.131-7.587 1.298-15.254.5-23l-2-2a80.162 80.162 0 0 0-4.5-13.5c-8.843-1.079-17.509-.413-26 2a45.89 45.89 0 0 1-11 6.5 662.585 662.585 0 0 0-7 17 171.087 171.087 0 0 0-29-9 30.465 30.465 0 0 0-1.5-9 320.65 320.65 0 0 1-9-21 134.196 134.196 0 0 1-9.5-10c4.318-3.893 3.984-7.393-1-10.5-2-.667-4-.667-6 0a701.656 701.656 0 0 0-5 3.5 371.016 371.016 0 0 1-22-11.5 3994.943 3994.943 0 0 0-27-7.5c-1.837-3.786-4.837-6.453-9-8l-2-5a15.894 15.894 0 0 0-1-6.5 508.832 508.832 0 0 0 3-15.5 81.493 81.493 0 0 0 14 3 49.299 49.299 0 0 1 2-11 128.495 128.495 0 0 1-15-3 29.278 29.278 0 0 1 2.5-7l11-15a2060.648 2060.648 0 0 1 38.5-38c1.508 2.75 3.841 3.584 7 2.5l4-5a105.728 105.728 0 0 0 22-12c2.128-1.792 3.461-3.958 4-6.5 2.286-.095 4.286-.762 6-2 .767.672 1.434 1.505 2 2.5 2.667.667 5.333.667 8 0a65.767 65.767 0 0 0 7-6.5z"/><path style="opacity:1" fill="#303030" d="M500.5 322.5c5.67-.161 8.503 2.506 8.5 8-5.692 5.971-9.859 5.137-12.5-2.5a32.924 32.924 0 0 1 4-5.5z"/><path style="opacity:1" fill="#7fa66a" d="M346.5 349.5a317.057 317.057 0 0 0-1 31c-.666-4.989-.999-10.156-1-15.5.005-5.546.672-10.712 2-15.5z"/><path style="opacity:1" fill="#292929" d="M555.5 374.5c12.979-1.618 24.146 2.049 33.5 11 3.861 6.994 4.528 14.327 2 22-6.987 12.326-16.154 22.826-27.5 31.5-4.326 2.438-8.826 4.271-13.5 5.5-2.034.146-3.701-.52-5-2a12.494 12.494 0 0 1 0-7c13.719-6.047 24.719-15.38 33-28 5.66-10.589 2.827-17.422-8.5-20.5l-14-1c-3.958-3.908-3.958-7.741 0-11.5z"/><path style="opacity:1" fill="#749663" d="M345.5 385.5a445.401 445.401 0 0 1 2 30c-1.974-9.611-2.641-19.611-2-30z"/><path style="opacity:1" fill="#2a2a2a" d="M411.5 428.5c9.4-.386 18.734.114 28 1.5a141.843 141.843 0 0 0 19 8c2.847 4.84 1.514 8.34-4 10.5a116.232 116.232 0 0 1-19-7.5 201.425 201.425 0 0 0-36 1c-4-3.667-4-7.333 0-11 4.137-.839 8.137-1.673 12-2.5z"/><path style="opacity:1" fill="#282928" d="M161.5 428.5c4.163 1.547 7.163 4.214 9 8-6.831 9.289-11.664 19.623-14.5 31-9.109 4.432-17.109 10.432-24 18-4.14 8.414-4.64 17.08-1.5 26 1.448-7.728 5.115-14.228 11-19.5 4.633-.871 7.633.962 9 5.5-5.606 11.391-7.439 23.391-5.5 36 6.727 5.964 14.561 9.297 23.5 10-.135-3.938-1.635-7.272-4.5-10-2.585-9.993-2.918-19.993-1-30 3.249-3.867 6.582-3.867 10 0 .298 8.697.965 17.364 2 26a98.91 98.91 0 0 0 8 11c2.302-1.977 4.302-4.31 6-7a168.008 168.008 0 0 1 6-13 36.185 36.185 0 0 0 2.5-15c-1.89.203-3.39-.463-4.5-2-2.187-4.134-3.187-8.468-3-13 1.264-2.107 3.097-3.107 5.5-3a25.93 25.93 0 0 1 3.5-9 179.617 179.617 0 0 0 10-15c3.4-2.914 6.9-5.58 10.5-8a701.656 701.656 0 0 1 5-3.5c2-.667 4-.667 6 0 4.984 3.107 5.318 6.607 1 10.5-4.524 1.543-8.524 3.877-12 7-6.728-1.051-11.895 1.282-15.5 7l-.5 5.5c.202 3.489 1.202 6.655 3 9.5a32.612 32.612 0 0 0 4 10 4.933 4.933 0 0 1-1 2.5c1.925-.135 3.925-.302 6-.5 4.038 3.012 8.038 6.012 12 9a35.559 35.559 0 0 0-14 3 20.222 20.222 0 0 0-5-1 130.775 130.775 0 0 1-2.5 11 231.575 231.575 0 0 0-9.5 18 65.412 65.412 0 0 1-15 12c-4.552 2.115-9.219 2.782-14 2-.111-.617-.444-1.117-1-1.5l-7-1a669.158 669.158 0 0 0-17-7.5 246.626 246.626 0 0 0-13-13.5c-1-.667-2-.667-3 0a719.022 719.022 0 0 0-53 33 106.602 106.602 0 0 0-26 9c-5.099 3.848-7.766 9.014-8 15.5a45.919 45.919 0 0 0-6 10 23.6 23.6 0 0 0 2.5 6 838.15 838.15 0 0 1 33 36c5.535 7.931 9.535 16.598 12 26a319.487 319.487 0 0 1 7.5 56.5 1239.875 1239.875 0 0 1-5.5 67.5 702.03 702.03 0 0 0 28-35 637.067 637.067 0 0 1 43.5-41.5c30.501-22.429 62.834-42.096 97-59a790.302 790.302 0 0 1 58-16 442.746 442.746 0 0 1 37-2.5 176.381 176.381 0 0 1-17.5-31c-3.018-3.386-5.518-7.053-7.5-11a112.97 112.97 0 0 0-.5-15c-2.618-2.5-5.785-3.834-9.5-4a78.855 78.855 0 0 0-7.5-15 571.666 571.666 0 0 1-25-38c-2.478-2.32-5.311-3.986-8.5-5-.111-.617-.444-1.117-1-1.5a130.775 130.775 0 0 0-11-2.5 268.838 268.838 0 0 1-14-4c3.28-2.905 4.613-6.571 4-11 .891.61 1.891.943 3 1a171.087 171.087 0 0 1 29 9 157.78 157.78 0 0 1 7.5 7 1471.924 1471.924 0 0 1 38.5 61 1482.531 1482.531 0 0 1 23.5 46 127.496 127.496 0 0 0 18 20c.891 2.998.391 5.664-1.5 8-2.921.872-5.921.872-9 0a301.113 301.113 0 0 1-23-2 168.612 168.612 0 0 1-25 2.5 354.91 354.91 0 0 1-36 9 390.581 390.581 0 0 0-25 9 714.973 714.973 0 0 0-86 53 768.408 768.408 0 0 0-42.5 40.5 1188.205 1188.205 0 0 0-40 52c-3.263 4.805-7.597 6.805-13 6-1.633-1.953-2.8-4.12-3.5-6.5a184.807 184.807 0 0 1 5.5-15.5 763.697 763.697 0 0 0 7.5-75c-.09-7.694-.59-15.361-1.5-23-.616-20.829-6.616-39.829-18-57a790.562 790.562 0 0 1-32-35c-5.623-8.69-4.623-16.357 3-23 2.305-12.777 9.472-21.61 21.5-26.5a146.79 146.79 0 0 0 23-8 1210.82 1210.82 0 0 1 48.5-30.5 163.12 163.12 0 0 1-4.5-25 49.849 49.849 0 0 1 2.5-13c6.41-11.074 15.41-19.408 27-25a141.994 141.994 0 0 1 15.5-32z"/><path style="opacity:1" fill="#f8f8f8" d="M170.5 436.5a3994.943 3994.943 0 0 1 27 7.5 371.016 371.016 0 0 0 22 11.5c-3.6 2.42-7.1 5.086-10.5 8a179.617 179.617 0 0 1-10 15 25.93 25.93 0 0 0-3.5 9c-2.403-.107-4.236.893-5.5 3-.187 4.532.813 8.866 3 13 1.11 1.537 2.61 2.203 4.5 2a36.185 36.185 0 0 1-2.5 15 168.008 168.008 0 0 0-6 13c-1.698 2.69-3.698 5.023-6 7a98.91 98.91 0 0 1-8-11 306.649 306.649 0 0 1-2-26c-3.418-3.867-6.751-3.867-10 0-1.918 10.007-1.585 20.007 1 30 2.865 2.728 4.365 6.062 4.5 10-8.939-.703-16.773-4.036-23.5-10-1.939-12.609-.106-24.609 5.5-36-1.367-4.538-4.367-6.371-9-5.5-5.885 5.272-9.552 11.772-11 19.5-3.14-8.92-2.64-17.586 1.5-26 6.891-7.568 14.891-13.568 24-18 2.836-11.377 7.669-21.711 14.5-31zM483.5 531.5c-.237 3.91.596 7.577 2.5 11a137.896 137.896 0 0 1 9 13c9.088 28.067 1.755 50.734-22 68-.445 5.947-3.612 8.947-9.5 9a31.774 31.774 0 0 1 2.5-7 645.696 645.696 0 0 0 15.5-19.5 212.703 212.703 0 0 1 2-8.5c4.624-.452 8.458-2.452 11.5-6 2.243-6.765-.257-9.598-7.5-8.5-4.602 2.97-9.602 4.803-15 5.5h-6c-12.338.167-24.671 0-37-.5-10.312-3.573-19.479-9.073-27.5-16.5a349.628 349.628 0 0 1-14.5-17c.502-1.021 1.168-1.188 2-.5a63.326 63.326 0 0 0 18 11.5c7.418-1.861 8.752-5.694 4-11.5-3.627-.564-6.793-2.064-9.5-4.5a130.02 130.02 0 0 1-18-29 633.307 633.307 0 0 1-1.5-22c2.222-.322 4.056.345 5.5 2 10.029 15.032 21.862 28.532 35.5 40.5 5.123 1.544 8.289-.29 9.5-5.5.667-1.333.667-2.667 0-4l-5-8c-11-8.333-20.667-18-29-29-3.169-6.18-7.503-11.514-13-16a90.91 90.91 0 0 1-15.5-27l15 7.5a500.544 500.544 0 0 0 66 58.5c2.714-.44 4.88-1.774 6.5-4a236.88 236.88 0 0 0 6-28c3.399-11.875 9.232-22.375 17.5-31.5 4.565-1.645 9.231-2.312 14-2 1.944 2.153 2.444 4.653 1.5 7.5l-8 12a163.68 163.68 0 0 0-10 30c-.608 10.396.892 20.396 4.5 30z"/><path style="opacity:1" fill="#282928" d="M364.5 339.5a359.967 359.967 0 0 0-.5 88c.898 4.295 2.731 8.128 5.5 11.5 4.377.188 8.377 1.521 12 4a179.617 179.617 0 0 1 15 10l33 33 18.5 14.5c2.649-13.943 7.316-27.276 14-40 5.667-12.836 15.5-19.503 29.5-20 16.952 1.257 22.119 9.591 15.5 25-11.535 15.438-16.702 32.772-15.5 52a8.43 8.43 0 0 1-.5 4c-3.548 2.692-6.048 6.025-7.5 10-3.608-9.604-5.108-19.604-4.5-30a163.68 163.68 0 0 1 10-30l8-12c.944-2.847.444-5.347-1.5-7.5-4.769-.312-9.435.355-14 2-8.268 9.125-14.101 19.625-17.5 31.5a236.88 236.88 0 0 1-6 28c-1.62 2.226-3.786 3.56-6.5 4a500.544 500.544 0 0 1-66-58.5l-15-7.5a90.91 90.91 0 0 0 15.5 27c5.497 4.486 9.831 9.82 13 16 8.333 11 18 20.667 29 29l5 8c.667 1.333.667 2.667 0 4-1.211 5.21-4.377 7.044-9.5 5.5-13.638-11.968-25.471-25.468-35.5-40.5-1.444-1.655-3.278-2.322-5.5-2 .372 7.337.872 14.671 1.5 22a130.02 130.02 0 0 0 18 29c2.707 2.436 5.873 3.936 9.5 4.5 4.752 5.806 3.418 9.639-4 11.5a63.326 63.326 0 0 1-18-11.5c-.832-.688-1.498-.521-2 .5a349.628 349.628 0 0 0 14.5 17c8.021 7.427 17.188 12.927 27.5 16.5 12.329.5 24.662.667 37 .5a72.006 72.006 0 0 0-12 12c-8.34.166-16.673 0-25-.5a86.35 86.35 0 0 1-10-3 188.131 188.131 0 0 1-22-14 140.417 140.417 0 0 0-17-17.5 18.478 18.478 0 0 0-4-6 52.793 52.793 0 0 1 1-13.5 110.536 110.536 0 0 1-5.5-8.5 2400.62 2400.62 0 0 0-1.5-40 20.69 20.69 0 0 0 1-5l5-5a72.496 72.496 0 0 1-5.5-10 14.698 14.698 0 0 0-3.5-3 128.376 128.376 0 0 0-8-13c-1.128-4.513-1.128-9.013 0-13.5-.556-1.011-1.222-1.844-2-2.5a63.077 63.077 0 0 0-5.5-8 69.989 69.989 0 0 1-4.5-22 445.401 445.401 0 0 0-2-30v-5a317.057 317.057 0 0 1 1-31c1.199-12.038 7.199-15.372 18-10z"/><path style="opacity:1" fill="#d0daca" d="M357.5 445.5c.778.656 1.444 1.489 2 2.5-1.128 4.487-1.128 8.987 0 13.5-1.058-1.1-1.892-2.434-2.5-4-.812-4.189-.645-8.189.5-12z"/><path style="opacity:1" fill="#99c483" d="M591.5 458.5c-11.762-.466-23.429.2-35 2 3.114-1.456 6.448-2.622 10-3.5a100.2 100.2 0 0 1 20 0c1.882.198 3.548.698 5 1.5z"/><path style="opacity:1" fill="#f5f8f3" d="M231.5 462.5a134.196 134.196 0 0 0 9.5 10 320.65 320.65 0 0 0 9 21 30.465 30.465 0 0 1 1.5 9 5.727 5.727 0 0 1-3-1c-2.052-6.555-6.386-11.055-13-13.5-4.007-3.002-6.841-6.835-8.5-11.5a157.78 157.78 0 0 0-7.5-7c3.476-3.123 7.476-5.457 12-7z"/><path style="opacity:1" fill="#d0e0c9" d="M359.5 461.5a128.376 128.376 0 0 1 8 13c-2.958-2.56-5.458-5.56-7.5-9a8.43 8.43 0 0 1-.5-4z"/><path style="opacity:1" fill="#8ec373" d="M219.5 469.5a157.78 157.78 0 0 1 7.5 7c1.659 4.665 4.493 8.498 8.5 11.5 6.614 2.445 10.948 6.945 13 13.5.613 4.429-.72 8.095-4 11-5.793 3.98-11.46 3.98-17 0a2840.874 2840.874 0 0 0-12-9c-3.04-4.03-6.04-8.03-9-12-1.798-2.845-2.798-6.011-3-9.5l.5-5.5c3.605-5.718 8.772-8.051 15.5-7z"/><path style="opacity:1" fill="#dce3d9" d="M367.5 474.5c1.294.79 2.461 1.79 3.5 3a72.496 72.496 0 0 0 5.5 10l-5 5a72.367 72.367 0 0 0-.5-12 27.563 27.563 0 0 1-3.5-6z"/><path style="opacity:1" fill="#f9faf9" d="M330.5 524.5a808.978 808.978 0 0 0-2 26.5c.008 1.707.342 3.207 1 4.5a53.805 53.805 0 0 1-1 14c-1.902 2.837-2.569 6.171-2 10a1471.924 1471.924 0 0 0-38.5-61 157.78 157.78 0 0 0-7.5-7 662.585 662.585 0 0 1 7-17 45.89 45.89 0 0 0 11-6.5c8.491-2.413 17.157-3.079 26-2a80.162 80.162 0 0 1 4.5 13.5l2 2c.798 7.746.631 15.413-.5 23z"/><path style="opacity:1" fill="#d8e1d3" d="M206.5 491.5c2.96 3.97 5.96 7.97 9 12-2.075.198-4.075.365-6 .5a4.933 4.933 0 0 0 1-2.5 32.612 32.612 0 0 1-4-10z"/><path style="opacity:1" fill="#eceeea" d="M370.5 497.5a2400.62 2400.62 0 0 1 1.5 40 110.536 110.536 0 0 0 5.5 8.5 52.793 52.793 0 0 0-1 13.5 81.316 81.316 0 0 1-2.5-3 155.328 155.328 0 0 1-10.5-36 4567.132 4567.132 0 0 0 4.5-21c.708-.881 1.542-1.547 2.5-2z"/><path style="opacity:1" fill="#f8f9f8" d="M227.5 512.5c5.54 3.98 11.207 3.98 17 0a268.838 268.838 0 0 0 14 4c.843 1.673 2.176 2.84 4 3.5 2.646.497 5.313.664 8 .5 3.189 1.014 6.022 2.68 8.5 5a571.666 571.666 0 0 0 25 38 78.855 78.855 0 0 1 7.5 15 73.133 73.133 0 0 1-17-1c-4.071-7.567-9.404-14.067-16-19.5a49.226 49.226 0 0 0-14 0c-2.468 2.228-3.635 5.062-3.5 8.5-6.199-17.862-17.699-31.028-34.5-39.5-6-.667-12-.667-18 0l-1.5 1.5a121.19 121.19 0 0 0 0 22c9.518 2.816 17.518 8.149 24 16 10.419 13.176 15.419 28.176 15 45a35916.359 35916.359 0 0 0-31-51 461.727 461.727 0 0 1-18.5-17 231.575 231.575 0 0 1 9.5-18 130.775 130.775 0 0 0 2.5-11c1.699.12 3.365.454 5 1a35.559 35.559 0 0 1 14-3z"/><path style="opacity:1" fill="#93b283" d="M258.5 516.5c3.688.672 7.355 1.505 11 2.5.556.383.889.883 1 1.5a32.462 32.462 0 0 1-8-.5c-1.824-.66-3.157-1.827-4-3.5z"/><path style="opacity:1" fill="#8ec473" d="M311.5 578.5c3.715.166 6.882 1.5 9.5 4 .499 4.989.666 9.989.5 15 .445 2.865-.222 5.365-2 7.5-5.991.499-11.991.666-18 .5.166 9.006 0 18.006-.5 27l-1.5 1.5c-5.584.806-11.084.639-16.5-.5a113.145 113.145 0 0 1-2-20 4.457 4.457 0 0 0-1.5-2c-4.497 2.992-7.664 6.992-9.5 12l-3.5 3.5a112.97 112.97 0 0 1-15 .5 112.97 112.97 0 0 1-.5 15c-8.782 2.153-17.282 5.32-25.5 9.5a180.042 180.042 0 0 0-20 17c-5.584.806-11.084.639-16.5-.5a20.64 20.64 0 0 1-2-6c-.173-5.516-.673-10.849-1.5-16-.882-4.093-2.549-7.76-5-11-13.928-22.745-33.928-37.245-60-43.5l-2.5-2.5a100.2 100.2 0 0 1 0-20c2.609-1.608 3.942-3.941 4-7a150.827 150.827 0 0 1 20.5-15 669.158 669.158 0 0 1 17 7.5l7 1c.556.383.889.883 1 1.5.316 3.478-.184 6.812-1.5 10a47.099 47.099 0 0 0-10.5 7c23.563 12.231 40.563 30.564 51 55a78.855 78.855 0 0 1 15-7.5 110.35 110.35 0 0 1-14.5-25.5c-6.641-9.972-14.641-18.639-24-26-1.388-4.872-1.888-9.872-1.5-15a65.412 65.412 0 0 0 15-12 461.727 461.727 0 0 0 18.5 17c10.365 17.02 20.698 34.02 31 51 .419-16.824-4.581-31.824-15-45-6.482-7.851-14.482-13.184-24-16a121.19 121.19 0 0 1 0-22l1.5-1.5c6-.667 12-.667 18 0 16.801 8.472 28.301 21.638 34.5 39.5-.135-3.438 1.032-6.272 3.5-8.5a49.226 49.226 0 0 1 14 0c6.596 5.433 11.929 11.933 16 19.5a73.133 73.133 0 0 0 17 1z"/><path style="opacity:1" fill="#f9f9f8" d="M142.5 547.5a150.827 150.827 0 0 0-20.5 15c-.058 3.059-1.391 5.392-4 7a100.2 100.2 0 0 0 0 20l2.5 2.5c26.072 6.255 46.072 20.755 60 43.5v3c-5.858-.322-11.525.011-17 1-3.266.129-6.266 1.129-9 3-3.957-7.756-9.624-13.922-17-18.5l-6.5-.5c-3.243-.193-6.243.473-9 2l-1 14c-6.437-20.427-18.27-36.927-35.5-49.5-7.846-4.192-16.18-5.526-25-4a6.977 6.977 0 0 0-2.5 3.5c-.667 6-.667 12 0 18a6.977 6.977 0 0 0 2.5 3.5c6.396 1.697 12.062 4.697 17 9 17.575 15.871 26.575 35.704 27 59.5a199.056 199.056 0 0 1-2 28c-1.007 2.822-1.84 5.822-2.5 9a169.242 169.242 0 0 0 0 26c5.416 1.139 10.916 1.306 16.5.5a6.978 6.978 0 0 0 2.5-3.5 115.788 115.788 0 0 1 11-30 108.477 108.477 0 0 1 12-21c1.292 6.162 1.959 12.496 2 19l1.5 1.5c5 .667 10 .667 15 0 1.655-1.444 2.322-3.278 2-5.5 1.274-10.526 1.274-21.193 0-32 5.361-3.842 11.361-6.342 18-7.5.566-.995 1.233-1.828 2-2.5.827-5.151 1.327-10.484 1.5-16 .383.556.883.889 1.5 1 .827 5.151 1.327 10.484 1.5 16a20.64 20.64 0 0 0 2 6c5.416 1.139 10.916 1.306 16.5.5a180.042 180.042 0 0 1 20-17c8.218-4.18 16.718-7.347 25.5-9.5.499-4.989.666-9.989.5-15a112.97 112.97 0 0 0 15-.5l3.5-3.5c1.836-5.008 5.003-9.008 9.5-12a4.457 4.457 0 0 1 1.5 2c.078 6.774.745 13.441 2 20 5.416 1.139 10.916 1.306 16.5.5l1.5-1.5c.5-8.994.666-17.994.5-27 6.009.166 12.009-.001 18-.5 1.778-2.135 2.445-4.635 2-7.5 1.982 3.947 4.482 7.614 7.5 11a176.381 176.381 0 0 0 17.5 31 442.746 442.746 0 0 0-37 2.5 790.302 790.302 0 0 0-58 16c-34.166 16.904-66.499 36.571-97 59a637.067 637.067 0 0 0-43.5 41.5 702.03 702.03 0 0 1-28 35 1239.875 1239.875 0 0 0 5.5-67.5 319.487 319.487 0 0 0-7.5-56.5c-2.465-9.402-6.465-18.069-12-26a838.15 838.15 0 0 0-33-36 23.6 23.6 0 0 1-2.5-6 45.919 45.919 0 0 1 6-10c.234-6.486 2.901-11.652 8-15.5a106.602 106.602 0 0 1 26-9 719.022 719.022 0 0 1 53-33c1-.667 2-.667 3 0a246.626 246.626 0 0 1 13 13.5z"/><path style="opacity:1" fill="#a9cc96" d="M330.5 524.5a369.28 369.28 0 0 1-1 31c-.658-1.293-.992-2.793-1-4.5.533-8.998 1.2-17.831 2-26.5z"/><path style="opacity:1" fill="#fafbf9" d="M181.5 555.5c-.388 5.128.112 10.128 1.5 15 9.359 7.361 17.359 16.028 24 26a110.35 110.35 0 0 0 14.5 25.5 78.855 78.855 0 0 0-15 7.5c-10.437-24.436-27.437-42.769-51-55a47.099 47.099 0 0 1 10.5-7c1.316-3.188 1.816-6.522 1.5-10 4.781.782 9.448.115 14-2z"/><path style="opacity:1" fill="#c0deae" d="M506.5 516.5c2.67 4.859 6.003 9.359 10 13.5l43 29a388.157 388.157 0 0 1 24 23 287.47 287.47 0 0 1 31.5 25.5 242.904 242.904 0 0 1 21 36c.874 3.461.04 6.461-2.5 9-1 1.333-2 1.333-3 0a151.963 151.963 0 0 0-15.5-24 55.337 55.337 0 0 0-8-6 15.39 15.39 0 0 0-3-6 362.695 362.695 0 0 0-25.5-19.5 51.798 51.798 0 0 1-6.5-10.5c-7.221-5.888-13.721-12.388-19.5-19.5-9.32-7.494-19.654-13.161-31-17l-3-3c-11.362-2.906-16.029-10.073-14-21.5 3.003-1.882 3.336-3.882 1-6a2.428 2.428 0 0 0 2-.5c-.752-.671-1.086-1.504-1-2.5z"/><path style="opacity:1" fill="#f5f8f3" d="M380.5 565.5a140.417 140.417 0 0 1 17 17.5 188.131 188.131 0 0 0 22 14 86.35 86.35 0 0 0 10 3c8.327.5 16.66.666 25 .5-12.095 14.84-19.428 31.84-22 51 3.923 17.771 13.59 31.604 29 41.5-2.707.328-5.374-.005-8-1a39.212 39.212 0 0 0-11.5-6.5 91.767 91.767 0 0 1-13-22 56.087 56.087 0 0 0-3-10c-1.105-11.58 1.562-22.247 8-32 .798-1.759.631-3.426-.5-5-5.817-6.312-12.817-10.812-21-13.5a110.18 110.18 0 0 0-13-12 101.553 101.553 0 0 0-11.5-12.5l-1-4a79.801 79.801 0 0 1-6.5-9z"/><path style="opacity:1" fill="#2b2c2b" d="M483.5 597.5c-2.478-4.48-6.145-7.48-11-9 5.398-.697 10.398-2.53 15-5.5 7.243-1.098 9.743 1.735 7.5 8.5-3.042 3.548-6.876 5.548-11.5 6z"/><path style="opacity:1" fill="#8ec473" d="M163.5 639.5c5.676-.166 11.343.001 17 .5l1.5 1.5c.5 6.658.666 13.325.5 20-.767.672-1.434 1.505-2 2.5-6.639 1.158-12.639 3.658-18 7.5-.11 10.457-.11 21.124 0 32 .322 2.222-.345 4.056-2 5.5-5 .667-10 .667-15 0l-1.5-1.5c-.041-6.504-.708-12.838-2-19a108.477 108.477 0 0 0-12 21 115.788 115.788 0 0 0-11 30 6.978 6.978 0 0 1-2.5 3.5c-5.584.806-11.084.639-16.5-.5a169.242 169.242 0 0 1 0-26c.66-3.178 1.493-6.178 2.5-9 2.748-9.218 3.414-18.551 2-28-.425-23.796-9.425-43.629-27-59.5-4.938-4.303-10.604-7.303-17-9a6.977 6.977 0 0 1-2.5-3.5c-.667-6-.667-12 0-18a6.977 6.977 0 0 1 2.5-3.5c8.82-1.526 17.154-.192 25 4 17.23 12.573 29.063 29.073 35.5 49.5l1-14c2.757-1.527 5.757-2.193 9-2l6.5.5c7.376 4.578 13.043 10.744 17 18.5 2.734-1.871 5.734-2.871 9-3z"/><path style="opacity:1" fill="#e6ebe2" d="M328.5 569.5c-1.251 3.293-1.251 6.626 0 10 9.507 13.669 17.507 28.336 24 44a128.11 128.11 0 0 0 17.5 20c.678 3.721.511 7.388-.5 11-1.291.237-2.291-.096-3-1 1.891-2.336 2.391-5.002 1.5-8a127.496 127.496 0 0 1-18-20 1482.531 1482.531 0 0 0-23.5-46c-.569-3.829.098-7.163 2-10z"/><path style="opacity:1" fill="#effae8" d="M678.5 591.5c.768.763 1.268 1.763 1.5 3l.5 10c-.712 10.697-2.046 21.03-4 31a416.255 416.255 0 0 0 2-44z"/><path style="opacity:1" fill="#9ac485" d="M675.5 578.5c1.564 4.087 2.564 8.421 3 13a416.255 416.255 0 0 1-2 44l-2 6a225.054 225.054 0 0 0 1-63z"/><path style="opacity:1" fill="#e9f4e2" d="M180.5 635.5c2.451 3.24 4.118 6.907 5 11-.617-.111-1.117-.444-1.5-1-.173 5.516-.673 10.849-1.5 16 .166-6.675 0-13.342-.5-20l-1.5-1.5a145.053 145.053 0 0 0-17-.5c5.475-.989 11.142-1.322 17-1v-3z"/><path style="opacity:1" fill="#f8fcf4" d="M123.5 649.5c3.645 1.645 6.312 4.312 8 8a74.335 74.335 0 0 0-6.5 8 233.707 233.707 0 0 1-1.5-16z"/><path style="opacity:1" fill="#a5be98" d="M357.5 653.5c3.079.872 6.079.872 9 0 .709.904 1.709 1.237 3 1-6.813.991-13.813 1.325-21 1l9-2z"/><path style="opacity:1" fill="#abd099" d="M341.5 655.5c-.111.617-.444 1.117-1 1.5-6.992.5-13.992.666-21 .5a210.931 210.931 0 0 1 22-2z"/><path style="opacity:1" fill="#afd39f" d="M162.5 671.5c1.274 10.807 1.274 21.474 0 32-.11-10.876-.11-21.543 0-32z"/><path style="opacity:1" fill="#a5c894" d="M104.5 679.5c1.414 9.449.748 18.782-2 28a199.056 199.056 0 0 0 2-28z"/><path style="opacity:1" fill="#252525" d="m281.5 693.5 4 1c7.717 2.411 15.717 4.078 24 5 3.35-.165 6.683.002 10 .5 6.916 3.157 14.249 4.824 22 5l4 2c5.689.373 11.355.873 17 1.5a199.346 199.346 0 0 0 21 3c8.082.134 15.749 1.968 23 5.5 13.522 1.543 26.189 5.543 38 12a196.738 196.738 0 0 0 35 8.5c2.338 1.54 5.005 2.206 8 2 10.594 1.35 20.594 4.517 30 9.5 16.159 4.745 32.493 8.078 49 10 18.591.444 36.924-1.056 55-4.5 6.374 15.229 7.54 30.895 3.5 47a177.152 177.152 0 0 0-8 24c-1.256 3.516-3.256 6.516-6 9a283.633 283.633 0 0 0 0 57 301.794 301.794 0 0 1 11 32 276.838 276.838 0 0 1 21 52c14.279 11.582 25.446 25.58 33.5 42h-221c-5.219-12.78-11.719-24.776-19.5-36l-13-29a1030.485 1030.485 0 0 1-23-100 661.392 661.392 0 0 0-10-27 362.091 362.091 0 0 0-19 26 491.64 491.64 0 0 0-23.5 64c8.879 13.099 15.046 27.432 18.5 43l16 30a498.989 498.989 0 0 1 10.5 29h-224c.17-2.35.503-4.68 1-7a53.73 53.73 0 0 1-2.5-14c-2.146-2.626-3.479-5.626-4-9a598.069 598.069 0 0 1-2-54 1419.339 1419.339 0 0 0 12-60 418.388 418.388 0 0 1 25-72 1134.304 1134.304 0 0 1 44-65c14.478-13.304 27.645-27.637 39.5-43z"/><path style="opacity:1" fill="#81aa6d" d="M285.5 694.5c6.307.809 12.64 1.643 19 2.5 1.991.374 3.658 1.207 5 2.5-8.283-.922-16.283-2.589-24-5z"/><path style="opacity:1" fill="#7fa76c" d="M362.5 708.5c5.344-.166 10.677.001 16 .5a38.715 38.715 0 0 1 5 2.5 199.346 199.346 0 0 1-21-3z"/><path style="opacity:1" fill="#435b37" d="M479.5 737.5c2.928.065 5.595.732 8 2-2.995.206-5.662-.46-8-2z"/><path style="opacity:1" fill="#f9f9f9" d="M455.5 1017.5h-63a498.989 498.989 0 0 0-10.5-29l-16-30c-3.454-15.568-9.621-29.901-18.5-43a491.64 491.64 0 0 1 23.5-64 362.091 362.091 0 0 1 19-26 661.392 661.392 0 0 1 10 27 1030.485 1030.485 0 0 0 23 100l13 29c7.781 11.224 14.281 23.22 19.5 36z"/></svg>