<?xml version="1.0" encoding="UTF-8"?>
<!DOCTYPE svg PUBLIC "-//W3C//DTD SVG 1.1//EN" "http://www.w3.org/Graphics/SVG/1.1/DTD/svg11.dtd">
<svg xmlns="http://www.w3.org/2000/svg" version="1.1" width="720px" height="1018px" style="shape-rendering:geometricPrecision; text-rendering:geometricPrecision; image-rendering:optimizeQuality; fill-rule:evenodd; clip-rule:evenodd" xmlns:xlink="http://www.w3.org/1999/xlink">
<g><path style="opacity:1" fill="#fbfbfb" d="M -0.5,-0.5 C 239.5,-0.5 479.5,-0.5 719.5,-0.5C 719.5,338.833 719.5,678.167 719.5,1017.5C 705.167,1017.5 690.833,1017.5 676.5,1017.5C 668.446,1001.08 657.279,987.082 643,975.5C 637.77,957.48 630.77,940.147 622,923.5C 618.931,912.625 615.264,901.958 611,891.5C 609.086,872.505 609.086,853.505 611,834.5C 613.744,832.016 615.744,829.016 617,825.5C 619.094,817.311 621.761,809.311 625,801.5C 629.04,785.395 627.874,769.729 621.5,754.5C 633.586,748.972 635.919,740.805 628.5,730C 634.527,725.402 640.027,720.235 645,714.5C 660.325,692.498 670.159,668.165 674.5,641.5C 675.167,639.5 675.833,637.5 676.5,635.5C 678.454,625.53 679.788,615.197 680.5,604.5C 680.333,601.167 680.167,597.833 680,594.5C 679.768,593.263 679.268,592.263 678.5,591.5C 678.064,586.921 677.064,582.587 675.5,578.5C 671.405,556.305 663.905,535.305 653,515.5C 652.654,512.424 651.988,509.424 651,506.5C 642.751,496.325 635.251,485.658 628.5,474.5C 622.758,468.293 615.758,464.126 607.5,462C 602.197,460.504 596.864,459.337 591.5,458.5C 590.048,457.698 588.382,457.198 586.5,457C 579.833,456.333 573.167,456.333 566.5,457C 562.948,457.878 559.614,459.044 556.5,460.5C 537.553,464.932 521.053,473.932 507,487.5C 505.729,490.433 504.062,493.099 502,495.5C 501.833,496.833 501.667,498.167 501.5,499.5C 503.467,505.095 505.134,510.761 506.5,516.5C 506.414,517.496 506.748,518.329 507.5,519C 506.906,519.464 506.239,519.631 505.5,519.5C 501.333,518.197 497.166,518.197 493,519.5C 492.722,518.584 492.222,517.918 491.5,517.5C 490.298,498.272 495.465,480.938 507,465.5C 513.619,450.091 508.452,441.757 491.5,440.5C 477.5,440.997 467.667,447.664 462,460.5C 455.316,473.224 450.649,486.557 448,500.5C 441.833,495.667 435.667,490.833 429.5,486C 418.419,474.919 407.419,463.919 396.5,453C 391.672,449.419 386.672,446.085 381.5,443C 377.877,440.521 373.877,439.188 369.5,439C 366.731,435.628 364.898,431.795 364,427.5C 360.568,398.135 360.734,368.802 364.5,339.5C 367.659,339.481 370.326,340.648 372.5,343C 386.801,344.215 392.134,338.048 388.5,324.5C 384.342,320.772 379.676,317.772 374.5,315.5C 379.953,305.368 386.619,296.035 394.5,287.5C 411.983,271.851 429.316,256.018 446.5,240C 450.371,237.703 454.371,235.703 458.5,234C 462.008,228.565 460.508,225.398 454,224.5C 450.263,224.975 446.763,226.142 443.5,228C 427.613,243.057 411.279,257.557 394.5,271.5C 389.244,264.828 386.91,257.161 387.5,248.5C 387.026,240.057 389.193,232.391 394,225.5C 400.044,217.734 407.211,211.234 415.5,206C 417.034,205.077 418.701,204.577 420.5,204.5C 422.832,205.172 425.166,205.339 427.5,205C 433.5,197.667 439.5,190.333 445.5,183C 456.812,176.344 468.812,171.344 481.5,168C 495.068,165.641 507.735,167.974 519.5,175C 523.991,182.442 530.657,185.776 539.5,185C 551.063,190.248 563.063,194.248 575.5,197C 578.759,198.211 581.592,200.044 584,202.5C 588.575,211.61 590.908,221.277 591,231.5C 591.419,232.672 592.085,233.672 593,234.5C 593.667,240.833 593.667,247.167 593,253.5C 589.661,260.166 587.995,267.166 588,274.5C 588.833,276 590,277.167 591.5,278C 611.441,279.062 617.941,288.896 611,307.5C 608.81,312.363 605.81,316.696 602,320.5C 597.7,328.09 598.867,334.59 605.5,340C 612.333,341.167 615.167,338.333 614,331.5C 611.219,329.687 610.885,327.354 613,324.5C 615.333,322.167 617.667,319.833 620,317.5C 621.218,312.636 622.885,307.969 625,303.5C 627.55,291.18 624.05,281.014 614.5,273C 610.114,270.594 605.448,269.094 600.5,268.5C 605.082,256.601 606.582,244.268 605,231.5C 602.658,226.16 601.325,220.493 601,214.5C 598.949,209.141 596.949,203.807 595,198.5C 591.285,192.556 586.118,188.389 579.5,186C 566.094,183.816 553.427,179.482 541.5,173C 537.75,172.74 534.084,172.073 530.5,171C 529.21,168.708 527.543,166.708 525.5,165C 510.512,156.834 494.512,154.167 477.5,157C 471.666,158.056 466.166,159.889 461,162.5C 454.854,146.534 447.854,130.867 440,115.5C 435.973,99.422 429.973,84.0887 422,69.5C 420.003,60.1908 418.003,50.8574 416,41.5C 414.25,36.7507 410.917,33.7507 406,32.5C 318.604,36.7963 235.104,56.963 155.5,93C 122.376,102.788 89.7089,114.121 57.5,127C 49.4457,129.129 41.4457,131.462 33.5,134C 30.4384,135.061 27.9384,136.894 26,139.5C 25.3333,154.167 25.3333,168.833 26,183.5C 28.6667,198.167 31.3333,212.833 34,227.5C 38.4067,271.468 42.74,315.468 47,359.5C 50.2785,376.891 53.9452,394.225 58,411.5C 59.5199,417.82 59.8532,424.153 59,430.5C 60.5549,433.055 62.7215,434.888 65.5,436C 80.3703,437.412 95.037,436.412 109.5,433C 122.2,432.323 134.867,431.323 147.5,430C 152.324,429.093 156.324,426.926 159.5,423.5C 160.167,425.167 160.833,426.833 161.5,428.5C 155.008,438.485 149.842,449.151 146,460.5C 134.41,466.092 125.41,474.426 119,485.5C 117.589,489.72 116.756,494.053 116.5,498.5C 117.369,507.055 118.869,515.388 121,523.5C 104.581,533.292 88.4139,543.458 72.5,554C 65.0593,557.302 57.3926,559.969 49.5,562C 37.4719,566.89 30.3052,575.723 28,588.5C 20.3769,595.143 19.3769,602.81 25,611.5C 35.2979,623.466 45.9646,635.133 57,646.5C 68.3836,663.671 74.3836,682.671 75,703.5C 75.9092,711.139 76.4092,718.806 76.5,726.5C 75.2343,751.625 72.7343,776.625 69,801.5C 66.9373,806.583 65.104,811.75 63.5,817C 64.2007,819.38 65.3674,821.547 67,823.5C 72.4032,824.305 76.7365,822.305 80,817.5C 92.849,799.806 106.182,782.473 120,765.5C 133.688,751.423 147.855,737.923 162.5,725C 189.844,705.351 218.51,687.684 248.5,672C 256.735,668.715 265.069,665.715 273.5,663C 285.644,660.631 297.644,657.631 309.5,654C 317.908,653.787 326.241,652.954 334.5,651.5C 342.147,652.461 349.813,653.128 357.5,653.5C 354.5,654.167 351.5,654.833 348.5,655.5C 346.167,655.5 343.833,655.5 341.5,655.5C 333.986,655.796 326.653,656.462 319.5,657.5C 313.121,657.234 307.788,659.401 303.5,664C 296.801,665.851 290.467,668.518 284.5,672C 277.724,678.376 276.724,685.542 281.5,693.5C 269.645,708.863 256.478,723.196 242,736.5C 226.591,757.648 211.924,779.315 198,801.5C 187.466,824.768 179.133,848.768 173,873.5C 169.427,893.607 165.427,913.607 161,933.5C 160.853,951.519 161.519,969.519 163,987.5C 163.521,990.874 164.854,993.874 167,996.5C 167.217,1001.3 168.051,1005.97 169.5,1010.5C 169.003,1012.82 168.67,1015.15 168.5,1017.5C 112.167,1017.5 55.8333,1017.5 -0.5,1017.5C -0.5,678.167 -0.5,338.833 -0.5,-0.5 Z"/></g>
<g><path style="opacity:1" fill="#262626" d="M 374.5,315.5 C 370.418,314.921 366.752,313.588 363.5,311.5C 369.434,300.058 376.768,289.558 385.5,280C 383.318,276.49 381.151,272.99 379,269.5C 376.289,260.022 375.122,250.355 375.5,240.5C 371.854,241.283 368.188,241.45 364.5,241C 357.76,234.398 358.093,228.064 365.5,222C 371.429,219.852 376.596,221.019 381,225.5C 388.884,211.949 399.717,201.449 413.5,194C 417.142,193.086 420.808,192.252 424.5,191.5C 428.655,185.515 432.988,179.682 437.5,174C 430.823,153.953 422.989,134.453 414,115.5C 410.5,102.851 405.666,90.8513 399.5,79.5C 392.71,81.1386 386.044,83.3052 379.5,86C 360.805,89.3354 342.138,92.6687 323.5,96C 313.226,98.0688 303.226,101.069 293.5,105C 274.884,107.324 256.884,111.991 239.5,119C 226.611,122.265 213.611,125.265 200.5,128C 196.016,129.743 191.683,131.743 187.5,134C 178.343,136.488 169.01,138.655 159.5,140.5C 144.402,145.889 129.736,152.056 115.5,159C 104.35,161.449 93.683,165.115 83.5,170C 81.8659,170.494 80.1992,170.66 78.5,170.5C 79.0068,175.875 79.8402,181.208 81,186.5C 81.3333,208.833 81.6667,231.167 82,253.5C 87.1476,301.359 88.981,349.359 87.5,397.5C 104.311,395.976 120.978,393.476 137.5,390C 145.849,389.427 154.182,389.593 162.5,390.5C 167.431,391.796 172.431,392.796 177.5,393.5C 176.417,397.085 175.751,400.751 175.5,404.5C 170.728,403.907 166.061,402.907 161.5,401.5C 160.582,406.673 159.582,411.839 158.5,417C 159.287,419.099 159.62,421.266 159.5,423.5C 156.324,426.926 152.324,429.093 147.5,430C 134.867,431.323 122.2,432.323 109.5,433C 95.037,436.412 80.3703,437.412 65.5,436C 62.7215,434.888 60.5549,433.055 59,430.5C 59.8532,424.153 59.5199,417.82 58,411.5C 53.9452,394.225 50.2785,376.891 47,359.5C 42.74,315.468 38.4067,271.468 34,227.5C 31.3333,212.833 28.6667,198.167 26,183.5C 25.3333,168.833 25.3333,154.167 26,139.5C 27.9384,136.894 30.4384,135.061 33.5,134C 41.4457,131.462 49.4457,129.129 57.5,127C 89.7089,114.121 122.376,102.788 155.5,93C 235.104,56.963 318.604,36.7963 406,32.5C 410.917,33.7507 414.25,36.7507 416,41.5C 418.003,50.8574 420.003,60.1908 422,69.5C 429.973,84.0887 435.973,99.422 440,115.5C 447.854,130.867 454.854,146.534 461,162.5C 466.166,159.889 471.666,158.056 477.5,157C 494.512,154.167 510.512,156.834 525.5,165C 527.543,166.708 529.21,168.708 530.5,171C 534.084,172.073 537.75,172.74 541.5,173C 553.427,179.482 566.094,183.816 579.5,186C 586.118,188.389 591.285,192.556 595,198.5C 596.949,203.807 598.949,209.141 601,214.5C 601.325,220.493 602.658,226.16 605,231.5C 606.582,244.268 605.082,256.601 600.5,268.5C 605.448,269.094 610.114,270.594 614.5,273C 624.05,281.014 627.55,291.18 625,303.5C 622.885,307.969 621.218,312.636 620,317.5C 617.667,319.833 615.333,322.167 613,324.5C 610.885,327.354 611.219,329.687 614,331.5C 615.167,338.333 612.333,341.167 605.5,340C 598.867,334.59 597.7,328.09 602,320.5C 605.81,316.696 608.81,312.363 611,307.5C 617.941,288.896 611.441,279.062 591.5,278C 590,277.167 588.833,276 588,274.5C 587.995,267.166 589.661,260.166 593,253.5C 593.667,247.167 593.667,240.833 593,234.5C 592.085,233.672 591.419,232.672 591,231.5C 590.908,221.277 588.575,211.61 584,202.5C 581.592,200.044 578.759,198.211 575.5,197C 563.063,194.248 551.063,190.248 539.5,185C 530.657,185.776 523.991,182.442 519.5,175C 507.735,167.974 495.068,165.641 481.5,168C 468.812,171.344 456.812,176.344 445.5,183C 439.5,190.333 433.5,197.667 427.5,205C 425.166,205.339 422.832,205.172 420.5,204.5C 418.701,204.577 417.034,205.077 415.5,206C 407.211,211.234 400.044,217.734 394,225.5C 389.193,232.391 387.026,240.057 387.5,248.5C 386.91,257.161 389.244,264.828 394.5,271.5C 411.279,257.557 427.613,243.057 443.5,228C 446.763,226.142 450.263,224.975 454,224.5C 460.508,225.398 462.008,228.565 458.5,234C 454.371,235.703 450.371,237.703 446.5,240C 429.316,256.018 411.983,271.851 394.5,287.5C 386.619,296.035 379.953,305.368 374.5,315.5 Z"/></g>
<g><path style="opacity:1" fill="#f8f8f8" d="M 363.5,311.5 C 355.826,308.664 348.16,306.164 340.5,304C 318.503,303.5 296.503,303.333 274.5,303.5C 270.377,286.34 267.21,269.006 265,251.5C 269.797,254.142 274.297,257.142 278.5,260.5C 280.697,260.152 282.53,259.152 284,257.5C 284.849,254.439 286.349,251.772 288.5,249.5C 291.073,265.283 295.24,280.616 301,295.5C 303.488,300.798 307.155,301.798 312,298.5C 312.872,285.685 310.872,273.352 306,261.5C 303.66,245.752 300.994,230.086 298,214.5C 295.347,211.806 292.18,210.973 288.5,212C 286.044,214.408 284.211,217.241 283,220.5C 281.299,225.994 279.299,231.327 277,236.5C 274.079,234.288 270.912,232.455 267.5,231C 260.702,228.876 254.035,226.543 247.5,224C 245.08,223.313 242.913,223.813 241,225.5C 241.221,232.173 241.887,238.84 243,245.5C 245.155,254.08 246.822,262.747 248,271.5C 249.49,279.141 251.824,286.474 255,293.5C 256.475,298.063 257.308,302.73 257.5,307.5C 255.786,308.738 253.786,309.405 251.5,309.5C 250.164,304.896 246.997,302.562 242,302.5C 236.506,305.49 230.673,307.824 224.5,309.5C 223.372,303.818 221.705,298.318 219.5,293C 224.258,288.941 229.591,285.608 235.5,283C 243.134,276.013 241.801,271.846 231.5,270.5C 225.662,272.591 219.995,274.924 214.5,277.5C 212.527,270.272 210.86,262.939 209.5,255.5C 209.833,254.833 210.167,254.167 210.5,253.5C 218.774,249.849 227.107,246.349 235.5,243C 237.948,239.858 237.781,236.692 235,233.5C 233.53,231.848 231.697,230.848 229.5,230.5C 217.996,234.168 206.663,238.335 195.5,243C 194.696,244.771 193.529,246.271 192,247.5C 191.333,249.5 191.333,251.5 192,253.5C 196.559,264.402 199.559,275.736 201,287.5C 205.048,302.038 209.548,316.372 214.5,330.5C 201.556,342.944 188.722,355.61 176,368.5C 172.333,373.5 168.667,378.5 165,383.5C 163.864,385.743 163.03,388.076 162.5,390.5C 154.182,389.593 145.849,389.427 137.5,390C 120.978,393.476 104.311,395.976 87.5,397.5C 88.981,349.359 87.1476,301.359 82,253.5C 81.6667,231.167 81.3333,208.833 81,186.5C 79.8402,181.208 79.0068,175.875 78.5,170.5C 80.1992,170.66 81.8659,170.494 83.5,170C 93.683,165.115 104.35,161.449 115.5,159C 129.736,152.056 144.402,145.889 159.5,140.5C 169.01,138.655 178.343,136.488 187.5,134C 191.683,131.743 196.016,129.743 200.5,128C 213.611,125.265 226.611,122.265 239.5,119C 256.884,111.991 274.884,107.324 293.5,105C 303.226,101.069 313.226,98.0688 323.5,96C 342.138,92.6687 360.805,89.3354 379.5,86C 386.044,83.3052 392.71,81.1386 399.5,79.5C 405.666,90.8513 410.5,102.851 414,115.5C 422.989,134.453 430.823,153.953 437.5,174C 432.988,179.682 428.655,185.515 424.5,191.5C 420.808,192.252 417.142,193.086 413.5,194C 399.717,201.449 388.884,211.949 381,225.5C 376.596,221.019 371.429,219.852 365.5,222C 358.093,228.064 357.76,234.398 364.5,241C 368.188,241.45 371.854,241.283 375.5,240.5C 375.122,250.355 376.289,260.022 379,269.5C 381.151,272.99 383.318,276.49 385.5,280C 376.768,289.558 369.434,300.058 363.5,311.5 Z"/></g>
<g><path style="opacity:1" fill="#292929" d="M 341.5,124.5 C 344.32,124.248 346.986,124.748 349.5,126C 357.778,131.278 365.778,136.945 373.5,143C 386.087,157.255 399.587,170.422 414,182.5C 416.06,189.438 413.56,192.271 406.5,191C 405.107,189.829 404.273,188.329 404,186.5C 389.364,174.919 375.864,162.086 363.5,148C 358.5,144.833 353.5,141.667 348.5,138.5C 345.261,150.597 343.095,162.93 342,175.5C 336.24,199.384 330.907,223.384 326,247.5C 325.172,252.202 325.338,256.869 326.5,261.5C 337.111,257.467 348.111,254.967 359.5,254C 362.984,252.643 366.317,251.143 369.5,249.5C 373.989,249.833 375.489,252.167 374,256.5C 367.442,263.527 359.275,266.693 349.5,266C 337.967,268.549 326.633,271.716 315.5,275.5C 310.567,273.484 309.567,270.318 312.5,266C 313.448,265.517 314.448,265.351 315.5,265.5C 315.006,250.759 316.173,236.092 319,221.5C 327.255,190.484 333.921,159.151 339,127.5C 340.045,126.627 340.878,125.627 341.5,124.5 Z"/></g>
<g><path style="opacity:1" fill="#272727" d="M 165.5,147.5 C 170.049,146.925 173.882,148.258 177,151.5C 181.027,176.746 186.194,201.58 192.5,226C 192.131,229.39 190.465,232.057 187.5,234C 179.487,240.011 170.82,245.011 161.5,249C 155.013,251.067 150.18,249.234 147,243.5C 141.907,217.631 136.74,191.797 131.5,166C 131.5,162.667 132.833,160 135.5,158C 146.065,155.979 156.065,152.479 165.5,147.5 Z"/></g>
<g><path style="opacity:1" fill="#282828" d="M 359.5,156.5 C 363.516,155.9 367.016,156.9 370,159.5C 375.049,169.6 376.715,180.267 375,191.5C 374.333,196.833 373.667,202.167 373,207.5C 370.513,213.126 367.18,213.792 363,209.5C 355.909,197.985 349.909,185.985 345,173.5C 344.265,163.069 349.098,157.403 359.5,156.5 Z"/></g>
<g><path style="opacity:1" fill="#272727" d="M 107.5,193.5 C 108.562,196.516 109.729,199.516 111,202.5C 110.942,198.604 110.108,194.938 108.5,191.5C 107.014,185.887 105.68,180.22 104.5,174.5C 104.621,173.106 104.954,171.772 105.5,170.5C 109.774,169.03 113.774,167.03 117.5,164.5C 119.697,164.848 121.53,165.848 123,167.5C 123.94,176.231 125.273,184.898 127,193.5C 130.646,206.085 133.98,218.752 137,231.5C 137.667,236.833 137.667,242.167 137,247.5C 134.163,249.585 131.163,249.919 128,248.5C 121.195,238.911 114.861,228.911 109,218.5C 109.9,230.44 112.733,241.94 117.5,253C 116.899,254.605 115.899,255.938 114.5,257C 110.01,257.887 105.51,258.721 101,259.5C 99.2894,259.561 97.956,258.894 97,257.5C 94.0073,239.544 91.0073,221.544 88,203.5C 86.8477,195.858 86.5143,188.191 87,180.5C 89.6019,176.788 93.1019,175.622 97.5,177C 101.012,182.356 104.346,187.856 107.5,193.5 Z"/></g>
<g><path style="opacity:1" fill="#f3f3f3" d="M 158.5,168.5 C 159.931,168.881 160.764,169.881 161,171.5C 165.383,186.532 169.216,201.698 172.5,217C 169.041,219.902 165.374,222.568 161.5,225C 160.552,225.483 159.552,225.649 158.5,225.5C 156.654,208.88 153.987,192.38 150.5,176C 150.833,174.833 151.167,173.667 151.5,172.5C 154.349,171.9 156.682,170.567 158.5,168.5 Z"/></g>
<g><path style="opacity:1" fill="#7d7d7d" d="M 108.5,191.5 C 110.108,194.938 110.942,198.604 111,202.5C 109.729,199.516 108.562,196.516 107.5,193.5C 108.338,193.158 108.672,192.492 108.5,191.5 Z"/></g>
<g><path style="opacity:1" fill="#272727" d="M 274.5,303.5 C 272.363,305.8 270.03,307.967 267.5,310C 264.833,310.667 262.167,310.667 259.5,310C 258.934,309.005 258.267,308.172 257.5,307.5C 257.308,302.73 256.475,298.063 255,293.5C 251.824,286.474 249.49,279.141 248,271.5C 246.822,262.747 245.155,254.08 243,245.5C 241.887,238.84 241.221,232.173 241,225.5C 242.913,223.813 245.08,223.313 247.5,224C 254.035,226.543 260.702,228.876 267.5,231C 270.912,232.455 274.079,234.288 277,236.5C 279.299,231.327 281.299,225.994 283,220.5C 284.211,217.241 286.044,214.408 288.5,212C 292.18,210.973 295.347,211.806 298,214.5C 300.994,230.086 303.66,245.752 306,261.5C 310.872,273.352 312.872,285.685 312,298.5C 307.155,301.798 303.488,300.798 301,295.5C 295.24,280.616 291.073,265.283 288.5,249.5C 286.349,251.772 284.849,254.439 284,257.5C 282.53,259.152 280.697,260.152 278.5,260.5C 274.297,257.142 269.797,254.142 265,251.5C 267.21,269.006 270.377,286.34 274.5,303.5 Z"/></g>
<g><path style="opacity:1" fill="#282828" d="M 251.5,309.5 C 250.961,312.042 249.628,314.208 247.5,316C 240.626,320.881 233.293,324.881 225.5,328C 224.167,329.667 222.833,331.333 221.5,333C 218.341,334.084 216.008,333.25 214.5,330.5C 209.548,316.372 205.048,302.038 201,287.5C 199.559,275.736 196.559,264.402 192,253.5C 191.333,251.5 191.333,249.5 192,247.5C 193.529,246.271 194.696,244.771 195.5,243C 206.663,238.335 217.996,234.168 229.5,230.5C 231.697,230.848 233.53,231.848 235,233.5C 237.781,236.692 237.948,239.858 235.5,243C 227.107,246.349 218.774,249.849 210.5,253.5C 210.167,254.167 209.833,254.833 209.5,255.5C 210.86,262.939 212.527,270.272 214.5,277.5C 219.995,274.924 225.662,272.591 231.5,270.5C 241.801,271.846 243.134,276.013 235.5,283C 229.591,285.608 224.258,288.941 219.5,293C 221.705,298.318 223.372,303.818 224.5,309.5C 230.673,307.824 236.506,305.49 242,302.5C 246.997,302.562 250.164,304.896 251.5,309.5 Z"/></g>
<g><path style="opacity:1" fill="#282828" d="M 175.5,248.5 C 179.695,248.681 183.195,250.347 186,253.5C 186.667,254.5 186.667,255.5 186,256.5C 180.246,260.688 174.079,264.021 167.5,266.5C 171.394,279.292 174.561,292.292 177,305.5C 182.29,318.684 186.956,332.017 191,345.5C 191.755,348.303 191.422,350.97 190,353.5C 184.483,357.052 178.649,358.219 172.5,357C 168.048,353.623 167.382,349.623 170.5,345C 163.3,321.03 156.966,296.863 151.5,272.5C 147.623,273.937 143.623,274.437 139.5,274C 138.426,273.261 137.759,272.261 137.5,271C 137.63,266.246 139.63,262.579 143.5,260C 154.563,256.954 165.23,253.121 175.5,248.5 Z"/></g>
<g><path style="opacity:1" fill="#282828" d="M 117.5,268.5 C 120.85,268.335 124.183,268.502 127.5,269C 133.194,273.944 132.527,277.944 125.5,281C 119.03,281.625 117.863,284.458 122,289.5C 123.543,309.847 127.043,329.847 132.5,349.5C 133.607,350.022 134.774,350.355 136,350.5C 142.191,347.01 146.358,348.677 148.5,355.5C 148.392,356.442 148.059,357.275 147.5,358C 140.129,362.349 132.796,366.682 125.5,371C 119.274,373.363 113.108,375.863 107,378.5C 104.849,378.357 103.182,377.357 102,375.5C 101.333,372.167 101.333,368.833 102,365.5C 108.447,362.359 114.947,359.359 121.5,356.5C 121.66,354.801 121.494,353.134 121,351.5C 117.77,344.373 115.103,337.04 113,329.5C 110.78,316.195 108.78,302.861 107,289.5C 106.667,288.833 106.333,288.167 106,287.5C 101.676,289.374 97.1756,290.207 92.5,290C 90.7928,287.561 89.4595,284.895 88.5,282C 89.4872,279.679 91.1539,278.013 93.5,277C 102.123,275.503 110.123,272.67 117.5,268.5 Z"/></g>
<g><path style="opacity:1" fill="#292929" d="M 477.5,280.5 C 483.344,280.844 485.51,283.844 484,289.5C 471.841,299.993 460.008,310.826 448.5,322C 433.315,334.875 422.481,350.708 416,369.5C 415.333,371.167 415.333,372.833 416,374.5C 418.833,377.333 421.667,380.167 424.5,383C 430.167,382.667 435.833,382.333 441.5,382C 444.385,383.933 445.052,386.433 443.5,389.5C 436.78,395.445 429.113,396.945 420.5,394C 412.343,388.69 406.676,381.523 403.5,372.5C 407.827,354.509 416.327,338.843 429,325.5C 445.416,310.578 461.582,295.578 477.5,280.5 Z"/></g>
<g><path style="opacity:1" fill="#2a2a2a" d="M 421.5,286.5 C 427.861,285.697 430.694,288.364 430,294.5C 426.612,298.403 423.279,298.403 420,294.5C 419.282,291.593 419.782,288.926 421.5,286.5 Z"/></g>
<g><path style="opacity:1" fill="#8ec472" d="M 274.5,303.5 C 296.503,303.333 318.503,303.5 340.5,304C 348.16,306.164 355.826,308.664 363.5,311.5C 366.752,313.588 370.418,314.921 374.5,315.5C 379.676,317.772 384.342,320.772 388.5,324.5C 392.134,338.048 386.801,344.215 372.5,343C 370.326,340.648 367.659,339.481 364.5,339.5C 353.699,334.128 347.699,337.462 346.5,349.5C 345.172,354.288 344.505,359.454 344.5,365C 344.501,370.344 344.834,375.511 345.5,380.5C 345.5,382.167 345.5,383.833 345.5,385.5C 344.859,395.889 345.526,405.889 347.5,415.5C 347.822,423.105 349.322,430.439 352,437.5C 354.054,440.047 355.887,442.714 357.5,445.5C 356.355,449.311 356.188,453.311 357,457.5C 357.608,459.066 358.442,460.4 359.5,461.5C 359.343,462.873 359.51,464.207 360,465.5C 362.042,468.94 364.542,471.94 367.5,474.5C 368.391,476.609 369.558,478.609 371,480.5C 371.499,484.486 371.666,488.486 371.5,492.5C 371.371,494.216 371.038,495.883 370.5,497.5C 369.542,497.953 368.708,498.619 368,499.5C 366.523,506.473 365.023,513.473 363.5,520.5C 365.554,532.951 369.054,544.951 374,556.5C 374.852,557.571 375.685,558.571 376.5,559.5C 378.218,561.223 379.551,563.223 380.5,565.5C 382.423,568.603 384.59,571.603 387,574.5C 387.333,575.833 387.667,577.167 388,578.5C 392.202,582.367 396.035,586.533 399.5,591C 404.134,594.632 408.467,598.632 412.5,603C 420.683,605.688 427.683,610.188 433.5,616.5C 434.631,618.074 434.798,619.741 434,621.5C 427.562,631.253 424.895,641.92 426,653.5C 427.308,656.73 428.308,660.064 429,663.5C 432.294,671.417 436.627,678.75 442,685.5C 446.207,687.02 450.04,689.186 453.5,692C 456.126,692.995 458.793,693.328 461.5,693C 446.09,683.104 436.423,669.271 432.5,651.5C 435.072,632.34 442.405,615.34 454.5,600.5C 458.07,595.984 462.07,591.984 466.5,588.5C 468.5,588.5 470.5,588.5 472.5,588.5C 477.355,590.02 481.022,593.02 483.5,597.5C 482.784,600.283 482.117,603.116 481.5,606C 476.447,612.614 471.281,619.114 466,625.5C 464.882,627.765 464.049,630.099 463.5,632.5C 469.388,632.447 472.555,629.447 473,623.5C 496.755,606.234 504.088,583.567 495,555.5C 492.247,550.992 489.247,546.659 486,542.5C 484.096,539.077 483.263,535.41 483.5,531.5C 484.952,527.525 487.452,524.192 491,521.5C 491.49,520.207 491.657,518.873 491.5,517.5C 492.222,517.918 492.722,518.584 493,519.5C 497.166,518.197 501.333,518.197 505.5,519.5C 507.836,521.618 507.503,523.618 504.5,525.5C 502.471,536.927 507.138,544.094 518.5,547C 519.5,548 520.5,549 521.5,550C 532.846,553.839 543.18,559.506 552.5,567C 558.279,574.112 564.779,580.612 572,586.5C 573.739,590.245 575.906,593.745 578.5,597C 587.351,603.172 595.851,609.672 604,616.5C 605.439,618.275 606.439,620.275 607,622.5C 609.846,624.257 612.512,626.257 615,628.5C 620.927,636.023 626.093,644.023 630.5,652.5C 631.5,653.833 632.5,653.833 633.5,652.5C 636.04,649.961 636.874,646.961 636,643.5C 630.037,630.908 623.037,618.908 615,607.5C 605.079,598.242 594.579,589.742 583.5,582C 575.777,573.941 567.777,566.275 559.5,559C 545.167,549.333 530.833,539.667 516.5,530C 512.503,525.859 509.17,521.359 506.5,516.5C 505.134,510.761 503.467,505.095 501.5,499.5C 501.667,498.167 501.833,496.833 502,495.5C 504.062,493.099 505.729,490.433 507,487.5C 521.053,473.932 537.553,464.932 556.5,460.5C 568.071,458.7 579.738,458.034 591.5,458.5C 596.864,459.337 602.197,460.504 607.5,462C 615.758,464.126 622.758,468.293 628.5,474.5C 635.251,485.658 642.751,496.325 651,506.5C 651.988,509.424 652.654,512.424 653,515.5C 663.905,535.305 671.405,556.305 675.5,578.5C 678.121,599.56 677.787,620.56 674.5,641.5C 670.159,668.165 660.325,692.498 645,714.5C 640.027,720.235 634.527,725.402 628.5,730C 635.919,740.805 633.586,748.972 621.5,754.5C 603.424,757.944 585.091,759.444 566.5,759C 549.993,757.078 533.659,753.745 517.5,749C 508.094,744.017 498.094,740.85 487.5,739.5C 485.095,738.232 482.428,737.565 479.5,737.5C 467.558,735.733 455.892,732.9 444.5,729C 432.689,722.543 420.022,718.543 406.5,717C 399.249,713.468 391.582,711.634 383.5,711.5C 381.981,710.59 380.315,709.757 378.5,709C 373.177,708.501 367.844,708.334 362.5,708.5C 356.855,707.873 351.189,707.373 345.5,707C 344.167,706.333 342.833,705.667 341.5,705C 333.749,704.824 326.416,703.157 319.5,700C 316.183,699.502 312.85,699.335 309.5,699.5C 308.158,698.207 306.491,697.374 304.5,697C 298.14,696.143 291.807,695.309 285.5,694.5C 284.167,694.167 282.833,693.833 281.5,693.5C 276.724,685.542 277.724,678.376 284.5,672C 290.467,668.518 296.801,665.851 303.5,664C 307.788,659.401 313.121,657.234 319.5,657.5C 326.508,657.666 333.508,657.5 340.5,657C 341.056,656.617 341.389,656.117 341.5,655.5C 343.833,655.5 346.167,655.5 348.5,655.5C 355.687,655.825 362.687,655.491 369.5,654.5C 370.511,650.888 370.678,647.221 370,643.5C 363.47,637.436 357.636,630.769 352.5,623.5C 346.007,607.836 338.007,593.169 328.5,579.5C 327.249,576.126 327.249,572.793 328.5,569.5C 329.441,564.93 329.774,560.263 329.5,555.5C 330.267,545.185 330.601,534.852 330.5,524.5C 331.631,516.913 331.798,509.246 331,501.5C 330.333,500.833 329.667,500.167 329,499.5C 327.89,494.836 326.39,490.336 324.5,486C 315.657,484.921 306.991,485.587 298.5,488C 295.125,490.686 291.459,492.853 287.5,494.5C 285.041,500.248 282.708,505.915 280.5,511.5C 271.118,507.646 261.451,504.646 251.5,502.5C 251.453,499.432 250.953,496.432 250,493.5C 246.754,486.615 243.754,479.615 241,472.5C 237.657,469.324 234.49,465.991 231.5,462.5C 235.818,458.607 235.484,455.107 230.5,452C 228.5,451.333 226.5,451.333 224.5,452C 222.804,453.176 221.138,454.343 219.5,455.5C 212.081,451.934 204.747,448.101 197.5,444C 188.428,441.446 179.428,438.946 170.5,436.5C 168.663,432.714 165.663,430.047 161.5,428.5C 160.833,426.833 160.167,425.167 159.5,423.5C 159.62,421.266 159.287,419.099 158.5,417C 159.582,411.839 160.582,406.673 161.5,401.5C 166.061,402.907 170.728,403.907 175.5,404.5C 175.751,400.751 176.417,397.085 177.5,393.5C 172.431,392.796 167.431,391.796 162.5,390.5C 163.03,388.076 163.864,385.743 165,383.5C 168.667,378.5 172.333,373.5 176,368.5C 188.722,355.61 201.556,342.944 214.5,330.5C 216.008,333.25 218.341,334.084 221.5,333C 222.833,331.333 224.167,329.667 225.5,328C 233.293,324.881 240.626,320.881 247.5,316C 249.628,314.208 250.961,312.042 251.5,309.5C 253.786,309.405 255.786,308.738 257.5,307.5C 258.267,308.172 258.934,309.005 259.5,310C 262.167,310.667 264.833,310.667 267.5,310C 270.03,307.967 272.363,305.8 274.5,303.5 Z"/></g>
<g><path style="opacity:1" fill="#303030" d="M 500.5,322.5 C 506.17,322.339 509.003,325.006 509,330.5C 503.308,336.471 499.141,335.637 496.5,328C 497.65,326.019 498.984,324.186 500.5,322.5 Z"/></g>
<g><path style="opacity:1" fill="#7fa66a" d="M 346.5,349.5 C 345.661,359.81 345.328,370.143 345.5,380.5C 344.834,375.511 344.501,370.344 344.5,365C 344.505,359.454 345.172,354.288 346.5,349.5 Z"/></g>
<g><path style="opacity:1" fill="#292929" d="M 555.5,374.5 C 568.479,372.882 579.646,376.549 589,385.5C 592.861,392.494 593.528,399.827 591,407.5C 584.013,419.826 574.846,430.326 563.5,439C 559.174,441.438 554.674,443.271 550,444.5C 547.966,444.646 546.299,443.98 545,442.5C 544.333,440.167 544.333,437.833 545,435.5C 558.719,429.453 569.719,420.12 578,407.5C 583.66,396.911 580.827,390.078 569.5,387C 564.833,386.667 560.167,386.333 555.5,386C 551.542,382.092 551.542,378.259 555.5,374.5 Z"/></g>
<g><path style="opacity:1" fill="#749663" d="M 345.5,385.5 C 346.494,395.326 347.161,405.326 347.5,415.5C 345.526,405.889 344.859,395.889 345.5,385.5 Z"/></g>
<g><path style="opacity:1" fill="#2a2a2a" d="M 411.5,428.5 C 420.9,428.114 430.234,428.614 439.5,430C 445.612,433.116 451.946,435.783 458.5,438C 461.347,442.84 460.014,446.34 454.5,448.5C 447.953,446.56 441.619,444.06 435.5,441C 423.419,440.26 411.419,440.593 399.5,442C 395.5,438.333 395.5,434.667 399.5,431C 403.637,430.161 407.637,429.327 411.5,428.5 Z"/></g>
<g><path style="opacity:1" fill="#282928" d="M 161.5,428.5 C 165.663,430.047 168.663,432.714 170.5,436.5C 163.669,445.789 158.836,456.123 156,467.5C 146.891,471.932 138.891,477.932 132,485.5C 127.86,493.914 127.36,502.58 130.5,511.5C 131.948,503.772 135.615,497.272 141.5,492C 146.133,491.129 149.133,492.962 150.5,497.5C 144.894,508.891 143.061,520.891 145,533.5C 151.727,539.464 159.561,542.797 168.5,543.5C 168.365,539.562 166.865,536.228 164,533.5C 161.415,523.507 161.082,513.507 163,503.5C 166.249,499.633 169.582,499.633 173,503.5C 173.298,512.197 173.965,520.864 175,529.5C 177.432,533.374 180.098,537.041 183,540.5C 185.302,538.523 187.302,536.19 189,533.5C 190.799,529.117 192.799,524.783 195,520.5C 196.893,515.692 197.727,510.692 197.5,505.5C 195.61,505.703 194.11,505.037 193,503.5C 190.813,499.366 189.813,495.032 190,490.5C 191.264,488.393 193.097,487.393 195.5,487.5C 196.092,484.309 197.259,481.309 199,478.5C 202.581,473.672 205.915,468.672 209,463.5C 212.4,460.586 215.9,457.92 219.5,455.5C 221.138,454.343 222.804,453.176 224.5,452C 226.5,451.333 228.5,451.333 230.5,452C 235.484,455.107 235.818,458.607 231.5,462.5C 226.976,464.043 222.976,466.377 219.5,469.5C 212.772,468.449 207.605,470.782 204,476.5C 203.833,478.333 203.667,480.167 203.5,482C 203.702,485.489 204.702,488.655 206.5,491.5C 207.282,495.062 208.615,498.395 210.5,501.5C 210.392,502.442 210.059,503.275 209.5,504C 211.425,503.865 213.425,503.698 215.5,503.5C 219.538,506.512 223.538,509.512 227.5,512.5C 222.629,512.551 217.962,513.551 213.5,515.5C 211.865,514.954 210.199,514.62 208.5,514.5C 207.828,518.188 206.995,521.855 206,525.5C 202.568,531.364 199.401,537.364 196.5,543.5C 192.102,548.229 187.102,552.229 181.5,555.5C 176.948,557.615 172.281,558.282 167.5,557.5C 167.389,556.883 167.056,556.383 166.5,556C 164.167,555.667 161.833,555.333 159.5,555C 153.77,552.378 148.103,549.878 142.5,547.5C 138.37,542.869 134.037,538.369 129.5,534C 128.5,533.333 127.5,533.333 126.5,534C 108.329,544.249 90.6628,555.249 73.5,567C 64.4413,568.878 55.7747,571.878 47.5,576C 42.401,579.848 39.7344,585.014 39.5,591.5C 37.0651,594.595 35.0651,597.928 33.5,601.5C 34.0544,603.61 34.8877,605.61 36,607.5C 47.3685,619.2 58.3685,631.2 69,643.5C 74.5354,651.431 78.5354,660.098 81,669.5C 85.18,688.085 87.68,706.919 88.5,726C 87.2774,748.598 85.444,771.098 83,793.5C 92.7133,782.122 102.047,770.455 111,758.5C 124.894,743.937 139.394,730.104 154.5,717C 185.001,694.571 217.334,674.904 251.5,658C 270.617,651.934 289.95,646.601 309.5,642C 321.869,640.645 334.202,639.812 346.5,639.5C 339.654,629.815 333.821,619.482 329,608.5C 325.982,605.114 323.482,601.447 321.5,597.5C 321.666,592.489 321.499,587.489 321,582.5C 318.382,580 315.215,578.666 311.5,578.5C 309.538,573.243 307.038,568.243 304,563.5C 295.17,551.176 286.836,538.509 279,525.5C 276.522,523.18 273.689,521.514 270.5,520.5C 270.389,519.883 270.056,519.383 269.5,519C 265.855,518.005 262.188,517.172 258.5,516.5C 253.796,515.293 249.129,513.959 244.5,512.5C 247.78,509.595 249.113,505.929 248.5,501.5C 249.391,502.11 250.391,502.443 251.5,502.5C 261.451,504.646 271.118,507.646 280.5,511.5C 283.021,513.701 285.521,516.034 288,518.5C 301.358,538.56 314.191,558.894 326.5,579.5C 334.547,594.593 342.381,609.926 350,625.5C 355.26,632.763 361.26,639.43 368,645.5C 368.891,648.498 368.391,651.164 366.5,653.5C 363.579,654.372 360.579,654.372 357.5,653.5C 349.813,653.128 342.147,652.461 334.5,651.5C 326.241,652.954 317.908,653.787 309.5,654C 297.644,657.631 285.644,660.631 273.5,663C 265.069,665.715 256.735,668.715 248.5,672C 218.51,687.684 189.844,705.351 162.5,725C 147.855,737.923 133.688,751.423 120,765.5C 106.182,782.473 92.849,799.806 80,817.5C 76.7365,822.305 72.4032,824.305 67,823.5C 65.3674,821.547 64.2007,819.38 63.5,817C 65.104,811.75 66.9373,806.583 69,801.5C 72.7343,776.625 75.2343,751.625 76.5,726.5C 76.4092,718.806 75.9092,711.139 75,703.5C 74.3836,682.671 68.3836,663.671 57,646.5C 45.9646,635.133 35.2979,623.466 25,611.5C 19.3769,602.81 20.3769,595.143 28,588.5C 30.3052,575.723 37.4719,566.89 49.5,562C 57.3926,559.969 65.0593,557.302 72.5,554C 88.4139,543.458 104.581,533.292 121,523.5C 118.869,515.388 117.369,507.055 116.5,498.5C 116.756,494.053 117.589,489.72 119,485.5C 125.41,474.426 134.41,466.092 146,460.5C 149.842,449.151 155.008,438.485 161.5,428.5 Z"/></g>
<g><path style="opacity:1" fill="#f8f8f8" d="M 170.5,436.5 C 179.428,438.946 188.428,441.446 197.5,444C 204.747,448.101 212.081,451.934 219.5,455.5C 215.9,457.92 212.4,460.586 209,463.5C 205.915,468.672 202.581,473.672 199,478.5C 197.259,481.309 196.092,484.309 195.5,487.5C 193.097,487.393 191.264,488.393 190,490.5C 189.813,495.032 190.813,499.366 193,503.5C 194.11,505.037 195.61,505.703 197.5,505.5C 197.727,510.692 196.893,515.692 195,520.5C 192.799,524.783 190.799,529.117 189,533.5C 187.302,536.19 185.302,538.523 183,540.5C 180.098,537.041 177.432,533.374 175,529.5C 173.965,520.864 173.298,512.197 173,503.5C 169.582,499.633 166.249,499.633 163,503.5C 161.082,513.507 161.415,523.507 164,533.5C 166.865,536.228 168.365,539.562 168.5,543.5C 159.561,542.797 151.727,539.464 145,533.5C 143.061,520.891 144.894,508.891 150.5,497.5C 149.133,492.962 146.133,491.129 141.5,492C 135.615,497.272 131.948,503.772 130.5,511.5C 127.36,502.58 127.86,493.914 132,485.5C 138.891,477.932 146.891,471.932 156,467.5C 158.836,456.123 163.669,445.789 170.5,436.5 Z"/></g>
<g><path style="opacity:1" fill="#f8f8f8" d="M 483.5,531.5 C 483.263,535.41 484.096,539.077 486,542.5C 489.247,546.659 492.247,550.992 495,555.5C 504.088,583.567 496.755,606.234 473,623.5C 472.555,629.447 469.388,632.447 463.5,632.5C 464.049,630.099 464.882,627.765 466,625.5C 471.281,619.114 476.447,612.614 481.5,606C 482.117,603.116 482.784,600.283 483.5,597.5C 488.124,597.048 491.958,595.048 495,591.5C 497.243,584.735 494.743,581.902 487.5,583C 482.898,585.97 477.898,587.803 472.5,588.5C 470.5,588.5 468.5,588.5 466.5,588.5C 454.162,588.667 441.829,588.5 429.5,588C 419.188,584.427 410.021,578.927 402,571.5C 396.979,565.98 392.146,560.314 387.5,554.5C 388.002,553.479 388.668,553.312 389.5,554C 394.854,558.856 400.854,562.689 407.5,565.5C 414.918,563.639 416.252,559.806 411.5,554C 407.873,553.436 404.707,551.936 402,549.5C 394.735,540.639 388.735,530.973 384,520.5C 383.372,513.171 382.872,505.837 382.5,498.5C 384.722,498.178 386.556,498.845 388,500.5C 398.029,515.532 409.862,529.032 423.5,541C 428.623,542.544 431.789,540.71 433,535.5C 433.667,534.167 433.667,532.833 433,531.5C 431.333,528.833 429.667,526.167 428,523.5C 417,515.167 407.333,505.5 399,494.5C 395.831,488.32 391.497,482.986 386,478.5C 379.274,470.38 374.108,461.38 370.5,451.5C 375.405,453.952 380.405,456.452 385.5,459C 405.763,480.428 427.763,499.928 451.5,517.5C 454.214,517.06 456.38,515.726 458,513.5C 460.549,504.361 462.549,495.027 464,485.5C 467.399,473.625 473.232,463.125 481.5,454C 486.065,452.355 490.731,451.688 495.5,452C 497.444,454.153 497.944,456.653 497,459.5C 494.333,463.5 491.667,467.5 489,471.5C 484.709,481.145 481.376,491.145 479,501.5C 478.392,511.896 479.892,521.896 483.5,531.5 Z"/></g>
<g><path style="opacity:1" fill="#282928" d="M 364.5,339.5 C 360.734,368.802 360.568,398.135 364,427.5C 364.898,431.795 366.731,435.628 369.5,439C 373.877,439.188 377.877,440.521 381.5,443C 386.672,446.085 391.672,449.419 396.5,453C 407.419,463.919 418.419,474.919 429.5,486C 435.667,490.833 441.833,495.667 448,500.5C 450.649,486.557 455.316,473.224 462,460.5C 467.667,447.664 477.5,440.997 491.5,440.5C 508.452,441.757 513.619,450.091 507,465.5C 495.465,480.938 490.298,498.272 491.5,517.5C 491.657,518.873 491.49,520.207 491,521.5C 487.452,524.192 484.952,527.525 483.5,531.5C 479.892,521.896 478.392,511.896 479,501.5C 481.376,491.145 484.709,481.145 489,471.5C 491.667,467.5 494.333,463.5 497,459.5C 497.944,456.653 497.444,454.153 495.5,452C 490.731,451.688 486.065,452.355 481.5,454C 473.232,463.125 467.399,473.625 464,485.5C 462.549,495.027 460.549,504.361 458,513.5C 456.38,515.726 454.214,517.06 451.5,517.5C 427.763,499.928 405.763,480.428 385.5,459C 380.405,456.452 375.405,453.952 370.5,451.5C 374.108,461.38 379.274,470.38 386,478.5C 391.497,482.986 395.831,488.32 399,494.5C 407.333,505.5 417,515.167 428,523.5C 429.667,526.167 431.333,528.833 433,531.5C 433.667,532.833 433.667,534.167 433,535.5C 431.789,540.71 428.623,542.544 423.5,541C 409.862,529.032 398.029,515.532 388,500.5C 386.556,498.845 384.722,498.178 382.5,498.5C 382.872,505.837 383.372,513.171 384,520.5C 388.735,530.973 394.735,540.639 402,549.5C 404.707,551.936 407.873,553.436 411.5,554C 416.252,559.806 414.918,563.639 407.5,565.5C 400.854,562.689 394.854,558.856 389.5,554C 388.668,553.312 388.002,553.479 387.5,554.5C 392.146,560.314 396.979,565.98 402,571.5C 410.021,578.927 419.188,584.427 429.5,588C 441.829,588.5 454.162,588.667 466.5,588.5C 462.07,591.984 458.07,595.984 454.5,600.5C 446.16,600.666 437.827,600.5 429.5,600C 426.107,599.202 422.774,598.202 419.5,597C 411.828,592.833 404.495,588.166 397.5,583C 392.357,576.69 386.69,570.856 380.5,565.5C 379.551,563.223 378.218,561.223 376.5,559.5C 376.255,554.946 376.588,550.446 377.5,546C 375.548,543.268 373.715,540.435 372,537.5C 371.611,524.158 371.111,510.825 370.5,497.5C 371.038,495.883 371.371,494.216 371.5,492.5C 373.146,490.854 374.812,489.188 376.5,487.5C 374.413,484.327 372.579,480.994 371,477.5C 369.961,476.29 368.794,475.29 367.5,474.5C 365.081,469.991 362.414,465.658 359.5,461.5C 358.372,456.987 358.372,452.487 359.5,448C 358.944,446.989 358.278,446.156 357.5,445.5C 355.887,442.714 354.054,440.047 352,437.5C 349.322,430.439 347.822,423.105 347.5,415.5C 347.161,405.326 346.494,395.326 345.5,385.5C 345.5,383.833 345.5,382.167 345.5,380.5C 345.328,370.143 345.661,359.81 346.5,349.5C 347.699,337.462 353.699,334.128 364.5,339.5 Z"/></g>
<g><path style="opacity:1" fill="#d0daca" d="M 357.5,445.5 C 358.278,446.156 358.944,446.989 359.5,448C 358.372,452.487 358.372,456.987 359.5,461.5C 358.442,460.4 357.608,459.066 357,457.5C 356.188,453.311 356.355,449.311 357.5,445.5 Z"/></g>
<g><path style="opacity:1" fill="#99c483" d="M 591.5,458.5 C 579.738,458.034 568.071,458.7 556.5,460.5C 559.614,459.044 562.948,457.878 566.5,457C 573.167,456.333 579.833,456.333 586.5,457C 588.382,457.198 590.048,457.698 591.5,458.5 Z"/></g>
<g><path style="opacity:1" fill="#f5f8f3" d="M 231.5,462.5 C 234.49,465.991 237.657,469.324 241,472.5C 243.754,479.615 246.754,486.615 250,493.5C 250.953,496.432 251.453,499.432 251.5,502.5C 250.391,502.443 249.391,502.11 248.5,501.5C 246.448,494.945 242.114,490.445 235.5,488C 231.493,484.998 228.659,481.165 227,476.5C 224.521,474.034 222.021,471.701 219.5,469.5C 222.976,466.377 226.976,464.043 231.5,462.5 Z"/></g>
<g><path style="opacity:1" fill="#d0e0c9" d="M 359.5,461.5 C 362.414,465.658 365.081,469.991 367.5,474.5C 364.542,471.94 362.042,468.94 360,465.5C 359.51,464.207 359.343,462.873 359.5,461.5 Z"/></g>
<g><path style="opacity:1" fill="#8ec373" d="M 219.5,469.5 C 222.021,471.701 224.521,474.034 227,476.5C 228.659,481.165 231.493,484.998 235.5,488C 242.114,490.445 246.448,494.945 248.5,501.5C 249.113,505.929 247.78,509.595 244.5,512.5C 238.707,516.48 233.04,516.48 227.5,512.5C 223.538,509.512 219.538,506.512 215.5,503.5C 212.46,499.47 209.46,495.47 206.5,491.5C 204.702,488.655 203.702,485.489 203.5,482C 203.667,480.167 203.833,478.333 204,476.5C 207.605,470.782 212.772,468.449 219.5,469.5 Z"/></g>
<g><path style="opacity:1" fill="#dce3d9" d="M 367.5,474.5 C 368.794,475.29 369.961,476.29 371,477.5C 372.579,480.994 374.413,484.327 376.5,487.5C 374.812,489.188 373.146,490.854 371.5,492.5C 371.666,488.486 371.499,484.486 371,480.5C 369.558,478.609 368.391,476.609 367.5,474.5 Z"/></g>
<g><path style="opacity:1" fill="#f9faf9" d="M 330.5,524.5 C 329.7,533.169 329.033,542.002 328.5,551C 328.508,552.707 328.842,554.207 329.5,555.5C 329.774,560.263 329.441,564.93 328.5,569.5C 326.598,572.337 325.931,575.671 326.5,579.5C 314.191,558.894 301.358,538.56 288,518.5C 285.521,516.034 283.021,513.701 280.5,511.5C 282.708,505.915 285.041,500.248 287.5,494.5C 291.459,492.853 295.125,490.686 298.5,488C 306.991,485.587 315.657,484.921 324.5,486C 326.39,490.336 327.89,494.836 329,499.5C 329.667,500.167 330.333,500.833 331,501.5C 331.798,509.246 331.631,516.913 330.5,524.5 Z"/></g>
<g><path style="opacity:1" fill="#d8e1d3" d="M 206.5,491.5 C 209.46,495.47 212.46,499.47 215.5,503.5C 213.425,503.698 211.425,503.865 209.5,504C 210.059,503.275 210.392,502.442 210.5,501.5C 208.615,498.395 207.282,495.062 206.5,491.5 Z"/></g>
<g><path style="opacity:1" fill="#eceeea" d="M 370.5,497.5 C 371.111,510.825 371.611,524.158 372,537.5C 373.715,540.435 375.548,543.268 377.5,546C 376.588,550.446 376.255,554.946 376.5,559.5C 375.685,558.571 374.852,557.571 374,556.5C 369.054,544.951 365.554,532.951 363.5,520.5C 365.023,513.473 366.523,506.473 368,499.5C 368.708,498.619 369.542,497.953 370.5,497.5 Z"/></g>
<g><path style="opacity:1" fill="#f8f9f8" d="M 227.5,512.5 C 233.04,516.48 238.707,516.48 244.5,512.5C 249.129,513.959 253.796,515.293 258.5,516.5C 259.343,518.173 260.676,519.34 262.5,520C 265.146,520.497 267.813,520.664 270.5,520.5C 273.689,521.514 276.522,523.18 279,525.5C 286.836,538.509 295.17,551.176 304,563.5C 307.038,568.243 309.538,573.243 311.5,578.5C 305.794,578.829 300.128,578.495 294.5,577.5C 290.429,569.933 285.096,563.433 278.5,558C 273.833,557.333 269.167,557.333 264.5,558C 262.032,560.228 260.865,563.062 261,566.5C 254.801,548.638 243.301,535.472 226.5,527C 220.5,526.333 214.5,526.333 208.5,527C 208,527.5 207.5,528 207,528.5C 206.333,535.833 206.333,543.167 207,550.5C 216.518,553.316 224.518,558.649 231,566.5C 241.419,579.676 246.419,594.676 246,611.5C 235.698,594.52 225.365,577.52 215,560.5C 208.611,554.939 202.445,549.272 196.5,543.5C 199.401,537.364 202.568,531.364 206,525.5C 206.995,521.855 207.828,518.188 208.5,514.5C 210.199,514.62 211.865,514.954 213.5,515.5C 217.962,513.551 222.629,512.551 227.5,512.5 Z"/></g>
<g><path style="opacity:1" fill="#93b283" d="M 258.5,516.5 C 262.188,517.172 265.855,518.005 269.5,519C 270.056,519.383 270.389,519.883 270.5,520.5C 267.813,520.664 265.146,520.497 262.5,520C 260.676,519.34 259.343,518.173 258.5,516.5 Z"/></g>
<g><path style="opacity:1" fill="#8ec473" d="M 311.5,578.5 C 315.215,578.666 318.382,580 321,582.5C 321.499,587.489 321.666,592.489 321.5,597.5C 321.945,600.365 321.278,602.865 319.5,605C 313.509,605.499 307.509,605.666 301.5,605.5C 301.666,614.506 301.5,623.506 301,632.5C 300.5,633 300,633.5 299.5,634C 293.916,634.806 288.416,634.639 283,633.5C 281.745,626.941 281.078,620.274 281,613.5C 280.692,612.692 280.192,612.025 279.5,611.5C 275.003,614.492 271.836,618.492 270,623.5C 268.833,624.667 267.667,625.833 266.5,627C 261.511,627.499 256.511,627.666 251.5,627.5C 251.666,632.511 251.499,637.511 251,642.5C 242.218,644.653 233.718,647.82 225.5,652C 218.381,657.213 211.715,662.879 205.5,669C 199.916,669.806 194.416,669.639 189,668.5C 188.027,666.608 187.36,664.608 187,662.5C 186.827,656.984 186.327,651.651 185.5,646.5C 184.618,642.407 182.951,638.74 180.5,635.5C 166.572,612.755 146.572,598.255 120.5,592C 119.667,591.167 118.833,590.333 118,589.5C 117.333,582.833 117.333,576.167 118,569.5C 120.609,567.892 121.942,565.559 122,562.5C 128.407,556.927 135.24,551.927 142.5,547.5C 148.103,549.878 153.77,552.378 159.5,555C 161.833,555.333 164.167,555.667 166.5,556C 167.056,556.383 167.389,556.883 167.5,557.5C 167.816,560.978 167.316,564.312 166,567.5C 162.156,569.382 158.656,571.716 155.5,574.5C 179.063,586.731 196.063,605.064 206.5,629.5C 211.221,626.473 216.221,623.973 221.5,622C 215.552,614.181 210.719,605.681 207,596.5C 200.359,586.528 192.359,577.861 183,570.5C 181.612,565.628 181.112,560.628 181.5,555.5C 187.102,552.229 192.102,548.229 196.5,543.5C 202.445,549.272 208.611,554.939 215,560.5C 225.365,577.52 235.698,594.52 246,611.5C 246.419,594.676 241.419,579.676 231,566.5C 224.518,558.649 216.518,553.316 207,550.5C 206.333,543.167 206.333,535.833 207,528.5C 207.5,528 208,527.5 208.5,527C 214.5,526.333 220.5,526.333 226.5,527C 243.301,535.472 254.801,548.638 261,566.5C 260.865,563.062 262.032,560.228 264.5,558C 269.167,557.333 273.833,557.333 278.5,558C 285.096,563.433 290.429,569.933 294.5,577.5C 300.128,578.495 305.794,578.829 311.5,578.5 Z"/></g>
<g><path style="opacity:1" fill="#f9f9f8" d="M 142.5,547.5 C 135.24,551.927 128.407,556.927 122,562.5C 121.942,565.559 120.609,567.892 118,569.5C 117.333,576.167 117.333,582.833 118,589.5C 118.833,590.333 119.667,591.167 120.5,592C 146.572,598.255 166.572,612.755 180.5,635.5C 180.5,636.5 180.5,637.5 180.5,638.5C 174.642,638.178 168.975,638.511 163.5,639.5C 160.234,639.629 157.234,640.629 154.5,642.5C 150.543,634.744 144.876,628.578 137.5,624C 135.333,623.833 133.167,623.667 131,623.5C 127.757,623.307 124.757,623.973 122,625.5C 121.667,630.167 121.333,634.833 121,639.5C 114.563,619.073 102.73,602.573 85.5,590C 77.6542,585.808 69.3208,584.474 60.5,586C 59.2986,586.903 58.4652,588.069 58,589.5C 57.3333,595.5 57.3333,601.5 58,607.5C 58.4652,608.931 59.2986,610.097 60.5,611C 66.8956,612.697 72.5622,615.697 77.5,620C 95.0745,635.871 104.075,655.704 104.5,679.5C 104.492,688.886 103.825,698.22 102.5,707.5C 101.493,710.322 100.66,713.322 100,716.5C 99.3333,725.167 99.3333,733.833 100,742.5C 105.416,743.639 110.916,743.806 116.5,743C 117.701,742.097 118.535,740.931 119,739.5C 121.283,728.985 124.949,718.985 130,709.5C 133.241,702.011 137.241,695.011 142,688.5C 143.292,694.662 143.959,700.996 144,707.5C 144.5,708 145,708.5 145.5,709C 150.5,709.667 155.5,709.667 160.5,709C 162.155,707.556 162.822,705.722 162.5,703.5C 163.774,692.974 163.774,682.307 162.5,671.5C 167.861,667.658 173.861,665.158 180.5,664C 181.066,663.005 181.733,662.172 182.5,661.5C 183.327,656.349 183.827,651.016 184,645.5C 184.383,646.056 184.883,646.389 185.5,646.5C 186.327,651.651 186.827,656.984 187,662.5C 187.36,664.608 188.027,666.608 189,668.5C 194.416,669.639 199.916,669.806 205.5,669C 211.715,662.879 218.381,657.213 225.5,652C 233.718,647.82 242.218,644.653 251,642.5C 251.499,637.511 251.666,632.511 251.5,627.5C 256.511,627.666 261.511,627.499 266.5,627C 267.667,625.833 268.833,624.667 270,623.5C 271.836,618.492 275.003,614.492 279.5,611.5C 280.192,612.025 280.692,612.692 281,613.5C 281.078,620.274 281.745,626.941 283,633.5C 288.416,634.639 293.916,634.806 299.5,634C 300,633.5 300.5,633 301,632.5C 301.5,623.506 301.666,614.506 301.5,605.5C 307.509,605.666 313.509,605.499 319.5,605C 321.278,602.865 321.945,600.365 321.5,597.5C 323.482,601.447 325.982,605.114 329,608.5C 333.821,619.482 339.654,629.815 346.5,639.5C 334.202,639.812 321.869,640.645 309.5,642C 289.95,646.601 270.617,651.934 251.5,658C 217.334,674.904 185.001,694.571 154.5,717C 139.394,730.104 124.894,743.937 111,758.5C 102.047,770.455 92.7133,782.122 83,793.5C 85.444,771.098 87.2774,748.598 88.5,726C 87.68,706.919 85.18,688.085 81,669.5C 78.5354,660.098 74.5354,651.431 69,643.5C 58.3685,631.2 47.3685,619.2 36,607.5C 34.8877,605.61 34.0544,603.61 33.5,601.5C 35.0651,597.928 37.0651,594.595 39.5,591.5C 39.7344,585.014 42.401,579.848 47.5,576C 55.7747,571.878 64.4413,568.878 73.5,567C 90.6628,555.249 108.329,544.249 126.5,534C 127.5,533.333 128.5,533.333 129.5,534C 134.037,538.369 138.37,542.869 142.5,547.5 Z"/></g>
<g><path style="opacity:1" fill="#a9cc96" d="M 330.5,524.5 C 330.601,534.852 330.267,545.185 329.5,555.5C 328.842,554.207 328.508,552.707 328.5,551C 329.033,542.002 329.7,533.169 330.5,524.5 Z"/></g>
<g><path style="opacity:1" fill="#fafbf9" d="M 181.5,555.5 C 181.112,560.628 181.612,565.628 183,570.5C 192.359,577.861 200.359,586.528 207,596.5C 210.719,605.681 215.552,614.181 221.5,622C 216.221,623.973 211.221,626.473 206.5,629.5C 196.063,605.064 179.063,586.731 155.5,574.5C 158.656,571.716 162.156,569.382 166,567.5C 167.316,564.312 167.816,560.978 167.5,557.5C 172.281,558.282 176.948,557.615 181.5,555.5 Z"/></g>
<g><path style="opacity:1" fill="#c0deae" d="M 506.5,516.5 C 509.17,521.359 512.503,525.859 516.5,530C 530.833,539.667 545.167,549.333 559.5,559C 567.777,566.275 575.777,573.941 583.5,582C 594.579,589.742 605.079,598.242 615,607.5C 623.037,618.908 630.037,630.908 636,643.5C 636.874,646.961 636.04,649.961 633.5,652.5C 632.5,653.833 631.5,653.833 630.5,652.5C 626.093,644.023 620.927,636.023 615,628.5C 612.512,626.257 609.846,624.257 607,622.5C 606.439,620.275 605.439,618.275 604,616.5C 595.851,609.672 587.351,603.172 578.5,597C 575.906,593.745 573.739,590.245 572,586.5C 564.779,580.612 558.279,574.112 552.5,567C 543.18,559.506 532.846,553.839 521.5,550C 520.5,549 519.5,548 518.5,547C 507.138,544.094 502.471,536.927 504.5,525.5C 507.503,523.618 507.836,521.618 505.5,519.5C 506.239,519.631 506.906,519.464 507.5,519C 506.748,518.329 506.414,517.496 506.5,516.5 Z"/></g>
<g><path style="opacity:1" fill="#f5f8f3" d="M 380.5,565.5 C 386.69,570.856 392.357,576.69 397.5,583C 404.495,588.166 411.828,592.833 419.5,597C 422.774,598.202 426.107,599.202 429.5,600C 437.827,600.5 446.16,600.666 454.5,600.5C 442.405,615.34 435.072,632.34 432.5,651.5C 436.423,669.271 446.09,683.104 461.5,693C 458.793,693.328 456.126,692.995 453.5,692C 450.04,689.186 446.207,687.02 442,685.5C 436.627,678.75 432.294,671.417 429,663.5C 428.308,660.064 427.308,656.73 426,653.5C 424.895,641.92 427.562,631.253 434,621.5C 434.798,619.741 434.631,618.074 433.5,616.5C 427.683,610.188 420.683,605.688 412.5,603C 408.467,598.632 404.134,594.632 399.5,591C 396.035,586.533 392.202,582.367 388,578.5C 387.667,577.167 387.333,575.833 387,574.5C 384.59,571.603 382.423,568.603 380.5,565.5 Z"/></g>
<g><path style="opacity:1" fill="#2b2c2b" d="M 483.5,597.5 C 481.022,593.02 477.355,590.02 472.5,588.5C 477.898,587.803 482.898,585.97 487.5,583C 494.743,581.902 497.243,584.735 495,591.5C 491.958,595.048 488.124,597.048 483.5,597.5 Z"/></g>
<g><path style="opacity:1" fill="#8ec473" d="M 163.5,639.5 C 169.176,639.334 174.843,639.501 180.5,640C 181,640.5 181.5,641 182,641.5C 182.5,648.158 182.666,654.825 182.5,661.5C 181.733,662.172 181.066,663.005 180.5,664C 173.861,665.158 167.861,667.658 162.5,671.5C 162.39,681.957 162.39,692.624 162.5,703.5C 162.822,705.722 162.155,707.556 160.5,709C 155.5,709.667 150.5,709.667 145.5,709C 145,708.5 144.5,708 144,707.5C 143.959,700.996 143.292,694.662 142,688.5C 137.241,695.011 133.241,702.011 130,709.5C 124.949,718.985 121.283,728.985 119,739.5C 118.535,740.931 117.701,742.097 116.5,743C 110.916,743.806 105.416,743.639 100,742.5C 99.3333,733.833 99.3333,725.167 100,716.5C 100.66,713.322 101.493,710.322 102.5,707.5C 105.248,698.282 105.914,688.949 104.5,679.5C 104.075,655.704 95.0745,635.871 77.5,620C 72.5622,615.697 66.8956,612.697 60.5,611C 59.2986,610.097 58.4652,608.931 58,607.5C 57.3333,601.5 57.3333,595.5 58,589.5C 58.4652,588.069 59.2986,586.903 60.5,586C 69.3208,584.474 77.6542,585.808 85.5,590C 102.73,602.573 114.563,619.073 121,639.5C 121.333,634.833 121.667,630.167 122,625.5C 124.757,623.973 127.757,623.307 131,623.5C 133.167,623.667 135.333,623.833 137.5,624C 144.876,628.578 150.543,634.744 154.5,642.5C 157.234,640.629 160.234,639.629 163.5,639.5 Z"/></g>
<g><path style="opacity:1" fill="#e6ebe2" d="M 328.5,569.5 C 327.249,572.793 327.249,576.126 328.5,579.5C 338.007,593.169 346.007,607.836 352.5,623.5C 357.636,630.769 363.47,637.436 370,643.5C 370.678,647.221 370.511,650.888 369.5,654.5C 368.209,654.737 367.209,654.404 366.5,653.5C 368.391,651.164 368.891,648.498 368,645.5C 361.26,639.43 355.26,632.763 350,625.5C 342.381,609.926 334.547,594.593 326.5,579.5C 325.931,575.671 326.598,572.337 328.5,569.5 Z"/></g>
<g><path style="opacity:1" fill="#effae8" d="M 678.5,591.5 C 679.268,592.263 679.768,593.263 680,594.5C 680.167,597.833 680.333,601.167 680.5,604.5C 679.788,615.197 678.454,625.53 676.5,635.5C 677.943,620.88 678.609,606.213 678.5,591.5 Z"/></g>
<g><path style="opacity:1" fill="#9ac485" d="M 675.5,578.5 C 677.064,582.587 678.064,586.921 678.5,591.5C 678.609,606.213 677.943,620.88 676.5,635.5C 675.833,637.5 675.167,639.5 674.5,641.5C 677.787,620.56 678.121,599.56 675.5,578.5 Z"/></g>
<g><path style="opacity:1" fill="#e9f4e2" d="M 180.5,635.5 C 182.951,638.74 184.618,642.407 185.5,646.5C 184.883,646.389 184.383,646.056 184,645.5C 183.827,651.016 183.327,656.349 182.5,661.5C 182.666,654.825 182.5,648.158 182,641.5C 181.5,641 181,640.5 180.5,640C 174.843,639.501 169.176,639.334 163.5,639.5C 168.975,638.511 174.642,638.178 180.5,638.5C 180.5,637.5 180.5,636.5 180.5,635.5 Z"/></g>
<g><path style="opacity:1" fill="#f8fcf4" d="M 123.5,649.5 C 127.145,651.145 129.812,653.812 131.5,657.5C 129.144,660.022 126.977,662.688 125,665.5C 124.316,660.178 123.816,654.844 123.5,649.5 Z"/></g>
<g><path style="opacity:1" fill="#a5be98" d="M 357.5,653.5 C 360.579,654.372 363.579,654.372 366.5,653.5C 367.209,654.404 368.209,654.737 369.5,654.5C 362.687,655.491 355.687,655.825 348.5,655.5C 351.5,654.833 354.5,654.167 357.5,653.5 Z"/></g>
<g><path style="opacity:1" fill="#abd099" d="M 341.5,655.5 C 341.389,656.117 341.056,656.617 340.5,657C 333.508,657.5 326.508,657.666 319.5,657.5C 326.653,656.462 333.986,655.796 341.5,655.5 Z"/></g>
<g><path style="opacity:1" fill="#afd39f" d="M 162.5,671.5 C 163.774,682.307 163.774,692.974 162.5,703.5C 162.39,692.624 162.39,681.957 162.5,671.5 Z"/></g>
<g><path style="opacity:1" fill="#a5c894" d="M 104.5,679.5 C 105.914,688.949 105.248,698.282 102.5,707.5C 103.825,698.22 104.492,688.886 104.5,679.5 Z"/></g>
<g><path style="opacity:1" fill="#252525" d="M 281.5,693.5 C 282.833,693.833 284.167,694.167 285.5,694.5C 293.217,696.911 301.217,698.578 309.5,699.5C 312.85,699.335 316.183,699.502 319.5,700C 326.416,703.157 333.749,704.824 341.5,705C 342.833,705.667 344.167,706.333 345.5,707C 351.189,707.373 356.855,707.873 362.5,708.5C 369.316,709.854 376.316,710.854 383.5,711.5C 391.582,711.634 399.249,713.468 406.5,717C 420.022,718.543 432.689,722.543 444.5,729C 455.892,732.9 467.558,735.733 479.5,737.5C 481.838,739.04 484.505,739.706 487.5,739.5C 498.094,740.85 508.094,744.017 517.5,749C 533.659,753.745 549.993,757.078 566.5,759C 585.091,759.444 603.424,757.944 621.5,754.5C 627.874,769.729 629.04,785.395 625,801.5C 621.761,809.311 619.094,817.311 617,825.5C 615.744,829.016 613.744,832.016 611,834.5C 609.086,853.505 609.086,872.505 611,891.5C 615.264,901.958 618.931,912.625 622,923.5C 630.77,940.147 637.77,957.48 643,975.5C 657.279,987.082 668.446,1001.08 676.5,1017.5C 602.833,1017.5 529.167,1017.5 455.5,1017.5C 450.281,1004.72 443.781,992.724 436,981.5C 431.667,971.833 427.333,962.167 423,952.5C 413.687,919.612 406.021,886.279 400,852.5C 396.873,843.456 393.54,834.456 390,825.5C 383.28,833.886 376.947,842.553 371,851.5C 361.661,872.356 353.828,893.69 347.5,915.5C 356.379,928.599 362.546,942.932 366,958.5C 371.333,968.5 376.667,978.5 382,988.5C 385.794,998.047 389.294,1007.71 392.5,1017.5C 317.833,1017.5 243.167,1017.5 168.5,1017.5C 168.67,1015.15 169.003,1012.82 169.5,1010.5C 168.051,1005.97 167.217,1001.3 167,996.5C 164.854,993.874 163.521,990.874 163,987.5C 161.519,969.519 160.853,951.519 161,933.5C 165.427,913.607 169.427,893.607 173,873.5C 179.133,848.768 187.466,824.768 198,801.5C 211.924,779.315 226.591,757.648 242,736.5C 256.478,723.196 269.645,708.863 281.5,693.5 Z"/></g>
<g><path style="opacity:1" fill="#81aa6d" d="M 285.5,694.5 C 291.807,695.309 298.14,696.143 304.5,697C 306.491,697.374 308.158,698.207 309.5,699.5C 301.217,698.578 293.217,696.911 285.5,694.5 Z"/></g>
<g><path style="opacity:1" fill="#7fa76c" d="M 362.5,708.5 C 367.844,708.334 373.177,708.501 378.5,709C 380.315,709.757 381.981,710.59 383.5,711.5C 376.316,710.854 369.316,709.854 362.5,708.5 Z"/></g>
<g><path style="opacity:1" fill="#435b37" d="M 479.5,737.5 C 482.428,737.565 485.095,738.232 487.5,739.5C 484.505,739.706 481.838,739.04 479.5,737.5 Z"/></g>
<g><path style="opacity:1" fill="#f9f9f9" d="M 455.5,1017.5 C 434.5,1017.5 413.5,1017.5 392.5,1017.5C 389.294,1007.71 385.794,998.047 382,988.5C 376.667,978.5 371.333,968.5 366,958.5C 362.546,942.932 356.379,928.599 347.5,915.5C 353.828,893.69 361.661,872.356 371,851.5C 376.947,842.553 383.28,833.886 390,825.5C 393.54,834.456 396.873,843.456 400,852.5C 406.021,886.279 413.687,919.612 423,952.5C 427.333,962.167 431.667,971.833 436,981.5C 443.781,992.724 450.281,1004.72 455.5,1017.5 Z"/></g>
</svg>
