<?xml version="1.0" standalone="no"?>
<!DOCTYPE svg PUBLIC "-//W3C//DTD SVG 20010904//EN"
 "http://www.w3.org/TR/2001/REC-SVG-20010904/DTD/svg10.dtd">
<svg version="1.0" xmlns="http://www.w3.org/2000/svg"
 width="720.000000pt" height="1018.000000pt" viewBox="0 0 720.000000 1018.000000"
 preserveAspectRatio="xMidYMid meet">

<g transform="translate(0.000000,1018.000000) scale(0.100000,-0.100000)"
fill="#000000" stroke="none">
<path d="M3970 9840 c-47 -4 -182 -15 -300 -24 -118 -9 -260 -25 -315 -36 -55
-11 -147 -27 -205 -35 -153 -22 -411 -87 -825 -208 -186 -55 -249 -78 -530
-199 -77 -33 -297 -113 -490 -178 -192 -64 -444 -152 -560 -194 -115 -43 -257
-91 -315 -108 -79 -22 -113 -37 -138 -61 l-34 -32 5 -220 c4 -204 7 -236 46
-445 22 -124 41 -259 42 -300 0 -41 4 -97 8 -125 25 -155 31 -201 41 -305 53
-564 71 -738 90 -850 6 -36 16 -90 21 -120 5 -30 18 -86 29 -125 29 -105 62
-291 63 -359 2 -57 4 -62 37 -84 34 -23 39 -24 195 -19 103 4 178 11 211 21
28 9 91 18 140 21 358 22 413 40 411 138 0 29 7 77 17 108 l18 57 52 -14 c28
-8 56 -14 63 -14 9 0 39 99 31 105 -17 13 -160 36 -250 41 -101 5 -129 3 -263
-25 -143 -29 -380 -60 -388 -50 -3 2 0 38 5 79 10 85 2 561 -12 720 -5 58 -14
195 -20 305 -6 110 -15 238 -20 285 -5 47 -10 204 -11 350 -1 146 -5 297 -9
335 -4 39 -11 97 -14 130 l-7 60 83 32 c46 17 111 39 146 48 85 21 195 63 327
124 61 28 116 51 123 51 8 0 44 13 80 29 37 16 103 36 147 46 44 9 97 23 118
31 20 8 45 14 55 14 10 0 38 10 63 22 50 25 302 94 399 109 36 6 97 23 135 39
99 40 159 58 250 75 170 32 232 46 305 70 83 27 184 52 275 66 33 5 71 13 85
19 14 5 68 16 120 24 134 21 282 53 370 82 41 13 90 25 109 26 l35 3 48 -125
c107 -276 151 -385 159 -395 9 -13 56 -130 109 -278 22 -59 44 -116 49 -126 8
-14 6 -23 -10 -37 -12 -11 -44 -52 -71 -91 -43 -62 -55 -73 -80 -73 -41 0 -88
-22 -162 -75 -70 -50 -198 -181 -222 -227 -14 -27 -16 -27 -38 -13 -86 56
-180 21 -193 -72 -10 -73 67 -124 133 -90 l29 15 0 -97 c0 -116 30 -223 76
-276 l30 -34 -57 -68 c-32 -37 -84 -108 -116 -158 -53 -82 -57 -91 -41 -103
15 -11 86 -35 88 -29 0 1 32 49 70 107 82 122 133 176 350 365 88 77 196 175
241 217 47 46 101 87 130 99 57 26 75 46 68 74 -24 84 -130 46 -283 -100 -151
-144 -363 -326 -375 -322 -22 6 -56 94 -65 168 -12 91 5 188 45 256 33 57 133
158 205 206 46 32 66 39 110 40 l54 2 75 99 c82 109 106 127 251 192 129 59
217 77 339 71 124 -6 200 -34 255 -93 43 -46 79 -64 127 -64 17 0 66 -16 109
-35 43 -20 140 -53 215 -75 96 -27 144 -45 159 -62 41 -43 95 -217 86 -280 -1
-9 7 -33 18 -54 28 -51 21 -154 -19 -274 -16 -50 -30 -99 -30 -109 0 -29 34
-51 102 -67 101 -23 115 -31 143 -87 14 -28 25 -63 25 -77 0 -49 -46 -164 -81
-201 -38 -40 -75 -135 -65 -167 11 -33 65 -82 91 -82 43 0 71 64 39 91 -22 18
-10 56 30 99 47 49 96 182 96 258 0 47 -7 72 -32 121 -41 79 -83 116 -156 137
-31 9 -58 18 -60 19 -1 1 9 42 23 90 29 100 34 227 11 278 -7 18 -21 70 -30
117 -18 97 -67 224 -99 258 -39 42 -99 69 -235 106 -73 20 -158 49 -190 65
-32 16 -84 34 -117 40 -46 9 -65 18 -89 45 -112 122 -426 157 -628 69 -51 -22
-65 -13 -73 46 -4 28 -15 61 -25 74 -11 13 -26 43 -35 65 -8 23 -22 60 -30 83
-9 23 -33 73 -54 113 -21 39 -49 105 -61 146 -29 100 -70 209 -119 309 -25 52
-49 126 -66 199 -14 64 -30 133 -36 154 -9 37 -69 99 -92 97 -7 -1 -50 -5 -97
-9z m103 -170 c3 -11 1 -18 -4 -14 -5 3 -9 12 -9 20 0 20 7 17 13 -6z"/>
<path d="M3413 8915 c-14 -10 -22 -29 -25 -57 -11 -105 -74 -421 -123 -618
-65 -263 -107 -505 -109 -625 -1 -82 -3 -92 -25 -111 -17 -15 -22 -26 -17 -42
13 -40 42 -46 104 -23 78 28 334 91 372 91 66 0 160 61 160 105 0 50 -49 59
-106 20 -21 -14 -51 -25 -71 -25 -27 0 -228 -45 -295 -66 -16 -5 -18 2 -18 53
0 32 7 90 16 128 40 185 57 269 75 370 11 61 31 157 45 214 14 57 27 118 29
135 4 41 55 329 58 333 2 1 35 -19 75 -45 39 -27 131 -108 204 -182 73 -73
168 -162 210 -197 42 -35 80 -72 83 -83 13 -40 80 -36 91 5 12 48 4 58 -154
195 -45 39 -131 121 -190 181 -109 112 -307 259 -348 259 -11 0 -29 -7 -41
-15z"/>
<path d="M1650 8685 c-25 -7 -89 -31 -142 -53 -57 -24 -105 -38 -117 -35 -25
6 -49 -12 -62 -45 -10 -26 12 -182 36 -262 8 -25 32 -144 54 -265 22 -121 45
-237 51 -257 14 -48 61 -88 104 -88 42 0 146 52 256 127 97 67 114 96 87 142
-9 16 -17 37 -17 48 0 17 -22 121 -74 353 -13 58 -30 149 -37 203 -7 54 -18
105 -23 113 -19 24 -67 32 -116 19z m1 -350 c21 -83 41 -172 45 -200 3 -27 13
-67 20 -89 8 -21 14 -42 14 -46 0 -4 -29 -26 -65 -49 -65 -40 -66 -40 -74 -18
-4 12 -14 65 -20 117 -11 77 -39 229 -68 367 -4 18 4 26 43 47 27 14 53 24 58
23 5 -2 26 -70 47 -152z"/>
<path d="M3595 8600 c-3 -5 -19 -10 -34 -10 -58 0 -119 -80 -105 -138 8 -31
39 -102 95 -217 83 -169 111 -199 154 -171 24 16 26 23 46 177 17 137 -9 288
-59 342 -26 28 -84 38 -97 17z"/>
<path d="M1150 8510 c-19 -11 -42 -19 -51 -20 -50 -1 -52 -56 -10 -213 16 -59
28 -107 25 -107 -2 0 -18 28 -35 63 -18 34 -40 73 -51 87 -11 14 -26 40 -33
58 -12 27 -19 32 -49 32 -26 0 -40 -7 -56 -27 -21 -26 -22 -35 -16 -123 4 -52
20 -176 36 -275 17 -99 30 -196 30 -215 1 -54 27 -150 46 -171 11 -12 24 -17
33 -13 9 3 38 8 65 11 95 8 103 27 61 140 -40 106 -69 263 -46 249 5 -4 29
-41 54 -84 25 -42 55 -86 67 -97 12 -11 28 -35 36 -54 29 -70 73 -91 107 -53
31 34 14 167 -52 396 -35 122 -58 236 -67 334 -5 58 -11 76 -28 87 -25 18 -23
18 -66 -5z"/>
<path d="M2892 8053 c-17 -7 -65 -105 -87 -180 -10 -35 -22 -63 -26 -63 -5 0
-25 11 -45 25 -21 14 -69 35 -108 46 -39 11 -95 29 -124 41 l-54 21 -20 -21
c-20 -20 -20 -21 -3 -109 67 -350 88 -446 107 -503 12 -36 31 -103 42 -150
l21 -85 41 -3 c33 -2 48 2 72 23 44 37 47 73 17 180 -36 129 -83 385 -71 385
10 0 58 -31 94 -62 18 -15 39 -28 46 -28 17 0 50 38 65 77 27 66 38 60 50 -29
24 -163 101 -409 138 -435 22 -17 45 -16 67 0 18 13 18 21 7 118 -6 57 -22
138 -35 180 -25 82 -42 169 -78 399 -16 103 -27 149 -40 162 -17 17 -49 22
-76 11z"/>
<path d="M2185 7829 c-38 -17 -99 -40 -134 -51 -74 -24 -131 -69 -131 -104 0
-14 11 -51 24 -84 14 -33 36 -113 51 -177 28 -128 52 -216 91 -333 14 -41 29
-91 33 -110 4 -19 17 -56 29 -82 17 -40 25 -48 47 -48 14 0 36 10 48 24 12 13
51 39 86 57 35 19 71 39 80 44 93 59 99 64 104 97 9 61 -64 105 -122 73 -57
-32 -134 -66 -138 -61 -11 11 -53 178 -48 187 4 5 37 25 74 44 119 59 154 102
114 137 -35 30 -74 28 -152 -8 -41 -19 -77 -34 -81 -34 -10 0 -36 81 -54 164
-10 50 -11 68 -2 75 16 13 96 47 181 77 39 13 75 31 82 40 12 17 3 65 -18 90
-19 23 -88 16 -164 -17z"/>
<path d="M1759 7680 c-9 -5 -86 -32 -171 -60 -86 -28 -163 -59 -173 -70 -24
-27 -36 -85 -20 -106 9 -13 20 -15 46 -10 84 17 81 19 96 -69 16 -89 25 -123
78 -305 86 -290 97 -341 84 -371 -9 -24 -9 -33 5 -54 9 -13 28 -28 41 -31 42
-10 113 5 145 32 33 28 37 52 16 92 -8 15 -19 45 -25 67 -18 70 -79 259 -95
295 -8 20 -26 94 -41 165 -14 72 -36 159 -48 194 -18 53 -19 65 -8 69 50 17
177 90 179 104 2 10 -12 26 -35 42 -41 28 -50 30 -74 16z"/>
<path d="M1155 7470 c-27 -10 -94 -33 -148 -50 -111 -36 -125 -50 -102 -105
20 -47 36 -52 102 -31 33 11 59 14 64 9 5 -5 21 -95 34 -199 25 -187 50 -295
86 -365 10 -21 21 -54 25 -76 l6 -38 -75 -37 c-41 -21 -79 -38 -84 -38 -20 0
-43 -38 -43 -71 0 -44 18 -68 50 -71 22 -1 117 34 175 65 174 93 235 134 235
156 0 57 -30 75 -93 56 -35 -10 -48 -11 -54 -2 -27 37 -105 447 -126 661 -1
13 7 22 28 29 41 13 85 45 85 61 0 7 -9 25 -21 40 -25 32 -70 34 -144 6z"/>
<path d="M4728 7318 c-25 -24 -106 -97 -179 -163 -181 -162 -290 -276 -350
-363 -58 -83 -119 -210 -144 -295 -22 -76 -12 -100 75 -188 55 -56 73 -68 115
-77 100 -21 213 30 198 89 -9 32 -46 44 -92 31 -72 -22 -98 -16 -146 34 -25
25 -45 53 -45 62 0 10 9 41 20 70 62 162 150 287 296 417 49 44 120 112 159
150 39 39 103 98 143 133 75 66 88 95 56 126 -26 26 -57 18 -106 -26z"/>
<path d="M4217 7292 c-33 -36 -8 -92 40 -92 25 0 53 30 53 57 0 46 -62 69 -93
35z"/>
<path d="M4995 6926 c-30 -30 -31 -36 -4 -70 23 -30 45 -33 77 -10 24 17 30
65 10 82 -31 24 -57 23 -83 -2z"/>
<path d="M3501 6774 c-12 -15 -21 -29 -21 -33 -1 -3 -7 -51 -13 -106 -14 -113
-6 -516 13 -645 17 -118 48 -208 86 -249 28 -32 32 -42 27 -77 -8 -61 12 -115
72 -196 30 -40 66 -95 80 -122 l27 -48 -26 -27 c-14 -15 -28 -40 -31 -56 -3
-17 -2 -116 2 -222 l8 -191 31 -44 c23 -32 29 -48 23 -63 -13 -33 -10 -98 7
-129 22 -43 176 -204 223 -234 14 -9 49 -33 77 -54 95 -71 160 -91 324 -99
l145 -7 50 53 50 53 -95 6 c-52 3 -129 6 -171 6 -94 0 -169 24 -252 82 -69 48
-239 217 -264 262 l-16 30 29 -19 c16 -10 45 -30 64 -46 94 -72 173 -86 186
-32 9 35 -3 52 -62 83 -59 32 -135 128 -194 245 -36 73 -40 89 -46 188 -7 104
-6 107 14 107 13 0 32 -15 49 -39 82 -113 233 -284 299 -337 70 -57 87 -61
113 -28 26 33 27 67 1 109 -19 31 -176 185 -189 185 -3 0 -35 39 -71 86 -36
47 -92 117 -125 156 -133 156 -215 281 -215 328 0 21 24 28 35 10 3 -5 34 -26
68 -46 34 -20 82 -58 107 -85 73 -79 337 -324 398 -371 31 -23 82 -63 112 -89
80 -67 96 -74 126 -55 13 9 26 29 29 44 3 15 12 50 20 77 8 28 22 85 30 127 8
43 24 101 36 130 35 89 100 207 125 227 34 27 145 46 174 31 30 -16 21 -61
-22 -115 -40 -49 -112 -229 -139 -346 -20 -86 -20 -93 -4 -186 9 -53 22 -107
29 -121 l13 -24 12 30 c7 16 24 40 37 53 23 21 24 27 18 94 -7 79 10 176 51
280 12 33 26 69 29 80 4 11 28 50 52 86 38 55 47 76 51 127 5 52 2 65 -17 92
-27 37 -96 70 -149 70 -68 0 -170 -35 -208 -71 -90 -88 -178 -288 -218 -496
-4 -18 -11 -33 -16 -33 -27 0 -272 216 -489 430 -90 89 -227 180 -272 180 -28
0 -65 44 -79 93 -5 17 -16 131 -25 254 -15 209 -15 233 2 395 10 95 18 196 18
223 l1 50 -61 3 c-57 3 -64 1 -83 -24z"/>
<path d="M5553 6415 c-23 -16 -30 -50 -15 -71 15 -23 52 -34 112 -34 60 0 105
-15 143 -48 24 -22 23 -102 -4 -154 -11 -22 -60 -81 -107 -131 -68 -71 -101
-96 -152 -120 -36 -16 -68 -34 -72 -41 -22 -34 4 -86 44 -86 11 0 50 14 87 32
52 25 87 53 168 137 113 116 161 192 170 269 16 141 -99 250 -275 259 -60 4
-82 1 -99 -12z"/>
<path d="M1572 5807 c-27 -51 -62 -125 -78 -165 -22 -58 -35 -77 -59 -89 -89
-46 -195 -149 -226 -217 -37 -85 -44 -153 -25 -246 10 -46 24 -99 31 -117 l14
-33 -117 -65 c-64 -37 -141 -85 -172 -108 -97 -73 -262 -164 -326 -180 -145
-37 -250 -106 -290 -191 -13 -28 -24 -58 -24 -66 0 -8 -16 -37 -35 -64 -29
-41 -35 -58 -35 -100 0 -75 36 -128 199 -299 142 -149 181 -198 219 -273 54
-106 89 -272 117 -557 17 -173 16 -183 -30 -582 -29 -249 -40 -312 -61 -353
-8 -17 -17 -53 -21 -80 -5 -45 -3 -50 22 -70 15 -12 31 -22 35 -22 24 0 82 57
133 130 33 47 90 121 126 165 37 44 96 118 131 165 36 47 101 123 145 169 122
128 413 390 491 442 189 127 392 253 504 314 69 37 159 87 200 111 84 48 276
117 372 134 35 6 106 25 158 42 170 54 447 70 628 37 55 -10 57 -10 79 16 13
14 23 31 23 36 0 6 -40 53 -90 104 -77 82 -98 111 -151 217 -34 68 -75 142
-90 165 -16 23 -38 62 -49 87 -28 66 -166 312 -211 376 -21 30 -51 74 -66 98
-15 24 -50 77 -78 119 -27 42 -61 94 -75 115 -52 82 -155 135 -332 172 -67 13
-68 13 -68 -8 0 -11 -9 -35 -19 -52 l-19 -32 61 -17 c176 -48 229 -68 260
-100 41 -41 84 -101 140 -196 24 -41 62 -98 83 -127 22 -28 57 -84 78 -124 48
-90 63 -108 91 -108 40 0 55 -30 55 -107 0 -65 3 -76 36 -124 20 -30 62 -106
94 -170 32 -63 74 -136 94 -162 l36 -47 -82 2 c-122 2 -301 -19 -403 -48 -49
-14 -130 -34 -180 -45 -113 -26 -282 -81 -354 -117 -262 -130 -775 -447 -904
-560 -286 -247 -408 -372 -592 -606 -61 -76 -118 -148 -127 -160 -20 -24 -21
-53 17 259 43 360 43 481 -6 785 -26 168 -51 255 -100 353 -54 106 -98 162
-263 335 -158 167 -166 184 -117 252 17 24 36 62 41 84 6 23 16 51 22 63 20
40 116 90 208 108 63 13 267 127 371 207 20 15 91 59 157 96 l120 69 76 -74
c60 -58 94 -82 162 -113 47 -22 95 -40 105 -40 11 0 34 -7 50 -16 28 -14 35
-14 97 6 116 37 155 71 217 185 54 100 78 157 89 207 5 23 11 26 43 26 21 0
65 6 97 14 l60 14 -60 42 c-49 36 -64 42 -91 37 -26 -5 -32 -3 -27 9 3 8 -1
27 -9 43 -23 43 -57 149 -57 175 0 57 69 118 133 118 20 0 87 37 155 85 26 19
28 42 6 73 -19 27 -59 29 -95 4 -131 -86 -182 -143 -248 -276 -18 -35 -42 -66
-60 -77 -34 -21 -40 -51 -17 -84 7 -11 16 -32 20 -47 3 -15 15 -30 27 -33 20
-7 21 -12 16 -70 -5 -49 -18 -87 -55 -162 -44 -86 -86 -144 -95 -132 -2 2 -21
33 -42 69 -39 64 -39 66 -43 188 -4 116 -6 124 -28 138 -27 18 -60 11 -74 -16
-34 -64 -18 -235 32 -338 16 -35 28 -65 25 -68 -11 -11 -81 10 -159 50 l-83
41 -3 106 c-2 97 0 113 28 189 31 83 31 84 12 109 -10 15 -28 27 -39 29 -44 7
-100 -66 -124 -162 -19 -74 -34 -42 -34 72 0 81 4 104 22 138 24 45 115 120
195 160 51 26 62 40 72 96 4 20 34 89 66 153 33 64 60 117 60 119 0 1 -20 17
-44 34 l-44 32 -50 -93z"/>
<path d="M4081 5876 c-56 -10 -79 -18 -93 -35 -10 -13 -18 -27 -18 -33 0 -17
51 -60 65 -54 7 2 58 10 112 16 123 13 220 2 291 -34 29 -15 72 -29 96 -32 40
-6 46 -4 61 20 27 41 9 70 -57 92 -29 9 -69 25 -88 35 -75 39 -222 49 -369 25z"/>
<path d="M4860 4330 c-19 -11 -55 -25 -79 -31 l-44 -11 30 -18 c16 -10 39 -30
50 -46 20 -26 22 -27 54 -14 41 17 99 67 99 86 0 20 -37 54 -57 54 -10 -1 -34
-10 -53 -20z"/>
<path d="M2759 3162 c-40 -48 -130 -145 -200 -217 -143 -148 -214 -242 -406
-533 -145 -221 -239 -401 -297 -570 -50 -144 -111 -376 -135 -508 -11 -61 -30
-149 -41 -195 -45 -175 -61 -296 -60 -469 0 -261 17 -405 52 -448 12 -14 19
-81 19 -169 l0 -53 1114 0 c828 0 1115 3 1115 11 0 14 -84 238 -112 299 -12
25 -45 88 -74 140 -29 52 -74 155 -99 228 -44 128 -92 235 -134 297 -12 17
-21 39 -21 50 0 29 87 276 164 464 53 128 84 190 146 281 87 128 117 161 124
139 3 -8 25 -71 50 -140 29 -83 52 -171 66 -254 25 -154 75 -378 139 -615 51
-191 67 -243 88 -290 11 -25 33 -78 48 -119 15 -41 47 -101 69 -135 23 -34 73
-122 110 -196 38 -74 73 -141 79 -147 7 -10 240 -13 1103 -13 602 0 1094 2
1094 5 0 38 -156 251 -252 346 l-88 86 -31 104 c-17 57 -58 160 -91 229 -33
69 -69 154 -80 190 -11 36 -41 117 -66 180 l-46 115 -1 280 0 280 28 37 c16
21 42 77 57 125 16 48 41 122 56 163 42 118 38 270 -14 439 l-16 53 -41 -6
c-338 -50 -482 -51 -745 -2 -47 8 -105 22 -129 31 -24 8 -50 15 -58 15 -9 0
-50 15 -92 34 -42 19 -112 42 -155 51 -44 9 -82 18 -85 20 -4 2 -60 15 -126
29 -66 15 -156 37 -200 50 -44 13 -93 27 -110 31 -16 4 -52 18 -80 32 -27 14
-81 33 -120 43 -218 57 -265 70 -286 79 -13 5 -89 17 -169 26 -80 9 -162 21
-182 26 -21 5 -59 10 -85 10 -27 0 -70 6 -98 14 -27 7 -70 16 -95 20 -25 4
-70 14 -100 22 -30 9 -86 19 -125 23 -108 12 -258 41 -281 55 -19 12 -26 7
-95 -73z"/>
</g>
</svg>
