<svg version="1.1" id="Layer_1" xmlns="http://www.w3.org/2000/svg" x="0" y="0" viewBox="0 0 500 500" xml:space="preserve" class="show_show__wrapper__graphic__5Waiy"><style>.st0{fill:#222}.st1{fill:#fff}.st2{fill:#8dc572}</style><g id="character"><path class="st0" d="M356 169.3s3.5-28.2-16.8-40.7-43.1-15.3-60.9-5.1-29.7 22.3-25.2 44.6 10.9 32.9 5.5 42.2-5.9 14.1 2 15.2c8 1.2 1 13.7 7.4 18.8s43.1 3.1 55-9 48.5-5.1 57.9-17.6-12.4-15.3-7.4-23.5 5-11-5-12.1-11.5-8.5-12.5-12.8z"/><path class="st0" d="M282.6 247.5c-7 0-12.7-.9-15-2.7-3.2-2.6-3.3-6.8-3.3-10.6-.1-4.7-.3-7.5-3.9-8.1-3.2-.5-5.1-1.5-6-3.3-1.2-2.5-.1-6.2 3.6-12.7 3.7-6.3 1.8-13.1-1.2-24.3-1.4-5-2.9-10.7-4.3-17.6-4.8-24.1 9.4-35.9 25.5-45.1 17.3-9.9 40.2-8 61.4 5.1 19.8 12.2 17.3 39.3 17.1 41.1v.2c1 4.4 2.5 11.1 11.9 12.2 5 .6 7.4 1.6 8.3 3.4 1 2.1-.3 5.1-3 9.5-2 3.2.8 5.6 3.9 8.3 4 3.5 9.1 7.8 3.5 15.2-4.9 6.5-16.6 7.8-28.9 9.2-11.5 1.3-23.3 2.6-29.1 8.4-7.8 8.2-26.7 11.8-40.5 11.8zm20-129.7c-8.4-.1-16.7 2-24 6.1-15.8 9-29.7 20.6-25 44.1 1.4 6.9 2.9 12.6 4.3 17.6 3 11.1 5 18.4 1.1 25-3.6 6.1-4.6 9.7-3.6 11.8.7 1.4 2.4 2.3 5.2 2.7 4.6.7 4.6 4.9 4.7 9.1 0 3.7.1 7.6 3 9.8 6.1 4.9 42.7 2.9 54.3-9 6-6.1 18-7.4 29.7-8.7 12.1-1.4 23.6-2.6 28.2-8.8 5-6.7.8-10.3-3.4-13.9-3.2-2.8-6.5-5.6-4.1-9.6s3.8-6.9 2.9-8.6c-.7-1.4-3-2.3-7.5-2.8-10-1.2-11.7-8.6-12.7-13l-.1-.3v-.2c0-.3 3.2-28-16.6-40.2-12.1-7.3-24.7-11.1-36.4-11.1z"/><path class="st1" d="M267.9 221.2c-17-11.7-6.8-60-6.8-60 7.5-3.1 19-13.1 19-13.1.9 24.7 30.3 25.6 30.3 25.6 3.1-14.1 19.1-12.5 20.8.3s-10.1 16.6-10.1 16.6 15.1 38.3 15 43.6-27.5 17.6-40.7-5c0 0-16 0-27.5-8z"/><path class="st0" d="m269.2 221.5-1.2-.9c-.5-.4-.9-.9-1.3-1.4-.9-1.1-1.6-2.2-2.2-3.4-1.3-2.7-2.3-5.6-2.9-8.6-1.3-6.7-1.7-13.6-1.3-20.4.3-5.8.8-11.7 1.7-17.5.3-1.7.6-3.5.9-5.2 0-.4.1-.9.3-1.3.2-.6.8-.6 1.4-.9 6.4-3.1 12.3-7.8 17.6-12.5l-4.3-2.4c.1 4.4 1.3 8.6 3.5 12.4 2.2 3.3 5.1 6.2 8.4 8.3 5.6 3.6 11.9 6 18.5 7 1.4.2 2.7.4 4.1.4l.1-.1c.8-3.7 2.9-7.5 6.5-9.1 1.4-.6 3-.9 4.5-.8.6.1 1.2.2 1.8.4.6.1.1.1.1 0l-.2-.1c0-.1-.1-.2 0 0s.4.3.5.4c2.9 2.8 3.8 7.4 3.3 11.3-.4 3.6-2.2 6.8-4.9 9.2-1.5 1.3-3.2 2.3-5.1 3-.1 0-.2.1-.1.2 2.1 5.4 4.2 10.8 6.2 16.3 3 7.9 6.1 15.9 8.2 24.1.5 2 .9 3.5-.7 5.2-2.2 2.3-5.5 3.7-8.6 4.6-4.2 1.3-8.7 1.6-13 .9-1.1-.2-2.2-.5-3.3-.8-.9-.3-1.8-.7-2.6-1.2-.9-.5-1.7-1.2-2.4-1.8-1-.9-2-2-2.9-3.1-.5-.6-.9-1.2-1.4-1.9-.4-.8-.9-1.5-1.5-2.2-1.1-1-2.4-1.6-3.9-1.8-1.2-.1-2.5-.1-3.7-.2-5.7-.4-11.3-1.8-16.5-4-1.1-.6-2.4-1.3-3.6-2.1-.8-.5-2.1-1.6-3.1-1.5s.1.8.5 1c9.1 6.1 19.9 9.4 30.9 9.4l-4.2-2.4c4.9 8.3 13.7 14.4 23.4 15.3 6.4.6 13.5-.8 18.8-4.5 1.3-.9 2.9-2.2 2.8-3.9-.2-2.2-.8-4.4-1.5-6.4-2.2-7.2-4.8-14.2-7.4-21.3-1.2-3.3-2.5-6.5-3.7-9.8-.6-1.9-1.3-3.7-2.1-5.4-.1-.1-.1-.3-.2-.4 0 .2-.3.2 0 .1.8-.2 1.6-.6 2.2-1.1 7.3-3.8 10.2-12.7 6.5-20-1.9-3.8-5.8-6.5-9.8-7.8-3.3-1.1-7-.4-9.7 1.8-1.6 1.4-2.7 3.1-3.5 5-.2.5-.4 1-.5 1.5 0 .1-.2 1.2-.2 1.2h-.8l-1.1-.1c-1-.1-1.9-.3-2.9-.4-1.2-.2-2.5-.5-3.6-.8-1.4-.4-3-.9-4-1.3l-1.2-.5c-.4-.2-.1-.1 0 0l-.6-.3-.6-.3c-.6-.3.5.3-.2-.1l-.4-.2-.4-.2c-.6-.3-1.2-.7-1.7-1.2l-1.8-1.5c-2.7-2.6-4.8-5.9-5.8-9.6-.6-2.1-.9-4.3-1-6.5 0-.9-3.7-3-4.4-2.4-4.8 4.3-10 8.2-15.6 11.4-.9.5-1.7.9-2.6 1.3-.3.1-.6.2-.8.4-.1.3-.2.6-.2.9-.3 1.6-.6 3.2-.8 4.8-2 12.4-3.1 25.4-.9 37.8 1.2 6.7 3.8 13.3 9.5 17.3.8.5 2.1 1.6 3.1 1.5s0-.5-.4-.8z"/><path class="st0" d="M306.5 190c-.2-.8-.1-.5 0-.1s.1.6.1.9v2.6c0 .1-.1.6 0 .2s0 .1 0 .2l-.1.4c-.1.3-.1.7-.2 1l-.3.9-.2.4-.1.2c-.1.3.3-.5 0-.1-.4.6-.8 1.2-1.2 1.7l-.2.2c-.2.3.1 0 .1-.1 0 .1-.4.3-.4.4-.3.3-.6.5-1 .7-.1 0-.2.1-.3.2-.3.2-.1.1 0 0-.2.1-.5.3-.7.3-.5.2-1 .4-1.6.5-.2.1-.3.2 0 0-.1.1-.3.1-.5.1-.3.1-.7.1-1 .2-.7.1-1.5.1-2.2.2-1 0-1.8.8-1.7 1.8 0 .2 0 .3.1.5.5 1.1 1.7 1.8 3 1.7 4.3-.1 9-1.6 11.4-5.3 1.5-2.4 2.2-5.2 2-8 0-.7-.1-1.4-.3-2.1-.2-1.2-2-1.9-3-1.7-1 0-1.8.9-1.7 1.9-.1 0 0 .2 0 .2zM270.7 182.8c-.1-.7-.3-1.4-.7-2.1-.6-1-1.5-1.7-2.6-2.1-1-.4-2.2-.5-3.2-.2-.8.2-1.4.8-1.6 1.6-.1 1 0 2.1.4 3 .3.5.8.9 1.4 1 .3.1.9.1.7-.4-.4-.8-.5-1.7-.4-2.5.3-.8 1-1.3 1.9-1.4h.6l.4.1c-.2 0 .1 0 .1.1-.1-.1-.1-.1 0 0s.1 0 0 0h.1l-.1-.1.1.1c-.1-.1-.1-.1-.1 0l.1.1c-.1-.1-.1-.1 0 0 0 .1.1.1.2.2-.1-.2 0 .1.1.1.1.2.1.3.2.5.1.3.2.7.2 1 .1.5.7.9 1.2 1.1.2.1 1.2.4 1-.1zM292.1 180.7c.1-.7 0-1.5-.2-2.2-.4-1-1.2-1.8-2.1-2.3-1-.6-2.2-.9-3.4-.8-.8.1-1.5.5-1.9 1.2-.4.9-.4 1.9-.3 2.9.1.5.7.9 1.2 1.1.2.1 1.1.4 1.1-.1V178.2c.1-.5.5-.9 1-1.1.3-.1.6-.2.9-.2h.4l.3.1h.1l.1.1-.1-.1.1.1-.1-.1.1.1.1.1c-.1-.1 0 0 0 .1l.1.1s-.1-.1 0 0 .1.3.2.4c0 .1.1.2.1.4v1.6c0 .2.2.4.4.6.2.2.5.4.8.5.3 0 1.1.2 1.1-.2z"/><path class="st1" d="M274.2 183.9c-3.7 4.4-8.1 8.1-12.9 11.2-16.1 10.7-15.4 17.7-8.5 18.7s29.5-12.3 29.5-12.3"/><path class="st0" d="M271.9 183.1c-4.1 5.2-9.8 8.9-15.1 12.7-3.3 2.2-6.3 4.9-8.8 8-1.3 1.7-2.5 3.8-2.3 6 .5 4.6 7.4 5.6 10.9 5.1 5.6-.9 11.1-3.6 16.2-6.1 4-2 7.9-4.1 11.7-6.3.9-.5-1.1-1.5-1.4-1.6-1-.5-2.1-.5-3.1-.1-.9.5-1.3.7-2.3 1.3-2 1.1-4.1 2.3-6.2 3.3-4.9 2.7-10 4.9-15.3 6.7-1 .3-1.9.5-2.9.7-.1 0-.8.1-.3 0h-.6c.4 0 .3 0 0 0 .2 0 .2 0-.3-.1s.5.2-.1 0c-.1 0-.4-.2.1.1-.1 0-.1-.1-.2-.1 0 0-.4-.2-.1 0s0 0-.1 0l-.2-.2c-.2-.2.3.3 0 0-.5-.4-.8-1-.8-1.6-.3-1.8.8-3.7 1.8-5.1 2.2-2.9 4.9-5.4 7.9-7.4 5.6-4.2 11.8-7.9 16.2-13.5.9-1.2-3.7-2.8-4.6-1.6l-.1-.2z"/><path class="st2" d="M293.5 246.9s-12.9-5.8-4.3-12.8 43.6-16.4 51.5-14.8 4.9 18.4 4.9 18.4S516 331 457.3 367.5c-27.2 16.9-216.8 16.2-233.6 7.2s62.3-127.2 69.8-127.8z"/><path class="st0" d="M387.9 367.5s-36.2 10.7-31.1 19.9 75.6-1.4 77.9-6-21.3-21.3-46.8-13.9z"/><path class="st0" d="M387 365.2c-3.8 1.1-7.6 2.4-11.3 3.9-5.9 2.3-12.2 4.8-17.1 8.9-1.9 1.6-3.8 3.5-4.2 6.1-.3 2.4.7 4.8 2.6 6.2 3.3 2.6 8.4 2.8 12.4 3 13.8.7 27.8-1 41.3-3.1 5.9-.9 11.7-2 17.4-3.5 1.9-.5 3.8-1.1 5.6-1.8 1.2-.3 2.2-1.2 2.7-2.3.8-2.5-1.1-5.3-2.8-7-2.6-2.6-5.5-4.7-8.8-6.3-9-4.7-19.2-6.7-29.3-5.8-2.8.3-5.7.8-8.5 1.7-2.4.6-.4 5.2 1.6 4.6 9.9-2.8 20.4-2.4 30 1.1 3.5 1.2 6.9 2.9 10 5 .6.4 1.2.9 1.8 1.4.3.2.5.5.8.7l.3.3c.4.4-.2-.3.1.1s.7.9 1.1 1.3c-.4-.4-.1-.2.1.1.1.1.1.2.2.3.3.4-.2-.6-.1-.2.3.6 0-.1 0 0 .1.5 0-.5 0 0 0 0 .2-.5 0-.2s-.1.1 0 0 .1-.1 0 0c-.2.3.4-.2-.1.1-.2.1-.4.3-.7.4-.6.3-1.2.6-1.8.8l-.5.2-.2.1-1.4.4c-5 1.4-10.2 2.6-15.3 3.5-13.1 2.4-26.3 3.7-39.6 3.8-4.5 0-9.1-.1-13.5-1.5-.4-.1.4.1.1 0l-.3-.1-.6-.4c-.3-.1-1.1-.8-.5-.2-.3-.2-.8-.8-.3-.1-.1-.1-.2-.2-.2-.3.6.9 0-.4.3.5-.1-.2-.2-.9-.1-.1 0-.1-.1-.7-.1-.3v-.3c0-.4-.1.3 0 .1s.1-.3.1-.4c.1-.2.1-.4.2-.6-.1.1 0 0 .2-.3.3-.5.7-.9 1.1-1.4 1.8-1.8 3.9-3.3 6.2-4.5 2.8-1.6 5.7-3 8.7-4.2 4.4-1.9 9.1-3.5 13.3-4.8l.8-.2c1.1-.3 1.3-1.5.9-2.5-.3-.9-1.4-2.5-2.6-2.2z"/><path class="st1" d="M422 352.8s-34.9-12.5-49-9.6-14.8 25.7-12.7 27.2 6.4-2.3 6.4-2.3-6.9 17.9 3.2 11.3c0 0-1.1 6.9 8.1 1.7 6-3.4 11.7-7.3 17.1-11.6 0 0-9.3 14.5-3.2 13.9s16.8-14.2 16.8-14.2 37.3 10.1 33.3-.9"/><path class="st0" d="M420.6 350.8c-4-1.4-8-2.7-12.1-3.9-7.8-2.4-15.7-4.2-23.8-5.5-6.6-.9-14.5-1.7-19.8 3.1-4.8 4.4-6.8 11.6-7.2 18-.1 2.3-.1 4.9 1.1 7s2.9 3.7 5.3 2.9c1.5-.5 2.8-1.4 4-2.4l-3.2-3.7c-.8 2.1-1.4 4.2-1.9 6.4-.4 1.4-.5 2.9-.3 4.4.4 2.2 1.7 4.1 3.7 5.3 1.6.9 3.6-.3 5-1.2l-3.2-3.7c-.1.8 0 1.6.2 2.4.7 2 2.6 4.7 4.9 5 3 .5 6.2-1.9 8.6-3.3 3.4-2 6.7-4.2 9.9-6.5l4.8-3.6-3.1-3.9c-1.2 1.8-2.3 3.8-3.2 5.7-1.1 2.3-2.9 5.5-1.8 8.1.7 1.6 2.3 3.8 4.2 4 1.5 0 3-.5 4.2-1.4 3.4-2.2 6.4-4.9 9.1-7.9 1.1-1.2 2.1-2.4 3.1-3.6.3-.3.6-.6.9-1 .1-.2.3-.3.1-.2.4 0 .8.2 1.2.3.9.2 1.8.5 2.8.7 6.1 1.5 12.3 2.6 18.5 3.1 3.6.2 13.1.7 10.9-5.5-.4-1.1-1.1-2-2-2.8-.2-.2-1.6-1.2-1.2-.2 1.8 5-6.8 4.7-9.6 4.6-6.4-.5-12.7-1.5-18.9-3.1-1.5-.4-3-.7-4.5-1.1h-.3c-3.3 4.3-7.1 8.2-11.4 11.6-1.2.9-2.5 1.7-3.9 2.3-.5.2-1.1.3-1.6.3-.2 0-.5-.1-.7-.1.1 0 0 0 0 0 1 .6 1.7 1.5 2.1 2.6v-.1c.2-2.4.9-4.8 2.1-6.9.9-1.9 1.9-3.7 3.1-5.4.5-.8-2.5-4.4-3.1-3.9-4.8 3.9-9.9 7.4-15.2 10.5-1.7 1.1-3.5 2-5.5 2.7-.6.2-1.2.3-1.8.3-.3 0-.8-.3-1-.2.9-.1 1.1 1.8 1.7 2 .1 0 0 .2 0-.1-.1-.2-.1-.4-.1-.6v-.9c.1-.8-2.4-4.2-3.2-3.7-.8.6-1.8 1.1-2.8 1.4-.3 0-.6.1-.9 0-.2 0-.1-.1-.2-.1.6.4 1.1.9 1.5 1.5l.4.7c-.1-.1 0 .2 0-.2 0 0-.1-.4-.1-.2 0-.3-.1-.7 0-1 0-.8.1-1.7.3-2.5.5-2.4 1.1-4.8 2-7.1.3-.7-2.6-4.3-3.2-3.7-.9.8-1.9 1.5-3 2-.7.4-1.6.6-2.4.6-.1 0-.2-.1-.3-.1 2.4 0 1.5 1.8 2.1 2.5-.1-.1 0 .3 0-.1-.4-2.1-.4-4.2-.2-6.3.6-6.1 2.7-12.8 7.6-16.8 5.2-4.2 12.6-3.4 18.8-2.5 7.7 1.2 15.3 2.9 22.8 5.2 4.4 1.3 8.8 2.6 13.1 4.2.7.2-.5-1.8-.5-1.8-.5-.9-1.3-1.7-2.3-2.1l-.6-.5z"/><path class="st1" d="M381.9 352.7s-11 7.2-15.3 15.3"/><path class="st0" d="M380 351c-4.3 2.8-8.3 6.3-11.7 10.2-1.4 1.6-2.6 3.3-3.6 5.2-.5.9.4 2 1.1 2.6.4.3 2.2 1.6 2.7.8 1.9-3.2 4.2-6.2 7-8.7 2.2-2 4.5-3.9 6.9-5.7.5-.3.9-.7 1.4-1 .3-.2.1-.9 0-1.1-.2-.6-.6-1-1.1-1.4-.8-.7-1.8-1.4-2.7-.9z"/><path class="st1" d="M394.6 357.3s-20.8 13.3-24.9 22"/><path class="st0" d="M392.5 356.2c-7.3 4.5-14.1 9.8-20.2 15.8-1.9 1.8-3.6 4-4.8 6.3-.4.9 4.1 3 4.5 2.1 2.1-4.5 6.3-8 10-11.1 3.9-3.2 7.9-6.2 12-9 .9-.6 1.7-1.2 2.6-1.7.8-.5-3-3-4.1-2.4z"/><path class="st1" d="M305 406s62 26 84.6 18.5-28.1-28.2-31.7-23.6 7.5 5 15.1-6"/><path class="st0" d="M303.5 407.8c8.2 3.4 16.6 6.5 25 9.3 14.8 4.9 30.1 9.5 45.7 10.6 6 .4 12.5.3 18.1-2.2 2.2-1 4.5-2.6 5.3-5.1.5-1.8.1-3.7-1-5.2-2.9-4.3-8-7.2-12.5-9.5-5.2-2.7-10.7-4.9-16.4-6.5-3.4-.9-9.3-2.6-11.8.8-1 1.1-1.2 2.6-.7 4 .7 1.3 2.3 1.8 3.7 1.8 3.8.2 7.7-1.9 10.6-4.2 2.1-1.7 3.9-3.7 5.4-5.9 1.9-2.7-2.2-4.2-3.7-2-1.3 2-3 3.8-4.9 5.3-.6.5-1.3.9-2 1.3l-1.2.6-.5.2c-.8.3.4-.1-.3.1-.4.1-.7.2-1.1.3l-.4.1c-.6.1.3 0-.1 0h-.8c-.5 0 .4 0 0 0-.1 0-.3 0-.4-.1.5.2 0-.1-.1-.1 0 0 .4.3.1.1s.2.5.1.2v.2s.1.2 0-.1-.2.2 0 0c.4-.5-.2.1.1-.2.2-.2-.6.5-.2.3-.7.5-.5.3-.2.2s-.7.3-.2.1c.2-.1.7 0-.2 0h1.6c.1 0 .7.1.3 0s.2 0 .4.1c.5.1 1 .1 1.4.2 1.1.2 2.2.5 3.3.8 5.1 1.4 10 3.4 14.7 5.8 2.4 1.2 4.7 2.5 6.9 4.1.8.6 1.6 1.2 2.4 1.9.7.6 1.4 1.3 2 2.1.1.1.2.2.2.3s-.3-.4-.1-.1l.3.5c.2.3.3.7.5 1 .1.2 0-.5 0 .1 0 .1 0 .3.1.5.1.5 0 0 0 .1 0 .2-.1.3-.1.5 0 .1-.1.4 0 0s-.4.6-.1.2-.1.1-.2.2c-.4.6.3-.2-.2.2l-.4.3c-.2.1-.9.5-.2.1-.5.3-1 .5-1.6.8-.3.1-.6.2-.9.4.5-.2-.2.1-.4.1-.6.2-1.2.3-1.8.5s-1.2.2-1.8.3l-.7.1h-.3l-.6.1c-3 .2-6 .2-9 0-14-1.1-28.4-5.3-41.9-9.7-9.1-3-17.2-6-26-9.5l-.4-.2c-1.2-.5-2.6-.2-3.4.8-.7.8-.8 2.3.4 2.8l.2.2z"/><path class="st1" d="M321 247.9c-8.1 2.6-16.7 3.3-25.1 2.1-1.1-.2 0 1.1.2 1.3.8.8 1.9 1.3 3 1.6 8.6 1.2 17.4.5 25.7-2.1.8-.3-.8-1.5-1-1.7-.6-.5-2-1.5-2.8-1.2z"/></g><g id="device"><path class="st1" d="M70.4 406s-50.7-159-38-165.4 208.1-4.8 220 5.5c11.9 10.3 24.6 134.6 24.6 134.6s52.2-7.1 49.9-1.6-31.6 30.1-44.3 35.6-200.3 0-212.2-8.7z"/><path class="st0" d="M72.6 404.8c-.9-2.9-1.8-5.8-2.8-8.8l-6.9-22.5c-3.1-10.3-6.1-20.7-9.1-31-3.2-11.4-6.4-22.8-9.4-34.3-2.8-10.7-5.4-21.4-7.7-32.2-1.9-8.1-3.2-16.2-4-24.5-.3-2.6-.3-5.2 0-7.8 0-.3 0 0 0 0v-.3c0-.1.1-.5.2-.7.1-.4.2-.7.4-1.1.1-.2-.3.4 0 0s.3-.4 0 0c.3-.3.4-.3-.1.1.5-.3-.6.4-.2.1s-.8.2-.2.1c.1 0 .2-.1.4-.1l.5-.1c.4-.1-.6.1-.3.1l.3-.1c.9-.2 1.8-.4 2.6-.5 1.2-.2 2.4-.3 3.6-.5.7-.1 1.4-.1 2.1-.2l1-.1h.1l.7-.1c8.1-.7 16.2-1 24.4-1.2 10.9-.3 21.8-.5 32.6-.5 12.3 0 24.5 0 36.8.2 12.4.2 24.9.5 37.3.9 11.2.4 22.4.9 33.6 1.7 4.8.3 9.6.7 14.4 1.1l6.3.6c1 .1 1.9.2 2.9.3l1.4.2.6.1.4.1c4.9.6 10.3 1.2 15 3.2-.5-.2.3.2.5.3.2.2.5.3.7.5.4.3 0-.1.2.2l.4.6c.3.5.6.9.9 1.4 1.4 2.8 2.5 5.7 3.4 8.7 2.7 9.5 4.9 19.1 6.4 28.8 2.2 12 4 24 5.7 36.1 1.6 11.2 3 22.4 4.3 33.6.8 7.1 1.6 14.1 2.4 21.2l.3 3c.1 1 1.1.9 1.8.8 8.8-1.2 17.6-2.2 26.4-2.9 5.7-.6 11.4-.8 17.1-.7.5 0 1 0 1.4.1l.7.1h.3c.4.1.7.1 1.1.2.2.1.5.2.7.2-.2-.1.2.2.4.3-.5-.3 0-.1-.1 0s0-.1 0-.1c0 .2-.1-.4 0-.1l-.1.2s.2-.4.1-.1-.4.7-.6 1c-.1.1-.5.6-.1.2-.1.2-.3.4-.5.5-.4.5-.8.9-1.2 1.4l-3 3c-2.5 2.5-5.2 4.8-7.9 7.1-6.3 5.4-12.8 10.4-19.7 15.1-2.6 1.8-5.3 3.4-8.1 4.9l-.8.4s-.7.3-.3.1c.2-.1.1 0 0 0l-.4.2c-.6.2.2 0 .1 0l-.6.1c-1 .2-2 .4-3.1.5-.6.1-1.3.1-2 .2h-.6l-1.2.1c-8.9.7-17.9.8-26.9.8-12.6.1-25.1 0-37.7-.3-14.2-.3-28.4-.7-42.6-1.3-13.7-.5-27.3-1.2-41-2.1-11.1-.7-22.3-1.6-33.3-2.8-4-.5-7.5-.9-11.6-1.6-2.6-.4-5.1-1-7.6-1.8l-.6-.2c-.3-.1-.4-.2-.2-.1-.3-.1-.5-.3-.8-.5-1.5-1.1-5.6 1.7-3.9 3 1.7 1 3.6 1.7 5.6 2 3.3.8 6.7 1.3 10.1 1.8 10.5 1.4 21 2.3 31.5 3.1 13.6 1 27.2 1.7 40.8 2.4 14.5.7 29 1.2 43.6 1.5 13.3.3 26.6.5 39.8.5 9.8 0 19.7-.1 29.5-.7 3.1-.2 6.2-.4 9.3-.8 3.1-.6 6.1-1.7 8.7-3.4 6.9-4.1 13.5-8.8 19.8-13.9 6.1-4.7 11.9-9.8 17.3-15.3 1.6-1.6 7.3-6.7 3.1-8.4-1.7-.6-3.5-.8-5.2-.8-2.6-.1-5.3-.1-7.9 0-11.6.5-23.2 1.8-34.6 3.3-.8.1-1.5.2-2.3.3l1.8.8c-.4-4-.8-8-1.3-12-1.1-9.8-2.3-19.5-3.5-29.3-1.6-12.2-3.2-24.4-5.2-36.6-1.8-11.3-3.7-22.6-6.2-33.8-1-4.3-2.1-8.7-3.4-12.9-.8-2.9-2-5.7-3.4-8.3-.9-1.5-2.2-2.7-3.8-3.4-1.9-.8-3.9-1.3-6-1.7-7.2-1.4-14.5-2.4-21.9-2.9-10.3-.9-20.7-1.5-31-2-12.1-.6-24.3-1-36.5-1.3-12.6-.3-25.3-.5-37.9-.5-11.8-.1-23.5 0-35.3.2-9.6.2-19.1.4-28.7.9-6.2.2-12.4.8-18.5 1.7-2 .2-3.9.8-5.6 1.9-1.5 1.2-2.5 3-2.6 4.9-1 6.2.2 12.8 1.2 18.9 1.6 9.8 3.7 19.5 6.1 29.1 2.7 11.5 5.7 22.9 8.8 34.3s6.3 22.5 9.6 33.8c2.7 9.3 5.5 18.6 8.3 27.8 1.7 5.5 3.4 10.9 5.1 16.4l.7 2.2c.6 1.8 5-.4 4.4-2.3z"/><path style="fill:none" d="m281.1 403.5-9.6-67.2"/><path class="st0" d="m283.2 404.3-3.2-22.7-5.2-36.3-1.2-8.3c-.3-1.2-1.1-2.2-2.3-2.6-.8-.3-2.1-.2-2 1l3.2 22.7 5.2 36.3 1.2 8.3c.3 1.2 1.1 2.2 2.3 2.6.8.3 2.2.2 2-1zM137.7 328.2c-2.3 7.1 2.4 15.5 9.9 16.7 5.8.9 11.6-1.3 15.4-5.8 3.2-3.8 4.3-8.8 1.7-13.3-2-3.5-4.7-6.6-8-8.9-1-.8-2.2-1.3-3.4-1.4-.7 0 .3 1.6.5 1.8.4.5 1.4 2.2 2.2 2.2 2.6 0 5.1 2.9 6.3 4.8.3.6.6 1.3.7 2 .1 1 .1 1.9-.1 2.9-.4 2.1-1.3 4-2.6 5.6-3 3.8-7.6 6.1-12.4 6.2-2.3.2-4.6-.3-6.6-1.5-.2-.1-.4-.2-.5-.4-.4-.2 0 0 .1.2.4.5.1-.2.1.2 0-.2-.4-1-.5-1.7-.4-2-.2-4.2.4-6.1.2-.8-1.1-2.2-1.5-2.7-.3-.1-1.5-1.4-1.7-.8z"/></g><g id="checkmark"><path class="st2" d="M155.3 185.2s26.6 19.2 27.9 15.1-8.6-101-19.4-104.4-92.7 11-101.5 19.8 12.7 81.2 18.1 84.6 74.9-15.1 74.9-15.1z"/><path class="st1" d="M94.5 150.8c1.3 4.3 3.1 8.5 5.5 12.4 1.8 3 4.5 5.4 7.7 6.8 3.5 1.5 8.2 2.7 11.6.2 1.9-1.5 3.5-3.3 5-5.2 2-2.5 3.9-5.2 5.7-7.9 3.9-5.8 7.6-11.9 11.1-17.9 2.1-3.5 4.1-7.1 6.1-10.7.3-.5-1-1.2-1.1-1.3-1-.6-2.1-1.1-3.3-1.4-1.1-.4-2.3-.6-3.5-.6-.5 0-1.4 0-1.7.5-4.6 8.3-9.4 16.5-14.5 24.5-3.2 5-6.5 10.2-10.6 14.5-.6.7-1.3 1.3-2 1.9-.3.2-.6.5-.9.6-.2.1-.3.2-.5.3l-.4.2c-.2.1.4-.1-.1 0-.8.1.2 0-.1 0 1.1.1 2.3.3 3.3.8l.6.3c1.1.5.7.4.4.2-.1 0-.6-.4-.1-.1s-.1-.1-.2-.2c-.9-.7-1.7-1.6-2.3-2.6a50.4 50.4 0 0 1-6.2-13.3c-.2-.6-1.6-1.2-2-1.4-1.2-.5-2.4-1-3.7-1.2-.6-.1-4.2-.9-3.8.6z"/><path class="st2" d="M166.6 86.4V74.9c0-1.2-1.2-2.1-2.2-2.4-.7-.2-2.4-.4-2.4.8v11.5c0 1.1 1.2 2.1 2.2 2.4.7.2 2.4.4 2.4-.8zM175.4 96c3.8-1.4 7.2-3.5 10.2-6.3.9-1.1.7-2.7-.4-3.6-.9-.7-2.1-.7-3-.1l-2.1 1.8c-.4.3-.8.6-1.1.8l-.1.1-.1.1-.6.4c-1.6 1-3.3 1.8-5 2.4-1.2.4-1.4 2.1-.8 3.1.4 1.3 1.8 1.8 3 1.3z"/></g></svg>