<svg transform="scale(1)" version="1.1" id="Layer_1" xmlns="http://www.w3.org/2000/svg" xmlns:xlink="http://www.w3.org/1999/xlink" x="0px" y="0px" viewBox="0 0 500 500" xml:space="preserve" class="show_show__wrapper__graphic__5Waiy "><title>React</title><style type="text/css">
	.st0{fill:#FFFFFF;}
	.st1{fill:#222222;}
	.st2{fill:none;}
	.st3{fill:#8dc572;}
</style><g id="hand"><path class="st0" d="M464,404c0,0-27.7-93.9-62.1-136.6s-82.9-50.9-98.2-40.5s-7.5,28.6,12.4,32.4s41.1,22.4,41.1,22.4
		s-13.6,1.2-24.7,21.2s-14.1,57.7,11.3,57.3c0,0,2,17.8,19,26.7s22.6,3.5,22.6,3.5l5.8,46.5"></path><path class="st1" d="M466.3,403.1c-1.2-3.9-2.4-7.9-3.7-11.8c-3.2-9.9-6.6-19.7-10.3-29.5c-4.8-12.9-9.9-25.6-15.5-38.1
		c-5.7-13-12.2-25.7-19.4-38c-7.6-12.7-16.4-24.5-27.4-34.6c-11.2-10.4-24.3-18.6-38.6-24.2c-10.6-4.1-22.2-6.8-33.5-6
		c-4.3,0.2-8.5,1.1-12.4,2.8c-5.1,2.4-9.9,6.7-11.6,12.2s0,11.5,3.8,15.9c2.2,2.5,4.9,4.5,7.8,6c3.5,1.6,7.2,2.8,11,3.5
		c7.8,1.8,15.1,5.5,21.9,9.6c3,1.8,6,3.8,8.9,5.9c1.1,0.8,2.2,1.6,3.3,2.5c0.9,0.7,1.5,1.2,2.3,1.8s1.4,1.2,2.1,1.8l2.2-3.1
		c-4,0.4-8,2.5-11.3,4.7c-8,5.4-13.9,13.5-17.8,22.2c-3.3,7.2-5.3,15-6.1,22.9c-0.7,7.1-0.4,14.9,2.7,21.4c1.5,3.2,3.8,6,6.8,8
		c3.5,2.1,7.5,3.2,11.5,3l-1.8-1.4c0.9,6.6,3.7,12.9,7.9,18.1c4.1,5,9.4,9,15.4,11.5c5,2.2,10.5,4.1,16,3.6c2.2-0.2,4.8-0.8,6.5-2.4
		l-4.1-0.6l2,15.7l3.1,25.1l0.7,5.8c0.1,1.2,1.3,1.6,2.4,1.4c0.9-0.1,2.6-1,2.5-2.2l-2-15.7l-3.1-25.1l-0.7-5.8
		c-0.2-2-3-1.6-4.1-0.6c-0.3,0.3,0-0.3,0.3-0.2c-0.2,0.1-0.5,0.2-0.7,0.4c0,0,0.6-0.2,0,0l-0.6,0.2c-0.5,0.2,0.6-0.1-0.2,0.1
		c-0.4,0.1-0.7,0.1-1,0.2l-0.5,0c-0.6,0.1,0.5,0-0.1,0c-0.4,0-0.8,0-1.2,0c-0.9,0-1.9-0.1-2.8-0.3c-2.8-0.5-5.5-1.4-8.1-2.6
		c-5.6-2.2-10.6-5.8-14.6-10.3c-2.8-3.3-4.9-7.1-6.4-11.2c-0.5-1.5-1-3-1.3-4.5l-0.1-0.8c0-0.1,0-0.2,0-0.3c-0.1-0.4,0,0.4,0,0.1
		l-0.1-0.5c-0.1-0.9-0.9-1.5-1.8-1.4c-6,0.1-11.3-2.4-14.3-7.8c-3.2-5.8-3.8-12.7-3.4-19.1c0.9-15.7,7.3-32.8,19.9-42.8
		c1.4-1.1,2.8-2.1,4.4-2.9l0.9-0.5c0.1,0,0.7-0.3,0.1,0l0.5-0.2c0.6-0.2,1.1-0.5,1.7-0.7c0.5-0.2,1-0.3,1.4-0.5s-0.6,0.1,0.1,0
		l0.4-0.1c0.3-0.1,0.6-0.1,1-0.2c1-0.1,3.5-1.9,2.1-3.1c-8.1-7-17-13-26.7-17.6c-3.6-1.7-7.3-3.2-11.2-4.3c-3.6-1-7.4-1.5-10.9-3
		c-5.3-2.4-10.3-6.4-12-12.2c-1.5-5.4,0.8-10.6,5-14c0.8-0.7,1.7-1.3,2.6-1.8l0.5-0.3l0.2-0.1l0.3-0.1l0.7-0.3
		c0.8-0.3,1.7-0.6,2.6-0.9c0.4-0.1-0.5,0.1,0.2-0.1l0.6-0.1c0.5-0.1,1-0.2,1.6-0.3c1-0.2,2.1-0.3,3.1-0.4l0.7-0.1c0.1,0,0.3,0,0.4,0
		c0.6,0,1.2-0.1,1.8-0.1c2.4,0,4.9,0.1,7.3,0.3c5.6,0.6,11.2,1.7,16.6,3.4c13.5,4.4,26.1,11.3,37.1,20.3
		c11.5,9.5,21.4,20.8,29.4,33.4c7.3,11.6,13.8,23.7,19.5,36.2c5.8,12.5,11.1,25.3,16.1,38.2c3.9,10.3,7.7,20.7,11.2,31.2
		c1.8,5.4,3.6,10.9,5.2,16.4c0.1,0.2,0.1,0.5,0.2,0.7C462.3,407.1,467,405.4,466.3,403.1L466.3,403.1z"></path><path class="st0" d="M376.1,361.6c0,0,23.4-16.9,30.6,0.6c0,0,10,26.6-20.8,29.5s-41.4-24.8-42-31.5c-2.6-27.5,12.9-42.9,12.9-42.9
		"></path><path class="st1" d="M378.5,362.5c3.5-2.5,7.3-4.4,11.3-5.8c2.9-1,6.2-1.8,9.3-1.3l0.5,0.1c-0.1,0-0.5-0.1-0.1,0
		c0,0-0.5-0.2-0.2-0.1c0.6,0.3,1.1,0.7,1.6,1.2c1.4,1.3,2.5,2.9,3.2,4.6c0.9,2.3,1.5,4.7,1.6,7.2c0.4,4.7-0.3,9.6-3.1,13.5
		c-4.2,6.1-12,8.3-19,9c-4.5,0.5-9,0.2-13.3-0.9c-1.4-0.4-2.8-0.9-4.1-1.5c-1.6-0.8-3.1-1.7-4.5-2.7c-5-3.7-9.2-8.6-12-14.2
		c-2.3-4.1-3.6-8.7-3.9-13.4c-0.7-13.8,3.2-29,12.6-39.4c0.2-0.2,0.3-0.3,0.5-0.5s-2-1.2-2.2-1.3c-0.5-0.2-2-0.9-2.5-0.4
		c-2.6,2.8-4.8,5.9-6.5,9.4c-4.3,8.2-6.6,17.2-6.6,26.4c-0.2,3.3,0.1,6.6,0.8,9.8c0.6,2.3,1.4,4.5,2.5,6.6
		c2.8,5.9,6.9,11.1,12.1,15.2c7.3,5.5,16.1,8.7,25.2,9c8,0.3,17.6-1,23.6-6.9s6.4-15.5,3.6-22.9c-2.7-7.2-11-10.4-18.2-9.5
		c-5.7,0.7-11.3,3.5-16,6.6c-0.3,0.2-0.6,0.4-1,0.7s2,1.2,2.2,1.3C376.6,362.3,377.9,362.9,378.5,362.5L378.5,362.5z"></path><path class="st1" d="M303.6,228.3c-0.1,5,3.9,9.2,8.3,11c4.4,1.9,9.4,2.1,13.9,0.5c3.3-1.3,6.2-3.6,8.2-6.5
		c1.2-1.6,2.2-3.4,2.9-5.3c0.6-1.9-3-2.4-3.6-0.7c-1.3,3.9-4,7.1-7.5,9.2c-5.4,3-14.4,1.5-17.4-4.3c-0.3-0.5-0.5-1.1-0.7-1.7
		c-0.1-0.2-0.1-0.4-0.2-0.7l-0.1-0.2c-0.1-0.4,0,0.2,0-0.1c-0.1-0.4-0.1-0.9-0.1-1.3C307.4,226.4,303.7,226.5,303.6,228.3
		L303.6,228.3z"></path></g><g id="device"><path class="st0" d="M250.6,341.9c0,0,31.9-34.3,17.9-78.8s8.6-55.4,9.4-76.5s-21.1-46.8-52.3,3.9l-27.7,27.6
		c0,0-102.8-152-136.3-150.4s-16.4,41.4,0.8,76.5c0,0-42.9,14.8-17.2,54.6c0,0-21.9,17.2,2.3,67.1s87.8,99.6,87.8,99.6"></path><path class="st1" d="M252.8,342.8c3.5-3.9,6.5-8.1,9.1-12.7c6.1-10.1,10.1-21.3,11.8-33c1-7.3,0.9-14.7-0.2-22
		c-1.3-8.3-4.4-16.1-6-24.3c-2.2-11.7-1.6-23.5,2.6-34.7c2.9-7.8,7.5-15.1,9.3-23.4c1.6-7.3,0.5-15-3.1-21.6
		c-3.6-6.8-10.7-11.1-18.4-11.2c-10.7,0-19.5,9-25.7,16.6c-2.7,3.4-5.3,7-7.7,10.7c-0.6,1.1-1.4,2.2-2.3,3.1l-7.4,7.5l-18.2,18.1
		l-1.2,1.2l4.4,1.2c-1.5-2.2-3.1-4.5-4.6-6.7c-4.1-5.9-8.2-11.7-12.4-17.6c-5.9-8.3-12-16.6-18.1-24.8c-7.1-9.5-14.4-18.9-21.7-28.2
		c-7.5-9.5-15.2-18.8-23.2-28c-7.2-8.2-14.6-16.3-22.5-23.9c-6.3-6.1-13-12-20.4-16.7c-5.6-3.6-12-6.5-18.9-5.9
		c-5.6,0.5-11.3,2.2-14.9,6.8c-3.2,4.2-3.8,9.8-3.5,14.9c0.5,7,2.4,13.9,4.7,20.5c2.8,7.9,6.1,15.7,9.7,23.3
		c1.8,3.9,3.7,7.7,5.5,11.5l0.4-0.6c-10.2,3.5-20.3,11.5-24.2,21.7s-0.6,21.2,4.6,30.3c0.4,0.8,0.9,1.6,1.4,2.4
		c-0.1-0.1,0.5,0.9,0.6,0.4c0,0.1-0.2,0.1-0.2,0.2c-0.3,0.4-0.6,0.7-1,1c-1.3,1.4-2.4,2.9-3.3,4.6c-3.7,6.4-4.9,14.1-4.7,21.4
		C34,239.1,39,252.9,45,265.4s13.9,24,22.5,34.9c8.5,10.7,17.6,21,27.3,30.6c12,12.1,24.6,23.6,37.9,34.2c0.2,0.2,0.4,0.3,0.6,0.5
		c1,0.7,2.2,1.1,3.4,1.1c0.9-0.1,1.1-0.5,0.4-1.2c-5.8-4.5-11.3-9.4-16.8-14.2c-12.7-11.2-24.7-23.2-36-35.8
		c-12.8-14.4-24.8-29.8-33.5-47c-5-9.5-8.7-19.7-11-30.2c-1.5-7-1.8-14.2-0.7-21.3c0.7-4.4,2.1-8.6,4.3-12.4
		c1.1-1.7,2.3-3.2,3.7-4.7c0.1-0.1,0.1-0.1,0.2-0.2c0.2-0.1,0.2-0.3,0.1-0.4c-6.8-10.5-11.3-23.6-5.4-35.5
		c3.6-7.3,10.3-12.7,17.4-16.4c1.2-0.6,2.4-1.2,3.6-1.7l0.6-0.2c0.3-0.1-0.2,0.1,0,0l0.2-0.1l0.4-0.1c0.2-0.1,0.6-0.2,0.4-0.6
		c-7.1-14.5-14.5-29.4-18.3-45.2c-2.4-9.9-3.7-23.7,7.4-28.8c2.8-1.2,5.9-1.9,9-2h0.9c0.1,0,0.6,0,0.2,0H64l0.8,0.1
		c0.5,0.1-0.4-0.1,0,0l0.5,0.1l0.9,0.2c-0.8-0.2,0.2,0.1,0.4,0.1l0.8,0.3c0.3,0.1-0.6-0.2,0,0l0.5,0.2c0.3,0.1,0.6,0.2,0.9,0.4
		s1.2,0.6,0.7,0.3c0.7,0.4,1.4,0.7,2.1,1.1c3.1,1.8,6,3.8,8.8,6c3.4,2.7,6.7,5.5,9.8,8.4c7.7,7.2,15,14.9,22,22.7
		c7.9,8.8,15.4,17.9,22.8,27.1c7.4,9.2,14.6,18.4,21.6,27.8c6.3,8.4,12.5,16.8,18.6,25.3c4.5,6.3,9,12.6,13.5,19
		c2.2,3.1,4.2,6.3,6.5,9.4c0.1,0.1,0.2,0.3,0.3,0.4c0.5,0.8,3.6,2,4.4,1.2l13.9-13.8l9.6-9.6c1.4-1.4,3-2.7,4.3-4.2
		c1.3-1.7,2.5-3.5,3.6-5.4c1.3-1.9,2.6-3.7,3.9-5.5c2.2-3,4.7-5.8,7.3-8.4c3.6-3.6,7.8-6.9,12.5-8.8c1.7-0.7,3.5-1.1,5.4-1.2
		c0.7,0,1.4,0,2.1,0.1c0.6,0.1-0.5-0.1,0.2,0l0.6,0.1c0.6,0.1-0.5-0.2,0.1,0l0.7,0.2c-0.6-0.2,0.5,0.2,0.6,0.3
		c0.6,0.3-0.4-0.2,0.1,0.1l0.5,0.3c0.6,0.3,1.1,0.7,1.6,1.1c1.2,1,2.3,2.1,3.2,3.4c4.1,5.6,5.8,13.1,5.1,20
		c-0.8,8.1-5,15.4-8.2,22.7c-4.3,9.5-6.1,19.9-5.4,30.4c0.5,7.8,2.5,15.2,4.7,22.6c2.3,7.5,3.4,15.3,3.2,23.1
		c-0.4,12.5-3.5,24.7-9.2,35.9c-3.1,6.3-6.9,12.3-11.4,17.6c-0.2,0.3-0.4,0.5-0.7,0.8C247.5,341.8,251.9,343.8,252.8,342.8
		L252.8,342.8z"></path><path class="st1" d="M95.2,63h118.6c7.7,0,14,6.3,14,14v255c0,7.7-6.3,14-14,14H95.2c-7.7,0-14-6.3-14-14V77
		C81.2,69.3,87.4,63,95.2,63z"></path><path class="st1" d="M213.7,344H106.4c-3.7,0-7.3,0-11,0c-6.9,0-11.7-5.4-11.8-12.2V81.1c0-1.7-0.1-3.4,0.1-5.1
		c0.6-6,5.5-10.7,11.6-11.1c0.8,0,1.6,0,2.3,0h116c4.2-0.1,8,2.1,10.1,5.7c1.6,2.8,1.6,5.8,1.6,8.9V331c0,0.6,0,1.2,0,1.9
		C224.9,338.8,219.8,344,213.7,344c-1.1,0.1-2.4,0.5-2.3,1.9c0.2,1.2,1.3,2.1,2.5,2.1c7-0.1,13.4-4.1,15.6-10.9
		c0.5-1.8,0.8-3.7,0.8-5.5v-252c0-4.2-0.5-8.2-3.1-11.8c-3.2-4.2-8.2-6.8-13.6-6.8c-1.1,0-2.2,0-3.3,0H97.2c-1,0-2.1,0-3.1,0
		c-6.9,0.3-12.9,4.9-14.8,11.6c-0.5,2.5-0.7,5.1-0.6,7.6v245.3c0,2,0,4.1,0,6.1c0.2,9.1,7.6,16.4,16.7,16.4c3.6,0,7.2,0,10.8,0
		h107.7c1.1,0,2.4-0.5,2.4-1.8C216.1,345,215,344,213.7,344z"></path><rect class="st0" x="91.3" y="94.1" width="124.5" height="204.8"></rect><path class="st1" d="M216.9,297.9H97.5c-1.6-0.1-3.2-0.1-4.9,0h-0.2l1.4,0.6V102c0-2.6,0.2-5.3,0-8c0-0.1,0-0.2,0-0.3l-3.6,1.4
		h119.4c1.6,0.1,3.2,0.1,4.9,0h0.2l-1.4-0.6V291c0,2.6-0.2,5.4,0,8c0,0.1,0,0.2,0,0.3c0,1.2,4.9,0.7,4.9-0.8V102c0-2.6,0.2-5.3,0-8
		c0-0.1,0-0.2,0-0.3c0-0.5-1.1-0.6-1.4-0.6H92.4c-0.8,0-3.6,0.1-3.6,1.4V291c0,2.6-0.2,5.4,0,8c0,0.1,0,0.2,0,0.3
		c0,0.5,1.1,0.6,1.4,0.6h124.5c1,0,2.6-0.1,3.3-0.9S217.6,297.9,216.9,297.9z"></path><circle class="st1" cx="153.4" cy="322.1" r="9.4"></circle><path class="st0" d="M161.2,320.6c-0.1,5-4.3,8.9-9.2,8.8c-0.4,0-0.9-0.1-1.3-0.1c-0.8-0.1-1.6-0.4-2.3-0.8
		c-0.3-0.2-0.6-0.3-0.9-0.5c-0.6-0.4,0.1,0.1-0.3-0.2c-0.1,0-0.6-0.6-0.4-0.3c-0.1-0.1-0.2-0.2-0.3-0.4c0.3,0.4-0.1-0.2-0.2-0.3
		c0.2,0.3,0,0,0-0.1c-0.4-0.7,0.1,0.4-0.2-0.3c-0.3-0.7-0.4-1.4-0.5-2.1c-0.1-1.7,0.3-3.4,1.1-4.9c1.8-3,5.1-4.8,8.6-4.5
		c1.7,0.1,3.4,0.8,4.6,2c-0.3-0.3,0.3,0.3,0.2,0.3c-0.3-0.4,0.1,0.2,0.2,0.3c-0.3-0.4,0.1,0.2,0.1,0.3c-0.2-0.3,0.1,0.4,0.1,0.4
		C161.1,318.9,161.2,319.7,161.2,320.6c0.2,1.2,0.8,2.2,1.7,3c0.4,0.4,1.6,1.1,1.6,0c-0.2-5.1-3.2-9.7-7.8-12c-4-1.9-8.8-1-11.8,2.4
		c-6.4,7.5,1.3,20.8,10.9,19.6c5-0.7,8.7-4.9,8.7-10c-0.2-1.2-0.8-2.2-1.7-3C162.3,320.2,161.2,319.5,161.2,320.6z"></path><circle class="st0" cx="165.8" cy="79.4" r="3"></circle><line class="st2" x1="132.6" y1="79.3" x2="149.9" y2="79.6"></line><path class="st0" d="M132.9,81.6l15.1,0.2h2.2c3.1,0,2.1-4.4-0.5-4.5l-15.1-0.2h-2.2C129.2,77,130.3,81.5,132.9,81.6L132.9,81.6z"></path><path class="st0" d="M57.7,183.1c0,0,42.6,9.2,45.2-11.3c3.2-25.5-31.8-34.9-50.3-22.1"></path><path class="st1" d="M59.1,184.8c4.7,1,9.4,1.6,14.2,1.9c7.8,0.5,16.7,0.6,23.9-3.1c3.2-1.5,5.7-4.1,7-7.4
		c1.4-4.4,1.3-9.2-0.3-13.6c-3.2-9.5-12.5-16-21.8-18.7s-19.8-2.2-28.4,2.4c-1,0.5-2,1.2-3,1.8c-0.7,0.5,2.7,4,3.9,3.2
		c7.6-5.2,17.5-6.6,26.5-4.9c4.2,0.7,8.2,2.3,11.8,4.5c1.5,1,2.8,2.1,3.9,3.5c1.3,1.5,2.3,3.2,3,5.1c1.7,4.1,1.9,8.7,0.8,12.9
		c-1,3.2-3.2,5.9-6.2,7.5c-6.5,3.7-15,3.9-22.2,3.5c-5.2-0.3-10.4-1-15.5-1.9h-0.3c-1.1-0.2-0.3,1.1,0,1.4
		C57.1,183.8,58,184.5,59.1,184.8L59.1,184.8z"></path><path class="st0" d="M55.2,226.2c0,0,30.8,15.4,47.2-2.6s-26.9-42-57.3-24.8"></path><path class="st1" d="M53.9,227.8c5.4,2.6,11.2,4.5,17.1,5.6c10.1,2,21.6,1.4,30-5.2c3.5-2.8,6.6-6.3,7.3-10.9
		c0.4-3.6-0.5-7.3-2.6-10.2c-5.3-7.9-15-12.4-23.9-14.5c-11.2-2.7-23.5-2.3-34.2,2.4c-1.5,0.7-2.9,1.4-4.2,2.1
		c-1.1,0.6-0.8,2.1,0,2.8c0.9,0.9,2.3,1.1,3.5,0.5c9.3-5.2,20.3-6.5,30.7-4.8c2.3,0.4,4.6,0.9,6.9,1.7c2.1,0.7,4.2,1.5,6.2,2.4
		c3.6,1.7,6.9,4,9.6,6.9l0.4,0.5c-0.3-0.3,0.2,0.2,0.2,0.2c0.3,0.4,0.5,0.7,0.8,1.1s0.4,0.6,0.6,0.9s0.2,0.4,0.3,0.5
		s0.4,0.8,0.2,0.4c0.3,0.7,0.6,1.5,0.8,2.2c0.2,0.6,0.3,1.3,0.3,1.9c0.1,1.4-0.2,2.9-0.8,4.2c-0.8,1.6-1.8,3.1-3.1,4.4
		c-6.9,7-17,8.1-26.2,6.7c-4.2-0.6-8.3-1.7-12.3-3.2c-1.3-0.5-2.6-1-3.9-1.5l-1-0.5c-0.4-0.2,0.7,0.4,0.2,0.1
		c-1-0.5-2.5-0.8-3.3,0.3C52.6,225.9,52.9,227.1,53.9,227.8c0-0.1,0.1,0,0.1,0L53.9,227.8z"></path><path class="st1" d="M72.6,192.9c-4.7,6.4-3.1,16,2.2,21.6c5.7,6,15.5,6.6,22.8,3.4c3-1.3,6.5-3.8,6.7-7.3c0-1.2-0.9-2.2-2.1-2.3
		c-0.8-0.2-2.8,0-2.8,1.2c-0.1,2.2-1.9,3.8-3.8,4.7c-2.6,1.3-5.6,2-8.5,1.8c-2.9,0-5.6-1-7.8-2.9c-3.1-3.1-4.7-7.3-4.3-11.6
		c0.2-2.4,0.9-4.7,2.3-6.6C78.6,192.8,73.9,191,72.6,192.9L72.6,192.9z"></path><path class="st1" d="M69.3,146.1c-2.5,4.6-3.6,10.6-1.7,15.7c1.8,4.8,6.3,7.9,10.9,9.6c5,1.9,10.7,2,15.5-0.6
		c4.3-2.4,7.5-6.7,7.6-11.7c0-2.4-4.7-1-4.8,1.2c-0.1,3.1-1.7,5.9-4.3,7.6c-0.6,0.3-1.1,0.6-1.7,0.8c-0.9,0.3-1.9,0.5-2.9,0.5
		c-2.3,0.1-4.7-0.3-6.8-1.2c-3.9-1.6-7.5-4.1-9-8.1c-0.9-2.7-1-5.7-0.3-8.4c0.3-1.2,0.7-2.3,1.1-3.5c0.1-0.2,0.2-0.4,0.3-0.6
		s0.1-0.1,0.1-0.2c0.1-0.3-0.2,0.4-0.1,0.2c0.1-0.1,0.1-0.2,0.2-0.4C75,144.2,70.4,144.3,69.3,146.1L69.3,146.1z"></path><path class="st3" d="M102,115.8h5.8c1.1,0,2-0.9,1.9-2.1c0-0.1,0-0.2,0-0.3c-0.2-1.3-1.2-2.3-2.6-2.4h-5.8c-1.1,0-2,0.9-1.9,2.1
		c0,0.1,0,0.2,0,0.3C99.6,114.7,100.7,115.7,102,115.8z"></path><path class="st3" d="M103.3,122h5.8c0.3,0,0.6,0,0.5-0.3s-0.5-0.8-0.8-1c-0.5-0.4-1-0.8-1.6-1.1c-0.4-0.3-0.9-0.4-1.4-0.5H100
		c-0.3,0-0.5,0-0.5,0.3s0.5,0.8,0.8,1c0.5,0.4,1,0.8,1.6,1.1C102.3,121.8,102.8,121.9,103.3,122L103.3,122z"></path><path class="st1" d="M141.9,150.8c0.7-4.5,3.3-9.6,7.8-11.2c2.3-0.9,4.9-0.6,6.9,0.8c1.7,1.4,3,3.4,3.6,5.6
		c0.6,1.9,5.1,2.9,4.2,0.1c-2.1-6.6-8.8-11.9-15.9-10.6c-6.3,1.2-10.1,7.5-11.1,13.4C137.1,150.9,141.5,153.1,141.9,150.8z"></path><path class="st3" d="M137.2,184.5c0,0-6.9-34.5-6.2-35s35.7-6.8,38.1-5.9s6.1,34.8,5.1,36.7S137.5,186,137.2,184.5z"></path><path class="st3" d="M139.6,185.3c-0.7,0-1.3,0-2-0.1c-0.3,0-0.9-0.1-1-0.6l0,0c-6.9-34.8-6.3-35.3-6-35.5c0.6-0.5,15.1-3,18.6-3.6
		c8.3-1.4,18.5-2.9,19.9-2.4c0.4,0.1,0.7,0.6,1,1.5c2.4,6.2,5.4,34,4.3,35.9c-0.7,1.2-9.7,2.5-17.2,3.4
		C151.1,184.7,143.5,185.3,139.6,185.3z M137.6,184.2c3,1,34.6-2.7,36.1-4.2c0.3-0.8-0.1-8.4-1.3-18.2c-1.4-11.5-2.8-17.3-3.5-17.8
		c-2-0.7-34,4.8-37.4,5.9C131.5,152.4,135.1,171.4,137.6,184.2L137.6,184.2z"></path><path class="st1" d="M148.2,179.8l2.6-13.6c0,0-6.7-4.8-3.4-10.4s9.7-3.7,12.8,0s-1.8,10.2-1.8,10.2l5.6,11.9L148.2,179.8z"></path><path class="st1" d="M147.6,180.3l2.6-14c-1.2-1-6.4-5.6-3.2-10.8c1.1-2.1,3.3-3.6,5.7-3.8c3.1-0.1,6.1,1.3,8,3.7
		c3,3.6-0.7,9.3-1.6,10.6l5.8,12.2L147.6,180.3z M153.2,152.8h-0.5c-2.1,0.2-3.9,1.4-4.9,3.3c-3.1,5.1,3,9.5,3.2,9.7l0.3,0.2
		l-2.5,13.2l14.4-1.7l-5.4-11.5l0.2-0.2c0-0.1,4.6-6.2,1.8-9.6C158.2,154.1,155.8,152.9,153.2,152.8z"></path><path class="st3" d="M182.1,216h-26.5c-10,0-19.9,0.1-29.9,0c-2.6,0-4.9-1.4-6.2-3.6c-2-3.4-0.8-8.4,3-10.1c1.3-0.5,2.6-0.6,4-0.5
		H181c4-0.3,7.5,2.8,7.8,6.8c0.1,1.9-0.5,3.9-1.8,5.3C185.7,215.2,184,216,182.1,216c-1.2,0-2.3,0.9-2.5,2.2c-0.1,1.3,1.2,2,2.4,1.9
		c5.4-0.1,10.1-3.8,11.4-9.1c1.1-5.1-1.6-10.3-6.4-12.4c-3.4-1.5-7.9-0.9-11.5-0.9h-39.1c-3.6,0-7.2,0-10.8,0c-4.2,0-8,2.1-10.2,5.7
		c-2.8,4.5-1.9,10.3,1.9,13.9c3.6,3.4,8.4,3,12.9,3h51.8c1.3,0,2.4-0.9,2.6-2.2C184.5,216.6,183.2,216,182.1,216z"></path><circle class="st3" cx="129.8" cy="209" r="2.8"></circle><circle class="st3" cx="141.8" cy="209.1" r="2.8"></circle><circle class="st3" cx="153.7" cy="209.1" r="2.8"></circle><circle class="st3" cx="165.7" cy="209.1" r="2.8"></circle><circle class="st3" cx="177.6" cy="209.1" r="2.8"></circle><path class="st3" d="M115.8,150.6c0.7,0.2,1.3,0.4,1.9,0.7l-0.2-0.1c1,0.4,1.9,0.9,2.8,1.4c0.4,0.2,0.8,0.2,1.2,0.2
		c0.6,0.1,1.3,0.1,1.9,0c0.5,0,1-0.1,1.5-0.3c0.1-0.1,0.5-0.2,0.2-0.4c-1.6-0.9-3.3-1.7-5-2.2c-0.5-0.1-1-0.2-1.5-0.2
		c-0.6,0-1.3,0-1.9,0.1l-0.5,0.1c-0.2,0-0.4,0.1-0.6,0.2C115.3,150.5,115.6,150.6,115.8,150.6L115.8,150.6z"></path><path class="st3" d="M118.5,140.6l7.4,7.4c0.5,0.4,1,0.8,1.6,1c0.5,0.2,1,0.3,1.6,0.3c1.1-0.3,0.5-1.3,0-1.8l-7.4-7.4
		c-0.5-0.4-1-0.8-1.6-1c-0.5-0.2-1-0.3-1.6-0.3C117.4,139.1,118,140.1,118.5,140.6L118.5,140.6z"></path><path class="st3" d="M182.8,243.8h-26.5c-10,0-19.9,0-29.9,0c-2.5,0.1-4.8-1.1-6.1-3.2c-1.9-3.6-0.5-8,3.1-9.9
		c0.1,0,0.1-0.1,0.2-0.1c1.3-0.5,2.7-0.8,4.1-0.7h54.5c1.7-0.1,3.3,0.3,4.8,1.1c3.3,2.4,3.5,7.3,1,10.2
		C186.7,242.8,184.8,243.7,182.8,243.8c-3.2,0.1-2.5,4.5,0.4,4.4c5.3-0.1,10.1-3.5,11.2-8.9c0.9-5.3-1.8-10.5-6.7-12.7
		c-3.5-1.6-7.8-1.1-11.6-1.1H137c-3.6,0-7.2,0-10.8,0c-6.2-0.2-11.3,4.6-11.6,10.7c-0.1,3.4,1.3,6.6,3.8,8.9
		c2.3,2.1,5.4,3.3,8.5,3.2h56.2C186.4,248.2,185.6,243.8,182.8,243.8z"></path><circle class="st3" cx="130.8" cy="237" r="2.8"></circle><circle class="st3" cx="142.8" cy="237" r="2.8"></circle><circle class="st3" cx="154.8" cy="237" r="2.8"></circle><circle class="st3" cx="166.7" cy="237" r="2.8"></circle><circle class="st3" cx="178.6" cy="237" r="2.8"></circle><path class="st3" d="M140.1,257h29.1c5.1,0,9.2,4.1,9.2,9.2v0c0,5.1-4.1,9.2-9.2,9.2h-29.1c-5.1,0-9.2-4.1-9.2-9.2v0
		C130.9,261.1,135,257,140.1,257z"></path><path class="st3" d="M169.2,275.8h-29.1c-5.3,0-9.7-4.3-9.7-9.7c0-5.3,4.3-9.7,9.7-9.7c0,0,0,0,0,0h29.1c5.3,0,9.7,4.3,9.7,9.7
		C178.8,271.5,174.5,275.8,169.2,275.8C169.2,275.8,169.2,275.8,169.2,275.8L169.2,275.8z M140.1,257.5c-4.8,0-8.7,3.9-8.7,8.7
		c0,4.8,3.9,8.7,8.7,8.7c0,0,0,0,0,0h29.1c4.8,0,8.7-3.9,8.7-8.7c0-4.8-3.9-8.7-8.7-8.7c0,0,0,0,0,0H140.1z"></path><path class="st3" d="M190.5,108.7l9.8,9.6l1.4,1.4c0.4,0.2,0.7,0.3,1.1,0.3c0.6,0.1,1.3,0.2,1.9,0.2c0.5,0,1,0,1.5,0
		c0.1,0,0.5,0,0.3-0.2l-9.8-9.6l-1.4-1.4c-0.4-0.2-0.7-0.3-1.1-0.3c-0.6-0.1-1.3-0.2-1.9-0.2c-0.5-0.1-1-0.1-1.5,0
		C190.6,108.5,190.3,108.5,190.5,108.7z"></path><path class="st3" d="M195.1,118.9l9-10l1.3-1.4c0.5-0.5-1.7-0.4-1.8-0.4c-0.6,0.1-1.3,0.2-1.9,0.4c-0.4,0.1-0.8,0.3-1.1,0.5
		l-8.9,10l-1.3,1.4c-0.5,0.5,1.7,0.4,1.8,0.4c0.6-0.1,1.3-0.2,1.9-0.4C194.4,119.3,194.8,119.2,195.1,118.9L195.1,118.9z"></path></g><g id="checkmark"><path class="st3" d="M359,164.3c0,0,50.6,2.8,53.1-7.4s5.6-62-3.8-63.8s-91.9-3.7-96.3,1.4s-7.5,64.3-0.6,67.1s23.8,2.3,23.8,2.3
		s-6.9,14.9-1.9,14.9S359,164.3,359,164.3z"></path><path class="st0" d="M338.6,130.9l9.2,8.2c1.1,0.9,2.2,1.6,3.5,2.2c1.1,0.6,2.3,1.1,3.5,1.6c0.7,0.4,1.6,0.6,2.4,0.7
		c0.8,0,1.2-0.7,1.7-1.3l1.9-2.3l15.9-19.2c0.3-0.4-3.9-2.5-4.2-2.7c-1.1-0.5-2.1-1-3.3-1.4c-0.3-0.1-1.3-0.5-1.5-0.2l-9.7,11.7
		l-4.8,5.8l-2.4,2.9c-0.5,0.6-1.5,2.4-2.3,2.3l6.8,2.8c2,1.1,0.8,0.4,0.3,0l-1.1-1l-2.4-2.1l-4.6-4.1c-1.6-1.3-3.4-2.3-5.4-3
		c-0.9-0.4-1.8-0.8-2.8-1C339.1,130.7,338.1,130.5,338.6,130.9L338.6,130.9z"></path></g></svg>