<svg xmlns="http://www.w3.org/2000/svg" viewBox="0 0 500 500" xmlns:v="https://vecta.io/nano"><path d="M464 404s-27.7-93.9-62.1-136.6-82.9-50.9-98.2-40.5-7.5 28.6 12.4 32.4 41.1 22.4 41.1 22.4-13.6 1.2-24.7 21.2-14.1 57.7 11.3 57.3c0 0 2 17.8 19 26.7s22.6 3.5 22.6 3.5l5.8 46.5" fill="#fff"/><path d="M466.3 403.1l-3.7-11.8c-3.2-9.9-6.6-19.7-10.3-29.5-4.8-12.9-9.9-25.6-15.5-38.1-5.7-13-12.2-25.7-19.4-38-7.6-12.7-16.4-24.5-27.4-34.6-11.2-10.4-24.3-18.6-38.6-24.2-10.6-4.1-22.2-6.8-33.5-6-4.3.2-8.5 1.1-12.4 2.8-5.1 2.4-9.9 6.7-11.6 12.2s0 11.5 3.8 15.9c2.2 2.5 4.9 4.5 7.8 6 3.5 1.6 7.2 2.8 11 3.5 7.8 1.8 15.1 5.5 21.9 9.6 3 1.8 6 3.8 8.9 5.9 1.1.8 2.2 1.6 3.3 2.5l2.3 1.8c.8.6 1.4 1.2 2.1 1.8l2.2-3.1c-4 .4-8 2.5-11.3 4.7-8 5.4-13.9 13.5-17.8 22.2-3.3 7.2-5.3 15-6.1 22.9-.7 7.1-.4 14.9 2.7 21.4 1.5 3.2 3.8 6 6.8 8 3.5 2.1 7.5 3.2 11.5 3l-1.8-1.4c.9 6.6 3.7 12.9 7.9 18.1 4.1 5 9.4 9 15.4 11.5 5 2.2 10.5 4.1 16 3.6 2.2-.2 4.8-.8 6.5-2.4l-4.1-.6 2 15.7 3.1 25.1.7 5.8c.1 1.2 1.3 1.6 2.4 1.4.9-.1 2.6-1 2.5-2.2l-2-15.7-3.1-25.1-.7-5.8c-.2-2-3-1.6-4.1-.6-.3.3 0-.3.3-.2-.2.1-.5.2-.7.4 0 0 .6-.2 0 0l-.6.2c-.5.2.6-.1-.2.1-.4.1-.7.1-1 .2h-.5c-.6.1.5 0-.1 0h-1.2a13.33 13.33 0 0 1-2.8-.3c-2.8-.5-5.5-1.4-8.1-2.6-5.6-2.2-10.6-5.8-14.6-10.3-2.8-3.3-4.9-7.1-6.4-11.2-.5-1.5-1-3-1.3-4.5l-.1-.8v-.3c-.1-.4 0 .4 0 .1l-.1-.5c-.1-.9-.9-1.5-1.8-1.4-6 .1-11.3-2.4-14.3-7.8-3.2-5.8-3.8-12.7-3.4-19.1.9-15.7 7.3-32.8 19.9-42.8 1.4-1.1 2.8-2.1 4.4-2.9l.9-.5c.1 0 .7-.3.1 0l.5-.2c.6-.2 1.1-.5 1.7-.7.5-.2 1-.3 1.4-.5s-.6.1.1 0l.4-.1c.3-.1.6-.1 1-.2 1-.1 3.5-1.9 2.1-3.1-8.1-7-17-13-26.7-17.6-3.6-1.7-7.3-3.2-11.2-4.3-3.6-1-7.4-1.5-10.9-3-5.3-2.4-10.3-6.4-12-12.2-1.5-5.4.8-10.6 5-14 .8-.7 1.7-1.3 2.6-1.8l.5-.3.2-.1.3-.1.7-.3c.8-.3 1.7-.6 2.6-.9.4-.1-.5.1.2-.1l.6-.1 1.6-.3c1-.2 2.1-.3 3.1-.4l.7-.1h.4c.6 0 1.2-.1 1.8-.1a89.08 89.08 0 0 1 7.3.3c5.6.6 11.2 1.7 16.6 3.4 13.5 4.4 26.1 11.3 37.1 20.3 11.5 9.5 21.4 20.8 29.4 33.4 7.3 11.6 13.8 23.7 19.5 36.2 5.8 12.5 11.1 25.3 16.1 38.2 3.9 10.3 7.7 20.7 11.2 31.2l5.2 16.4c.1.2.1.5.2.7.9 2.3 5.6.6 4.9-1.7z" fill="#222"/><path d="M376.1 361.6s23.4-16.9 30.6.6c0 0 10 26.6-20.8 29.5s-41.4-24.8-42-31.5c-2.6-27.5 12.9-42.9 12.9-42.9" fill="#fff"/><path d="M378.5 362.5c3.5-2.5 7.3-4.4 11.3-5.8 2.9-1 6.2-1.8 9.3-1.3l.5.1c-.1 0-.5-.1-.1 0 0 0-.5-.2-.2-.1.6.3 1.1.7 1.6 1.2 1.4 1.3 2.5 2.9 3.2 4.6.9 2.3 1.5 4.7 1.6 7.2.4 4.7-.3 9.6-3.1 13.5-4.2 6.1-12 8.3-19 9-4.5.5-9 .2-13.3-.9-1.4-.4-2.8-.9-4.1-1.5-1.6-.8-3.1-1.7-4.5-2.7-5-3.7-9.2-8.6-12-14.2-2.3-4.1-3.6-8.7-3.9-13.4-.7-13.8 3.2-29 12.6-39.4l.5-.5c.2-.2-2-1.2-2.2-1.3-.5-.2-2-.9-2.5-.4-2.6 2.8-4.8 5.9-6.5 9.4-4.3 8.2-6.6 17.2-6.6 26.4-.2 3.3.1 6.6.8 9.8.6 2.3 1.4 4.5 2.5 6.6 2.8 5.9 6.9 11.1 12.1 15.2 7.3 5.5 16.1 8.7 25.2 9 8 .3 17.6-1 23.6-6.9s6.4-15.5 3.6-22.9c-2.7-7.2-11-10.4-18.2-9.5-5.7.7-11.3 3.5-16 6.6-.3.2-.6.4-1 .7s2 1.2 2.2 1.3c.7 0 2 .6 2.6.2zM303.6 228.3c-.1 5 3.9 9.2 8.3 11 4.4 1.9 9.4 2.1 13.9.5 3.3-1.3 6.2-3.6 8.2-6.5 1.2-1.6 2.2-3.4 2.9-5.3.6-1.9-3-2.4-3.6-.7-1.3 3.9-4 7.1-7.5 9.2-5.4 3-14.4 1.5-17.4-4.3-.3-.5-.5-1.1-.7-1.7-.1-.2-.1-.4-.2-.7l-.1-.2c-.1-.4 0 .2 0-.1-.1-.4-.1-.9-.1-1.3.1-1.8-3.6-1.7-3.7.1z" fill="#222"/><path d="M250.6 341.9s31.9-34.3 17.9-78.8 8.6-55.4 9.4-76.5-21.1-46.8-52.3 3.9l-27.7 27.6S95.1 66.1 61.6 67.7s-16.4 41.4.8 76.5c0 0-42.9 14.8-17.2 54.6 0 0-21.9 17.2 2.3 67.1s87.8 99.6 87.8 99.6" fill="#fff"/><g fill="#222"><path d="M252.8 342.8c3.5-3.9 6.5-8.1 9.1-12.7 6.1-10.1 10.1-21.3 11.8-33 1-7.3.9-14.7-.2-22-1.3-8.3-4.4-16.1-6-24.3-2.2-11.7-1.6-23.5 2.6-34.7 2.9-7.8 7.5-15.1 9.3-23.4 1.6-7.3.5-15-3.1-21.6-3.6-6.8-10.7-11.1-18.4-11.2-10.7 0-19.5 9-25.7 16.6-2.7 3.4-5.3 7-7.7 10.7a13.86 13.86 0 0 1-2.3 3.1l-7.4 7.5-18.2 18.1-1.2 1.2 4.4 1.2-4.6-6.7-12.4-17.6-18.1-24.8L143 141a764.74 764.74 0 0 0-23.2-28c-7.2-8.2-14.6-16.3-22.5-23.9-6.3-6.1-13-12-20.4-16.7-5.6-3.6-12-6.5-18.9-5.9-5.6.5-11.3 2.2-14.9 6.8-3.2 4.2-3.8 9.8-3.5 14.9.5 7 2.4 13.9 4.7 20.5 2.8 7.9 6.1 15.7 9.7 23.3l5.5 11.5.4-.6c-10.2 3.5-20.3 11.5-24.2 21.7s-.6 21.2 4.6 30.3c.4.8.9 1.6 1.4 2.4-.1-.1.5.9.6.4 0 .1-.2.1-.2.2a4.74 4.74 0 0 1-1 1c-1.3 1.4-2.4 2.9-3.3 4.6-3.7 6.4-4.9 14.1-4.7 21.4.9 14.2 5.9 28 11.9 40.5s13.9 24 22.5 34.9c8.5 10.7 17.6 21 27.3 30.6 12 12.1 24.6 23.6 37.9 34.2.2.2.4.3.6.5 1 .7 2.2 1.1 3.4 1.1.9-.1 1.1-.5.4-1.2-5.8-4.5-11.3-9.4-16.8-14.2-12.7-11.2-24.7-23.2-36-35.8-12.8-14.4-24.8-29.8-33.5-47-5-9.5-8.7-19.7-11-30.2-1.5-7-1.8-14.2-.7-21.3.7-4.4 2.1-8.6 4.3-12.4 1.1-1.7 2.3-3.2 3.7-4.7l.2-.2c.2-.1.2-.3.1-.4-6.8-10.5-11.3-23.6-5.4-35.5 3.6-7.3 10.3-12.7 17.4-16.4 1.2-.6 2.4-1.2 3.6-1.7l.6-.2c.3-.1-.2.1 0 0l.2-.1.4-.1c.2-.1.6-.2.4-.6-7.1-14.5-14.5-29.4-18.3-45.2-2.4-9.9-3.7-23.7 7.4-28.8a25.09 25.09 0 0 1 9-2H64l.8.1c.5.1-.4-.1 0 0l.5.1.9.2c-.8-.2.2.1.4.1l.8.3c.3.1-.6-.2 0 0l.5.2c.3.1.6.2.9.4s1.2.6.7.3c.7.4 1.4.7 2.1 1.1 3.1 1.8 6 3.8 8.8 6 3.4 2.7 6.7 5.5 9.8 8.4 7.7 7.2 15 14.9 22 22.7 7.9 8.8 15.4 17.9 22.8 27.1s14.6 18.4 21.6 27.8l18.6 25.3 13.5 19c2.2 3.1 4.2 6.3 6.5 9.4.1.1.2.3.3.4.5.8 3.6 2 4.4 1.2l13.9-13.8 9.6-9.6c1.4-1.4 3-2.7 4.3-4.2a50.67 50.67 0 0 0 3.6-5.4c1.3-1.9 2.6-3.7 3.9-5.5 2.2-3 4.7-5.8 7.3-8.4 3.6-3.6 7.8-6.9 12.5-8.8a16.33 16.33 0 0 1 5.4-1.2c.7 0 1.4 0 2.1.1.6.1-.5-.1.2 0l.6.1c.6.1-.5-.2.1 0l.7.2c-.6-.2.5.2.6.3.6.3-.4-.2.1.1l.5.3c.6.3 1.1.7 1.6 1.1 1.2 1 2.3 2.1 3.2 3.4 4.1 5.6 5.8 13.1 5.1 20-.8 8.1-5 15.4-8.2 22.7-4.3 9.5-6.1 19.9-5.4 30.4.5 7.8 2.5 15.2 4.7 22.6 2.3 7.5 3.4 15.3 3.2 23.1a84.92 84.92 0 0 1-9.2 35.9c-3.1 6.3-6.9 12.3-11.4 17.6-.2.3-.4.5-.7.8-.7 1.2 3.7 3.2 4.6 2.2z"/><path d="M95.2 63h118.6c7.7 0 14 6.3 14 14v255c0 7.7-6.3 14-14 14H95.2c-7.7 0-14-6.3-14-14V77c0-7.7 6.2-14 14-14z"/><path d="M213.7 344H95.4c-6.9 0-11.7-5.4-11.8-12.2V81.1c0-1.7-.1-3.4.1-5.1.6-6 5.5-10.7 11.6-11.1h118.3c4.2-.1 8 2.1 10.1 5.7 1.6 2.8 1.6 5.8 1.6 8.9v253.4c-.4 5.9-5.5 11.1-11.6 11.1-1.1.1-2.4.5-2.3 1.9.2 1.2 1.3 2.1 2.5 2.1 7-.1 13.4-4.1 15.6-10.9.5-1.8.8-3.7.8-5.5v-252c0-4.2-.5-8.2-3.1-11.8-3.2-4.2-8.2-6.8-13.6-6.8H94.1c-6.9.3-12.9 4.9-14.8 11.6-.5 2.5-.7 5.1-.6 7.6v251.4c.2 9.1 7.6 16.4 16.7 16.4h118.5c1.1 0 2.4-.5 2.4-1.8-.2-1.2-1.3-2.2-2.6-2.2z"/></g><path d="M91.3 94.1h124.5v204.8H91.3z" fill="#fff"/><g fill="#222"><path d="M216.9 297.9H97.5c-1.6-.1-3.2-.1-4.9 0h-.2l1.4.6V102v-8-.3l-3.6 1.4h119.4c1.6.1 3.2.1 4.9 0h.2l-1.4-.6V291v8 .3c0 1.2 4.9.7 4.9-.8V102v-8-.3c0-.5-1.1-.6-1.4-.6H92.4c-.8 0-3.6.1-3.6 1.4V291v8 .3c0 .5 1.1.6 1.4.6h124.5c1 0 2.6-.1 3.3-.9s-.4-1.1-1.1-1.1z"/><circle cx="153.4" cy="322.1" r="9.4"/></g><g fill="#fff"><path d="M161.2 320.6c-.1 5-4.3 8.9-9.2 8.8-.4 0-.9-.1-1.3-.1-.8-.1-1.6-.4-2.3-.8-.3-.2-.6-.3-.9-.5-.6-.4.1.1-.3-.2-.1 0-.6-.6-.4-.3-.1-.1-.2-.2-.3-.4.3.4-.1-.2-.2-.3.2.3 0 0 0-.1-.4-.7.1.4-.2-.3-.3-.7-.4-1.4-.5-2.1-.1-1.7.3-3.4 1.1-4.9 1.8-3 5.1-4.8 8.6-4.5 1.7.1 3.4.8 4.6 2-.3-.3.3.3.2.3-.3-.4.1.2.2.3-.3-.4.1.2.1.3-.2-.3.1.4.1.4.6.7.7 1.5.7 2.4.2 1.2.8 2.2 1.7 3 .4.4 1.6 1.1 1.6 0-.2-5.1-3.2-9.7-7.8-12-4-1.9-8.8-1-11.8 2.4-6.4 7.5 1.3 20.8 10.9 19.6 5-.7 8.7-4.9 8.7-10-.2-1.2-.8-2.2-1.7-3-.5-.4-1.6-1.1-1.6 0z"/><circle cx="165.8" cy="79.4" r="3"/><path d="m132.9 81.6 15.1.2h2.2c3.1 0 2.1-4.4-.5-4.5l-15.1-.2h-2.2c-3.2-.1-2.1 4.4.5 4.5zM57.7 183.1s42.6 9.2 45.2-11.3c3.2-25.5-31.8-34.9-50.3-22.1"/></g><path d="M59.1 184.8c4.7 1 9.4 1.6 14.2 1.9 7.8.5 16.7.6 23.9-3.1 3.2-1.5 5.7-4.1 7-7.4 1.4-4.4 1.3-9.2-.3-13.6-3.2-9.5-12.5-16-21.8-18.7s-19.8-2.2-28.4 2.4c-1 .5-2 1.2-3 1.8-.7.5 2.7 4 3.9 3.2 7.6-5.2 17.5-6.6 26.5-4.9 4.2.7 8.2 2.3 11.8 4.5 1.5 1 2.8 2.1 3.9 3.5 1.3 1.5 2.3 3.2 3 5.1 1.7 4.1 1.9 8.7.8 12.9-1 3.2-3.2 5.9-6.2 7.5-6.5 3.7-15 3.9-22.2 3.5-5.2-.3-10.4-1-15.5-1.9h-.3c-1.1-.2-.3 1.1 0 1.4.7.9 1.6 1.6 2.7 1.9z" fill="#222"/><path d="M55.2 226.2s30.8 15.4 47.2-2.6-26.9-42-57.3-24.8" fill="#fff"/><g fill="#222"><path d="M53.9 227.8c5.4 2.6 11.2 4.5 17.1 5.6 10.1 2 21.6 1.4 30-5.2 3.5-2.8 6.6-6.3 7.3-10.9.4-3.6-.5-7.3-2.6-10.2-5.3-7.9-15-12.4-23.9-14.5-11.2-2.7-23.5-2.3-34.2 2.4-1.5.7-2.9 1.4-4.2 2.1-1.1.6-.8 2.1 0 2.8.9.9 2.3 1.1 3.5.5 9.3-5.2 20.3-6.5 30.7-4.8 2.3.4 4.6.9 6.9 1.7 2.1.7 4.2 1.5 6.2 2.4 3.6 1.7 6.9 4 9.6 6.9l.4.5.2.2c.3.4.5.7.8 1.1s.4.6.6.9.2.4.3.5.4.8.2.4c.3.7.6 1.5.8 2.2.2.6.3 1.3.3 1.9.1 1.4-.2 2.9-.8 4.2-.8 1.6-1.8 3.1-3.1 4.4-6.9 7-17 8.1-26.2 6.7-4.2-.6-8.3-1.7-12.3-3.2l-3.9-1.5-1-.5c-.4-.2.7.4.2.1-1-.5-2.5-.8-3.3.3-.9 1.1-.6 2.3.4 3 0-.1.1 0 .1 0h-.1z"/><path d="M72.6 192.9c-4.7 6.4-3.1 16 2.2 21.6 5.7 6 15.5 6.6 22.8 3.4 3-1.3 6.5-3.8 6.7-7.3 0-1.2-.9-2.2-2.1-2.3-.8-.2-2.8 0-2.8 1.2-.1 2.2-1.9 3.8-3.8 4.7-2.6 1.3-5.6 2-8.5 1.8-2.9 0-5.6-1-7.8-2.9-3.1-3.1-4.7-7.3-4.3-11.6.2-2.4.9-4.7 2.3-6.6 1.3-2.1-3.4-3.9-4.7-2zM69.3 146.1c-2.5 4.6-3.6 10.6-1.7 15.7 1.8 4.8 6.3 7.9 10.9 9.6 5 1.9 10.7 2 15.5-.6 4.3-2.4 7.5-6.7 7.6-11.7 0-2.4-4.7-1-4.8 1.2-.1 3.1-1.7 5.9-4.3 7.6-.6.3-1.1.6-1.7.8-.9.3-1.9.5-2.9.5-2.3.1-4.7-.3-6.8-1.2-3.9-1.6-7.5-4.1-9-8.1-.9-2.7-1-5.7-.3-8.4.3-1.2.7-2.3 1.1-3.5l.3-.6c.1-.2.1-.1.1-.2.1-.3-.2.4-.1.2.1-.1.1-.2.2-.4 1.6-2.8-3-2.7-4.1-.9z"/></g><path d="M102 115.8h5.8c1.1 0 2-.9 1.9-2.1v-.3c-.2-1.3-1.2-2.3-2.6-2.4h-5.8c-1.1 0-2 .9-1.9 2.1v.3a2.87 2.87 0 0 0 2.6 2.4zm1.3 6.2h5.8c.3 0 .6 0 .5-.3s-.5-.8-.8-1c-.5-.4-1-.8-1.6-1.1-.4-.3-.9-.4-1.4-.5H100c-.3 0-.5 0-.5.3s.5.8.8 1c.5.4 1 .8 1.6 1.1.4.3.9.4 1.4.5z" fill="#8dc572"/><path d="M141.9 150.8c.7-4.5 3.3-9.6 7.8-11.2 2.3-.9 4.9-.6 6.9.8 1.7 1.4 3 3.4 3.6 5.6.6 1.9 5.1 2.9 4.2.1-2.1-6.6-8.8-11.9-15.9-10.6-6.3 1.2-10.1 7.5-11.1 13.4-.3 2 4.1 4.2 4.5 1.9z" fill="#222"/><g fill="#8dc572"><path d="M137.2 184.5s-6.9-34.5-6.2-35 35.7-6.8 38.1-5.9 6.1 34.8 5.1 36.7-36.7 5.7-37 4.2z"/><path d="M139.6 185.3c-.7 0-1.3 0-2-.1-.3 0-.9-.1-1-.6-6.9-34.8-6.3-35.3-6-35.5.6-.5 15.1-3 18.6-3.6 8.3-1.4 18.5-2.9 19.9-2.4.4.1.7.6 1 1.5 2.4 6.2 5.4 34 4.3 35.9-.7 1.2-9.7 2.5-17.2 3.4-6.1.8-13.7 1.4-17.6 1.4zm-2-1.1c3 1 34.6-2.7 36.1-4.2.3-.8-.1-8.4-1.3-18.2-1.4-11.5-2.8-17.3-3.5-17.8-2-.7-34 4.8-37.4 5.9 0 2.5 3.6 21.5 6.1 34.3z"/></g><g fill="#222"><path d="m148.2 179.8 2.6-13.6s-6.7-4.8-3.4-10.4 9.7-3.7 12.8 0-1.8 10.2-1.8 10.2l5.6 11.9-15.8 1.9z"/><path d="m147.6 180.3 2.6-14c-1.2-1-6.4-5.6-3.2-10.8 1.1-2.1 3.3-3.6 5.7-3.8 3.1-.1 6.1 1.3 8 3.7 3 3.6-.7 9.3-1.6 10.6l5.8 12.2-17.3 2.1zm5.6-27.5h-.5c-2.1.2-3.9 1.4-4.9 3.3-3.1 5.1 3 9.5 3.2 9.7l.3.2-2.5 13.2 14.4-1.7-5.4-11.5.2-.2c0-.1 4.6-6.2 1.8-9.6-1.6-2.1-4-3.3-6.6-3.4z"/></g><g fill="#8dc572"><path d="M182.1 216h-26.5-29.9c-2.6 0-4.9-1.4-6.2-3.6-2-3.4-.8-8.4 3-10.1 1.3-.5 2.6-.6 4-.5H181c4-.3 7.5 2.8 7.8 6.8.1 1.9-.5 3.9-1.8 5.3-1.3 1.3-3 2.1-4.9 2.1-1.2 0-2.3.9-2.5 2.2-.1 1.3 1.2 2 2.4 1.9 5.4-.1 10.1-3.8 11.4-9.1 1.1-5.1-1.6-10.3-6.4-12.4-3.4-1.5-7.9-.9-11.5-.9h-49.9a11.82 11.82 0 0 0-10.2 5.7c-2.8 4.5-1.9 10.3 1.9 13.9 3.6 3.4 8.4 3 12.9 3H182c1.3 0 2.4-.9 2.6-2.2-.1-1.5-1.4-2.1-2.5-2.1z"/><circle cx="129.8" cy="209" r="2.8"/><circle cx="141.8" cy="209.1" r="2.8"/><circle cx="153.7" cy="209.1" r="2.8"/><circle cx="165.7" cy="209.1" r="2.8"/><circle cx="177.6" cy="209.1" r="2.8"/><path d="M115.8 150.6c.7.2 1.3.4 1.9.7l-.2-.1c1 .4 1.9.9 2.8 1.4.4.2.8.2 1.2.2.6.1 1.3.1 1.9 0 .5 0 1-.1 1.5-.3.1-.1.5-.2.2-.4-1.6-.9-3.3-1.7-5-2.2-.5-.1-1-.2-1.5-.2-.6 0-1.3 0-1.9.1l-.5.1c-.2 0-.4.1-.6.2-.3.4 0 .5.2.5zm2.7-10l7.4 7.4c.5.4 1 .8 1.6 1 .5.2 1 .3 1.6.3 1.1-.3.5-1.3 0-1.8l-7.4-7.4c-.5-.4-1-.8-1.6-1-.5-.2-1-.3-1.6-.3-1.1.3-.5 1.3 0 1.8zm64.3 103.2h-56.4c-2.5.1-4.8-1.1-6.1-3.2-1.9-3.6-.5-8 3.1-9.9.1 0 .1-.1.2-.1 1.3-.5 2.7-.8 4.1-.7h54.5c1.7-.1 3.3.3 4.8 1.1 3.3 2.4 3.5 7.3 1 10.2-1.3 1.6-3.2 2.5-5.2 2.6-3.2.1-2.5 4.5.4 4.4 5.3-.1 10.1-3.5 11.2-8.9.9-5.3-1.8-10.5-6.7-12.7-3.5-1.6-7.8-1.1-11.6-1.1h-49.9c-6.2-.2-11.3 4.6-11.6 10.7-.1 3.4 1.3 6.6 3.8 8.9 2.3 2.1 5.4 3.3 8.5 3.2h56.2c3.3-.1 2.5-4.5-.3-4.5z"/><circle cx="130.8" cy="237" r="2.8"/><circle cx="142.8" cy="237" r="2.8"/><circle cx="154.8" cy="237" r="2.8"/><circle cx="166.7" cy="237" r="2.8"/><circle cx="178.6" cy="237" r="2.8"/><path d="M140.1 257h29.1c5.1 0 9.2 4.1 9.2 9.2s-4.1 9.2-9.2 9.2h-29.1c-5.1 0-9.2-4.1-9.2-9.2s4.1-9.2 9.2-9.2z"/><path d="M169.2 275.8h-29.1c-5.3 0-9.7-4.3-9.7-9.7 0-5.3 4.3-9.7 9.7-9.7h29.1c5.3 0 9.7 4.3 9.7 9.7-.1 5.4-4.4 9.7-9.7 9.7zm-29.1-18.3c-4.8 0-8.7 3.9-8.7 8.7 0 4.8 3.9 8.7 8.7 8.7h29.1c4.8 0 8.7-3.9 8.7-8.7 0-4.8-3.9-8.7-8.7-8.7h-29.1zM190.5 108.7l9.8 9.6 1.4 1.4c.4.2.7.3 1.1.3.6.1 1.3.2 1.9.2h1.5c.1 0 .5 0 .3-.2l-9.8-9.6-1.4-1.4c-.4-.2-.7-.3-1.1-.3-.6-.1-1.3-.2-1.9-.2-.5-.1-1-.1-1.5 0-.2 0-.5 0-.3.2z"/><path d="M195.1 118.9l9-10 1.3-1.4c.5-.5-1.7-.4-1.8-.4-.6.1-1.3.2-1.9.4-.4.1-.8.3-1.1.5l-8.9 10-1.3 1.4c-.5.5 1.7.4 1.8.4.6-.1 1.3-.2 1.9-.4.3-.1.7-.2 1-.5zM359 164.3s50.6 2.8 53.1-7.4 5.6-62-3.8-63.8-91.9-3.7-96.3 1.4-7.5 64.3-.6 67.1 23.8 2.3 23.8 2.3-6.9 14.9-1.9 14.9 25.7-14.5 25.7-14.5z"/></g><path d="M338.6 130.9l9.2 8.2c1.1.9 2.2 1.6 3.5 2.2 1.1.6 2.3 1.1 3.5 1.6.7.4 1.6.6 2.4.7.8 0 1.2-.7 1.7-1.3l1.9-2.3 15.9-19.2c.3-.4-3.9-2.5-4.2-2.7l-3.3-1.4c-.3-.1-1.3-.5-1.5-.2l-9.7 11.7-4.8 5.8-2.4 2.9c-.5.6-1.5 2.4-2.3 2.3l6.8 2.8c2 1.1.8.4.3 0l-1.1-1-2.4-2.1-4.6-4.1a17.83 17.83 0 0 0-5.4-3c-.9-.4-1.8-.8-2.8-1-.2-.1-1.2-.3-.7.1z" fill="#fff"/></svg>