<svg xmlns="http://www.w3.org/2000/svg" xmlns:xlink="http://www.w3.org/1999/xlink" viewBox="0 0 500 500" xmlns:v="https://vecta.io/nano"><style><![CDATA[.D{fill:#222}.E{fill:#fff}.F{fill:#8dc572}]]></style><g class="F"><path d="m415 213.9-.6-1.6 4.8-1.9.6 1.6-4.8 1.9zm9.5-3.7-.6-1.6 4.8-1.9.6 1.6-4.8 1.9zm9.5-3.7-.6-1.6 4.8-1.9.6 1.6-4.8 1.9zm9.5-3.7-.6-1.6 4.8-1.9.6 1.6-4.8 1.9zm9.5-3.7-.6-1.6 4.8-1.9.6 1.6-4.8 1.9zm9.5-3.7-.6-1.6 4.8-1.9.6 1.6-4.8 1.9zm9.5-3.7-.6-1.6 4.8-1.9.6 1.6-4.8 1.9z"/><path d="m414.8 214.5-.9-2.4 5.5-2.2.9 2.4-5.5 2.2zm.2-1.9.3.8 4-1.6-.3-.8-4 1.6zm9.3-1.8-.9-2.4 5.5-2.2.9 2.4-5.5 2.2zm.2-1.9.3.8 4-1.6-.3-.8-4 1.6zm9.3-1.8-.9-2.4 5.5-2.2.9 2.4-5.5 2.2zm.2-1.9.3.8 4-1.5-.3-.8-4 1.5zm9.3-1.9-.9-2.4 5.5-2.2.9 2.4-5.5 2.2zm.2-1.8.3.8 4-1.5-.3-.8-4 1.5zm9.3-1.9-.9-2.4 5.5-2.2.9 2.4-5.5 2.2zm.2-1.9.3.8 4-1.5-.3-.8-4 1.5zm9.3-1.8-.9-2.4 5.5-2.2.9 2.4-5.5 2.2zm.2-1.9.3.8 4-1.5-.3-.8-4 1.5zm9.3-1.8-.9-2.4 5.5-2.2.9 2.4-5.5 2.2zm.2-1.9.3.8 4-1.5-.3-.8-4 1.5zM247.3 406.5l-.3-.8 4.8-1.9.3.8-4.8 1.9zm9.5-3.7-.3-.8 4.8-1.9.3.8-4.8 1.9zm9.6-3.7-.3-.8 4.8-1.9.3.8-4.8 1.9zm9.5-3.7-.3-.8 4.8-1.9.3.8-4.8 1.9zm9.5-3.7-.3-.8 4.8-1.9.3.8-4.8 1.9zm9.5-3.8-.3-.8 4.8-1.9.3.8-4.8 1.9zm9.5-3.7-.3-.8 4.8-1.9.3.8-4.8 1.9z"/><path d="m247.1 407-.6-1.6 5.5-2.2.6 1.6-5.5 2.2zm9.5-3.7-.6-1.6 5.5-2.2.6 1.6-5.5 2.2zm9.5-3.7-.6-1.6 5.5-2.2.6 1.6-5.5 2.2zm9.5-3.7-.6-1.6 5.5-2.2.6 1.6-5.5 2.2zm9.5-3.7-.6-1.6 5.5-2.2.6 1.6-5.5 2.2zm9.5-3.7-.6-1.6 5.5-2.2.6 1.6-5.5 2.2zm9.5-3.8-.6-1.6 5.5-2.2.6 1.6-5.5 2.2zM316.2 196.4l.1-5.1 5.1-.1-5.1.1-.1 5.1z"/><path d="M316.6 196.8h-.8l-.1-.4.2-5.5h.4l5.5-.1v.8l-.4.1h-4.7zm9.9-5.7l5.1-.1v.2h-5.1z"/><path d="M326.1 191.6l-.1-.9 6-.1v1zm10.6-.7l5.1-.1v.3h-5.1z"/><path d="M336.3 191.5l-.1-1 6-.1v1.1zm10.6-.8l5.1-.1v.4h-5.1z"/><path d="M346.5 191.4v-1.1l5.9-.1v1.2zm10.6-.9l5.1-.1v.5h-5.1z"/><path d="M356.7 191.3l-.1-1.2 6-.1v1.3zm10.6-1l5.1-.1v.6h-5.1z"/><path d="M366.9 191.2v-1.3l5.9-.1v1.4zm10.6-1.1h5.1v.6h-5.1z"/><path d="m377.1 191.1-.1-1.4 6-.1v1.5zM387.7 190l5.1-.1v.7h-5.1z"/><path d="M387.3 191.1l-.1-1.6 6-.1v1.6zm10.6-1.3l5.1-.1v.8h-5.1z"/><path d="M397.5 190.9v-1.5l5.9-.2v1.7zm10.6-1.3l5.1-.1v.9h-5.1z"/><path d="M407.7 190.9v-1.7l6-.1v1.7l-6 .1zm5.1-1l-3.7.1 3.7-.1zm5.5-.5l5.1-.1v.9l-5.1.1z"/><path d="M417.9 190.7V189l6-.1v1.8h-6zm.8-.9h4.3v-.1l-4.3.1zm9.8-.6l5.1-.1v1l-5.1.1z"/><path d="M428.1 190.6v-1.8l6-.1v1.8l-6 .1zm.8-1v.1h4.2v-.1h-4.2zm9.8-.5l5.1-.1v1l-5.1.1z"/><path d="M438.3 190.5v-1.9l6-.1v1.9l-6 .1zm.8-1v.2h4.2v-.2h-4.2zm9.8-.6l5.1-.1v1.1h-5.1z"/><path d="M448.5 190.4v-1.9l6-.1v1.9l-6 .1zm.8-1.1v.2l4.2-.1v-.2l-4.2.1zm9.8-.6l5.1-.1v1.2h-5.1z"/><path d="M458.7 190.3v-2l6-.1v2l-6 .1zm.8-1.2v.3l4.2-.1v-.3l-4.2.1zm9.8-.5l5.1-.1v1.1l-5.1.1z"/><path d="M468.9 190.1v-2l6-.1v2l-6 .1zm.8-1.1v.3l4.2-.1v-.3l-4.2.1zm7.5 3l.2 5.1h-1.3l-.1-5.1z"/><path d="M475.7 197.6l-.2-5.9 2.1-.1.2 5.9-2.1.1zm.7-5.2l.1 4.2h.4l-.1-4.2h-.4zm1.2 9.8l.2 5.1h-1.3l-.2-5.1z"/><path d="M476 207.8l-.2-6 2.1-.1.2 5.9-2.1.2zm.7-5.2l.1 4.2h.4l-.1-4.2h-.4zm1.2 9.8l.2 5.1h-1.3l-.2-5.1z"/><path d="M476.4 218l-.2-5.9 2.2-.1.2 5.9-2.2.1zm.7-5.1l.1 4.2h.5l-.1-4.2h-.5zm1.2 9.7l.2 5.1h-1.4l-.2-5.1z"/><path d="M476.7 228.2l-.2-5.9 2.2-.1.2 6h-2.2zm.7-5.2l.1 4.2h.5l-.1-4.2h-.5zm1.2 9.8l.2 5.1h-1.4l-.2-5.1z"/><path d="m477 238.4-.2-6 2.3-.1.2 5.9-2.3.2zm.7-5.2.1 4.2h.6l-.1-4.2h-.6zM479 243l.2 5.1h-1.5l-.2-5.1z"/><path d="M477.3 248.6l-.2-5.9 2.3-.1.2 5.9-2.3.1zm.7-5.2l.1 4.2h.6l-.1-4.2h-.6zm1.3 9.8l.2 5.1H478l-.1-5.1z"/><path d="M477.6 258.8l-.2-5.9 2.3-.1.2 6h-2.3zm.7-5.2l.1 4.2h.6l-.1-4.2h-.6zm1.4 9.8l.2 5.1h-1.5l-.2-5.1z"/><path d="m477.9 269-.2-6 2.3-.1.2 6-2.3.1zm.7-5.1.1 4.2h.6l-.1-4.2h-.6zM480 273.6l.2 5.1h-1.5l-.2-5.1z"/><path d="M478.3 279.1l-.2-5.9 2.4-.1.2 6h-2.4zm.7-5.1l.1 4.2h.7l-.1-4.2h-.7zm1.4 9.8l.1 5.1H479l-.2-5.1z"/><path d="m478.6 289.3-.2-6 2.4-.1.2 5.9-2.4.2zm.7-5.1.1 4.2h.7l-.1-4.2h-.7zM480.7 294l.2 5-1.6.1-.1-5.1z"/><path d="m478.9 299.5-.2-6 2.4-.1.2 6-2.4.1zm.7-5.1.1 4.2h.7l-.1-4.2h-.7zM481 304.1l.2 5.1-1.6.1-.1-5.1z"/><path d="M479.2 309.7l-.2-6 2.4-.1.2 6-2.4.1zm.7-5.1l.1 4.2h.7l-.1-4.2h-.7zm1.5 9.7l.1 5.1-1.5.1-.2-5.1z"/><path d="M479.6 319.9l-.2-6 2.4-.1.2 6-2.4.1zm.6-5.1l.1 4.2h.7l-.1-4.2h-.7zm1.5 9.7l.2 5.1-1.6.1-.2-5.1z"/><path d="M479.9 330.1l-.2-6 2.4-.1.2 6-2.4.1zm.7-5.1l.1 4.2h.8l-.1-4.2h-.8zm1.5 9.7l.1 5.1-1.6.1-.1-5.1z"/><path d="M480.2 340.3l-.2-5.9 2.5-.1.2 5.9-2.5.1zm.7-5.1l.1 4.2h.8l-.1-4.2h-.8zm1.5 9.7l.2 5.1-1.6.1-.2-5.1z"/><path d="M480.5 350.5l-.2-6 2.5-.1.2 6-2.5.1zm.7-5.1l.1 4.2h.8l-.1-4.2h-.8zm1.6 9.7l.1 5.1-1.6.1-.2-5.1z"/><path d="M480.9 360.7l-.2-6 2.5-.1.2 6-2.5.1zm.6-5.1l.1 4.2h.8l-.1-4.2h-.8zm1.6 9.7l.2 5.1-1.7.1-.2-5.1z"/><path d="M481.2 370.9l-.2-5.9 2.5-.1.2 5.9-2.5.1zm.7-5.1l.1 4.2h.8l-.1-4.2h-.8zm1.5 9.7l.2 5.1-1.7.1-.1-5.1z"/><path d="M481.5 381.1l-.2-6 2.5-.1.2 5.9-2.5.2zm.7-5.1l.1 4.2h.8l-.1-4.2h-.8zm1.6 9.7l.1 2.8v.9l-.9-.1-2.4-.1.1-1.7 2.4.1-.9.9-.1-2.7z"/><path d="m484.3 389.8-4.2-.2.1-2.5 1.4.1-.1-1.8 2.5-.1.3 4.5zm-1.9-.9h1.1v-1l-1.1 1zm-1.3-.1h.7v-.8h-.6l-.1.8zm1.5-1.6h.9v-1.1h-.8l-.1 1.1zM475.5 389l-5.1-.3.1-1.7 5.1.3z"/><path d="M475.9 389.4l-5.9-.3.1-2.5 5.9.3-.1 2.5zm-5-1.1l4.2.2v-.8l-4.2-.2v.8zm-5.6.2l-5.1-.3.1-1.6 5.1.2z"/><path d="M465.7 388.9l-5.9-.3.1-2.5 5.9.3-.1 2.5zm-5-1.1l4.2.2v-.8l-4.2-.2v.8zm-5.6.2l-5.1-.2.1-1.7 5.1.2z"/><path d="M455.5 388.4l-5.9-.3.1-2.5 5.9.3-.1 2.5zm-5-1.1l4.2.2v-.8l-4.2-.2v.8zm-5.5.2l-5.1-.3v-1.6l5.1.3z"/><path d="M445.4 388l-5.9-.3.1-2.5 5.9.3-.1 2.5zm-5.1-1.1l4.2.2v-.8l-4.2-.2v.8zm-5.5.1l-5.1-.2.1-1.7 5.1.3z"/><path d="M435.2 387.5l-5.9-.3.1-2.5 5.9.3-.1 2.5zm-5.1-1.1l4.2.2v-.8l-4.2-.2v.8zm-5.5.1l-5.1-.2.1-1.6 5 .2z"/><path d="M425 387l-5.9-.3.1-2.4 6 .3-.2 2.4zm-5-1.1l4.2.2v-.8l-4.2-.2v.8zm-5.6.1l-5.1-.2.1-1.6 5.1.2z"/><path d="M414.8 386.5l-5.9-.3.1-2.4 6 .3-.2 2.4zm-5.1-1.1l4.2.2v-.7l-4.2-.2v.7zm-5.5.1l-5.1-.2.1-1.6 5.1.3z"/><path d="m404.6 386-5.9-.3.1-2.4 6 .3-.2 2.4zm-5-1.1 4.2.2v-.7l-4.2-.2v.7zM394 385l-5.1-.2.1-1.5 5.1.2z"/><path d="M394.4 385.5l-5.9-.3.1-2.4 6 .3-.2 2.4zm-5-1.1l4.2.2v-.7l-4.2-.2v.7zm-5.6.1l-5.1-.2.1-1.5 5.1.2z"/><path d="M384.2 385l-5.9-.3.1-2.4 6 .3-.2 2.4zm-5-1.1l4.2.2v-.7l-4.2-.2v.7zm-5.6.2l-5.1-.3.1-1.5 5.1.2z"/><path d="M374 384.5l-5.9-.3.1-2.4 5.9.3-.1 2.4zm-5-1.1l4.2.2v-.7l-4.2-.2v.7zm-5.6.2l-5.1-.3.1-1.5 5.1.3z"/><path d="M363.8 384l-5.9-.3.1-2.3 5.9.3-.1 2.3zm-5-1.1l4.2.2v-.6l-4.2-.2v.6zm-5.6.2l-5.1-.3.1-1.4 5.1.2z"/><path d="M353.6 383.5l-5.9-.3.1-2.3 5.9.3-.1 2.3zm-5-1.1l4.2.2v-.6l-4.2-.2v.6zm-5.5.2l-5.1-.3v-1.4l5.1.2z"/><path d="M343.5 383l-5.9-.3.1-2.3 5.9.3-.1 2.3zm-5-1.1l4.2.2v-.6l-4.2-.2v.6zm-5.6.2l-5.1-.3v-1.4l5.1.2z"/><path d="M333.3 382.5l-5.9-.3.1-2.3 5.9.3-.1 2.3zm-5-1.1l4.2.2v-.6l-4.2-.2v.6zm-5.6.2l-5.1-.3V380l5.2.2z"/><path d="M323.1 382l-5.9-.3.1-2.2 5.9.3-.1 2.2zm-5.1-1.1l4.2.2v-.6l-4.2-.2v.6zm-5.7-.9l.1-5.1h1.3l-.1 5.1z"/><path d="M314.1 380.4h-2.2l.1-6h2.2l-.1 6zm-1.4-.9h.5l.1-4.2h-.5l-.1 4.2zm-.2-9.7l.1-5.1h1.3l-.1 5.1z"/><path d="M314.2 370.2h-2.1l.1-6h2.1l-.1 6zm-1.3-.8h.5l.1-4.2h-.5l-.1 4.2zm-.2-9.8l.1-5.1h1.2v5.1z"/><path d="M314.4 360h-2.1l.1-6h2.1l-.1 6zm-1.3-.9h.4l.1-4.2h-.4l-.1 4.2zm-.2-9.7l.1-5.1h1.2l-.1 5.1z"/><path d="M314.5 349.8h-2l.1-6h2l-.1 6zm-1.2-.8h.3l.1-4.2h-.3l-.1 4.2zm-.2-9.8l.1-5.1h1.1l-.1 5.1z"/><path d="M314.7 339.6h-2l.1-6h2l-.1 6zm-1.2-.8h.3l.1-4.2h-.3l-.1 4.2zm-.2-9.8l.1-5.1h1.1l-.1 5.1z"/><path d="M314.8 329.4h-1.9l.1-6h1.9l-.1 6zm-1-.8h.2l.1-4.2h-.2l-.1 4.2zm-.3-9.8l.1-5.1h1v5.1z"/><path d="M315 319.2h-1.9l.1-6h1.9l-.1 6zm-1-.8h.2l.1-4.2h-.3v4.2zm-.3-9.8l.1-5.1h1l-.1 5.1z"/><path d="M315.1 309h-1.8l.1-6h1.8l-.1 6zm-1-.9h.1l.1-4.2h-.1l-.1 4.2zm-.2-9.7l.1-5.1h.9v5.1z"/><path d="M315.3 298.8h-1.8l.1-6h1.8l-.1 6zm-.9-.8l.1-4.2h-.1v4.2zm-.3-9.8l.1-5.1h.9l-.1 5.1z"/><path d="M315.4 288.6h-1.7l.1-6h1.7l-.1 6zm-.8-.8l.1-4.2-.1 4.2zm-.2-9.8l.1-5.1h.7v5.1z"/><path d="M315.6 278.4h-1.7l.1-6 1.6.1zm-1-10.6l.1-5.1h.7l-.1 5.1z"/><path d="M315.7 268.2h-1.6l.2-6 1.5.1zm-.9-10.6l.1-5.1h.6l-.1 5.1z"/><path d="M315.8 258h-1.4l.1-6 1.4.1zm-.8-10.6l.1-5.1h.5v5.1z"/><path d="M316 247.8h-1.4l.1-6 1.3.1zm-.7-10.6l.1-5.1h.4l-.1 5.1z"/><path d="M316.1 237.6h-1.3l.2-6 1.2.1zm-.6-10.6l.1-5.1h.3l-.1 5.1z"/><path d="M316.2 227.4h-1.1l.1-6 1.1.1zm-.5-10.6l.1-5.1h.2v5.1z"/><path d="M316.4 217.2h-1.1l.1-6 1.1.1zm-.5-10.6l.2-5.1v5.1z"/><path d="M316.5 207h-1l.1-5.9h1z"/></g><path d="M310 335.5l-5.9 21.4-9.4 34.1-2.1 7.9c-.3 1.2.9 1.7 1.9 1.6 1.3-.1 2.3-1 2.7-2.1L303 377l9.3-34.1 2.1-7.9c.3-1.2-.9-1.7-1.9-1.6s-2.1.9-2.5 2.1zm39.8 3.2c-1.4 6.9-3.3 13.7-5 20.5l-7.6 30.9-1.8 7.1c-.3 1.3 4.4.4 4.8-1l4.8-19.4 7.7-31.2c.6-2.6 1.4-5.3 1.9-7.9.2-1.3-4.5-.4-4.8 1zm12.7.7l1.8 23.3 2.8 37.1.6 8.5c.2 2 5 1 4.9-1.2l-1.8-23.3-2.7-37.1-.6-8.5c-.3-1.9-5.1-.9-5 1.2zm40.8-.1l8.4 20.8 13.4 33 3.1 7.6c.5 1.2 1.7 1.9 3 1.6 1-.2 2.3-1.3 1.9-2.5l-8.4-20.8-13.4-33-3.1-7.6c-.5-1.2-1.7-1.9-3-1.6-1 .2-2.4 1.3-1.9 2.5z" class="D"/><path d="M355.9 236.1 428 234l-19.8 108.3s-95.8.4-97.1-6.1 7.2-33.8 11.4-33.8 14.6-1.8 14.6-1.8l10.8-57.6c.7-3.9 4-6.8 8-6.9z" class="E"/><path d="M357.2 238.1l24.4-.7 38.9-1.1 8.9-.2-3.1-3.7-2 10.8-4.7 25.9-5.7 31.3-5 27-1.6 8.9-.5 2.8c-.2.5-.2 1-.3 1.5v.2l.5-.4c-5.8 0-11.5 0-17.3-.1l-36.8-.8c-11.1-.4-22.3-.8-33.3-2.3-1.7-.2-3.5-.5-5.2-.9-.6-.1-1.3-.3-1.9-.5-.4-.1.4.2 0 0l-.3-.1c-.3-.1-.9-.5-.2-.1-.5-.4.2.2 0 .1.4.5.8 1 1 1.6 0-.1 0 .5 0 0V335c.3-3 .8-6 1.6-8.9 1.6-6.4 3.5-13.1 6.9-18.8.4-.8 1-1.5 1.6-2.2.1-.1.3-.2.4-.3.2-.1.3-.1.2-.1.6-.1 1.1-.1 1.7-.1 3.7-.3 7.4-.8 11-1.4l2.3-.4c.2 0 .4-.2.4-.4l4.2-22.5L349 248l.6-3.2c.6-3.8 3.8-6.6 7.6-6.7 1.1-.1.2-1.9-.1-2.2-.5-.8-1.5-1.9-2.6-1.9-4.2.2-7.7 3.2-8.5 7.3-.1.7-.2 1.4-.4 2.1l-2.3 12.5-6.5 34.6-1.6 8.5.5-.4c-2.7.5-5.5.9-8.3 1.3-1.9.2-3.7.5-5.6.5-.8-.1-1.7.2-2.3.8-1.8 1.7-2.9 4.3-3.8 6.4-2.8 6.6-4.8 13.4-6.1 20.5-.4 2.3-1 5-.3 7.3 1 3.3 4.7 4.4 7.7 5 4.3.8 8.6 1.4 13 1.7 6.1.5 12.2.9 18.4 1.1 12.9.6 25.9.8 38.8 1l14.7.1c2.4 0 4.9.2 7.3 0h.3a.55.55 0 0 0 .5-.3l2-10.8 4.7-25.8 5.7-31.3 5-27 2.4-13.2v-.2c.3-1.5-1.6-3.7-3.1-3.7l-24.4.7-38.9 1.1-8.9.3c-1 0-.1 1.8.1 2.2.6.8 1.6 1.8 2.6 1.8z" class="D"/><path d="m338.5 311.6-25.7 4.6-9.3-26.1 37.2-4.9z" class="E"/><path d="m338.5 309.9-22.4 4-3.2.6 2.3.7-8.1-22.8-1.2-3.3-2.3 2.6 32.5-4.3 4.7-.6-2.4-1.1-2 23.1-.3 3.3c-.2 2.3 4.6 1 4.8-1.1l2-23.1.3-3.3c.1-1.2-1.6-1.2-2.4-1.1l-32.5 4.4-4.7.6c-1.1.1-2.8 1.4-2.3 2.7l8.1 22.8 1.2 3.3c.3.9 1.6.9 2.3.7l22.4-4 3.3-.6c1-.2 2.4-1.1 2.4-2.2s-1.7-1.4-2.5-1.3z" class="D"/><path d="M416.9 338.8s19.7-100 15.1-103.4-10.4.6-10.4 2.9-8.8 57.1-8.8 57.1-41-6.9-41.6-5.2-9 50.5-4.8 51.7 48.9 4.2 50.5-3.1z" class="E"/><path d="M419.4 338.5l4.6-24.3 8-46.9c1-6.7 2-13.4 2.6-20.1l.5-7.2c.1-1.4 0-2.9-.2-4.3-.1-.4-.3-.9-.6-1.2-1.8-2-5.5-2-7.9-1.5s-5.4 1.9-6.7 4.1c-.2.4-.4.8-.5 1.2 0 .2-.1.9 0 .3l-.1.6c-.6 5.3-1.5 10.6-2.4 15.9l-6.3 39.6c0 .3-.1.5-.1.8l3.9-1.5c-10-1.7-20-3.3-30-4.5-2.7-.4-5.5-.7-8.2-.9-1.9-.3-3.8-.1-5.6.4-1.6.6-1.8 1.6-2 3.1-.4 2-.7 4-1 6-1.1 6.3-2 12.7-2.9 19-.9 6.2-1.5 12.4-1.7 18.6-.1 1.8 0 3.6.4 5.4.4 1.4 1.3 1.7 2.6 1.9 5 .7 10.1 1.1 15.2 1.3 7.1.4 14.2.3 21.3-.1 3-.2 6.1-.6 9-1.2 2.4-.4 4.6-1.3 6.5-2.7.8-.4 1.3-1.1 1.6-1.8.4-1.7-4.5-1-4.8.5 0 .1-.1.3-.1.4s.1-.2-.1.1c-.1.1-.2.2-.2.3.4-.4-.1 0-.2.1s.4-.2-.1 0l-.5.3c.7-.4 0 0-.2.1l-.7.2c-.5.2.6-.1 0 0l-.3.1-.8.2-.7.1-.5.1c-.5.1.5-.1-.1 0-1.3.2-2.6.4-4 .5-6.4.5-12.9.7-19.4.4-3.1-.1-6.3-.3-9.4-.5-2.6-.2-4-.3-6.5-.6l-2-.3c-.2-.1-.4-.1-.6-.1.3 0 .4.1.5.2l-.2-.2c.1.4-.1-.2-.1-.4-.1-.3-.2-.6-.2-.9-.1-.8-.2-1.6-.2-2.5 0-5.4.4-10.9 1.2-16.3a578.89 578.89 0 0 1 2.7-19c.6-3.8 1.5-7.6 2-11.4 0-.1.1-.3.1-.3.2.6-2 1.2-2.3 1.2h.3-.1 1.1l1.2.1.8.1h.5c1.3.1 2.6.3 3.9.4 10.6 1.2 21.1 3 31.7 4.7l.7.1c1 .2 3.7-.2 3.9-1.5l5.4-33.7 3-19.5c.2-1.4.3-2.8.5-4.2 0 .2.2-.5.2-.6.2-.3.4-.6.7-.9.5-.5 1.2-.9 2-.9 1 .1 2 .4 2.8 1l.1.1c-.1-.1-.1-.2 0 0 .9 3.1.4 6.5.1 9.6-.5 6.2-1.4 12.5-2.3 18.6-2.3 15.4-5 30.8-7.8 46.1l-5.3 27.9c0 .1-.1.3-.1.4-.8 2.2 4 1.4 4.4-.1z" class="D"/><path d="M371.2 290.2s5.8-.9 5.8 6.6-6.8 42.8-10.6 45.1-60-2.4-62.9-4.3-6.3-47.3 0-47.4c12.2-.1 11.4 26.2 11.4 26.2l41.7 2c0-.1 2.4-28.9 14.6-28.2z" class="E"/><path d="M371.5 292.4h.4c-.5 0 .3 0 .5.1s.6.1.2 0 .2.1.3.1.4.2 0 0l.5.3c.3.2-.1-.2.2.2l.2.2c-.1-.2 0-.1 0 .1.5 1 .7 2.1.7 3.1-.1 3-.4 6-1 8.9-1.3 9-3.2 18-5.6 26.8-.5 1.8-.8 2.8-1.5 4.7-.2.6-.5 1.3-.8 1.9-.1.3-.2.5-.4.8-.2.3-.6.7-.1.2-.1.1-.2.3-.3.4-.2.3.1-.1.2-.2-.1.1-.3.3.1 0s.2 0 0 0c-.6.1.2 0 .1 0-.9.1-1.7.2-2.6.3-3 .1-6 .1-9 0h-2.4l-3.1-.1c-2.1-.1-4.2-.2-6.3-.4-8.4-.5-16.9-1.2-25.3-2.1-3-.3-6.1-.7-9.1-1.2-.9-.1-1.8-.3-2.7-.5-.6-.1.6.2.1 0-.1-.1-.2-.1-.3-.1-.4-.1.3.2.3.2-.2-.1.5.5.3.3s-.2-.2 0 .1 0 .1 0-.1l-.2-.5c-.1-.3-.2-.8 0-.1l-.2-.8c-.3-1.3-.6-2.6-.8-4-.6-3.6-.9-7.3-1.2-11-.6-7.9-1-15.3.2-23.1.1-.7.2-1.4.4-2l.2-.9c.2-.6-.1.3.1-.4l.6-1.2c-.3.6-.2 0 0 0 0 0 .5-.4 0 0-.4.3-.1.1 0 0 .3-.2-.6.2-.3.1s-.7.2-.3.1c-.8 0-1.5.8-1.4 1.6s.8 1.5 1.6 1.4 1.5-.8 1.4-1.6c0-.8-.7-1.4-1.4-1.4-.3 0 .4 0 .5.1l.6.1c.5.1-.4-.1.1 0l.5.2c.1 0 .7.3.4.2s.2.1.3.2l.5.3c.2.1.3.2.4.4l-.1-.1.3.3c.3.3.5.6.8.9l.4.5.2.2c.2.3-.2-.3 0 0 2 3.3 2.6 6.5 3.2 10.4.4 3 .7 6 .7 9.1v.9c-.1 1.3.8 2.4 2.1 2.6l36.6 1.8 5.1.2c1.1.1 2.7-.4 2.8-1.8.3-3.1.8-6.2 1.4-9.2.5-2.6 1.2-5.1 2.1-7.6.5-1.3 1-2.6 1.7-3.8.3-.5.6-1.1.9-1.6.1-.1.1-.2.2-.4.2-.3.4-.6.6-.8.4-.5.9-1 1.3-1.4.1-.1.4-.4 0 0l.4-.3.8-.5c.1-.1.3-.1.4-.2-.3.1-.2.1 0 0l.9-.3c.1 0 .6-.1 0 0l.5-.1h.5c1.2.1 2.6-.4 2.8-1.8.1-1.3-.8-2.4-2.1-2.6-6.3-.3-10.3 4.5-12.6 9.9-2.2 5.2-3.6 10.7-4.3 16.3-.2 1.3-.4 2.5-.5 3.8l2.8-1.8-36.6-1.8-5.1-.2 2.1 2.6c.3-6.1-.5-12.3-2.3-18.2-1.2-3.8-3.3-7.6-6.9-9.5-3-1.6-6.8-1.8-8.6 1.4-1.4 2.5-1.6 5.8-1.9 8.6-.3 4.3-.4 8.6-.2 12.9.1 4.4.4 8.8.9 13.1.3 3.3.8 6.5 1.5 9.8.5 2 1 4.2 3.2 4.9 2.3.6 4.6 1.1 6.9 1.3 8.3 1.1 16.6 1.8 25 2.4s16.8 1.2 25.2 1.2c2.2 0 4.7.1 6.8-.6 2.4-.8 3.4-3.7 4.2-5.8 3.2-8.8 4.9-18.2 6.5-27.4.7-3.9 1.3-7.8 1.6-11.7.3-4.2-.3-9.2-4.9-10.8-1.1-.4-2.3-.5-3.5-.4-1.3.1-2.2 1.1-2.1 2.4.2.9 1.4 1.7 2.7 1.5z" class="D"/><g class="F"><path d="m250.4 222.1.1-5.1 5.1-.1-5.1.1-.1 5.1z"/><path d="M250.9 222.5h-.9v-.5l.1-5.4h.4l5.5-.2v.9l-.4.1h-4.7zm9.8-5.7l5.1-.1v.1l-5.1.1z"/><path d="M260.3 217.3v-.9l5.9-.2v1zm10.6-.7l5.1-.1v.2l-5.1.1z"/><path d="M270.5 217.2v-1l5.9-.1v1zm10.6-.8l5.1-.1v.3l-5.1.1z"/><path d="M280.7 217.1V216l5.9-.1v1.2zm10.6-.9l5.1-.1v.4l-5.1.1z"/><path d="M290.9 217v-1.2l5.9-.1.1 1.3zm10.6-1l5.1-.1v.5l-5.1.1z"/><path d="M301.1 216.9v-1.3l5.9-.1v1.4zm10.6-1.1l5.1-.1v.6l-5.1.1z"/><path d="M311.3 216.8v-1.4l5.9-.1v1.5zm10.6-1.2l5.1-.1v.7l-5.1.1z"/><path d="M321.5 216.7v-1.5l5.9-.1.1 1.6zm10.6-1.3l5.1-.1v.8l-5.1.1z"/><path d="M331.7 216.6V215l5.9-.1v1.7zm10.6-1.4h5.1v.8l-5.1.1z"/><path d="M341.9 216.5v-1.7l6-.1v1.7l-6 .1zm5.1-.9l-3.6.1 3.6-.1zm5.5-.5l5.1-.1v.9l-5.1.1z"/><path d="M352.1 216.4v-1.8l6-.1v1.8l-6 .1zm.8-.9h4.2v-.1l-4.2.1zm9.8-.6l5.1-.1v1l-5.1.1z"/><path d="M362.3 216.3v-1.8l6-.1v1.8l-6 .1zm.8-1v.1l4.3-.1v-.1l-4.3.1zm9.8-.6l5.1-.1v1.1h-5.1z"/><path d="M372.5 216.2v-1.9l6-.1v1.9l-6 .1zm.8-1v.2l4.2-.1v-.2l-4.2.1zm9.8-.6l5.1-.1v1.1h-5.1z"/><path d="M382.7 216.1v-1.9l6-.1v1.9l-6 .1zm.8-1.1v.2l4.2-.1v-.2l-4.2.1zm9.8-.6l5.1-.1v1.1l-5.1.1z"/><path d="M392.9 215.9v-2l6-.1v2l-6 .1zm.8-1.1v.3h4.2v-.3h-4.2zm9.8-.6l5.1-.1v1.2l-5.1.1z"/><path d="M403.1 215.8v-2l6-.1v2l-6 .1zm.8-1.2v.4h4.2v-.3l-4.2-.1zm7.5 3.1l.2 5.1h-1.2l-.2-5.1z"/><path d="M410 223.2l-.2-6 2.1-.1.2 5.9-2.1.2zm.7-5.1l.1 4.2h.4l-.2-4.3-.3.1zm1.1 9.8l.2 5.1h-1.3l-.2-5.1z"/><path d="M410.3 233.4l-.2-5.9 2.1-.1.2 6h-2.1zm.7-5.1l.1 4.2h.4l-.1-4.2h-.4zm1.2 9.8l.1 5-1.3.1-.2-5.1z"/><path d="M410.6 243.6l-.2-5.9 2.2-.1.2 5.9-2.2.1zm.7-5.1l.1 4.2h.5l-.1-4.2h-.5zm1.2 9.7l.2 5.2h-1.4l-.2-5.1z"/><path d="M410.9 253.8l-.2-5.9 2.2-.1.2 5.9-2.2.1zm.7-5.1l.1 4.2h.5l-.1-4.2h-.5zm1.3 9.8l.1 5-1.4.1-.1-5.1z"/><path d="M411.2 264l-.2-6 2.3-.1.2 6-2.3.1zm.7-5.1l.1 4.2h.6l-.1-4.2h-.6zm1.3 9.7l.2 5.1-1.5.1-.1-5.1z"/><path d="M411.5 274.2l-.2-6 2.3-.1.2 6-2.3.1zm.7-5.1l.1 4.2h.6l-.1-4.2h-.6zm1.4 9.7l.1 5.1-1.4.1-.2-5.1z"/><path d="m411.9 284.4-.2-5.9 2.3-.1.2 6h-2.3zm.6-5.1.1 4.2h.6l-.1-4.2h-.6zM413.9 289l.2 5.1-1.5.1-.2-5.1z"/><path d="M412.2 294.6l-.2-6 2.3-.1.2 5.9-2.3.2zm.7-5.1l.1 4.2h.6l-.1-4.2h-.6zm1.3 9.7l.2 5.1-1.5.1-.2-5.1z"/><path d="M412.5 304.8l-.2-6 2.4-.1.2 6-2.4.1zm.7-5.1l.1 4.2h.7l-.1-4.2h-.7zm1.4 9.7l.2 5.1-1.6.1-.1-5.1z"/><path d="M412.8 315l-.2-5.9 2.4-.1.2 6h-2.4zm.7-5.1l.1 4.2h.7l-.1-4.2h-.7zm1.4 9.7l.2 5.1-1.6.1-.1-5.1z"/><path d="M413.1 325.2l-.2-6 2.4-.1.2 5.9-2.4.2zm.7-5.1l.1 4.2h.7l-.1-4.2h-.7zm1.5 9.7l.1 5.1-1.5.1-.2-5.1z"/><path d="m413.5 335.4-.2-6 2.4-.1.2 6-2.4.1zm.6-5.1.1 4.2h.7l-.1-4.2h-.7zM415.6 340l.2 5.1-1.6.1-.2-5.1z"/><path d="m413.8 345.6-.2-5.9 2.4-.1.2 5.9-2.4.1zm.7-5.1.1 4.2h.7l-.1-4.2h-.7zM416 350.2l.1 5.1-1.6.1-.1-5.1z"/><path d="M414.1 355.8l-.2-6 2.4-.1.2 6-2.4.1zm.7-5.1l.1 4.2h.7l-.1-4.2h-.7zm1.5 9.7l.2 5.1-1.6.1-.2-5.1z"/><path d="M414.4 366l-.2-6 2.5-.1.2 6-2.5.1zm.7-5.1l.1 4.2h.8l-.1-4.2h-.8zm1.5 9.7l.2 5.1-1.6.1-.2-5.1z"/><path d="m414.8 376.2-.2-5.9 2.5-.1.2 5.9-2.5.1zm.7-5.1.1 4.2h.8l-.1-4.2h-.8zM417 380.8l.1 5.1-1.6.1-.2-5.1z"/><path d="m415.1 386.4-.2-6 2.5-.1.2 6-2.5.1zm.7-5.1.1 4.2h.8l-.1-4.2h-.8zM417.3 391l.2 5.1h-1.7l-.1-5.1z"/><path d="M415.4 396.6l-.2-6 2.5-.1.2 6-2.5.1zm.7-5.1l.1 4.2h.8l-.1-4.2h-.8zm1.6 9.7l.1 5.1-1.7.1-.1-5.2z"/><path d="m415.7 406.8-.2-5.9 2.5-.1.2 6h-2.5zm.7-5.1.1 4.2h.8l-.1-4.2h-.8zM418 411.4l.1 2.7v.9h-.9l-2.3-.1v-1.7l2.4.1-.9.9-.1-2.8z"/><path d="M418.6 415.5l-4.1-.2.1-2.5 1.4.1-.1-1.8 2.5-.1.2 4.5zm-2-1l1 .1v-1.1l-1 1zm-1.3 0h.7v-.9h-.6l-.1.9zm1.5-1.6h.9v-1.1h-.8l-.1 1.1zm-7 1.7l-5.1-.2v-1.7l5.1.3z"/><path d="M410.2 415.1l-5.9-.3.1-2.5 5.9.3-.1 2.5zm-5.1-1.1l4.2.2v-.8l-4.2-.2v.8zm-5.5.2l-5.1-.3v-1.7l5.1.3z"/><path d="M400 414.6l-5.9-.3.1-2.5 5.9.3-.1 2.5zm-5-1.1l4.2.2v-.8l-4.2-.2v.8zm-5.6.2l-5.1-.3.1-1.6 5.1.2z"/><path d="M389.8 414.1l-5.9-.3.1-2.5 6 .3-.2 2.5zm-5-1.1l4.2.2v-.8l-4.2-.2v.8zm-5.6.2l-5.1-.3.1-1.6 5.1.2z"/><path d="M379.6 413.6l-5.9-.3.1-2.5 6 .3-.2 2.5zm-5-1.1l4.2.2v-.8l-4.2-.2v.8zm-5.6.2l-5.1-.3.1-1.6 5.1.3z"/><path d="M369.4 413.1l-5.9-.3.1-2.5 6 .3-.2 2.5zm-5-1.1l4.2.2v-.8l-4.2-.2v.8zm-5.6.2l-5.1-.3.1-1.5 5.1.2z"/><path d="M359.2 412.6l-5.9-.3.1-2.4 6 .3-.2 2.4zm-5-1.1l4.2.2v-.7l-4.2-.2v.7zm-5.6.2l-5.1-.2.1-1.6 5.1.2z"/><path d="M349 412.1l-5.9-.3.1-2.4 6 .3-.2 2.4zm-5-1l4.2.2v-.7l-4.2-.2v.7zm-5.6.1l-5.1-.2.1-1.6 5.1.2z"/><path d="M338.8 411.6l-5.9-.3.1-2.4 5.9.3-.1 2.4zm-5-1.1l4.2.2v-.7l-4.2-.2v.7zm-5.6.2l-5.1-.2.1-1.6 5.1.3z"/><path d="M328.6 411.2l-5.9-.3.1-2.4 5.9.3-.1 2.4zm-5-1.1l4.2.2v-.7l-4.2-.2v.7zm-5.6.1l-5-.2v-1.5l5.1.2z"/><path d="M318.5 410.7l-5.9-.3.1-2.4 5.9.3-.1 2.4zm-5.1-1.1l4.2.2v-.7l-4.2-.2v.7zm-5.5.1l-5.1-.2V408l5.1.2z"/><path d="M308.3 410.2l-5.9-.3.1-2.4 5.9.3-.1 2.4zm-5.1-1.1l4.2.2v-.7l-4.2-.2v.7zm-5.5.1l-5.1-.2v-1.5l5.1.2z"/><path d="M298.1 409.7l-5.9-.3.1-2.3 5.9.3-.1 2.3zm-5.1-1.1l4.2.2v-.6l-4.2-.2v.6zm-5.5.1l-5.1-.2.1-1.5 5 .3z"/><path d="M287.9 409.2l-5.9-.3.1-2.3 5.9.3-.1 2.3zm-5.1-1.1l4.2.2v-.6l-4.2-.2v.6zm-5.5.1l-5.1-.2.1-1.5 5.1.3z"/><path d="M277.7 408.7l-5.9-.3.1-2.3 5.9.3-.1 2.3zm-5.1-1.1l4.2.2v-.6l-4.2-.2v.6zm-5.5.2l-5.1-.3.1-1.4 5.1.2z"/><path d="M267.5 408.2l-5.9-.3.1-2.3 6 .3-.2 2.3zm-5-1.1l4.2.2v-.6l-4.2-.2v.6zm-5.6.2l-5.1-.3.1-1.4 5.1.3z"/><path d="M257.3 407.7l-5.9-.3.1-2.2 6 .3-.2 2.2zm-5-1.1l4.2.2v-.5l-4.2-.2v.5zm-5.8-1l.1-5.1 1.3.1v5.1z"/><path d="M248.3 406.1h-2.2l.1-6h2.2l-.1 6zm-1.4-.9h.5l.1-4.2h-.5l-.1 4.2zm-.2-9.8l.1-5h1.3l-.1 5.1z"/><path d="M248.4 395.9h-2.1l.1-6h2.1l-.1 6zm-1.2-.9h.4l.1-4.2h-.4l-.1 4.2zm-.3-9.8l.1-5.1 1.2.1v5.1z"/><path d="M248.6 385.7h-2.1l.1-6h2.1l-.1 6zm-1.2-.9h.4l.1-4.2h-.4l-.1 4.2zm-.3-9.8l.1-5.1 1.2.1-.1 5.1z"/><path d="M248.8 375.5h-2.1l.1-6h2v6zm-1.2-.9h.3l.1-4.2h-.3l-.1 4.2zm-.3-9.7l.1-5.1h1.2l-.1 5.1z"/><path d="M248.9 365.3h-2l.1-6h2l-.1 6zm-1.1-.9h.3l.1-4.2h-.3l-.1 4.2zm-.3-9.8l.1-5.1 1.1.1-.1 5.1z"/><path d="M249.1 355.1h-1.9l.1-6h1.9l-.1 6zm-1.1-.9h.2l.1-4.2h-.2l-.1 4.2zm-.2-9.7l.1-5.1h1l-.1 5.1z"/><path d="M249.2 344.9h-1.9l.1-6h1.9l-.1 6zm-1-.9h.2l.1-4.2h-.2l-.1 4.2zm-.2-9.8l.1-5.1.9.1-.1 5.1z"/><path d="M249.4 334.7h-1.8l.1-6h1.8l-.1 6zm-1-.9h.1l.1-4.2h-.1l-.1 4.2zm-.2-9.8l.1-5h.9l-.1 5.1z"/><path d="M249.5 324.5h-1.8l.1-6h1.8l-.1 6zm-.9-.9l.1-4.2h-.1v4.2zm-.2-9.7l.1-5.1h.8l-.1 5.1z"/><path d="M249.7 314.3H248l.1-6h1.7l-.1 6zm-.9-.9l.1-4.2-.1 4.2zm-.2-9.8l.1-5.1.7.1v5.1z"/><path d="M249.8 304.1h-1.7l.2-6h1.6zm-1-10.6l.1-5.1h.7l-.1 5.1z"/><path d="M249.9 293.9h-1.5l.1-6h1.5zm-.9-10.7l.1-5.1.6.1-.1 5.1z"/><path d="M250.1 283.7h-1.5l.1-6h1.4zm-.8-10.7l.1-5h.5l-.1 5.1z"/><path d="M250.2 273.5h-1.4l.2-6h1.3zm-.7-10.6l.1-5.1h.4l-.1 5.1z"/><path d="M250.3 263.3h-1.2l.1-6h1.2zm-.6-10.7l.1-5h.3v5.1z"/><path d="M250.5 253.1h-1.2l.1-6h1.1zm-.6-10.7l.2-5h.1v5z"/><path d="M250.6 242.9h-1.1l.1-6h1.1zm-.4-10.7l.1-5.1h.1l-.1 5.1z"/><path d="M250.7 232.7h-1l.2-6h.9zM250.7 217.4l-.3-.8 4.8-1.9.3.8-4.8 1.9zm9.5-3.7-.3-.8 4.8-1.9.3.8-4.8 1.9zm9.5-3.8-.3-.8 4.8-1.9.3.8-4.8 1.9zm9.5-3.7-.3-.8 4.8-1.9.3.8-4.8 1.9zm9.5-3.7-.3-.8 4.8-1.9.3.8-4.8 1.9zm9.5-3.7-.3-.8 4.8-1.9.3.8-4.8 1.9zm9.5-3.7-.3-.8 4.8-1.9.3.8-4.8 1.9z"/><path d="m250.4 217.9-.6-1.6 5.5-2.2.6 1.6-5.5 2.2zm9.5-3.7-.6-1.6 5.5-2.2.6 1.6-5.5 2.2zm9.5-3.7-.6-1.6 5.5-2.2.6 1.6-5.5 2.2zm9.5-3.7-.6-1.6 5.5-2.2.6 1.6-5.5 2.2zm9.5-3.7-.6-1.6 5.5-2.2.6 1.6-5.5 2.2zm9.5-3.7-.6-1.6 5.5-2.2.6 1.6-5.5 2.2zm9.5-3.7-.6-1.6 5.5-2.2.6 1.6-5.5 2.2zM414 414.4l-.3-.8 4.7-1.9.3.8-4.7 1.9zm9.5-3.8-.3-.8 4.8-1.8.3.8-4.8 1.8zm9.5-3.7-.3-.8 4.7-1.9.3.8-4.7 1.9zm9.4-3.8-.3-.8 4.7-1.9.3.8-4.7 1.9zm9.5-3.8-.3-.8 4.7-1.9.3.8-4.7 1.9zm9.5-3.7-.3-.8 4.8-1.9.3.8-4.8 1.9zm9.5-3.8-.3-.8 4.7-1.9.3.8-4.7 1.9z"/><path d="m413.8 415-.6-1.6 5.5-2.2.6 1.6-5.5 2.2zm.5-1.1 4-1.6-4 1.6zm9-2.7-.6-1.6 5.5-2.2.6 1.6-5.5 2.2zm.5-1.1 4-1.6-4 1.6zm9-2.6-.6-1.6 5.5-2.2.6 1.6-5.5 2.2zm.4-1.1 4-1.6-4 1.6zm9-2.7-.6-1.6 5.5-2.2.6 1.6-5.5 2.2zm.5-1.1 4-1.6-4 1.6zm9-2.7-.6-1.6 5.5-2.2.6 1.6-5.5 2.2zm.5-1.1 4-1.6-4 1.6zm9-2.6-.6-1.6 5.5-2.2.6 1.6-5.5 2.2zm.5-1.1 4-1.6-4 1.6zm9-2.7-.6-1.6 5.5-2.2.6 1.6-5.5 2.2zm.4-1.1 4-1.6-4 1.6z"/></g><g opacity=".5" class="F"><path d="M248.7 118.9 476.5 189l6.5 199.5-65.8 25.7-170-8.1-83.6-231.2z"/><path d="M417.3 414.7h-.1l-170.4-8.1-.1-.3L163 174.7l85.7-56.3.2.1L477 188.6l6.5 200.2-66.2 25.9zm-169.8-9.1 169.6 8 65.3-25.5-6.4-198.7-227.2-69.9-84.7 55.6 83.4 230.5z"/></g><g class="D"><path d="M249.9 116.3l-57.9-9.9c-2.2.4-28.4 68.5-28.4 68.5s53.2 16.3 56.3 16.3 30-74.9 30-74.9z"/><path d="M219.9 191.7c-3.1 0-54.2-15.6-56.4-16.3-.1 0-.2-.1-.3-.3-.1-.1-.1-.3 0-.4.1-.2 6.6-17.2 13.4-34.1 13.8-34.4 14.9-34.6 15.4-34.7 2.2-.4 52.3 8.8 58.1 9.9.1 0 .3.1.3.2.1.1.1.3 0 .4-.1.2-6.8 19-13.9 37.5-14.4 37.8-15.9 37.8-16.6 37.8zm-55.7-17.1c15 4.6 52.6 15.9 55.6 16.1 2.6-1.8 18.9-44.9 29.4-74l-57-9.8c-2.2 2-17.8 41.3-28 67.7z"/></g><path d="M243.4 119.3s-24 63.5-27.4 63.5-47-11.7-47-11.7l25.8-59.4 48.6 7.6z" class="E"/><g class="D"><path d="M241.3 118.1l-6 15.6-12.1 29.8c-1.7 4-3.5 8.1-5.4 12-1 2-1.9 4.3-3.5 5.9 0 0 .1-.1-.1 0 .2-.1.2 0-.1 0s-.9-.1-1.4-.2h-.2l-.5-.2-1.2-.3-2.8-.6-14.9-3.7-24.9-6.6-.5-.1 3.4 2.6 8.7-20.1 13.9-31.9 3.2-7.3-.5.1 16.4 2.6 26.2 4.1 6 .9c1.1.2-.1-1.1-.3-1.3-.9-.8-1.9-1.3-3.1-1.5l-16.4-2.6-26.2-4.1-6-.9c-.2 0-.3 0-.5.1l-8.7 20.1-13.8 32-3.2 7.4c-.4 1 2.8 2.4 3.4 2.6l21.6 5.7 15.8 4c3.1.8 6.5 1.9 9.7 2.1 1.7.1 2.7-2.4 3.4-3.6 1.9-3.5 3.5-7.1 5.1-10.7 4.3-9.9 8.3-19.9 12.2-29.9l4.9-12.6c.8-2.2 1.8-4.3 2.5-6.5l.1-.3c.5-1.2-3.9-3.4-4.2-2.6z"/><path d="M193.6 147.6c.1-1.8.3-3.5.6-5.3.4-1.6 2.1-1.4 3.4-1.4s4.1.5 5.3-.7c.4-.6.7-1.2.8-1.9.3-.9.6-1.7 1-2.5.6-1.3 1.4-3.3 2.8-3.9s3.5.1 5 .3l5.7.8 2.9.4 1.5.2.7.1c.8.1.7.1-.3-.2l-1.2-1c.5.7-.4 2.7-.6 3.4l-1 3.2-2.3 6.8-1.4 3.6c-.3.7-.5 2-1.5 2.1-1 0-2-.2-3-.5l-3.5-.7-6.9-1.5-6.8-1.9c-1.1-.4-2.4 0-3.2.8s-1.5 1.7-2.2 2.6c-1.4 1.8-2.7 3.7-3.9 5.6-.8 1.3 3.8 3.1 4.8 1.5.9-1.5 1.9-2.9 3-4.3 1-1.4 2.1-2.7 3.3-3.8l-.8.3h.4l-1.8-.2 10.2 2.7 9.9 2a9.91 9.91 0 0 0 4.2 0c1.6-.5 2.1-1.7 2.6-3.1 1.3-3.2 2.5-6.4 3.5-9.7.5-1.6 1-3.2 1.4-4.8.4-1.4.9-3.2-.2-4.4s-3.1-1.2-4.7-1.5l-5.4-.8-4.9-.7c-1.8-.4-3.6-.5-5.4-.4-3.2.3-4.6 3.1-5.8 5.8-.4.8-.7 1.7-.9 2.5-.1.2-.2.5-.2.7-.2.2-.1.3.2.1h-1c-1.8-.1-3.5 0-5.3.2-1.4.1-2.6 1-3.1 2.3-.3 1.8-.6 3.6-.6 5.4-.3 2.2 4.5 3.4 4.7 1.8z"/><path d="M206 161.1l2-9.7c.4-1.9-4.5-1.2-4.8.5l-2 9.7c-.4 2 4.5 1.2 4.8-.5zm6.1-7.1a53.61 53.61 0 0 1 1.5 7.8c.1.5.5 1 1 1.2.6.3 1.2.3 1.9.2 1.2-.2 2.1-1.3 2-2.5-.3-2.6-.8-5.3-1.5-7.8a2.5 2.5 0 0 0-2.9-1.4c-1 .3-2.3 1.3-2 2.5zm-18.1-8.2l6.6 1.4c1 .3 2.1.4 3.1.3 1.4-.2 2.6-.8 3.5-1.9.6-.8.9-1.7 1.5-2.5.1-.1.2-.3.3-.4-1.4.3-1.7.4-.9.6.5.2 1 .4 1.5.5l6.4 2.1c1.2.2 2.4-.1 3.3-.9.6-.4 1.4-1.3.3-1.7l-4.9-1.6a19.1 19.1 0 0 0-4.7-1.2c-1.9 0-3.6.7-5 2-.5.4-.9 1-1.2 1.5a4.67 4.67 0 0 0-.5 1l-.3.5c-.4.5-.2.4.4-.2l1.8-.6c-.5-.1-1.1-.2-1.6-.4l-2.1-.4-4.1-.9c-1.2-.2-2.4.2-3.3.9-.3.6-1.3 1.7-.1 1.9z"/></g><path d="M154.6 158.8c2.2-7.9 13-33.3 18.4-33.3 10.1 0 0 19 0 19s6.7 13-.3 20.6-9.2 7.9-9.2 7.9-9.6-11.6-8.9-14.2z" class="E"/><path d="M156.8 158.5c2.1-6.9 4.8-13.5 8.2-19.9 1.5-3.3 3.4-6.4 5.5-9.4.2-.3.4-.6.6-.8.1-.1.7-.8.4-.5l.6-.6.2-.2c.4-.4-.1.2.1-.1l.2-.2c.4-.2-.6.3-.1.1.2-.1.3-.1-.3.1.2 0 .6-.1-.2 0 .2 0 0 .1-.2 0h.7c.3 0 .6.1.9.2 2 .8 2 3.9 1.7 6-.6 2.9-1.5 5.8-2.8 8.4-.5 1.1-1.8 2.8-1.4 4 1.2 2.7 2 5.5 2.5 8.4.4 2.3.2 4.7-.5 6.9-.9 2.8-3.1 4.8-5.1 6.8-.8.8-1.6 1.5-2.5 2.2l-.5.4c-.6.4.4-.3-.1.1-.3.2-.5.4-.8.6s-1 .4-.1.1c-.1 0-.3.1-.4.2-.4.2.8-.2.3-.1s.7-.1.5-.1l1.4.2c-.1-.1-.1-.2.1.1-.1-.1-.2-.2-.3-.4l-1.1-1.3c-1.1-1.4-2.2-2.8-3.2-4.2-1.1-1.5-2.1-3-3-4.6-.5-1-1.3-2.2-1.1-3.1.2-1.1-1.8-.9-2.3-.8-1.1.2-2 1.1-2.4 2.1-.3 1.3.7 2.9 1.3 3.9 1.1 1.8 2.2 3.6 3.5 5.3 1.1 1.5 2.2 2.9 3.3 4.3.9 1.1 1.4 1.9 3.1 1.5 2.7-.8 5.1-3.1 7.1-5 2.3-2.2 4.8-4.5 6.3-7.4 1.1-2.4 1.6-5.1 1.4-7.7-.2-3.8-1.2-7.5-2.9-10.9v.8c1.4-2.7 2.6-5.5 3.5-8.4 1-3.2 2.5-9-1.2-11.1-4.3-2.5-8.5 1-11 4.4-3.2 4.5-5.8 9.4-8 14.5-2.4 5-4.5 10.2-6.1 15.6-.9 2.5 3.8 1.2 4.2-.4z" class="D"/><path d="M112.1 181.9c1-1.3 26.3-30.1 43.1-24.7s22.5 34.2.3 52.6-39.3 3.5-39.3 3.5l-4.1-31.4z" class="E"/><path d="M114.2 183a41.81 41.81 0 0 1 5-5.3c3.4-3.5 7.1-6.8 11-9.8 4.2-3.4 8.9-6.1 13.9-8.2 2.1-.8 4.3-1.3 6.6-1.4h.6c.3 0 .5 0 .8.1s.5.1.8.1c.1 0 .5.1 0 0l.4.1c1 .2 2 .6 3 1.1 2 1 3.8 2.3 5.2 4 1.5 1.7 2.8 3.7 3.7 5.8 2.1 4.9 2.8 10.3 2 15.6-.9 6.2-3.3 12-7.2 16.9-4.8 6.2-11.2 11-18.6 13.8-1.5.5-2.9.9-4.5 1.2-1.4.2-2.8.3-4.1.4-2.4 0-4.8-.3-7.1-1.1-.5-.2-1-.3-1.5-.5-.1 0-.8-.3-.3-.1l-.7-.3-2.4-1.2c-.3-.2-.6-.3-.9-.5l-.6-.4c.3.2-.3-.2-.4-.3s-.3-.2-.5-.4l-.3-.3.6.9-3.6-27.5-.5-3.9c-.3-2.2-5.2-2-4.9.6l3.9 29.6c.2 1.1.1 2 1 2.8 1.4 1.1 2.9 2 4.5 2.8 6.8 3.4 14.5 4.2 21.8 2.4 10.2-2.5 19.5-9.9 25.4-18.5 4.8-7 6.9-15.5 6.1-24-.8-7-4.1-14-9.8-18.3-2.8-2.2-6.2-3.6-9.8-4.1-3.6-.3-7.1.1-10.5 1.4-7.4 2.5-13.9 7.3-19.8 12.3-4.2 3.5-8.1 7.3-11.7 11.4-.3.3-.5.6-.8.9-1.7 2 2.8 3.7 4.2 1.9zm26.1-.5c-.3-2.7-.2-5.4.3-8.1.3-1.3.8-2.5 1.6-3.6.4-.5.8-1 1.4-1.3.1-.1 1.2-.4 1.2-.4s-.2-.2-.3-.2c-.1-.2-.2-.2-.1 0 .1.1.1.3.1.5 0 .7-.1 1.3-.4 1.9-.4 1.1-1 2.2-1.7 3.1a13.61 13.61 0 0 1-5.9 4.7l3.7 3c1.2-1.6 2.8-2.8 4.7-3.5.8-.3 1.6-.5 2.5-.5.5-.1 1-.1 1.5.1.2.1.1-.1.1.2.2 1.7-2.3 3-3.6 3.4-1.7.6-3.5.6-5.1-.1-.8-.3-3-.2-2.4 1.3.5 1.4.9 2.8 1.1 4.2.2 1 .6 2.7-.2 3.5s-2.1.9-3.1.9c-1.3.1-2.6-.1-3.8-.6l-.6-.2c-.1-.2.1-.1.5.4v-.2c.1-.5.2-1.1.2-1.6.3-1.1.7-2.1 1.3-3a10.07 10.07 0 0 1 5-4.1c2.4-.9-1.2-4.2-3-3.5-3.1 1.2-5.6 3.5-7 6.4-.7 1.4-1.1 3-1.1 4.5 0 2.2 1.7 3.6 3.6 4.3 3.2 1.3 8.1 2.1 11.2.2 1.6-1 1.9-2.6 1.8-4.3-.1-2.1-.6-4.2-1.4-6.2L140 185a11.95 11.95 0 0 0 9.1 0c2.8-1.2 5.8-3.8 4-7.1s-6.3-4-9.7-3.2c-3 .7-5.7 2.5-7.5 5-.5.7.4 1.8.9 2.2.8.7 1.8 1 2.8.8 3.3-1.4 6.1-3.8 7.9-6.9.9-1.5 1.4-3.1 1.6-4.8 0-2-1.2-3.9-3.1-4.7-3.7-1.9-7.3.1-9 3.6s-1.6 7.4-1.3 11.1c.2 1.2 1 2.1 2.1 2.4.7.2 2.6.4 2.5-.9z" class="D"/><path d="m116 406.6 10.6.6s28.6 8.2 25.7 14.1-18.6 8.3-39.3 7.3-28-7.8-20.3-22.5l23.3.5z" class="E"/><path d="M116.7 408.9l9.3.5c.4.1.8.1 1.2.1-.2 0-.5-.1-.1 0l2.7.8c6.7 2.1 13.8 4.3 19.6 8.4.5.4-.3-.3.1.1l.4.3c.2.2.5.4.7.6s-.3-.4 0 0c.1.1.2.2.2.3.4.3-.3-.5-.1-.1.3.6-.1-.5 0-.1v-.4c-.1.4.3-.3-.1.2-.2.3.2-.3-.1.1l-.3.4c-.2.3-.5.6-.8.9-2.6 2.5-7.3 3.5-10.8 4.1-6.3 1-12.6 1.5-19 1.3-6.3 0-12.7-.2-18.8-1.7-2.3-.5-4.4-1.4-6.4-2.6-.3-.2-.6-.4-.9-.7-.2-.1-.3-.3-.4-.4l-.3-.3c-.1-.1-.2-.3-.4-.5-.1-.1-.5-.8-.2-.2a4.67 4.67 0 0 1-.5-1c.3.6 0 0 0-.1s-.2-.5-.2-.7c.1.6 0-.1 0-.2 0-.3-.1-.5-.1-.8v-1.1c0-.5.1-1.1.2-1.6.6-2.4 1.5-4.8 2.7-7l-.9.8 20.5.4 2.9.1c2.2 0 .5-4.6-1.5-4.7l-20.5-.4-2.9-.1c-.5 0-.8.4-.9.8-2.1 4.1-3.8 8.8-2.8 13.5 1 4.2 4 7.6 7.9 9.4 5.2 2.5 11.1 3.1 16.8 3.5 7.5.5 15 .4 22.5-.4 4.9-.5 10.5-1.3 14.8-3.9 1.5-.8 2.8-2.1 3.6-3.6.6-1.5.4-3.2-.5-4.6-1.8-3.2-5.7-5.2-8.9-6.7-3.9-1.8-7.9-3.4-11.9-4.7-2.1-.8-4.2-1.5-6.3-2-1.3-.2-2.5-.3-3.8-.2l-6-.4-1.2-.1c-1.2-.1-1.1 1.7-.9 2.4.5 1.2 1.4 2 2.4 2.3z" class="D"/><use xlink:href="#B" class="E"/><path d="M123.7 370.6c-1.1 3.5-2.1 7.1-3.1 10.6-1.7 5.6-3 11.3-4 17-.3 1.8-.5 3.8.6 5.3 1.4 1.8 3.8 2.9 5.8 3.8 2.6 1.2 5.3 2.3 8 3.4.4.1 5.7 2.5 5.7 2.5s-.6-.5-.3-.2l-.1-.1c-.7-.8-1.4-2 .1-3 .1-.1.5-.1.4-.2s-.5.1-.6.1c-.7.2-1.3.5-2 .8l-.5.2c-.3.1.5-.2.1 0l-.3.1-1.3.5c-1.1.4-2.3.7-3.4 1-8.2 1.9-17.2 1-25.4-.4-1.5-.2-3-.6-4.5-1-.3-.1-.6-.2-.8-.3-.6-.2.3.2-.3-.1l-1.2-.6c-.4-.2.5.4 0 0a1.38 1.38 0 0 0-.4-.3c-.3-.2.5.5.1.1-.1-.1-.2-.3-.3-.4.5.5.2.4.1.1 0-.1-.1-.2-.2-.4s-.1-.2-.1-.3.2.6 0 0c-.3-1.1-.5-2.2-.7-3.4 0-.4-.1-.9-.1-1.3v-.6c0-.4 0 0 0 0v-.5c-.1-1.2-.1-2.5-.2-3.7-.4-10.4-.4-20.7-.5-31.1v-.7l-1.9 1.6 29.6 4.2 4.3.6c1 .1 1.8-.7 1.9-1.7v-.5c-.3-1.3-1.4-2.2-2.7-2.3l-29.7-4.2-4.3-.6c-1-.1-1.8.6-1.9 1.6l.4 28.6.4 8.2c0 1.5.2 2.9.5 4.4s.8 2.9 1.7 4.2c1.4 1.7 3.2 2.9 5.3 3.4 3.7 1.1 7.4 1.7 11.2 2 5 .7 10.1.8 15.1.5 3.2-.2 6.3-.8 9.3-1.7 1-.3 2.1-.7 3.1-1.1l1-.4c-.6.2.1-.1.4-.2.7-.2 1.4-.2 1.9-.8 1-1.2.1-2.8-.9-3.6-1.7-1.3-4.1-2-6.1-2.8-2.8-1.1-5.6-2.2-8.2-3.5a26.85 26.85 0 0 1-3.3-1.8c-.6-.3.2.2-.1 0-.2-.1-.3-.3-.5-.4-.3-.2.4.5.1.1-.2-.2.4.9.3.6v-.4c.1 0 0 .6 0 .1s0-.9.1-1.3c.1-1.1.3-2.2.6-3.3.6-2.8 1.2-5.5 2-8.5 1.3-5 2.7-10 4.2-14.9.1-.3.2-.6.2-.8.3-1.2-.3-2.5-1.4-3.1-1.2-.3-2.8-.3-3.2.9z" class="D"/><path d="m95.5 409.2 10.6.6s28.6 8.2 25.7 14.1-18.6 8.3-39.3 7.3-28-7.8-20.3-22.5l23.3.5z" class="E"/><path d="M94.9 410l9.2.5c.4 0 .8.1 1.3.1-1.2 0-1.4-.2-.7 0l2.8.9c3.3 1.1 6.6 2.2 9.8 3.5 3.5 1.2 6.8 2.9 9.8 5 .9.6 1.7 1.5 2.2 2.5.4 1.1-.2 1.9-.9 2.7-2.4 2.7-6.8 3.6-10.2 4.2-6.2 1-12.4 1.4-18.6 1.2-6.1-.1-12.4-.2-18.3-1.9-3.7-1-7.7-3-9.1-6.9-1.6-4.4.4-9.2 2.4-13l-3 .7 20.4.5h2.9c.7.1 2.6.1 3-.7s-1.5-.9-1.8-.9l-20.4-.4-2.9-.1c-.7 0-2.6 0-3 .7-1.9 3.7-3.8 8.3-2.8 12.5.9 3.8 4 6.2 7.5 7.6 5.4 2.3 11.6 2.9 17.5 3.2 7.7.4 15.4.3 23-.5 5.2-.6 10.8-1.5 15.4-4 2.1-1.2 5.2-3.5 3.6-6.2-.9-1.2-1.9-2.1-3.2-2.9-1.6-1.1-3.4-2-5.1-2.8-3.9-1.8-7.8-3.3-11.8-4.6-2-.7-3.9-1.4-6-1.9-1.5-.2-3-.4-4.6-.4l-6-.4-1.1-.1c-.7 0-2.6 0-3 .7s1.4 1.2 1.7 1.2z" class="D"/><use xlink:href="#B" x="-20.5" y="2.6" class="E"/><path d="M103.3 375.5l-3.1 10.7a122.42 122.42 0 0 0-3.9 16.7c-.2 1.2-.6 2.8.4 3.7 1.5 1.5 4 2.4 5.9 3.3 4.2 1.9 8.8 3.1 12.7 5.6h.1c-1.6-.9 5.3-2.7 3.5-2.2-.3.1-.7.2-1 .3-.6.2-1.2.5-1.8.7-2 .8-4 1.4-6.1 1.9-4 .7-8 1-12 .8-4.9-.2-9.7-.7-14.5-1.6-3.4-.6-7.4-1.4-8.5-5.1-.9-3.2-.9-6.6-1.1-9.9-.4-10.4-.5-20.9-.5-31.3v-.7l-4.2 2.6 29.7 4.2 4.3.6c.8.1 2.1-.9 2.8-1.3.2-.1 1.7-1.3 1.2-1.3L77.5 369l-4.3-.6c-.7-.1-2 .8-2.5 1.1-.4.3-1.7.9-1.7 1.5l.4 28.6.3 7.8c0 1.4.2 2.9.5 4.3.2 1.1.6 2.2 1.3 3.2 1.1 1.4 3 2 4.7 2.5 4.1 1 8.2 1.6 12.4 1.9 4.7.5 9.5.6 14.2.1 2.9-.3 5.7-1 8.4-1.9l2.4-.9.9-.4.4-.1c-.5.2-.1 0 .1 0 .3 0-.2.1.2 0 .2 0 .5-.1.7-.2 1.3-.4 2.5-1.1 3.4-2.1.4-.5 0-.7-.4-1-2-1-4.1-2-6.3-2.7-2.7-1.1-5.5-2.2-8.2-3.5-1.2-.6-3.7-1.5-4.1-3-.4-1.7.3-3.9.6-5.5.6-3 1.3-5.9 2.1-8.8 1.3-5 2.7-9.9 4.2-14.9.1-.3.2-.6.2-.8.2-.5-1.6.4-1.8.4-.4.1-2 .8-2.3 1.5z" class="D"/><path d="M100.8 122.1c9.9-4.8 17.2-13.6 20-24.2l1.1-4c4.4 8.2 7.2 14.6 9.7 19.2 1.9 3.6 5.9 4.5 8.5 4.8 11.1 1.5 13.3 4.7 9.8 6.7-4 2.3-14.5 3.8-14.5 3.8s5.4 16.6-11.8 26c-8.7 4.8-9.2 6.6-8 9.5s2.7 27.6 2.7 27.6.8-13.3-13.5-13.8c-15.9-.6-16.3-13.4-16.3-13.4s3.7-1.1 4.3-4.1c.3-3.1.4-6.2.2-9.3 0 0 15 .9 6.8-28.9" class="E"/><g class="D"><path d="M101.6 123.6c6.7-3.2 12.4-8.2 16.4-14.4 3.2-4.8 4.8-10.1 6.2-15.6l-4.5 1.5c2.7 5.1 5.2 10.3 7.7 15.4 1 2 1.9 4.2 3.5 5.8 1.6 1.5 3.7 2.6 5.9 3 3.8.9 8.8.8 11.9 3.4.4.3 0-.1.3.3.1.1.1.2.1.3-.2-.4-.1-.2-.1-.1.2-.4-.4.4.2-.3-.3.4.2-.1.1 0-.7.4.3-.1-.2.2l-.5.2s-.6.3-.3.2c-.6.2-1.8.7-2.7.9-3.2.9-6.6 1.6-9.9 2.1-.9.1-3.1 1.3-2.7 2.7a20.8 20.8 0 0 1 .6 8.6c-.9 6.3-4.7 11.9-10.4 14.9-3.2 1.8-7.1 3.6-9.3 6.7-1.4 2-1.3 3.7-.6 5.9-.2-.7 0 .2.1.4.1.4.2.8.2 1.2.2 1.1.3 2.1.4 3.2l.8 8.6c.4 4.5.7 9.1 1 13.6.2 2.3 4.5.7 4.6-1.1.3-5.1-2-10.5-6.5-13.1-2-1.2-4.3-1.9-6.6-2.1-2.7-.3-5.2-.3-7.8-1.2a13.51 13.51 0 0 1-7.5-6.4c-.6-1-1-2.1-1.2-3.3-.1-.5-.2-1.1-.2-1.6l-2.1 2.5c3.2-1 6.1-3.5 6.5-6.9.3-3 .4-6 .2-9l-3.3 2.7c2.5 0 4.9-.8 6.9-2.2 4.2-3 5.5-8.4 5.7-13.3 0-5.4-.9-10.8-2.4-16-.7-2.4-5.2-.5-4.6 1.6 1.3 4.5 2.1 9.2 2.4 13.8.2 2.7-.2 5.4-1 8 .2-.4-.2.4-.2.5l-.3.6-.4.7c-.1.1-.1.2-.2.2-.3.4.3-.4 0 0s-.5.6-.7.9c-.4.5.4-.3-.1.1l-.4.4c-.1.1-.3.2-.4.3.1-.1.5-.3.1 0-.3.1-.6.3-.9.5.7-.4.2-.1-.2.1-.2.1-1 .3-.4.1s-.2 0-.4.1l-.5.1c-.5.1.7 0 .1 0-1.5-.1-3.4 1.1-3.3 2.7.1 2.3.1 4.7 0 7-.1 1.2-.2 2.4-.9 3.1-.1.1-.3.2-.4.3.2-.1.2-.1-.1 0-.2.1-.5.3-.8.4.7-.3-.1 0-.3.1-1.2.3-2 1.3-2.1 2.5.4 4.9 3.2 9.4 7.4 11.8 2.1 1.2 4.3 1.9 6.7 2.3 2.6.4 5.2.2 7.7 1 3.3.9 5.9 3.3 7.1 6.5a11.8 11.8 0 0 1 .9 3.7c0 .4.1.9.1 1.3v.1l4.6-1.1c-.2-3.8-.5-7.6-.8-11.4-.4-5.1-.6-10.3-1.6-15.3-.1-.3-.1-.5-.2-.8s-.2-.5-.2-.8c0-.1-.1-.3 0 0 0-.1-.1-.2-.1-.4l-.1-.6v-.2c0-.2.1-.4.1-.5s.1-.3 0 .1c.1-.1.1-.3.2-.4s.2-.3 0 .1c.1-.1.1-.2.2-.3s.6-.6.2-.3l1.8-1.5c1.7-1.2 3.8-2.2 5.6-3.3 6.2-3.7 11.1-9.4 12.6-16.7.8-3.6.7-7.4-.4-11l-2.7 2.7c3.4-.5 6.7-1.2 9.9-2.1 2.8-.8 8.9-2.3 8.8-6.2-.1-3.5-5.8-4.7-8.3-5.2-2.4-.5-5-.6-7.3-1.4s-3.8-2.5-4.9-4.7l-9-18c-1-1.9-4.1.1-4.5 1.5-1.3 4.9-2.7 9.7-5.4 14-3.5 5.4-8.4 9.7-14.2 12.5-.9.4-1.9 1.7-1.4 2.7s2.2.6 3 .2l-.3-.1z"/><path d="M124.2 113.1c-1 .3-1.5 1.4-1.2 2.4 0 .1.1.2.1.3.9 1.9 3.2.8 2.9-1.1 0-.9-.7-1.6-1.6-1.6h-.2zM121.6 131.8c1.8 3.5 5.1 5.9 9 6.7 1.7.2 3.5 0 5.1-.6.9-.3 1.4-1.2 1.1-2.1-.3-.8-1.2-1.8-2.1-1.4-.7.3-1.4.5-2.1.6h-1.7l-.4-.1h-.2.1c-.3-.1-.6-.2-.9-.2-.2-.1-.5-.2-.7-.3-.4-.2.2.1-.1 0l-.4-.2c-.4-.3-.9-.5-1.3-.9-.4-.3.2.2 0 0l-.2-.2-.5-.5c-.3-.3-.6-.6-.8-.9-.1-.1-.2-.3-.3-.4.5.5.1.1 0-.1s-.4-.6-.6-.9c-.3-.8-1.3-1.3-2.1-.9s-1.3 1.3-.9 2.1c-.1.1 0 .3 0 .3z"/></g><path d="M121.9 177.1s64.3 181.4 59.6 193.2-127 32.9-165.9-40c0 0 61.2-175.2 76.5-175.2s29.8 22 29.8 22z" class="E"/><g class="D"><path d="M119.5 177.3l4.9 14 12 34.8 15.3 45.5 14.7 46.1c3.7 12.1 7.4 24.2 10.3 36.5 1 3.8 1.7 7.6 2.3 11.5 0 .3.1.6.1.9.1.6 0-.1 0 0v2.6c0 .7.2-.4 0 0-.1.1-.1.3-.2.4 0 .2.4-.5.1-.2-.1.1-.1.2-.2.3l-.5.5s.5-.4.1-.1l-.4.3c-.5.4-1.1.7-1.6 1.1l-.5.3-.2.1c-.4.2.5-.3.2-.1l-1.1.5c-.9.4-1.8.8-2.7 1.1a83.93 83.93 0 0 1-6.6 2.1l-3.8.9-.6.1-1 .2-2.1.4c-6.6 1.3-13.3 2.1-20 2.6-3.8.3-7.6.4-11.4.5-4.1.1-7.5 0-11.4-.2-17.1-.8-33.8-3.7-49.5-9.8-7.9-3-15.3-7-22.2-11.8-7.1-5-13.4-11.1-18.6-18-2.6-3.4-4.9-7.1-6.9-10.9l.1 1.7 2.1-6 5.8-16.1 8.5-23.3 10.4-27.7 11.4-29 11.5-27.6a495.39 495.39 0 0 1 10.8-23.4c1.5-3.1 3.1-6.1 4.8-9.1l.6-1c.2-.3-.2.4.1-.1l.3-.5c.4-.6.7-1.2 1.1-1.8l2.1-3.2a42.82 42.82 0 0 1 1.9-2.6c.3-.4.6-.7.9-1l.4-.4c.2-.2.7-.6.1-.1.3-.2.5-.4.8-.7s.6-.3.7-.5c-.3.5-.6.2-.1.1.1 0 .2-.1.4-.1 0 0-.7 0-.2.1h.7c5.7.4 10.9 3.9 15.2 7.7a69.26 69.26 0 0 1 10.2 11.4c.2.3.4.5.6.8.3.5-.2-.3 0 0l.2.3.4.6c.7 1.1 2 1.7 3.3 1.3 1-.4 1.6-1.5 1.2-2.6 0-.1-.1-.2-.1-.3-2.7-4.1-5.9-7.9-9.3-11.4-5.7-5.7-13-11.5-21.4-12.1-1.5-.2-3 .1-4.4.8-.9.6-1.8 1.3-2.5 2.1a43.97 43.97 0 0 0-5.1 6.9c-4.9 8.2-9.3 16.6-13.1 25.4-5.2 11.4-10.1 23-14.9 34.6l-14.9 37.8-12.9 34.7-9.1 25.1-2.5 7c-.2.6-.4 1.1-.6 1.7 0 .1-.1.2-.1.4-.3 1.1.2 2 .7 2.9 7.3 13 17.7 24.1 30.3 32.1 12.3 7.9 26.1 13 40.3 16.2a189.55 189.55 0 0 0 41.2 4.2c11.6 0 23.2-1.1 34.5-3.4 4.3-.8 8.5-1.9 12.7-3.3 2.8-.9 5.6-2.1 8.1-3.8 1.7-1 2.8-2.8 3-4.7.1-2.3-.1-4.6-.6-6.9-1.5-8.1-3.5-16.1-5.9-23.9-3.2-11.5-6.8-23-10.4-34.4l-12.6-38.7L142 228l-10.6-30.6-6.3-17.9-.8-2.4c-.4-1.3-1.6-2.1-2.9-2-1.1-.1-2.3 1-1.9 2.2z"/><path d="M121.9 93.8s-6.5-23.1-38.6-15.3-46 59.3-36.3 72.6c4 5.5-19 18.4-5.4 39.8s68.6 3.2 46.8-26.6c0 0 16.2 1.1 7.9-15 0 0 17.2-2.4 8.3-17.2 0 0 11.3-5.4 4.8-14.3 0 0 13-6.2 12.5-24z"/><path d="M62 200.8c-9.4 0-16.9-3.4-20.8-9.6-9.2-14.3-2.1-25 2.5-32 2.3-3.4 4-6.2 2.9-7.8-4.7-6.4-4.1-21.2 1.4-36.2C55.1 95.5 68.3 81.6 83.1 78c32.2-7.8 39.2 15.4 39.2 15.7v.1c.3 9.3-3.2 15.4-6.1 18.9-1.7 2.1-3.8 3.8-6.1 5.2 1.5 2 2.1 4.6 1.6 7.1-1 4-5 6.4-6.4 7.2 2.5 4.3 3 8 1.6 11.1-2.1 4.4-7.9 5.9-9.8 6.4 2.4 4.9 2.8 8.7 1 11.4-2.1 3.2-6.7 3.7-8.7 3.8 4.8 7 5.9 14 3 20.2-3.9 8.4-15.3 14.9-27.7 15.7-1-.1-1.9 0-2.7 0zM95.7 77.4c-4.2 0-8.3.6-12.3 1.6-14.5 3.5-27.4 17.1-34.5 36.5-5.4 14.7-6 29.2-1.5 35.3 1.6 2.2-.4 5.1-2.8 8.9-4.5 6.8-11.3 17.2-2.5 31 4 6.3 12.5 9.7 22.6 9 12-.8 23.1-7 26.9-15.1 2.8-6.1 1.7-13-3.4-20-.1-.2-.1-.4 0-.5.1-.2.3-.3.5-.3.1 0 6.5.4 8.8-3.3 1.6-2.4 1.1-6.1-1.4-11-.1-.2 0-.5.2-.7.1 0 .1 0 .2-.1.1 0 7.4-1.1 9.8-5.9 1.3-2.8.7-6.4-1.8-10.6-.1-.1-.1-.3 0-.4 0-.1.1-.2.3-.3 0 0 5.2-2.5 6.3-6.8.5-2.2 0-4.4-1.7-6.7-.1-.1-.1-.3-.1-.4 0-.1.1-.3.3-.3 2.4-1.3 4.6-3.1 6.3-5.2 2.8-3.4 6.1-9.2 5.9-18.2-.8-1.3-5.8-16.5-26.1-16.5z"/></g><path d="M156.5 201.2s10.5-28.6 22.1-41.2 26.8-14.2 31.3-10.6 1.8 9-4.5 9.8-13.2 6.1-13.2 6.1 4.2.6 7.3 7.1 3.2 18.2-4.7 17.6c-.8 3.5-3.2 6.4-6.4 7.9-5.5 2.4-7.1.6-7.1.6l-2.7 14.4-22.1-11.7z" class="E"/><path d="M158.3 203c1.5-4 3.1-7.9 4.9-11.8 3.3-7.7 7.2-15.1 11.7-22.2 5-7.6 11.5-14.1 20.1-17.4 3.5-1.5 7.2-2.2 11-2.1 1.3 0 2.6.3 3.9.7.4.1 1 .5 1.2.6-1-.4-1.4-1.9-.9-.8.2.4.3.9.4 1.3 0 1.9-1 3.7-2.7 4.7-2.2 1.4-4.9 1.4-7.3 2.2-3.6 1.2-7 3-10 5.4-.4.3 2.8 3.5 3.4 3.6.4.1.8.2 1.1.4.4.2.7.4 1.1.6.1.1.8.6.1 0-.6-.5 0 0 .1.1 1.8 2.6 2.9 5.5 3.2 8.7.6 4.5-.2 11.7-6.3 11.3h-.3c-.5 2.4-1.9 4.6-3.8 6.2-1.8 1.5-4 2.4-6.3 2.8-.7.1-1.5.1-2.2 0-.2 0-.4-.2-.6-.2s-.1 0 0 0c-.1-.1-.1-.1 0 0 .7.5 1.3 1 1.8 1.6-.8-.7-1.6-1.4-2.5-2l-2.7 14.4.4.1-19.3-10.2-2.7-1.4c-.9-.5.2.8.3 1 .7.9 1.5 1.7 2.5 2.4l19.2 10.3 2.7 1.4c.1.1.2.1.4.1l2.8-14.4-2.5-2c1 1.1 2.1 2.3 3.6 2.6 2.3.4 5-.6 6.9-1.7 2-1.1 3.6-2.8 4.6-4.9.3-.6.5-1.2.7-1.9.2-.6 0-.6.6-.6 9.3-.5 6.2-14.6 3.2-19.7-1.7-2.7-3.9-5.1-6.5-7-.9-.7-2-1.3-3.1-1.6l3.4 3.6c2.7-2.1 5.7-3.8 8.9-5 3.7-1.4 9.6-1.1 10.9-5.8.5-1.9-.4-3.7-1.6-5.1-1.3-1.8-3-3.2-5-4.2-2.7-1.2-6-1.1-8.9-.7-19.3 2.8-29.5 21.5-36.9 37.4-2.4 5.2-4.7 10.4-6.6 15.8-.2.5 1.2 1.7 1.5 2 .2 0 2 1.6 2.1 1.4z" class="D"/><path d="M191.6 176.4c3.1 3.8 4.2 8.8 3.1 13.6" class="E"/><path d="M189.7 176.6c.2.2-.4-.5 0 0 .1.1.3.4.4.6s.5.7.7 1.1.3.5.4.8.1.2.2.4.1.2 0 0l.1.2c1.2 3 1.6 6.4.9 9.6-.2 1 1.3 1.6 2 1.9.5.1 2.6.7 2.7-.2 1-5 0-10.7-3.6-14.6-.9-.8-2.1-1.3-3.3-1.2-1-.1-1.2.6-.5 1.4z" class="D"/><path d="M181.2 198.6s-9.7-1.6-6-9.2c2.6-5.3 9.5.4 9.5.4" class="E"/><path d="M182.8 197.5c-.2 0-.4-.1-.7-.1l-.3-.1c-.1 0-.6-.2-.2-.1s-.1 0-.2-.1l-.5-.2c-.3-.1-.7-.3-1-.4l-.5-.2-.2-.1c-.1 0-.4-.2-.2-.1l-.1-.1-.2-.2c-.2-.1-.3-.3-.5-.4-.3-.3-.5-.6-.8-.9-.1-.1-.1-.2-.2-.2l-.1-.1s.1.2.1.1l-.3-.6c-.1-.4-.2-.8-.2-1.2v-.9c0-.1 0-.3.1-.4.1-.6.3-1.2.6-1.7.1-.3.3-.5.4-.8.1-.2-.1.2 0 0l.1-.2.3-.3.1-.1c.1-.2-.3.2-.1.1s.5-.3.1-.1 0 0 .1 0c-.5.3-.5.2-.3.1s.4-.1-.1 0-.1 0 0 0c-.8.2-.5.1-.2 0-.7.1-.4 0-.2 0h.3-.3c.2.1.5.1.7.1l.3.1c.2.1-.4-.1-.1-.1l.2.1c.9.4 1.8.8 2.7 1.4.2.1-.1-.1-.1-.1l.1.1.2.2.4.3.3.2c.8.7 2.2.4 3.2.1.4-.1 2.3-.9 1.5-1.6-1.1-.9-2.4-1.7-3.8-2.3s-2.9-.8-4.4-.8c-1.9.1-3.6.8-5 2-.9 1-1.6 2.3-1.8 3.6-.3 1-.2 2.1.2 3.1.8 1.7 2.2 3 3.9 3.7 1.1.5 2.3.9 3.5 1.1a5.37 5.37 0 0 0 3.5-.6c.3-.2.7-.5.6-.9s-.5-.4-.9-.4z" class="D"/><path d="M83.9 237s35 50.7 66.6 40 33.3-59.1 33.3-68.3-21.6-28.3-34.1-21.6-16.7 20.8-16.7 20.8l-16.7-20.8" class="E"/><g class="D"><path d="M81.5 237.2c2.2 3.1 4.5 6.1 7 9 5.4 6.5 11.3 12.4 17.7 17.8 7.2 6 15.3 11.2 24.5 13.8 9.3 2.7 19.3 1.7 27.8-2.9 7.9-4.4 13.8-11.5 17.9-19.5 3.9-7.8 6.6-16.2 8-24.9 1.1-6.3 1.8-12.7 2-19.2.2-2.4-.2-4.8-1.2-7-2-3.9-4.8-7.3-8.2-10.1-7.1-6.2-17.6-11.8-27.3-8.6-5.1 1.7-9.5 5.8-12.7 10-2.4 3.2-4.4 6.7-5.9 10.4-.2.6-.4 1.1-.6 1.7l4.9-.1-14.6-18.2-2.1-2.6c-.6-.8-2.2-.7-3.1-.6-.3 0-2.3.3-1.8 1l14.6 18.2 2 2.5c.7.9 4.5 1.2 4.9-.1 2.1-6.7 6.1-12.6 11.5-17.1 1.9-1.7 4-3 6.4-3.9.7-.2 1.5-.4 2.2-.4-.6 0 1 .1.4 0 .6 0 1.1.1 1.5.2 4.4.8 8.4 3.2 11.9 5.8 3.6 2.6 6.7 5.8 9.3 9.5 1.6 2.2 2.5 4.9 2.6 7.7-.1 5.5-.5 11.1-1.3 16.5-2.3 16-7.6 33.6-20.6 44.2-3.4 2.8-7.2 4.8-11.4 6.2-1.8.6-3.7.9-5.6 1H139.2c-.2 0-.4 0-.6-.1-.6-.1-1.2-.1-1.8-.2-8.1-1.3-16.1-6.1-22.8-11.1-10.5-8.2-19.8-17.8-27.5-28.8-.1-.2-.3-.4-.4-.6-.5-.8-2.3-.7-3.1-.6-.1 0-2 .3-1.5 1.1zM47.8 318.1c-1.5-3.6-3-7.3-3.4-11.2-.2-1.8 0-3.6.4-5.4.3-.9.6-1.8 1.2-2.6l.6-.8c0-.3-.2 0-.2 0s.6.5.7.6c.2.3.4.6.5.9.3.8.5 1.7.6 2.5.3 1.6.4 3.3.5 4.9.2 3.1-.2 6.5-2.4 8.8l4.3 1.3c1.2-2.9 3-5.5 5.4-7.6.9-1 2.1-1.7 3.3-2.1.2 0 0-.1.4 0 .3.1.5.3.7.6.5.6.9 1.3 1.1 2 1.1 3 .4 5.9-2.3 7.7-1.3.8-2.8 1.3-4.4 1.5-.8.2-1.6.3-2.5.4-.3 0-.6 0-.9.1-.2 0-.1 0 .1.1-.1-.2-.2-.1-.2.2l-4.4-.4c1.2 3.1 2.1 6.4 2.6 9.7.1.7.2 1.4.1 2.1-.1.6-.3 1.3-.7 1.9l-.2.2c.5 0 .7 0 .4-.1-.1 0-.2-.1-.3-.1-.4-.4-1-.7-1.4-1.2-3-3.3-3.4-9-.5-12.5l-4.5-.8c-.3 2.7-2.7 3.8-5 4.3-1 .2-3.9 1.2-4.5-.1-.4-.9.8-2.3 1.4-3 .8-.9 1.8-1.7 2.8-2.4 1.9-1.2 4.2-1.7 6.4-1.5 1.1.1 2.7-.1 3.2-1.3.3-.8 0-1.6-.7-2-.2-.1-.4-.1-.6-.1-4.1-.5-8.2.5-11.7 2.7-2.6 1.6-7.5 6-5.3 9.5 2 3.1 6.9 2.1 9.8 1.4 3.9-1 8.5-3.2 9-7.7.2-2.2-3.4-2-4.4-.8-4.3 5.1-4 13.8 1.7 17.8 2.8 2 6.7 1.3 8.6-1.5.6-.8.9-1.7 1.1-2.7.1-2.2-.1-4.3-.7-6.4-.5-2.2-1.2-4.4-2-6.6-.7-1.7-3.3-1.5-4.4-.4-1 1-1 2.7 0 3.8.2.2.5.4.8.6 1.9 1 4.3.3 6.4 0 4-.7 8.1-2.1 10.7-5.5 2.3-3.2 2.3-7.6 0-10.8-2.8-3.9-7.8-2.7-11.2-.3-3.5 2.6-6.3 6.1-8 10.1-1.1 2.5 3.1 2.5 4.2 1.3 2.2-2.5 3.4-5.7 3.4-9.1 0-1.7-.1-3.4-.3-5-.1-1.7-.4-3.4-.9-5-1.1-3-4.4-4.6-7.5-3.5-.7.3-1.4.7-2 1.2-2.7 2.4-3.5 6.6-3.5 10 .1 4.5 1.8 8.8 3.5 12.9.5 1 1.7 1.5 2.8 1.2 1 .2 2.8-.7 2.3-1.8zM125.3 313.5l-3.1-14.5c-.3-1.5-2-8.4 1.5-7.1 3.4 1.2 3.6 6.4 2.8 9.2-1.1 4.1-3.9 7.5-6.5 10.7l4.5.7c.3-2.6 2.1-4.7 4.6-5.2 2.7-.6 5.5 1.1 7.1 3.2 1.4 1.8 2.9 5.4 1.1 7.4-.9 1-2.6 1.2-3.8 1.4-1.3.1-2.7 0-4-.3-3.2-.8-5.9-2.7-7.7-5.3l.3 1v-.2l-.4 1-.2.2-1.2.6c-2.2.6-1-.4-.8.2.2.5.5 1 .8 1.4.5 1 1 2.1 1.4 3.2.8 2.1 1.5 4.2 2 6.4.3 1.1.5 2.3.7 3.5.3 1 .3 2.1 0 3.1-.6 1.3-2.3 1.3-3.5 1-3.7-1-5.2-5.1-4.9-8.6.3-4.3 2.9-7.9 5.6-11 1.7-2-1.6-3.4-3.2-2.4-2.3 1.6-5.2 2.3-8 2-1 0-2-.4-2.7-1.2-.7-1 0-2.3.6-3.1 3.2-4.4 9.2-3.6 12 .8 1.3 2 5.8 0 4.4-2.3-4.7-7.4-16.4-7-20.9.5-1.1 1.8-1.8 3.9-.8 5.9.9 1.8 2.9 2.7 4.8 3.1 4.5.9 9.1 0 12.9-2.5l-3.2-2.4c-3.1 3.7-5.9 7.9-6.4 12.8-.4 4.7 1.5 9.3 5.8 11.5 3.9 2 10.4 1.4 12.2-3.2.9-2.3.3-5-.2-7.3-.5-2.6-1.3-5.1-2.2-7.5-.4-1.1-.9-2.2-1.4-3.3-.4-1.2-1.1-2.2-1.9-3.1-1.7-1.5-5-1.6-6 .8-.7 1.9 2 4.1 3.3 5.1 1.6 1.3 3.4 2.3 5.3 2.9 4.2 1.5 8.8 1.3 12.9-.6 4.6-2.3 5.1-7.5 3-11.6-2.3-4.5-7.1-7.2-12.2-6.7-5 .6-9.5 4.4-10 9.5-.1 1 .8 1.6 1.7 1.8 1.1.1 2.1-.3 2.8-1.1 4.8-5.8 10.7-14.3 6.1-21.8-2.2-3.6-6.8-4.8-10.4-2.7-3.7 2.2-3.5 6.4-2.8 10.1 1.1 5.3 2.3 10.7 3.4 16 .5 2.5 5.3 1.1 4.8-1.4v-.6z"/><path d="M144.9 239.6c.5 4.1-.4 8.4.4 12.5.7 3.6 2.7 6.9 6.3 8.2 3.6 1.4 7.7 0 9.7-3.2 1.7-3.1 1.5-7-.6-9.9-2.5-3.8-6.6-6.5-10.1-9.4l-2.2 3.7 7.3.4c2.4.3 4.8.4 7.2.3 2.3-.1 4.4-1.4 5.5-3.4.8-1.8 1.1-3.8.8-5.8-.4-3.9-2.6-7.8-6.3-9.5-3.8-1.9-8.5-1.1-11.5 1.9-3 3.1-3.5 7.5-3.7 11.6l4.8-.8c-.4-3.4.1-7.1-2.1-10.1-1.9-2.7-5.5-3.6-8.4-2-1.5.8-2.5 2.2-2.9 3.8-.3 2 .5 4 1.2 5.7 1.3 3.3 3.3 6.4 5.7 9 1.3 1.4 4.1 0 4.3-1.7.2-2.5-2-3.3-4-3.9-2.4-.7-4.9-1-7.5-.9-4.1.4-8.4 2.7-9.9 6.8-1.4 3.5.3 7.4 3.8 8.8h.1c1.9.7 4 .6 5.7-.5 1-.6 1.8-1.4 2.4-2.3.4-.7.8-1.2 1.4-1.8.9-.6 1.9-1.7 1.3-2.9-.7-1-2.1-1.3-3.1-.6-1.2.8-2.3 1.9-3.1 3.1-.3.4-.6.8-.9 1.1-.2.1-.1.1-.4.1-1.8-.3-3-2-2.7-3.7.5-2 2.2-3.4 4.2-3.7 1.6-.3 3.2-.2 4.7.1.8.1 1.5.3 2.3.5l.9.3c.6.1.1.5.1-.4l4.3-1.7c-1.7-1.9-3.1-3.9-4.2-6.2-.5-1.1-1-2.2-1.4-3.4-.2-.6-.3-1.3-.4-2 0-.2.2-.5 0-.2.2-.2.8-.1 1.2.1.8.5 1.4 1.2 1.7 2.1 1 2.4.6 5.2.9 7.7s4.7 1.4 4.8-.8c.1-2.9.2-6.8 2.4-9 2.4-2.4 6.4-.4 8 2 1 1.6 1.6 3.4 1.6 5.3.1 1.1.1 2.8-1.2 2.9-2.3.1-4.7 0-7-.3l-7.3-.4c-1.6-.1-3.8 2.4-2.2 3.7s3.6 2.9 5.3 4.4c1.5 1.1 2.8 2.5 4 3.9 1 1.2 1.5 2.8 1.4 4.3 0 1.1-.4 2.5-1.5 2.9-1.3.2-2.6-.1-3.5-1-1.3-1.1-2.2-2.7-2.5-4.4-1-4.2 0-8.6-.5-12.9-.2-2.4-4.9-.9-4.6 1.6zM97.1 195.5c-3.8-.2-5.7 3.9-6.9 6.9-1.4 3.3-2.7 7.3-2.5 10.9 0 1.5.6 2.8 1.6 3.9 1.3 1.4 3.5 2.3 5.3 1.6 1.5-.6 2.6-2.4 3.5-3.7 3-5 3.7-11 2.1-16.5l-4.3-.6c2.9 4 5.8 8.1 9.9 11 3.7 2.7 9.3 5.3 13.7 2.4 3.3-2.3 4.7-6.4 3.5-10.2-1.5-4.3-5.9-7.4-10.3-8.2-5.9-1.1-10.5 2.4-15.5 5l4 2.8c2.4-3.5 4.2-7.3 5.5-11.3.6-1.8 1.3-3.9.3-5.7-1-1.6-2.6-2.7-4.5-3.1-3.7-.8-6.1 1.7-6.9 5.1-.7 4.1 0 8.3 2 11.9l4 .1c-1.6-2.4-3.6-4.6-6.5-5.5-2.2-.6-5.2-.2-5.9 2.4s1.8 4.9 4.2 5.5c3 .6 6 .6 9-.1 1.1-.2.7-1.4.2-2.1-.8-.9-2-1.4-3.2-1.3-1.5.3-3.1.5-4.7.4-.5 0-1.4-.3-1.9-.2-.6-.1-.3.1.9.8l-.1-.3c.1-.2 0-.4.1-.6.2-.9 1.1-1.5 2.1-1.3.8.3 1.4 1.4 1.9 2.1.7 1 1.8 1.7 3 1.8 1.1 0 1.5-.7 1-1.7-1.4-2.7-2-5.7-1.7-8.8.1-1.2.5-2.5 1.1-3.5.3-.5.7-.9 1.2-1.2l1.2-.3s-.5-.3-.5-.4-.2 1.8-.2 1.9c-.4 1.5-.9 3-1.5 4.4-1.2 2.9-2.6 5.7-4.4 8.2-.5.8.6 1.9 1.2 2.3.8.7 1.9.9 2.8.6 3.4-1.7 6.8-4.4 10.7-4.8 2.7-.4 5.3.9 6.7 3.3 1.1 2.7.5 5.8-1.5 7.9-2.5 2.6-5.8 1.8-8.5-.1-3.4-2.4-5.9-5.9-8.3-9.3-.6-.9-1.6-1.6-2.7-1.8-.8-.1-1.8.2-1.4 1.2 1 3.3 1 6.7.2 10-.4 1.6-1.1 3.2-1.9 4.7-.4.7-.9 1.4-1.4 2.1-.3.4-.6.7-.9 1l-.3.2c-.8.3-.4.7 1.4 1.1 0-.4-.4-1-.4-1.4 0-.9 0-1.8.2-2.6.2-1.9.7-3.8 1.3-5.6.6-1.8 1.4-3.5 2.4-5.2.6-1.1 1.7-2.9 3.2-2.9 1 .1 1.5-.8 1-1.7-1.2-.7-2.3-1.4-3.6-1.5zM137.8 381c-2.8-7.9-3.2-17.1 2-24.2 1-1.4 2.6-3.4 4.3-4 .6-.2.6.2.2-.9.1.2.2.3.2.5.1.3.2.6.4 1 .3.8.5 1.6.7 2.5.7 3.5.6 7.2-.3 10.7-1 4-2.9 7.6-5.7 10.6l2.7 4.1c.9-3.9 2.7-7.6 5.3-10.6 2.1-2.5 5.1-5.8 8.8-4.9.5.1 1.1.7 1.5.7-.5-1.2-.7-1.5-.6-.8 0 .3 0 .5-.1.8-.1.4-.2.7-.4 1-1.1 1.6-2.5 3-4.2 4-3.3 2.2-7 3.7-10.9 4.4-.8.1 1.1 4.6 2.6 4.3 3.7-.7 7.2-2 10.3-4 2.8-1.8 6.2-4.4 5.5-8.1-.6-3.2-3.3-6.4-6.7-6.8s-6.3 2.4-8.3 4.9c-2.8 3.2-4.8 7-5.8 11.2 0 1 .3 1.9.9 2.7.2.3 1.4 1.9 1.8 1.4 5.9-6.5 8.2-15.5 6.1-24.1-.5-2.5-1.5-4.9-2.9-7-.5-1-1.4-1.7-2.4-2.1-1.2-.3-2.3.6-3.2 1.4-3.4 3.1-5.7 7.3-6.5 11.9-1.1 6 0 12.2 2.1 17.9.3.9 1.1 2.4 2 2.8s.8-.8.6-1.3zM67.5 369.8c-.4-2.8-.4-5.7 0-8.5.2-1.4.5-2.9.9-4.3.1-.5.3-1 .6-1.5.1-.2.2-.4.4-.5.2-.1.3-.2.5-.3 0 .2-1-.4-1-.4s-.1-.2 0 .1c.2.5.4 1 .5 1.6.2 1 .3 2 .3 3 0 2-.5 3.9-1.3 5.7-1 2.1-2.6 3.9-4.5 5.2-1.1.7-.5 2.2.2 2.9.8.9 2.2 1.2 3.3.5 4.7-3.2 7.3-8.7 7-14.3-.1-3-1-7.1-4.2-8.3-1.7-.6-3.7-.2-4.9 1.2-1.2 1.3-1.6 3.1-1.9 4.8-.9 4.1-1.1 8.2-.6 12.3.2 1.3 1.2 2.2 2.5 2.4 1 .3 2.3-.3 2.2-1.6zM47.6 251.6c.7 4 2.4 7.7 5.1 10.8 2.8 3.4 6.4 6.2 10.5 8 1.8.8 3.7 1.3 5.7 1.5.7.1 1.8.2 2.3-.4s0-1.8-.4-2.4c-2.3-3.9-5.6-7.1-9.5-9.3-4.1-2.2-8.4-3.8-12.9-4.8l3.5 3.5c4.2-1.6 8.7-.2 12.9-1.1 3.5-.8 6.6-3.1 8.2-6.4.9-1.5 1.3-3.3 1.2-5-.2-2.2-2.3-4-4-5.2-3.2-2.2-7.6-1.4-10.8.4-4.1 2.3-6.8 6.4-8.9 10.4-.4.9 3.3 3.9 3.6 3.4 1.6-2.2 2.2-5.2.5-7.6-1-1.5-2.3-2.7-3.9-3.5-1.3-.5-2.5.2-3.3 1.1-1.6 1.7-2.4 4-2.2 6.4.4 2.7 1.8 5.1 3.9 6.8.2.2 1.8 1.8 2.2 1.4s-1.3-2-1.5-2.1c.4.3 0-.1-.1-.3-.2-.3-.3-.7-.4-1-.2-.7-.3-1.5-.3-2.3 0-1.5.4-3 1.2-4.3.4-.6.9-1.1 1.4-1.6.5-.4 1-.6 1.6-.8h.3c-1.5-1.9-2-2.4-1.6-1.3.3 2-.1 4-1.3 5.6L54 255c3.1-6 8.4-12.9 16-12 .4 0 .8.1 1.2.2.2.1.4.2.6.2l.2.1-1.6-1.4c-.1.2.1.8.2 1.1 0 .5-.1 1-.2 1.5-.3 1.5-1 3-1.9 4.2-1.8 2.7-4.7 4.5-7.9 5.1-4.2.7-8.4-.5-12.5 1-.3.1 1.2 1.8 1.2 1.8.6.7 1.4 1.3 2.2 1.6 3 .8 6 1.7 8.8 2.9 2.2.9 4.7 2 6.1 4 .4.5.8 1.1 1 1.7.3 1-.4 1.3-1.3 1.3-1.5 0-3-.3-4.5-.8-2.5-.7-4.8-2-6.6-3.9-2.2-2.5-3.6-5.7-4.1-9-.1-.9-1.3-1.8-2-2.4.1 0-1.5-1.1-1.3-.6z"/></g><path d="M231.6 101.2c-1.1-3 .4-5.9 2.3-8.2 2.1-2.4 4.4-4.6 6.9-6.6 5-3.9 10.3-7.3 15.9-10.2 5.5-3 11.3-5.5 17.5-6.3 5.5-.8 11.2 0 16.3 2.4 5 2.3 9 6.5 11 11.7 1.8 5 2.3 10.4 1.3 15.7-.5 2.7-1.2 5.3-2.3 7.8-.4 1.2-1 2.3-1.7 3.3-.2.3-.5.6-.8.9-1 .9.3-.6 1-.2h-.5c-.4-.1-.8-.2-1.1-.3-.9-.4-1.5-1.3-1.5-2.3.1-1.4 1.4-2.5 2.5-3.2 2.2-1.3 4.7-2 7.2-2.1 13-1 24.2 9.6 24.8 22.4 0 .5 4.7-.5 4.7-1.8-.3-6.3-3.1-12.2-7.7-16.5-4.8-4.4-11.1-6.6-17.6-6.3-3.5.2-6.9.9-10.2 2.2-1.7.7-3.4 1.5-4.9 2.5-1.4.8-2.6 2-3.3 3.4-1 2.8 2 4.3 4.4 4 3.5-.3 6.6-2.4 8.3-5.5 5.5-10.4 5.6-25.8-3.6-34.1-10.9-9.8-26.9-6.9-39-1.6-6.9 3-13.5 6.7-19.7 11.1-3 2.1-5.9 4.4-8.6 6.8-2.5 2.3-5.3 4.9-6.3 8.2-.5 1.4-.5 3 0 4.5.4.9 5.1-.8 4.7-1.7zM336.6 136.2c-.3 1.8 0 3.7.9 5.4.2.3.7.4 1 .3 1.2-.2 2.3-.7 3.1-1.6.2-.3.5-.7.3-1-.4-.7-.6-1.5-.8-2.3v.3c-.2-.9-.2-1.9 0-2.8.1-.4-.3-.6-.6-.6-.5 0-1.1 0-1.5.3-.6.2-1.2.6-1.7 1-.3.2-.5.6-.7 1z" class="F"/><defs ><path id="B" d="M125.9 371.8s-8.3 27.4-7.1 30.4 21.9 9.4 18.8 9.7c-2.3.3-7.7 5-25.8 3.3-18.4-1.7-17.6-4-18.7-7.8s-1.2-40.5-1.2-40.5l34 4.9z"/></defs></svg>