<svg xmlns="http://www.w3.org/2000/svg" width="720" height="868" shape-rendering="geometricPrecision" image-rendering="optimizeQuality" fill-rule="evenodd" xmlns:v="https://vecta.io/nano"><path fill="#fbfbfb" d="M-.5-.5h720v868h-87c-2.667-6.996-6.167-13.663-10.5-20a99.553 99.553 0 0 0-20-21 165.263 165.263 0 0 0-16-39 213.542 213.542 0 0 0-11-31 205.286 205.286 0 0 1 0-48 22.755 22.755 0 0 0 4-5l9-30a87.81 87.81 0 0 0-2.5-31 8.01 8.01 0 0 0 5.5-2c2.953-6.251 4.286-12.918 4-20 .388-.928 1.055-1.595 2-2 4.08 1.417 5.247.083 3.5-4a10.91 10.91 0 0 1 4.5-5 10.098 10.098 0 0 0 1.5-6c11.935-19.707 19.602-41.04 23-64a77.262 77.262 0 0 0 3-12c1.602-15.966.768-31.966-2.5-48-1.296-3.754-3.13-7.087-5.5-10v-2c-2.38-11.158-6.547-21.491-12.5-31 .202-6.6-2.465-11.6-8-15a145.223 145.223 0 0 0-17.5-25.5 42.47 42.47 0 0 0-5-1.5 55.533 55.533 0 0 1-9-4 369.083 369.083 0 0 0-15-6.5l-6.5-.5a71.937 71.937 0 0 1-21.5 0 20.79 20.79 0 0 1-1 2.5 20.598 20.598 0 0 1-9-.5c-3.646.551-3.312.885 1 1v3c-3.116-.211-5.95-.545-8.5-1a8.43 8.43 0 0 0-.5 4 7.11 7.11 0 0 0-5 1 197.72 197.72 0 0 0-14 8.5c-.837 1.011-1.17 2.178-1 3.5-3.734 2.731-6.734 6.064-9 10-2.67 2.259-4.003 5.259-4 9a100.17 100.17 0 0 1 4 13 44.866 44.866 0 0 0-10 1c-1.296-7.844-.463-15.511 2.5-23 3.315-9.297 7.649-17.964 13-26 .69-10.985-4.644-16.652-16-17-5.552.372-10.718 1.872-15.5 4.5a68.48 68.48 0 0 0-14.5 21.5 176.547 176.547 0 0 0-7.5 25 378.428 378.428 0 0 1-45-41.5 133.62 133.62 0 0 0-21-11.5c-3.323-5.839-4.99-12.173-5-19 .317-4.202-.017-8.202-1-12a411.244 411.244 0 0 1 2.5-38 100.893 100.893 0 0 0 5-26c6.346-14.507 15.513-27.007 27.5-37.5a508.366 508.366 0 0 0 39-35c3.774-.912 6.941-2.745 9.5-5.5.682-3.68-.818-6.18-4.5-7.5-3.149-.274-6.149.392-9 2a772.453 772.453 0 0 1-43 37.5c-5.137-9.474-6.304-19.474-3.5-30 5.016-10.182 12.516-17.849 22.5-23a68.688 68.688 0 0 0 9-2c2.216-.703 4.049-2.036 5.5-4a190.846 190.846 0 0 0 9.5-14 123.065 123.065 0 0 1 27-11.5c10.157-1.059 20.157-.559 30 1.5 4.064 2.554 7.731 5.721 11 9.5a399.571 399.571 0 0 0 43 13c2.602.883 4.769 2.383 6.5 4.5a52.32 52.32 0 0 1 5 24c2.048 2.373 2.881 5.206 2.5 8.5a676.577 676.577 0 0 1-5.5 27.5l3.5 3.5c19.204 1.906 24.038 11.406 14.5 28.5-8.861 7.869-9.361 16.036-1.5 24.5 5.682.648 8.516-1.852 8.5-7.5-1.236-.899-2.07-2.066-2.5-3.5a51.85 51.85 0 0 0 11.5-23.5c1.555-9.395-1.278-17.228-8.5-23.5a39.478 39.478 0 0 0-11-4.5l-1-2a70.946 70.946 0 0 0 4-21c-2.242-7.773-3.742-15.773-4.5-24-1.916-7.671-5.75-14.171-11.5-19.5a222.41 222.41 0 0 0-28-9 42.13 42.13 0 0 0-20-7c-2.664-3.511-5.998-6.011-10-7.5-7.136-4.365-14.969-6.031-23.5-5-9.627-.464-18.793 1.203-27.5 5-.39-3.339-.89-6.673-1.5-10a295.015 295.015 0 0 0-12-24 227.265 227.265 0 0 0-18-46c-.937-9.13-3.27-17.796-7-26l-2.5-2.5a651.06 651.06 0 0 0-53 2.5c-5.966.007-11.632 1.007-17 3l-20 2.5a2025.03 2025.03 0 0 0-77 21 2004.075 2004.075 0 0 0-47 20 513572.844 513572.844 0 0 0-108 36 25.549 25.549 0 0 0-5.5 6.5 226.5 226.5 0 0 0 1 36 1918.339 1918.339 0 0 1 6 35 8243.993 8243.993 0 0 0 12 118 265.62 265.62 0 0 1 10 57 17.842 17.842 0 0 0 5.5 4.5c11.813 1.162 23.479.496 35-2l18-1a303.195 303.195 0 0 0 21-3.5h2c1.527-.073 2.527.594 3 2-4.74 7.031-8.24 14.698-10.5 23-9.567 4.9-17.234 11.9-23 21-3.408 11-2.908 21.833 1.5 32.5a847.854 847.854 0 0 0-42 27 156.282 156.282 0 0 0-23 8A251.074 251.074 0 0 0 70 508.5c-.706 2.471-.373 4.805 1 7a102835.49 102835.49 0 0 1 28 30 27639.053 27639.053 0 0 0 16 30 222.617 222.617 0 0 1 4.5 40.5 2387.361 2387.361 0 0 1-5.5 58.5 76.296 76.296 0 0 1-4 13c-1.483 10.191 2.35 13.024 11.5 8.5a4428.21 4428.21 0 0 1 39.5-49.5 963.987 963.987 0 0 1 38.5-35.5 345.028 345.028 0 0 0 42-27 274.066 274.066 0 0 1 40-19l38-9.5a8.43 8.43 0 0 1 4 .5c-2.691.156-5.024.989-7 2.5-3.955 2.493-8.288 4.326-13 5.5a69.633 69.633 0 0 0-11.5 7.5c-3.001 5.54-3.168 11.206-.5 17a1076.725 1076.725 0 0 0-44.5 51l-26 40a277.085 277.085 0 0 0-20 58 1127.086 1127.086 0 0 1-9 41c-3.427 27.612-1.927 54.945 4.5 82a50.881 50.881 0 0 0-1 7H-.5V-.5z"/><path fill="#262626" d="M495.5 137.5c-1.089 1.617-2.756 2.45-5 2.5 4.518.54 5.685 2.706 3.5 6.5-1.414-.913-2.914-.913-4.5 0-9.843-2.059-19.843-2.559-30-1.5a123.065 123.065 0 0 0-27 11.5c-2.049-.206-2.383-1.039-1-2.5-.949-.617-1.782-.451-2.5.5a6.802 6.802 0 0 0-1.5-3c-3.439 2.895-4.439 6.062-3 9.5l-1 .5a6.802 6.802 0 0 1-1.5-3l-1 5a11.38 11.38 0 0 1-2.5-2 54.86 54.86 0 0 0 2-7c.531-2.044 1.698-3.711 3.5-5 .667-1.333.667-2.667 0-4a126883.47 126883.47 0 0 1-28-72c-.523-1.723-1.523-3.056-3-4a239.58 239.58 0 0 0-10.5 3 184.77 184.77 0 0 0-19 5 2463.83 2463.83 0 0 0-47 9 202.812 202.812 0 0 1-25 7c-7.474.87-14.808 2.37-22 4.5a391.964 391.964 0 0 1-46 13c-10.184 4.581-20.851 7.747-32 9.5-1.213.247-1.88.914-2 2a2734.045 2734.045 0 0 0-13 3.5 229.162 229.162 0 0 1-45 17l-7 3.5c-.935 4.326-.768 8.66.5 13a1095.517 1095.517 0 0 0 3 81c.685-2.557 2.185-4.391 4.5-5.5a964.955 964.955 0 0 0 28.5-8.5c3.424 1.92 5.924 4.587 7.5 8 1.793 2.759 2.293 5.759 1.5 9a46.67 46.67 0 0 1-9.5 5 315.27 315.27 0 0 1 9.5 39l1.5 3c10.804-1.02 15.304 3.98 13.5 15a220.177 220.177 0 0 1-37.5 20.5c-1.333.667-2.667.667-4 0-4.243-3.975-6.076-8.809-5.5-14.5l2.5-2.5a42.228 42.228 0 0 0 12-4.5c.844-3.98.677-7.98-.5-12a582.288 582.288 0 0 1-8-33 26.852 26.852 0 0 0-3.5-6c-4.705 3.245-8.538 2.579-11.5-2a3384.419 3384.419 0 0 1 2.5 63.5 557.46 557.46 0 0 0-1 21.5 187.697 187.697 0 0 0 41-6.5 69.282 69.282 0 0 1 19 .5c-.672.767-1.505 1.434-2.5 2l-5 19c-.998 4.644-.498 8.977 1.5 13a303.195 303.195 0 0 1-21 3.5l-18 1c-11.521 2.496-23.187 3.162-35 2a17.842 17.842 0 0 1-5.5-4.5 265.62 265.62 0 0 0-10-57 8243.993 8243.993 0 0 1-12-118 1918.339 1918.339 0 0 0-6-35 226.5 226.5 0 0 1-1-36 25.549 25.549 0 0 1 5.5-6.5l108-36a2004.075 2004.075 0 0 1 47-20 2025.03 2025.03 0 0 1 77-21l20-2.5c5.966-.007 11.632-1.007 17-3a651.06 651.06 0 0 1 53-2.5l2.5 2.5c3.73 8.204 6.063 16.87 7 26a227.265 227.265 0 0 1 18 46 295.015 295.015 0 0 1 12 24c.61 3.327 1.11 6.661 1.5 10 8.707-3.797 17.873-5.464 27.5-5 8.531-1.031 16.364.635 23.5 5z"/><path fill="#575757" d="M350.5 31.5c-5.368 1.993-11.034 2.993-17 3 5.368-1.993 11.034-2.993 17-3z"/><path fill="#f8f9f8" d="M420.5 154.5a68.826 68.826 0 0 0-6 7.5c-15.124 4.785-27.124 13.785-36 27-4.51-1.276-9.177-1.609-14-1-5.096 4.248-6.263 9.415-3.5 15.5 3.301 2.828 6.968 3.494 11 2a12.494 12.494 0 0 1 0 7c-.804-1.304-1.971-1.971-3.5-2a47.49 47.49 0 0 0-8 4.5 149.25 149.25 0 0 0-27 5.5 28.717 28.717 0 0 1-.5-13l12-56 2-4c3.666 11.046 8.666 21.379 15 31 4.739 4.478 8.072 3.478 10-3 2.913-11.334 3.079-22.668.5-34a5.727 5.727 0 0 1 3-1 787.308 787.308 0 0 0 27 24c5.167-2.272 6.334-5.939 3.5-11a1127.432 1127.432 0 0 1-41.5-38.5 169.27 169.27 0 0 0-15-9c-2.135-.635-4.135-.301-6 1-4.491 14.41-7.658 29.243-9.5 44.5-7.679 23.73-12.012 48.063-13 73l-3 3a197.59 197.59 0 0 1-10-43c-4.22-4.663-9.053-5.163-14.5-1.5a208.709 208.709 0 0 1-7.5 11.5 12.93 12.93 0 0 0-.5 5c-5.712-2.024-11.045-4.857-16-8.5a91.567 91.567 0 0 0-6.5-1.5c-1.711-.061-3.044.606-4 2 .325 5.992.992 11.992 2 18a566.899 566.899 0 0 0 11.5 50c-1.068.934-2.401 1.268-4 1-2.195-2.513-5.029-3.846-8.5-4a59.594 59.594 0 0 0-9.5 4 3.647 3.647 0 0 1-1.5-1 237.821 237.821 0 0 0-3.5-12l1-2c4.761-1.794 8.927-4.46 12.5-8-1.482-12.491-7.648-15.491-18.5-9-2.036-3.033-2.369-6.2-1-9.5a137.627 137.627 0 0 1 16.5-7.5c1.822-4.287 1.822-8.621 0-13-1.823-1.667-3.99-2.667-6.5-3a267.013 267.013 0 0 0-29 10.5c-2.371 1.743-3.705 4.077-4 7a2955.75 2955.75 0 0 0 18 63.5c.61.891.943 1.891 1 3l-7 8c-1.464.905-2.798.905-4 0a19.552 19.552 0 0 0-3.5-4l-8-24c-3.331-12.198-5.831-24.364-7.5-36.5 11.053-2.934 11.72-7.101 2-12.5-1.109-.79-2.442-1.29-4-1.5 1.256-.417 1.923-1.25 2-2.5a95.117 95.117 0 0 1 11-8c1.902-1.563 2.902-3.563 3-6a1430.67 1430.67 0 0 1-13.5-63c-1.764-3.089-4.43-4.422-8-4-3.788.097-7.288 1.097-10.5 3a185.977 185.977 0 0 0-2-3 173.55 173.55 0 0 0 4-3c.12-1.086.787-1.753 2-2 11.149-1.753 21.816-4.919 32-9.5a391.964 391.964 0 0 0 46-13 130.266 130.266 0 0 1 22-4.5 40.61 40.61 0 0 0 14-2 12.88 12.88 0 0 1 4 1c1.196-.346 1.196-.846 0-1.5 2.739-1.026 5.072-2.526 7-4.5a2463.83 2463.83 0 0 1 47-9c4.397.075 8.73-.425 13-1.5 2.525-.424 4.525-1.59 6-3.5a239.58 239.58 0 0 1 10.5-3c1.477.944 2.477 2.277 3 4a126883.47 126883.47 0 0 0 28 72c.667 1.333.667 2.667 0 4-1.802 1.289-2.969 2.956-3.5 5z"/><path fill="#cdcdcd" d="M382.5 72.5c-1.475 1.91-3.475 3.076-6 3.5a49.522 49.522 0 0 1-13 1.5 184.77 184.77 0 0 1 19-5z"/><path fill="#d0d0d0" d="M316.5 86.5c-1.928 1.974-4.261 3.474-7 4.5 1.196.654 1.196 1.154 0 1.5a12.898 12.898 0 0 0-4-1 40.61 40.61 0 0 1-14 2 202.812 202.812 0 0 0 25-7z"/><path fill="#f0f0f0" d="M189.5 122.5a173.55 173.55 0 0 1-4 3 185.977 185.977 0 0 1 2 3 62.604 62.604 0 0 1-18 5.5c-2.928 3.257-3.762 7.091-2.5 11.5a2107.244 2107.244 0 0 0 13 63c.833 2.167 2.333 3.667 4.5 4.5 3.036.638 6.036.472 9-.5a59.923 59.923 0 0 1 12-6c-.077 1.25-.744 2.083-2 2.5 1.558.21 2.891.71 4 1.5a430.76 430.76 0 0 0-38 11c-2.743 4.222-2.41 8.222 1 12-.992-.172-1.658.162-2 1-1.576-3.413-4.076-6.08-7.5-8a964.955 964.955 0 0 1-28.5 8.5c-2.315 1.109-3.815 2.943-4.5 5.5a1095.517 1095.517 0 0 1-3-81c-1.268-4.34-1.435-8.674-.5-13l7-3.5a229.162 229.162 0 0 0 45-17l13-3.5z"/><path fill="#272727" d="M205.5 206.5a59.923 59.923 0 0 0-12 6c-2.964.972-5.964 1.138-9 .5-2.167-.833-3.667-2.333-4.5-4.5a2107.244 2107.244 0 0 1-13-63c-1.262-4.409-.428-8.243 2.5-11.5a62.604 62.604 0 0 0 18-5.5c3.212-1.903 6.712-2.903 10.5-3 3.57-.422 6.236.911 8 4a1430.67 1430.67 0 0 0 13.5 63c-.098 2.437-1.098 4.437-3 6a95.117 95.117 0 0 0-11 8zm-52-67c3.005-.247 5.505.753 7.5 3l1 13a34871.92 34871.92 0 0 0 10 40 49.226 49.226 0 0 1 0 14c-1.999 3.925-4.832 4.759-8.5 2.5a25.724 25.724 0 0 1-3.5-7.5l-6-6c-5.198-12.216-6.531-11.883-4 1 2.618 5.815 4.285 11.815 5 18a6.978 6.978 0 0 1-3.5 2.5 42.479 42.479 0 0 1-13 0c-1.817-1.8-2.984-3.966-3.5-6.5a420.848 420.848 0 0 0-6-40 101.813 101.813 0 0 1-1-18c2.25-6.273 6.25-7.606 12-4 .749 3.257 2.416 5.924 5 8a102.449 102.449 0 0 1-1-14 421.81 421.81 0 0 1 9.5-6z"/><path fill="#f5f5f5" d="M187.5 145.5c1.322-.17 2.489.163 3.5 1a502.156 502.156 0 0 1 9.5 37c-.029 1.529-.696 2.696-2 3.5a26.035 26.035 0 0 0-7.5 4.5 463.583 463.583 0 0 0-7.5-44c1.88.271 3.213-.396 4-2z"/><path fill="#292929" d="M495.5 137.5c4.002 1.489 7.336 3.989 10 7.5a42.13 42.13 0 0 1 20 7 222.41 222.41 0 0 1 28 9c5.75 5.329 9.584 11.829 11.5 19.5.758 8.227 2.258 16.227 4.5 24a70.946 70.946 0 0 1-4 21l1 2a39.478 39.478 0 0 1 11 4.5c7.222 6.272 10.055 14.105 8.5 23.5a51.85 51.85 0 0 1-11.5 23.5c.43 1.434 1.264 2.601 2.5 3.5.016 5.648-2.818 8.148-8.5 7.5-7.861-8.464-7.361-16.631 1.5-24.5 9.538-17.094 4.704-26.594-14.5-28.5l-3.5-3.5a676.577 676.577 0 0 0 5.5-27.5c.381-3.294-.452-6.127-2.5-8.5a52.32 52.32 0 0 0-5-24c-1.731-2.117-3.898-3.617-6.5-4.5a399.571 399.571 0 0 1-43-13c-3.269-3.779-6.936-6.946-11-9.5 1.586-.913 3.086-.913 4.5 0 2.185-3.794 1.018-5.96-3.5-6.5 2.244-.05 3.911-.883 5-2.5z"/><path fill="#929292" d="M417.5 174.5a68.688 68.688 0 0 1-9 2c.111-.617.444-1.117 1-1.5a32.462 32.462 0 0 1 8-.5z"/><path fill="#282828" d="M375.5 140.5c-6.285-8.727-14.118-15.727-23.5-21-.945.405-1.612 1.072-2 2a82.773 82.773 0 0 0-2 18c5.263-6.121 11.763-7.954 19.5-5.5 2.323 2.17 3.99 4.67 5 7.5 2.579 11.332 2.413 22.666-.5 34-1.928 6.478-5.261 7.478-10 3-6.334-9.621-11.334-19.954-15-31l-2 4-12 56a28.717 28.717 0 0 0 .5 13 149.25 149.25 0 0 1 27-5.5 47.49 47.49 0 0 1 8-4.5c1.529.029 2.696.696 3.5 2a12.494 12.494 0 0 0 0-7c-4.032 1.494-7.699.828-11-2-2.763-6.085-1.596-11.252 3.5-15.5 4.823-.609 9.49-.276 14 1 8.876-13.215 20.876-22.215 36-27a68.826 68.826 0 0 1 6-7.5 54.86 54.86 0 0 1-2 7 11.38 11.38 0 0 0 2.5 2l1-5a6.802 6.802 0 0 0 1.5 3l1-.5c-1.439-3.438-.439-6.605 3-9.5a6.802 6.802 0 0 1 1.5 3c.718-.951 1.551-1.117 2.5-.5-1.383 1.461-1.049 2.294 1 2.5a190.846 190.846 0 0 1-9.5 14c-1.451 1.964-3.284 3.297-5.5 4a32.462 32.462 0 0 0-8 .5c-.556.383-.889.883-1 1.5-9.984 5.151-17.484 12.818-22.5 23-2.804 10.526-1.637 20.526 3.5 30a772.453 772.453 0 0 0 43-37.5c2.851-1.608 5.851-2.274 9-2 3.682 1.32 5.182 3.82 4.5 7.5-2.559 2.755-5.726 4.588-9.5 5.5a508.366 508.366 0 0 1-39 35c-11.987 10.493-21.154 22.993-27.5 37.5a100.893 100.893 0 0 1-5 26 411.244 411.244 0 0 0-2.5 38 41.541 41.541 0 0 1-1 8h-6c-.066 4.253-1.566 4.92-4.5 2a450.63 450.63 0 0 1-.5-30c1.789-4.907 2.622-10.24 2.5-16 .249-2.677 1.249-5.01 3-7 .498-2.982.665-5.982.5-9v-16l4-9v-1c7.506-7.015 14.173-14.849 20-23.5-3.654-5.8-6.32-11.967-8-18.5-5.981 5.323-12.981 7.823-21 7.5a146.88 146.88 0 0 0-28 8.5 10.305 10.305 0 0 1-3-1c.785 6.531.785 13.198 0 20h-1c-3.7 1.258-7.366 1.258-11 0-5.361-10.411-9.361-21.411-12-33-1.134 2.985-3.301 4.318-6.5 4-2.77-.257-5.27-1.257-7.5-3l-1 1a543.455 543.455 0 0 0 7 31v3a66.992 66.992 0 0 0-16 2 566.899 566.899 0 0 1-11.5-50 161.608 161.608 0 0 1-2-18c.956-1.394 2.289-2.061 4-2 2.185.421 4.351.921 6.5 1.5 4.955 3.643 10.288 6.476 16 8.5a12.93 12.93 0 0 1 .5-5 208.709 208.709 0 0 0 7.5-11.5c5.447-3.663 10.28-3.163 14.5 1.5a197.59 197.59 0 0 0 10 43l3-3c.988-24.937 5.321-49.27 13-73 1.842-15.257 5.009-30.09 9.5-44.5 1.865-1.301 3.865-1.635 6-1a169.27 169.27 0 0 1 15 9 1127.432 1127.432 0 0 0 41.5 38.5c2.834 5.061 1.667 8.728-3.5 11a787.308 787.308 0 0 1-27-24z"/><path fill="#e7e7e7" d="M375.5 140.5a5.727 5.727 0 0 0-3 1c-1.01-2.83-2.677-5.33-5-7.5-7.737-2.454-14.237-.621-19.5 5.5a82.773 82.773 0 0 1 2-18c.388-.928 1.055-1.595 2-2 9.382 5.273 17.215 12.273 23.5 21z"/><path fill="#272727" d="M268.5 260.5c-.683 1.676-2.017 2.343-4 2-7.711 2.618-14.711 6.452-21 11.5a25.959 25.959 0 0 1-9 2.5 2955.75 2955.75 0 0 1-18-63.5c.295-2.923 1.629-5.257 4-7 9.44-4.05 19.107-7.55 29-10.5 2.51.333 4.677 1.333 6.5 3 1.822 4.379 1.822 8.713 0 13a137.627 137.627 0 0 0-16.5 7.5c-1.369 3.3-1.036 6.467 1 9.5 10.852-6.491 17.018-3.491 18.5 9-3.573 3.54-7.739 6.206-12.5 8l-1 2a237.821 237.821 0 0 1 3.5 12c.414.457.914.791 1.5 1a59.594 59.594 0 0 1 9.5-4c3.471.154 6.305 1.487 8.5 4zm-61-50c9.72 5.399 9.053 9.566-2 12.5 1.669 12.136 4.169 24.302 7.5 36.5l8 24a19.552 19.552 0 0 1 3.5 4v1c-.839 1.141-1.506 2.474-2 4-3.163.824-4.83 2.824-5 6-2.534-.241-4.2.759-5 3v1h-3c-2.815-.824-4.982-2.491-6.5-5a12446.191 12446.191 0 0 0-19-64 4.933 4.933 0 0 0-2.5-1 19.326 19.326 0 0 1-7 3c-1.855.16-3.188-.507-4-2-3.41-3.778-3.743-7.778-1-12a430.76 430.76 0 0 1 38-11z"/><path fill="#f8f8f7" d="M360.5 261.5c.086-.996-.248-1.829-1-2.5a101.95 101.95 0 0 0-39-4.5c.785-6.802.785-13.469 0-20 .946.487 1.946.82 3 1a146.88 146.88 0 0 1 28-8.5c8.019.323 15.019-2.177 21-7.5 1.68 6.533 4.346 12.7 8 18.5-5.827 8.651-12.494 16.485-20 23.5z"/><path fill="#f3f4f3" d="M308.5 254.5c-5.34.781-10.84 1.448-16.5 2-1.434-.362-2.601-1.028-3.5-2a543.455 543.455 0 0 1-7-31l1-1c2.23 1.743 4.73 2.743 7.5 3 3.199.318 5.366-1.015 6.5-4 2.639 11.589 6.639 22.589 12 33z"/><path fill="#f6f6f6" d="M209.5 302.5c-1.049 2.482-2.883 4.149-5.5 5-1.376 3.778-3.876 6.444-7.5 8l1 2c-3.305 2.619-5.305 5.953-6 10v3h-1a69.282 69.282 0 0 0-19-.5 187.697 187.697 0 0 1-41 6.5 557.46 557.46 0 0 1 1-21.5 3384.419 3384.419 0 0 0-2.5-63.5c2.962 4.579 6.795 5.245 11.5 2a26.852 26.852 0 0 1 3.5 6 582.288 582.288 0 0 0 8 33c1.177 4.02 1.344 8.02.5 12a42.228 42.228 0 0 1-12 4.5l-2.5 2.5c-.576 5.691 1.257 10.525 5.5 14.5 1.333.667 2.667.667 4 0a220.177 220.177 0 0 0 37.5-20.5c1.804-11.02-2.696-16.02-13.5-15l-1.5-3a315.27 315.27 0 0 0-9.5-39 46.67 46.67 0 0 0 9.5-5c.793-3.241.293-6.241-1.5-9 .342-.838 1.008-1.172 2-1 .812 1.493 2.145 2.16 4 2a19.326 19.326 0 0 0 7-3 4.933 4.933 0 0 1 2.5 1 12446.191 12446.191 0 0 1 19 64c1.518 2.509 3.685 4.176 6.5 5z"/><path fill="#2c2c2c" d="M412.5 242.5c8.841-.037 10.841 3.463 6 10.5-5.155 1.677-8.155-.156-9-5.5a11.948 11.948 0 0 1 3-5z"/><path fill="#9abd87" d="M288.5 254.5c.899.972 2.066 1.638 3.5 2 5.66-.552 11.16-1.219 16.5-2 3.634 1.258 7.3 1.258 11 0a862.962 862.962 0 0 0 29 4c-20-1.323-40-1.656-60-1v-3z"/><path fill="#8ec472" d="M348.5 258.5h3c1.203 2.134 3.037 3.468 5.5 4a64.934 64.934 0 0 1-.5 9c-1.617 10.513-3.784 21.18-6.5 32a220.416 220.416 0 0 0-1.5 32h-3c.284 3.277-.049 6.443-1 9.5a170.781 170.781 0 0 0 6.5 29.5 25.644 25.644 0 0 0 6 7 52.141 52.141 0 0 0 1.5 10c1.621 1.653 2.788 3.653 3.5 6 .816 1.323 1.983 1.989 3.5 2a940.775 940.775 0 0 0 6 15 64.71 64.71 0 0 1-4.5 9l-1.5 12c-.508 11.916 2.159 22.916 8 33 2.08 5.823 5.413 10.823 10 15 1.83 5.16 4.83 9.493 9 13 3.72 4.224 7.72 8.391 12 12.5l7 2.5a89.597 89.597 0 0 1 9.5 7c1.633 1.953 2.799 4.12 3.5 6.5a66.197 66.197 0 0 1-6.5 14.5 84.902 84.902 0 0 0-.5 13 12.93 12.93 0 0 0 .5 5c2.826 8.831 7.326 16.665 13.5 23.5 1.902 1.301 3.902 1.968 6 2-4.331-3.484-7.664-7.651-10-12.5-3.559-6.567-5.059-13.567-4.5-21a7.293 7.293 0 0 1 2 3l.5-2.5a41.562 41.562 0 0 1 0-17.5c2.686-3.665 5.186-7.665 7.5-12 2.941-1.761 4.608-4.428 5-8 4.211-3.041 7.045-7.041 8.5-12l1-2a34.163 34.163 0 0 1 10-1c4.388 2.056 7.388 5.389 9 10a27.085 27.085 0 0 1-3 11c.502 1.021 1.168 1.188 2 .5.988-2.167 2.321-4 4-5.5a18.473 18.473 0 0 0 3.5-2c5.48-11.127 6.814-22.794 4-35-.708-.881-1.542-1.547-2.5-2-3.963-5.235-7.463-10.901-10.5-17a40.914 40.914 0 0 1-.5-9h1c3.167-2.998 6.5-5.831 10-8.5a42.36 42.36 0 0 0 8.5-1.5c.667-2 .667-4 0-6-3.11-5.519-3.277-11.186-.5-17 2.266-3.936 5.266-7.269 9-10a320.635 320.635 0 0 0 19-11c2.357.163 4.69-.003 7-.5a339.687 339.687 0 0 0 19-7.5c9.27-1.127 17.936.373 26 4.5l12 2a107.034 107.034 0 0 1 17 12.5 37.79 37.79 0 0 1 6 10 155.113 155.113 0 0 1 5.5 13l4 2c2.729 8.447 6.229 16.447 10.5 24a111.068 111.068 0 0 1 3 13 109.086 109.086 0 0 0 5.5 12c4.461 19.799 5.628 39.799 3.5 60-3.398 22.96-11.065 44.293-23 64a101.245 101.245 0 0 0-7.5 9 24.91 24.91 0 0 1-6.5 5l-1 2.5c2.568 4.892 2.568 9.726 0 14.5a8.43 8.43 0 0 0-4 .5c-.995 1.834-2.495 3.001-4.5 3.5-23.539 5.527-47.039 6.027-70.5 1.5a162.281 162.281 0 0 0-17-4 59.61 59.61 0 0 1-9-5 2065.93 2065.93 0 0 1-24-3.5c-1.773-1.392-3.773-2.559-6-3.5a783.45 783.45 0 0 1-13-1.5c-4.261-.398-8.261-1.398-12-3-1.641-1.758-3.641-3.258-6-4.5a902.481 902.481 0 0 1-32-9c-11.745-2.843-23.745-4.343-36-4.5h-1c-7.299-2.78-14.966-4.114-23-4a220.495 220.495 0 0 0-12.5-6c-.804 1.304-1.971 1.971-3.5 2a45.747 45.747 0 0 0-12-1h-2a26.51 26.51 0 0 1-11.5-9 16.242 16.242 0 0 1 0-8 56.05 56.05 0 0 1 21.5-13.5 14.698 14.698 0 0 0 3-3.5c9.917-1.02 19.584-2.686 29-5h22c1.138-2.804 1.305-5.804.5-9a34.04 34.04 0 0 0-8-7 54.835 54.835 0 0 1-4-9c-1.011-.837-2.178-1.17-3.5-1a8.43 8.43 0 0 0-.5-4c-4.161-5.002-6.661-10.668-7.5-17a4.934 4.934 0 0 1-3-.5c-1.587-2.406-3.253-4.572-5-6.5a25.84 25.84 0 0 1-4-8 325.99 325.99 0 0 1 3-14.5l-.5-51.5c-1.904-3.423-2.737-7.09-2.5-11h-3c-4.481-1.148-9.148-1.315-14-.5-2.352.24-4.352 1.073-6 2.5a5.727 5.727 0 0 0-3 1c-2.772-.28-5.272.387-7.5 2a107.61 107.61 0 0 0-5.5 12 62.347 62.347 0 0 0-12-5.5l-10-1a12.17 12.17 0 0 1-3.5-4.5 190.728 190.728 0 0 1-2-11c-2.498-1.655-3.998-3.988-4.5-7-.825-.886-1.825-1.219-3-1a82.343 82.343 0 0 0-4-7.5 58.48 58.48 0 0 1-12-8 133.82 133.82 0 0 0-13-6 18.453 18.453 0 0 0-6-.5 224.606 224.606 0 0 0-24-7c-2.601-2.978-5.934-4.978-10-6-.473-1.406-1.473-2.073-3-2l-1-4c-.001-6.213 1.332-12.047 4-17.5a77.946 77.946 0 0 0 2-10.5v-2c1.237-2.966 3.403-5.3 6.5-7 3.589-7.607 8.755-14.107 15.5-19.5 3.982-1.301 7.482-3.467 10.5-6.5a93.044 93.044 0 0 1 4.5-10c1.808.009 3.475-.491 5-1.5 4.319-4.833 8.985-9 14-12.5a110.146 110.146 0 0 0 8-2.5 93.76 93.76 0 0 1 16-9c5.914-1.06 11.58-2.56 17-4.5a606.99 606.99 0 0 1 60 1z"/><path fill="#ecfae4" d="M319.5 254.5h1a101.95 101.95 0 0 1 39 4.5c.752.671 1.086 1.504 1 2.5v1a37.717 37.717 0 0 0-9-4h-3a862.962 862.962 0 0 1-29-4z"/><path fill="#99bf87" d="M351.5 258.5a37.717 37.717 0 0 1 9 4l-4 9c.377-3.025.544-6.025.5-9-2.463-.532-4.297-1.866-5.5-4z"/><path fill="#24321e" d="M264.5 262.5a226.624 226.624 0 0 0-17 11 60.75 60.75 0 0 0-10.5 7c-.383-.556-.883-.889-1.5-1a5.727 5.727 0 0 0-1-3 25.959 25.959 0 0 0 9-2.5c6.289-5.048 13.289-8.882 21-11.5z"/><path fill="#86ab74" d="M288.5 257.5c-5.42 1.94-11.086 3.44-17 4.5a93.76 93.76 0 0 0-16 9 110.146 110.146 0 0 1-8 2.5 226.624 226.624 0 0 1 17-11c1.983.343 3.317-.324 4-2 1.599.268 2.932-.066 4-1a66.992 66.992 0 0 1 16-2z"/><path fill="#94ba81" d="M247.5 273.5c-5.015 3.5-9.681 7.667-14 12.5-1.525 1.009-3.192 1.509-5 1.5l7-8c.617.111 1.117.444 1.5 1a60.75 60.75 0 0 1 10.5-7z"/><path fill="#2d2d2d" d="M478.5 273.5c9.728.532 11.394 4.365 5 11.5-6.281.635-8.781-2.199-7.5-8.5a10.515 10.515 0 0 0 2.5-3z"/><path fill="#23311c" d="M224.5 288.5c-1.214 6.882-5.214 11.215-12 13 .8-2.241 2.466-3.241 5-3 .17-3.176 1.837-5.176 5-6 .494-1.526 1.161-2.859 2-4z"/><path fill="#8fb77b" d="M356.5 271.5v16c-4.512 10.076-6.512 20.743-6 32l-2 16a220.416 220.416 0 0 1 1.5-32c2.716-10.82 4.883-21.487 6.5-32z"/><path fill="#292929" d="M459.5 237.5c5.151.314 7.651 2.981 7.5 8l-44 42c-6.227 7.784-10.893 16.451-14 26 .052 4.267 1.885 7.767 5.5 10.5 4.148.669 8.148.169 12-1.5 5.962 1.292 7.462 4.625 4.5 10-7.645 5.159-15.478 5.325-23.5.5-5.381-4.684-9.048-10.351-11-17 3.128-13.756 9.295-25.923 18.5-36.5a2549.307 2549.307 0 0 1 44.5-42z"/><path fill="#9abf87" d="M224.5 287.5c1.202.905 2.536.905 4 0a93.044 93.044 0 0 0-4.5 10c-3.018 3.033-6.518 5.199-10.5 6.5-6.745 5.393-11.911 11.893-15.5 19.5-3.097 1.7-5.263 4.034-6.5 7v-3a283.362 283.362 0 0 1 21-25v-1c6.786-1.785 10.786-6.118 12-13v-1z"/><path fill="#26351e" d="M356.5 287.5a40.914 40.914 0 0 1-.5 9c-1.751 1.99-2.751 4.323-3 7 .122 5.76-.711 11.093-2.5 16-.512-11.257 1.488-21.924 6-32z"/><path fill="#ebf9e6" d="M209.5 302.5h3a283.362 283.362 0 0 0-21 25c.695-4.047 2.695-7.381 6-10l-1-2c3.624-1.556 6.124-4.222 7.5-8 2.617-.851 4.451-2.518 5.5-5z"/><path fill="#212f1a" d="M190.5 330.5h1v2c-5.155 8.764-7.155 18.098-6 28l1 4h-2c-1.998-4.023-2.498-8.356-1.5-13l5-19c.995-.566 1.828-1.233 2.5-2z"/><path fill="#23291f" d="M350.5 319.5a450.63 450.63 0 0 0 .5 30c2.934 2.92 4.434 2.253 4.5-2h6v4h-6a85.178 85.178 0 0 1-1 17.5 22.885 22.885 0 0 0 3 7c2.717 1.033 4.551.2 5.5-2.5.748 4.009 2.248 7.676 4.5 11-1.258-.516-2.258.15-3 2a4.457 4.457 0 0 1-1.5-2c-.667 2-.667 4 0 6a314 314 0 0 0 8.5 16l-6-7c-3.437-6.223-5.771-12.89-7-20-5.888-6.852-9.055-14.852-9.5-24-.5-6.658-.666-13.325-.5-20l2-16z"/><path fill="#60615f" d="M362.5 339.5c.983 3.798 1.317 7.798 1 12h-2v-4a41.541 41.541 0 0 0 1-8z"/><path fill="#8cb179" d="M191.5 332.5a77.946 77.946 0 0 1-2 10.5c-2.668 5.453-4.001 11.287-4 17.5-1.155-9.902.845-19.236 6-28z"/><path fill="#292929" d="M524.5 317.5c12.569-1.978 23.069 1.688 31.5 11 2.401 4.732 3.068 9.732 2 15-5.587 11.925-13.754 21.759-24.5 29.5a36.928 36.928 0 0 1-12.5 5.5c-5.023-1.042-6.69-4.042-5-9 10.206-4.462 18.873-11.129 26-20 3.405-4.469 4.739-9.469 4-15-2.408-2.456-5.241-4.289-8.5-5.5a86.578 86.578 0 0 1-13-1.5c-2.548-3.293-2.548-6.627 0-10z"/><path fill="#2a2a2a" d="M404.5 362.5c7.738-.356 15.405.144 23 1.5a57.995 57.995 0 0 0 16 6c4.734 5.782 3.401 9.616-4 11.5a68.8 68.8 0 0 0-18-6.5l-26-.5c-2.463-2.835-2.63-5.835-.5-9 3.134-1.409 6.301-2.409 9.5-3z"/><path fill="#f8f8f7" d="M199.5 372.5a224.606 224.606 0 0 1 24 7 4135.488 4135.488 0 0 1 15 8c-8.06 6.724-14.227 15.058-18.5 25-3.836 1.469-5.503 4.136-5 8 1.653 4.521 3.82 8.687 6.5 12.5-.905 6.548-2.905 12.715-6 18.5a28.926 28.926 0 0 0-3.5 5c-.671.752-1.504 1.086-2.5 1a47.848 47.848 0 0 0-4.5-8 195.6 195.6 0 0 1-2-22c-3.667-5.333-7.333-5.333-11 0-1.345 10.042-.178 19.709 3.5 29-1.052 1.756-2.719 2.423-5 2-3.934-.717-7.434-2.383-10.5-5-2.821-9.792-1.821-19.125 3-28 1.875-6.782-.625-9.948-7.5-9.5-4.351 3.206-7.351 7.372-9 12.5-2.571-8.787-.237-15.954 7-21.5a57.565 57.565 0 0 1 14.5-9.5 176.404 176.404 0 0 1 6-16l5.5-9z"/><path fill="#8cb576" d="M348.5 335.5c-.166 6.675 0 13.342.5 20 .445 9.148 3.612 17.148 9.5 24 1.229 7.11 3.563 13.777 7 20-1.517-.011-2.684-.677-3.5-2-.712-2.347-1.879-4.347-3.5-6a52.141 52.141 0 0 1-1.5-10 25.644 25.644 0 0 1-6-7 170.781 170.781 0 0 1-6.5-29.5c.951-3.057 1.284-6.223 1-9.5h3z"/><path fill="#f8f8f7" d="M462.5 447.5a35.8 35.8 0 0 0 3 18c-1.979 1.764-2.312 3.764-1 6 1.196-.346 1.196-.846 0-1.5a9.454 9.454 0 0 0 1.5-2.5 30.326 30.326 0 0 1 6 7 126.438 126.438 0 0 0 3.5 15c-.085 1.833-.752 3.166-2 4a11.123 11.123 0 0 0-2.5-1 36.754 36.754 0 0 1-13.5 5 34.163 34.163 0 0 0-10 1 392.58 392.58 0 0 1-28-.5l-6-2-14-9c-2.594-2.086-4.594-4.586-6-7.5.342-.838 1.008-1.172 2-1 5.903 3.65 9.903 2.15 12-4.5-1.817-3.813-4.817-6.147-9-7-12.592-11.985-18.259-26.485-17-43.5a278.137 278.137 0 0 0 32 35.5c5.747 1.266 9.081-1.067 10-7a20.442 20.442 0 0 0-3.5-6.5 241.166 241.166 0 0 0-19-18 36.167 36.167 0 0 1-8-12c-10.339-9.131-17.839-19.798-22.5-32a37.523 37.523 0 0 0 11 6.5 375.501 375.501 0 0 0 54 49c3.846 1.157 6.679-.009 8.5-3.5a463.795 463.795 0 0 0 7-28c2.937-7.924 7.104-15.091 12.5-21.5 3.928-1.325 7.928-1.658 12-1 1.054 1.388 1.22 2.888.5 4.5-13.157 17.316-17.657 36.649-13.5 58z"/><path fill="#f5fcf0" d="M572.5 390.5a104.649 104.649 0 0 1-18-4.5c-6.181-.819-12.181-.653-18 .5a169.17 169.17 0 0 0-16 3v-3c-4.312-.115-4.646-.449-1-1 2.982.832 5.982.999 9 .5.43-.92.764-1.753 1-2.5a71.937 71.937 0 0 0 21.5 0l6.5.5a369.083 369.083 0 0 1 15 6.5z"/><path fill="#95bc81" d="M223.5 379.5a18.453 18.453 0 0 1 6 .5 133.82 133.82 0 0 1 13 6 58.48 58.48 0 0 0 12 8 82.343 82.343 0 0 1 4 7.5 2349.814 2349.814 0 0 0-10-7 20.96 20.96 0 0 0-10-7 4135.488 4135.488 0 0 0-15-8z"/><path fill="#a0c68b" d="M536.5 386.5a339.687 339.687 0 0 1-19 7.5c-2.31.497-4.643.663-7 .5a61.665 61.665 0 0 0 10-5 169.17 169.17 0 0 1 16-3z"/><path fill="#a0c68c" d="M536.5 386.5c5.819-1.153 11.819-1.319 18-.5a104.649 104.649 0 0 0 18 4.5 55.533 55.533 0 0 0 9 4c1.122 1.447 2.622 2.447 4.5 3a21.967 21.967 0 0 1 5.5 8 107.034 107.034 0 0 0-17-12.5l-12-2c-8.064-4.127-16.73-5.627-26-4.5z"/><path fill="#8ec474" d="M255.5 412.5a36.077 36.077 0 0 1 7 4 44.433 44.433 0 0 0 3 5.5 381.47 381.47 0 0 0-29 2c-3.269-3.453-3.769-7.286-1.5-11.5 2.67-2.479 4.17-5.479 4.5-9 1.98-1.216 3.98-2.049 6-2.5a1689.64 1689.64 0 0 1 4.5 7.5c1.451 1.964 3.284 3.297 5.5 4z"/><path fill="#ebf8e3" d="M520.5 389.5a61.665 61.665 0 0 1-10 5 320.635 320.635 0 0 1-19 11c-.17-1.322.163-2.489 1-3.5a197.72 197.72 0 0 1 14-8.5 7.11 7.11 0 0 1 5-1 8.43 8.43 0 0 1 .5-4c2.55.455 5.384.789 8.5 1z"/><path fill="#9bbf88" d="M244.5 397.5a126.66 126.66 0 0 1 11 15c-2.216-.703-4.049-2.036-5.5-4a1689.64 1689.64 0 0 0-4.5-7.5c-2.02.451-4.02 1.284-6 2.5.262-3.199 1.928-5.199 5-6z"/><path fill="#282828" d="M361.5 351.5h2c.01 6.827 1.677 13.161 5 19a133.62 133.62 0 0 1 21 11.5 378.428 378.428 0 0 0 45 41.5 176.547 176.547 0 0 1 7.5-25 68.48 68.48 0 0 1 14.5-21.5c4.782-2.628 9.948-4.128 15.5-4.5 11.356.348 16.69 6.015 16 17-5.351 8.036-9.685 16.703-13 26-2.963 7.489-3.796 15.156-2.5 23a56.72 56.72 0 0 0-8 10h-1c0-.667-.333-1-1-1-4.157-21.351.343-40.684 13.5-58 .72-1.612.554-3.112-.5-4.5-4.072-.658-8.072-.325-12 1-5.396 6.409-9.563 13.576-12.5 21.5a463.795 463.795 0 0 1-7 28c-1.821 3.491-4.654 4.657-8.5 3.5a375.501 375.501 0 0 1-54-49 37.523 37.523 0 0 1-11-6.5c4.661 12.202 12.161 22.869 22.5 32a36.167 36.167 0 0 0 8 12 241.166 241.166 0 0 1 19 18 20.442 20.442 0 0 1 3.5 6.5c-.919 5.933-4.253 8.266-10 7a278.137 278.137 0 0 1-32-35.5c-1.259 17.015 4.408 31.515 17 43.5 4.183.853 7.183 3.187 9 7-2.097 6.65-6.097 8.15-12 4.5-3.578-2.233-6.912-4.899-10-8 1.644 3.348 4.31 6.348 8 9 1.406 2.914 3.406 5.414 6 7.5l14 9 6 2a392.58 392.58 0 0 0 28 .5l-1 2a50.47 50.47 0 0 0-9 10c-12.091 1.605-23.424-.562-34-6.5a40.905 40.905 0 0 0-11-7.5c-4.17-3.507-7.17-7.84-9-13a6.846 6.846 0 0 0-1-4 58.829 58.829 0 0 0-6.5-8 10.098 10.098 0 0 1-1.5-6 8.43 8.43 0 0 0-.5-4c-2.148-1.477-3.482-3.477-4-6-.5-8.66-.666-17.327-.5-26 3.804-6.447 4.97-13.447 3.5-21-.383-.556-.883-.889-1.5-1v-1a314 314 0 0 1-8.5-16c-.667-2-.667-4 0-6a4.457 4.457 0 0 0 1.5 2c.742-1.85 1.742-2.516 3-2-2.252-3.324-3.752-6.991-4.5-11-.949 2.7-2.783 3.533-5.5 2.5a22.885 22.885 0 0 1-3-7 85.178 85.178 0 0 0 1-17.5h6z"/><path fill="#f1faeb" d="M248.5 394.5l10 7a28.53 28.53 0 0 0 4.5 9c.789 2.212.622 4.212-.5 6a36.077 36.077 0 0 0-7-4 126.66 126.66 0 0 0-11-15l4-3z"/><path fill="#dbf0cf" d="M329.5 414.5v1a19.78 19.78 0 0 0-5.5-1l-14.5 2c1.648-1.427 3.648-2.26 6-2.5 4.852-.815 9.519-.648 14 .5z"/><path fill="#fafafa" d="M328.5 483.5a919.922 919.922 0 0 0-32-48 140.501 140.501 0 0 0 4.5-11c3.432-2.653 7.265-4.653 11.5-6l2 1c1.961-2.232 4.461-3.565 7.5-4 1.75 2.11 3.917 3.777 6.5 5a35.65 35.65 0 0 1 4 18 851.629 851.629 0 0 0-2.5 43c-.717.544-1.217 1.211-1.5 2z"/><path fill="#23331a" d="M371.5 407.5c.617.111 1.117.444 1.5 1 1.47 7.553.304 14.553-3.5 21h-1c-.098-3.75 1.069-7.083 3.5-10a28.214 28.214 0 0 0-.5-12z"/><path fill="#23331d" d="M238.5 403.5a104.957 104.957 0 0 0-6.5 10c-.667 2-.667 4 0 6 1.411 2.15 2.245 4.484 2.5 7a204.035 204.035 0 0 1 24-3c3.202.36 6.202 1.026 9 2-11.258-.442-22.591.058-34 1.5-5.318-9.59-3.652-17.423 5-23.5z"/><path fill="#93bb7e" d="m365.5 399.5 6 7v1a28.214 28.214 0 0 1 .5 12c-2.431 2.917-3.598 6.25-3.5 10-.492 2.319-1.492 4.319-3 6l1.5-12a64.71 64.71 0 0 0 4.5-9 940.775 940.775 0 0 1-6-15z"/><path fill="#90b97b" d="M258.5 401.5c1.175-.219 2.175.114 3 1 .502 3.012 2.002 5.345 4.5 7a190.728 190.728 0 0 0 2 11 12.17 12.17 0 0 0 3.5 4.5l10 1a62.347 62.347 0 0 1 12 5.5 107.61 107.61 0 0 1 5.5-12c2.228-1.613 4.728-2.28 7.5-2-1.716 1.947-3.883 3.281-6.5 4a59.836 59.836 0 0 1-4.5 13 114.392 114.392 0 0 0-28-9c-2.798-.974-5.798-1.64-9-2-8.08.528-16.08 1.528-24 3-.255-2.516-1.089-4.85-2.5-7-.667-2-.667-4 0-6a104.957 104.957 0 0 1 6.5-10h1c-.33 3.521-1.83 6.521-4.5 9-2.269 4.214-1.769 8.047 1.5 11.5a381.47 381.47 0 0 1 29-2 44.433 44.433 0 0 1-3-5.5c1.122-1.788 1.289-3.788.5-6a28.53 28.53 0 0 1-4.5-9z"/><path fill="#9fc58b" d="M597.5 415.5a217.678 217.678 0 0 0 11.5 14 7990.916 7990.916 0 0 1 8.5 25c-4.271-7.553-7.771-15.553-10.5-24l-4-2a155.113 155.113 0 0 0-5.5-13z"/><path fill="#96bb80" d="M482.5 415.5c-2.777 5.814-2.61 11.481.5 17 .667 2 .667 4 0 6a42.36 42.36 0 0 1-8.5 1.5 123.207 123.207 0 0 0-10 8.5 56.72 56.72 0 0 1 8-10 44.866 44.866 0 0 1 10-1 100.17 100.17 0 0 0-4-13c-.003-3.741 1.33-6.741 4-9z"/><path fill="#f0fceb" d="M581.5 394.5a42.47 42.47 0 0 1 5 1.5 145.223 145.223 0 0 1 17.5 25.5c5.535 3.4 8.202 8.4 8 15 5.953 9.509 10.12 19.842 12.5 31a172.572 172.572 0 0 0-7-13 7990.916 7990.916 0 0 0-8.5-25 217.678 217.678 0 0 1-11.5-14 37.79 37.79 0 0 0-6-10 21.967 21.967 0 0 0-5.5-8c-1.878-.553-3.378-1.553-4.5-3z"/><path fill="#f0fbea" d="M329.5 415.5c1.433 2.782 2.6 5.782 3.5 9a207.708 207.708 0 0 1-1.5 43c1.185 5.52 1.185 11.02 0 16.5-.336 1.03-1.003 1.53-2 1.5-.838-.342-1.172-1.008-1-2 .283-.789.783-1.456 1.5-2a851.629 851.629 0 0 1 2.5-43 35.65 35.65 0 0 0-4-18c-2.583-1.223-4.75-2.89-6.5-5-3.039.435-5.539 1.768-7.5 4l-2-1c-4.235 1.347-8.068 3.347-11.5 6a140.501 140.501 0 0 1-4.5 11c-.667 0-1-.333-1-1a59.836 59.836 0 0 0 4.5-13c2.617-.719 4.784-2.053 6.5-4a5.727 5.727 0 0 1 3-1l14.5-2a19.78 19.78 0 0 1 5.5 1z"/><path fill="#dbe4d4" d="M368.5 429.5h1c-.166 8.673 0 17.34.5 26 .518 2.523 1.852 4.523 4 6a8.43 8.43 0 0 1 .5 4c-.904.709-1.237 1.709-1 3-5.841-10.084-8.508-21.084-8-33 1.508-1.681 2.508-3.681 3-6z"/><path fill="#24321e" d="M374.5 465.5a10.098 10.098 0 0 0 1.5 6 58.829 58.829 0 0 1 6.5 8 6.846 6.846 0 0 1 1 4c-4.587-4.177-7.92-9.177-10-15-.237-1.291.096-2.291 1-3z"/><path fill="#afafaf" d="M395.5 478.5c-.992-.172-1.658.162-2 1-3.69-2.652-6.356-5.652-8-9 3.088 3.101 6.422 5.767 10 8z"/><path fill="#ebf8e4" d="M462.5 447.5c.667 0 1 .333 1 1a40.914 40.914 0 0 0 .5 9c3.037 6.099 6.537 11.765 10.5 17 1.846 7.088 2.18 14.088 1 21l-2-2c1.248-.834 1.915-2.167 2-4a126.438 126.438 0 0 1-3.5-15 30.326 30.326 0 0 0-6-7 9.454 9.454 0 0 1-1.5 2.5c1.196.654 1.196 1.154 0 1.5-1.312-2.236-.979-4.236 1-6a35.8 35.8 0 0 1-3-18z"/><path fill="#98c282" d="M329.5 415.5v-1h3c-.237 3.91.596 7.577 2.5 11l.5 51.5a325.99 325.99 0 0 0-3 14.5c-1.37-1.75-2.37-3.75-3-6 .997.03 1.664-.47 2-1.5 1.185-5.48 1.185-10.98 0-16.5a207.708 207.708 0 0 0 1.5-43c-.9-3.218-2.067-6.218-3.5-9z"/><path fill="#bedeac" d="M584.5 544.5c-2.822-6.663-7.322-11.996-13.5-16a9.9 9.9 0 0 0-2.5-5 121.83 121.83 0 0 0-27-19c-3.284-5.78-7.451-10.78-12.5-15l-2-6a175.474 175.474 0 0 0-13.5-9c-.453-.958-1.119-1.792-2-2.5a62.114 62.114 0 0 1-16-8c-4.064-.71-7.897-1.877-11.5-3.5-3.287-4.482-4.287-9.482-3-15 .523-1.723 1.523-3.056 3-4l6.5 8.5 37 25a298.631 298.631 0 0 1 21 20c12.097 7.765 22.597 17.265 31.5 28.5a190.666 190.666 0 0 1 15.5 28c-.486 1.997-1.653 3.331-3.5 4a2849.983 2849.983 0 0 0-7.5-11z"/><path fill="#97bf84" d="M474.5 474.5c.958.453 1.792 1.119 2.5 2 2.814 12.206 1.48 23.873-4 35a18.473 18.473 0 0 1-3.5 2 82.343 82.343 0 0 1 4-7.5 2.428 2.428 0 0 0-2-.5c3.057-2.476 4.39-5.809 4-10 1.18-6.912.846-13.912-1-21z"/><path fill="#94c37c" d="M513.5 474.5a175.474 175.474 0 0 1 13.5 9l2 6c5.049 4.22 9.216 9.22 12.5 15a121.83 121.83 0 0 1 27 19 9.9 9.9 0 0 1 2.5 5c6.178 4.004 10.678 9.337 13.5 16a176.925 176.925 0 0 1-10-11.5 20.64 20.64 0 0 1-6-2l1-1c-2.678-7.502-8.011-12.002-16-13.5a8.43 8.43 0 0 0-.5-4 43.164 43.164 0 0 0-11.5-5.5 257.397 257.397 0 0 1-13-14.5c-2.056-6.58-6.389-11.247-13-14a5.81 5.81 0 0 1-2-4z"/><path fill="#272b25" d="m473.5 493.5 2 2c.39 4.191-.943 7.524-4 10a16.339 16.339 0 0 0-5 2c-1.612-4.611-4.612-7.944-9-10a36.754 36.754 0 0 0 13.5-5c.902.243 1.735.577 2.5 1z"/><path fill="#a1c58d" d="M617.5 454.5a172.572 172.572 0 0 1 7 13v2c6.529 18.751 9.196 38.084 8 58a77.262 77.262 0 0 1-3 12c2.128-20.201.961-40.201-3.5-60a109.086 109.086 0 0 1-5.5-12 111.068 111.068 0 0 0-3-13z"/><path fill="#f1fdea" d="M624.5 469.5c2.37 2.913 4.204 6.246 5.5 10 3.268 16.034 4.102 32.034 2.5 48 1.196-19.916-1.471-39.249-8-58z"/><path fill="#f4f7f2" d="M392.5 496.5a40.905 40.905 0 0 1 11 7.5c10.576 5.938 21.909 8.105 34 6.5 0 .667-.333 1-1 1-1.894.548-3.56 1.548-5 3-.665 3.338-2.332 6.005-5 8-2.113-3.948-5.113-7.115-9-9.5a10.098 10.098 0 0 0-6-1.5l-7-2.5a207.002 207.002 0 0 1-12-12.5z"/><path fill="#e7f7df" d="M471.5 505.5a2.428 2.428 0 0 1 2 .5 82.343 82.343 0 0 0-4 7.5c-1.679 1.5-3.012 3.333-4 5.5-.832.688-1.498.521-2-.5a27.085 27.085 0 0 0 3-11 16.339 16.339 0 0 1 5-2z"/><path fill="#98bf84" d="M446.5 500.5c-1.455 4.959-4.289 8.959-8.5 12-.392 3.572-2.059 6.239-5 8-2.314 4.335-4.814 8.335-7.5 12a63.947 63.947 0 0 1 11-21c.667 0 1-.333 1-1a50.47 50.47 0 0 1 9-10z"/><path fill="#effbe8" d="M411.5 511.5a10.098 10.098 0 0 1 6 1.5c3.887 2.385 6.887 5.552 9 9.5 2.668-1.995 4.335-4.662 5-8 1.44-1.452 3.106-2.452 5-3a63.947 63.947 0 0 0-11 21c-1.617 4.04-2.45 8.373-2.5 13-1.372 1.41-2.205 3.077-2.5 5-.809 1.792-1.309 3.792-1.5 6-.21-1.558-.71-2.891-1.5-4a84.902 84.902 0 0 1 .5-13 66.197 66.197 0 0 0 6.5-14.5c-.701-2.38-1.867-4.547-3.5-6.5a89.597 89.597 0 0 0-9.5-7z"/><path fill="#92bb7d" d="M336.5 499.5c1.747 1.928 3.413 4.094 5 6.5a4.934 4.934 0 0 0 3 .5c.839 6.332 3.339 11.998 7.5 17a8.43 8.43 0 0 1 .5 4c1.322-.17 2.489.163 3.5 1a54.835 54.835 0 0 0 4 9 34.04 34.04 0 0 1 8 7c.805 3.196.638 6.196-.5 9a24.935 24.935 0 0 0-.5-7c-7.969-7.316-14.469-15.65-19.5-25a169.367 169.367 0 0 0-11-22z"/><path fill="#263621" d="M347.5 521.5c5.031 9.35 11.531 17.684 19.5 25 .497 2.31.663 4.643.5 7h-13c2.837-1.902 6.171-2.569 10-2a52.56 52.56 0 0 0-1.5-7c-7.483-6.279-12.649-13.945-15.5-23z"/><path fill="#a8c399" d="M345.5 553.5c-9.416 2.314-19.083 3.98-29 5 1.976-1.511 4.309-2.344 7-2.5a8.43 8.43 0 0 0-4-.5c8.461-1.415 17.128-2.081 26-2z"/><path fill="#dbf4cd" d="M420.5 550.5c-.398 7.766 1.935 14.433 7 20 2.336 4.849 5.669 9.016 10 12.5-2.098-.032-4.098-.699-6-2-6.174-6.835-10.674-14.669-13.5-23.5a12.93 12.93 0 0 1-.5-5c.79 1.109 1.29 2.442 1.5 4 .191-2.208.691-4.208 1.5-6z"/><path fill="#96c180" d="M425.5 532.5a41.562 41.562 0 0 0 0 17.5l-.5 2.5a7.293 7.293 0 0 0-2-3c-.559 7.433.941 14.433 4.5 21-5.065-5.567-7.398-12.234-7-20 .295-1.923 1.128-3.59 2.5-5 .05-4.627.883-8.96 2.5-13z"/><path fill="#98bd86" d="M316.5 558.5a14.698 14.698 0 0 1-3 3.5 56.05 56.05 0 0 0-21.5 13.5 16.242 16.242 0 0 0 0 8 26.51 26.51 0 0 0 11.5 9c-4.199.064-7.866-1.269-11-4h-1c-2.668-5.794-2.501-11.46.5-17a69.633 69.633 0 0 1 11.5-7.5c4.712-1.174 9.045-3.007 13-5.5z"/><path fill="#282827" d="M189.5 366.5c4.066 1.022 7.399 3.022 10 6a1596.333 1596.333 0 0 0-5.5 9 176.404 176.404 0 0 0-6 16 57.565 57.565 0 0 0-14.5 9.5c-7.237 5.546-9.571 12.713-7 21.5 1.649-5.128 4.649-9.294 9-12.5 6.875-.448 9.375 2.718 7.5 9.5-4.821 8.875-5.821 18.208-3 28 3.066 2.617 6.566 4.283 10.5 5 1.938 1.663 4.272 2.329 7 2 .271-1.88-.396-3.213-2-4-3.678-9.291-4.845-18.958-3.5-29 3.667-5.333 7.333-5.333 11 0a195.6 195.6 0 0 0 2 22 47.848 47.848 0 0 1 4.5 8c-.111.617-.444 1.117-1 1.5 1.601.273 3.101.773 4.5 1.5 1.345-3.897 3.845-5.564 7.5-5a3.647 3.647 0 0 0 1 1.5 15.87 15.87 0 0 0-5 8.5c-2.341 1.477-4.674 1.81-7 1-1.147.318-1.981.984-2.5 2a3.943 3.943 0 0 0-2-1c-1.481 1.648-3.315 2.648-5.5 3a37.811 37.811 0 0 0-12-2.5 62.85 62.85 0 0 0-13-5.5h-1a120.69 120.69 0 0 1-9.5-9 941.984 941.984 0 0 0-44.5 27.5 184.511 184.511 0 0 1-18 6c-7.279 6.788-13.279 14.622-18 23.5a89.73 89.73 0 0 0 11.5 11 235.305 235.305 0 0 0 17 20c9.624 13.798 15.29 29.131 17 46a454.026 454.026 0 0 1 2.5 30l-4.5 53 31-38a592.329 592.329 0 0 0 30.5-27.5 1196.646 1196.646 0 0 0 49-32 539.72 539.72 0 0 1 37-18 302.72 302.72 0 0 0 37-10 833.05 833.05 0 0 1 35-4 1165.92 1165.92 0 0 0-16-28.5c-2.144-2.622-3.477-5.622-4-9a39.583 39.583 0 0 0-4.5-11 18.924 18.924 0 0 1-3-5c-.671-.752-1.504-1.086-2.5-1 0-.667-.333-1-1-1a30521.128 30521.128 0 0 1-24.5-39 16.44 16.44 0 0 0-7.5-4c-2.184-2.085-4.851-3.085-8-3a531.962 531.962 0 0 1-15.5-4c-1.07.028-1.903.361-2.5 1h-12a177.86 177.86 0 0 1-13 2c-.986 6.295-3.32 11.962-7 17 .556-4.224-1.277-6.557-5.5-7-1.129 1.641-2.629 2.641-4.5 3 3.095-5.785 5.095-11.952 6-18.5-2.68-3.813-4.847-7.979-6.5-12.5-.503-3.864 1.164-6.531 5-8 4.273-9.942 10.44-18.276 18.5-25a20.96 20.96 0 0 1 10 7l-4 3c-3.072.801-4.738 2.801-5 6h-1c-8.652 6.077-10.318 13.91-5 23.5 11.409-1.442 22.742-1.942 34-1.5a114.392 114.392 0 0 1 28 9c0 .667.333 1 1 1a919.922 919.922 0 0 1 32 48c-.172.992.162 1.658 1 2 .63 2.25 1.63 4.25 3 6a25.84 25.84 0 0 0 4 8 169.367 169.367 0 0 1 11 22c2.851 9.055 8.017 16.721 15.5 23a52.56 52.56 0 0 1 1.5 7c-3.829-.569-7.163.098-10 2h-9c-8.872-.081-17.539.585-26 2l-38 9.5a274.066 274.066 0 0 0-40 19 345.028 345.028 0 0 1-42 27 963.987 963.987 0 0 0-38.5 35.5 4428.21 4428.21 0 0 0-39.5 49.5c-9.15 4.524-12.983 1.691-11.5-8.5a76.296 76.296 0 0 0 4-13 2387.361 2387.361 0 0 0 5.5-58.5 222.617 222.617 0 0 0-4.5-40.5 27639.053 27639.053 0 0 1-16-30 102835.49 102835.49 0 0 0-28-30c-1.373-2.195-1.706-4.529-1-7A251.074 251.074 0 0 1 92.5 478a156.282 156.282 0 0 1 23-8 847.854 847.854 0 0 1 42-27c-4.408-10.667-4.908-21.5-1.5-32.5 5.766-9.1 13.433-16.1 23-21 2.26-8.302 5.76-15.969 10.5-23z"/><path fill="#98c183" d="M175.5 510.5a270.649 270.649 0 0 0 13 3 3.647 3.647 0 0 1-1 1.5c1.537 1.11 2.203 2.61 2 4.5 3.638.238 6.471 1.904 8.5 5a41.348 41.348 0 0 0 7 10 12.93 12.93 0 0 1 .5 5c2.273-1.235 4.106-.902 5.5 1a32.46 32.46 0 0 1 .5 8c-.875-2.068-2.041-4.068-3.5-6l-1 17c-.69 1.85-1.856 3.184-3.5 4-4.353.171-8.353 1.505-12 4a483.123 483.123 0 0 0-1.5 31c-.698 1.191-1.531 2.191-2.5 3-13.589 3.739-19.255-1.261-17-15a.91.91 0 0 1 .5-1 133.62 133.62 0 0 1 2.5 13c4.864 1.312 9.697 1.312 14.5 0a57.314 57.314 0 0 0 1.5-14 253.893 253.893 0 0 1-.5-18 95.366 95.366 0 0 0 8.5-4.5 26.67 26.67 0 0 0 6.5-1.5c1.416-6.215 1.916-12.548 1.5-19a76.216 76.216 0 0 0-22-1c-1.213-.247-1.88-.914-2-2 1.289 1.001 2.622.834 4-.5l19-1c-7.681-11.146-17.348-19.979-29-26.5z"/><path fill="#95c07e" d="M260.5 509.5a185.931 185.931 0 0 1 9.5 16c.5 6.658.666 13.325.5 20-.767.672-1.434 1.505-2 2.5-15.303 2.318-27.969 9.318-38 21-5.184.816-10.184.65-15-.5a66.755 66.755 0 0 0 14-1.5c2.654-3.498 5.987-5.998 10-7.5v-5h3v-3a382.95 382.95 0 0 0 24-5c4.169-11.823 2.336-22.49-5.5-32a12.93 12.93 0 0 1-.5-5z"/><path fill="#eefde6" d="M264.5 492.5c2.156 2.937 3.656 6.271 4.5 10-.196 9.37 1.304 18.37 4.5 27a43.233 43.233 0 0 0 16 .5 10.515 10.515 0 0 1 3-2.5 20.69 20.69 0 0 0-1 5 96.187 96.187 0 0 1-19-1l-2 14c.166-6.675 0-13.342-.5-20a185.931 185.931 0 0 0-9.5-16 60.364 60.364 0 0 0-5.5-8c-1.009-1.525-1.509-3.192-1.5-5 5.772 5.987 10.272 12.987 13.5 21l1.5-1.5c-1.333-1.667-1.333-3.333 0-5-.34-6.184-1.673-12.35-4-18.5z"/><path fill="#95bf80" d="M325.5 503.5h1c.523 3.378 1.856 6.378 4 9h-11c.166 7.341 0 14.674-.5 22l-1.5 1.5c-5.323.499-10.656.666-16 .5-1.845-5.445-2.512-11.112-2-17 .617.111 1.117.444 1.5 1a99.101 99.101 0 0 0 1.5 13.5c4 .667 8 .667 12 0 1.835-.928 2.168-2.094 1-3.5a4.457 4.457 0 0 1 1.5-2l1-16a81.477 81.477 0 0 0 8.5-2.5c-.923-2.041-1.256-4.208-1-6.5z"/><path fill="#f7f8f6" d="M173.5 462.5a801.09 801.09 0 0 1-13 10.5c-1.964 1.451-3.297 3.284-4 5.5l-1 2c-.722.418-1.222 1.084-1.5 2a90.455 90.455 0 0 0 0 19c2.273 2.128 4.773 3.795 7.5 5 .97 1.129 2.136 2.129 3.5 3 6.252 1.678 12.085 4.178 17.5 7.5l18 18a138.11 138.11 0 0 0-14.5 1.5c-3.107-1.601-5.273-3.935-6.5-7h-4c.077-3.009-1.256-5.176-4-6.5a111.503 111.503 0 0 0-21 1.5c.259-2.489-.741-4.156-3-5l-2-1a27.68 27.68 0 0 0-6-8c-.233-1.562-.9-2.895-2-4-3.322-5.478-7.655-9.978-13-13.5-7.445-1.696-14.778-1.863-22-.5a5.727 5.727 0 0 0-3 1c-.617.111-1.117.444-1.5 1a121.244 121.244 0 0 0 0 22 26.66 26.66 0 0 1 8 7l1-1a15.256 15.256 0 0 0 4.5 1.5 8.905 8.905 0 0 0 4 3c.837 1.011 1.17 2.178 1 3.5-2.861.013-3.861 1.179-3 3.5-2.381 1.247-2.047 1.58 1 1 1.88-2.689 4.213-3.522 7-2.5l4 3 4 8c-.47 2.846.363 5.179 2.5 7a416.195 416.195 0 0 1 5.5 25.5c-.455 2.312-1.455 4.312-3 6 1.548 3.875.881 7.375-2 10.5a11.25 11.25 0 0 1 1 3.5 66.803 66.803 0 0 0-2 9l2 25.5a68.196 68.196 0 0 1 14 1c1.855.16 3.188-.507 4-2a242.287 242.287 0 0 1 18-43h1c-2.255 13.739 3.411 18.739 17 15 1.644.214 3.144-.12 4.5-1l1-32a156.265 156.265 0 0 0 10.5-5c1.644-.816 2.81-2.15 3.5-4l1-17c1.459 1.932 2.625 3.932 3.5 6a197.957 197.957 0 0 1 1.5 17c.377 1.442 1.21 2.442 2.5 3 4.816 1.15 9.816 1.316 15 .5 10.031-11.682 22.697-18.682 38-21 .566-.995 1.233-1.828 2-2.5l2-14a96.187 96.187 0 0 0 19 1 20.69 20.69 0 0 1 1-5c1.256-3.516 3.256-6.516 6-9 .667 0 1 .333 1 1-.512 5.888.155 11.555 2 17 .111.617.444 1.117 1 1.5 6.018.988 11.851.488 17.5-1.5a242.43 242.43 0 0 0 .5-22 32.462 32.462 0 0 0 8-.5c.556-.383.889-.883 1-1.5h1a1165.92 1165.92 0 0 1 16 28.5 833.05 833.05 0 0 0-35 4 302.72 302.72 0 0 1-37 10 539.72 539.72 0 0 0-37 18 1196.646 1196.646 0 0 1-49 32 592.329 592.329 0 0 1-30.5 27.5l-31 38 4.5-53a454.026 454.026 0 0 0-2.5-30c-1.71-16.869-7.376-32.202-17-46a235.305 235.305 0 0 1-17-20 89.73 89.73 0 0 1-11.5-11c4.721-8.878 10.721-16.712 18-23.5a184.511 184.511 0 0 0 18-6 941.984 941.984 0 0 1 44.5-27.5 120.69 120.69 0 0 0 9.5 9z"/><path fill="#eaf8e0" d="M203.5 563.5a156.265 156.265 0 0 1-10.5 5l-1 32c-1.356.88-2.856 1.214-4.5 1 .969-.809 1.802-1.809 2.5-3a483.123 483.123 0 0 1 1.5-31c3.647-2.495 7.647-3.829 12-4z"/><path fill="#f0fde8" d="M329.5 512.5c-.111.617-.444 1.117-1 1.5a32.462 32.462 0 0 1-8 .5c.166 7.341 0 14.674-.5 22-5.649 1.988-11.482 2.488-17.5 1.5-.556-.383-.889-.883-1-1.5 5.344.166 10.677-.001 16-.5l1.5-1.5c.5-7.326.666-14.659.5-22h10z"/><path fill="#f2fbec" d="M99.5 493.5a264.95 264.95 0 0 0 .5 23 40.077 40.077 0 0 0 10.5 4 47.13 47.13 0 0 1 11 12c-2.787-1.022-5.12-.189-7 2.5-3.047.58-3.381.247-1-1-.861-2.321.139-3.487 3-3.5.17-1.322-.163-2.489-1-3.5a8.905 8.905 0 0 1-4-3 15.256 15.256 0 0 1-4.5-1.5l-1 1a26.66 26.66 0 0 0-8-7 121.244 121.244 0 0 1 0-22c.383-.556.883-.889 1.5-1z"/><path fill="#98c282" d="M145.5 518.5l2 1a28.53 28.53 0 0 0 4.5 9c2.56-3.462 6.06-4.796 10.5-4 5.352-.819 9.685.848 13 5a11.743 11.743 0 0 1 3 5 98.521 98.521 0 0 0-9-7.5 98.432 98.432 0 0 0-14-.5v3c-2.781 1.323-5.447 1.156-8-.5a3.943 3.943 0 0 0 1-2 17.02 17.02 0 0 1-3-8.5z"/><path fill="#f2feea" d="M147.5 519.5c2.259.844 3.259 2.511 3 5a111.503 111.503 0 0 1 21-1.5c2.744 1.324 4.077 3.491 4 6.5-3.315-4.152-7.648-5.819-13-5-4.44-.796-7.94.538-10.5 4a28.53 28.53 0 0 1-4.5-9z"/><path fill="#f0fdea" d="M161.5 506.5h4c3.03 1.903 6.363 3.237 10 4 11.652 6.521 21.319 15.354 29 26.5l-19 1c-1.378 1.334-2.711 1.501-4 .5-.238-1.904-1.238-3.238-3-4a11.743 11.743 0 0 0-3-5h4c1.227 3.065 3.393 5.399 6.5 7a138.112 138.112 0 0 1 14.5-1.5l-18-18c-5.415-3.322-11.248-5.822-17.5-7.5-1.364-.871-2.53-1.871-3.5-3z"/><path fill="#97be84" d="M102.5 492.5c5.195-.321 10.195.013 15 1a84.902 84.902 0 0 0-13 .5 6.978 6.978 0 0 0-3.5 2.5 93.8 93.8 0 0 0 .5 20c3.665.002 6.665 1.335 9 4a40.077 40.077 0 0 1-10.5-4 264.95 264.95 0 0 1-.5-23 5.727 5.727 0 0 1 3-1z"/><path fill="#a0c48d" d="M155.5 480.5v21c3.751.912 7.084 2.578 10 5h-4c-2.727-1.205-5.227-2.872-7.5-5a90.455 90.455 0 0 1 0-19c.278-.916.778-1.582 1.5-2z"/><path fill="#9bbf87" d="M117.5 493.5c2.925-.04 5.591.793 8 2.5a181.137 181.137 0 0 1 12 10.5c1.1 1.105 1.767 2.438 2 4a162.014 162.014 0 0 1-11-10.5 37.653 37.653 0 0 0-10-4.5c-.798-.457-1.131-1.124-1-2z"/><path fill="#8ec472" d="M117.5 493.5c-.131.876.202 1.543 1 2a37.653 37.653 0 0 1 10 4.5 162.014 162.014 0 0 0 11 10.5 27.68 27.68 0 0 1 6 8 17.02 17.02 0 0 0 3 8.5 3.943 3.943 0 0 1-1 2c2.553 1.656 5.219 1.823 8 .5v-3a98.432 98.432 0 0 1 14 .5 98.521 98.521 0 0 1 9 7.5c1.762.762 2.762 2.096 3 4 .12 1.086.787 1.753 2 2 7.35-.733 14.684-.4 22 1 .416 6.452-.084 12.785-1.5 19a26.67 26.67 0 0 1-6.5 1.5 95.366 95.366 0 0 1-8.5 4.5c-.047 5.982.12 11.982.5 18a57.314 57.314 0 0 1-1.5 14c-4.803 1.312-9.636 1.312-14.5 0a133.62 133.62 0 0 0-2.5-13 .91.91 0 0 0-.5 1h-1c-2.448 2.182-4.448 4.848-6 8-1.22-1.211-2.387-1.211-3.5 0 .253 2.633.253 5.3 0 8a125.57 125.57 0 0 0-9.5 25c-4.531 1.311-9.031 1.311-13.5 0a60.682 60.682 0 0 1-1-20c2.667-11.667 4.5-23.5 5.5-35.5-2.359-10.957-5.859-21.457-10.5-31.5a428.45 428.45 0 0 0-5.5-5l-4-3a47.13 47.13 0 0 0-11-12c-2.335-2.665-5.335-3.998-9-4a93.8 93.8 0 0 1-.5-20 6.978 6.978 0 0 1 3.5-2.5 84.902 84.902 0 0 1 13-.5z"/><path fill="#eefce6" d="M102.5 492.5c7.222-1.363 14.555-1.196 22 .5 5.345 3.522 9.678 8.022 13 13.5a181.137 181.137 0 0 0-12-10.5c-2.409-1.707-5.075-2.54-8-2.5-4.805-.987-9.805-1.321-15-1z"/><path fill="#23351c" d="M316.5 486.5c.996-.086 1.829.248 2.5 1a18.924 18.924 0 0 0 3 5 39.583 39.583 0 0 1 4.5 11h-1a126.38 126.38 0 0 0-9-17z"/><path fill="#99c382" d="M309.5 479.5a27.603 27.603 0 0 0-5-1.5c-1.333-.667-1.333-1.333 0-2a30.326 30.326 0 0 1-7-6 52.3 52.3 0 0 0-14 .5c.453-.958 1.119-1.792 2-2.5a49.226 49.226 0 0 1 14 0c4.391 2.974 7.725 6.808 10 11.5z"/><path fill="#fafcf9" d="M253.5 475.5c4.909 4.807 8.576 10.473 11 17 2.327 6.15 3.66 12.316 4 18.5-1.333 1.667-1.333 3.333 0 5l-1.5 1.5c-3.228-8.013-7.728-15.013-13.5-21a166.431 166.431 0 0 1-9-15 51.569 51.569 0 0 1 1-7c-3.461.611-6.128-.556-8-3.5a3.43 3.43 0 0 1 2.5-1.5 245.434 245.434 0 0 0 13.5 6z"/><path fill="#95b982" d="M173.5 462.5h1c.453.958 1.119 1.792 2 2.5a400.596 400.596 0 0 1 12 6.5 51.586 51.586 0 0 1-13-5 111.02 111.02 0 0 0-8 2.5 60.212 60.212 0 0 1-11 9.5c.703-2.216 2.036-4.049 4-5.5a801.09 801.09 0 0 0 13-10.5z"/><path fill="#f3fcee" d="M245.5 436.5h12c.543.06.876.393 1 1a6.802 6.802 0 0 1-3 1.5 66.06 66.06 0 0 0 8 5c.752.671 1.086 1.504 1 2.5a47 47 0 0 0-8-4.5 90.455 90.455 0 0 0-19 0 9.454 9.454 0 0 0-1.5 2.5c-.924 7.108-.591 14.108 1 21 6.521 1.676 12.021 5.009 16.5 10a245.434 245.434 0 0 1-13.5-6 3.43 3.43 0 0 0-2.5 1.5c1.872 2.944 4.539 4.111 8 3.5a51.569 51.569 0 0 0-1 7 80.623 80.623 0 0 0-8-9c-.011-1.517-.677-2.684-2-3.5-4.6-2.431-7.933-5.931-10-10.5a36.87 36.87 0 0 1 5.5 2c1.646-1.641 2.646-1.307 3 1-.722-2.939-1.222-5.773-1.5-8.5.924-1.811 1.757-1.645 2.5.5a186.77 186.77 0 0 0 0-11 4.59 4.59 0 0 1 2.5-2.5 74.086 74.086 0 0 0 12-1.5 44.093 44.093 0 0 1-3-2z"/><path fill="#8ec473" d="M188.5 471.5c2.231 1.701 4.731 3.034 7.5 4 1.468 4.418-.032 6.752-4.5 7v8c2.925-.04 5.591.793 8 2.5a15.096 15.096 0 0 0 3 6 66.963 66.963 0 0 1 13 8.5 119.32 119.32 0 0 1 12 14 175.679 175.679 0 0 1 3.5 10 21.659 21.659 0 0 1 6.5-4c-4.112-14.527-11.779-27.193-23-38-2.932-3.365-4.932-7.198-6-11.5.185-2.761 1.518-4.761 4-6a53.672 53.672 0 0 0 10.5-5.5c.868 3.545 2.368 4.211 4.5 2 3.38.587 6.38 1.921 9 4a80.623 80.623 0 0 1 8 9 166.431 166.431 0 0 0 9 15c-.009 1.808.491 3.475 1.5 5a60.364 60.364 0 0 1 5.5 8 12.93 12.93 0 0 0 .5 5c7.836 9.51 9.669 20.177 5.5 32a382.95 382.95 0 0 1-24 5v3h-3v5c-4.013 1.502-7.346 4.002-10 7.5a66.755 66.755 0 0 1-14 1.5c-1.29-.558-2.123-1.558-2.5-3a197.957 197.957 0 0 0-1.5-17 32.462 32.462 0 0 0-.5-8c-1.394-1.902-3.227-2.235-5.5-1a12.93 12.93 0 0 0-.5-5 41.348 41.348 0 0 1-7-10c-2.029-3.096-4.862-4.762-8.5-5 .203-1.89-.463-3.39-2-4.5a3.647 3.647 0 0 0 1-1.5 270.649 270.649 0 0 1-13-3c-3.637-.763-6.97-2.097-10-4-2.916-2.422-6.249-4.088-10-5v-21l1-2a60.212 60.212 0 0 0 11-9.5 111.02 111.02 0 0 1 8-2.5 51.586 51.586 0 0 0 13 5z"/><path fill="#f1feec" d="M207.5 483.5a15.35 15.35 0 0 0 7 6c11.221 10.807 18.888 23.473 23 38a21.659 21.659 0 0 0-6.5 4 175.679 175.679 0 0 0-3.5-10c.996-.086 1.829.248 2.5 1 .098 2.119.931 3.786 2.5 5a3.647 3.647 0 0 0 1.5-1c.667-2 .667-4 0-6a444.943 444.943 0 0 0-12-21c-.667 1.333-1.333 1.333-2 0a4.934 4.934 0 0 1-.5-3 29.812 29.812 0 0 1-5 .5c.242-2.072-.091-4.239-1-6.5-4.012-.66-6.012-2.994-6-7z"/><path fill="#96bf81" d="M188.5 471.5c4.494.63 8.827 1.63 13 3-.709.904-1.709 1.237-3 1 1.362 5.559-.638 9.225-6 11a177.15 177.15 0 0 1 14 10.5c3.607 3.098 6.607 6.598 9 10.5a66.963 66.963 0 0 0-13-8.5 15.096 15.096 0 0 1-3-6c-2.409-1.707-5.075-2.54-8-2.5v-8c4.468-.248 5.968-2.582 4.5-7-2.769-.966-5.269-2.299-7.5-4z"/><path fill="#f9fcf7" d="M205.5 473.5c1.902 2.837 2.569 6.171 2 10-.012 4.006 1.988 6.34 6 7 .909 2.261 1.242 4.428 1 6.5a29.812 29.812 0 0 0 5-.5 4.934 4.934 0 0 0 .5 3c.667 1.333 1.333 1.333 2 0a444.943 444.943 0 0 1 12 21c.667 2 .667 4 0 6a3.647 3.647 0 0 1-1.5 1c-1.569-1.214-2.402-2.881-2.5-5-.671-.752-1.504-1.086-2.5-1a119.32 119.32 0 0 0-12-14c-2.393-3.902-5.393-7.402-9-10.5a177.15 177.15 0 0 0-14-10.5c5.362-1.775 7.362-5.441 6-11 1.291.237 2.291-.096 3-1l4-1z"/><path fill="#91bd7b" d="M224.5 458.5c2.067 4.569 5.4 8.069 10 10.5 1.323.816 1.989 1.983 2 3.5-2.62-2.079-5.62-3.413-9-4-2.132 2.211-3.632 1.545-4.5-2a53.672 53.672 0 0 1-10.5 5.5c-2.482 1.239-3.815 3.239-4 6 1.068 4.302 3.068 8.135 6 11.5a15.35 15.35 0 0 1-7-6c.569-3.829-.098-7.163-2-10 8.396-2.397 14.73-7.397 19-15z"/><path fill="#96c081" d="M264.5 446.5a39.344 39.344 0 0 1 10 11 77.12 77.12 0 0 1-16-12.5 64.38 64.38 0 0 0-19-1 11.295 11.295 0 0 0-2 4 127.82 127.82 0 0 1 2 17.5l9-.5c-.896 3.818.771 6.151 5 7a240.603 240.603 0 0 1 10.5 12.5c3.065 5.266 5.398 10.933 7 17a274.312 274.312 0 0 0 2.5 25c5.568 2.489 11.234 2.656 17 .5 1.668-3.885 4.334-6.718 8-8.5-2.744 2.484-4.744 5.484-6 9a10.515 10.515 0 0 0-3 2.5 43.233 43.233 0 0 1-16-.5c-3.196-8.63-4.696-17.63-4.5-27-.844-3.729-2.344-7.063-4.5-10-2.424-6.527-6.091-12.193-11-17-4.479-4.991-9.979-8.324-16.5-10-1.591-6.892-1.924-13.892-1-21a9.454 9.454 0 0 1 1.5-2.5 90.455 90.455 0 0 1 19 0 47 47 0 0 1 8 4.5z"/><path fill="#a3ad9c" d="M195.5 456.5c1.604.787 2.271 2.12 2 4-2.728.329-5.062-.337-7-2 2.281.423 3.948-.244 5-2z"/><path fill="#252a23" d="M225.5 455.5a5.727 5.727 0 0 0-1 3c-4.27 7.603-10.604 12.603-19 15l-4 1a74.943 74.943 0 0 0-13-3 400.596 400.596 0 0 0-12-6.5c-.881-.708-1.547-1.542-2-2.5a62.85 62.85 0 0 1 13 5.5 37.811 37.811 0 0 1 12 2.5c2.185-.352 4.019-1.352 5.5-3a3.943 3.943 0 0 1 2 1c.519-1.016 1.353-1.682 2.5-2 2.326.81 4.659.477 7-1a15.87 15.87 0 0 1 5-8.5 3.647 3.647 0 0 1-1-1.5c-3.655-.564-6.155 1.103-7.5 5a15.256 15.256 0 0 0-4.5-1.5c.556-.383.889-.883 1-1.5.996.086 1.829-.248 2.5-1a28.926 28.926 0 0 1 3.5-5c1.871-.359 3.371-1.359 4.5-3 4.223.443 6.056 2.776 5.5 7z"/><path fill="#8ec472" d="M274.5 457.5a87.444 87.444 0 0 1 9 13 52.3 52.3 0 0 1 14-.5 30.326 30.326 0 0 0 7 6c-1.333.667-1.333 1.333 0 2 1.747.352 3.414.852 5 1.5a25.657 25.657 0 0 0 6 6c.667 0 1 .333 1 1a126.38 126.38 0 0 1 9 17c-.256 2.292.077 4.459 1 6.5a81.477 81.477 0 0 1-8.5 2.5l-1 16a4.457 4.457 0 0 0-1.5 2c1.168 1.406.835 2.572-1 3.5-4 .667-8 .667-12 0a99.101 99.101 0 0 1-1.5-13.5c-.383-.556-.883-.889-1.5-1 0-.667-.333-1-1-1-3.666 1.782-6.332 4.615-8 8.5-5.766 2.156-11.432 1.989-17-.5a274.312 274.312 0 0 1-2.5-25c-1.602-6.067-3.935-11.734-7-17a240.603 240.603 0 0 0-10.5-12.5c-4.229-.849-5.896-3.182-5-7-2.913.29-5.913.457-9 .5a127.82 127.82 0 0 0-2-17.5 11.295 11.295 0 0 1 2-4 64.38 64.38 0 0 1 19 1 77.12 77.12 0 0 0 16 12.5z"/><path fill="#f5f4f5" d="M245.5 436.5a44.093 44.093 0 0 0 3 2 74.086 74.086 0 0 1-12 1.5 4.59 4.59 0 0 0-2.5 2.5 186.77 186.77 0 0 1 0 11c-.743-2.145-1.576-2.311-2.5-.5.278 2.727.778 5.561 1.5 8.5-.354-2.307-1.354-2.641-3-1a36.87 36.87 0 0 0-5.5-2 5.727 5.727 0 0 1 1-3c3.68-5.038 6.014-10.705 7-17a177.86 177.86 0 0 0 13-2z"/><path fill="#84907a" d="M275.5 439.5c3.149-.085 5.816.915 8 3-3.149.085-5.816-.915-8-3z"/><path fill="#f6f8f4" d="M257.5 436.5c.597-.639 1.43-.972 2.5-1a531.962 531.962 0 0 0 15.5 4c2.184 2.085 4.851 3.085 8 3a16.44 16.44 0 0 1 7.5 4 30521.128 30521.128 0 0 0 24.5 39 25.657 25.657 0 0 1-6-6c-2.275-4.692-5.609-8.526-10-11.5a49.226 49.226 0 0 0-14 0c-.881.708-1.547 1.542-2 2.5a87.444 87.444 0 0 0-9-13 39.344 39.344 0 0 0-10-11c.086-.996-.248-1.829-1-2.5a66.06 66.06 0 0 1-8-5 6.802 6.802 0 0 0 3-1.5c-.124-.607-.457-.94-1-1z"/><path fill="#252525" d="M291.5 588.5h1c.011 1.517.677 2.684 2 3.5a34.464 34.464 0 0 0 8.5 3.5 6.293 6.293 0 0 1 3-1 81.02 81.02 0 0 0 18.5 2.5 186.025 186.025 0 0 0 42 7.5 263.338 263.338 0 0 0 23 3.5c4.493 2.96 9.493 4.293 15 4 8.668 2.549 16.835 6.049 24.5 10.5a3.647 3.647 0 0 1 1.5-1c5.353 1.722 10.353 4.056 15 7a52.587 52.587 0 0 1 17 0h1c2.15 1.17 4.484 2.17 7 3 1 1.667 2.333 3 4 4a6.802 6.802 0 0 1-3 1.5c3.333.667 6.667.667 10 0-2.71-1.668-2.543-2.501.5-2.5 28.276 12.602 57.776 16.102 88.5 10.5.556-.383.889-.883 1-1.5 4.091-1.395 8.424-2.062 13-2 0 .667.333 1 1 1a87.81 87.81 0 0 1 2.5 31l-9 30a22.755 22.755 0 0 1-4 5 205.286 205.286 0 0 0 0 48 213.542 213.542 0 0 1 11 31 165.263 165.263 0 0 1 16 39 99.553 99.553 0 0 1 20 21c4.333 6.337 7.833 13.004 10.5 20h-191l-30.5-61a1506.534 1506.534 0 0 1-19-85 174.575 174.575 0 0 1-5-14c-.368-1.41-1.201-2.41-2.5-3-10.839 13.735-19.005 29.068-24.5 46a479.772 479.772 0 0 0-7.5 23.5 188.326 188.326 0 0 0 9.5 20.5 172.386 172.386 0 0 1 6 20c11.025 16.238 18.858 33.904 23.5 53h-196a50.88 50.88 0 0 1 1-7c-6.427-27.055-7.927-54.388-4.5-82a1127.086 1127.086 0 0 0 9-41 277.085 277.085 0 0 1 20-58l26-40a1076.725 1076.725 0 0 1 44.5-51z"/><path fill="#8bb376" d="M333.5 597.5c-9.594-1.071-18.928-2.738-28-5a45.747 45.747 0 0 1 12 1c1.529-.029 2.696-.696 3.5-2a220.495 220.495 0 0 1 12.5 6z"/><path fill="#97bf82" d="M125.5 535.5a428.45 428.45 0 0 1 5.5 5c4.641 10.043 8.141 20.543 10.5 31.5-1 12-2.833 23.833-5.5 35.5a60.682 60.682 0 0 0 1 20c4.469 1.311 8.969 1.311 13.5 0a125.57 125.57 0 0 1 9.5-25c.253-2.7.253-5.367 0-8 1.113-1.211 2.28-1.211 3.5 0 1.552-3.152 3.552-5.818 6-8a242.287 242.287 0 0 0-18 43 128.507 128.507 0 0 1-16-.5 9.454 9.454 0 0 1-1.5-2.5c-.667-7-.667-14 0-21 6.258-19.155 5.925-38.155-1-57a28.926 28.926 0 0 0-3.5-5l-4-8z"/><path fill="#8eb17a" d="M333.5 597.5c8.034-.114 15.701 1.22 23 4a50.464 50.464 0 0 1-10-.5 310.006 310.006 0 0 1-13-3.5z"/><path fill="#25341e" d="M292.5 588.5c3.134 2.731 6.801 4.064 11 4h2c9.072 2.262 18.406 3.929 28 5a310.006 310.006 0 0 0 13 3.5c3.317.498 6.65.665 10 .5h1a114.902 114.902 0 0 0 9 3 186.025 186.025 0 0 1-42-7.5 81.02 81.02 0 0 1-18.5-2.5 6.293 6.293 0 0 0-3 1 34.464 34.464 0 0 1-8.5-3.5c-1.323-.816-1.989-1.983-2-3.5z"/><path fill="#f3fded" d="M129.5 543.5a28.926 28.926 0 0 1 3.5 5c6.925 18.845 7.258 37.845 1 57-.667 7-.667 14 0 21 .374.916.874 1.75 1.5 2.5 5.323.499 10.656.666 16 .5-.812 1.493-2.145 2.16-4 2a68.196 68.196 0 0 0-14-1l-2-25.5a66.803 66.803 0 0 1 2-9 11.25 11.25 0 0 0-1-3.5c2.881-3.125 3.548-6.625 2-10.5 1.545-1.688 2.545-3.688 3-6a416.195 416.195 0 0 0-5.5-25.5c-2.137-1.821-2.97-4.154-2.5-7z"/><path fill="#87ab74" d="M357.5 601.5c12.255.157 24.255 1.657 36 4.5a902.481 902.481 0 0 0 32 9c2.359 1.242 4.359 2.742 6 4.5a22.715 22.715 0 0 1-10-4.5 382.354 382.354 0 0 1-30-8 159.616 159.616 0 0 0-25-2.5 114.902 114.902 0 0 1-9-3z"/><path fill="#242d1e" d="M366.5 604.5a159.616 159.616 0 0 1 25 2.5 382.354 382.354 0 0 0 30 8 22.715 22.715 0 0 0 10 4.5c3.739 1.602 7.739 2.602 12 3 1.1 1.058 2.434 1.892 4 2.5 5.09.427 10.09 1.26 15 2.5v1a52.587 52.587 0 0 0-17 0c-4.647-2.944-9.647-5.278-15-7a3.647 3.647 0 0 0-1.5 1c-7.665-4.451-15.832-7.951-24.5-10.5-5.507.293-10.507-1.04-15-4a263.338 263.338 0 0 1-23-3.5z"/><path fill="#f2fbec" d="M606.5 603.5a10.098 10.098 0 0 1-1.5 6 10.91 10.91 0 0 0-4.5 5c1.747 4.083.58 5.417-3.5 4-.945.405-1.612 1.072-2 2 .286 7.082-1.047 13.749-4 20a8.01 8.01 0 0 1-5.5 2c-.667 0-1-.333-1-1a34.832 34.832 0 0 0 7-7c2.568-4.774 2.568-9.608 0-14.5l1-2.5a24.91 24.91 0 0 0 6.5-5c2.364-3.19 4.864-6.19 7.5-9z"/><path fill="#87ab73" d="M443.5 622.5a783.45 783.45 0 0 0 13 1.5c2.227.941 4.227 2.108 6 3.5a92.856 92.856 0 0 0-15-2.5c-1.566-.608-2.9-1.442-4-2.5z"/><path fill="#242e20" d="M463.5 628.5a358.496 358.496 0 0 1 22 4.5 58.118 58.118 0 0 0 22 8 206.755 206.755 0 0 0 28 5 1936.572 1936.572 0 0 0 36-2.5c-.111.617-.444 1.117-1 1.5-30.724 5.602-60.224 2.102-88.5-10.5-3.043-.001-3.21.832-.5 2.5a25.238 25.238 0 0 1-10 0 6.802 6.802 0 0 0 3-1.5c-1.667-1-3-2.333-4-4-2.516-.83-4.85-1.83-7-3z"/><path fill="#8ab176" d="M462.5 628.5v-1a2065.93 2065.93 0 0 0 24 3.5 59.61 59.61 0 0 0 9 5 162.281 162.281 0 0 1 17 4c23.461 4.527 46.961 4.027 70.5-1.5 2.005-.499 3.505-1.666 4.5-3.5a8.43 8.43 0 0 1 4-.5 34.832 34.832 0 0 1-7 7c-4.576-.062-8.909.605-13 2a1936.572 1936.572 0 0 1-36 2.5 206.755 206.755 0 0 1-28-5 58.118 58.118 0 0 1-22-8 358.496 358.496 0 0 0-22-4.5h-1z"/><path fill="#f9f9f9" d="M441.5 867.5h-50c-4.642-19.096-12.475-36.762-23.5-53a172.386 172.386 0 0 0-6-20 188.326 188.326 0 0 1-9.5-20.5 479.772 479.772 0 0 1 7.5-23.5c5.495-16.932 13.661-32.265 24.5-46 1.299.59 2.132 1.59 2.5 3a174.575 174.575 0 0 0 5 14 1506.534 1506.534 0 0 0 19 85l30.5 61z"/></svg>