<svg xmlns="http://www.w3.org/2000/svg" viewBox="0 0 500 500" xmlns:v="https://vecta.io/nano"><g fill="#8dc572"><path d="m155.3 316.4-29 2-3.5-113.2s-14.5-3.8-16.8-3.8-83.4 122.3-83.4 122.3v9.2h67.3l-2.3 69.6H129l-2.1-68.9 28.5 2.5-.1-19.7zm-64.8.6s-46.7 4.8-44.6 0 44.6-58.4 44.6-58.4V317z"/><path d="M154.4 314.2l-25.4 1.7-3.6.2 2.4 3.9-.3-11.3-.8-27-1-32.7-.9-28.3-.4-13.7v-.2c0-1.2-1.1-3.5-2.4-3.9l-8.8-2.2-5.9-1.3c-.6-.1-1.8-.5-2.4-.2s-1.1 1.2-1.5 1.7l-2.7 3.6-8.7 12.3-11.9 17.3-13.6 20.1-14 20.9-12.9 19.3L29.2 310l-6.4 9.7c-.5.6-.9 1.3-1.3 2-.1.2-.2.5-.1.8-.1 1.7 0 3.4 0 5.1v3.7c.1.9.4 1.7.9 2.4.3.4.9 1.5 1.5 1.5H91l-2.4-3.9-.8 23.5-1.2 37.5-.3 8.6c.1.9.4 1.7.9 2.4.3.4.9 1.5 1.6 1.5h41.3c.3 0 .4-.2.4-.5l-.7-23.4-1.1-37-.3-8.5-.4.5 25 2.2 3.6.3c.3 0 .4-.2.4-.5v-19.6c-.1-1.2-.6-2.3-1.4-3.1-.3-.4-1.4-1.3-1.4-.2v19.7l.4-.5-25-2.2-3.6-.3c-.3 0-.4.2-.4.5l.7 23.4 1.2 37 .3 8.5.4-.5H86.7l2.4 3.9.8-23.5 1.2-37.5.3-8.6c-.1-.9-.4-1.7-.9-2.4-.3-.4-.9-1.5-1.6-1.5H21.6l2.4 3.9V326c0-.5 0-.1 0 0s.1-.1.1-.2a3.04 3.04 0 0 0 .5-.7l5.3-7.9 9.5-14.3 12.3-18.5 13.8-20.5 13.8-20.5 12.4-18.2 9.6-13.8 3.3-4.6c.8-1 1.2-1.7 2-2.5l.5-.5h.1c-.2.1-.2 0 .2 0l1.9.3c4 .8 7.9 1.8 11.9 2.8l2.6.7-2.4-3.9.3 11.3.8 27 1 32.6.9 28.4.4 13.7v.2c.1.9.4 1.7.9 2.4.2.4.9 1.6 1.5 1.5l25.4-1.7 3.6-.2c1.4-.4-.6-4.8-1.8-4.7z"/><path d="M89.5 314.8c-7.1.7-14.2 1.3-21.3 1.7-5 .3-10.1.5-15.2.4-1.8 0-3.6-.1-5.4-.4-.6-.1-1.1-.2-1.7-.4.1 0-.1-.1-.3-.2s.3.3.1.1c.3.4.7.8.9 1.2.4.5.6 1.1.6 1.6v.1c.1.1-.1.2.1-.1.1-.1.1-.3.2-.4.2-.4.5-.7.7-1.1l2.4-3.5c2.5-3.5 5.2-7 7.8-10.5L78.9 277l8.4-10.7c1.4-1.8 3-3.6 4.3-5.5.1-.1.1-.2.2-.3l-2.8-3.7v58.4c.1 1.2.6 2.3 1.4 3.1.3.4 1.4 1.3 1.4.2V260c0-.8-1.8-4.9-2.8-3.7l-11.2 14.2-21 27.1-8.5 11.2-2.7 3.8c-.5.7-1 1.4-1.3 2.1-.6 1.8 1.2 4.3 2.7 5.1a8.91 8.91 0 0 0 3.9.9c4.7.4 9.4.4 14.2.1 8.6-.4 17.2-1 25.8-1.9h.5c1.4.1-.6-4.3-1.9-4.1zm213.1-20.3c0 5.8-.4 11.7-1.1 17.5l.1-1c-2.9 21.3-11 42.9-26.1 58.6-3.6 3.8-7.6 7.1-12 10l.9-.6c-7.8 5.1-16.7 8-26 8.4l1.5-.1c-2.4.1-4.8 0-7.1-.3-1.1-.1-2.3-.3-3.4-.5l-.8-.2 1.5.3-.6-.1-1.8-.4-3.1-.9c-.8-.3-2.1-.8 1.4.5l-.8-.3-1.9-.7-1.6-.7c-1.4-.7 3.1 1.5 1.7.8l-.8-.4-1.5-.8-.8-.4c-1.5-.9 3.6 2.1 1.6.9-.9-.6-1.8-1.1-2.7-1.7-1.4-1 3.2 2.2 1.8 1.2l-.7-.5c-.6-.4-1.1-.8-1.7-1.2l-.7-.6-.2-.2 1.6 1.3c-.5-.4-.9-.8-1.4-1.2-1-.9-2-1.8-2.9-2.7l1.1 1.1-.5-.6c-.4-.5-.9-.9-1.3-1.4-.9-1-1.8-2-2.7-3.1l-1.2-1.5c-.4-.5-1.9-2.6-.1-.1-.8-1.1-1.7-2.3-2.5-3.5-3.5-5.2-6.5-10.7-8.9-16.5l.6 1.4c-6.7-16.1-9.9-33.4-9.5-50.8.1-5.1.4-10.2 1-15.2l-.1 1.1c2.9-21.3 11-42.9 26.1-58.6 3.6-3.8 7.6-7.1 12-10l-.9.6c7.8-5.1 16.8-8 26.1-8.4l-1.5.1c2.4-.1 4.8 0 7.1.3 1.1.1 2.3.3 3.4.5l.8.2-1.5-.3.5.1c.6.1 1.2.3 1.8.4l3.1.9c.8.3 2.1.8-1.4-.5l.8.3c.6.2 1.2.5 1.9.7s1 .5 1.6.7c1.5.7-3.1-1.5-1.7-.8l.8.4 1.5.8.8.4c1.5.8-3.5-2.1-1.6-.9.9.6 1.8 1.1 2.7 1.7 1.4 1-3.2-2.2-1.8-1.2l.7.5c.6.4 1.1.8 1.7 1.3l.7.6.2.2-1.6-1.3c.5.4.9.8 1.4 1.2 1 .9 2 1.8 2.9 2.7l-1.1-1.1.5.6c.4.4.9.9 1.3 1.4.9 1 1.8 2 2.7 3.1l1.2 1.5c.4.5 1.9 2.6.1.1.8 1.1 1.7 2.3 2.5 3.5 3.5 5.2 6.5 10.7 8.9 16.5l-.6-1.4c4.9 11.8 8 24.3 9 37 .4 3.7.6 7.5.6 11.3 0 1.7 2.8 4.1 3.7 5 2.4 2.2 5.1 4 7.9 5.5 1.6.8 9.8 5 9.8.9.1-19.7-4.4-39.1-13.2-56.6-9.3-18.1-24-32.9-42.1-42.4-8.4-4.4-17.6-7.7-27.1-8.4-7.6-.6-15.3.5-22.5 3.1-15 5.7-26.8 17.7-34.9 31.3-9.7 16.3-14.5 35.3-15.5 54.2-1.2 19.9 2.3 39.8 10.2 58.1 7.9 18.1 21 33.5 37.6 44.1 15.3 9.8 33.9 15.8 51.9 11 15.1-4 27.7-14.9 36.5-27.5 10.6-15.4 16.3-33.7 18.3-52.2.5-4.9.8-9.8.8-14.7 0-1.6-2.8-4.1-3.7-4.9-2.4-2.2-5.1-4-7.9-5.5-1.7-.9-9.8-5-9.8-1zm168.6 23.3l-29 2-3.5-113.2s-14.5-3.8-16.8-3.8-83.4 122.3-83.4 122.3v9.2h67.3l-2.3 69.6h41.3l-2.1-68.9 28.5 2.5v-19.7zm-64.8.5s-46.8 4.8-44.6 0 44.6-58.4 44.6-58.4v58.4z"/><path d="M470 316.2l-25.4 1.7-3.6.2 3.6 2.2-.4-11.3-.8-27-1-32.6-.9-28.4-.3-9.3-.1-4.4v-.2c0-1.1-1.5-1.9-2.5-2.1l-8.9-2.2-5.9-1.3c-1.1-.2-2.7-.7-3.8-.2-.7.4-1.2 1-1.7 1.6l-2.7 3.5-8.8 12.4L395 236l-13.7 20.2-14 20.9-13 19.4-10.4 15.7-6.5 9.7c-.5.6-.9 1.3-1.3 2-.1.3-.2.6-.2.8-.1 1.7 0 3.4 0 5.1v3.7c0 1.3 2 2.2 3.1 2.2h67.3l-3.1-2.2-.8 23.5-1.2 37.5-.3 8.6c0 1.3 2.1 2.2 3.1 2.2h41.3c.7 0 1.7-.2 1.7-1.1l-.7-23.4-1.1-37-.3-8.5-1.7 1.1 25 2.2 3.6.3c.7.1 1.7-.2 1.7-1.1v-19.6c0-1.9-4.8-3.3-4.8-1.1v19.7l1.7-1.1-25-2.2-3.6-.3c-.7-.1-1.7.2-1.7 1.1l.7 23.4 1.1 37 .3 8.5 1.7-1.1h-41.3l3.1 2.2.8-23.5 1.2-37.5.3-8.6c0-1.3-2.1-2.2-3.1-2.2h-67.3l3.1 2.2V331c.1-1.7.1-3.3 0-5 0-.5.1 0 0 .1 0-.1.1-.1.1-.2a3.04 3.04 0 0 0 .5-.7l5.3-7.9 21.7-32.5 27.5-41 21.8-31.7 5.5-7.3c.1-.2.5-.4.6-.6s-.5.2-.3.2c0 0-1.3.3-.7.1h.3c.5.1-.6-.1 0 0l1.2.2c4 .8 8 1.8 11.9 2.8l2.5.6-2.5-2.1.4 11.3.8 27 1 32.6.9 28.3.3 9.3c0 1.5 0 3 .1 4.5v.2c0 1.6 2.4 2.3 3.6 2.2l25.4-1.7 3.6-.2c1.1-.1 1.4-1.1.8-1.9-.6-1-1.8-1.5-3-1.4zm-64.8.5c-7.1.7-14.2 1.3-21.3 1.7-4.9.3-9.7.5-14.8.4-1 0-2-.1-3-.1l-1.2-.1-.5-.1c.5.1.2 0-.1 0s-.6-.1-.9-.2c-.5-.1.1 0 .2.1-.1-.1-.2-.1-.4-.1-.5-.2.6.3.3.1s.5.4.2.2c.2.2.4.5.5.8 0 0-.2.3 0 0 .1-.1.1-.3.2-.4.2-.4.4-.7.7-1.1l2.2-3.2 7.8-10.5 20.4-26.4 8.4-10.7c1.4-1.8 3-3.6 4.3-5.5l.2-.2-4.5-1.8V318c0 1.9 4.8 3.3 4.8 1.1v-58.4c0-1.5-3.4-3.1-4.5-1.8L393 273.1l-21 27.1-8.4 11.2c-1 1.4-2 2.7-2.9 4.1-.5.7-1 1.4-1.3 2.2-.6 1.6 1.2 2.9 2.5 3.5 1.6.6 3.2.9 4.9 1 4.7.3 9.5.3 14.2 0 8.7-.4 17.4-.9 26.1-1.9h.5c1.1-.1 1.4-1.1.8-1.9-.8-1.3-2-1.8-3.2-1.7z"/></g><g fill="#333"><path d="M381 439.8c5.4-.1 10.8-.5 16.2-.9 11.7-.9 23.3-2.4 34.8-4.7 13.1-2.7 26.3-6.7 37.8-13.8 3.8-2.4 7.6-5.3 9.8-9.3 2.4-4.4 2.4-9.8 0-14.2-2.8-5-8.1-8-13.2-9.9a59.13 59.13 0 0 0-11.7-3l-.7-.1c-.8.1-1.5.3-2.2.6-1.2.5-2.4 1-3.5 1.6-.9.4-1.8.9-2.6 1.5-.2.1-.8.6-.2.6 2.8.3 5.6.9 8.3 1.8 5 1.4 10.1 3.7 13.9 7.4 3.9 3.8 5.5 9.4 4.2 14.6-.5 1.8-1.3 3.4-2.4 4.9-.6.8-1.2 1.5-1.9 2.2l-.5.5-.3.3a6.42 6.42 0 0 1-1.3 1c-.5.3-.8.6-1.2.9-.7.5.5-.3-.3.2l-.8.5c-.2.1-.5.2-.6.4 1-.8.2-.1-.1.1s-.5.2-.7.4c1.4-.9.4-.2 0 0l-.5.2c-.5.3 1.3-.6.5-.3l-.7.4-.4.2c-.8.4 1.1-.5.5-.2l-1.1.5c-.3.1-.5.2-.8.3 1.4-.7.4-.2 0 0l-2 .8.3-.1s-.4.1-.5.2l-1 .3c-.7.2-1.4.5-2.1.7l-1.9.6s-.8.2-.3.1-.3.1-.3.1l-1.1.3c-2.8.8-5.7 1.5-8.6 2.1-11.1 2.3-22.4 4-33.7 4.9-6.1.5-12.3.8-18.5 1.1h-.3c-.8.1-1.5.3-2.2.6-1.2.5-2.4 1-3.5 1.6-.9.4-1.8.9-2.6 1.5.1-.1-.6.5 0 .5zM165.4 291.9c-.2-.1-.5-.2-.7-.4s1.4.8.7.4l-.5-.2-1-.6c-.9-.6-1.8-1.2-2.7-1.9l-.3-.2c-.6-.5 1 .8.4.3l-.8-.6c-.5-.5-1.1-1-1.6-1.5s-1-1-1.5-1.6c-.3-.3-.5-.6-.8-.9-.1-.1-.2-.3-.3-.4.2.2.5.7.1.1-1-1.4-2-2.8-2.8-4.3-.4-.8-.8-1.7-1.2-2.5 0-.1.2.6 0 0l-.2-.7c-.2-.5-.3-.9-.4-1.4-.6-2-.9-4.1-1-6.2v-2.8c0 .4 0 .3 0 0 .1-1.2.2-2.5.4-3.7.5-2.7 1.2-5.4 2.2-8 2.7-6.7 6.4-13 11-18.5 6-7.6 13-14.4 19.6-21.4 5.3-5.6 10.6-11.2 15.7-17.1 3.6-4 6.9-8.2 9.9-12.7 2-3.1 4-6.5 4.7-10.2 1.5-7-2.4-12.9-7.4-17.4-3.6-3.2-7.4-6.1-11.5-8.7l-3-2.1-.7-.5-.2-.2.4.3c-.4-.3-.9-.8-1.4-1.2-.8-.7-1.6-1.4-2.3-2.2-.3-.4-.7-.7-1-1.1s-.9-.9-1-1.2c0 .3.5.7.2.3l-.2-.3-.5-.6c-.3-.4-.6-.8-.9-1.3-.6-.8-1.1-1.7-1.5-2.6l-1.2-2.6c0-.1-.1-.2-.1-.3-.2-.4.2.7.1.3-.1-.2-.1-.4-.2-.6-.2-.5-.3-1-.5-1.4-.5-1.8-.8-3.6-1-5.4-.1-.9-.1-1.8-.1-2.7 0-.5-.1.7 0 0 0-.2 0-.4.1-.7 0-.4.1-.9.2-1.3.3-1.8.7-3.5 1.4-5.2.3-.9.7-1.7 1.2-2.5.3-.7-.1.2.1-.1l.3-.5a9.13 9.13 0 0 0 .8-1.3c1.1-1.6 2.4-3.1 3.9-4.4.4-.4.8-.7 1.2-1.1l.6-.4c.3-.2.9-.7.2-.2.9-.7 1.9-1.3 2.9-1.9 2.1-1.3 4.3-2.4 6.6-3.2l.8-.3c-1 .4 0 0 .3-.1l2-.6c1.4-.4 2.8-.8 4.2-1.1s3.1-.6 4.6-.9l1.1-.2c.1 0 .8-.1.2 0h.2l2.5-.3c3.6-.3 7.2-.5 10.8-.4h1.5c.3 0 1.8.1.7 0 1 0 1.9.1 2.9.2a67.09 67.09 0 0 1 6.3.6c1.5.2 4.7-.1 4.3-2.4s-3.6-3.3-5.4-3.6c-14.7-1.7-30.1-1.6-44.1 3.7-8.5 3.2-16.4 9-20.1 17.5-3.2 7.4-2.4 15.7 1.1 22.8 1.9 4 4.6 7.5 7.8 10.6 3.7 3.6 8 6.2 12.2 9.2.9.7 1.9 1.4 2.8 2.1.4.3 1.7 1.5.6.4.4.3.8.6 1.2 1 1.4 1.2 2.7 2.4 3.9 3.8.1.2.2.3.4.5.3.4-.6-.8-.1-.2.2.3.5.7.7 1 .4.6.8 1.2 1.1 1.9.1.3.2.6.4.9-.4-.5-.2-.6-.1-.2.1.2.1.4.2.5.2.7.3 1.3.4 2 0 .3.1.6.1.9v.6c0 .7.1-.6 0 0-.1.7-.1 1.4-.3 2.1-.4 1.6-.9 3.1-1.6 4.6l-.6 1.2-.4.6c-.2.4.1-.1.1-.2l-.2.4c-.6.9-1.1 1.8-1.7 2.7-1.4 2.1-3 4.2-4.6 6.2-10.1 12.6-21.7 23.9-32.7 35.6-6.1 6.4-11.4 13.5-15.8 21.2-3 5.2-4.9 10.9-5.8 16.8-1.1 8.6 1.3 17.3 6.7 24.1 3.5 4.3 7.8 7.9 12.7 10.6l.7.3c1.7.8 5 1.5 6.4-.2s-1.5-4-2.8-4.6zm-78.3 144l-.4-.1-1.8-.3-6.2-1.2c-6.3-1.3-12.6-2.9-18.7-4.9-6.4-2.1-12.9-4.6-18.5-8.5l-.8-.6-.4-.3c-.4-.3.1.1-.2-.1-.5-.4-1-.9-1.5-1.4-.2-.2-.4-.5-.7-.7s-.5-.7.1.1l-.3-.4c-.1-.1-.2-.2-.3-.4-.4-.5.4.6.2.4-.7-1 .5.8 0 .1s.7 1.3.4.7.6 1.3.3.7.2.5.3.6c-.1-.2-.3-.8 0 0s.1.2 0 0c-.2-.5.1.4.1.2s-.1-.6-.2-.9 0-.3 0-.4v-1c0-.6.1-1.2.3-1.8.9-3 2.5-5.6 4.7-7.7 3.3-3.3 7.1-6.1 11.2-8.2 8.9-4.7 19-6.9 28.8-8.4 10.1-1.6 20.3-2.4 30.5-3.8 7.9-1.1 16.6-2.4 23.6-6.6 3.4-2.1 6.2-5.2 7.9-8.8a20.05 20.05 0 0 0 1.7-14.6c-2.4-8.6-7.9-16.1-15.4-21.1-.4-.2-.8-.5-1.2-.7-1-.6.6 3.4.6 3.6.5 1.2 1.2 2.3 1.9 3.4.4.7.9 1.3 1.6 1.8.4.2.8.5 1.2.7s.9.6 1.3.9l.7.5.4.3c-.3-.3 0 0 .2.1.6.5 1.2 1.1 1.8 1.6l.9.9c.1.1.3.3.4.5.5.5-.2-.3.1.1l.8 1c.4.5-.5-.7-.1-.1.1.2.3.4.4.6s-.6-1-.2-.2-.4-.6-.2-.4c.5 1-.5-1-.1-.3s-.4-1-.1-.1c.3.7-.1-.3 0-.1s.1.5.2.7.1.2.1.4c0 0-.1-.5-.1-.2s.1.6.2.8c.2 1 .3 1.9.2 2.9-.1 2.5-.7 5-1.8 7.3-1.7 3.8-4.4 7-7.9 9.3-6.9 4.4-15.5 5.7-23.4 6.8-10.1 1.4-20.3 2.2-30.4 3.8-9.9 1.5-20 3.6-29 8.2-4.2 2.1-8.1 4.9-11.4 8.2-2.3 2.2-4.1 5-5.1 8-.7 3-.3 6 1 8.8 1.6 4.2 4.1 8.1 7.3 11.2 4.8 4.5 11.1 7.3 17.2 9.6 6.4 2.3 13 4.2 19.7 5.7 3.9.9 7.9 1.7 11.9 2.3l.8.1c.4.1-.2-1.8-.1-1.6-.4-1.1-.8-2.2-1.4-3.2-.5-1.1-1.2-2.1-1.9-3-.3-.3-.7-.7-1.2-.8z"/><path d="M87.9 310.5l-.4-.2c-.4-.2 1.3.9.4.2l-.6-.4c-1.1-.8-2.2-1.7-3.2-2.7-.5-.5.7.8.2.1l-.4-.4c-.3-.3-.6-.7-.9-1.1s-1.3-2.2-1.4-2.2l.2.4c0-.1-.1-.2-.1-.3s-.2-.4-.2-.6c-.2-.4-.3-.9-.5-1.4-.1-.4-.1-.9-.2-1.3s0 .8 0 0v-.9c.1-1 .3-2 .6-3-.2.9 0 .1.1-.2s.2-.5.4-.8c.3-.6.7-1.2 1.1-1.8s.9-1.1 1.3-1.7c.3-.4-.4.4 0 0l.4-.4c.3-.3.6-.6 1-.9 1.5-1.4 3.1-2.6 4.8-3.7 3.8-2.4 7.8-4.5 12-6.1 2-.8 4-1.6 6-2.2l.9-.3c-.2.1-.8.2 0 0l1.4-.4 3.3-.9c4.2-1.1 8.4-1.9 12.7-2.6 1-.1 2-.3 3-.4s.1 0-.1 0l.8-.1 1.9-.2c2.1-.2 4.2-.4 6.4-.5 4.2-.2 8.4-.3 12.6-.2l3.1.1 1.4.1h-.1.9c2 .1 3.9.3 5.9.4 3.8.4 7.5.8 11.2 1.4l5.1.9 2.3.5 1.1.2-.5-.1c.3.1.5.1.8.2 2.8.6 5.5 1.3 8.2 2.1 1.1.4 2.3.7 3.4 1.1l1.5.6c1 .4-.4-.2-.3-.1l.7.3c1.7.7 3.3 1.5 4.9 2.4.7.4 1.4.8 2 1.2.1.1.6.3.6.4s-.9-.6-.2-.1c.3.2.7.5 1 .7.6.4 1.1.9 1.7 1.3.2.2.5.4.7.6l.3.3c.5.5-.4-.5-.1-.1s.8.9 1.1 1.4c.1.2.3.4.4.6s.1.2.2.3c.3.5-.3-.7-.1-.1.1.4.3.9.4 1.3 0 .1.2.5.1.6s0-.8 0-.3v.5c0 .4-.2.9-.3 1.3.1-.8.1-.4-.1 0-.1.3-.3.5-.5.8-.1.2-.3.4-.5.6-.3.5.1-.1.2-.2l-.3.3c-.5.5-1.1.9-1.7 1.4l-.9.6c.8-.5-.2.1-.4.2-.9.5-1.8.9-2.7 1.3s-1.9.7-2.9 1.1c-1.2.4.4-.1-.3.1l-.8.2c-.7.2-1.3.4-2 .5-1.8.5-3.7 2-2.3 3.9s4.6 2.5 6.6 2c4.7-1.3 9.4-2.8 13.5-5.5 2.4-1.6 4.5-3.8 5.1-6.7.5-2.6-.7-5.2-2.2-7.2-2.3-2.7-5-4.9-8.1-6.7-5.3-3.1-11-5.5-16.9-7-7-1.9-14.2-3.3-21.4-4.2-17.9-2.4-36.4-2.3-54.1 1.2-9.3 1.8-18.3 4.8-26.8 9-6.9 3.5-15 8.4-17.7 16.2-2.8 8.1 3.9 15.5 10.3 19.5l.4.3c1.9 1.1 5.2 1.3 6.9-.2s.4-3.4-1.3-4.3zm305.8 70.9c-2.1-.5-4.2-1.1-6.2-1.8l-1.2-.5-.6-.2-.3-.1c-.6-.2 0 .1.2.1-.9-.3-1.8-.7-2.6-1.2-.4-.2-.8-.4-1.1-.6s-.7-.7.2.1c-.2-.1-.4-.3-.6-.4l-.5-.4c-.8-.6.6.6.4.3l-.4-.4c-.6-.5 1.1 1.2.4.4s.7.9.4.5c-.5-.7.3.5.3.5-.3-.5.1-.5.2.4 0-.2-.1-.4-.2-.5.4.3.1.9.1.3v-.5c.1.4-.1.6 0 .1 0-.2.1-.4.1-.6.1-.3.3-.7.4-1 .2-.4-.2.3 0 0s.1-.2.2-.3.3-.4.5-.6c.8-.9 1.7-1.7 2.6-2.4 3.3-2.2 6.9-4.1 10.6-5.4 5-2 10.1-3.6 15.1-5.6 18-7.3 35.6-16.9 50.5-29.5 5.5-4.6 10.7-9.8 14.4-15.9 2.7-4.6 4.5-9.8 2.6-15.1-1.6-4.3-4.9-8.1-8.2-11.1-3.5-3.3-7.6-5.8-12.1-7.4-4.9-1.7-10.2-2-15.3-.9-.3.1-.5.1-.8.2-1.8.6-.2 3.3.4 4.2.7 1.1 1.6 2 2.6 2.8.6.4 1.6 1.2 2.4 1a16.96 16.96 0 0 1 3.1-.6c1.1-.1 2.2-.2 3.4-.2a26.93 26.93 0 0 1 4 .3c1.6.3 3.2.7 4.8 1.3l.6.2c-.6-.2 0 0 .2.1l1.3.6c.4.2.8.4 1.1.6s.5.3.7.4l-.2-.1.4.3c.4.3.8.6 1.3.9s1.2 1 .5.4l1.4 1.3-.1-.1c.3.3.5.6.8.9s.7.9 1.1 1.3c-.7-.8-.1-.1.1.1.5.7-.6-1.1-.1-.2l.1.3c.4.7-.1-.1-.1-.3.1.2.2.5.3.7 0 .1.1.3.1.4.1.4-.2-.2-.1-.4 0 .5.1 1.1.2 1.6v.8-.1.4l-.3 1.8c-.6 2.5-1.6 4.8-2.9 6.9-3.8 6.1-9.2 11.3-14.8 15.9-15 12.5-32.7 22.1-50.8 29.2-5 2-10.2 3.6-15.2 5.7-3.5 1.3-6.9 3.1-9.9 5.3-1.8 1.2-3.2 3-3.9 5-.7 2.5.4 5.1 1.8 7.1 4.4 6.7 12.9 10.1 20.4 11.7l.5.1c2.1.5 1.5-2 .9-3.1-1.2-2-3.1-4.5-5.2-5zm4.4-109l-1.2.4-.2.1-.8.2-2 .6c-4.1 1.2-8.2 2.3-12.3 3.3-12.8 3.3-25.9 5.7-39 7.2-14.5 1.6-29.5 2.2-43.9-.6-3.2-.6-6.4-1.4-9.4-2.5-1.5-.5-3-1.1-4.4-1.8-.7-.3-1.4-.6-2.1-1l-.4-.2c.8.4.2.1 0 0l-1.1-.6c-.6-.4-1.3-.8-1.9-1.2l-.9-.6-.5-.4c-.6-.4.8.6.1.1-.6-.4-1.1-.9-1.7-1.3-.3-.2-.6-.5-.8-.7-.4-.4.9.9.4.3l-.6-.5-.7-.7-.4-.4c1.2 1.1.7.8.5.5l-.8-.9c-.3-.4-1.2-1.6-.1 0-.4-.6-.9-1.2-1.3-1.8-.2-.3-.3-.7.3.5-.1-.2-.2-.4-.3-.5-.2-.4-.4-.7-.6-1.1s-.4-.7-.6-1 .5 1 .1.3l-.3-.6c-.4-.9-.9-1.9-1.2-2.8-.8-2.2-1.4-4.5-1.6-6.9-.3-3.3.4-6.6 2-9.5a19.88 19.88 0 0 1 10.7-8.2l.4-.1c.4-.1-.4.1-.1 0 .1 0 .1 0 .2-.1 1.6-.4-.3-3.2-.9-3.9-.7-1.1-1.6-2-2.6-2.8-.5-.4-1.5-1.3-2.2-1.1-3.6 1-6.8 2.8-9.5 5.4a17 17 0 0 0-4.6 8.4c-1 4.6 0 9.4 1.6 13.7 5.2 14.7 18.2 25.3 32.9 29.8 14.3 4.4 29.7 4.5 44.5 3.3 14.2-1.2 28.2-3.5 42-6.8 4.8-1.1 9.6-2.4 14.4-3.7 1.5-.4 3-.9 4.6-1.3.9-.2 1.9-.5 2.8-.9.1 0 .2-.1.3-.1.5-.2-.1-1.7-.1-1.8-.5-1.1-1.2-2.1-2-3-1.3-1-3.1-3.3-4.7-2.7zm-90.5-45.5c7-1.1 13.9-2.6 20.7-4.4 12-3.1 24.3-7 35-13.4 4.9-2.9 9.4-6.6 12.4-11.4 2.7-4.3 3.3-9.6 1.7-14.5-1.1-3-2.7-5.9-4.8-8.3-3.6-4.5-7.6-8.6-11.9-12.4-7.7-6.7-16.3-12.3-25.6-16.6-11.3-5.5-23.3-9.4-35.6-11.4l-.6-.1c-2-.3-5.2.8-5.3 3.3s2.4 3.9 4.6 4.2l2.1.3 1.2.2-.6-.1.8.2c1.1.2 2.2.5 3.3.7 6.7 1.6 13.2 3.7 19.5 6.4l.7.3c1 .4-1.1-.5-.1 0l1.4.6c1 .4 2 .9 3 1.4 2 1 4.1 2 6.1 3.1s4.1 2.4 6.1 3.6c1 .6 1.9 1.2 2.9 1.9l1.6 1.1c.2.1.9.6 0 0l1 .7c4.2 3.1 8.2 6.5 11.9 10.2.9.9 1.8 1.9 2.7 2.9l1.2 1.4c-.6-.7.2.3.3.4.2.3.5.6.7.9.9 1.2 1.8 2.4 2.5 3.7.3.6.6 1.1.9 1.7s-.3-.8-.2-.4a.76.76 0 0 0 .2.4c.1.3.2.6.4 1 .2.5.3 1 .4 1.6s.1 1.2.3 1.8v-.6 1.1c0 .5-.1 1.1-.2 1.6s-.3 1-.3 1.4c.1-1.3.1-.5 0 0-.1.3-.2.6-.3.8-.4 1-.9 1.9-1.5 2.8-.5.8.6-.8.1-.1l-.5.7c-.4.5-.8 1-1.2 1.4-.8.9-1.7 1.7-2.6 2.5-.2.2-.5.4-.7.6 1.1-1 .2-.2-.1 0-.6.4-1.1.8-1.7 1.2-2.3 1.6-4.8 3-7.3 4.3l-1.9.9-.9.4c-.8.4 1.1-.5.3-.1l-.6.2c-1.4.7-2.9 1.3-4.3 1.8-5.7 2.2-11.4 4.1-17.3 5.7l-8 2c-1.2.3-2.3.5-3.5.8l-.9.2c-1.2.3.6-.1.2-.1l-1.6.3-7.7 1.4-.4.1c-2 .3-4.7 1.8-3.9 4.3s3.7 3.8 5.9 3.4z"/></g><path d="M269.4 95.9c2-6.2 4.6-12.2 7.2-18.2.8-1.8-2.3-2.9-3.6-2.6l-11.6 3 3.6 2.6 10.3-20.1c1-2-3.6-3.8-4.7-1.7L260.3 79c-.4.7.4 1.6.9 2 .8.6 1.7.8 2.7.6l11.6-3-3.6-2.6c-2.6 6-5.2 12-7.2 18.2-.7 2.2 4 3.9 4.7 1.7zm16.7-.1c3.8-5.4 8.8-9.9 14.7-13 1.7-.9-.5-2.6-1.5-2.8-1.2-.2-2.3-.5-3.5-.9-.5-.2-1-.3-1.5-.5l-.8-.3c-.5-.2-.5-.2-.2-.1l.5.8c0-.2 1.3-1.3 1.5-1.5l1.7-1.7 3.5-3.6 7-6.9c.9-.8-.5-2-1.2-2.3-1-.5-2.3-.4-3.2.3L291.4 75c-.7.8-2.2 1.8-2.4 2.9-.2 1.3 1.1 2.2 2.1 2.7 2.4 1.2 5 2 7.6 2.5l-1.5-2.8c-6.1 3.2-11.4 7.9-15.4 13.6-1.5 1.8 3.1 3.5 4.3 1.9zm-37.4 36.1c-2 4.5-3.8 9-5.5 13.6-.4 1-1.1 2.2-.3 3.2.8.8 1.9 1.2 3 1.2 1.3.1 2.6 0 3.9.1h2c.1 0 1.2.2.9 0l-.9-.6c-.3.8-.6 1.5-1 2.3l-1.2 2.7-2.3 5.4c-.9 2.1 4 2.8 4.8 1.1l2.5-5.8 1.4-3.1c.4-.8 1-1.8.8-2.7-.4-1.9-3-2.1-4.6-2.1h-4.7c-.4 0-2.3-.3-.9.1l.9.6-.2-.2.3.8c-.1-1.1.8-2.6 1.1-3.7l1.5-4c1-2.6 2.1-5.1 3.2-7.6 1-2.2-3.9-3-4.7-1.3zm-10.4-14.7c-5.2 3.1-10.2 6.4-15.1 10.1-1.7 1.3-.4 3.3 1.5 3.1 3.5-.3 7 .2 10.3 1.5l-.7-2.6c-3.9 6.2-10.4 10.2-15 15.9-.6.7-.5 1.7.2 2.3.2.1.3.2.5.3a3.29 3.29 0 0 0 3.4-.9c4.6-5.7 11.1-9.6 15-15.9.6-.7.5-1.7-.2-2.3-.1-.1-.3-.2-.5-.3-4-1.6-8.4-2.2-12.7-1.8l1.5 3.1c4.5-3.4 9.2-6.5 14-9.4.9-.5 1.8-1.7 1.1-2.7-.9-.9-2.3-1-3.3-.4z" fill="#8dc572"/><path d="M294.7 143.1s-7.5 7.5-24.8 4.3c0 0-8.1-23.3 9.8-38 0 0 19.3 2.3 17.6 23.9l4.6 2.9-2.6 7.5-4.6-.6z" fill="#fff"/><g fill="#333"><path d="M293.2 141.1c-1.7 1.5-3.7 2.7-5.9 3.4-6 2.2-12.6 2.1-18.9 1l3 3.9c-.8-2.6-1.4-5.3-1.6-8.1-.7-6 .1-12.1 2.4-17.8 1.4-3.4 3.5-6.5 6-9.2.7-.7 1.4-1.4 2.2-2.1.2-.2.6-.7.9-.7.3 0 .5 0 .8.1 3.2.7 6.2 2 8.8 3.9.9.7 1.8 1.5 2.6 2.4-.1-.2.1.1.1.1-.1-.2-.2-.3-.3-.4-.2-.2.2.3.2.4.3.6.7 1.2.9 1.9 1.4 3.7 1.9 7.7 1.5 11.6 0 .6.8 1.5 1.1 1.9.5.8 1.1 1.5 1.8 2.1l4.6 2.9-2.9-4-2.3 6.6c-.3 1-.3.8-1.3.7l-3.7-.6s1.2 2 1.3 2.2c.3.4 1 1.8 1.7 1.9l3.5.4c.2 0 1 .2 1.1.1s.2-.7.3-.8l2.3-6.6c.1-.4-.9-1.6-1.1-1.9-.5-.8-1.1-1.5-1.8-2.1l-4.6-2.9 2.9 4c.4-3.7 0-7.5-1.2-11-1.2-3.3-3.1-6.3-5.4-8.9-2.9-3.5-6.7-6.1-11-7.4-.9-.4-1.9-.6-2.9-.7h-.1c-.4.1-1 .9-1.3 1.1s-.8.8-1.2 1.2c-1.5 1.5-2.8 3.1-4 4.9-3.6 5.9-5.4 12.7-5.1 19.6 0 3.9.6 7.7 1.8 11.4.4.8.9 1.6 1.5 2.3.3.4.9 1.5 1.5 1.6 6.2 1.1 12.9 1.2 18.9-1 2.2-.7 4.2-1.8 5.9-3.4.4-.4-2.9-4.1-3-4z"/><path d="M274.9 147.4c2.2-3 4.1-6.2 5.7-9.5 2.9-5.7 5.5-12.4 5-18.9-.3-3.9-2-7.5-4.8-10.2-.8-.7-2.1-.6-2.8.2-.1.1-.1.2-.2.2-.6 1.2-.2 2.6.8 3.4.8.8 1.5 1.7 1.9 2.7.1.1.4 1 .2.6.1.3.2.6.2.9.1.3.1.6.2.9s0 .3.1.5c.1.8 0-.4 0 .3.2 2.8-.2 5.7-1.1 8.4-1.7 5.1-4 10-7 14.5-.6 1-1.3 2-2 3-1.5 2.1 2 5.4 3.8 3zm2.1-23.6l1.1-2.5c.1-.2 0-.5-.1-.7-.2-.3-.4-.5-.7-.6s-.6-.2-.9-.1c-.3 0-.5.2-.6.4-.3.9-.6 1.7-1 2.5-.1.2-.1.5.1.7.2.3.4.5.7.6.4.2 1.1.3 1.4-.3zm-3.7 4.1l-1.6 4.8c-.1.2-.1.5 0 .7.1.3.4.5.6.6.3.2.6.2.9.2.2 0 .5-.1.6-.3l1.6-4.8c.1-.2.1-.5 0-.7-.3-.6-.9-.9-1.5-.9-.2.1-.5.2-.6.4z"/></g><path d="m243.5 106.6 2.5-20.9s-19.9-3-21 7.6 18.5 13.3 18.5 13.3z" fill="#fff"/><g fill="#333"><path d="M246 107l2.1-18.3.3-2.6c0-1.3-.9-2.3-2.1-2.4-2.5-.4-5-.5-7.6-.4-4.2.1-8.9.7-12.4 3.2-3.8 2.7-5 7.9-2.8 12 2.2 4 6.5 6.3 10.6 7.8 2.9 1.1 5.9 1.9 9 2.3 1.3.2 2.7-.3 2.9-1.6.1-1.2-.9-2.3-2.1-2.4l-1.9-.3c-.7-.1-1.3-.3-2-.4l-.5-.1-.3-.1-.4-.1-.7-.2c-1.9-.6-3.7-1.3-5.4-2.2.4.2-.1 0-.2-.1l-.6-.3c-.4-.3-.9-.6-1.3-.9-.2-.1-.4-.3-.5-.4l-.2-.2-1-1-.4-.5c-.3-.4.1.2-.1-.2s-.4-.8-.6-1.3c-.1-.3 0 .2-.1-.2-.1-.2-.1-.5-.2-.7s-.1-.4-.1-.6v-.4c0 .2 0 .2 0 0 0-.5.1-1 .2-1.4 0-.2.1-.4.2-.6-.1.4.1-.2.1-.3s.2-.4.3-.6.4-.5.2-.3.2-.2.2-.3.4-.4.5-.5l.4-.4c-.3.3 0 0 .2-.1.4-.3.8-.5 1.2-.7l.2-.1.7-.3c.4-.2.9-.3 1.3-.4s.9-.2 1.4-.3h.3c.3-.1-.4.1-.1 0s.6-.1.9-.1c.9-.1 1.9-.2 2.8-.2h3.7l1.1.1c.8.1 1.6.1 2.3.2l-2.1-2.4-2.1 18.3-.3 2.6c-.3 2.2 4.7 3 5 .4z"/><path d="m250.1 98.7-4.7-1.3c-.4-.1-.8-.1-1.2.2-.2.4-.3.8-.1 1.2.5 1.1 1.5 2 2.7 2.3l4.7 1.3c.5.2 1.1-.1 1.3-.6.1-.3.1-.6-.1-.8-.5-1.1-1.4-2-2.6-2.3zM253.4 92l-4.9-1.3c-.6-.2-1.2-.3-1.8-.3-.1 0-.8 0-.9.3s.4.6.6.7c.5.3 1.1.5 1.6.7l5 1.3c.6.2 1.2.3 1.8.3.1 0 .8 0 .9-.3s-.4-.6-.6-.7c-.5-.3-1.1-.5-1.7-.7z"/></g></svg>