<svg transform="scale(1)" version="1.1" id="Layer_1" xmlns="http://www.w3.org/2000/svg" xmlns:xlink="http://www.w3.org/1999/xlink" x="0px" y="0px" viewBox="0 0 500 500" xml:space="preserve" class="show_show__wrapper__graphic__5Waiy "><title>React</title><style type="text/css">
	.st0{fill:#8dc572;}
	.st1{fill:#333333;}
	.st2{fill:#FFFFFF;}
</style><g id="_404"><path class="st0" d="M155.3,316.4l-29,2l-3.5-113.2c0,0-14.5-3.8-16.8-3.8S22.6,323.7,22.6,323.7v9.2h67.3l-2.3,69.6H129l-2.1-68.9
		l28.5,2.5L155.3,316.4z M90.5,317c0,0-46.7,4.8-44.6,0s44.6-58.4,44.6-58.4V317z"></path><path class="st0" d="M154.4,314.2l-25.4,1.7l-3.6,0.2l2.4,3.9l-0.3-11.3l-0.8-27l-1-32.7l-0.9-28.3c-0.1-4.6-0.2-9.2-0.4-13.7v-0.2
		c0-1.2-1.1-3.5-2.4-3.9c-2.9-0.8-5.9-1.5-8.8-2.2c-1.9-0.5-3.9-0.9-5.9-1.3c-0.6-0.1-1.8-0.5-2.4-0.2s-1.1,1.2-1.5,1.7
		c-0.9,1.2-1.8,2.4-2.7,3.6c-2.9,4.1-5.8,8.2-8.7,12.3c-4,5.8-8,11.5-11.9,17.3c-4.6,6.7-9.1,13.4-13.6,20.1
		c-4.7,7-9.3,13.9-14,20.9c-4.3,6.4-8.6,12.8-12.9,19.3c-3.5,5.2-6.9,10.4-10.4,15.6l-6.4,9.7c-0.5,0.6-0.9,1.3-1.3,2
		c-0.1,0.2-0.2,0.5-0.1,0.8c-0.1,1.7,0,3.4,0,5.1v3.7c0.1,0.9,0.4,1.7,0.9,2.4c0.3,0.4,0.9,1.5,1.5,1.5h67.2l-2.4-3.9l-0.8,23.5
		l-1.2,37.5l-0.3,8.6c0.1,0.9,0.4,1.7,0.9,2.4c0.3,0.4,0.9,1.5,1.6,1.5h41.3c0.3,0,0.4-0.2,0.4-0.5l-0.7-23.4l-1.1-37l-0.3-8.5
		l-0.4,0.5l25,2.2l3.6,0.3c0.3,0,0.4-0.2,0.4-0.5v-19.6c-0.1-1.2-0.6-2.3-1.4-3.1c-0.3-0.4-1.4-1.3-1.4-0.2v19.7l0.4-0.5l-25-2.2
		l-3.6-0.3c-0.3,0-0.4,0.2-0.4,0.5l0.7,23.4l1.2,37l0.3,8.5l0.4-0.5H86.7l2.4,3.9l0.8-23.5l1.2-37.5l0.3-8.6
		c-0.1-0.9-0.4-1.7-0.9-2.4c-0.3-0.4-0.9-1.5-1.6-1.5H21.6l2.4,3.9c0-2.9,0.2-6,0-8.9c0-0.5,0-0.1,0,0s0.1-0.1,0.1-0.2
		c0.2-0.2,0.4-0.5,0.5-0.7l5.3-7.9c3.2-4.8,6.3-9.5,9.5-14.3l12.3-18.5c4.6-6.8,9.2-13.7,13.8-20.5s9.2-13.7,13.8-20.5
		c4.1-6.1,8.3-12.1,12.4-18.2c3.2-4.6,6.3-9.2,9.6-13.8c1.1-1.5,2.2-3.1,3.3-4.6c0.8-1,1.2-1.7,2-2.5c0.2-0.2,0.3-0.3,0.5-0.5h0.1
		c-0.2,0.1-0.2,0,0.2,0c0.7,0.1,1.3,0.2,1.9,0.3c4,0.8,7.9,1.8,11.9,2.8l2.6,0.7l-2.4-3.9l0.3,11.3l0.8,27l1,32.6l0.9,28.4
		c0.1,4.6,0.2,9.2,0.4,13.7v0.2c0.1,0.9,0.4,1.7,0.9,2.4c0.2,0.4,0.9,1.6,1.5,1.5l25.4-1.7l3.6-0.2
		C157.6,318.5,155.6,314.1,154.4,314.2z"></path><path class="st0" d="M89.5,314.8c-7.1,0.7-14.2,1.3-21.3,1.7c-5,0.3-10.1,0.5-15.2,0.4c-1.8,0-3.6-0.1-5.4-0.4
		c-0.6-0.1-1.1-0.2-1.7-0.4c0.1,0-0.1-0.1-0.3-0.2s0.3,0.3,0.1,0.1c0.3,0.4,0.7,0.8,0.9,1.2c0.4,0.5,0.6,1.1,0.6,1.6
		c0,0.2,0,0.2,0,0.1c0.1,0.1-0.1,0.2,0.1-0.1c0.1-0.1,0.1-0.3,0.2-0.4c0.2-0.4,0.5-0.7,0.7-1.1c0.8-1.2,1.6-2.3,2.4-3.5
		c2.5-3.5,5.2-7,7.8-10.5c6.7-8.8,13.5-17.6,20.5-26.3c2.8-3.6,5.6-7.2,8.4-10.7c1.4-1.8,3-3.6,4.3-5.5c0.1-0.1,0.1-0.2,0.2-0.3
		l-2.8-3.7v58.4c0.1,1.2,0.6,2.3,1.4,3.1c0.3,0.4,1.4,1.3,1.4,0.2v-58.5c0-0.8-1.8-4.9-2.8-3.7c-3.8,4.7-7.5,9.4-11.2,14.2
		c-7.1,9-14.1,18-21,27.1c-2.8,3.7-5.7,7.5-8.5,11.2c-0.9,1.3-1.8,2.5-2.7,3.8c-0.5,0.7-1,1.4-1.3,2.1c-0.6,1.8,1.2,4.3,2.7,5.1
		c1.2,0.6,2.6,0.9,3.9,0.9c4.7,0.4,9.4,0.4,14.2,0.1c8.6-0.4,17.2-1,25.8-1.9l0.5,0C92.8,319,90.8,314.6,89.5,314.8z"></path><path class="st0" d="M302.6,294.5c0,5.8-0.4,11.7-1.1,17.5l0.1-1c-2.9,21.3-11,42.9-26.1,58.6c-3.6,3.8-7.6,7.1-12,10l0.9-0.6
		c-7.8,5.1-16.7,8-26,8.4l1.5-0.1c-2.4,0.1-4.8,0-7.1-0.3c-1.1-0.1-2.3-0.3-3.4-0.5l-0.8-0.2l1.5,0.3l-0.6-0.1l-1.8-0.4
		c-1-0.3-2.1-0.6-3.1-0.9c-0.8-0.3-2.1-0.8,1.4,0.5l-0.8-0.3l-1.9-0.7l-1.6-0.7c-1.4-0.7,3.1,1.5,1.7,0.8l-0.8-0.4l-1.5-0.8
		l-0.8-0.4c-1.5-0.9,3.6,2.1,1.6,0.9c-0.9-0.6-1.8-1.1-2.7-1.7c-1.4-1,3.2,2.2,1.8,1.2l-0.7-0.5c-0.6-0.4-1.1-0.8-1.7-1.2l-0.7-0.6
		l-0.2-0.2l1.6,1.3c-0.5-0.4-0.9-0.8-1.4-1.2c-1-0.9-2-1.8-2.9-2.7s1.9,1.9,1.1,1.1l-0.5-0.6c-0.4-0.5-0.9-0.9-1.3-1.4
		c-0.9-1-1.8-2-2.7-3.1c-0.4-0.5-0.8-1-1.2-1.5s-1.9-2.6-0.1-0.1c-0.8-1.1-1.7-2.3-2.5-3.5c-3.5-5.2-6.5-10.7-8.9-16.5l0.6,1.4
		c-6.7-16.1-9.9-33.4-9.5-50.8c0.1-5.1,0.4-10.2,1-15.2l-0.1,1.1c2.9-21.3,11-42.9,26.1-58.6c3.6-3.8,7.6-7.1,12-10l-0.9,0.6
		c7.8-5.1,16.8-8,26.1-8.4l-1.5,0.1c2.4-0.1,4.8,0,7.1,0.3c1.1,0.1,2.3,0.3,3.4,0.5l0.8,0.2l-1.5-0.3l0.5,0.1
		c0.6,0.1,1.2,0.3,1.8,0.4c1,0.3,2.1,0.6,3.1,0.9c0.8,0.3,2.1,0.8-1.4-0.5l0.8,0.3c0.6,0.2,1.2,0.5,1.9,0.7s1,0.5,1.6,0.7
		c1.5,0.7-3.1-1.5-1.7-0.8l0.8,0.4l1.5,0.8l0.8,0.4c1.5,0.8-3.5-2.1-1.6-0.9c0.9,0.6,1.8,1.1,2.7,1.7c1.4,1-3.2-2.2-1.8-1.2l0.7,0.5
		c0.6,0.4,1.1,0.8,1.7,1.3l0.7,0.6l0.2,0.2l-1.6-1.3c0.5,0.4,0.9,0.8,1.4,1.2c1,0.9,2,1.8,2.9,2.7s-1.9-1.9-1.1-1.1l0.5,0.6
		c0.4,0.4,0.9,0.9,1.3,1.4c0.9,1,1.8,2,2.7,3.1c0.4,0.5,0.8,1,1.2,1.5s1.9,2.6,0.1,0.1c0.8,1.1,1.7,2.3,2.5,3.5
		c3.5,5.2,6.5,10.7,8.9,16.5l-0.6-1.4c4.9,11.8,8,24.3,9,37C302.4,286.9,302.6,290.7,302.6,294.5c0,1.7,2.8,4.1,3.7,5
		c2.4,2.2,5.1,4,7.9,5.5c1.6,0.8,9.8,5,9.8,0.9c0.1-19.7-4.4-39.1-13.2-56.6c-9.3-18.1-24-32.9-42.1-42.4
		c-8.4-4.4-17.6-7.7-27.1-8.4c-7.6-0.6-15.3,0.5-22.5,3.1c-15,5.7-26.8,17.7-34.9,31.3c-9.7,16.3-14.5,35.3-15.5,54.2
		c-1.2,19.9,2.3,39.8,10.2,58.1c7.9,18.1,21,33.5,37.6,44.1c15.3,9.8,33.9,15.8,51.9,11c15.1-4,27.7-14.9,36.5-27.5
		c10.6-15.4,16.3-33.7,18.3-52.2c0.5-4.9,0.8-9.8,0.8-14.7c0-1.6-2.8-4.1-3.7-4.9c-2.4-2.2-5.1-4-7.9-5.5
		C310.7,294.6,302.6,290.5,302.6,294.5z"></path><path class="st0" d="M471.2,317.8l-29,2l-3.5-113.2c0,0-14.5-3.8-16.8-3.8s-83.4,122.3-83.4,122.3v9.2h67.3l-2.3,69.6h41.3
		l-2.1-68.9l28.5,2.5V317.8z M406.4,318.3c0,0-46.8,4.8-44.6,0s44.6-58.4,44.6-58.4V318.3z"></path><path class="st0" d="M470,316.2l-25.4,1.7l-3.6,0.2l3.6,2.2l-0.4-11.3l-0.8-27l-1-32.6l-0.9-28.4l-0.3-9.3c0-1.5,0-3-0.1-4.4
		c0-0.1,0-0.1,0-0.2c0-1.1-1.5-1.9-2.5-2.1c-3-0.8-5.9-1.5-8.9-2.2c-2-0.5-3.9-0.9-5.9-1.3c-1.1-0.2-2.7-0.7-3.8-0.2
		c-0.7,0.4-1.2,1-1.7,1.6c-0.9,1.1-1.8,2.3-2.7,3.5c-3,4.1-5.9,8.3-8.8,12.4c-4,5.7-7.9,11.5-11.8,17.2c-4.6,6.7-9.1,13.5-13.7,20.2
		c-4.7,7-9.3,13.9-14,20.9c-4.3,6.5-8.7,12.9-13,19.4c-3.5,5.2-7,10.4-10.4,15.7c-2.2,3.2-4.3,6.5-6.5,9.7c-0.5,0.6-0.9,1.3-1.3,2
		c-0.1,0.3-0.2,0.6-0.2,0.8c-0.1,1.7,0,3.4,0,5.1v3.7c0,1.3,2,2.2,3.1,2.2h67.3l-3.1-2.2l-0.8,23.5l-1.2,37.5l-0.3,8.6
		c0,1.3,2.1,2.2,3.1,2.2h41.3c0.7,0,1.7-0.2,1.7-1.1l-0.7-23.4l-1.1-37l-0.3-8.5l-1.7,1.1l25,2.2l3.6,0.3c0.7,0.1,1.7-0.2,1.7-1.1
		v-19.6c0-1.9-4.8-3.3-4.8-1.1v19.7l1.7-1.1l-25-2.2l-3.6-0.3c-0.7-0.1-1.7,0.2-1.7,1.1l0.7,23.4l1.1,37l0.3,8.5l1.7-1.1h-41.3
		l3.1,2.2l0.8-23.5l1.2-37.5l0.3-8.6c0-1.3-2.1-2.2-3.1-2.2h-67.3l3.1,2.2V331c0.1-1.7,0.1-3.3,0-5c0-0.5,0.1,0,0,0.1
		c0-0.1,0.1-0.1,0.1-0.2c0.2-0.2,0.4-0.5,0.5-0.7l5.3-7.9c7.2-10.9,14.5-21.7,21.7-32.5c9.1-13.7,18.3-27.3,27.5-41
		c7.2-10.7,14.5-21.4,21.8-31.7c1.7-2.5,3.5-5,5.5-7.3c0.1-0.2,0.5-0.4,0.6-0.6s-0.5,0.2-0.3,0.2c0,0-1.3,0.3-0.7,0.1
		c0.1,0,0.2,0,0.3,0c0.5,0.1-0.6-0.1,0,0l1.2,0.2c4,0.8,8,1.8,11.9,2.8l2.5,0.6l-2.5-2.1l0.4,11.3l0.8,27l1,32.6l0.9,28.3l0.3,9.3
		c0,1.5,0,3,0.1,4.5c0,0.1,0,0.1,0,0.2c0,1.6,2.4,2.3,3.6,2.2l25.4-1.7l3.6-0.2c1.1-0.1,1.4-1.1,0.8-1.9
		C472.4,316.6,471.2,316.1,470,316.2z"></path><path class="st0" d="M405.2,316.7c-7.1,0.7-14.2,1.3-21.3,1.7c-4.9,0.3-9.7,0.5-14.8,0.4c-1,0-2-0.1-3-0.1l-1.2-0.1l-0.5-0.1
		c0.5,0.1,0.2,0-0.1,0s-0.6-0.1-0.9-0.2c-0.5-0.1,0.1,0,0.2,0.1c-0.1-0.1-0.2-0.1-0.4-0.1c-0.5-0.2,0.6,0.3,0.3,0.1s0.5,0.4,0.2,0.2
		c0.2,0.2,0.4,0.5,0.5,0.8c0,0-0.2,0.3,0,0c0.1-0.1,0.1-0.3,0.2-0.4c0.2-0.4,0.4-0.7,0.7-1.1c0.9-1.3,1.3-1.9,2.2-3.2
		c2.6-3.5,5.2-7,7.8-10.5c6.7-8.9,13.6-17.6,20.4-26.4c2.8-3.6,5.6-7.2,8.4-10.7c1.4-1.8,3-3.6,4.3-5.5l0.2-0.2l-4.5-1.8v58.4
		c0,1.9,4.8,3.3,4.8,1.1v-58.4c0-1.5-3.4-3.1-4.5-1.8c-3.7,4.7-7.5,9.4-11.2,14.2c-7,9-14,18-21,27.1c-2.8,3.7-5.7,7.5-8.4,11.2
		c-1,1.4-2,2.7-2.9,4.1c-0.5,0.7-1,1.4-1.3,2.2c-0.6,1.6,1.2,2.9,2.5,3.5c1.6,0.6,3.2,0.9,4.9,1c4.7,0.3,9.5,0.3,14.2,0
		c8.7-0.4,17.4-0.9,26.1-1.9h0.5c1.1-0.1,1.4-1.1,0.8-1.9C407.6,317.1,406.4,316.6,405.2,316.7z"></path></g><g id="cable"><path class="st1" d="M381,439.8c5.4-0.1,10.8-0.5,16.2-0.9c11.7-0.9,23.3-2.4,34.8-4.7c13.1-2.7,26.3-6.7,37.8-13.8
		c3.8-2.4,7.6-5.3,9.8-9.3c2.4-4.4,2.4-9.8,0-14.2c-2.8-5-8.1-8-13.2-9.9c-3.8-1.4-7.7-2.4-11.7-3l-0.7-0.1
		c-0.8,0.1-1.5,0.3-2.2,0.6c-1.2,0.5-2.4,1-3.5,1.6c-0.9,0.4-1.8,0.9-2.6,1.5c-0.2,0.1-0.8,0.6-0.2,0.6c2.8,0.3,5.6,0.9,8.3,1.8
		c5,1.4,10.1,3.7,13.9,7.4c3.9,3.8,5.5,9.4,4.2,14.6c-0.5,1.8-1.3,3.4-2.4,4.9c-0.6,0.8-1.2,1.5-1.9,2.2l-0.5,0.5
		c-0.1,0.1-0.6,0.6-0.3,0.3c-0.4,0.4-0.8,0.7-1.3,1s-0.8,0.6-1.2,0.9c-0.7,0.5,0.5-0.3-0.3,0.2l-0.8,0.5c-0.2,0.1-0.5,0.2-0.6,0.4
		c1-0.8,0.2-0.1-0.1,0.1s-0.5,0.2-0.7,0.4c1.4-0.9,0.4-0.2,0,0l-0.5,0.2c-0.5,0.3,1.3-0.6,0.5-0.3l-0.7,0.4l-0.4,0.2
		c-0.8,0.4,1.1-0.5,0.5-0.2l-1.1,0.5c-0.3,0.1-0.5,0.2-0.8,0.3c1.4-0.7,0.4-0.2,0,0l-2,0.8c-0.6,0.2,0.3-0.1,0.3-0.1
		s-0.4,0.1-0.5,0.2l-1,0.3c-0.7,0.2-1.4,0.5-2.1,0.7l-1.9,0.6c0,0-0.8,0.2-0.3,0.1s-0.3,0.1-0.3,0.1l-1.1,0.3
		c-2.8,0.8-5.7,1.5-8.6,2.1c-11.1,2.3-22.4,4-33.7,4.9c-6.1,0.5-12.3,0.8-18.5,1.1h-0.3c-0.8,0.1-1.5,0.3-2.2,0.6
		c-1.2,0.5-2.4,1-3.5,1.6c-0.9,0.4-1.8,0.9-2.6,1.5C381.1,439.2,380.4,439.8,381,439.8L381,439.8z"></path><path class="st1" d="M165.4,291.9c-0.2-0.1-0.5-0.2-0.7-0.4S166.1,292.3,165.4,291.9l-0.5-0.2l-1-0.6c-0.9-0.6-1.8-1.2-2.7-1.9
		l-0.3-0.2c-0.6-0.5,1,0.8,0.4,0.3l-0.8-0.6c-0.5-0.5-1.1-1-1.6-1.5s-1-1-1.5-1.6c-0.3-0.3-0.5-0.6-0.8-0.9
		c-0.1-0.1-0.2-0.3-0.3-0.4c0.2,0.2,0.5,0.7,0.1,0.1c-1-1.4-2-2.8-2.8-4.3c-0.4-0.8-0.8-1.7-1.2-2.5c0-0.1,0.2,0.6,0,0l-0.2-0.7
		c-0.2-0.5-0.3-0.9-0.4-1.4c-0.6-2-0.9-4.1-1-6.2c0-0.5,0-1.1,0-1.6c0-0.2,0-0.5,0-0.8s0-0.3,0-0.4c0,0.4,0,0.3,0,0
		c0.1-1.2,0.2-2.5,0.4-3.7c0.5-2.7,1.2-5.4,2.2-8c2.7-6.7,6.4-13,11-18.5c6-7.6,13-14.4,19.6-21.4c5.3-5.6,10.6-11.2,15.7-17.1
		c3.6-4,6.9-8.2,9.9-12.7c2-3.1,4-6.5,4.7-10.2c1.5-7-2.4-12.9-7.4-17.4c-3.6-3.2-7.4-6.1-11.5-8.7c-1-0.7-2-1.4-3-2.1l-0.7-0.5
		l-0.2-0.2c-0.4-0.3,0.8,0.6,0.4,0.3s-0.9-0.8-1.4-1.2c-0.8-0.7-1.6-1.4-2.3-2.2c-0.3-0.4-0.7-0.7-1-1.1s-0.9-0.9-1-1.2
		c0,0.3,0.5,0.7,0.2,0.3l-0.2-0.3l-0.5-0.6c-0.3-0.4-0.6-0.8-0.9-1.3c-0.6-0.8-1.1-1.7-1.5-2.6s-0.8-1.7-1.2-2.6
		c0-0.1-0.1-0.2-0.1-0.3c-0.2-0.4,0.2,0.7,0.1,0.3c-0.1-0.2-0.1-0.4-0.2-0.6c-0.2-0.5-0.3-1-0.5-1.4c-0.5-1.8-0.8-3.6-1-5.4
		c-0.1-0.9-0.1-1.8-0.1-2.7c0-0.5-0.1,0.7,0,0c0-0.2,0-0.4,0.1-0.7c0-0.4,0.1-0.9,0.2-1.3c0.3-1.8,0.7-3.5,1.4-5.2
		c0.3-0.9,0.7-1.7,1.2-2.5c0.3-0.7-0.1,0.2,0.1-0.1l0.3-0.5c0.3-0.4,0.6-0.9,0.8-1.3c1.1-1.6,2.4-3.1,3.9-4.4
		c0.4-0.4,0.8-0.7,1.2-1.1l0.6-0.4c0.3-0.2,0.9-0.7,0.2-0.2c0.9-0.7,1.9-1.3,2.9-1.9c2.1-1.3,4.3-2.4,6.6-3.2l0.8-0.3
		c-1,0.4,0,0,0.3-0.1c0.7-0.2,1.3-0.4,2-0.6c1.4-0.4,2.8-0.8,4.2-1.1s3.1-0.6,4.6-0.9l1.1-0.2c0.1,0,0.8-0.1,0.2,0h0.2
		c0.8-0.1,1.7-0.2,2.5-0.3c3.6-0.3,7.2-0.5,10.8-0.4h1.5c0.3,0,1.8,0.1,0.7,0c1,0,1.9,0.1,2.9,0.2c2.1,0.1,4.2,0.3,6.3,0.6
		c1.5,0.2,4.7-0.1,4.3-2.4s-3.6-3.3-5.4-3.6c-14.7-1.7-30.1-1.6-44.1,3.7c-8.5,3.2-16.4,9-20.1,17.5c-3.2,7.4-2.4,15.7,1.1,22.8
		c1.9,4,4.6,7.5,7.8,10.6c3.7,3.6,8,6.2,12.2,9.2c0.9,0.7,1.9,1.4,2.8,2.1c0.4,0.3,1.7,1.5,0.6,0.4c0.4,0.3,0.8,0.6,1.2,1
		c1.4,1.2,2.7,2.4,3.9,3.8c0.1,0.2,0.2,0.3,0.4,0.5c0.3,0.4-0.6-0.8-0.1-0.2c0.2,0.3,0.5,0.7,0.7,1c0.4,0.6,0.8,1.2,1.1,1.9
		c0.1,0.3,0.2,0.6,0.4,0.9c-0.4-0.5-0.2-0.6-0.1-0.2c0.1,0.2,0.1,0.4,0.2,0.5c0.2,0.7,0.3,1.3,0.4,2c0,0.3,0.1,0.6,0.1,0.9v0.6
		c0,0.7,0.1-0.6,0,0c-0.1,0.7-0.1,1.4-0.3,2.1c-0.4,1.6-0.9,3.1-1.6,4.6c-0.2,0.4-0.4,0.8-0.6,1.2l-0.4,0.6
		c-0.2,0.4,0.1-0.1,0.1-0.2l-0.2,0.4c-0.6,0.9-1.1,1.8-1.7,2.7c-1.4,2.1-3,4.2-4.6,6.2c-10.1,12.6-21.7,23.9-32.7,35.6
		c-6.1,6.4-11.4,13.5-15.8,21.2c-3,5.2-4.9,10.9-5.8,16.8c-1.1,8.6,1.3,17.3,6.7,24.1c3.5,4.3,7.8,7.9,12.7,10.6l0.7,0.3
		c1.7,0.8,5,1.5,6.4-0.2S166.7,292.5,165.4,291.9L165.4,291.9z"></path><path class="st1" d="M87.1,435.9l-0.4-0.1l-1.8-0.3c-2.1-0.4-4.2-0.8-6.2-1.2c-6.3-1.3-12.6-2.9-18.7-4.9
		c-6.4-2.1-12.9-4.6-18.5-8.5l-0.8-0.6l-0.4-0.3c-0.4-0.3,0.1,0.1-0.2-0.1c-0.5-0.4-1-0.9-1.5-1.4c-0.2-0.2-0.4-0.5-0.7-0.7
		s-0.5-0.7,0.1,0.1l-0.3-0.4c-0.1-0.1-0.2-0.2-0.3-0.4c-0.4-0.5,0.4,0.6,0.2,0.4c-0.7-1,0.5,0.8,0,0.1s0.7,1.3,0.4,0.7
		s0.6,1.3,0.3,0.7s0.2,0.5,0.3,0.6c-0.1-0.2-0.3-0.8,0,0s0.1,0.2,0,0c-0.2-0.5,0.1,0.4,0.1,0.2s-0.1-0.6-0.2-0.9s0-0.3,0-0.4
		c0-0.4,0,0.4,0-0.1c0-0.3,0-0.6,0-0.9c0-0.6,0.1-1.2,0.3-1.8c0.9-3,2.5-5.6,4.7-7.7c3.3-3.3,7.1-6.1,11.2-8.2
		c8.9-4.7,19-6.9,28.8-8.4c10.1-1.6,20.3-2.4,30.5-3.8c7.9-1.1,16.6-2.4,23.6-6.6c3.4-2.1,6.2-5.2,7.9-8.8c2.4-4.5,3-9.7,1.7-14.6
		c-2.4-8.6-7.9-16.1-15.4-21.1c-0.4-0.2-0.8-0.5-1.2-0.7c-1-0.6,0.6,3.4,0.6,3.6c0.5,1.2,1.2,2.3,1.9,3.4c0.4,0.7,0.9,1.3,1.6,1.8
		c0.4,0.2,0.8,0.5,1.2,0.7s0.9,0.6,1.3,0.9l0.7,0.5l0.4,0.3c-0.3-0.3,0,0,0.2,0.1c0.6,0.5,1.2,1.1,1.8,1.6l0.9,0.9
		c0.1,0.1,0.3,0.3,0.4,0.5c0.5,0.5-0.2-0.3,0.1,0.1l0.8,1c0.4,0.5-0.5-0.7-0.1-0.1c0.1,0.2,0.3,0.4,0.4,0.6s-0.6-1-0.2-0.2
		s-0.4-0.6-0.2-0.4c0.5,1-0.5-1-0.1-0.3s-0.4-1-0.1-0.1c0.3,0.7-0.1-0.3,0-0.1s0.1,0.5,0.2,0.7s0.1,0.2,0.1,0.4c0,0-0.1-0.5-0.1-0.2
		s0.1,0.6,0.2,0.8c0.2,1,0.3,1.9,0.2,2.9c-0.1,2.5-0.7,5-1.8,7.3c-1.7,3.8-4.4,7-7.9,9.3c-6.9,4.4-15.5,5.7-23.4,6.8
		c-10.1,1.4-20.3,2.2-30.4,3.8c-9.9,1.5-20,3.6-29,8.2c-4.2,2.1-8.1,4.9-11.4,8.2c-2.3,2.2-4.1,5-5.1,8c-0.7,3-0.3,6,1,8.8
		c1.6,4.2,4.1,8.1,7.3,11.2c4.8,4.5,11.1,7.3,17.2,9.6c6.4,2.3,13,4.2,19.7,5.7c3.9,0.9,7.9,1.7,11.9,2.3l0.8,0.1
		c0.4,0.1-0.2-1.8-0.1-1.6c-0.4-1.1-0.8-2.2-1.4-3.2c-0.5-1.1-1.2-2.1-1.9-3C88,436.4,87.6,436,87.1,435.9L87.1,435.9z"></path><path class="st1" d="M87.9,310.5l-0.4-0.2C87.1,310.1,88.8,311.2,87.9,310.5l-0.6-0.4c-1.1-0.8-2.2-1.7-3.2-2.7
		c-0.5-0.5,0.7,0.8,0.2,0.1l-0.4-0.4c-0.3-0.3-0.6-0.7-0.9-1.1s-1.3-2.2-1.4-2.2c0,0,0.4,0.8,0.2,0.4c0-0.1-0.1-0.2-0.1-0.3
		s-0.2-0.4-0.2-0.6c-0.2-0.4-0.3-0.9-0.5-1.4c-0.1-0.4-0.1-0.9-0.2-1.3s0,0.8,0,0c0-0.3,0-0.6,0-0.9c0.1-1,0.3-2,0.6-3
		c-0.2,0.9,0,0.1,0.1-0.2s0.2-0.5,0.4-0.8c0.3-0.6,0.7-1.2,1.1-1.8c0.4-0.6,0.9-1.1,1.3-1.7c0.3-0.4-0.4,0.4,0,0l0.4-0.4
		c0.3-0.3,0.6-0.6,1-0.9c1.5-1.4,3.1-2.6,4.8-3.7c3.8-2.4,7.8-4.5,12-6.1c2-0.8,4-1.6,6-2.2l0.9-0.3c-0.2,0.1-0.8,0.2,0,0l1.4-0.4
		c1.1-0.3,2.2-0.6,3.3-0.9c4.2-1.1,8.4-1.9,12.7-2.6c1-0.1,2-0.3,3-0.4s0.1,0-0.1,0l0.8-0.1l1.9-0.2c2.1-0.2,4.2-0.4,6.4-0.5
		c4.2-0.2,8.4-0.3,12.6-0.2l3.1,0.1l1.4,0.1c0.3,0,1.2,0-0.1,0c0.3,0,0.6,0,0.9,0c2,0.1,3.9,0.3,5.9,0.4c3.8,0.4,7.5,0.8,11.2,1.4
		c1.7,0.3,3.4,0.6,5.1,0.9l2.3,0.5l1.1,0.2l-0.5-0.1c0.3,0.1,0.5,0.1,0.8,0.2c2.8,0.6,5.5,1.3,8.2,2.1c1.1,0.4,2.3,0.7,3.4,1.1
		l1.5,0.6c1,0.4-0.4-0.2-0.3-0.1l0.7,0.3c1.7,0.7,3.3,1.5,4.9,2.4c0.7,0.4,1.4,0.8,2,1.2c0.1,0.1,0.6,0.3,0.6,0.4s-0.9-0.6-0.2-0.1
		c0.3,0.2,0.7,0.5,1,0.7c0.6,0.4,1.1,0.9,1.7,1.3c0.2,0.2,0.5,0.4,0.7,0.6l0.3,0.3c0.5,0.5-0.4-0.5-0.1-0.1s0.8,0.9,1.1,1.4
		c0.1,0.2,0.3,0.4,0.4,0.6s0.1,0.2,0.2,0.3c0.3,0.5-0.3-0.7-0.1-0.1c0.1,0.4,0.3,0.9,0.4,1.3c0,0.1,0.2,0.5,0.1,0.6s0-0.8,0-0.3
		c0,0.2,0,0.3,0,0.5c0,0.4-0.2,0.9-0.3,1.3c0.1-0.8,0.1-0.4-0.1,0c-0.1,0.3-0.3,0.5-0.5,0.8c-0.1,0.2-0.3,0.4-0.5,0.6
		c-0.3,0.5,0.1-0.1,0.2-0.2c-0.1,0.1-0.2,0.2-0.3,0.3c-0.5,0.5-1.1,0.9-1.7,1.4l-0.9,0.6c0.8-0.5-0.2,0.1-0.4,0.2
		c-0.9,0.5-1.8,0.9-2.7,1.3c-0.9,0.4-1.9,0.7-2.9,1.1c-1.2,0.4,0.4-0.1-0.3,0.1l-0.8,0.2c-0.7,0.2-1.3,0.4-2,0.5
		c-1.8,0.5-3.7,2-2.3,3.9s4.6,2.5,6.6,2c4.7-1.3,9.4-2.8,13.5-5.5c2.4-1.6,4.5-3.8,5.1-6.7c0.5-2.6-0.7-5.2-2.2-7.2
		c-2.3-2.7-5-4.9-8.1-6.7c-5.3-3.1-11-5.5-16.9-7c-7-1.9-14.2-3.3-21.4-4.2c-17.9-2.4-36.4-2.3-54.1,1.2c-9.3,1.8-18.3,4.8-26.8,9
		c-6.9,3.5-15,8.4-17.7,16.2c-2.8,8.1,3.9,15.5,10.3,19.5l0.4,0.3c1.9,1.1,5.2,1.3,6.9-0.2S89.6,311.4,87.9,310.5L87.9,310.5z"></path><path class="st1" d="M393.7,381.4c-2.1-0.5-4.2-1.1-6.2-1.8l-1.2-0.5l-0.6-0.2l-0.3-0.1c-0.6-0.2,0,0.1,0.2,0.1
		c-0.9-0.3-1.8-0.7-2.6-1.2c-0.4-0.2-0.8-0.4-1.1-0.6s-0.7-0.7,0.2,0.1c-0.2-0.1-0.4-0.3-0.6-0.4l-0.5-0.4c-0.8-0.6,0.6,0.6,0.4,0.3
		c-0.1-0.1-0.3-0.3-0.4-0.4c-0.6-0.5,1.1,1.2,0.4,0.4s0.7,0.9,0.4,0.5c-0.5-0.7,0.3,0.5,0.3,0.5c-0.3-0.5,0.1-0.5,0.2,0.4
		c0-0.2-0.1-0.4-0.2-0.5c0.4,0.3,0.1,0.9,0.1,0.3c0-0.2,0-0.3,0-0.5c0.1,0.4-0.1,0.6,0,0.1c0-0.2,0.1-0.4,0.1-0.6
		c0.1-0.3,0.3-0.7,0.4-1c0.2-0.4-0.2,0.3,0,0s0.1-0.2,0.2-0.3s0.3-0.4,0.5-0.6c0.8-0.9,1.7-1.7,2.6-2.4c3.3-2.2,6.9-4.1,10.6-5.4
		c5-2,10.1-3.6,15.1-5.6c18-7.3,35.6-16.9,50.5-29.5c5.5-4.6,10.7-9.8,14.4-15.9c2.7-4.6,4.5-9.8,2.6-15.1
		c-1.6-4.3-4.9-8.1-8.2-11.1c-3.5-3.3-7.6-5.8-12.1-7.4c-4.9-1.7-10.2-2-15.3-0.9c-0.3,0.1-0.5,0.1-0.8,0.2
		c-1.8,0.6-0.2,3.3,0.4,4.2c0.7,1.1,1.6,2,2.6,2.8c0.6,0.4,1.6,1.2,2.4,1c1-0.3,2.1-0.5,3.1-0.6c1.1-0.1,2.2-0.2,3.4-0.2
		c1.3,0,2.7,0.1,4,0.3c1.6,0.3,3.2,0.7,4.8,1.3l0.6,0.2c-0.6-0.2,0,0,0.2,0.1l1.3,0.6c0.4,0.2,0.8,0.4,1.1,0.6s0.5,0.3,0.7,0.4
		s0.2,0.1-0.2-0.1l0.4,0.3c0.4,0.3,0.8,0.6,1.3,0.9s1.2,1,0.5,0.4l1.4,1.3c0.2,0.2,0.7,0.7-0.1-0.1c0.3,0.3,0.5,0.6,0.8,0.9
		s0.7,0.9,1.1,1.3c-0.7-0.8-0.1-0.1,0.1,0.1c0.5,0.7-0.6-1.1-0.1-0.2l0.1,0.3c0.4,0.7-0.1-0.1-0.1-0.3c0.1,0.2,0.2,0.5,0.3,0.7
		c0,0.1,0.1,0.3,0.1,0.4c0.1,0.4-0.2-0.2-0.1-0.4c0,0.5,0.1,1.1,0.2,1.6c0,0.3,0,0.5,0,0.8c0,0.5,0-0.1,0-0.1c0,0.1,0,0.2,0,0.4
		c-0.1,0.6-0.2,1.2-0.3,1.8c-0.6,2.5-1.6,4.8-2.9,6.9c-3.8,6.1-9.2,11.3-14.8,15.9c-15,12.5-32.7,22.1-50.8,29.2
		c-5,2-10.2,3.6-15.2,5.7c-3.5,1.3-6.9,3.1-9.9,5.3c-1.8,1.2-3.2,3-3.9,5c-0.7,2.5,0.4,5.1,1.8,7.1c4.4,6.7,12.9,10.1,20.4,11.7
		l0.5,0.1c2.1,0.5,1.5-2,0.9-3.1C397.7,384.4,395.8,381.9,393.7,381.4L393.7,381.4z"></path><path class="st1" d="M398.1,272.4l-1.2,0.4l-0.2,0.1l-0.8,0.2l-2,0.6c-4.1,1.2-8.2,2.3-12.3,3.3c-12.8,3.3-25.9,5.7-39,7.2
		c-14.5,1.6-29.5,2.2-43.9-0.6c-3.2-0.6-6.4-1.4-9.4-2.5c-1.5-0.5-3-1.1-4.4-1.8c-0.7-0.3-1.4-0.6-2.1-1l-0.4-0.2
		c0.8,0.4,0.2,0.1,0,0l-1.1-0.6c-0.6-0.4-1.3-0.8-1.9-1.2l-0.9-0.6l-0.5-0.4c-0.6-0.4,0.8,0.6,0.1,0.1c-0.6-0.4-1.1-0.9-1.7-1.3
		c-0.3-0.2-0.6-0.5-0.8-0.7c-0.4-0.4,0.9,0.9,0.4,0.3l-0.6-0.5l-0.7-0.7c-0.1-0.1-0.3-0.3-0.4-0.4c1.2,1.1,0.7,0.8,0.5,0.5l-0.8-0.9
		c-0.3-0.4-1.2-1.6-0.1,0c-0.4-0.6-0.9-1.2-1.3-1.8c-0.2-0.3-0.3-0.7,0.3,0.5c-0.1-0.2-0.2-0.4-0.3-0.5c-0.2-0.4-0.4-0.7-0.6-1.1
		s-0.4-0.7-0.6-1s0.5,1,0.1,0.3l-0.3-0.6c-0.4-0.9-0.9-1.9-1.2-2.8c-0.8-2.2-1.4-4.5-1.6-6.9c-0.3-3.3,0.4-6.6,2-9.5
		c2.5-3.9,6.3-6.8,10.7-8.2l0.4-0.1c0.4-0.1-0.4,0.1-0.1,0c0.1,0,0.1,0,0.2-0.1c1.6-0.4-0.3-3.2-0.9-3.9c-0.7-1.1-1.6-2-2.6-2.8
		c-0.5-0.4-1.5-1.3-2.2-1.1c-3.6,1-6.8,2.8-9.5,5.4c-2.3,2.3-3.9,5.2-4.6,8.4c-1,4.6,0,9.4,1.6,13.7c5.2,14.7,18.2,25.3,32.9,29.8
		c14.3,4.4,29.7,4.5,44.5,3.3c14.2-1.2,28.2-3.5,42-6.8c4.8-1.1,9.6-2.4,14.4-3.7c1.5-0.4,3-0.9,4.6-1.3c0.9-0.2,1.9-0.5,2.8-0.9
		c0.1,0,0.2-0.1,0.3-0.1c0.5-0.2-0.1-1.7-0.1-1.8c-0.5-1.1-1.2-2.1-2-3C401.5,274.1,399.7,271.8,398.1,272.4L398.1,272.4z"></path><path class="st1" d="M307.6,226.9c7-1.1,13.9-2.6,20.7-4.4c12-3.1,24.3-7,35-13.4c4.9-2.9,9.4-6.6,12.4-11.4
		c2.7-4.3,3.3-9.6,1.7-14.5c-1.1-3-2.7-5.9-4.8-8.3c-3.6-4.5-7.6-8.6-11.9-12.4c-7.7-6.7-16.3-12.3-25.6-16.6
		c-11.3-5.5-23.3-9.4-35.6-11.4l-0.6-0.1c-2-0.3-5.2,0.8-5.3,3.3s2.4,3.9,4.6,4.2c0.7,0.1,1.4,0.2,2.1,0.3l1.2,0.2l-0.6-0.1l0.8,0.2
		c1.1,0.2,2.2,0.5,3.3,0.7c6.7,1.6,13.2,3.7,19.5,6.4l0.7,0.3c1,0.4-1.1-0.5-0.1,0l1.4,0.6c1,0.4,2,0.9,3,1.4c2,1,4.1,2,6.1,3.1
		s4.1,2.4,6.1,3.6c1,0.6,1.9,1.2,2.9,1.9l1.6,1.1c0.2,0.1,0.9,0.6,0,0l1,0.7c4.2,3.1,8.2,6.5,11.9,10.2c0.9,0.9,1.8,1.9,2.7,2.9
		l1.2,1.4c-0.6-0.7,0.2,0.3,0.3,0.4c0.2,0.3,0.5,0.6,0.7,0.9c0.9,1.2,1.8,2.4,2.5,3.7c0.3,0.6,0.6,1.1,0.9,1.7s-0.3-0.8-0.2-0.4
		c0,0.1,0.1,0.3,0.2,0.4c0.1,0.3,0.2,0.6,0.4,1c0.2,0.5,0.3,1,0.4,1.6c0.1,0.6,0.1,1.2,0.3,1.8c0,0,0-1.1,0-0.6c0,0.1,0,0.3,0,0.4
		s0,0.5,0,0.7c0,0.5-0.1,1.1-0.2,1.6c-0.1,0.5-0.3,1-0.3,1.4c0.1-1.3,0.1-0.5,0,0c-0.1,0.3-0.2,0.6-0.3,0.8c-0.4,1-0.9,1.9-1.5,2.8
		c-0.5,0.8,0.6-0.8,0.1-0.1l-0.5,0.7c-0.4,0.5-0.8,1-1.2,1.4c-0.8,0.9-1.7,1.7-2.6,2.5c-0.2,0.2-0.5,0.4-0.7,0.6
		c1.1-1,0.2-0.2-0.1,0c-0.6,0.4-1.1,0.8-1.7,1.2c-2.3,1.6-4.8,3-7.3,4.3l-1.9,0.9l-0.9,0.4c-0.8,0.4,1.1-0.5,0.3-0.1l-0.6,0.2
		c-1.4,0.7-2.9,1.3-4.3,1.8c-5.7,2.2-11.4,4.1-17.3,5.7c-2.7,0.7-5.3,1.4-8,2c-1.2,0.3-2.3,0.5-3.5,0.8l-0.9,0.2
		c-1.2,0.3,0.6-0.1,0.2-0.1l-1.6,0.3c-2.6,0.5-5.1,1-7.7,1.4l-0.4,0.1c-2,0.3-4.7,1.8-3.9,4.3S305.4,227.3,307.6,226.9L307.6,226.9z
		"></path><path class="st0" d="M269.4,95.9c2-6.2,4.6-12.2,7.2-18.2c0.8-1.8-2.3-2.9-3.6-2.6l-11.6,3l3.6,2.6l10.3-20.1c1-2-3.6-3.8-4.7-1.7
		L260.3,79c-0.4,0.7,0.4,1.6,0.9,2c0.8,0.6,1.7,0.8,2.7,0.6l11.6-3l-3.6-2.6c-2.6,6-5.2,12-7.2,18.2C264,96.4,268.7,98.1,269.4,95.9
		L269.4,95.9z"></path><path class="st0" d="M286.1,95.8c3.8-5.4,8.8-9.9,14.7-13c1.7-0.9-0.5-2.6-1.5-2.8c-1.2-0.2-2.3-0.5-3.5-0.9
		c-0.5-0.2-1-0.3-1.5-0.5l-0.8-0.3c-0.5-0.2-0.5-0.2-0.2-0.1l0.5,0.8c0-0.2,1.3-1.3,1.5-1.5l1.7-1.7c1.2-1.2,2.4-2.4,3.5-3.6
		c2.3-2.3,4.7-4.6,7-6.9c0.9-0.8-0.5-2-1.2-2.3c-1-0.5-2.3-0.4-3.2,0.3c-3.9,3.9-7.9,7.8-11.7,11.7c-0.7,0.8-2.2,1.8-2.4,2.9
		c-0.2,1.3,1.1,2.2,2.1,2.7c2.4,1.2,5,2,7.6,2.5l-1.5-2.8c-6.1,3.2-11.4,7.9-15.4,13.6C280.3,95.7,284.9,97.4,286.1,95.8L286.1,95.8
		z"></path><path class="st0" d="M248.7,131.9c-2,4.5-3.8,9-5.5,13.6c-0.4,1-1.1,2.2-0.3,3.2c0.8,0.8,1.9,1.2,3,1.2c1.3,0.1,2.6,0,3.9,0.1h2
		c0.1,0,1.2,0.2,0.9,0l-0.9-0.6c-0.3,0.8-0.6,1.5-1,2.3l-1.2,2.7l-2.3,5.4c-0.9,2.1,4,2.8,4.8,1.1l2.5-5.8l1.4-3.1
		c0.4-0.8,1-1.8,0.8-2.7c-0.4-1.9-3-2.1-4.6-2.1l-3.2,0h-1.5c-0.4,0-2.3-0.3-0.9,0.1l0.9,0.6l-0.2-0.2l0.3,0.8
		c-0.1-1.1,0.8-2.6,1.1-3.7c0.5-1.3,1-2.6,1.5-4c1-2.6,2.1-5.1,3.2-7.6C254.4,131,249.5,130.2,248.7,131.9L248.7,131.9z"></path><path class="st0" d="M238.3,117.2c-5.2,3.1-10.2,6.4-15.1,10.1c-1.7,1.3-0.4,3.3,1.5,3.1c3.5-0.3,7,0.2,10.3,1.5l-0.7-2.6
		c-3.9,6.2-10.4,10.2-15,15.9c-0.6,0.7-0.5,1.7,0.2,2.3c0.2,0.1,0.3,0.2,0.5,0.3c1.2,0.4,2.6,0,3.4-0.9c4.6-5.7,11.1-9.6,15-15.9
		c0.6-0.7,0.5-1.7-0.2-2.3c-0.1-0.1-0.3-0.2-0.5-0.3c-4-1.6-8.4-2.2-12.7-1.8l1.5,3.1c4.5-3.4,9.2-6.5,14-9.4
		c0.9-0.5,1.8-1.7,1.1-2.7C240.7,116.7,239.3,116.6,238.3,117.2L238.3,117.2z"></path><path class="st2" d="M294.7,143.1c0,0-7.5,7.5-24.8,4.3c0,0-8.1-23.3,9.8-38c0,0,19.3,2.3,17.6,23.9l4.6,2.9l-2.6,7.5L294.7,143.1z
		"></path><path class="st1" d="M293.2,141.1c-1.7,1.5-3.7,2.7-5.9,3.4c-6,2.2-12.6,2.1-18.9,1l3,3.9c-0.8-2.6-1.4-5.3-1.6-8.1
		c-0.7-6,0.1-12.1,2.4-17.8c1.4-3.4,3.5-6.5,6-9.2c0.7-0.7,1.4-1.4,2.2-2.1c0.2-0.2,0.6-0.7,0.9-0.7c0.3,0,0.5,0,0.8,0.1
		c3.2,0.7,6.2,2,8.8,3.9c0.9,0.7,1.8,1.5,2.6,2.4c-0.1-0.2,0.1,0.1,0.1,0.1c-0.1-0.2-0.2-0.3-0.3-0.4c-0.2-0.2,0.2,0.3,0.2,0.4
		c0.3,0.6,0.7,1.2,0.9,1.9c1.4,3.7,1.9,7.7,1.5,11.6c0,0.6,0.8,1.5,1.1,1.9c0.5,0.8,1.1,1.5,1.8,2.1l4.6,2.9l-2.9-4l-2.3,6.6
		c-0.3,1-0.3,0.8-1.3,0.7L293.2,141.1c0,0,1.2,2,1.3,2.2c0.3,0.4,1,1.8,1.7,1.9l3.5,0.4c0.2,0,1,0.2,1.1,0.1s0.2-0.7,0.3-0.8
		l2.3-6.6c0.1-0.4-0.9-1.6-1.1-1.9c-0.5-0.8-1.1-1.5-1.8-2.1l-4.6-2.9l2.9,4c0.4-3.7,0-7.5-1.2-11c-1.2-3.3-3.1-6.3-5.4-8.9
		c-2.9-3.5-6.7-6.1-11-7.4c-0.9-0.4-1.9-0.6-2.9-0.7c0,0-0.1,0-0.1,0c-0.4,0.1-1,0.9-1.3,1.1s-0.8,0.8-1.2,1.2
		c-1.5,1.5-2.8,3.1-4,4.9c-3.6,5.9-5.4,12.7-5.1,19.6c0,3.9,0.6,7.7,1.8,11.4c0.4,0.8,0.9,1.6,1.5,2.3c0.3,0.4,0.9,1.5,1.5,1.6
		c6.2,1.1,12.9,1.2,18.9-1c2.2-0.7,4.2-1.8,5.9-3.4C296.6,144.7,293.3,141,293.2,141.1z"></path><path class="st1" d="M274.9,147.4c2.2-3,4.1-6.2,5.7-9.5c2.9-5.7,5.5-12.4,5-18.9c-0.3-3.9-2-7.5-4.8-10.2
		c-0.8-0.7-2.1-0.6-2.8,0.2c-0.1,0.1-0.1,0.2-0.2,0.2c-0.6,1.2-0.2,2.6,0.8,3.4c0.8,0.8,1.5,1.7,1.9,2.7c0.1,0.1,0.4,1,0.2,0.6
		c0.1,0.3,0.2,0.6,0.2,0.9c0.1,0.3,0.1,0.6,0.2,0.9s0,0.3,0.1,0.5c0.1,0.8,0-0.4,0,0.3c0.2,2.8-0.2,5.7-1.1,8.4
		c-1.7,5.1-4,10-7,14.5c-0.6,1-1.3,2-2,3C269.6,146.5,273.1,149.8,274.9,147.4L274.9,147.4z"></path><path class="st1" d="M277,123.8c0.4-0.8,0.8-1.6,1.1-2.5c0.1-0.2,0-0.5-0.1-0.7c-0.2-0.3-0.4-0.5-0.7-0.6c-0.3-0.1-0.6-0.2-0.9-0.1
		c-0.3,0-0.5,0.2-0.6,0.4c-0.3,0.9-0.6,1.7-1,2.5c-0.1,0.2-0.1,0.5,0.1,0.7c0.2,0.3,0.4,0.5,0.7,0.6
		C276,124.3,276.7,124.4,277,123.8L277,123.8z"></path><path class="st1" d="M273.3,127.9l-1.6,4.8c-0.1,0.2-0.1,0.5,0,0.7c0.1,0.3,0.4,0.5,0.6,0.6c0.3,0.2,0.6,0.2,0.9,0.2
		c0.2,0,0.5-0.1,0.6-0.3l1.6-4.8c0.1-0.2,0.1-0.5,0-0.7c-0.3-0.6-0.9-0.9-1.5-0.9C273.7,127.6,273.4,127.7,273.3,127.9L273.3,127.9z
		"></path><path class="st2" d="M243.5,106.6l2.5-20.9c0,0-19.9-3-21,7.6S243.5,106.6,243.5,106.6z"></path><path class="st1" d="M246,107l2.1-18.3l0.3-2.6c0-1.3-0.9-2.3-2.1-2.4c-2.5-0.4-5-0.5-7.6-0.4c-4.2,0.1-8.9,0.7-12.4,3.2
		c-3.8,2.7-5,7.9-2.8,12c2.2,4,6.5,6.3,10.6,7.8c2.9,1.1,5.9,1.9,9,2.3C244.4,108.8,245.8,108.3,246,107c0.1-1.2-0.9-2.3-2.1-2.4
		c-0.6-0.1-1.2-0.2-1.9-0.3s-1.3-0.3-2-0.4l-0.5-0.1l-0.3-0.1l-0.4-0.1l-0.7-0.2c-1.9-0.6-3.7-1.3-5.4-2.2c0.4,0.2-0.1,0-0.2-0.1
		l-0.6-0.3c-0.4-0.3-0.9-0.6-1.3-0.9c-0.2-0.1-0.4-0.3-0.5-0.4s-0.5-0.5-0.2-0.2c-0.3-0.3-0.7-0.7-1-1l-0.4-0.5
		c-0.3-0.4,0.1,0.2-0.1-0.2c-0.2-0.4-0.4-0.8-0.6-1.3c-0.1-0.3,0,0.2-0.1-0.2c-0.1-0.2-0.1-0.5-0.2-0.7s-0.1-0.4-0.1-0.6
		s0-0.2,0-0.4c0,0.2,0,0.2,0,0c0-0.5,0.1-1,0.2-1.4c0-0.2,0.1-0.4,0.2-0.6c-0.1,0.4,0.1-0.2,0.1-0.3s0.2-0.4,0.3-0.6
		s0.4-0.5,0.2-0.3s0.2-0.2,0.2-0.3s0.4-0.4,0.5-0.5l0.4-0.4c-0.3,0.3,0,0,0.2-0.1c0.4-0.3,0.8-0.5,1.2-0.7c0.2-0.1,0.6-0.3,0.2-0.1
		l0.7-0.3c0.4-0.2,0.9-0.3,1.3-0.4s0.9-0.2,1.4-0.3h0.3c0.3-0.1-0.4,0.1-0.1,0s0.6-0.1,0.9-0.1c0.9-0.1,1.9-0.2,2.8-0.2s2,0,3,0h0.6
		c0.6,0-0.2,0,0.1,0l1.1,0.1c0.8,0.1,1.6,0.1,2.3,0.2l-2.1-2.4l-2.1,18.3l-0.3,2.6C240.7,108.8,245.7,109.6,246,107z"></path><path class="st1" d="M250.1,98.7l-4.7-1.3c-0.4-0.1-0.8-0.1-1.2,0.2c-0.2,0.4-0.3,0.8-0.1,1.2c0.5,1.1,1.5,2,2.7,2.3l4.7,1.3
		c0.5,0.2,1.1-0.1,1.3-0.6c0.1-0.3,0.1-0.6-0.1-0.8C252.2,99.9,251.3,99,250.1,98.7L250.1,98.7z"></path><path class="st1" d="M253.4,92l-4.9-1.3c-0.6-0.2-1.2-0.3-1.8-0.3c-0.1,0-0.8,0-0.9,0.3s0.4,0.6,0.6,0.7c0.5,0.3,1.1,0.5,1.6,0.7
		l5,1.3c0.6,0.2,1.2,0.3,1.8,0.3c0.1,0,0.8,0,0.9-0.3s-0.4-0.6-0.6-0.7C254.6,92.4,254,92.2,253.4,92L253.4,92z"></path></g></svg>