<svg version="1.1" id="Layer_1" xmlns="http://www.w3.org/2000/svg" x="0" y="0" viewBox="0 0 500 500" xml:space="preserve" class="show_show__wrapper__graphic__5Waiy"><style>.st0{fill:#fff}.st1{fill:#222}.st2{fill:#8dc572}</style><g id="screen"><path class="st0" d="M199.8 44.4s270.8-1.6 268.7 4-38.5 323.7-43.8 323.8-272.8-5.6-275.7-7.8 46.7-318.2 50.8-320z"/><path class="st1" d="M197.9 45.5h8.5l22.9-.1c11.1 0 22.1-.1 33.2-.1h39.8c14.2 0 28.4.1 42.7.2 13.8.1 27.7.2 41.5.4 12.1.1 24.2.3 36.4.6 9.2.2 18.3.5 27.5 1 4.9.3 9.9.2 14.6 1.3.4.1.8.2 1.2.4 0 0 .1 0 0 .2-.2 1.1-.4 2.2-.6 3.2-.8 5.3-1.5 10.6-2.1 15.9-1.1 8.8-2.2 17.7-3.3 26.5-1.4 11.6-2.9 23.2-4.3 34.8-1.6 13.4-3.3 26.8-4.9 40.1-1.7 14.2-3.5 28.4-5.3 42.6s-3.6 28.4-5.4 42.5c-1.7 13.3-3.4 26.6-5.2 39.9-1.5 11.5-3.1 22.9-4.7 34.3-1.2 8.7-2.5 17.3-3.9 26-.8 5-1.6 10.1-2.9 15-.1.6-.3 1.1-.5 1.7-.1.2-.2.4-.2.5-.1.4-.1 0 0 .1-.2-.5 3.5-1.6 3.8-1.5H424l-17.4-.3-29.6-.6-38.1-.9c-14.2-.3-28.4-.7-42.5-1-14.4-.4-28.9-.7-43.4-1.1-13.3-.3-26.7-.7-40-1.1-11-.3-22-.7-33-1.1-7.3-.3-14.6-.5-21.9-1l-3.3-.2c-.9-.1-1.5-.1-2.1-.2-.4 0-.8-.1-1.2-.2-.2-.1-.1.1-.1-.3-.1-1.1-.1-2.2.1-3.2.2-2.2.4-4.4.7-6.6.8-7.3 1.8-14.6 2.8-21.9 1.4-10.4 2.9-20.8 4.4-31.2 1.8-12.5 3.7-25 5.6-37.6 2.1-13.8 4.2-27.6 6.4-41.4 2.2-14.2 4.5-28.4 6.7-42.7 2.2-13.7 4.4-27.4 6.7-41.1 2-12.2 4-24.4 6.1-36.7 1.7-9.9 3.4-19.8 5.2-29.7 1.2-6.7 2.4-13.4 3.9-20 .4-1.8.8-3.6 1.2-5.3.1-.5.3-1 .5-1.5.4-1.1.3-.4-1.1.3.2-.1 1.9-.9 1.4-1.3s-2.5.5-3 .8c-1.2.5-2.1 1.6-2.2 2.9-.5 1.8-.9 3.6-1.3 5.4-1.4 6.6-2.6 13.3-3.9 19.9-1.8 9.9-3.5 19.9-5.2 29.8-2.1 12.3-4.2 24.6-6.2 36.9-2.3 13.7-4.5 27.5-6.7 41.2-2.3 14.3-4.5 28.6-6.8 42.8-2.2 13.9-4.3 27.9-6.4 41.9-1.9 12.6-3.8 25.2-5.6 37.8-1.5 10.4-3 20.8-4.4 31.2-1 7.2-2 14.4-2.8 21.6-.2 2.1-.5 4.3-.6 6.4-.1.7-.4 2.3-.1 3s1.2.5 1.8.6c2 .2 4 .3 6 .5 7.4.4 14.9.7 22.3 1 11.2.4 22.3.8 33.5 1.1 13.5.4 27 .8 40.4 1.1 14.5.4 29 .7 43.6 1.1l42.7 1 38.1.9 29.3.6 16.4.3c1.9.2 3.8-.2 5.5-1.1 1.1-.6 1.8-1.6 1.9-2.8 1.2-4.7 2.2-9.5 2.8-14.4 1.4-8.5 2.7-17.1 3.9-25.6 1.6-11.3 3.2-22.7 4.7-34.1 1.8-13.3 3.5-26.7 5.2-40 1.8-14.3 3.6-28.5 5.4-42.8s3.5-28.6 5.3-43c1.7-13.5 3.3-27 5-40.6 1.4-11.7 2.9-23.4 4.3-35.1 1.1-9 2.3-18 3.4-27 .7-5.4 1.4-10.7 2.2-16.1.2-1 .4-2 .5-2.9 0-.8-.6-.9-1.4-1.1-4.7-1.1-9.9-1.1-14.8-1.4-9.2-.5-18.4-.8-27.6-1-12.2-.3-24.5-.5-36.7-.6-13.9-.2-27.8-.3-41.7-.4-14.3-.1-28.5-.1-42.8-.2h-40c-11.1 0-22.3 0-33.4.1l-22.6.1h-8c-1.2.1-2.3.5-3.2 1.1-.7.6-2 1.5-.9 1.5z"/><path class="st1" d="M220.2 70.6h17.1c1.2 0 1.6-1.3 1.3-2.3-.4-1.2-1.4-2.1-2.7-2.2h-17.2c-1.2 0-1.6 1.3-1.3 2.3.5 1.3 1.6 2.2 2.8 2.2zM219.7 77.8h17.1c1 0 .2-1.7 0-2.1-.4-.7-1.3-2.2-2.3-2.2h-17.1c-1 0-.2 1.7 0 2.1.4.7 1.3 2.2 2.3 2.2zM289.2 317l-8.9 6.4-1.3.9c-.4.3-.1 1 0 1.4.3.7.8 1.3 1.4 1.7l9.2 6.5c.5.4 2 1.2 2.3.2s-.9-2.3-1.6-2.8l-9.2-6.5 1.4 3.1 8.9-6.4 1.3-.9c.3-.2.2-.9.1-1.1-.2-.6-.6-1.1-1-1.5-.6-.6-1.8-1.6-2.6-1zM301.1 319.1l8.4 8.4-.4-2.6-8.8 6.2c-1.9 1.4 1.9 4.5 3.6 3.3l8.8-6.2c1-.7.2-2-.4-2.6l-8.4-8.4c-.7-.7-2.2-1.4-3.2-.7s-.1 2 .4 2.6z"/><path class="st0" d="m252.4 67.8 176.8 2.6-4.5 17.4-176.4-2.3z"/><path class="st1" d="m253.7 69.1 4.7.1 12.9.2 19 .3 23.2.3 25.5.4 25.6.4 23.9.3 20.3.3 14.5.2c2.3 0 4.6.2 6.9.1h.3l-3.7-2.3-4.5 17.3 1-.4-4.7-.1-12.9-.2-18.9-.2-23.2-.3-25.4-.3-25.5-.2-23.9-.3-20.2-.3-14.5-.2c-2.3 0-4.6-.2-6.9-.1h-.3l3.7 2.3 4.1-17.7c.4-1.5-4.4-3.2-4.6-1.9l-4 17.7c-.3 1.4 2.7 2.3 3.7 2.3l4.7.1 12.9.2 18.9.2 23.2.3 25.4.3 25.5.3 23.9.3 20.2.3 14.5.2c2.3 0 4.6.1 6.9.1h.3c.2 0 .9-.1 1-.4l4.5-17.3c.4-1.4-2.7-2.3-3.7-2.3l-4.7-.1-12.9-.2-19-.3-23.2-.3-25.5-.4-25.6-.4-24.1-.3-20.3-.3-14.5-.2c-2.3 0-4.6-.1-6.9-.1h-.3c-1 0-1.2.7-.5 1.3.8.8 2 1.3 3.2 1.3z"/><path class="st0" d="m213.2 110.6 216.5 3.1-8.9 57.7-216.5-3z"/><path class="st1" d="m211.9 112.2 5.8.1 15.8.2 23.3.3 28.5.4 31 .4 31.5.4 29.3.4 24.7.3 17.9.3c2.8 0 5.7.3 8.5.1h.4l-1.1-.9-3 19.5-4.8 31-1.1 7.2 3.6-2.1-5.8-.1-15.8-.2-23.3-.3-28.5-.4-31-.4-31.5-.5-29.3-.4-24.7-.3-17.8-.2c-2.8 0-5.7-.3-8.5-.1h-.4l1.1.9 3-19.5 4.8-31.1 1.1-7.1c.3-1.8-4.4-.5-4.7 1.2l-3 19.6-4.8 31.1-1.1 7.1c-.1.6.6.9 1.1.9l5.8.1 15.8.2 23.3.3 28.5.4 31 .4 31.5.4 29.3.4 24.7.3 17.8.2c2.8 0 5.6.1 8.5.1h.4c1.2 0 3.4-.6 3.6-2.1l3-19.4 4.8-31 1.1-7.1c.1-.6-.6-.9-1.1-.9l-5.8-.1-15.8-.2-23.3-.3-28.5-.4-31-.4-31.5-.4-29.3-.4-24.7-.3-17.8-.2c-2.8 0-5.6-.1-8.4-.1h-.4c-1.2 0-2.4.5-3.3 1.4-.7.3-.5 1.2.6 1.3z"/><path class="st1" d="M288.9 148.5c2.7-1.4 5.3-2.9 7.9-4.5 1.9-1.1 3.7-2.4 5.4-3.8 1.2-1 2.6-2.4 2.5-4-.1-2.4-3.1-2.9-4.9-2.1-1.7.9-2.9 2.4-3.6 4.2-1.4 3.3-1.8 8.2 1.6 10.4 2.5 1.6 5.6 1.1 8.3.4 3.1-.8 5.9-2.3 8.3-4.4 1.7-1.3 3-3 3.7-4.9.8-2.5-1.6-3.8-3.8-3.1-4 1.3-6.4 7.4-3.4 10.6 2.1 2.3 5.6 2.2 8.5 1.7 3.3-.6 6.5-2.1 9.1-4.2 1.4-1.1 3.6-3.2 3-5.2-.8-2.7-4.5-1.5-6-.1-2.7 2.5-4.9 9.4.3 10.4 1.4.2 2.8 0 4.1-.4 1.1-.4 2.1-1.5 1.7-2.7-.5-1.1-1.8-1.6-3-1.2-.3.1-.6.2-.9.2.4-.1-.1 0-.2 0h-.1c-.4 0 .2.2-.1 0l.1.1-.1-.1c.2.2.3.2.1.1-.1.1.2.4 0 0-.1-.1-.1-.6 0-.1 0-1.1.3-2.1.9-3l.2-.4c.3-.5-.3.3.1-.1l.2-.2c.2-.3.4-.1 0 0 .6-.1-.4.1-.5.1-.9 0-1.6-.6-1.8-1.4v-.2c0 .2.3-.4 0-.1-.1.1-.6.8-.2.4-.3.3-.5.6-.8.8-.3.3-.6.5-.9.7-1.8 1.3-3.8 2.1-5.9 2.6-1 .2-1.9.3-2.9.1-.8-.1.3.1-.4-.1 0 0-.7-.3-.3-.1-.1-.1-.2-.1-.3-.2-.2-.2.1.2-.2-.3-.1-.1-.1-.2-.2-.3.2.4 0 0 0-.1s-.1-.2-.1-.3c-.1-.5 0 .4 0-.1v-.9c-.1.4.2-.5.2-.7s.3-.6.1-.2c.1-.1.1-.2.2-.3l.3-.4c.3-.5-.2.2 0 0l.3-.3c.4-.4-.4.2 0 0 .2-.1.2 0-.2.1.6-.1-.5 0-.2 0-1 0-1.9-.4-2-1.4 0 .3.2-.3 0 0-.1.1-.1.2-.1.4 0-.1.2-.5 0-.1s-.4.6-.6.9c0 0-.4.6-.1.2l-.3.3-.9.9c-.7.6-1.4 1.2-2.2 1.7-1.8 1.1-3.8 1.9-5.9 2.1-.3 0-.5.1-.8.1h-.2l-.5-.1c-.6-.1.4.2-.2 0l-.3-.1c-.5-.2.4.2-.1-.1-.1-.1-.2-.1-.3-.2-.3-.2.2.3-.2-.2l-.2-.3c-.3-.4.1.4 0-.1-.1-.3-.2-.5-.3-.8 0-.1-.1-.6 0-.1v-2s.1-.6 0-.3.1-.3 0-.3c0-.2.1-.4.1-.5.2-.6.4-1.3.7-1.9-.2.5.1-.3.2-.4s.3-.4.4-.6c.3-.4-.4.4 0 0l.2-.2c.2-.1.5-.3-.1.1.5-.3-.4.1-.2.1s.4 0-.3.1c-.3.1-.5 0-.8-.1.1 0-.4-.4-.4-.3-.2-.3-.3-.7-.1-1 0 .1 0 .1-.1.2 0-.2.3-.3 0-.1-.1.1-.2.2-.2.3.2-.3.3-.3 0 0l-.7.7-.9.7c-.5.4.4-.3-.1.1l-.5.4c-1.5 1.1-3.1 2.1-4.7 3-2 1.2-4.1 2.4-6.3 3.5-1 .5-1.5 1.7-1 2.8 0 .1.1.1.1.2.8 1.1 2.3.9 3.4.4l.4-.4zM345.8 146.5c1.6-.6 3.2-1.3 4.8-2 .8-.4 4.6-1.9 4.1-3.2-.5-1.1-3.3-.6-4.1-.5-1.1.1-2.2.3-2.7 1.4-.8 1.7-.4 3.7 1 4.9 1.1.9 2.9.9 4.2.8 2.3-.1 4.5-.6 6.6-1.4 1.7-.7 3.3-1.6 4.8-2.7.5-.4 2-1.5 2-2.3 0-1.1-2.6-.7-3.2-.6-1.5 0-2.9.5-4.1 1.3-1.4 1.3-1.8 3.6-.2 4.9 1.4 1.1 3.6 1 5.3.9 2.6-.1 5.2-.6 7.7-1.5 1.2-.4 3.6-1.4 3.6-3 0-.4-5-.3-5 .5s-.7 1.3-1.1 1.6c-.7.5-1.5.9-2.3 1.1-.7.2-1.3.3-2 .4.2 0 .6.1.3 0s-.6-.1-.9-.2c-1.3-.6-2-2.1-1.4-3.4.2-.7.6-1.2 1.2-1.6.1-.1.2-.1.3-.2l.2-.1c-1.1.2-2.2.3-3.3.2 0 0 .1.3 0 .4-.7 1.8-3.2 3.1-4.8 3.9-.6.3-1.1.5-1.7.7-.4.1-.7.2-1.1.4-1.4.4.4-.3.9 0-.6-.4-1.3-.4-1.8-1.2-.7-1.1-.8-2.5-.3-3.7.1-.2.2-.4.4-.6.1-.1.2-.1.2-.2-.7.9-3.6 1-3.9.4.2.4.5.3.2.8-.5.6-1.2 1.1-1.9 1.4-.8.5-1.7.9-2.6 1.3-1.2.5-2.5 1-3.7 1.5-1 .4.8.5.9.5 1.2-.4 2.4-.5 3.4-.9z"/><path class="st2" d="m224.9 127.6 47 .8-4.6 31.1-46.5-1.2z"/><path class="st0" d="m236.4 144.2 6 8.1c.5.7 1.8 1.6 2.6.7l9.9-12.1 1.4-1.7c.8-.9.3-2.4-.3-3.3-.5-.7-1.8-1.6-2.6-.7l-9.9 12.1-1.4 1.7 2.6.7-6-8.1c-.6-.7-1.8-1.6-2.6-.7s-.4 2.5.3 3.3zM201.1 192.6l216.5 3.1-8.9 57.7-216.5-3z"/><path class="st1" d="m200.3 194.3 5.8.1 15.8.2 23.3.3 28.5.4 31 .4 31.5.4 29.3.4 24.7.4 17.8.3c2.8 0 5.7.2 8.5.1h.4l-1.6-1.3-3 19.5-4.8 31-1.1 7.1 3.2-2-5.8-.1-15.7-.1-23.3-.3-28.5-.4-31-.4-31.5-.4-29.3-.4-24.7-.3-17.9-.2c-2.8 0-5.7-.2-8.5-.1h-.4l1.6 1.3 3-19.5 4.8-31.1 1.1-7.1c.3-2.1-4.5-1.2-4.8.7l-3 19.5-4.8 31.1-1.1 7.1c-.1.9.9 1.3 1.6 1.3l5.8.1 15.8.2 23.3.3 28.5.4 31 .4 31.5.4 29.3.4 24.7.3 17.8.2c2.8 0 5.6.1 8.5.1h.4c1.1 0 3-.6 3.2-2l3-19.5 4.8-31 1.1-7.1c.1-.9-.9-1.3-1.6-1.3l-5.8-.1-15.8-.2-23.3-.3-28.5-.4-31-.4-31.5-.4-29.3-.4-24.7-.4-17.8-.2c-2.8 0-5.6-.1-8.4-.1h-.4c-1.1 0-2.6.5-3.1 1.5s.4 1.5 1.4 1.6z"/><path class="st1" d="M278 228.6c2.7-1.4 5.3-2.9 7.9-4.5 1.8-1.1 3.5-2.3 5.1-3.6.6-.5 2.2-1.8 1.7-2.7-.2-.4-.8-.5-1.3-.6-1.7-.2-3.4.1-5 .7-1.2.7-2 1.8-2.4 3.1-1.1 2.8-1.5 7.3 2 8.6 1.1.3 2.3.4 3.5.3 2.1-.1 4.1-.5 6.1-1 2.8-.7 5.5-2.1 7.7-4 1.1-1 2.8-2.5 3-4.1.1-.5 0-.7-.5-.8-.8-.1-1.7-.1-2.5.1-.8.1-1.7.2-2.5.5-3.1 1-4.6 6.2-1.5 8.1 1.1.6 2.3.8 3.5.8 2.2 0 4.4-.3 6.5-.7 3-.6 5.8-1.9 8.2-3.8.5-.4 3-2.4 2.1-3.3-.2-.1-.5-.2-.7-.2-1.1 0-2.2.1-3.3.3-1 .1-1.9.5-2.6 1.1-1.2 1.2-2 2.9-2.2 4.7-.1 2.2 1.5 2.7 3.4 2.6 1.8-.1 3.7-.3 5.4-.9.9-.3-.8-.2-.9-.2-1.1 0-2.3.2-3.4.5-1.7.5.9-.7 2-.1-.1-.1-.3 0-.5-.1s-.4-.3-.6-.5c-.3-.5-.5-1.1-.4-1.7.1-1.4.6-2.7 1.4-3.8.3-.5.7-.9 1.1-1.2.1-.1.2-.1.3-.2l-4 .4h.1c0 .1.1.2.1.4.1 1.1-1.8 2.5-2.5 3-1.9 1.4-4.1 2.4-6.4 3-.9.3 1.3.1.5 0-.3-.1-.5-.1-.8-.1-.4-.1-.7-.2-1.1-.4-.6-.3-1.2-.8-1.5-1.5-.5-1.3-.5-2.7.1-4 .2-.6.6-1.1 1-1.5.3-.3.5-.5.8-.7.1-.1.2-.1.3-.1 1.1-.8-3.8 4.4-4 .4 0 .2.1.4.1.7-.1.6-.4 1.1-.7 1.5-1 1.5-2.3 2.7-3.9 3.7-.9.6-1.9 1.2-3 1.6-.5.2-1.1.4-1.6.6-.3.1-.7.2-1 .3-1.2.3.1-.3.8 0-.6-.1-1.2-.3-1.9-.5-.6-.3-1-.8-1.3-1.4-1.3-2.2-.6-5.4.5-7.6.5-.8 1.1-1.6 1.8-2.2-2.5 2.2-4.2.1-3.8.5 0 0 .1 0 .2.1s.2.2.3.4c.1.3 0 .6-.1.9-.8 1.2-1.8 2.1-3 2.9-1.5 1.1-3.2 2.2-4.9 3.1-2.1 1.3-4.3 2.5-6.5 3.6-.3.1 1.6.1 1.8.1 1 0 2.1-.2 3-.6zM333.3 229.9c1.7-.6 3.3-1.3 4.9-2.1 1.4-.7 5-2.1 4.2-4.3-.9-2.6-5.3-3-6.5-.5-.8 2-.4 4.2 1 5.8 2.8 3.1 7.3 2.2 10.7.8 1.7-.7 3.3-1.6 4.7-2.8.8-.7 1.9-1.6 2-2.7.2-1.8-2.1-2.8-3.6-2.8-1.3 0-2.5.5-3.5 1.5-1.7 1.7-1.7 4.5 0 6.2 3.2 3.2 8.8 2.1 12.5.7 1.5-.6 3.6-1.9 3.6-3.8s-4.8-3.2-4.8-.8c0-.6.1-.2-.1.1s.2-.2-.1.1l-.5.5c-1.9 1.2-4.2 1.9-6.5 1.8 0 0-.9-.1-.4 0-.1 0-.5-.2 0 0-.5-.3.2.3-.1-.1l-.1-.1c.1.5 0-.1 0-.1v-.2c0-.2 0-.5.1-.7.1-.6.5-1.1 1-1.5-.3.2.6-.4.2-.1l.2-.1c.3-.1.2-.1-.1 0 1.1 0 .3-.5-2.5-1.5-.1-.2-.1-.4-.1-.5.1.1-.1.2-.3.5-.2.3-.5.5-.8.8-.9.8-2 1.5-3.1 2-1.2.6-2.5 1.1-3.8 1.4.1 0-.7.1-.6.1s-.8.1-.4 0h-.1c-.2-.1-.1 0 .2.1-.2-.1-.2-.1.1.1-.5-.2.2.3-.1-.1-.1-.1-.3-.5-.1-.1-.1-.2-.1-.3-.2-.5-.2-.5 0 .3 0-.2-.1-.5-.1-1.1.1-1.6 0-.1.3-.9.2-.5l.1-.2s-.2 0 0 0c-.9.1-2.5.1-2.9-1.1 0-.1-.2-.6-.1-.5-.1-.1.2-.2-.1.1-.5.4-1.1.8-1.7 1.1-.9.5-1.8.9-2.6 1.3-1.1.5-2.3 1-3.5 1.4s-.5 1.8.1 2.3c.9.8 2.2 1 3.4.6v.2z"/><path class="st2" d="m213.5 211.7-2-.2.4-2.9h2.9v2h-1.2zM253.9 211.3l-3.9-.1v-2l3.9.1v2zm-7.8-.1-3.9-.1v-2l3.9.1v2zm-7.8-.2-3.9-.1v-2l3.9.1v2zm-7.9-.1-3.9-.1v-2l3.9.1v2zm-7.8-.1-3.9-.1v-2l3.9.1v2zM260.6 212.5l-2-.3.1-.8h-.8v-2h3.1zM257.1 235.8l-2-.3.6-3.9 2 .3-.6 3.9zm1.1-7.8-2-.3.6-3.9 2 .3-.6 3.9zm1.2-7.7-2-.3.6-3.9 2 .3-.6 3.9zM256.1 242.5l-2.9-.1v-2h1.2l.1-1.1 2 .3zM249.3 242.3l-3.9-.1v-2l3.9.1v2zm-7.7-.2-3.9-.1.1-2 3.9.1-.1 2zm-7.7-.2-3.9-.1v-2l3.9.1v2zm-7.8-.2-3.9-.1.1-2 3.9.1-.1 2zm-7.7-.1-3.9-.1.1-2 3.9.1-.1 2zM210.6 241.4l-3.1-.1.4-3.1 2 .3-.1.8.9.1zM210.4 234.6l-2-.3.5-3.8 2 .3-.5 3.8zm1-7.6-2-.3.5-3.8 2 .3-.5 3.8zm1-7.6-2-.3.5-3.8 2 .3-.5 3.8z"/></g><g id="character"><path class="st1" d="M96.9 433.5s-.9 21.1-.4 21.1 9-.3 9-.3V446l4.1 9.3 28.2-1.7s.9-3.1-5.4-6.5-16.5-8.2-16.5-8.2l-.2-12.6-18.8 7.2z"/><path class="st1" d="M96.2 433.4c-.2 4.3-.3 8.6-.5 12.9-.1 2.4-.2 4.8-.1 7.1 0 .3 0 .9.2 1.2.4.5 1.6.2 2.1.2l7.9-.3s.2 0 .2-.1v-8.5l-1.2-.2 4.1 9.3c.1.3.8.3 1 .3l24.7-1.5 3.5-.2s.2 0 .2-.1c.1-1.1-.3-2.2-1-3.1-1.9-2.5-5.1-3.9-7.9-5.3-4.4-2.2-8.8-4.4-13.3-6.5l.3.2-.2-12.6c0-.3-.9-.4-1.1-.4L96.4 433c-.3.1.8.5 1 .4l18.7-7.2-1.1-.4.2 12.6c0 .1.2.2.3.2 4.2 2 8.3 4 12.4 6 2.8 1.4 6.3 2.8 8.3 5.4.5.6.9 1.4 1 2.2 0 .2-.1.9.2.7-.4.2-1.6.1-2 .1l-4.9.3-13 .8-8.3.5 1 .3-4.1-9.3c-.1-.2-1.2-.5-1.2-.2v3.4c-.1 1.6-.1 3.1 0 4.7v.4c0 .1.3-.1.1 0-.6.1-1.2.1-1.8.1l-5.2.2c-.5-.1-1.1-.1-1.6 0s.7.4.8.2 0-.3 0-.4c0-1.1-.1-2.1 0-3.2 0-3.5.1-6.9.3-10.4.1-2.3.2-4.7.3-7-.3 0-1.5-.2-1.6 0zM77.2 433.1s1.1 22.1.4 22.1-10-.3-10-.3v-8.8l-4.7 9.7-31.3-1.8s-1-3.2 6.1-6.8 18.4-8.5 18.4-8.5l.2-13.1 20.9 7.5z"/><path class="st1" d="M76.6 433.2c.2 4.1.3 8.3.5 12.4.1 2.6.2 5.1.1 7.7-.1.6-.2 1.2-.1 1.8 0 0 .8-.1.5-.3h-2.1l-7.8-.2.5.3V446c0-.5-1-.3-1.2 0l-4.6 9.7.7-.3-27.4-1.5-4-.2.5.3c-.4-1.1.7-2.5 1.4-3.3 2.4-2.6 6.1-3.9 9.2-5.4 4.5-2.1 9-4.1 13.5-6.1.1-.1.4-.2.4-.4l.3-13.2-1 .4 18.3 6.6 2.6.9c.5.2 1.5-.5.8-.8l-18.3-6.6-2.6-.9c-.3-.1-1 0-1 .4l-.2 13.1.4-.4c-5.1 2.2-10.1 4.5-15.1 6.9-3.1 1.5-6.6 2.9-8.7 5.7-.6.8-1.4 2.1-1 3.2.1.2.3.3.5.3L59 456l4 .2c.3 0 .5-.1.7-.3l4.6-9.7H67v8.8c0 .2.4.3.5.3l7.3.2c1 .1 2 .2 2.9.1.6-.2.6-.6.7-1.1.1-2.2.1-4.5 0-6.7l-.3-9.3-.2-5.5c-.1-.6-1.3-.4-1.3.2z"/><path class="st1" d="M62 254.4s-20 173.5-14.3 178 37.1-2.5 37.1-2.5l3.8-35.9 1.9 39s24.5 6.3 33.3 3.1c0 0 12.6-164.8 12.6-188.7s-74.4 7-74.4 7z"/><path class="st1" d="M59.7 255c-.2 2.2-.5 4.3-.7 6.5-.7 5.8-1.3 11.6-1.9 17.4-.9 8.3-1.8 16.7-2.7 25-1 9.8-2 19.6-3 29.3-1 10.1-2 20.2-2.9 30.4-.9 9.5-1.7 18.9-2.4 28.4-.6 7.7-1.1 15.4-1.4 23.1-.3 4.9-.3 9.7 0 14.6 0 1.2.2 2.4.7 3.4.6.8 1.5 1.4 2.6 1.6 2.1.5 4.2.8 6.3.8 5.2 0 10.4-.5 15.5-1.3 4.4-.7 8.8-1.4 13.2-2.3l2-.4c1-.2 2.3-1 2.4-2.2l3.3-31.4.5-4.5-4.7 1.2 1.7 34.1.2 4.9c0 .4.3.8.7.9 8.8 2.2 17.9 4 27 4.2 2.9.1 5.9-.3 8.7-1.2.9-.3 1.6-1 1.8-2 .2-3.2.5-6.4.7-9.6.6-8.3 1.2-16.7 1.9-25 .9-11.5 1.7-23 2.5-34.5.9-12.8 1.8-25.7 2.7-38.5.9-12.3 1.7-24.6 2.5-36.9.6-9.8 1.2-19.6 1.7-29.4.2-3.3.3-6.7.4-10 .1-2.6.4-5.4-.4-7.9-2.4-7.9-14.1-7.4-20.5-6.8-11.2 1-22.1 4.1-32.8 7.6-7.6 2.4-15.1 5.1-22.5 8.1l-1.1.4c-.8.3-2.1 1.3-1.7 2.4s2.1.7 2.9.4c5.2-2.1 10.4-4.1 15.7-5.9l1.7-.6.4-.1c-.5.2-.1 0 .1 0l1-.4 3.8-1.2c2.6-.8 5.2-1.6 7.9-2.4 5.4-1.6 10.9-2.9 16.4-3.9l.9-.1.4-.1h.2c.7-.1 1.4-.2 2-.3 1.2-.2 2.5-.3 3.8-.4s2.4-.2 3.6-.2h2.9c1 .1 1.9.2 2.9.3.4.1.9.2 1.3.3s-.3-.1 0 0l.3.1c.2.1.5.1.7.2 1.4.4 2.7 1.1 3.7 2.2.4.4.8.9 1 1.5.2.3.3.7.4 1 0 .2.1.3.1.5l.1.2c.1.4 0-.2 0 .1.1 1.2.2 2.4.1 3.6l-.3 8.7c-.4 9-1 18-1.5 27-.7 11.8-1.5 23.7-2.3 35.5-.9 12.8-1.8 25.5-2.7 38.3-.8 11.8-1.7 23.7-2.6 35.5-.7 9.2-1.3 18.3-2 27.5-.3 4.5-.7 9-1 13.5v.6l1.8-2c.5-.2 0 0-.2 0l-.7.2-.6.1-.7.1c-1.2.1-2.4.2-3.6.2-2.6 0-5.3-.2-7.9-.6-4.9-.6-9.8-1.5-14.7-2.6l-2.3-.5-.6-.1h.2l.7.9-1.7-34.1-.2-5c-.1-2.3-4.6-.6-4.7 1.2L83 425.9l-.5 4.5 2.4-2.2c-7.4 1.7-14.9 2.9-22.5 3.6-1.3.1-2.5.2-3.8.3h-3.2c-1 0-2-.1-3-.2l-.7-.1-.4-.1s-.7-.2-.9-.3l-.5-.2c-.3-.1.3.1-.1 0-.1 0-.2-.2-.2-.2.3.1.1.3 0-.1-.1-.2-.1-.4-.2-.6s0-.2-.1-.4.1.5 0 .2v-.2c-.4-4.2-.5-8.5-.2-12.7.2-7.2.7-14.4 1.2-21.6.7-9.1 1.4-18.3 2.2-27.4.9-10 1.8-20 2.8-30 1-9.8 2-19.7 3-29.5.9-8.7 1.8-17.3 2.8-26l2.1-19.2c.3-3.1.8-6.2 1-9.2v-.4c.4-2.2-4.3-.9-4.5 1.1z"/><path class="st0" d="m92.9 313.6-.9 11.5-2 27.8-2.4 33.6-2.1 29c-.3 4.7-.8 9.4-1 14v.2c-.1 1.3.5 2.5 1.6 3.2.5.4 1.2.3 1.6-.2.2-.2.3-.5.3-.8l.8-11.6 2-27.7 2.4-33.6 2.1-29c.3-4.7.8-9.4 1-14v-.2c.1-1.3-.5-2.5-1.6-3.2-.5-.4-1.2-.3-1.6.2-.2.2-.3.5-.2.8zM54.8 211.4s28.4-27.7 55.3-17.5 39.3 83.7 34.4 95.5-98-25.1-103-32.1 13.3-45.9 13.3-45.9z"/><path class="st1" d="M56.2 213.4c2.4-2.3 5-4.4 7.7-6.3 5.7-4.3 12-7.7 18.7-10.3 7.8-2.8 16.3-4 24.5-1.9 1.6.4 3.1.9 4.6 1.6l.8.4c.1.1.7.4.3.2.6.3 1.1.7 1.6 1s1 .7 1.4 1.1c.1.1.9.7.5.4l.8.7c1 .9 1.9 1.9 2.8 2.9.1.1.6.7.5.6s.4.5.5.6c.5.6.9 1.2 1.4 1.8.9 1.2 1.7 2.4 2.4 3.7l.6.9.2.4.1.2c.4.7.8 1.5 1.2 2.2.8 1.4 1.5 2.8 2.2 4.3 2.9 6.2 5.3 12.6 7.2 19.2 3.7 12.1 6.1 24.6 7 37.3.1 2.3.2 4.6.2 6.9 0 .5 0 .9-.1 1.4v.4l-.1.7c-.1.8-.2 1.5-.3 2.3-.1.3-.1.6-.2.9l-.1.4c-.1.5.2-.2 0 .1l-.3.5c-.2.4.2-.1-.2.2-.2.1-.4.3-.6.4l-.3.1c-.3.2.4-.1-.1 0-.5.2-1.1.3-1.7.4-1.4.2-2.9.3-4.4.1-2.1-.1-4.1-.4-6.1-.8-5.2-.9-10.3-2.1-15.3-3.5-12.2-3.4-24.1-7.6-35.9-12.2-10-3.7-19.8-8-29.3-12.8-.8-.4-1.5-.8-2.3-1.2-.1-.1-.7-.4-.1-.1l-.5-.3c-.3-.2-.7-.4-1-.6-.5-.3-1-.6-1.5-1l-.6-.4c-.4-.3.5.5.2.1-.1-.1-.1-.2-.2-.2s-.1-.1-.2-.2c-.3-.2.5.6.3.3-.4-.5.3.4.1.1 0-.1-.1-.1-.1-.2-.2-.4.1.5.1.1 0-.2-.1-.4-.1-.5-.1-.4 0 .4 0-.2s-.1-1-.1-1.5v-1.2c.1-.6.1-1.2.2-1.9.2-1.3.5-2.6.8-3.9 2.6-11 7.2-21.7 11.9-32 .3-.7.7-1.5 1-2.2.3-1.1 0-2.4-.9-3.1-.5-.5-2-1.4-2.5-.4-4.2 8.8-7.8 17.8-10.9 27-1.7 5.2-3.7 11-3.5 16.6 0 2.1.8 4.1 2.1 5.7.9.8 1.8 1.6 2.8 2.2 3.3 2.1 6.8 3.9 10.4 5.5 5 2.4 10.1 4.6 15.2 6.7 12.2 5 24.5 9.6 37.1 13.5 5.8 1.8 11.6 3.5 17.5 4.9 4.4 1.1 8.9 1.8 13.5 2.1 2.5.1 6 .2 8-1.6.9-1 1.4-2.2 1.6-3.5.3-1.9.5-3.8.5-5.7.1-5.3-.3-10.6-1.1-15.8-.9-6.7-2.2-13.4-3.8-20-3.3-13.8-8-27.7-15.6-39.7-3.1-4.9-7-9.6-11.8-12.9-6.3-4.3-14.3-5.6-21.8-5-14 1.2-27.3 8.9-37.8 17.9-.7.6-1.4 1.2-2 1.8-.8.8-.4 2.1.2 2.9.5.8 1.9 2.2 2.7 1.4zM86.6 172.7s-15.2.8-16.7-5.6 7.7-3.5 7.7-3.5-9.2-13.9 6.2-13.9c0 0-11.2-11.1-.1-18.4 11.1-7.3 29.9 1.2 29.9 1.2s1.4-13.4 16.5-9.5 10.2 11.4 10.2 11.4 9.7 2.4 9.3 7-8 5.4-8 5.4-4.7 12.8-17.8 8.9l-15.3 14.7s3.7 6.7-2.1 12.1-21.7-1.4-19.8-9.8z"/><path class="st1" d="M85.1 171.1c-3.3.2-6.5-.1-9.7-.9-.6-.1-1.1-.3-1.7-.5.3.1-.3-.1-.4-.2-.5-.2.1.1-.4-.2s.1.1-.2-.1.1.2-.2-.2.2.2 0 0c-.1-.1-.1-.2-.2-.2-.1-.2-.2-.4-.2-.6-.6-1.9.3-3.3 2.2-3.5.9-.1 1.9 0 2.8.2l.6.1c.5.1-.2 0 0 0l.4.1c1 .3 2.2 0 1.3-1.2l-.3-.6c-.1-.2-.3-.4-.4-.7.2.4-.2-.4-.2-.5-.7-1.4-1.2-2.8-1.4-4.4-.3-1.6.1-3.2 1.2-4.5 1.7-1.8 4.6-2 7-2 1.2 0 .5-1.3 0-1.8-.1-.1-.2-.2-.3-.4l-.4-.4-.2-.3c-.3-.4.2.2-.1-.1-.8-1.1-1.6-2.2-2.2-3.4-1.6-3.5-1.6-7.2 1.1-10.1 6-6.5 16.7-5.3 24.3-3.1 1.6.4 3.2 1 4.7 1.6l.7.3c-.7-.3 0 0 .2.1l.5.2c.5.2 2.1.8 2.2-.2.4-3.6 2.6-6.8 5.8-8.6 3.7-1.8 8-.9 11.7.3 1 .3 1.9.7 2.8 1.2 0 0 .6.4.9.5-.4-.3.9.7.5.4.4.3.8.7 1 1.2-.1-.2.1.4.2.5s.2.6.2.6c.2 1.2 0 2.4-.6 3.4-.7 1.1 1.9 2.6 2.7 2.8.4.1.8.2 1.1.3.7.2 1.4.5 2.1.8.5.2 1 .5 1.5.7-.4-.2.3.2.4.2.5.3 0 0 .4.2.1 0 .6.5.3.2.2.1.3.3.4.4.2.3.3.6.4.9.6 3.6-4.6 5.2-7.3 5.4-.2 0-.4.1-.6.3-1.9 5.1-6.7 9.3-12.3 9.3-1.1 0-2.2-.1-3.2-.4-.9-.2-1.6-.6-2.4 0-.7.6-1.3 1.2-1.9 1.8l-7.7 7.3-5.6 5.3c-.3.3.1.9.2 1.1-.4-.7-.1-.2 0 0 .1.4.3.7.4 1.1.3 1.1.5 2.2.5 3.3-.1 3.1-1.7 5.9-4.3 7.5-2.1 1-4.4 1.2-6.7.6-1.1-.2-2.2-.6-3.2-1.1-.9-.4-1.7-.9-2.4-1.6-.2-.1-.3-.3-.5-.5s-.4-.5-.5-.6c-.3-.4-.6-.9-.8-1.4-.5-1.1-.6-2.4-.3-3.6.3-1.4-4-3.8-4.4-2.1-1.4 6.7 6.5 11.7 11.8 13.4 2.9 1.1 6.1 1.3 9.2.5 3.3-.9 5.7-4.1 6.3-7.4.5-2.6.1-5.3-1.2-7.6l.2 1 15.2-14.6-1.6.1c5.4 1.5 10.8 1 15-2.9 1.9-1.7 3.4-3.8 4.3-6.2l-.6.3c2.9-.3 6.9-1.4 8.2-4.3 2.2-4.6-3.8-8.3-7.3-9.8-1.4-.6-2.8-1.1-4.3-1.5l2.7 2.8c3.2-5-2.6-10-6.6-11.9-7-3.6-18.1-5.6-22.7 2.6-.9 1.6-1.5 3.3-1.7 5.1l2.2-.2c-6.2-2.8-13-4.4-19.8-4.5-4.9 0-9.9 1.1-13.7 4.3-3.3 2.8-4.4 7.4-2.7 11.4 1.1 2.8 2.7 5.3 4.8 7.4v-1.8c-3.7 0-8.4.9-9.4 5.1-.6 2.7.4 5.6 1.6 8 .4.7.8 1.5 1.2 2.2l1.3-1.2c-3.1-.9-10.2-1.9-9.5 3.3.8 6.5 9.5 8.3 14.8 8.8 1.9.2 3.8.2 5.8.1 1.1-.1.5-1.3 0-1.8-.8-.3-1.8-.8-3-.9z"/><path class="st0" d="M138.3 191.1c9.8-10.5 1.9-42.1 1.9-42.1-10.8 1-26.7-11.6-26.7-11.6 4 10.5-7.3 27.7-7.3 27.7-3.4-9.4-13-10.1-13.1-1.1s8.4 10.6 8.4 10.6-7 27.7-6.4 31.3 20.5 9.7 27.6-7.1c0 .1 7.1 1.4 15.6-7.7z"/><path class="st1" d="M140.5 192c4.6-5.1 5.2-13 5.2-19.6-.1-6.5-.8-13.1-2.1-19.5-.3-1.5-.6-3-1-4.5-.2-.9-1.6-1.4-2.4-1.3-5.4.4-11.2-2.4-16.1-5.1-3.1-1.8-6.1-3.7-8.9-5.9-1.3-1.1-5-.3-4.1 2 2 5.5-.1 11.8-2.2 16.9-1.3 3.3-3 6.4-4.9 9.3l4.6.3c-1.1-3.5-3.6-6.3-6.8-8-2.8-1.2-6.3-1.1-8.6.9-2.5 2.3-2.9 6-2.3 9.2.6 3 2.3 5.7 4.9 7.4 1.6 1.1 3.3 1.9 5.2 2.3l-1.8-2.3c-2.1 8.5-4.3 17.1-5.8 25.8-.4 1.8-.7 3.7-.7 5.6.1 1.5 1 2.8 2.3 3.5 3.8 2.6 9.1 3.3 13.6 2.8 3.4-.4 6.7-1.5 9.5-3.4 3.2-2.3 5.7-5.4 7.1-9.1l-3 1.4c2 .3 4.1.1 6-.5 4.8-1.5 8.9-4.6 12.3-8.2.9-1 0-2.3-1-2.6-1.2-.5-2.5-.2-3.4.8-1.6 1.7-3.4 3.3-5.4 4.5-1.3.8-2.7 1.5-4.2 1.9-.6.2-1.1.3-1.7.4.6-.1 0 0-.3 0h-1.1.3-.3c-1.2-.3-2.4.3-3 1.4-1.1 2.7-2.9 5.1-5.2 6.9-1.9 1.4-4.1 2.3-6.4 2.6l-.5.1h.1l-.9.1h-2.6c-.1 0-.5 0 0 0h-.4c-.6-.1-1.1-.1-1.7-.2s-.9-.2-1.3-.3c-.7-.1.1 0-.3-.1l-.7-.2c-.4-.1-.8-.3-1.2-.5l-.6-.3.2.1-.4-.2c-.2-.2-.5-.4-.7-.5s.3.4 0 0c-.1-.1-.2-.2-.2-.3-.2-.1.2.5.1.1s0 .2 0 .2v-.7c0-.7.1-1.4.2-2.1.1-.7.2-1.5.4-2.6.9-5.1 2.1-10.1 3.2-15.2.8-3.4 1.6-6.9 2.5-10.3.3-1.2-.7-2.1-1.8-2.3h-.2c-.7-.2.3.1-.1 0-.6-.2-1.3-.5-1.9-.8-.3-.2.2.2-.2-.1l-.5-.3c-.4-.3-.7-.5-1.1-.8-.7-.7-1.3-1.5-1.7-2.3-1.2-2.3-1.3-5-.3-7.4 0-.1.5-.8.6-.8s.3-.3.4-.3c-.3.2.1-.1.3-.1.3-.1-.4.1 0 0 .1 0 .2-.1.3-.1h.2c.6 0-.3-.1.3 0 .1 0 .8.2.4 0 2.5.8 4.3 3.5 5.2 6.1.6 1.7 3.7 1.8 4.6.3 2.1-3.3 4-6.9 5.5-10.5 2.3-5.7 4.3-12.6 2-18.7l-4.1 2c3.1 2.4 6.3 4.5 9.7 6.4 5.6 3.1 12.2 6.2 18.8 5.7l-2.4-1.3c.1.3.1.5.2.8s.1.6.2 1l.1.6.1.3c.1.4 0 .1 0 .2.5 2.6 1 5.3 1.3 7.9.9 6.8 1.5 14 .3 20.8-.6 3.4-1.6 6.5-3.9 9-.8.9 0 2.2 1 2.6.9.3 2.3 0 3.2-.9z"/><path class="st0" d="M129 180.2s19.2 9.4 26.2.1-5.9-19-20.1-13.9"/><path class="st1" d="M129.5 182c5.8 2.8 13 5.1 19.5 4.3 4.4-.5 8.3-3.1 9.6-7.6 1.4-5-2.1-10-6.1-12.8-5.6-3.8-12.7-3.7-18.9-1.6-1 .4 1.5 4.5 3.1 4 4.8-1.7 10.7-2 15.4.4.8.4 1.5.9 2.1 1.4.5.4.8.9 1 1.5.5 1.6.3 3.4-.5 4.9-3.6 7.6-13.5 6-20 4.1-1.6-.5-3.1-1-4.7-1.7-.5-.2-.9-.4-1.4-.6-.2-.1.4.2 0 0l-.1-.1c-.8-.4-1.4-.1-1.2.9.4 1.3 1.2 2.3 2.2 2.9z"/><path class="st0" d="M117.9 181.7s-5.8-2.8-5-8.9"/><path class="st1" d="M118.9 181c-2.1-1.1-3.7-2.9-4.5-5.2-.3-1.1-.4-2.3-.3-3.4.1-.6-.9-.4-1.2-.3-.5.2-1 .6-1.1 1.2-.4 3.5 1.4 7 4.4 8.8.2.2.5.3.7.4.5.2 1.1 0 1.6-.4.3-.1.9-.8.4-1.1zM125.8 158.5c-.3.8.1 1.7.9 2h.2c1.6.4 2.1-1.6.8-2.4-.6-.4-1.4-.3-1.8.2-.1.1-.1.1-.1.2zM132.6 159.6c-.3.8.1 1.7.9 1.9.1 0 .1 0 .2.1 1.6.4 2.1-1.6.8-2.4-.6-.4-1.4-.3-1.8.2 0 .1-.1.2-.1.2z"/><path class="st2" d="M81.6 272s14.1-73.1 16.2-75.2 116 29 119.4 33.1-20.4 63.3-24.4 68.7S80.1 276.8 81.6 272z"/><path class="st0" d="M202.8 275.6s13.2 11.3 7.2 14.7c-3.8 2-8.2 2.5-12.4 1.4 0 0-.6 14.7-8.8 18s-21.7-4-21.7-4-1.8 4.1-7.9 0c0 0-1.1 3.3-8.2-1.5s-7.4-14-3.1-15 8.7 6 8.7 6 3.4-7.2 8.3.3c.4-2.2 2.6-3.7 4.8-3.2.3.1.5.1.8.2 4.6 1.5 5.2 4.8 9.2 5.9s13.1.2 13.1.2"/><path class="st1" d="M200.8 276.1c2.2 1.9 4.2 4 6 6.3 1 1.4 2.3 3.1 2.3 4.9 0 .6-.2 1.1-.6 1.6-1.2.9-2.6 1.5-4.1 1.8-1.5.3-3.1.4-4.7.2-.3 0-.6-.1-1-.1.5.1-.1 0-.2-.1-.2 0-.4-.1-.6-.1-.6-.2-2.7-.4-2.7.6-.1 4.5-1.3 9-3.5 13-1.6 2.7-3.9 4.7-7.2 5-3.4.2-6.7-.4-9.9-1.6-1.5-.5-3-1.1-4.5-1.8l-.8-.4-.2-.1-.5-.2c-1-.5-3.3-1.2-3.9.2.1-.2.1-.1-.1.2-.2.3-.4.5-.7.6-.3.2-.2.1-.4.2h-.3c-.2-.1-.4-.1-.7-.2-.6-.3-1.2-.6-1.7-1-.9-.6-3.4-1.2-3.9.2-.1.2.2-.2.1-.1s-.2.3-.3.4c.3-.3-.4.3-.1 0-.3.2.2 0-.1 0h.2c-.5-.1-1-.3-1.4-.5-.9-.4-1.8-1-2.6-1.6-1.3-.9-2.3-2-3.2-3.3-1.5-2.1-2.1-4.7-1.7-7.2.1-.8.5-1.6 1.2-2.1.4-.3.4-.3.8-.3-.5 0 .1.1-.1 0 .2.1.5.2.7.3 1.7 1.2 3.1 2.7 4.1 4.4.8 1.2 3.9 2 4.7.5.1-.1.2-.3 0 0 .1-.2.2-.3.3-.5.3-.5.8-1 1.2-1.4.1-.1.5-.2.7-.4h-.1c.2-.1.2-.1 0 0h-.3c.3 0 .3 0-.1-.1-.7-.2-.1.1-.2 0s.6.5.5.4c.6.6 1.1 1.2 1.5 1.9.6.9 4.3 2.2 4.7.5.2-1.1 1.3-2.6 2.2-2.5 1.5.1 2.9 1.5 3.9 2.5 1.2 1.2 2.6 2.3 4.2 3 3.1 1.3 6.7 1.3 10 1.3 2 0 4.1-.1 6.1-.3.9-.1 1.9-.5 1.3-1.5s-2.2-1.4-3.2-1.3l-4.5.3c-1.2 0-2.5.1-3.7 0-.6 0-1.2-.1-1.8-.1l-.8-.1-.4-.1c-.5-.1.5.1-.2 0-2.3-.5-3.8-2.8-5.6-4.1-2.6-1.8-6.4-3.1-9.5-1.8-1.5.7-2.5 2-2.9 3.6l4.7.5c-2-3.1-5.8-6-9.7-4.3-1.5.7-2.7 1.9-3.3 3.5l4.7.5c-1.5-2.4-3.5-4.4-5.9-5.9-3-1.7-7.9-2.4-9.7 1.3-1.4 3-.3 6.7 1.2 9.4 2.5 4 6.4 6.9 10.9 8.1 1.8.5 5.4.8 6.2-1.5l-3.9.2c3 2 9.7 4.4 11.8-.2l-3.9.2c5.7 3.1 12.4 5.4 19 5.5 3.8 0 7.6-1.1 10.1-4 2.2-2.7 3.6-5.9 4.3-9.3.5-2.1.9-4.2 1-6.3l-2.7.7c2.5.7 5.1.9 7.7.6 2.1-.2 4.2-.8 6.1-1.7 1.1-.4 2.1-1.3 2.6-2.4.8-1.9-.3-4.1-1.3-5.7-1.3-2-2.8-3.9-4.6-5.6-1-1.1-2.1-2.1-3.2-3.1-1-.8-2.2-1.1-3.4-.9-.9-.2-1.2.6-.4 1.4z"/><path class="st1" d="M163.6 298c-.3 3.1.8 6.2 2.9 8.6 1.1 1.1 2.3 1.9 3.8 2.4.9.2 1.9-.1 2.4-.9.5-.5.7-1.4-.1-1.7-.6-.2-1.1-.5-1.6-.8-.5-.3-.9-.7-1.4-1.1l-.3-.3c-.1-.1 0 0 0 0l-.1-.2c-.2-.2-.3-.4-.5-.6-.3-.4-.5-.9-.7-1.3-.2-.4-.4-.9-.5-1.3l-.1-.2v.1c0-.1-.1-.2-.1-.3s-.1-.4-.1-.6c-.1-.7-.2-1.3-.2-2v-1c0-.3-.3-.6-.6-.7-.4-.1-.8-.1-1.2.1-.8.2-1.5.9-1.6 1.8zM154.8 295.3c-.5 3.2.1 6.5 1.6 9.4.7 1.1 1.6 2 2.8 2.6.8.4 1.8.3 2.6-.2.5-.4 1.1-1.2.3-1.6-.2-.1-.4-.2-.6-.4l-.3-.2c-.1-.1 0 0 0 0l-.2-.2c-.4-.3-.7-.7-1-1.1-.3-.4-.5-.8-.6-1.2-.2-.5-.4-1-.5-1.5-.2-.9-.4-1.9-.5-2.8v-2c0-.4 0-.7.1-1.1.2-1.7-3.5-1.1-3.7.3z"/><path class="st0" d="M54.8 211.4s-30.1 27.3-16.9 48.1S120 288 120 288l-12-8.7s27.6 20.6 26.6 13.8-19.2-24.9-19.2-24.9 17.7-3.7 12.6-9.2c-3.4-3.6-21.4-1.8-21.4-1.8s-9.5-11.2-22.5-4L67 242.8s-3.3-29.3-12.2-31.4z"/><path class="st1" d="M52.6 211.2c-6 5.5-11 11.8-15 18.9-3 5.3-5.3 11.2-5.5 17.3-.2 5.6 1.8 11.1 5.5 15.3 3.3 3.4 7.1 6.2 11.4 8.3 5.1 2.6 10.3 4.8 15.7 6.5 11.2 3.6 22.5 6.4 34.1 8.4 6.5 1.2 13.1 2.4 19.7 3h.3c.9.1 1.9-.1 2.7-.4.2-.1 1.3-.6.8-1l-12-8.7c-1-.5-2.1-.6-3.1-.2-.3.1-2.3.8-1.6 1.3 2.6 1.9 5.2 3.8 7.8 5.6 4.4 3.2 9 6 13.8 8.4 1.8 1 3.7 1.5 5.7 1.6 1.6 0 4.4-.5 4.1-2.6-.2-2.3-1.9-4.6-3.2-6.5-1.9-2.7-3.9-5.2-6-7.7-3.2-3.8-6.6-7.4-10.1-10.9l-1.6 1.3c2.2-.5 4.4-1.1 6.5-1.8 2.8-1 6.6-2.2 8.2-4.9s-1.4-4.8-3.7-5.4c-3.8-1.1-8-1.1-11.9-1-2.9 0-5.8.2-8.8.5l2.5.3c-6.6-7.7-18.2-8.5-26.7-3.8l3.9-.3-17.2-10.6.4.4c-.4-3.5-1-6.9-1.7-10.3-1.2-5.7-2.6-11.7-5.6-16.8-1.3-2.2-3.1-4.2-5.7-4.8-1.2-.2-2.4-.1-3.5.5-.8.5-.8 1 .2 1.3.3.1-.1-.1.2.1.2.1.3.1.5.2l.9.6c.7.6 1.3 1.3 1.8 2 1.3 1.8 2.3 3.8 3 5.9 1.7 4.6 2.9 9.4 3.7 14.2l.9 5.4c0 .8.1 1.6.3 2.4.3.7 1.7 1.2 2.3 1.6l5.3 3.3 10 6.1c1 .6 3 .1 3.9-.3 2.6-1.6 5.7-2.2 8.7-1.6 2.4.6 4.7 1.6 6.7 3.1 1 .8 1.9 1.8 2.9 2.6.8.5 1.8.6 2.7.4l.6-.1h-.1.7c4.7-.4 9.5-.6 14 .1 1.6.3 3.5.7 4.2 2.4s-.7 2.8-1.9 3.5c-2 1.2-4.1 2-6.3 2.6-.1.1-.3.1-.4.1l-.7.2-1.2.3-1.1.3c-.3.1-2.3.7-1.6 1.3 2.6 2.6 5.1 5.3 7.6 8 2.1 2.3 4.1 4.7 6.1 7.2 1.7 2.1 3.2 4.4 4.5 6.8.4.8.7 1.7.9 2.6v.5l-.1.2s.4-.3.3-.2c.6-.2 1.2-.4 1.8-.4h.3c-.3 0-.1-.1 0 0s.2 0 0 0h-.2l-.5-.1c.4.1-.2-.1-.3-.1l-.6-.2c-.4-.2-.9-.4-1.3-.6-4.4-2.2-8.6-4.8-12.6-7.7-2.9-2-5.8-4-8.6-6.1l-4.7 1.1 12 8.7 3.5-1.5c-1.4-.2-2.9-.4-4.3-.5h.1-.3l-.5-.1-1.2-.2-2.7-.4c-2.1-.3-4.2-.7-6.3-1-11.1-1.8-22-4.3-32.8-7.5-5.5-1.6-10.8-3.6-16.1-5.9-4.5-1.9-8.7-4.5-12.5-7.6-3.9-3.2-6.5-7.7-7.3-12.7-1-6 .6-12 3.1-17.4 3.8-8.2 9.7-15.6 16.2-21.9l.4-.3c.8-.7-.5-1-1-1.1-1.1-.4-2.3-.1-3.3.5z"/><path class="st0" d="M134.5 250c1.9 3.1 4 6.1 6.2 9 .5.8 1.2 1.6 2.1 2.1 1.6.7 3.4.7 5 .1 1.9-.6 3.7-2.2 5.4-3.4 6.3-4.4 12.3-9 18.2-13.9 1.4-1.2 2.3-3.8.1-4.8s-5.1-.3-6.8 1.2c-3.3 2.8-6.8 5.6-10.3 8.3-.9.7-1.8 1.3-2.6 2l-1.1.8-.8.6c.4-.3.3-.2-.1.1-1.7 1.3-3.5 2.5-5.3 3.6l2.5-.9h-.3l3.3.4c.4.3.4.3 0-.1l-.6-.7-.8-1.1c-.6-.9-1.3-1.7-1.9-2.6l-3.6-5.4c-.5-.8-2.1-1-2.8-1-1.3 0-2.6.3-3.7 1-2.1.9-3.5 2.7-2.1 4.7z"/><path class="st2" d="M210.7 271.8c1.4 6.9 6.3 14.1 13.4 15.8 5.8 1.2 11.9-.3 16.6-4.1 3.7-3.2 6.4-7.3 8-11.9 1.2-3.3 2.4-7.4 1.8-10.9-.8-4.3-6.4-.9-8.3.9-2.8 2.7-4.3 7.9-.8 10.7 2 1.6 4.9 1.6 7.3 1.2 3.7-.5 7.1-1.9 10.1-4.1 6.9-5.6 5.5-16.6 3.2-24.2l-.2-.6c-.3-.9-5 .8-4.6 1.8.7 2.1 1.2 4.3 1.5 6.6.6 4.1.8 8.6-.8 12.5-.7 1.8-1.8 3.4-3.4 4.6-.3.2-.5.3-.8.5-.6.3-1.3.5-2 .6-1.1.2-2.3.3-3.4.1-3.9-.7-5.2-4.7-3.7-8.1.4-.9.9-1.6 1.6-2.3.3-.3.7-.5 1-.9-.2.2-.2.1-.5.3-.5.3-1.1.4-1.7.5-.3 0-.3-.1-.1 0s.2.1.3.2c.3.3.4.7.5 1.1.7 2.9-.2 6.4-1.1 9.2-1.2 4-3.2 7.7-6 10.9-.6.7-1.4 1.4-2.1 1.9-.3.2-.7.5-1 .6-.2.1-.5.3-.8.4-.2.1-.4.2-.6.2-.5.1-1 .2-1.5.2-1.3.1-2.6 0-3.9-.2-7.6-1.4-11.3-8.5-13.4-15.1-.1-.1-.1-.3-.1-.5 0-.6-4.8.8-4.5 2.1z"/></g></svg>