<?xml version="1.0" encoding="UTF-8"?>
<!DOCTYPE svg PUBLIC "-//W3C//DTD SVG 1.1//EN" "http://www.w3.org/Graphics/SVG/1.1/DTD/svg11.dtd">
<svg xmlns="http://www.w3.org/2000/svg" version="1.1" width="500px" height="500px" style="shape-rendering:geometricPrecision; text-rendering:geometricPrecision; image-rendering:optimizeQuality; fill-rule:evenodd; clip-rule:evenodd" xmlns:xlink="http://www.w3.org/1999/xlink">
<g><path style="opacity:0.809" fill="#8cc472" d="M 275.5,66.5 C 299.057,65.3845 309.391,76.3845 306.5,99.5C 316.571,99.953 324.737,103.953 331,111.5C 333.972,115.708 334.805,120.208 333.5,125C 332.207,125.49 330.873,125.657 329.5,125.5C 327.552,111.2 319.552,104.2 305.5,104.5C 303.421,110.868 299.088,113.702 292.5,113C 290.38,111.477 290.047,109.644 291.5,107.5C 294.309,104.762 297.642,103.096 301.5,102.5C 305.395,82.9138 297.561,71.9138 278,69.5C 260.175,72.2453 245.175,80.2453 233,93.5C 232.007,96.308 231.173,99.1413 230.5,102C 228.866,102.494 227.199,102.66 225.5,102.5C 225.576,98.7715 226.743,95.4381 229,92.5C 242.276,79.7803 257.776,71.1137 275.5,66.5 Z M 299.5,104.5 C 300.152,106.621 299.485,108.621 297.5,110.5C 296.5,110.167 295.833,109.5 295.5,108.5C 296.549,106.784 297.882,105.451 299.5,104.5 Z"/></g>
<g><path style="opacity:0.974" fill="#06060b" d="M 249.5,118.5 C 240.44,142.637 230.774,166.637 220.5,190.5C 220.167,190.833 219.833,191.167 219.5,191.5C 213.772,189.985 208.105,188.319 202.5,186.5C 201.695,189.555 199.695,191.222 196.5,191.5C 193.931,197.063 189.597,200.397 183.5,201.5C 183.808,202.308 184.308,202.975 185,203.5C 185.742,213.898 185.242,224.231 183.5,234.5C 180.631,251.842 171.964,265.342 157.5,275C 168.746,305.733 177.746,337.067 184.5,369C 183.5,370.667 182.5,372.333 181.5,374C 163.292,381.532 144.292,385.032 124.5,384.5C 123.248,389.093 122.248,393.759 121.5,398.5C 121.833,399.5 122.167,400.5 122.5,401.5C 131.049,405.608 139.716,409.441 148.5,413C 155.655,419.069 154.988,424.069 146.5,428C 143.576,428.988 140.576,429.654 137.5,430C 119.513,431.242 101.513,431.575 83.5,431C 78.979,430.271 74.6457,428.937 70.5,427C 65.2124,422.148 64.3791,416.648 68,410.5C 68.4999,398.838 68.6665,387.171 68.5,375.5C 43.4664,367.789 24.7998,352.456 12.5,329.5C 27.2615,286.213 43.5948,243.547 61.5,201.5C 45.8777,200.087 37.211,191.587 35.5,176C 37.7932,167.373 41.4599,159.373 46.5,152C 43.6909,147.6 42.3576,142.766 42.5,137.5C 43.6546,114.351 53.3213,95.8507 71.5,82C 85.3875,73.8945 99.3875,73.5611 113.5,81C 116.762,83.592 119.262,86.7587 121,90.5C 122.205,91.0712 123.372,91.7379 124.5,92.5C 127.866,100.07 131.866,107.237 136.5,114C 142.038,115.051 147.372,116.717 152.5,119C 153.866,121.382 153.533,123.548 151.5,125.5C 147.695,127.435 143.695,128.768 139.5,129.5C 139.167,135.996 137.334,141.996 134,147.5C 129.217,152.552 123.883,156.885 118,160.5C 117.842,163.553 118.342,166.553 119.5,169.5C 125.828,164.014 132.828,159.514 140.5,156C 144.751,154.805 149.085,154.305 153.5,154.5C 156.571,145.022 160.738,136.022 166,127.5C 169.935,122.298 174.268,121.631 179,125.5C 179.333,126.833 179.667,128.167 180,129.5C 183.097,121.474 186.597,113.641 190.5,106C 210.3,107.799 229.967,110.799 249.5,115C 250.171,115.986 250.171,117.153 249.5,118.5 Z"/></g>
<g><path style="opacity:1" fill="#f6f6f6" d="M 121.5,100.5 C 124.223,105.602 127.223,110.602 130.5,115.5C 135.315,118.699 140.648,120.532 146.5,121C 146.957,121.414 147.291,121.914 147.5,122.5C 142.872,124.061 138.205,125.561 133.5,127C 132.55,129.432 132.55,131.932 133.5,134.5C 129.461,135.34 126.461,134.007 124.5,130.5C 123.675,129.614 122.675,129.281 121.5,129.5C 123.097,135.583 127.097,138.416 133.5,138C 131.308,146.528 125.975,152.195 117.5,155C 114.894,156.938 113.061,159.438 112,162.5C 108.388,158.945 104.222,156.279 99.5,154.5C 98.7379,153.372 98.0712,152.205 97.5,151C 100.052,148.147 102.885,145.647 106,143.5C 106.956,139.428 106.456,135.595 104.5,132C 111.09,128.86 112.757,124.193 109.5,118C 115.62,113.585 119.62,107.751 121.5,100.5 Z"/></g>
<g><path style="opacity:1" fill="#191a1c" d="M 123.5,112.5 C 125.97,113.36 126.137,114.694 124,116.5C 122.232,115.318 122.065,113.985 123.5,112.5 Z"/></g>
<g><path style="opacity:1" fill="#f7f7f7" d="M 199.5,171.5 C 198.598,169.659 197.264,168.326 195.5,167.5C 195.5,166.5 195.5,165.5 195.5,164.5C 201.399,163.135 206.899,160.801 212,157.5C 211.71,161.089 213.21,162.589 216.5,162C 217.719,159.717 217.719,157.384 216.5,155C 218.354,153.477 219.854,151.644 221,149.5C 223.565,144.864 225.065,139.864 225.5,134.5C 225.135,131.638 223.469,130.138 220.5,130C 214.509,128.59 208.509,128.423 202.5,129.5C 200.914,131.67 199.58,134.004 198.5,136.5C 190.578,135.584 187.412,138.917 189,146.5C 189.5,147 190,147.5 190.5,148C 185.786,150.051 181.619,152.885 178,156.5C 183.36,141.781 189.527,127.281 196.5,113C 210.098,114.876 223.765,116.876 237.5,119C 238.428,119.388 239.095,120.055 239.5,121C 232.299,140.902 224.132,160.402 215,179.5C 210.774,180.415 206.607,179.915 202.5,178C 201.086,176.007 200.086,173.84 199.5,171.5 Z"/></g>
<g><path style="opacity:0.517" fill="#8ac271" d="M 249.5,118.5 C 325.82,141.108 401.82,164.608 477.5,189C 477.691,199.005 477.691,209.172 477.5,219.5C 478.196,224.66 478.863,229.827 479.5,235C 478.344,245.784 478.677,256.617 480.5,267.5C 479.285,277.086 479.618,286.753 481.5,296.5C 480.114,306.61 480.448,316.777 482.5,327C 482.352,331.993 482.019,336.993 481.5,342C 482.256,347.146 482.923,352.312 483.5,357.5C 482.139,368.132 482.473,378.799 484.5,389.5C 482.801,389.34 481.134,389.506 479.5,390C 458.346,398.216 437.346,406.716 416.5,415.5C 409.83,414.195 403.163,413.861 396.5,414.5C 377.653,413.196 358.82,411.862 340,410.5C 335.807,411.095 331.64,411.428 327.5,411.5C 324.833,410.833 322.167,410.167 319.5,409.5C 315.287,410.144 311.121,410.478 307,410.5C 304.204,409.789 301.37,409.122 298.5,408.5C 294.624,409.088 290.79,409.421 287,409.5C 284,408.833 281,408.167 278,407.5C 274.168,408.161 270.335,408.494 266.5,408.5C 259.534,407.657 252.534,406.991 245.5,406.5C 225.405,348.875 204.738,291.542 183.5,234.5C 185.242,224.231 185.742,213.898 185,203.5C 184.308,202.975 183.808,202.308 183.5,201.5C 189.597,200.397 193.931,197.063 196.5,191.5C 199.695,191.222 201.695,189.555 202.5,186.5C 208.105,188.319 213.772,189.985 219.5,191.5C 219.833,191.167 220.167,190.833 220.5,190.5C 230.774,166.637 240.44,142.637 249.5,118.5 Z"/></g>
<g><path style="opacity:1" fill="#f8f8f8" d="M 171.5,126.5 C 173.95,126.874 174.95,128.374 174.5,131C 173.941,135.905 172.608,140.572 170.5,145C 172.472,150.281 172.972,155.781 172,161.5C 171.363,163.303 170.197,164.636 168.5,165.5C 165.276,161.44 161.609,157.94 157.5,155C 160.988,144.858 165.655,135.358 171.5,126.5 Z"/></g>
<g><path style="opacity:1" fill="#ececec" d="M 205.5,131.5 C 210.862,131.472 216.195,131.806 221.5,132.5C 220.978,135.568 220.145,138.568 219,141.5C 218.439,142.022 217.772,142.355 217,142.5C 211.725,139.55 206.725,139.884 202,143.5C 199.285,142.262 196.618,142.262 194,143.5C 193.517,142.552 193.351,141.552 193.5,140.5C 196.187,140.664 198.854,140.497 201.5,140C 203.246,137.341 204.58,134.508 205.5,131.5 Z"/></g>
<g><path style="opacity:0.834" fill="#8cc472" d="M 337.5,133.5 C 338.5,133.5 339.5,133.5 340.5,133.5C 341.167,135.819 341.334,138.153 341,140.5C 337.884,142.024 336.05,141.024 335.5,137.5C 335.752,135.927 336.418,134.594 337.5,133.5 Z"/></g>
<g><path style="opacity:1" fill="#f5f5f5" d="M 207.5,143.5 C 210.5,144.167 213.5,144.833 216.5,145.5C 217.085,148.261 216.085,149.927 213.5,150.5C 210.709,149.27 208.042,147.77 205.5,146C 206.381,145.292 207.047,144.458 207.5,143.5 Z"/></g>
<g><path style="opacity:1" fill="#f6f6f6" d="M 195.5,167.5 C 196.263,169.368 197.263,171.035 198.5,172.5C 200.133,177.429 199.633,182.096 197,186.5C 196.61,181.467 194.444,177.467 190.5,174.5C 190.167,174.833 189.833,175.167 189.5,175.5C 193.479,182.463 192.812,188.963 187.5,195C 180.417,198.4 176.751,196.233 176.5,188.5C 179.486,189.355 182.486,189.855 185.5,190C 185.833,189.667 186.167,189.333 186.5,189C 181.062,184.273 175.728,184.44 170.5,189.5C 168.664,188.081 166.664,186.914 164.5,186C 169.868,174.261 177.201,163.928 186.5,155C 193.519,150.495 201.186,148.662 209.5,149.5C 209.739,151.467 209.406,153.301 208.5,155C 201.96,156.786 195.96,159.619 190.5,163.5C 191.611,165.552 193.277,166.886 195.5,167.5 Z"/></g>
<g><path style="opacity:1" fill="#fafafb" d="M 143.5,276.5 C 140.833,276.5 138.167,276.5 135.5,276.5C 127.53,274.348 120.196,270.848 113.5,266C 102.943,257.278 93.6101,247.445 85.5,236.5C 84.1667,235.167 82.8333,235.167 81.5,236.5C 92.3662,252.764 106.366,265.597 123.5,275C 127.014,276.562 130.681,277.395 134.5,277.5C 134.842,278.338 135.508,278.672 136.5,278.5C 142.335,278.876 148.002,278.21 153.5,276.5C 159.508,296.86 165.674,317.193 172,337.5C 175.291,347.982 177.291,358.649 178,369.5C 169.465,374.259 160.299,376.759 150.5,377C 160.983,373.106 161.983,367.772 153.5,361C 151.567,360.217 150.067,360.717 149,362.5C 147.784,360.038 147.118,357.371 147,354.5C 145.072,348.022 141.739,347.022 137,351.5C 135.139,353.888 133.806,356.554 133,359.5C 132.286,366.264 132.786,372.931 134.5,379.5C 113.013,380.819 92.013,378.319 71.5,372C 70.6919,371.692 70.0253,371.192 69.5,370.5C 73.2552,365.429 74.4219,359.763 73,353.5C 70.2418,350.092 67.2418,349.759 64,352.5C 62.9893,357.787 62.156,363.121 61.5,368.5C 43.138,360.97 28.9713,348.637 19,331.5C 18.3333,329.5 18.3333,327.5 19,325.5C 27.6409,303.104 35.9742,280.438 44,257.5C 44.4186,256.328 45.0853,255.328 46,254.5C 48.4003,256.729 50.567,259.063 52.5,261.5C 52.8333,262.5 53.5,263.167 54.5,263.5C 58.7041,268.269 64.0374,270.935 70.5,271.5C 68.5096,265.336 64.5096,260.836 58.5,258C 65.273,258.313 70.1064,255.479 73,249.5C 74.0592,243.223 71.3925,239.89 65,239.5C 62.7473,239.631 60.5806,240.131 58.5,241C 56.9825,242.685 55.3159,244.185 53.5,245.5C 51.9984,244.917 50.6651,244.084 49.5,243C 55.2167,228.724 61.3834,214.557 68,200.5C 77.2239,198.388 84.8906,193.722 91,186.5C 94.6637,178.994 94.1637,171.828 89.5,165C 93.4816,163.855 96.815,161.689 99.5,158.5C 113.64,166.152 121.806,177.818 124,193.5C 121.715,191.093 119.549,188.593 117.5,186C 116.056,185.219 114.723,185.386 113.5,186.5C 118.927,193.683 124.594,200.683 130.5,207.5C 131.891,208.645 133.224,208.645 134.5,207.5C 137.071,199.536 141.738,193.036 148.5,188C 156.207,185.341 163.207,186.675 169.5,192C 180.663,201.419 183.83,213.252 179,227.5C 176.997,244.672 169.83,259.172 157.5,271C 153.381,274.226 148.714,276.06 143.5,276.5 Z"/></g>
<g><path style="opacity:1" fill="#f3f3f4" d="M 150.5,184.5 C 150.5,184.167 150.5,183.833 150.5,183.5C 153.379,180.004 152.879,177.004 149,174.5C 148.407,165.203 144.407,163.203 137,168.5C 135.896,172.184 134.73,175.85 133.5,179.5C 130.689,180.776 128.522,182.776 127,185.5C 125.5,181.667 124,177.833 122.5,174C 130.483,164.175 140.817,158.841 153.5,158C 166.119,163.903 168.452,172.57 160.5,184C 157.183,184.498 153.85,184.665 150.5,184.5 Z"/></g>
<g><path style="opacity:1" fill="#5a5a5d" d="M 195.5,167.5 C 197.264,168.326 198.598,169.659 199.5,171.5C 198.833,171.5 198.5,171.833 198.5,172.5C 197.263,171.035 196.263,169.368 195.5,167.5 Z"/></g>
<g><path style="opacity:1" fill="#b6b6b8" d="M 142.5,168.5 C 143.376,168.369 144.043,168.702 144.5,169.5C 139.407,177.406 138.74,177.072 142.5,168.5 Z"/></g>
<g><path style="opacity:1" fill="#cbcbcc" d="M 144.5,177.5 C 148.527,177.281 149.194,178.448 146.5,181C 144.5,181.667 142.5,181.667 140.5,181C 142.324,180.34 143.657,179.173 144.5,177.5 Z"/></g>
<g><path style="opacity:1" fill="#0a0a0e" d="M 93.5,191.5 C 93.56,192.043 93.8933,192.376 94.5,192.5C 95.48,189.914 95.8134,187.247 95.5,184.5C 97.4874,180.726 100.487,179.726 104.5,181.5C 106.938,185.062 106.938,188.729 104.5,192.5C 107.665,192.551 110.998,192.718 114.5,193C 117.295,194.793 119.795,196.96 122,199.5C 123.646,206.549 120.979,210.882 114,212.5C 109.06,210.861 104.727,208.195 101,204.5C 100.184,208.33 98.8509,211.996 97,215.5C 95.0096,218.722 92.5096,219.222 89.5,217C 87.9546,215.178 87.288,213.011 87.5,210.5C 87.935,206.711 88.935,203.044 90.5,199.5C 87.1828,195.113 88.1828,192.446 93.5,191.5 Z"/></g>
<g><path style="opacity:1" fill="#eeeeee" d="M 135.5,182.5 C 136.496,182.414 137.329,182.748 138,183.5C 138.497,185.81 138.663,188.143 138.5,190.5C 136.167,190.5 133.833,190.5 131.5,190.5C 131.776,187.281 133.109,184.615 135.5,182.5 Z"/></g>
<g><path style="opacity:1" fill="#6c6c6f" d="M 95.5,184.5 C 95.8134,187.247 95.48,189.914 94.5,192.5C 93.8933,192.376 93.56,192.043 93.5,191.5C 94.1667,189.167 94.8333,186.833 95.5,184.5 Z"/></g>
<g><path style="opacity:1" fill="#d2d2d3" d="M 101.5,183.5 C 102.438,185.923 101.938,188.256 100,190.5C 99.1668,187.829 99.6668,185.496 101.5,183.5 Z"/></g>
<g><path style="opacity:1" fill="#8d8d8f" d="M 150.5,183.5 C 150.5,183.833 150.5,184.167 150.5,184.5C 148.099,185.539 145.765,186.873 143.5,188.5C 142.571,187.311 142.238,185.978 142.5,184.5C 145.237,184.599 147.904,184.265 150.5,183.5 Z"/></g>
<g><path style="opacity:1" fill="#dfdfe0" d="M 129.5,194.5 C 129.56,193.957 129.893,193.624 130.5,193.5C 132.535,194.041 134.535,194.708 136.5,195.5C 135.396,197.389 134.063,199.055 132.5,200.5C 131.482,198.406 130.482,196.406 129.5,194.5 Z"/></g>
<g><path style="opacity:1" fill="#ececed" d="M 109.5,195.5 C 117.812,195.619 120.146,199.453 116.5,207C 114.305,208.373 111.971,208.706 109.5,208C 106.705,206.207 104.205,204.04 102,201.5C 101.383,200.551 101.549,199.718 102.5,199C 104.925,197.787 107.259,196.621 109.5,195.5 Z"/></g>
<g><path style="opacity:1" fill="#c5c5c6" d="M 95.5,201.5 C 96.0967,201.735 96.4301,202.235 96.5,203C 95.5553,206.301 94.3886,209.467 93,212.5C 92.4864,208.538 93.3197,204.871 95.5,201.5 Z"/></g>
<g><path style="opacity:1" fill="#0c0c10" d="M 154.5,222.5 C 164.703,222.208 169.203,227.208 168,237.5C 164.642,240.882 160.475,242.382 155.5,242C 160.838,245.509 162.672,250.342 161,256.5C 154.534,262.342 149.201,261.342 145,253.5C 144.501,249.179 144.334,244.846 144.5,240.5C 141.002,239.554 137.502,239.887 134,241.5C 133.226,248.197 135.06,249.03 139.5,244C 140.944,243.219 142.277,243.386 143.5,244.5C 140.966,249.563 136.966,251.73 131.5,251C 126.655,244.428 127.988,239.428 135.5,236C 137.5,235.667 139.5,235.333 141.5,235C 136.398,226.755 138.732,223.088 148.5,224C 149.025,224.692 149.692,225.192 150.5,225.5C 151.901,224.479 153.235,223.479 154.5,222.5 Z"/></g>
<g><path style="opacity:1" fill="#f3f3f4" d="M 158.5,237.5 C 156.735,236.539 154.735,236.205 152.5,236.5C 152.5,234.833 152.5,233.167 152.5,231.5C 153.24,226.849 155.906,225.349 160.5,227C 163.231,229.897 164.231,233.397 163.5,237.5C 161.833,237.5 160.167,237.5 158.5,237.5 Z"/></g>
<g><path style="opacity:1" fill="#c3c3c5" d="M 143.5,227.5 C 147.049,228.957 148.216,231.623 147,235.5C 145.007,233.182 143.841,230.516 143.5,227.5 Z"/></g>
<g><path style="opacity:1" fill="#4c6941" d="M 414.5,338.5 C 421.018,305.726 426.351,272.726 430.5,239.5C 430.345,234.25 428.178,233.25 424,236.5C 421.803,256.016 418.636,275.349 414.5,294.5C 413,294.833 411.5,295.167 410,295.5C 399.272,293.934 388.605,292.267 378,290.5C 378.767,298.131 378.433,305.798 377,313.5C 375.295,322.651 373.128,331.651 370.5,340.5C 384.17,341.811 397.836,341.811 411.5,340.5C 412.239,340.369 412.906,340.536 413.5,341C 412.272,341.779 411.272,342.779 410.5,344C 412.07,349.051 414.07,353.884 416.5,358.5C 415.675,359.386 414.675,359.719 413.5,359.5C 413.5,361.167 413.5,362.833 413.5,364.5C 410.251,358.091 407.585,351.425 405.5,344.5C 392.82,344.561 380.153,344.228 367.5,343.5C 369.095,363.658 370.761,383.824 372.5,404C 372.57,407.992 370.57,409.492 366.5,408.5C 365.218,387.163 363.884,365.83 362.5,344.5C 358.894,344.211 355.394,344.544 352,345.5C 348.157,361.87 344.157,378.204 340,394.5C 339.051,397.2 337.217,398.033 334.5,397C 338.671,379.823 343.004,362.656 347.5,345.5C 335.496,344.115 323.496,342.782 311.5,341.5C 306.815,360.394 301.815,379.227 296.5,398C 294.905,400.833 293.239,401 291.5,398.5C 297.299,379.64 302.632,360.64 307.5,341.5C 302.122,340.954 299.288,337.954 299,332.5C 296.335,319.205 296.001,305.871 298,292.5C 298.833,290.333 300.333,288.833 302.5,288C 314.108,285.984 325.775,284.484 337.5,283.5C 340.138,268.807 342.972,254.141 346,239.5C 347.122,237.376 348.622,235.543 350.5,234C 373.65,232.866 396.817,232.032 420,231.5C 424.222,231.559 428.389,232.059 432.5,233C 433,233.5 433.5,234 434,234.5C 433.641,255.356 431.307,276.023 427,296.5C 424.548,310.543 421.882,324.543 419,338.5C 417.35,341.106 415.85,341.106 414.5,338.5 Z"/></g>
<g><path style="opacity:1" fill="#c3dfb5" d="M 414.5,338.5 C 413.29,338.932 412.29,339.599 411.5,340.5C 397.836,341.811 384.17,341.811 370.5,340.5C 373.128,331.651 375.295,322.651 377,313.5C 378.433,305.798 378.767,298.131 378,290.5C 388.605,292.267 399.272,293.934 410,295.5C 411.5,295.167 413,294.833 414.5,294.5C 418.636,275.349 421.803,256.016 424,236.5C 428.178,233.25 430.345,234.25 430.5,239.5C 426.351,272.726 421.018,305.726 414.5,338.5 Z"/></g>
<g><path style="opacity:1" fill="#0d0d11" d="M 135.5,276.5 C 135.5,277.167 135.167,277.5 134.5,277.5C 130.681,277.395 127.014,276.562 123.5,275C 106.366,265.597 92.3662,252.764 81.5,236.5C 82.8333,235.167 84.1667,235.167 85.5,236.5C 93.6101,247.445 102.943,257.278 113.5,266C 120.196,270.848 127.53,274.348 135.5,276.5 Z"/></g>
<g><path style="opacity:1" fill="#727275" d="M 152.5,231.5 C 152.5,233.167 152.5,234.833 152.5,236.5C 154.735,236.205 156.735,236.539 158.5,237.5C 156.167,237.5 153.833,237.5 151.5,237.5C 151.205,235.265 151.539,233.265 152.5,231.5 Z"/></g>
<g><path style="opacity:1" fill="#c4e0b5" d="M 408.5,235.5 C 412.226,235.177 415.893,235.511 419.5,236.5C 416.846,249.425 414.512,262.425 412.5,275.5C 414.232,279.506 413.732,283.173 411,286.5C 410.505,288.473 410.338,290.473 410.5,292.5C 398.026,290.712 385.526,289.045 373,287.5C 366.139,287.686 361.473,291.019 359,297.5C 356.953,303.304 355.12,309.138 353.5,315C 346.724,315.92 340.057,315.586 333.5,314C 335.556,313.689 337.556,313.189 339.5,312.5C 341.509,300.587 342.676,288.587 343,276.5C 345.227,264.801 347.561,253.134 350,241.5C 351.167,240.333 352.333,239.167 353.5,238C 371.994,237.184 390.327,236.35 408.5,235.5 Z"/></g>
<g><path style="opacity:1" fill="#ededed" d="M 63.5,242.5 C 65.5,242.5 67.5,242.5 69.5,242.5C 68.2356,251.43 63.2356,254.764 54.5,252.5C 56.8393,248.498 59.8393,245.165 63.5,242.5 Z"/></g>
<g><path style="opacity:1" fill="#6a6a6d" d="M 150.5,243.5 C 149.539,245.265 149.205,247.265 149.5,249.5C 148.203,247.307 148.203,244.973 149.5,242.5C 150.107,242.624 150.44,242.957 150.5,243.5 Z"/></g>
<g><path style="opacity:1" fill="#ededed" d="M 150.5,243.5 C 155.589,245.93 157.589,249.93 156.5,255.5C 152.307,255.638 149.973,253.638 149.5,249.5C 149.205,247.265 149.539,245.265 150.5,243.5 Z"/></g>
<g><path style="opacity:1" fill="#b4b4b5" d="M 50.5,247.5 C 50.6921,249.545 50.6921,251.545 50.5,253.5C 49.5,253.167 48.8333,252.5 48.5,251.5C 49.1799,250.14 49.8466,248.807 50.5,247.5 Z"/></g>
<g><path style="opacity:1" fill="#93c87a" d="M 410.5,257.5 C 412.969,258.607 413.969,260.607 413.5,263.5C 412.5,263.5 411.5,263.5 410.5,263.5C 410.5,261.5 410.5,259.5 410.5,257.5 Z"/></g>
<g><path style="opacity:1" fill="#f5f5f5" d="M 54.5,263.5 C 54.5,262.167 53.8333,261.5 52.5,261.5C 52.281,260.325 52.6143,259.325 53.5,258.5C 58.9762,259.4 63.3095,262.067 66.5,266.5C 65.6667,266.833 64.8333,267.167 64,267.5C 60.387,267.024 57.2204,265.691 54.5,263.5 Z"/></g>
<g><path style="opacity:1" fill="#3e3e41" d="M 52.5,261.5 C 53.8333,261.5 54.5,262.167 54.5,263.5C 53.5,263.167 52.8333,262.5 52.5,261.5 Z"/></g>
<g><path style="opacity:1" fill="#626265" d="M 135.5,276.5 C 138.167,276.5 140.833,276.5 143.5,276.5C 141.167,277.167 138.833,277.833 136.5,278.5C 135.508,278.672 134.842,278.338 134.5,277.5C 135.167,277.5 135.5,277.167 135.5,276.5 Z"/></g>
<g><path style="opacity:1" fill="#c3dfb5" d="M 336.5,286.5 C 337.156,287.622 337.489,288.955 337.5,290.5C 336.845,296.82 336.345,303.153 336,309.5C 329.583,310.815 323.083,311.815 316.5,312.5C 316.818,304.762 314.818,297.762 310.5,291.5C 319.18,289.455 327.847,287.788 336.5,286.5 Z"/></g>
<g><path style="opacity:1" fill="#0b0b0f" d="M 119.5,288.5 C 129.835,287.84 133.501,292.507 130.5,302.5C 135.669,303.84 139.502,306.84 142,311.5C 142.874,314.961 142.04,317.961 139.5,320.5C 135.712,322.256 131.712,322.922 127.5,322.5C 128.651,327.166 128.651,331.833 127.5,336.5C 118.226,341.082 112.56,338.248 110.5,328C 110.889,324.769 111.889,321.769 113.5,319C 110.424,318.654 107.424,317.988 104.5,317C 101.479,310.691 103.479,306.358 110.5,304C 112.81,303.503 115.143,303.337 117.5,303.5C 115.636,298.071 116.303,293.071 119.5,288.5 Z"/></g>
<g><path style="opacity:1" fill="#e6e6e7" d="M 121.5,291.5 C 123.39,291.297 124.89,291.963 126,293.5C 126.667,296.167 126.667,298.833 126,301.5C 125.632,302.91 124.799,303.91 123.5,304.5C 121.935,300.313 121.268,295.98 121.5,291.5 Z"/></g>
<g><path style="opacity:1" fill="#c3dfb5" d="M 304.5,292.5 C 306.752,292.916 308.252,294.249 309,296.5C 310.932,302.673 311.932,309.006 312,315.5C 312.308,316.308 312.808,316.975 313.5,317.5C 325.76,319.064 338.093,320.064 350.5,320.5C 353.089,320.473 355.589,320.139 358,319.5C 359.159,311.176 361.492,303.176 365,295.5C 367.196,292.875 370.03,291.875 373.5,292.5C 372.634,308.496 369.967,324.163 365.5,339.5C 348.109,339.843 330.776,339.009 313.5,337C 310.367,336.607 307.367,335.774 304.5,334.5C 301.873,322.641 301.04,310.641 302,298.5C 302.655,296.372 303.489,294.372 304.5,292.5 Z"/></g>
<g><path style="opacity:1" fill="#0e0e12" d="M 44.5,293.5 C 47.3245,293.081 49.4912,294.081 51,296.5C 52.1268,299.377 52.7935,302.377 53,305.5C 59.6639,301.607 64.1639,303.273 66.5,310.5C 64.7321,317.941 60.0655,321.608 52.5,321.5C 53.3761,324.799 53.5428,328.132 53,331.5C 49.8427,337.598 46.0094,337.931 41.5,332.5C 40.0541,330.382 39.3874,328.049 39.5,325.5C 36.2011,326.376 32.8678,326.543 29.5,326C 28.1955,325.196 27.5288,324.029 27.5,322.5C 29.2109,317.127 32.8776,313.793 38.5,312.5C 38.7423,308.92 38.909,305.253 39,301.5C 40.129,298.206 41.9624,295.54 44.5,293.5 Z"/></g>
<g><path style="opacity:1" fill="#d2d2d3" d="M 44.5,298.5 C 45.5,298.5 46.5,298.5 47.5,298.5C 47.7009,301.508 48.0343,304.508 48.5,307.5C 47.8052,314.746 46.3052,315.08 44,308.5C 43.3412,305.112 43.5078,301.779 44.5,298.5 Z"/></g>
<g><path style="opacity:1" fill="#ececec" d="M 56.5,307.5 C 61.6538,308.612 62.8204,311.612 60,316.5C 56.6207,318.923 53.1207,319.09 49.5,317C 51.2791,313.393 53.6125,310.226 56.5,307.5 Z"/></g>
<g><path style="opacity:1" fill="#eeeeee" d="M 110.5,307.5 C 114.585,306.659 117.585,307.992 119.5,311.5C 115.91,313.969 111.91,314.969 107.5,314.5C 106.909,311.325 107.909,308.991 110.5,307.5 Z"/></g>
<g><path style="opacity:1" fill="#f2f2f2" d="M 128.5,306.5 C 135.084,307.407 137.75,311.073 136.5,317.5C 124.247,320.271 121.58,316.605 128.5,306.5 Z"/></g>
<g><path style="opacity:1" fill="#eeeeef" d="M 39.5,315.5 C 41.9513,317.21 41.9513,319.21 39.5,321.5C 37.2324,322.544 34.8991,322.711 32.5,322C 34.1013,318.893 36.4347,316.727 39.5,315.5 Z"/></g>
<g><path style="opacity:1" fill="#f1f1f1" d="M 117.5,318.5 C 119.124,318.36 120.29,319.027 121,320.5C 122.975,324.963 123.808,329.629 123.5,334.5C 117.667,334.831 115.001,331.998 115.5,326C 115.739,323.365 116.406,320.865 117.5,318.5 Z"/></g>
<g><path style="opacity:1" fill="#e7e7e8" d="M 45.5,320.5 C 47.6493,323.185 48.9826,326.352 49.5,330C 49.3699,331.059 48.8699,331.892 48,332.5C 44.6943,328.995 43.861,324.995 45.5,320.5 Z"/></g>
<g><path style="opacity:1" fill="#f1f1f1" d="M 142.5,352.5 C 143.496,352.414 144.329,352.748 145,353.5C 146.67,360.018 145.337,365.685 141,370.5C 139.851,373.393 139.351,376.393 139.5,379.5C 138.5,379.5 137.5,379.5 136.5,379.5C 133.625,369.238 135.625,360.238 142.5,352.5 Z"/></g>
<g><path style="opacity:1" fill="#4a683e" d="M 413.5,364.5 C 414.15,364.804 414.817,365.137 415.5,365.5C 416.298,363.922 416.798,362.256 417,360.5C 423.066,373.87 428.233,387.536 432.5,401.5C 430.278,401.822 428.444,401.155 427,399.5C 422.643,387.703 418.143,376.036 413.5,364.5 Z"/></g>
<g><path style="opacity:1" fill="#b4b4b5" d="M 67.5,356.5 C 68.2674,357.172 68.9341,358.005 69.5,359C 68.7454,361.175 67.912,363.341 67,365.5C 66.3658,362.445 66.5325,359.445 67.5,356.5 Z"/></g>
<g><path style="opacity:1" fill="#e3e3e4" d="M 151.5,365.5 C 153.288,365.215 154.955,365.548 156.5,366.5C 154.142,370.661 150.809,372.661 146.5,372.5C 147.065,369.284 148.732,366.951 151.5,365.5 Z"/></g>
<g><path style="opacity:1" fill="#f9f9f9" d="M 73.5,377.5 C 82.3426,379.898 91.3426,381.565 100.5,382.5C 97.8815,389.969 96.3815,397.636 96,405.5C 101.394,408.521 106.894,411.355 112.5,414C 108.621,415.934 104.454,416.767 100,416.5C 93.8237,416.12 87.657,415.62 81.5,415C 77,414.5 74.5,412 74,407.5C 73.5002,397.506 73.3335,387.506 73.5,377.5 Z"/></g>
<g><path style="opacity:1" fill="#f3f3f3" d="M 103.5,383.5 C 108.233,383.223 112.9,383.557 117.5,384.5C 117.833,385 118.167,385.5 118.5,386C 117.057,391.429 116.557,396.929 117,402.5C 121.361,406.206 126.194,409.039 131.5,411C 127.259,412.457 122.926,412.791 118.5,412C 112.672,410.057 107.005,407.724 101.5,405C 100.056,403.874 99.3898,402.374 99.5,400.5C 100.942,394.844 102.275,389.177 103.5,383.5 Z"/></g>
<g><path style="opacity:1" fill="#f1f1f1" d="M 136.5,413.5 C 140.377,413.846 144.043,415.012 147.5,417C 149.007,417.837 149.507,419.004 149,420.5C 143.814,423.673 138.314,425.006 132.5,424.5C 133.81,421.246 132.81,418.746 129.5,417C 131.858,415.724 134.192,414.558 136.5,413.5 Z"/></g>
<g><path style="opacity:1" fill="#f6f6f6" d="M 71.5,414.5 C 86.703,421.054 102.036,421.054 117.5,414.5C 120.246,416.473 123.246,417.973 126.5,419C 129.167,421.333 129.167,423.667 126.5,426C 109.967,431.54 93.3006,431.873 76.5,427C 72.2051,423.907 70.5384,419.74 71.5,414.5 Z"/></g>
</svg>
